<?xml version="1.0" encoding="utf-8" standalone="no"?>
<!DOCTYPE svg PUBLIC "-//W3C//DTD SVG 1.1//EN"
  "http://www.w3.org/Graphics/SVG/1.1/DTD/svg11.dtd">
<svg xmlns:xlink="http://www.w3.org/1999/xlink" width="864pt" height="432pt" viewBox="0 0 864 432" xmlns="http://www.w3.org/2000/svg" version="1.1">
 <metadata>
  <rdf:RDF xmlns:dc="http://purl.org/dc/elements/1.1/" xmlns:cc="http://creativecommons.org/ns#" xmlns:rdf="http://www.w3.org/1999/02/22-rdf-syntax-ns#">
   <cc:Work>
    <dc:type rdf:resource="http://purl.org/dc/dcmitype/StillImage"/>
    <dc:date>2024-12-02T17:10:16.344498</dc:date>
    <dc:format>image/svg+xml</dc:format>
    <dc:creator>
     <cc:Agent>
      <dc:title>Matplotlib v3.9.3, https://matplotlib.org/</dc:title>
     </cc:Agent>
    </dc:creator>
   </cc:Work>
  </rdf:RDF>
 </metadata>
 <defs>
  <style type="text/css">*{stroke-linejoin: round; stroke-linecap: butt}</style>
 </defs>
 <g id="figure_1">
  <g id="patch_1">
   <path d="M 0 432 
L 864 432 
L 864 0 
L 0 0 
z
" style="fill: #ffffff"/>
  </g>
  <g id="axes_1">
   <g id="patch_2">
    <path d="M 108 384.48 
L 777.6 384.48 
L 777.6 51.84 
L 108 51.84 
z
" style="fill: #ffffff"/>
   </g>
   <g id="matplotlib.axis_1">
    <g id="xtick_1">
     <g id="line2d_1">
      <defs>
       <path id="m2c9e226a42" d="M 0 0 
L 0 3.5 
" style="stroke: #000000; stroke-width: 0.8"/>
      </defs>
      <g>
       <use xlink:href="#m2c9e226a42" x="138.436364" y="384.48" style="stroke: #000000; stroke-width: 0.8"/>
      </g>
     </g>
     <g id="text_1">
      <!-- 0 -->
      <g transform="translate(135.255114 399.078438) scale(0.1 -0.1)">
       <defs>
        <path id="DejaVuSans-30" d="M 2034 4250 
Q 1547 4250 1301 3770 
Q 1056 3291 1056 2328 
Q 1056 1369 1301 889 
Q 1547 409 2034 409 
Q 2525 409 2770 889 
Q 3016 1369 3016 2328 
Q 3016 3291 2770 3770 
Q 2525 4250 2034 4250 
z
M 2034 4750 
Q 2819 4750 3233 4129 
Q 3647 3509 3647 2328 
Q 3647 1150 3233 529 
Q 2819 -91 2034 -91 
Q 1250 -91 836 529 
Q 422 1150 422 2328 
Q 422 3509 836 4129 
Q 1250 4750 2034 4750 
z
" transform="scale(0.015625)"/>
       </defs>
       <use xlink:href="#DejaVuSans-30"/>
      </g>
     </g>
    </g>
    <g id="xtick_2">
     <g id="line2d_2">
      <g>
       <use xlink:href="#m2c9e226a42" x="261.151266" y="384.48" style="stroke: #000000; stroke-width: 0.8"/>
      </g>
     </g>
     <g id="text_2">
      <!-- 2000 -->
      <g transform="translate(248.426266 399.078438) scale(0.1 -0.1)">
       <defs>
        <path id="DejaVuSans-32" d="M 1228 531 
L 3431 531 
L 3431 0 
L 469 0 
L 469 531 
Q 828 903 1448 1529 
Q 2069 2156 2228 2338 
Q 2531 2678 2651 2914 
Q 2772 3150 2772 3378 
Q 2772 3750 2511 3984 
Q 2250 4219 1831 4219 
Q 1534 4219 1204 4116 
Q 875 4013 500 3803 
L 500 4441 
Q 881 4594 1212 4672 
Q 1544 4750 1819 4750 
Q 2544 4750 2975 4387 
Q 3406 4025 3406 3419 
Q 3406 3131 3298 2873 
Q 3191 2616 2906 2266 
Q 2828 2175 2409 1742 
Q 1991 1309 1228 531 
z
" transform="scale(0.015625)"/>
       </defs>
       <use xlink:href="#DejaVuSans-32"/>
       <use xlink:href="#DejaVuSans-30" x="63.623047"/>
       <use xlink:href="#DejaVuSans-30" x="127.246094"/>
       <use xlink:href="#DejaVuSans-30" x="190.869141"/>
      </g>
     </g>
    </g>
    <g id="xtick_3">
     <g id="line2d_3">
      <g>
       <use xlink:href="#m2c9e226a42" x="383.866168" y="384.48" style="stroke: #000000; stroke-width: 0.8"/>
      </g>
     </g>
     <g id="text_3">
      <!-- 4000 -->
      <g transform="translate(371.141168 399.078438) scale(0.1 -0.1)">
       <defs>
        <path id="DejaVuSans-34" d="M 2419 4116 
L 825 1625 
L 2419 1625 
L 2419 4116 
z
M 2253 4666 
L 3047 4666 
L 3047 1625 
L 3713 1625 
L 3713 1100 
L 3047 1100 
L 3047 0 
L 2419 0 
L 2419 1100 
L 313 1100 
L 313 1709 
L 2253 4666 
z
" transform="scale(0.015625)"/>
       </defs>
       <use xlink:href="#DejaVuSans-34"/>
       <use xlink:href="#DejaVuSans-30" x="63.623047"/>
       <use xlink:href="#DejaVuSans-30" x="127.246094"/>
       <use xlink:href="#DejaVuSans-30" x="190.869141"/>
      </g>
     </g>
    </g>
    <g id="xtick_4">
     <g id="line2d_4">
      <g>
       <use xlink:href="#m2c9e226a42" x="506.58107" y="384.48" style="stroke: #000000; stroke-width: 0.8"/>
      </g>
     </g>
     <g id="text_4">
      <!-- 6000 -->
      <g transform="translate(493.85607 399.078438) scale(0.1 -0.1)">
       <defs>
        <path id="DejaVuSans-36" d="M 2113 2584 
Q 1688 2584 1439 2293 
Q 1191 2003 1191 1497 
Q 1191 994 1439 701 
Q 1688 409 2113 409 
Q 2538 409 2786 701 
Q 3034 994 3034 1497 
Q 3034 2003 2786 2293 
Q 2538 2584 2113 2584 
z
M 3366 4563 
L 3366 3988 
Q 3128 4100 2886 4159 
Q 2644 4219 2406 4219 
Q 1781 4219 1451 3797 
Q 1122 3375 1075 2522 
Q 1259 2794 1537 2939 
Q 1816 3084 2150 3084 
Q 2853 3084 3261 2657 
Q 3669 2231 3669 1497 
Q 3669 778 3244 343 
Q 2819 -91 2113 -91 
Q 1303 -91 875 529 
Q 447 1150 447 2328 
Q 447 3434 972 4092 
Q 1497 4750 2381 4750 
Q 2619 4750 2861 4703 
Q 3103 4656 3366 4563 
z
" transform="scale(0.015625)"/>
       </defs>
       <use xlink:href="#DejaVuSans-36"/>
       <use xlink:href="#DejaVuSans-30" x="63.623047"/>
       <use xlink:href="#DejaVuSans-30" x="127.246094"/>
       <use xlink:href="#DejaVuSans-30" x="190.869141"/>
      </g>
     </g>
    </g>
    <g id="xtick_5">
     <g id="line2d_5">
      <g>
       <use xlink:href="#m2c9e226a42" x="629.295973" y="384.48" style="stroke: #000000; stroke-width: 0.8"/>
      </g>
     </g>
     <g id="text_5">
      <!-- 8000 -->
      <g transform="translate(616.570973 399.078438) scale(0.1 -0.1)">
       <defs>
        <path id="DejaVuSans-38" d="M 2034 2216 
Q 1584 2216 1326 1975 
Q 1069 1734 1069 1313 
Q 1069 891 1326 650 
Q 1584 409 2034 409 
Q 2484 409 2743 651 
Q 3003 894 3003 1313 
Q 3003 1734 2745 1975 
Q 2488 2216 2034 2216 
z
M 1403 2484 
Q 997 2584 770 2862 
Q 544 3141 544 3541 
Q 544 4100 942 4425 
Q 1341 4750 2034 4750 
Q 2731 4750 3128 4425 
Q 3525 4100 3525 3541 
Q 3525 3141 3298 2862 
Q 3072 2584 2669 2484 
Q 3125 2378 3379 2068 
Q 3634 1759 3634 1313 
Q 3634 634 3220 271 
Q 2806 -91 2034 -91 
Q 1263 -91 848 271 
Q 434 634 434 1313 
Q 434 1759 690 2068 
Q 947 2378 1403 2484 
z
M 1172 3481 
Q 1172 3119 1398 2916 
Q 1625 2713 2034 2713 
Q 2441 2713 2670 2916 
Q 2900 3119 2900 3481 
Q 2900 3844 2670 4047 
Q 2441 4250 2034 4250 
Q 1625 4250 1398 4047 
Q 1172 3844 1172 3481 
z
" transform="scale(0.015625)"/>
       </defs>
       <use xlink:href="#DejaVuSans-38"/>
       <use xlink:href="#DejaVuSans-30" x="63.623047"/>
       <use xlink:href="#DejaVuSans-30" x="127.246094"/>
       <use xlink:href="#DejaVuSans-30" x="190.869141"/>
      </g>
     </g>
    </g>
    <g id="xtick_6">
     <g id="line2d_6">
      <g>
       <use xlink:href="#m2c9e226a42" x="752.010875" y="384.48" style="stroke: #000000; stroke-width: 0.8"/>
      </g>
     </g>
     <g id="text_6">
      <!-- 10000 -->
      <g transform="translate(736.104625 399.078438) scale(0.1 -0.1)">
       <defs>
        <path id="DejaVuSans-31" d="M 794 531 
L 1825 531 
L 1825 4091 
L 703 3866 
L 703 4441 
L 1819 4666 
L 2450 4666 
L 2450 531 
L 3481 531 
L 3481 0 
L 794 0 
L 794 531 
z
" transform="scale(0.015625)"/>
       </defs>
       <use xlink:href="#DejaVuSans-31"/>
       <use xlink:href="#DejaVuSans-30" x="63.623047"/>
       <use xlink:href="#DejaVuSans-30" x="127.246094"/>
       <use xlink:href="#DejaVuSans-30" x="190.869141"/>
       <use xlink:href="#DejaVuSans-30" x="254.492188"/>
      </g>
     </g>
    </g>
   </g>
   <g id="matplotlib.axis_2">
    <g id="ytick_1">
     <g id="line2d_7">
      <defs>
       <path id="ma739448e67" d="M 0 0 
L -3.5 0 
" style="stroke: #000000; stroke-width: 0.8"/>
      </defs>
      <g>
       <use xlink:href="#ma739448e67" x="108" y="375.531429" style="stroke: #000000; stroke-width: 0.8"/>
      </g>
     </g>
     <g id="text_7">
      <!-- 0 -->
      <g transform="translate(94.6375 379.330647) scale(0.1 -0.1)">
       <use xlink:href="#DejaVuSans-30"/>
      </g>
     </g>
    </g>
    <g id="ytick_2">
     <g id="line2d_8">
      <g>
       <use xlink:href="#ma739448e67" x="108" y="307.503018" style="stroke: #000000; stroke-width: 0.8"/>
      </g>
     </g>
     <g id="text_8">
      <!-- 100 -->
      <g transform="translate(81.9125 311.302237) scale(0.1 -0.1)">
       <use xlink:href="#DejaVuSans-31"/>
       <use xlink:href="#DejaVuSans-30" x="63.623047"/>
       <use xlink:href="#DejaVuSans-30" x="127.246094"/>
      </g>
     </g>
    </g>
    <g id="ytick_3">
     <g id="line2d_9">
      <g>
       <use xlink:href="#ma739448e67" x="108" y="239.474607" style="stroke: #000000; stroke-width: 0.8"/>
      </g>
     </g>
     <g id="text_9">
      <!-- 200 -->
      <g transform="translate(81.9125 243.273826) scale(0.1 -0.1)">
       <use xlink:href="#DejaVuSans-32"/>
       <use xlink:href="#DejaVuSans-30" x="63.623047"/>
       <use xlink:href="#DejaVuSans-30" x="127.246094"/>
      </g>
     </g>
    </g>
    <g id="ytick_4">
     <g id="line2d_10">
      <g>
       <use xlink:href="#ma739448e67" x="108" y="171.446197" style="stroke: #000000; stroke-width: 0.8"/>
      </g>
     </g>
     <g id="text_10">
      <!-- 300 -->
      <g transform="translate(81.9125 175.245415) scale(0.1 -0.1)">
       <defs>
        <path id="DejaVuSans-33" d="M 2597 2516 
Q 3050 2419 3304 2112 
Q 3559 1806 3559 1356 
Q 3559 666 3084 287 
Q 2609 -91 1734 -91 
Q 1441 -91 1130 -33 
Q 819 25 488 141 
L 488 750 
Q 750 597 1062 519 
Q 1375 441 1716 441 
Q 2309 441 2620 675 
Q 2931 909 2931 1356 
Q 2931 1769 2642 2001 
Q 2353 2234 1838 2234 
L 1294 2234 
L 1294 2753 
L 1863 2753 
Q 2328 2753 2575 2939 
Q 2822 3125 2822 3475 
Q 2822 3834 2567 4026 
Q 2313 4219 1838 4219 
Q 1578 4219 1281 4162 
Q 984 4106 628 3988 
L 628 4550 
Q 988 4650 1302 4700 
Q 1616 4750 1894 4750 
Q 2613 4750 3031 4423 
Q 3450 4097 3450 3541 
Q 3450 3153 3228 2886 
Q 3006 2619 2597 2516 
z
" transform="scale(0.015625)"/>
       </defs>
       <use xlink:href="#DejaVuSans-33"/>
       <use xlink:href="#DejaVuSans-30" x="63.623047"/>
       <use xlink:href="#DejaVuSans-30" x="127.246094"/>
      </g>
     </g>
    </g>
    <g id="ytick_5">
     <g id="line2d_11">
      <g>
       <use xlink:href="#ma739448e67" x="108" y="103.417786" style="stroke: #000000; stroke-width: 0.8"/>
      </g>
     </g>
     <g id="text_11">
      <!-- 400 -->
      <g transform="translate(81.9125 107.217005) scale(0.1 -0.1)">
       <use xlink:href="#DejaVuSans-34"/>
       <use xlink:href="#DejaVuSans-30" x="63.623047"/>
       <use xlink:href="#DejaVuSans-30" x="127.246094"/>
      </g>
     </g>
    </g>
   </g>
   <g id="line2d_12">
    <path d="M 138.436364 318.445714 
L 138.497721 296.845714 
L 138.681793 346.217143 
L 138.865866 278.331429 
L 138.927223 318.445714 
L 138.988581 301.474286 
L 139.049938 307.645714 
L 139.111296 335.417143 
L 139.234011 287.588571 
L 139.295368 340.045714 
L 139.356725 316.902857 
L 139.418083 338.502857 
L 139.47944 318.445714 
L 139.540798 365.502857 
L 139.663513 278.331429 
L 139.847585 340.045714 
L 139.908942 272.16 
L 139.9703 275.245714 
L 140.154372 350.845714 
L 140.277087 326.16 
L 140.338445 338.502857 
L 140.583874 256.731429 
L 140.706589 309.96 
L 140.767947 313.045714 
L 140.829304 289.131429 
L 140.952019 346.988571 
L 141.136091 256.731429 
L 141.320164 359.717143 
L 141.626951 294.531429 
L 141.688309 355.474286 
L 141.749666 332.331429 
L 141.811023 340.045714 
L 141.872381 289.131429 
L 141.933738 318.445714 
L 141.995096 346.988571 
L 142.056453 306.102857 
L 142.117811 307.26 
L 142.179168 313.045714 
L 142.240526 287.588571 
L 142.424598 365.657143 
L 142.485955 290.674286 
L 142.547313 303.017143 
L 142.670028 335.417143 
L 142.792743 301.474286 
L 142.8541 359.717143 
L 142.915458 318.445714 
L 142.976815 361.645714 
L 143.038172 335.417143 
L 143.09953 316.902857 
L 143.160887 324.617143 
L 143.222245 346.217143 
L 143.34496 303.017143 
L 143.406317 330.788571 
L 143.467675 318.445714 
L 143.529032 276.788571 
L 143.59039 333.874286 
L 143.651747 313.817143 
L 143.713104 313.045714 
L 143.897177 360.102857 
L 143.958534 276.788571 
L 144.019892 355.474286 
L 144.081249 306.102857 
L 144.142607 359.331429 
L 144.203964 299.931429 
L 144.265321 346.988571 
L 144.388036 301.474286 
L 144.449394 324.617143 
L 144.510751 289.131429 
L 144.572109 318.445714 
L 144.633466 306.102857 
L 144.756181 346.988571 
L 144.817539 335.417143 
L 144.940253 193.474286 
L 145.124326 346.217143 
L 145.247041 359.331429 
L 145.431113 299.931429 
L 145.676543 344.674286 
L 145.799258 289.131429 
L 145.860615 366.274286 
L 145.921973 318.445714 
L 145.98333 302.245714 
L 146.044688 357.017143 
L 146.106045 269.074286 
L 146.167402 306.102857 
L 146.22876 256.731429 
L 146.290117 276.788571 
L 146.412832 335.417143 
L 146.47419 316.902857 
L 146.71962 256.731429 
L 146.903692 352.388571 
L 146.965049 290.674286 
L 147.026407 318.445714 
L 147.210479 318.445714 
L 147.271837 289.131429 
L 147.394552 367.817143 
L 147.455909 316.131429 
L 147.517266 359.717143 
L 147.578624 358.174286 
L 147.762696 337.731429 
L 147.824054 358.174286 
L 147.885411 346.217143 
L 147.946769 318.445714 
L 148.008126 338.502857 
L 148.069483 335.417143 
L 148.130841 340.045714 
L 148.192198 358.174286 
L 148.253556 346.988571 
L 148.376271 269.074286 
L 148.437628 358.174286 
L 148.498986 331.56 
L 148.560343 298.388571 
L 148.621701 318.445714 
L 148.683058 353.931429 
L 148.744415 331.56 
L 148.86713 359.331429 
L 148.928488 302.245714 
L 148.989845 332.331429 
L 149.051203 363.574286 
L 149.173918 269.074286 
L 149.35799 363.96 
L 149.60342 275.245714 
L 149.84885 359.331429 
L 149.910207 303.788571 
L 149.971564 350.845714 
L 150.032922 335.417143 
L 150.094279 319.988571 
L 150.216994 272.16 
L 150.278352 359.331429 
L 150.339709 346.988571 
L 150.401067 353.931429 
L 150.523782 303.017143 
L 150.646496 340.045714 
L 150.707854 331.56 
L 150.830569 360.102857 
L 150.891926 335.417143 
L 150.953284 363.188571 
L 151.014641 276.788571 
L 151.075999 307.645714 
L 151.137356 275.245714 
L 151.198713 350.845714 
L 151.260071 316.902857 
L 151.321428 319.988571 
L 151.382786 331.56 
L 151.444143 278.331429 
L 151.505501 346.988571 
L 151.566858 318.445714 
L 151.628216 318.445714 
L 151.689573 335.417143 
L 151.750931 324.617143 
L 151.812288 338.502857 
L 151.873645 276.788571 
L 151.935003 307.26 
L 151.99636 296.845714 
L 152.057718 365.502857 
L 152.119075 287.588571 
L 152.180433 330.788571 
L 152.303148 303.017143 
L 152.364505 272.16 
L 152.548577 337.731429 
L 152.609935 294.531429 
L 152.671292 318.445714 
L 152.794007 363.96 
L 152.97808 318.445714 
L 153.039437 306.102857 
L 153.100794 316.131429 
L 153.162152 269.074286 
L 153.346224 357.788571 
L 153.468939 319.988571 
L 153.530297 355.474286 
L 153.591654 281.417143 
L 153.653012 330.788571 
L 153.714369 304.56 
L 153.898441 369.36 
L 153.959799 316.131429 
L 154.021156 361.645714 
L 154.082514 360.102857 
L 154.327943 307.26 
L 154.389301 359.331429 
L 154.450658 299.931429 
L 154.450658 299.931429 
" clip-path="url(#p5e60083597)" style="fill: none; stroke: #1f77b4; stroke-width: 1.5; stroke-linecap: square"/>
   </g>
   <g id="line2d_13">
    <path d="M 732.683278 318.445714 
L 348.769706 284.502857 
L 650.771081 363.188571 
L 747.163636 293.76 
L 354.905451 345.445714 
L 708.385727 318.445714 
L 530.633191 350.845714 
L 683.29053 262.902857 
L 248.327559 333.874286 
L 483.326596 299.931429 
L 253.604299 312.274286 
L 507.194645 335.417143 
L 296.615873 299.931429 
L 525.663238 290.674286 
L 475.411485 332.331429 
L 321.281568 318.445714 
L 466.023795 333.874286 
L 451.543437 318.445714 
L 571.865398 360.102857 
L 316.495687 306.102857 
L 378.159925 318.445714 
L 415.772043 343.902857 
L 172.182962 303.017143 
L 141.933738 338.502857 
L 691.880573 259.817143 
L 534.866855 272.16 
L 503.083696 344.674286 
L 575.66956 333.874286 
L 437.124436 344.674286 
L 671.878044 360.102857 
L 679.179581 299.931429 
L 481.240443 333.874286 
L 330.362471 315.36 
L 582.787025 290.674286 
L 440.86724 284.502857 
L 637.886016 265.988571 
L 508.360437 306.102857 
L 516.827765 306.102857 
L 491.18035 306.102857 
L 187.829112 287.588571 
L 423.257652 329.245714 
L 463.937642 338.502857 
L 693.721296 333.102857 
L 221.023493 318.445714 
L 565.300151 278.331429 
L 397.364807 333.874286 
L 437.98344 318.445714 
L 190.958342 359.331429 
L 338.154867 355.474286 
L 715.564549 332.948571 
L 659.115694 303.017143 
L 176.109839 318.445714 
L 461.790131 306.102857 
L 321.833785 338.502857 
L 479.706507 347.76 
L 246.793622 340.045714 
L 692.67822 292.217143 
L 565.422866 333.874286 
L 570.638249 363.188571 
L 613.220321 306.102857 
L 633.345565 296.845714 
L 280.724293 333.874286 
L 590.640779 287.588571 
L 408.470506 352.388571 
L 358.341469 360.102857 
L 520.141067 332.331429 
L 543.579613 286.045714 
L 431.663623 299.931429 
L 612.054529 301.474286 
L 528.240251 332.331429 
L 469.091668 310.731429 
L 455.899816 303.017143 
L 319.563559 361.645714 
L 597.144668 352.388571 
L 327.294598 363.96 
L 179.300426 336.96 
L 337.11179 333.874286 
L 735.567078 350.845714 
L 233.785843 346.217143 
L 443.935113 312.274286 
L 326.374236 306.102857 
L 443.321538 318.445714 
L 630.339049 304.56 
L 444.180543 287.588571 
L 712.987536 298.388571 
L 421.478286 318.445714 
L 457.49511 309.188571 
L 210.347296 340.045714 
L 309.562295 355.474286 
L 515.600616 366.274286 
L 686.297045 284.502857 
L 616.349551 359.485714 
L 652.550447 299.931429 
L 364.231784 355.474286 
L 697.402743 276.788571 
L 668.871529 335.417143 
L 494.30958 208.902857 
L 365.336218 304.56 
L 498.972747 321.531429 
L 648.807642 299.931429 
L 542.352464 318.445714 
L 400.739467 327.702857 
L 303.119762 318.445714 
L 459.826693 330.788571 
L 547.076988 335.417143 
L 712.496676 270.617143 
L 681.511164 181.131429 
L 191.694631 357.017143 
L 152.119075 264.445714 
L 408.531864 352.388571 
L 655.311532 292.217143 
L 656.600038 364.731429 
L 397.05802 324.617143 
L 724.584094 332.331429 
L 721.884366 296.845714 
L 334.22799 367.817143 
L 661.754064 335.417143 
L 180.15943 336.96 
L 414.544894 343.902857 
L 483.203882 318.445714 
L 630.768552 290.674286 
L 169.483234 367.817143 
L 457.679182 318.445714 
L 275.508909 318.445714 
L 523.270297 355.474286 
L 676.05035 265.988571 
L 457.372395 312.274286 
L 640.401671 264.445714 
L 278.454067 278.331429 
L 360.243549 312.274286 
L 194.946576 236.674286 
L 699.18211 298.388571 
L 598.55589 299.931429 
L 581.866663 296.845714 
L 327.049168 298.388571 
L 381.6573 258.274286 
L 356.807532 333.874286 
L 408.347791 344.674286 
L 379.448432 352.388571 
L 337.786722 318.445714 
L 424.546158 333.874286 
L 180.343503 333.874286 
L 369.14038 327.702857 
L 468.539451 318.445714 
L 676.111708 306.102857 
L 410.618017 357.017143 
L 641.260676 365.502857 
L 290.602842 318.445714 
L 367.054227 353.931429 
L 333.430343 360.102857 
L 617.515342 335.417143 
L 347.665272 340.045714 
L 398.714671 333.874286 
L 518.054914 364.731429 
L 271.88882 346.217143 
L 652.489089 299.931429 
L 477.988498 66.96 
L 169.115089 360.102857 
L 444.97819 344.674286 
L 319.624917 361.645714 
L 630.891266 357.017143 
L 574.258339 319.988571 
L 635.247645 262.902857 
L 533.087489 358.56 
L 151.260071 324.617143 
L 199.241598 306.102857 
L 652.795877 187.302857 
L 636.229365 357.017143 
L 442.033032 264.445714 
L 492.407499 359.331429 
L 246.486835 359.331429 
L 231.086115 306.102857 
L 417.551409 344.674286 
L 427.307244 361.645714 
L 499.340891 290.674286 
L 568.674811 272.16 
L 721.700294 290.674286 
L 722.497941 357.788571 
L 282.687731 358.56 
L 708.017583 230.502857 
L 633.897782 290.674286 
L 467.987234 278.331429 
L 556.280606 262.902857 
L 730.903912 292.217143 
L 640.892531 356.708571 
L 414.054034 352.388571 
L 513.82125 363.96 
L 447.493845 306.102857 
L 304.285554 346.217143 
L 575.608203 350.845714 
L 546.279341 316.902857 
L 396.505803 306.102857 
L 530.939979 284.502857 
L 431.172763 359.331429 
L 592.604217 366.274286 
L 558.612189 360.102857 
L 396.935305 332.331429 
L 321.46564 306.102857 
L 320.913423 332.331429 
L 623.09887 336.96 
L 152.794007 335.417143 
L 376.994134 353.16 
L 198.259878 364.731429 
L 562.784496 338.502857 
L 614.570184 353.931429 
L 393.131143 272.16 
L 374.723908 306.102857 
L 406.261638 275.245714 
L 380.123364 349.302857 
L 702.06591 299.931429 
L 614.999687 316.902857 
L 610.520593 329.245714 
L 221.08485 306.102857 
L 349.015136 228.96 
L 655.679677 293.76 
L 450.807147 318.445714 
L 149.971564 327.702857 
L 239.798873 321.531429 
L 349.505996 333.874286 
L 221.33028 272.16 
L 522.411293 318.445714 
L 631.320769 318.445714 
L 314.839036 364.731429 
L 662.428996 281.417143 
L 460.010765 346.217143 
L 665.558226 303.017143 
L 474.245694 303.017143 
L 562.232279 278.331429 
L 380.736938 302.245714 
L 377.791781 303.017143 
L 272.011535 338.502857 
L 440.376381 296.845714 
L 671.141754 190.388571 
L 708.876587 352.388571 
L 427.123171 361.645714 
L 699.734327 357.017143 
L 359.50726 338.502857 
L 569.90196 333.874286 
L 349.751425 309.188571 
L 330.914688 327.702857 
L 583.093812 275.245714 
L 286.430536 349.302857 
L 495.414014 304.56 
L 674.639129 357.017143 
L 424.484801 347.76 
L 188.749474 347.76 
L 726.302103 363.188571 
L 341.713599 282.96 
L 619.601495 304.56 
L 630.400407 304.56 
L 292.382209 357.788571 
L 494.493653 358.56 
L 344.290612 366.274286 
L 296.554515 306.102857 
L 672.246189 363.188571 
L 547.813278 355.474286 
L 292.627638 346.217143 
L 563.459428 335.417143 
L 742.868615 306.102857 
L 646.169272 298.388571 
L 179.361784 360.102857 
L 182.000154 290.674286 
L 182.000154 290.674286 
" clip-path="url(#p5e60083597)" style="fill: none; stroke: #ff7f0e; stroke-width: 1.5; stroke-linecap: square"/>
   </g>
   <g id="patch_3">
    <path d="M 108 384.48 
L 108 51.84 
" style="fill: none; stroke: #000000; stroke-width: 0.8; stroke-linejoin: miter; stroke-linecap: square"/>
   </g>
   <g id="patch_4">
    <path d="M 777.6 384.48 
L 777.6 51.84 
" style="fill: none; stroke: #000000; stroke-width: 0.8; stroke-linejoin: miter; stroke-linecap: square"/>
   </g>
   <g id="patch_5">
    <path d="M 108 384.48 
L 777.6 384.48 
" style="fill: none; stroke: #000000; stroke-width: 0.8; stroke-linejoin: miter; stroke-linecap: square"/>
   </g>
   <g id="patch_6">
    <path d="M 108 51.84 
L 777.6 51.84 
" style="fill: none; stroke: #000000; stroke-width: 0.8; stroke-linejoin: miter; stroke-linecap: square"/>
   </g>
   <g id="text_12">
    <!-- Regressão: Real vs Previsto -->
    <g transform="translate(360.520313 45.84) scale(0.12 -0.12)">
     <defs>
      <path id="DejaVuSans-52" d="M 2841 2188 
Q 3044 2119 3236 1894 
Q 3428 1669 3622 1275 
L 4263 0 
L 3584 0 
L 2988 1197 
Q 2756 1666 2539 1819 
Q 2322 1972 1947 1972 
L 1259 1972 
L 1259 0 
L 628 0 
L 628 4666 
L 2053 4666 
Q 2853 4666 3247 4331 
Q 3641 3997 3641 3322 
Q 3641 2881 3436 2590 
Q 3231 2300 2841 2188 
z
M 1259 4147 
L 1259 2491 
L 2053 2491 
Q 2509 2491 2742 2702 
Q 2975 2913 2975 3322 
Q 2975 3731 2742 3939 
Q 2509 4147 2053 4147 
L 1259 4147 
z
" transform="scale(0.015625)"/>
      <path id="DejaVuSans-65" d="M 3597 1894 
L 3597 1613 
L 953 1613 
Q 991 1019 1311 708 
Q 1631 397 2203 397 
Q 2534 397 2845 478 
Q 3156 559 3463 722 
L 3463 178 
Q 3153 47 2828 -22 
Q 2503 -91 2169 -91 
Q 1331 -91 842 396 
Q 353 884 353 1716 
Q 353 2575 817 3079 
Q 1281 3584 2069 3584 
Q 2775 3584 3186 3129 
Q 3597 2675 3597 1894 
z
M 3022 2063 
Q 3016 2534 2758 2815 
Q 2500 3097 2075 3097 
Q 1594 3097 1305 2825 
Q 1016 2553 972 2059 
L 3022 2063 
z
" transform="scale(0.015625)"/>
      <path id="DejaVuSans-67" d="M 2906 1791 
Q 2906 2416 2648 2759 
Q 2391 3103 1925 3103 
Q 1463 3103 1205 2759 
Q 947 2416 947 1791 
Q 947 1169 1205 825 
Q 1463 481 1925 481 
Q 2391 481 2648 825 
Q 2906 1169 2906 1791 
z
M 3481 434 
Q 3481 -459 3084 -895 
Q 2688 -1331 1869 -1331 
Q 1566 -1331 1297 -1286 
Q 1028 -1241 775 -1147 
L 775 -588 
Q 1028 -725 1275 -790 
Q 1522 -856 1778 -856 
Q 2344 -856 2625 -561 
Q 2906 -266 2906 331 
L 2906 616 
Q 2728 306 2450 153 
Q 2172 0 1784 0 
Q 1141 0 747 490 
Q 353 981 353 1791 
Q 353 2603 747 3093 
Q 1141 3584 1784 3584 
Q 2172 3584 2450 3431 
Q 2728 3278 2906 2969 
L 2906 3500 
L 3481 3500 
L 3481 434 
z
" transform="scale(0.015625)"/>
      <path id="DejaVuSans-72" d="M 2631 2963 
Q 2534 3019 2420 3045 
Q 2306 3072 2169 3072 
Q 1681 3072 1420 2755 
Q 1159 2438 1159 1844 
L 1159 0 
L 581 0 
L 581 3500 
L 1159 3500 
L 1159 2956 
Q 1341 3275 1631 3429 
Q 1922 3584 2338 3584 
Q 2397 3584 2469 3576 
Q 2541 3569 2628 3553 
L 2631 2963 
z
" transform="scale(0.015625)"/>
      <path id="DejaVuSans-73" d="M 2834 3397 
L 2834 2853 
Q 2591 2978 2328 3040 
Q 2066 3103 1784 3103 
Q 1356 3103 1142 2972 
Q 928 2841 928 2578 
Q 928 2378 1081 2264 
Q 1234 2150 1697 2047 
L 1894 2003 
Q 2506 1872 2764 1633 
Q 3022 1394 3022 966 
Q 3022 478 2636 193 
Q 2250 -91 1575 -91 
Q 1294 -91 989 -36 
Q 684 19 347 128 
L 347 722 
Q 666 556 975 473 
Q 1284 391 1588 391 
Q 1994 391 2212 530 
Q 2431 669 2431 922 
Q 2431 1156 2273 1281 
Q 2116 1406 1581 1522 
L 1381 1569 
Q 847 1681 609 1914 
Q 372 2147 372 2553 
Q 372 3047 722 3315 
Q 1072 3584 1716 3584 
Q 2034 3584 2315 3537 
Q 2597 3491 2834 3397 
z
" transform="scale(0.015625)"/>
      <path id="DejaVuSans-e3" d="M 2194 1759 
Q 1497 1759 1228 1600 
Q 959 1441 959 1056 
Q 959 750 1161 570 
Q 1363 391 1709 391 
Q 2188 391 2477 730 
Q 2766 1069 2766 1631 
L 2766 1759 
L 2194 1759 
z
M 3341 1997 
L 3341 0 
L 2766 0 
L 2766 531 
Q 2569 213 2275 61 
Q 1981 -91 1556 -91 
Q 1019 -91 701 211 
Q 384 513 384 1019 
Q 384 1609 779 1909 
Q 1175 2209 1959 2209 
L 2766 2209 
L 2766 2266 
Q 2766 2663 2505 2880 
Q 2244 3097 1772 3097 
Q 1472 3097 1187 3025 
Q 903 2953 641 2809 
L 641 3341 
Q 956 3463 1253 3523 
Q 1550 3584 1831 3584 
Q 2591 3584 2966 3190 
Q 3341 2797 3341 1997 
z
M 1844 4281 
L 1665 4453 
Q 1597 4516 1545 4545 
Q 1494 4575 1453 4575 
Q 1334 4575 1278 4461 
Q 1222 4347 1215 4091 
L 825 4091 
Q 831 4513 990 4742 
Q 1150 4972 1434 4972 
Q 1553 4972 1653 4928 
Q 1753 4884 1869 4781 
L 2047 4609 
Q 2115 4547 2167 4517 
Q 2219 4488 2259 4488 
Q 2378 4488 2434 4602 
Q 2490 4716 2497 4972 
L 2887 4972 
Q 2881 4550 2721 4320 
Q 2562 4091 2278 4091 
Q 2159 4091 2059 4134 
Q 1959 4178 1844 4281 
z
" transform="scale(0.015625)"/>
      <path id="DejaVuSans-6f" d="M 1959 3097 
Q 1497 3097 1228 2736 
Q 959 2375 959 1747 
Q 959 1119 1226 758 
Q 1494 397 1959 397 
Q 2419 397 2687 759 
Q 2956 1122 2956 1747 
Q 2956 2369 2687 2733 
Q 2419 3097 1959 3097 
z
M 1959 3584 
Q 2709 3584 3137 3096 
Q 3566 2609 3566 1747 
Q 3566 888 3137 398 
Q 2709 -91 1959 -91 
Q 1206 -91 779 398 
Q 353 888 353 1747 
Q 353 2609 779 3096 
Q 1206 3584 1959 3584 
z
" transform="scale(0.015625)"/>
      <path id="DejaVuSans-3a" d="M 750 794 
L 1409 794 
L 1409 0 
L 750 0 
L 750 794 
z
M 750 3309 
L 1409 3309 
L 1409 2516 
L 750 2516 
L 750 3309 
z
" transform="scale(0.015625)"/>
      <path id="DejaVuSans-20" transform="scale(0.015625)"/>
      <path id="DejaVuSans-61" d="M 2194 1759 
Q 1497 1759 1228 1600 
Q 959 1441 959 1056 
Q 959 750 1161 570 
Q 1363 391 1709 391 
Q 2188 391 2477 730 
Q 2766 1069 2766 1631 
L 2766 1759 
L 2194 1759 
z
M 3341 1997 
L 3341 0 
L 2766 0 
L 2766 531 
Q 2569 213 2275 61 
Q 1981 -91 1556 -91 
Q 1019 -91 701 211 
Q 384 513 384 1019 
Q 384 1609 779 1909 
Q 1175 2209 1959 2209 
L 2766 2209 
L 2766 2266 
Q 2766 2663 2505 2880 
Q 2244 3097 1772 3097 
Q 1472 3097 1187 3025 
Q 903 2953 641 2809 
L 641 3341 
Q 956 3463 1253 3523 
Q 1550 3584 1831 3584 
Q 2591 3584 2966 3190 
Q 3341 2797 3341 1997 
z
" transform="scale(0.015625)"/>
      <path id="DejaVuSans-6c" d="M 603 4863 
L 1178 4863 
L 1178 0 
L 603 0 
L 603 4863 
z
" transform="scale(0.015625)"/>
      <path id="DejaVuSans-76" d="M 191 3500 
L 800 3500 
L 1894 563 
L 2988 3500 
L 3597 3500 
L 2284 0 
L 1503 0 
L 191 3500 
z
" transform="scale(0.015625)"/>
      <path id="DejaVuSans-50" d="M 1259 4147 
L 1259 2394 
L 2053 2394 
Q 2494 2394 2734 2622 
Q 2975 2850 2975 3272 
Q 2975 3691 2734 3919 
Q 2494 4147 2053 4147 
L 1259 4147 
z
M 628 4666 
L 2053 4666 
Q 2838 4666 3239 4311 
Q 3641 3956 3641 3272 
Q 3641 2581 3239 2228 
Q 2838 1875 2053 1875 
L 1259 1875 
L 1259 0 
L 628 0 
L 628 4666 
z
" transform="scale(0.015625)"/>
      <path id="DejaVuSans-69" d="M 603 3500 
L 1178 3500 
L 1178 0 
L 603 0 
L 603 3500 
z
M 603 4863 
L 1178 4863 
L 1178 4134 
L 603 4134 
L 603 4863 
z
" transform="scale(0.015625)"/>
      <path id="DejaVuSans-74" d="M 1172 4494 
L 1172 3500 
L 2356 3500 
L 2356 3053 
L 1172 3053 
L 1172 1153 
Q 1172 725 1289 603 
Q 1406 481 1766 481 
L 2356 481 
L 2356 0 
L 1766 0 
Q 1100 0 847 248 
Q 594 497 594 1153 
L 594 3053 
L 172 3053 
L 172 3500 
L 594 3500 
L 594 4494 
L 1172 4494 
z
" transform="scale(0.015625)"/>
     </defs>
     <use xlink:href="#DejaVuSans-52"/>
     <use xlink:href="#DejaVuSans-65" x="64.982422"/>
     <use xlink:href="#DejaVuSans-67" x="126.505859"/>
     <use xlink:href="#DejaVuSans-72" x="189.982422"/>
     <use xlink:href="#DejaVuSans-65" x="228.845703"/>
     <use xlink:href="#DejaVuSans-73" x="290.369141"/>
     <use xlink:href="#DejaVuSans-73" x="342.46875"/>
     <use xlink:href="#DejaVuSans-e3" x="394.568359"/>
     <use xlink:href="#DejaVuSans-6f" x="455.847656"/>
     <use xlink:href="#DejaVuSans-3a" x="517.029297"/>
     <use xlink:href="#DejaVuSans-20" x="550.720703"/>
     <use xlink:href="#DejaVuSans-52" x="582.507812"/>
     <use xlink:href="#DejaVuSans-65" x="647.490234"/>
     <use xlink:href="#DejaVuSans-61" x="709.013672"/>
     <use xlink:href="#DejaVuSans-6c" x="770.292969"/>
     <use xlink:href="#DejaVuSans-20" x="798.076172"/>
     <use xlink:href="#DejaVuSans-76" x="829.863281"/>
     <use xlink:href="#DejaVuSans-73" x="889.042969"/>
     <use xlink:href="#DejaVuSans-20" x="941.142578"/>
     <use xlink:href="#DejaVuSans-50" x="972.929688"/>
     <use xlink:href="#DejaVuSans-72" x="1031.482422"/>
     <use xlink:href="#DejaVuSans-65" x="1070.345703"/>
     <use xlink:href="#DejaVuSans-76" x="1131.869141"/>
     <use xlink:href="#DejaVuSans-69" x="1191.048828"/>
     <use xlink:href="#DejaVuSans-73" x="1218.832031"/>
     <use xlink:href="#DejaVuSans-74" x="1270.931641"/>
     <use xlink:href="#DejaVuSans-6f" x="1310.140625"/>
    </g>
   </g>
   <g id="legend_1">
    <g id="patch_7">
     <path d="M 672.315625 89.19625 
L 770.6 89.19625 
Q 772.6 89.19625 772.6 87.19625 
L 772.6 58.84 
Q 772.6 56.84 770.6 56.84 
L 672.315625 56.84 
Q 670.315625 56.84 670.315625 58.84 
L 670.315625 87.19625 
Q 670.315625 89.19625 672.315625 89.19625 
z
" style="fill: #ffffff; opacity: 0.8; stroke: #cccccc; stroke-linejoin: miter"/>
    </g>
    <g id="line2d_14">
     <path d="M 674.315625 64.938437 
L 684.315625 64.938437 
L 694.315625 64.938437 
" style="fill: none; stroke: #1f77b4; stroke-width: 1.5; stroke-linecap: square"/>
    </g>
    <g id="text_13">
     <!-- Valores Reais -->
     <g transform="translate(702.315625 68.438437) scale(0.1 -0.1)">
      <defs>
       <path id="DejaVuSans-56" d="M 1831 0 
L 50 4666 
L 709 4666 
L 2188 738 
L 3669 4666 
L 4325 4666 
L 2547 0 
L 1831 0 
z
" transform="scale(0.015625)"/>
      </defs>
      <use xlink:href="#DejaVuSans-56"/>
      <use xlink:href="#DejaVuSans-61" x="60.658203"/>
      <use xlink:href="#DejaVuSans-6c" x="121.9375"/>
      <use xlink:href="#DejaVuSans-6f" x="149.720703"/>
      <use xlink:href="#DejaVuSans-72" x="210.902344"/>
      <use xlink:href="#DejaVuSans-65" x="249.765625"/>
      <use xlink:href="#DejaVuSans-73" x="311.289062"/>
      <use xlink:href="#DejaVuSans-20" x="363.388672"/>
      <use xlink:href="#DejaVuSans-52" x="395.175781"/>
      <use xlink:href="#DejaVuSans-65" x="460.158203"/>
      <use xlink:href="#DejaVuSans-61" x="521.681641"/>
      <use xlink:href="#DejaVuSans-69" x="582.960938"/>
      <use xlink:href="#DejaVuSans-73" x="610.744141"/>
     </g>
    </g>
    <g id="line2d_15">
     <path d="M 674.315625 79.616562 
L 684.315625 79.616562 
L 694.315625 79.616562 
" style="fill: none; stroke: #ff7f0e; stroke-width: 1.5; stroke-linecap: square"/>
    </g>
    <g id="text_14">
     <!-- Previsões -->
     <g transform="translate(702.315625 83.116562) scale(0.1 -0.1)">
      <defs>
       <path id="DejaVuSans-f5" d="M 1959 3097 
Q 1497 3097 1228 2736 
Q 959 2375 959 1747 
Q 959 1119 1226 758 
Q 1494 397 1959 397 
Q 2419 397 2687 759 
Q 2956 1122 2956 1747 
Q 2956 2369 2687 2733 
Q 2419 3097 1959 3097 
z
M 1959 3584 
Q 2709 3584 3137 3096 
Q 3566 2609 3566 1747 
Q 3566 888 3137 398 
Q 2709 -91 1959 -91 
Q 1206 -91 779 398 
Q 353 888 353 1747 
Q 353 2609 779 3096 
Q 1206 3584 1959 3584 
z
M 1948 4281 
L 1769 4453 
Q 1701 4516 1649 4545 
Q 1598 4575 1557 4575 
Q 1438 4575 1382 4461 
Q 1326 4347 1319 4091 
L 929 4091 
Q 935 4513 1094 4742 
Q 1254 4972 1538 4972 
Q 1657 4972 1757 4928 
Q 1857 4884 1973 4781 
L 2151 4609 
Q 2219 4547 2271 4517 
Q 2323 4488 2363 4488 
Q 2482 4488 2538 4602 
Q 2594 4716 2601 4972 
L 2991 4972 
Q 2985 4550 2825 4320 
Q 2666 4091 2382 4091 
Q 2263 4091 2163 4134 
Q 2063 4178 1948 4281 
z
" transform="scale(0.015625)"/>
      </defs>
      <use xlink:href="#DejaVuSans-50"/>
      <use xlink:href="#DejaVuSans-72" x="58.552734"/>
      <use xlink:href="#DejaVuSans-65" x="97.416016"/>
      <use xlink:href="#DejaVuSans-76" x="158.939453"/>
      <use xlink:href="#DejaVuSans-69" x="218.119141"/>
      <use xlink:href="#DejaVuSans-73" x="245.902344"/>
      <use xlink:href="#DejaVuSans-f5" x="298.001953"/>
      <use xlink:href="#DejaVuSans-65" x="359.183594"/>
      <use xlink:href="#DejaVuSans-73" x="420.707031"/>
     </g>
    </g>
   </g>
  </g>
 </g>
 <defs>
  <clipPath id="p5e60083597">
   <rect x="108" y="51.84" width="669.6" height="332.64"/>
  </clipPath>
 </defs>
</svg>
