<?xml version="1.0" encoding="utf-8" standalone="no"?>
<!DOCTYPE svg PUBLIC "-//W3C//DTD SVG 1.1//EN"
  "http://www.w3.org/Graphics/SVG/1.1/DTD/svg11.dtd">
<svg xmlns:xlink="http://www.w3.org/1999/xlink" width="864pt" height="432pt" viewBox="0 0 864 432" xmlns="http://www.w3.org/2000/svg" version="1.1">
 <metadata>
  <rdf:RDF xmlns:dc="http://purl.org/dc/elements/1.1/" xmlns:cc="http://creativecommons.org/ns#" xmlns:rdf="http://www.w3.org/1999/02/22-rdf-syntax-ns#">
   <cc:Work>
    <dc:type rdf:resource="http://purl.org/dc/dcmitype/StillImage"/>
    <dc:date>2024-11-24T15:22:55.813906</dc:date>
    <dc:format>image/svg+xml</dc:format>
    <dc:creator>
     <cc:Agent>
      <dc:title>Matplotlib v3.9.2, https://matplotlib.org/</dc:title>
     </cc:Agent>
    </dc:creator>
   </cc:Work>
  </rdf:RDF>
 </metadata>
 <defs>
  <style type="text/css">*{stroke-linejoin: round; stroke-linecap: butt}</style>
 </defs>
 <g id="figure_1">
  <g id="patch_1">
   <path d="M 0 432 
L 864 432 
L 864 0 
L 0 0 
z
" style="fill: #ffffff"/>
  </g>
  <g id="axes_1">
   <g id="patch_2">
    <path d="M 108 384.48 
L 777.6 384.48 
L 777.6 51.84 
L 108 51.84 
z
" style="fill: #ffffff"/>
   </g>
   <g id="matplotlib.axis_1">
    <g id="xtick_1">
     <g id="line2d_1">
      <defs>
       <path id="m50575752c2" d="M 0 0 
L 0 3.5 
" style="stroke: #000000; stroke-width: 0.8"/>
      </defs>
      <g>
       <use xlink:href="#m50575752c2" x="138.436364" y="384.48" style="stroke: #000000; stroke-width: 0.8"/>
      </g>
     </g>
     <g id="text_1">
      <!-- 0 -->
      <g transform="translate(135.255114 399.078438) scale(0.1 -0.1)">
       <defs>
        <path id="DejaVuSans-30" d="M 2034 4250 
Q 1547 4250 1301 3770 
Q 1056 3291 1056 2328 
Q 1056 1369 1301 889 
Q 1547 409 2034 409 
Q 2525 409 2770 889 
Q 3016 1369 3016 2328 
Q 3016 3291 2770 3770 
Q 2525 4250 2034 4250 
z
M 2034 4750 
Q 2819 4750 3233 4129 
Q 3647 3509 3647 2328 
Q 3647 1150 3233 529 
Q 2819 -91 2034 -91 
Q 1250 -91 836 529 
Q 422 1150 422 2328 
Q 422 3509 836 4129 
Q 1250 4750 2034 4750 
z
" transform="scale(0.015625)"/>
       </defs>
       <use xlink:href="#DejaVuSans-30"/>
      </g>
     </g>
    </g>
    <g id="xtick_2">
     <g id="line2d_2">
      <g>
       <use xlink:href="#m50575752c2" x="261.151266" y="384.48" style="stroke: #000000; stroke-width: 0.8"/>
      </g>
     </g>
     <g id="text_2">
      <!-- 2000 -->
      <g transform="translate(248.426266 399.078438) scale(0.1 -0.1)">
       <defs>
        <path id="DejaVuSans-32" d="M 1228 531 
L 3431 531 
L 3431 0 
L 469 0 
L 469 531 
Q 828 903 1448 1529 
Q 2069 2156 2228 2338 
Q 2531 2678 2651 2914 
Q 2772 3150 2772 3378 
Q 2772 3750 2511 3984 
Q 2250 4219 1831 4219 
Q 1534 4219 1204 4116 
Q 875 4013 500 3803 
L 500 4441 
Q 881 4594 1212 4672 
Q 1544 4750 1819 4750 
Q 2544 4750 2975 4387 
Q 3406 4025 3406 3419 
Q 3406 3131 3298 2873 
Q 3191 2616 2906 2266 
Q 2828 2175 2409 1742 
Q 1991 1309 1228 531 
z
" transform="scale(0.015625)"/>
       </defs>
       <use xlink:href="#DejaVuSans-32"/>
       <use xlink:href="#DejaVuSans-30" x="63.623047"/>
       <use xlink:href="#DejaVuSans-30" x="127.246094"/>
       <use xlink:href="#DejaVuSans-30" x="190.869141"/>
      </g>
     </g>
    </g>
    <g id="xtick_3">
     <g id="line2d_3">
      <g>
       <use xlink:href="#m50575752c2" x="383.866168" y="384.48" style="stroke: #000000; stroke-width: 0.8"/>
      </g>
     </g>
     <g id="text_3">
      <!-- 4000 -->
      <g transform="translate(371.141168 399.078438) scale(0.1 -0.1)">
       <defs>
        <path id="DejaVuSans-34" d="M 2419 4116 
L 825 1625 
L 2419 1625 
L 2419 4116 
z
M 2253 4666 
L 3047 4666 
L 3047 1625 
L 3713 1625 
L 3713 1100 
L 3047 1100 
L 3047 0 
L 2419 0 
L 2419 1100 
L 313 1100 
L 313 1709 
L 2253 4666 
z
" transform="scale(0.015625)"/>
       </defs>
       <use xlink:href="#DejaVuSans-34"/>
       <use xlink:href="#DejaVuSans-30" x="63.623047"/>
       <use xlink:href="#DejaVuSans-30" x="127.246094"/>
       <use xlink:href="#DejaVuSans-30" x="190.869141"/>
      </g>
     </g>
    </g>
    <g id="xtick_4">
     <g id="line2d_4">
      <g>
       <use xlink:href="#m50575752c2" x="506.58107" y="384.48" style="stroke: #000000; stroke-width: 0.8"/>
      </g>
     </g>
     <g id="text_4">
      <!-- 6000 -->
      <g transform="translate(493.85607 399.078438) scale(0.1 -0.1)">
       <defs>
        <path id="DejaVuSans-36" d="M 2113 2584 
Q 1688 2584 1439 2293 
Q 1191 2003 1191 1497 
Q 1191 994 1439 701 
Q 1688 409 2113 409 
Q 2538 409 2786 701 
Q 3034 994 3034 1497 
Q 3034 2003 2786 2293 
Q 2538 2584 2113 2584 
z
M 3366 4563 
L 3366 3988 
Q 3128 4100 2886 4159 
Q 2644 4219 2406 4219 
Q 1781 4219 1451 3797 
Q 1122 3375 1075 2522 
Q 1259 2794 1537 2939 
Q 1816 3084 2150 3084 
Q 2853 3084 3261 2657 
Q 3669 2231 3669 1497 
Q 3669 778 3244 343 
Q 2819 -91 2113 -91 
Q 1303 -91 875 529 
Q 447 1150 447 2328 
Q 447 3434 972 4092 
Q 1497 4750 2381 4750 
Q 2619 4750 2861 4703 
Q 3103 4656 3366 4563 
z
" transform="scale(0.015625)"/>
       </defs>
       <use xlink:href="#DejaVuSans-36"/>
       <use xlink:href="#DejaVuSans-30" x="63.623047"/>
       <use xlink:href="#DejaVuSans-30" x="127.246094"/>
       <use xlink:href="#DejaVuSans-30" x="190.869141"/>
      </g>
     </g>
    </g>
    <g id="xtick_5">
     <g id="line2d_5">
      <g>
       <use xlink:href="#m50575752c2" x="629.295973" y="384.48" style="stroke: #000000; stroke-width: 0.8"/>
      </g>
     </g>
     <g id="text_5">
      <!-- 8000 -->
      <g transform="translate(616.570973 399.078438) scale(0.1 -0.1)">
       <defs>
        <path id="DejaVuSans-38" d="M 2034 2216 
Q 1584 2216 1326 1975 
Q 1069 1734 1069 1313 
Q 1069 891 1326 650 
Q 1584 409 2034 409 
Q 2484 409 2743 651 
Q 3003 894 3003 1313 
Q 3003 1734 2745 1975 
Q 2488 2216 2034 2216 
z
M 1403 2484 
Q 997 2584 770 2862 
Q 544 3141 544 3541 
Q 544 4100 942 4425 
Q 1341 4750 2034 4750 
Q 2731 4750 3128 4425 
Q 3525 4100 3525 3541 
Q 3525 3141 3298 2862 
Q 3072 2584 2669 2484 
Q 3125 2378 3379 2068 
Q 3634 1759 3634 1313 
Q 3634 634 3220 271 
Q 2806 -91 2034 -91 
Q 1263 -91 848 271 
Q 434 634 434 1313 
Q 434 1759 690 2068 
Q 947 2378 1403 2484 
z
M 1172 3481 
Q 1172 3119 1398 2916 
Q 1625 2713 2034 2713 
Q 2441 2713 2670 2916 
Q 2900 3119 2900 3481 
Q 2900 3844 2670 4047 
Q 2441 4250 2034 4250 
Q 1625 4250 1398 4047 
Q 1172 3844 1172 3481 
z
" transform="scale(0.015625)"/>
       </defs>
       <use xlink:href="#DejaVuSans-38"/>
       <use xlink:href="#DejaVuSans-30" x="63.623047"/>
       <use xlink:href="#DejaVuSans-30" x="127.246094"/>
       <use xlink:href="#DejaVuSans-30" x="190.869141"/>
      </g>
     </g>
    </g>
    <g id="xtick_6">
     <g id="line2d_6">
      <g>
       <use xlink:href="#m50575752c2" x="752.010875" y="384.48" style="stroke: #000000; stroke-width: 0.8"/>
      </g>
     </g>
     <g id="text_6">
      <!-- 10000 -->
      <g transform="translate(736.104625 399.078438) scale(0.1 -0.1)">
       <defs>
        <path id="DejaVuSans-31" d="M 794 531 
L 1825 531 
L 1825 4091 
L 703 3866 
L 703 4441 
L 1819 4666 
L 2450 4666 
L 2450 531 
L 3481 531 
L 3481 0 
L 794 0 
L 794 531 
z
" transform="scale(0.015625)"/>
       </defs>
       <use xlink:href="#DejaVuSans-31"/>
       <use xlink:href="#DejaVuSans-30" x="63.623047"/>
       <use xlink:href="#DejaVuSans-30" x="127.246094"/>
       <use xlink:href="#DejaVuSans-30" x="190.869141"/>
       <use xlink:href="#DejaVuSans-30" x="254.492188"/>
      </g>
     </g>
    </g>
   </g>
   <g id="matplotlib.axis_2">
    <g id="ytick_1">
     <g id="line2d_7">
      <defs>
       <path id="mf553f54e07" d="M 0 0 
L -3.5 0 
" style="stroke: #000000; stroke-width: 0.8"/>
      </defs>
      <g>
       <use xlink:href="#mf553f54e07" x="108" y="373.187848" style="stroke: #000000; stroke-width: 0.8"/>
      </g>
     </g>
     <g id="text_7">
      <!-- 0 -->
      <g transform="translate(94.6375 376.987067) scale(0.1 -0.1)">
       <use xlink:href="#DejaVuSans-30"/>
      </g>
     </g>
    </g>
    <g id="ytick_2">
     <g id="line2d_8">
      <g>
       <use xlink:href="#mf553f54e07" x="108" y="305.676109" style="stroke: #000000; stroke-width: 0.8"/>
      </g>
     </g>
     <g id="text_8">
      <!-- 100 -->
      <g transform="translate(81.9125 309.475328) scale(0.1 -0.1)">
       <use xlink:href="#DejaVuSans-31"/>
       <use xlink:href="#DejaVuSans-30" x="63.623047"/>
       <use xlink:href="#DejaVuSans-30" x="127.246094"/>
      </g>
     </g>
    </g>
    <g id="ytick_3">
     <g id="line2d_9">
      <g>
       <use xlink:href="#mf553f54e07" x="108" y="238.16437" style="stroke: #000000; stroke-width: 0.8"/>
      </g>
     </g>
     <g id="text_9">
      <!-- 200 -->
      <g transform="translate(81.9125 241.963588) scale(0.1 -0.1)">
       <use xlink:href="#DejaVuSans-32"/>
       <use xlink:href="#DejaVuSans-30" x="63.623047"/>
       <use xlink:href="#DejaVuSans-30" x="127.246094"/>
      </g>
     </g>
    </g>
    <g id="ytick_4">
     <g id="line2d_10">
      <g>
       <use xlink:href="#mf553f54e07" x="108" y="170.65263" style="stroke: #000000; stroke-width: 0.8"/>
      </g>
     </g>
     <g id="text_10">
      <!-- 300 -->
      <g transform="translate(81.9125 174.451849) scale(0.1 -0.1)">
       <defs>
        <path id="DejaVuSans-33" d="M 2597 2516 
Q 3050 2419 3304 2112 
Q 3559 1806 3559 1356 
Q 3559 666 3084 287 
Q 2609 -91 1734 -91 
Q 1441 -91 1130 -33 
Q 819 25 488 141 
L 488 750 
Q 750 597 1062 519 
Q 1375 441 1716 441 
Q 2309 441 2620 675 
Q 2931 909 2931 1356 
Q 2931 1769 2642 2001 
Q 2353 2234 1838 2234 
L 1294 2234 
L 1294 2753 
L 1863 2753 
Q 2328 2753 2575 2939 
Q 2822 3125 2822 3475 
Q 2822 3834 2567 4026 
Q 2313 4219 1838 4219 
Q 1578 4219 1281 4162 
Q 984 4106 628 3988 
L 628 4550 
Q 988 4650 1302 4700 
Q 1616 4750 1894 4750 
Q 2613 4750 3031 4423 
Q 3450 4097 3450 3541 
Q 3450 3153 3228 2886 
Q 3006 2619 2597 2516 
z
" transform="scale(0.015625)"/>
       </defs>
       <use xlink:href="#DejaVuSans-33"/>
       <use xlink:href="#DejaVuSans-30" x="63.623047"/>
       <use xlink:href="#DejaVuSans-30" x="127.246094"/>
      </g>
     </g>
    </g>
    <g id="ytick_5">
     <g id="line2d_11">
      <g>
       <use xlink:href="#mf553f54e07" x="108" y="103.140891" style="stroke: #000000; stroke-width: 0.8"/>
      </g>
     </g>
     <g id="text_11">
      <!-- 400 -->
      <g transform="translate(81.9125 106.94011) scale(0.1 -0.1)">
       <use xlink:href="#DejaVuSans-34"/>
       <use xlink:href="#DejaVuSans-30" x="63.623047"/>
       <use xlink:href="#DejaVuSans-30" x="127.246094"/>
      </g>
     </g>
    </g>
   </g>
   <g id="line2d_12">
    <path d="M 138.436364 317.148152 
L 138.497721 289.995949 
L 138.559079 302.142987 
L 138.681793 344.606582 
L 138.865866 272.132658 
L 138.927223 318.373063 
L 138.988581 299.386937 
L 139.111296 314.392101 
L 139.234011 285.912911 
L 139.295368 336.703208 
L 139.356725 315.387342 
L 139.418083 341.340152 
L 139.47944 315.923241 
L 139.540798 361.449114 
L 139.663513 272.132658 
L 139.72487 341.799494 
L 139.786228 301.224304 
L 139.847585 334.909367 
L 139.908942 266.926785 
L 139.9703 267.539241 
L 140.154372 348.179241 
L 140.21573 308.573772 
L 140.277087 312.554734 
L 140.338445 341.340152 
L 140.522517 276.11362 
L 140.583874 277.032304 
L 140.767947 308.88 
L 140.829304 284.994228 
L 140.952019 328.478582 
L 141.136091 261.016764 
L 141.320164 356.039089 
L 141.381521 328.478582 
L 141.442879 189.451139 
L 141.504236 319.291747 
L 141.565594 314.494177 
L 141.626951 303.810217 
L 141.688309 332.765772 
L 141.749666 322.660253 
L 141.811023 337.971646 
L 141.872381 301.224304 
L 141.933738 318.373063 
L 141.995096 328.478582 
L 142.056453 298.162025 
L 142.117811 313.090633 
L 142.179168 318.44962 
L 142.240526 285.912911 
L 142.301883 347.158481 
L 142.363241 276.726076 
L 142.424598 353.884079 
L 142.485955 294.487291 
L 142.547313 301.683646 
L 142.60867 322.966481 
L 142.670028 308.573772 
L 142.731385 284.994228 
L 142.792743 299.386937 
L 142.8541 356.039089 
L 142.915458 349.45519 
L 142.976815 360.938734 
L 143.160887 256.515038 
L 143.222245 344.606582 
L 143.283602 317.148152 
L 143.34496 301.224304 
L 143.406317 324.068901 
L 143.467675 308.88 
L 143.529032 281.013266 
L 143.59039 322.149873 
L 143.651747 311.942278 
L 143.774462 322.966481 
L 143.897177 355.196962 
L 143.958534 272.745114 
L 144.019892 332.765772 
L 144.081249 307.348861 
L 144.142607 356.651544 
L 144.203964 298.162025 
L 144.265321 328.478582 
L 144.449394 256.515038 
L 144.633466 312.6029 
L 144.694824 304.286582 
L 144.756181 328.478582 
L 144.940253 243.041013 
L 145.124326 347.286076 
L 145.185683 332.765772 
L 145.247041 359.866937 
L 145.431113 302.755443 
L 145.492471 347.158481 
L 145.553828 256.515038 
L 145.676543 343.075443 
L 145.799258 287.444051 
L 145.860615 363.082329 
L 145.921973 311.942278 
L 145.98333 301.07119 
L 146.044688 355.273519 
L 146.106045 267.233013 
L 146.167402 303.061671 
L 146.22876 253.758987 
L 146.290117 281.013266 
L 146.47419 315.387342 
L 146.71962 271.621149 
L 146.903692 350.220759 
L 146.965049 294.487291 
L 147.026407 317.148152 
L 147.087764 318.373063 
L 147.210479 292.803038 
L 147.271837 298.162025 
L 147.394552 364.766582 
L 147.455909 304.286582 
L 147.517266 356.039089 
L 147.578624 354.814177 
L 147.639981 328.478582 
L 147.701339 338.992405 
L 147.762696 333.684456 
L 147.824054 356.49843 
L 147.885411 344.606582 
L 147.946769 308.88 
L 148.008126 319.597975 
L 148.069483 302.142987 
L 148.192198 356.49843 
L 148.376271 257.301618 
L 148.437628 356.855696 
L 148.498986 287.444051 
L 148.560343 290.812557 
L 148.683058 351.139443 
L 148.744415 287.444051 
L 148.86713 360.020051 
L 148.928488 301.07119 
L 148.989845 322.660253 
L 149.051203 360.364557 
L 149.173918 267.233013 
L 149.35799 360.020051 
L 149.419347 256.515038 
L 149.480705 308.573772 
L 149.542062 272.745114 
L 149.60342 285.912911 
L 149.664777 306.123949 
L 149.726135 256.515038 
L 149.84885 360.020051 
L 149.910207 306.430177 
L 149.971564 348.179241 
L 150.094279 324.191392 
L 150.216994 266.926785 
L 150.278352 356.651544 
L 150.339709 328.478582 
L 150.401067 352.408101 
L 150.462424 256.515038 
L 150.523782 301.683646 
L 150.585139 334.512488 
L 150.646496 322.594997 
L 150.707854 287.444051 
L 150.830569 356.345316 
L 150.891926 314.392101 
L 150.953284 360.938734 
L 151.014641 272.745114 
L 151.075999 307.961316 
L 151.137356 272.711067 
L 151.198713 348.68962 
L 151.260071 309.631358 
L 151.321428 318.066835 
L 151.444143 271.82643 
L 151.505501 328.478582 
L 151.566858 315.923241 
L 151.628216 317.148152 
L 151.689573 302.142987 
L 151.750931 256.515038 
L 151.812288 341.340152 
L 151.873645 272.745114 
L 152.057718 361.449114 
L 152.119075 285.912911 
L 152.180433 324.068901 
L 152.303148 301.683646 
L 152.364505 266.926785 
L 152.548577 333.684456 
L 152.609935 296.630886 
L 152.671292 310.717367 
L 152.794007 360.020051 
L 152.916722 276.726076 
L 152.97808 318.373063 
L 153.039437 303.061671 
L 153.100794 315.514937 
L 153.162152 267.233013 
L 153.346224 355.885975 
L 153.407582 346.451481 
L 153.591654 284.075544 
L 153.653012 324.068901 
L 153.714369 284.994228 
L 153.898441 369.36 
L 153.959799 304.286582 
L 154.021156 360.938734 
L 154.082514 356.345316 
L 154.143871 345.014886 
L 154.205229 302.142987 
L 154.266586 304.286582 
L 154.327943 306.123949 
L 154.389301 356.651544 
L 154.450658 298.162025 
L 154.450658 298.162025 
" clip-path="url(#p9d97944866)" style="fill: none; stroke: #1f77b4; stroke-width: 1.5; stroke-linecap: square"/>
   </g>
   <g id="line2d_13">
    <path d="M 732.683278 316.535696 
L 348.769706 282.850633 
L 650.771081 360.938734 
L 747.163636 292.037468 
L 354.905451 343.330633 
L 708.385727 316.535696 
L 530.633191 348.68962 
L 683.29053 261.414684 
L 248.327559 331.847089 
L 483.326596 298.162025 
L 253.604299 310.411139 
L 507.194645 333.378228 
L 296.615873 298.162025 
L 525.663238 288.97519 
L 475.411485 330.315949 
L 321.281568 316.535696 
L 466.023795 331.847089 
L 451.543437 316.535696 
L 571.865398 357.876456 
L 316.495687 304.286582 
L 378.159925 316.535696 
L 415.772043 341.799494 
L 172.182962 301.224304 
L 141.933738 336.440506 
L 691.880573 258.352405 
L 534.866855 270.601519 
L 503.083696 342.565063 
L 575.66956 331.847089 
L 437.124436 342.565063 
L 671.878044 357.876456 
L 679.179581 298.162025 
L 481.240443 331.847089 
L 330.362471 313.473418 
L 582.787025 288.97519 
L 440.86724 282.850633 
L 637.886016 264.476962 
L 508.360437 304.286582 
L 516.827765 304.286582 
L 491.18035 304.286582 
L 187.829112 285.912911 
L 423.257652 327.253671 
L 463.937642 336.440506 
L 693.721296 331.081519 
L 221.023493 316.535696 
L 565.300151 276.726076 
L 397.364807 331.847089 
L 437.98344 316.535696 
L 190.958342 357.110886 
L 338.154867 353.283038 
L 715.564549 330.928405 
L 659.115694 301.224304 
L 176.109839 316.535696 
L 461.790131 304.286582 
L 321.833785 336.440506 
L 479.706507 345.627342 
L 246.793622 337.971646 
L 692.67822 290.506329 
L 565.422866 331.847089 
L 570.638249 360.938734 
L 613.220321 304.286582 
L 633.345565 295.099747 
L 280.724293 331.847089 
L 590.640779 285.912911 
L 408.470506 350.220759 
L 358.341469 357.876456 
L 520.141067 330.315949 
L 543.579613 284.381772 
L 431.663623 298.162025 
L 612.054529 299.693165 
L 528.240251 330.315949 
L 469.091668 308.88 
L 455.899816 301.224304 
L 319.563559 359.407595 
L 597.144668 350.220759 
L 327.294598 361.704304 
L 179.300426 334.909367 
L 337.11179 331.847089 
L 735.567078 348.68962 
L 233.785843 344.096203 
L 443.935113 310.411139 
L 326.374236 304.286582 
L 443.321538 316.535696 
L 630.339049 302.755443 
L 444.180543 285.912911 
L 712.987536 296.630886 
L 421.478286 316.535696 
L 457.49511 307.348861 
L 210.347296 337.971646 
L 309.562295 353.283038 
L 515.600616 364.001013 
L 686.297045 282.850633 
L 616.349551 357.264 
L 652.550447 298.162025 
L 364.231784 353.283038 
L 697.402743 275.194937 
L 668.871529 333.378228 
L 494.30958 207.82481 
L 365.336218 302.755443 
L 498.972747 319.597975 
L 648.807642 298.162025 
L 542.352464 316.535696 
L 400.739467 325.722532 
L 303.119762 316.535696 
L 459.826693 328.78481 
L 547.076988 333.378228 
L 712.496676 269.07038 
L 681.511164 180.264304 
L 191.694631 354.814177 
L 152.119075 262.945823 
L 408.531864 350.220759 
L 655.311532 290.506329 
L 656.600038 362.469873 
L 397.05802 322.660253 
L 724.584094 330.315949 
L 721.884366 295.099747 
L 334.22799 365.532152 
L 661.754064 333.378228 
L 180.15943 334.909367 
L 414.544894 341.799494 
L 483.203882 316.535696 
L 630.768552 288.97519 
L 169.483234 365.532152 
L 457.679182 316.535696 
L 275.508909 316.535696 
L 523.270297 353.283038 
L 676.05035 264.476962 
L 457.372395 310.411139 
L 640.401671 262.945823 
L 278.454067 276.726076 
L 360.243549 310.411139 
L 194.946576 235.385316 
L 699.18211 296.630886 
L 598.55589 298.162025 
L 581.866663 295.099747 
L 327.049168 296.630886 
L 381.6573 256.821266 
L 356.807532 331.847089 
L 408.347791 342.565063 
L 379.448432 350.220759 
L 337.786722 316.535696 
L 424.546158 331.847089 
L 180.343503 331.847089 
L 369.14038 325.722532 
L 468.539451 316.535696 
L 676.111708 304.286582 
L 410.618017 354.814177 
L 641.260676 363.235443 
L 290.602842 316.535696 
L 367.054227 351.751899 
L 333.430343 357.876456 
L 617.515342 333.378228 
L 347.665272 337.971646 
L 398.714671 331.847089 
L 518.054914 362.469873 
L 271.88882 344.096203 
L 652.489089 298.162025 
L 477.988498 66.96 
L 169.115089 357.876456 
L 444.97819 342.565063 
L 319.624917 359.407595 
L 630.891266 354.814177 
L 574.258339 318.066835 
L 635.247645 261.414684 
L 533.087489 356.345316 
L 151.260071 322.660253 
L 199.241598 304.286582 
L 652.795877 186.388861 
L 636.229365 354.814177 
L 442.033032 262.945823 
L 492.407499 357.110886 
L 246.486835 357.110886 
L 231.086115 304.286582 
L 417.551409 342.565063 
L 427.307244 359.407595 
L 499.340891 288.97519 
L 568.674811 270.601519 
L 721.700294 288.97519 
L 722.497941 355.579747 
L 282.687731 356.345316 
L 708.017583 229.260759 
L 633.897782 288.97519 
L 467.987234 276.726076 
L 556.280606 261.414684 
L 730.903912 290.506329 
L 640.892531 354.507949 
L 414.054034 350.220759 
L 513.82125 361.704304 
L 447.493845 304.286582 
L 304.285554 344.096203 
L 575.608203 348.68962 
L 546.279341 315.004557 
L 396.505803 304.286582 
L 530.939979 282.850633 
L 431.172763 357.110886 
L 592.604217 364.001013 
L 558.612189 357.876456 
L 396.935305 330.315949 
L 321.46564 304.286582 
L 320.913423 330.315949 
L 623.09887 334.909367 
L 152.794007 333.378228 
L 376.994134 350.986329 
L 198.259878 362.469873 
L 562.784496 336.440506 
L 614.570184 351.751899 
L 393.131143 270.601519 
L 374.723908 304.286582 
L 406.261638 273.663797 
L 380.123364 347.158481 
L 702.06591 298.162025 
L 614.999687 315.004557 
L 610.520593 327.253671 
L 221.08485 304.286582 
L 349.015136 227.72962 
L 655.679677 292.037468 
L 450.807147 316.535696 
L 149.971564 325.722532 
L 239.798873 319.597975 
L 349.505996 331.847089 
L 221.33028 270.601519 
L 522.411293 316.535696 
L 631.320769 316.535696 
L 314.839036 362.469873 
L 662.428996 279.788354 
L 460.010765 344.096203 
L 665.558226 301.224304 
L 474.245694 301.224304 
L 562.232279 276.726076 
L 380.736938 300.458734 
L 377.791781 301.224304 
L 272.011535 336.440506 
L 440.376381 295.099747 
L 671.141754 189.451139 
L 708.876587 350.220759 
L 427.123171 359.407595 
L 699.734327 354.814177 
L 359.50726 336.440506 
L 569.90196 331.847089 
L 349.751425 307.348861 
L 330.914688 325.722532 
L 583.093812 273.663797 
L 286.430536 347.158481 
L 495.414014 302.755443 
L 674.639129 354.814177 
L 424.484801 345.627342 
L 188.749474 345.627342 
L 726.302103 360.938734 
L 341.713599 281.319494 
L 619.601495 302.755443 
L 630.400407 302.755443 
L 292.382209 355.579747 
L 494.493653 356.345316 
L 344.290612 364.001013 
L 296.554515 304.286582 
L 672.246189 360.938734 
L 547.813278 353.283038 
L 292.627638 344.096203 
L 563.459428 333.378228 
L 742.868615 304.286582 
L 646.169272 296.630886 
L 179.361784 357.876456 
L 182.000154 288.97519 
L 182.000154 288.97519 
" clip-path="url(#p9d97944866)" style="fill: none; stroke: #ff7f0e; stroke-width: 1.5; stroke-linecap: square"/>
   </g>
   <g id="patch_3">
    <path d="M 108 384.48 
L 108 51.84 
" style="fill: none; stroke: #000000; stroke-width: 0.8; stroke-linejoin: miter; stroke-linecap: square"/>
   </g>
   <g id="patch_4">
    <path d="M 777.6 384.48 
L 777.6 51.84 
" style="fill: none; stroke: #000000; stroke-width: 0.8; stroke-linejoin: miter; stroke-linecap: square"/>
   </g>
   <g id="patch_5">
    <path d="M 108 384.48 
L 777.6 384.48 
" style="fill: none; stroke: #000000; stroke-width: 0.8; stroke-linejoin: miter; stroke-linecap: square"/>
   </g>
   <g id="patch_6">
    <path d="M 108 51.84 
L 777.6 51.84 
" style="fill: none; stroke: #000000; stroke-width: 0.8; stroke-linejoin: miter; stroke-linecap: square"/>
   </g>
   <g id="text_12">
    <!-- Regressão: Real vs Previsto -->
    <g transform="translate(360.520313 45.84) scale(0.12 -0.12)">
     <defs>
      <path id="DejaVuSans-52" d="M 2841 2188 
Q 3044 2119 3236 1894 
Q 3428 1669 3622 1275 
L 4263 0 
L 3584 0 
L 2988 1197 
Q 2756 1666 2539 1819 
Q 2322 1972 1947 1972 
L 1259 1972 
L 1259 0 
L 628 0 
L 628 4666 
L 2053 4666 
Q 2853 4666 3247 4331 
Q 3641 3997 3641 3322 
Q 3641 2881 3436 2590 
Q 3231 2300 2841 2188 
z
M 1259 4147 
L 1259 2491 
L 2053 2491 
Q 2509 2491 2742 2702 
Q 2975 2913 2975 3322 
Q 2975 3731 2742 3939 
Q 2509 4147 2053 4147 
L 1259 4147 
z
" transform="scale(0.015625)"/>
      <path id="DejaVuSans-65" d="M 3597 1894 
L 3597 1613 
L 953 1613 
Q 991 1019 1311 708 
Q 1631 397 2203 397 
Q 2534 397 2845 478 
Q 3156 559 3463 722 
L 3463 178 
Q 3153 47 2828 -22 
Q 2503 -91 2169 -91 
Q 1331 -91 842 396 
Q 353 884 353 1716 
Q 353 2575 817 3079 
Q 1281 3584 2069 3584 
Q 2775 3584 3186 3129 
Q 3597 2675 3597 1894 
z
M 3022 2063 
Q 3016 2534 2758 2815 
Q 2500 3097 2075 3097 
Q 1594 3097 1305 2825 
Q 1016 2553 972 2059 
L 3022 2063 
z
" transform="scale(0.015625)"/>
      <path id="DejaVuSans-67" d="M 2906 1791 
Q 2906 2416 2648 2759 
Q 2391 3103 1925 3103 
Q 1463 3103 1205 2759 
Q 947 2416 947 1791 
Q 947 1169 1205 825 
Q 1463 481 1925 481 
Q 2391 481 2648 825 
Q 2906 1169 2906 1791 
z
M 3481 434 
Q 3481 -459 3084 -895 
Q 2688 -1331 1869 -1331 
Q 1566 -1331 1297 -1286 
Q 1028 -1241 775 -1147 
L 775 -588 
Q 1028 -725 1275 -790 
Q 1522 -856 1778 -856 
Q 2344 -856 2625 -561 
Q 2906 -266 2906 331 
L 2906 616 
Q 2728 306 2450 153 
Q 2172 0 1784 0 
Q 1141 0 747 490 
Q 353 981 353 1791 
Q 353 2603 747 3093 
Q 1141 3584 1784 3584 
Q 2172 3584 2450 3431 
Q 2728 3278 2906 2969 
L 2906 3500 
L 3481 3500 
L 3481 434 
z
" transform="scale(0.015625)"/>
      <path id="DejaVuSans-72" d="M 2631 2963 
Q 2534 3019 2420 3045 
Q 2306 3072 2169 3072 
Q 1681 3072 1420 2755 
Q 1159 2438 1159 1844 
L 1159 0 
L 581 0 
L 581 3500 
L 1159 3500 
L 1159 2956 
Q 1341 3275 1631 3429 
Q 1922 3584 2338 3584 
Q 2397 3584 2469 3576 
Q 2541 3569 2628 3553 
L 2631 2963 
z
" transform="scale(0.015625)"/>
      <path id="DejaVuSans-73" d="M 2834 3397 
L 2834 2853 
Q 2591 2978 2328 3040 
Q 2066 3103 1784 3103 
Q 1356 3103 1142 2972 
Q 928 2841 928 2578 
Q 928 2378 1081 2264 
Q 1234 2150 1697 2047 
L 1894 2003 
Q 2506 1872 2764 1633 
Q 3022 1394 3022 966 
Q 3022 478 2636 193 
Q 2250 -91 1575 -91 
Q 1294 -91 989 -36 
Q 684 19 347 128 
L 347 722 
Q 666 556 975 473 
Q 1284 391 1588 391 
Q 1994 391 2212 530 
Q 2431 669 2431 922 
Q 2431 1156 2273 1281 
Q 2116 1406 1581 1522 
L 1381 1569 
Q 847 1681 609 1914 
Q 372 2147 372 2553 
Q 372 3047 722 3315 
Q 1072 3584 1716 3584 
Q 2034 3584 2315 3537 
Q 2597 3491 2834 3397 
z
" transform="scale(0.015625)"/>
      <path id="DejaVuSans-e3" d="M 2194 1759 
Q 1497 1759 1228 1600 
Q 959 1441 959 1056 
Q 959 750 1161 570 
Q 1363 391 1709 391 
Q 2188 391 2477 730 
Q 2766 1069 2766 1631 
L 2766 1759 
L 2194 1759 
z
M 3341 1997 
L 3341 0 
L 2766 0 
L 2766 531 
Q 2569 213 2275 61 
Q 1981 -91 1556 -91 
Q 1019 -91 701 211 
Q 384 513 384 1019 
Q 384 1609 779 1909 
Q 1175 2209 1959 2209 
L 2766 2209 
L 2766 2266 
Q 2766 2663 2505 2880 
Q 2244 3097 1772 3097 
Q 1472 3097 1187 3025 
Q 903 2953 641 2809 
L 641 3341 
Q 956 3463 1253 3523 
Q 1550 3584 1831 3584 
Q 2591 3584 2966 3190 
Q 3341 2797 3341 1997 
z
M 1844 4281 
L 1665 4453 
Q 1597 4516 1545 4545 
Q 1494 4575 1453 4575 
Q 1334 4575 1278 4461 
Q 1222 4347 1215 4091 
L 825 4091 
Q 831 4513 990 4742 
Q 1150 4972 1434 4972 
Q 1553 4972 1653 4928 
Q 1753 4884 1869 4781 
L 2047 4609 
Q 2115 4547 2167 4517 
Q 2219 4488 2259 4488 
Q 2378 4488 2434 4602 
Q 2490 4716 2497 4972 
L 2887 4972 
Q 2881 4550 2721 4320 
Q 2562 4091 2278 4091 
Q 2159 4091 2059 4134 
Q 1959 4178 1844 4281 
z
" transform="scale(0.015625)"/>
      <path id="DejaVuSans-6f" d="M 1959 3097 
Q 1497 3097 1228 2736 
Q 959 2375 959 1747 
Q 959 1119 1226 758 
Q 1494 397 1959 397 
Q 2419 397 2687 759 
Q 2956 1122 2956 1747 
Q 2956 2369 2687 2733 
Q 2419 3097 1959 3097 
z
M 1959 3584 
Q 2709 3584 3137 3096 
Q 3566 2609 3566 1747 
Q 3566 888 3137 398 
Q 2709 -91 1959 -91 
Q 1206 -91 779 398 
Q 353 888 353 1747 
Q 353 2609 779 3096 
Q 1206 3584 1959 3584 
z
" transform="scale(0.015625)"/>
      <path id="DejaVuSans-3a" d="M 750 794 
L 1409 794 
L 1409 0 
L 750 0 
L 750 794 
z
M 750 3309 
L 1409 3309 
L 1409 2516 
L 750 2516 
L 750 3309 
z
" transform="scale(0.015625)"/>
      <path id="DejaVuSans-20" transform="scale(0.015625)"/>
      <path id="DejaVuSans-61" d="M 2194 1759 
Q 1497 1759 1228 1600 
Q 959 1441 959 1056 
Q 959 750 1161 570 
Q 1363 391 1709 391 
Q 2188 391 2477 730 
Q 2766 1069 2766 1631 
L 2766 1759 
L 2194 1759 
z
M 3341 1997 
L 3341 0 
L 2766 0 
L 2766 531 
Q 2569 213 2275 61 
Q 1981 -91 1556 -91 
Q 1019 -91 701 211 
Q 384 513 384 1019 
Q 384 1609 779 1909 
Q 1175 2209 1959 2209 
L 2766 2209 
L 2766 2266 
Q 2766 2663 2505 2880 
Q 2244 3097 1772 3097 
Q 1472 3097 1187 3025 
Q 903 2953 641 2809 
L 641 3341 
Q 956 3463 1253 3523 
Q 1550 3584 1831 3584 
Q 2591 3584 2966 3190 
Q 3341 2797 3341 1997 
z
" transform="scale(0.015625)"/>
      <path id="DejaVuSans-6c" d="M 603 4863 
L 1178 4863 
L 1178 0 
L 603 0 
L 603 4863 
z
" transform="scale(0.015625)"/>
      <path id="DejaVuSans-76" d="M 191 3500 
L 800 3500 
L 1894 563 
L 2988 3500 
L 3597 3500 
L 2284 0 
L 1503 0 
L 191 3500 
z
" transform="scale(0.015625)"/>
      <path id="DejaVuSans-50" d="M 1259 4147 
L 1259 2394 
L 2053 2394 
Q 2494 2394 2734 2622 
Q 2975 2850 2975 3272 
Q 2975 3691 2734 3919 
Q 2494 4147 2053 4147 
L 1259 4147 
z
M 628 4666 
L 2053 4666 
Q 2838 4666 3239 4311 
Q 3641 3956 3641 3272 
Q 3641 2581 3239 2228 
Q 2838 1875 2053 1875 
L 1259 1875 
L 1259 0 
L 628 0 
L 628 4666 
z
" transform="scale(0.015625)"/>
      <path id="DejaVuSans-69" d="M 603 3500 
L 1178 3500 
L 1178 0 
L 603 0 
L 603 3500 
z
M 603 4863 
L 1178 4863 
L 1178 4134 
L 603 4134 
L 603 4863 
z
" transform="scale(0.015625)"/>
      <path id="DejaVuSans-74" d="M 1172 4494 
L 1172 3500 
L 2356 3500 
L 2356 3053 
L 1172 3053 
L 1172 1153 
Q 1172 725 1289 603 
Q 1406 481 1766 481 
L 2356 481 
L 2356 0 
L 1766 0 
Q 1100 0 847 248 
Q 594 497 594 1153 
L 594 3053 
L 172 3053 
L 172 3500 
L 594 3500 
L 594 4494 
L 1172 4494 
z
" transform="scale(0.015625)"/>
     </defs>
     <use xlink:href="#DejaVuSans-52"/>
     <use xlink:href="#DejaVuSans-65" x="64.982422"/>
     <use xlink:href="#DejaVuSans-67" x="126.505859"/>
     <use xlink:href="#DejaVuSans-72" x="189.982422"/>
     <use xlink:href="#DejaVuSans-65" x="228.845703"/>
     <use xlink:href="#DejaVuSans-73" x="290.369141"/>
     <use xlink:href="#DejaVuSans-73" x="342.46875"/>
     <use xlink:href="#DejaVuSans-e3" x="394.568359"/>
     <use xlink:href="#DejaVuSans-6f" x="455.847656"/>
     <use xlink:href="#DejaVuSans-3a" x="517.029297"/>
     <use xlink:href="#DejaVuSans-20" x="550.720703"/>
     <use xlink:href="#DejaVuSans-52" x="582.507812"/>
     <use xlink:href="#DejaVuSans-65" x="647.490234"/>
     <use xlink:href="#DejaVuSans-61" x="709.013672"/>
     <use xlink:href="#DejaVuSans-6c" x="770.292969"/>
     <use xlink:href="#DejaVuSans-20" x="798.076172"/>
     <use xlink:href="#DejaVuSans-76" x="829.863281"/>
     <use xlink:href="#DejaVuSans-73" x="889.042969"/>
     <use xlink:href="#DejaVuSans-20" x="941.142578"/>
     <use xlink:href="#DejaVuSans-50" x="972.929688"/>
     <use xlink:href="#DejaVuSans-72" x="1031.482422"/>
     <use xlink:href="#DejaVuSans-65" x="1070.345703"/>
     <use xlink:href="#DejaVuSans-76" x="1131.869141"/>
     <use xlink:href="#DejaVuSans-69" x="1191.048828"/>
     <use xlink:href="#DejaVuSans-73" x="1218.832031"/>
     <use xlink:href="#DejaVuSans-74" x="1270.931641"/>
     <use xlink:href="#DejaVuSans-6f" x="1310.140625"/>
    </g>
   </g>
   <g id="legend_1">
    <g id="patch_7">
     <path d="M 672.315625 89.19625 
L 770.6 89.19625 
Q 772.6 89.19625 772.6 87.19625 
L 772.6 58.84 
Q 772.6 56.84 770.6 56.84 
L 672.315625 56.84 
Q 670.315625 56.84 670.315625 58.84 
L 670.315625 87.19625 
Q 670.315625 89.19625 672.315625 89.19625 
z
" style="fill: #ffffff; opacity: 0.8; stroke: #cccccc; stroke-linejoin: miter"/>
    </g>
    <g id="line2d_14">
     <path d="M 674.315625 64.938437 
L 684.315625 64.938437 
L 694.315625 64.938437 
" style="fill: none; stroke: #1f77b4; stroke-width: 1.5; stroke-linecap: square"/>
    </g>
    <g id="text_13">
     <!-- Valores Reais -->
     <g transform="translate(702.315625 68.438437) scale(0.1 -0.1)">
      <defs>
       <path id="DejaVuSans-56" d="M 1831 0 
L 50 4666 
L 709 4666 
L 2188 738 
L 3669 4666 
L 4325 4666 
L 2547 0 
L 1831 0 
z
" transform="scale(0.015625)"/>
      </defs>
      <use xlink:href="#DejaVuSans-56"/>
      <use xlink:href="#DejaVuSans-61" x="60.658203"/>
      <use xlink:href="#DejaVuSans-6c" x="121.9375"/>
      <use xlink:href="#DejaVuSans-6f" x="149.720703"/>
      <use xlink:href="#DejaVuSans-72" x="210.902344"/>
      <use xlink:href="#DejaVuSans-65" x="249.765625"/>
      <use xlink:href="#DejaVuSans-73" x="311.289062"/>
      <use xlink:href="#DejaVuSans-20" x="363.388672"/>
      <use xlink:href="#DejaVuSans-52" x="395.175781"/>
      <use xlink:href="#DejaVuSans-65" x="460.158203"/>
      <use xlink:href="#DejaVuSans-61" x="521.681641"/>
      <use xlink:href="#DejaVuSans-69" x="582.960938"/>
      <use xlink:href="#DejaVuSans-73" x="610.744141"/>
     </g>
    </g>
    <g id="line2d_15">
     <path d="M 674.315625 79.616562 
L 684.315625 79.616562 
L 694.315625 79.616562 
" style="fill: none; stroke: #ff7f0e; stroke-width: 1.5; stroke-linecap: square"/>
    </g>
    <g id="text_14">
     <!-- Previsões -->
     <g transform="translate(702.315625 83.116562) scale(0.1 -0.1)">
      <defs>
       <path id="DejaVuSans-f5" d="M 1959 3097 
Q 1497 3097 1228 2736 
Q 959 2375 959 1747 
Q 959 1119 1226 758 
Q 1494 397 1959 397 
Q 2419 397 2687 759 
Q 2956 1122 2956 1747 
Q 2956 2369 2687 2733 
Q 2419 3097 1959 3097 
z
M 1959 3584 
Q 2709 3584 3137 3096 
Q 3566 2609 3566 1747 
Q 3566 888 3137 398 
Q 2709 -91 1959 -91 
Q 1206 -91 779 398 
Q 353 888 353 1747 
Q 353 2609 779 3096 
Q 1206 3584 1959 3584 
z
M 1948 4281 
L 1769 4453 
Q 1701 4516 1649 4545 
Q 1598 4575 1557 4575 
Q 1438 4575 1382 4461 
Q 1326 4347 1319 4091 
L 929 4091 
Q 935 4513 1094 4742 
Q 1254 4972 1538 4972 
Q 1657 4972 1757 4928 
Q 1857 4884 1973 4781 
L 2151 4609 
Q 2219 4547 2271 4517 
Q 2323 4488 2363 4488 
Q 2482 4488 2538 4602 
Q 2594 4716 2601 4972 
L 2991 4972 
Q 2985 4550 2825 4320 
Q 2666 4091 2382 4091 
Q 2263 4091 2163 4134 
Q 2063 4178 1948 4281 
z
" transform="scale(0.015625)"/>
      </defs>
      <use xlink:href="#DejaVuSans-50"/>
      <use xlink:href="#DejaVuSans-72" x="58.552734"/>
      <use xlink:href="#DejaVuSans-65" x="97.416016"/>
      <use xlink:href="#DejaVuSans-76" x="158.939453"/>
      <use xlink:href="#DejaVuSans-69" x="218.119141"/>
      <use xlink:href="#DejaVuSans-73" x="245.902344"/>
      <use xlink:href="#DejaVuSans-f5" x="298.001953"/>
      <use xlink:href="#DejaVuSans-65" x="359.183594"/>
      <use xlink:href="#DejaVuSans-73" x="420.707031"/>
     </g>
    </g>
   </g>
  </g>
 </g>
 <defs>
  <clipPath id="p9d97944866">
   <rect x="108" y="51.84" width="669.6" height="332.64"/>
  </clipPath>
 </defs>
</svg>
