<?xml version="1.0" encoding="utf-8" standalone="no"?>
<!DOCTYPE svg PUBLIC "-//W3C//DTD SVG 1.1//EN"
  "http://www.w3.org/Graphics/SVG/1.1/DTD/svg11.dtd">
<svg xmlns:xlink="http://www.w3.org/1999/xlink" width="864pt" height="432pt" viewBox="0 0 864 432" xmlns="http://www.w3.org/2000/svg" version="1.1">
 <metadata>
  <rdf:RDF xmlns:dc="http://purl.org/dc/elements/1.1/" xmlns:cc="http://creativecommons.org/ns#" xmlns:rdf="http://www.w3.org/1999/02/22-rdf-syntax-ns#">
   <cc:Work>
    <dc:type rdf:resource="http://purl.org/dc/dcmitype/StillImage"/>
    <dc:date>2024-12-07T09:37:58.526520</dc:date>
    <dc:format>image/svg+xml</dc:format>
    <dc:creator>
     <cc:Agent>
      <dc:title>Matplotlib v3.9.2, https://matplotlib.org/</dc:title>
     </cc:Agent>
    </dc:creator>
   </cc:Work>
  </rdf:RDF>
 </metadata>
 <defs>
  <style type="text/css">*{stroke-linejoin: round; stroke-linecap: butt}</style>
 </defs>
 <g id="figure_1">
  <g id="patch_1">
   <path d="M 0 432 
L 864 432 
L 864 0 
L 0 0 
z
" style="fill: #ffffff"/>
  </g>
  <g id="axes_1">
   <g id="patch_2">
    <path d="M 108 384.48 
L 777.6 384.48 
L 777.6 51.84 
L 108 51.84 
z
" style="fill: #ffffff"/>
   </g>
   <g id="matplotlib.axis_1">
    <g id="xtick_1">
     <g id="line2d_1">
      <defs>
       <path id="m3a0cfa6fa2" d="M 0 0 
L 0 3.5 
" style="stroke: #000000; stroke-width: 0.8"/>
      </defs>
      <g>
       <use xlink:href="#m3a0cfa6fa2" x="138.436364" y="384.48" style="stroke: #000000; stroke-width: 0.8"/>
      </g>
     </g>
     <g id="text_1">
      <!-- 0 -->
      <g transform="translate(135.255114 399.078438) scale(0.1 -0.1)">
       <defs>
        <path id="DejaVuSans-30" d="M 2034 4250 
Q 1547 4250 1301 3770 
Q 1056 3291 1056 2328 
Q 1056 1369 1301 889 
Q 1547 409 2034 409 
Q 2525 409 2770 889 
Q 3016 1369 3016 2328 
Q 3016 3291 2770 3770 
Q 2525 4250 2034 4250 
z
M 2034 4750 
Q 2819 4750 3233 4129 
Q 3647 3509 3647 2328 
Q 3647 1150 3233 529 
Q 2819 -91 2034 -91 
Q 1250 -91 836 529 
Q 422 1150 422 2328 
Q 422 3509 836 4129 
Q 1250 4750 2034 4750 
z
" transform="scale(0.015625)"/>
       </defs>
       <use xlink:href="#DejaVuSans-30"/>
      </g>
     </g>
    </g>
    <g id="xtick_2">
     <g id="line2d_2">
      <g>
       <use xlink:href="#m3a0cfa6fa2" x="231.513928" y="384.48" style="stroke: #000000; stroke-width: 0.8"/>
      </g>
     </g>
     <g id="text_2">
      <!-- 200 -->
      <g transform="translate(221.970178 399.078438) scale(0.1 -0.1)">
       <defs>
        <path id="DejaVuSans-32" d="M 1228 531 
L 3431 531 
L 3431 0 
L 469 0 
L 469 531 
Q 828 903 1448 1529 
Q 2069 2156 2228 2338 
Q 2531 2678 2651 2914 
Q 2772 3150 2772 3378 
Q 2772 3750 2511 3984 
Q 2250 4219 1831 4219 
Q 1534 4219 1204 4116 
Q 875 4013 500 3803 
L 500 4441 
Q 881 4594 1212 4672 
Q 1544 4750 1819 4750 
Q 2544 4750 2975 4387 
Q 3406 4025 3406 3419 
Q 3406 3131 3298 2873 
Q 3191 2616 2906 2266 
Q 2828 2175 2409 1742 
Q 1991 1309 1228 531 
z
" transform="scale(0.015625)"/>
       </defs>
       <use xlink:href="#DejaVuSans-32"/>
       <use xlink:href="#DejaVuSans-30" x="63.623047"/>
       <use xlink:href="#DejaVuSans-30" x="127.246094"/>
      </g>
     </g>
    </g>
    <g id="xtick_3">
     <g id="line2d_3">
      <g>
       <use xlink:href="#m3a0cfa6fa2" x="324.591493" y="384.48" style="stroke: #000000; stroke-width: 0.8"/>
      </g>
     </g>
     <g id="text_3">
      <!-- 400 -->
      <g transform="translate(315.047743 399.078438) scale(0.1 -0.1)">
       <defs>
        <path id="DejaVuSans-34" d="M 2419 4116 
L 825 1625 
L 2419 1625 
L 2419 4116 
z
M 2253 4666 
L 3047 4666 
L 3047 1625 
L 3713 1625 
L 3713 1100 
L 3047 1100 
L 3047 0 
L 2419 0 
L 2419 1100 
L 313 1100 
L 313 1709 
L 2253 4666 
z
" transform="scale(0.015625)"/>
       </defs>
       <use xlink:href="#DejaVuSans-34"/>
       <use xlink:href="#DejaVuSans-30" x="63.623047"/>
       <use xlink:href="#DejaVuSans-30" x="127.246094"/>
      </g>
     </g>
    </g>
    <g id="xtick_4">
     <g id="line2d_4">
      <g>
       <use xlink:href="#m3a0cfa6fa2" x="417.669058" y="384.48" style="stroke: #000000; stroke-width: 0.8"/>
      </g>
     </g>
     <g id="text_4">
      <!-- 600 -->
      <g transform="translate(408.125308 399.078438) scale(0.1 -0.1)">
       <defs>
        <path id="DejaVuSans-36" d="M 2113 2584 
Q 1688 2584 1439 2293 
Q 1191 2003 1191 1497 
Q 1191 994 1439 701 
Q 1688 409 2113 409 
Q 2538 409 2786 701 
Q 3034 994 3034 1497 
Q 3034 2003 2786 2293 
Q 2538 2584 2113 2584 
z
M 3366 4563 
L 3366 3988 
Q 3128 4100 2886 4159 
Q 2644 4219 2406 4219 
Q 1781 4219 1451 3797 
Q 1122 3375 1075 2522 
Q 1259 2794 1537 2939 
Q 1816 3084 2150 3084 
Q 2853 3084 3261 2657 
Q 3669 2231 3669 1497 
Q 3669 778 3244 343 
Q 2819 -91 2113 -91 
Q 1303 -91 875 529 
Q 447 1150 447 2328 
Q 447 3434 972 4092 
Q 1497 4750 2381 4750 
Q 2619 4750 2861 4703 
Q 3103 4656 3366 4563 
z
" transform="scale(0.015625)"/>
       </defs>
       <use xlink:href="#DejaVuSans-36"/>
       <use xlink:href="#DejaVuSans-30" x="63.623047"/>
       <use xlink:href="#DejaVuSans-30" x="127.246094"/>
      </g>
     </g>
    </g>
    <g id="xtick_5">
     <g id="line2d_5">
      <g>
       <use xlink:href="#m3a0cfa6fa2" x="510.746622" y="384.48" style="stroke: #000000; stroke-width: 0.8"/>
      </g>
     </g>
     <g id="text_5">
      <!-- 800 -->
      <g transform="translate(501.202872 399.078438) scale(0.1 -0.1)">
       <defs>
        <path id="DejaVuSans-38" d="M 2034 2216 
Q 1584 2216 1326 1975 
Q 1069 1734 1069 1313 
Q 1069 891 1326 650 
Q 1584 409 2034 409 
Q 2484 409 2743 651 
Q 3003 894 3003 1313 
Q 3003 1734 2745 1975 
Q 2488 2216 2034 2216 
z
M 1403 2484 
Q 997 2584 770 2862 
Q 544 3141 544 3541 
Q 544 4100 942 4425 
Q 1341 4750 2034 4750 
Q 2731 4750 3128 4425 
Q 3525 4100 3525 3541 
Q 3525 3141 3298 2862 
Q 3072 2584 2669 2484 
Q 3125 2378 3379 2068 
Q 3634 1759 3634 1313 
Q 3634 634 3220 271 
Q 2806 -91 2034 -91 
Q 1263 -91 848 271 
Q 434 634 434 1313 
Q 434 1759 690 2068 
Q 947 2378 1403 2484 
z
M 1172 3481 
Q 1172 3119 1398 2916 
Q 1625 2713 2034 2713 
Q 2441 2713 2670 2916 
Q 2900 3119 2900 3481 
Q 2900 3844 2670 4047 
Q 2441 4250 2034 4250 
Q 1625 4250 1398 4047 
Q 1172 3844 1172 3481 
z
" transform="scale(0.015625)"/>
       </defs>
       <use xlink:href="#DejaVuSans-38"/>
       <use xlink:href="#DejaVuSans-30" x="63.623047"/>
       <use xlink:href="#DejaVuSans-30" x="127.246094"/>
      </g>
     </g>
    </g>
    <g id="xtick_6">
     <g id="line2d_6">
      <g>
       <use xlink:href="#m3a0cfa6fa2" x="603.824187" y="384.48" style="stroke: #000000; stroke-width: 0.8"/>
      </g>
     </g>
     <g id="text_6">
      <!-- 1000 -->
      <g transform="translate(591.099187 399.078438) scale(0.1 -0.1)">
       <defs>
        <path id="DejaVuSans-31" d="M 794 531 
L 1825 531 
L 1825 4091 
L 703 3866 
L 703 4441 
L 1819 4666 
L 2450 4666 
L 2450 531 
L 3481 531 
L 3481 0 
L 794 0 
L 794 531 
z
" transform="scale(0.015625)"/>
       </defs>
       <use xlink:href="#DejaVuSans-31"/>
       <use xlink:href="#DejaVuSans-30" x="63.623047"/>
       <use xlink:href="#DejaVuSans-30" x="127.246094"/>
       <use xlink:href="#DejaVuSans-30" x="190.869141"/>
      </g>
     </g>
    </g>
    <g id="xtick_7">
     <g id="line2d_7">
      <g>
       <use xlink:href="#m3a0cfa6fa2" x="696.901751" y="384.48" style="stroke: #000000; stroke-width: 0.8"/>
      </g>
     </g>
     <g id="text_7">
      <!-- 1200 -->
      <g transform="translate(684.176751 399.078438) scale(0.1 -0.1)">
       <use xlink:href="#DejaVuSans-31"/>
       <use xlink:href="#DejaVuSans-32" x="63.623047"/>
       <use xlink:href="#DejaVuSans-30" x="127.246094"/>
       <use xlink:href="#DejaVuSans-30" x="190.869141"/>
      </g>
     </g>
    </g>
   </g>
   <g id="matplotlib.axis_2">
    <g id="ytick_1">
     <g id="line2d_8">
      <defs>
       <path id="med2e49fcc2" d="M 0 0 
L -3.5 0 
" style="stroke: #000000; stroke-width: 0.8"/>
      </defs>
      <g>
       <use xlink:href="#med2e49fcc2" x="108" y="349.2" style="stroke: #000000; stroke-width: 0.8"/>
      </g>
     </g>
     <g id="text_8">
      <!-- 2 -->
      <g transform="translate(94.6375 352.999219) scale(0.1 -0.1)">
       <use xlink:href="#DejaVuSans-32"/>
      </g>
     </g>
    </g>
    <g id="ytick_2">
     <g id="line2d_9">
      <g>
       <use xlink:href="#med2e49fcc2" x="108" y="308.88" style="stroke: #000000; stroke-width: 0.8"/>
      </g>
     </g>
     <g id="text_9">
      <!-- 4 -->
      <g transform="translate(94.6375 312.679219) scale(0.1 -0.1)">
       <use xlink:href="#DejaVuSans-34"/>
      </g>
     </g>
    </g>
    <g id="ytick_3">
     <g id="line2d_10">
      <g>
       <use xlink:href="#med2e49fcc2" x="108" y="268.56" style="stroke: #000000; stroke-width: 0.8"/>
      </g>
     </g>
     <g id="text_10">
      <!-- 6 -->
      <g transform="translate(94.6375 272.359219) scale(0.1 -0.1)">
       <use xlink:href="#DejaVuSans-36"/>
      </g>
     </g>
    </g>
    <g id="ytick_4">
     <g id="line2d_11">
      <g>
       <use xlink:href="#med2e49fcc2" x="108" y="228.24" style="stroke: #000000; stroke-width: 0.8"/>
      </g>
     </g>
     <g id="text_11">
      <!-- 8 -->
      <g transform="translate(94.6375 232.039219) scale(0.1 -0.1)">
       <use xlink:href="#DejaVuSans-38"/>
      </g>
     </g>
    </g>
    <g id="ytick_5">
     <g id="line2d_12">
      <g>
       <use xlink:href="#med2e49fcc2" x="108" y="187.92" style="stroke: #000000; stroke-width: 0.8"/>
      </g>
     </g>
     <g id="text_12">
      <!-- 10 -->
      <g transform="translate(88.275 191.719219) scale(0.1 -0.1)">
       <use xlink:href="#DejaVuSans-31"/>
       <use xlink:href="#DejaVuSans-30" x="63.623047"/>
      </g>
     </g>
    </g>
    <g id="ytick_6">
     <g id="line2d_13">
      <g>
       <use xlink:href="#med2e49fcc2" x="108" y="147.6" style="stroke: #000000; stroke-width: 0.8"/>
      </g>
     </g>
     <g id="text_13">
      <!-- 12 -->
      <g transform="translate(88.275 151.399219) scale(0.1 -0.1)">
       <use xlink:href="#DejaVuSans-31"/>
       <use xlink:href="#DejaVuSans-32" x="63.623047"/>
      </g>
     </g>
    </g>
    <g id="ytick_7">
     <g id="line2d_14">
      <g>
       <use xlink:href="#med2e49fcc2" x="108" y="107.28" style="stroke: #000000; stroke-width: 0.8"/>
      </g>
     </g>
     <g id="text_14">
      <!-- 14 -->
      <g transform="translate(88.275 111.079219) scale(0.1 -0.1)">
       <use xlink:href="#DejaVuSans-31"/>
       <use xlink:href="#DejaVuSans-34" x="63.623047"/>
      </g>
     </g>
    </g>
    <g id="ytick_8">
     <g id="line2d_15">
      <g>
       <use xlink:href="#med2e49fcc2" x="108" y="66.96" style="stroke: #000000; stroke-width: 0.8"/>
      </g>
     </g>
     <g id="text_15">
      <!-- 16 -->
      <g transform="translate(88.275 70.759219) scale(0.1 -0.1)">
       <use xlink:href="#DejaVuSans-31"/>
       <use xlink:href="#DejaVuSans-36" x="63.623047"/>
      </g>
     </g>
    </g>
   </g>
   <g id="line2d_16">
    <path d="M 138.436364 147.6 
L 139.367139 308.88 
L 139.832527 87.12 
L 140.297915 288.72 
L 140.763303 329.04 
L 141.228691 147.6 
L 141.694078 228.24 
L 142.159466 187.92 
L 142.624854 187.92 
L 143.090242 288.72 
L 143.55563 268.56 
L 144.021018 228.24 
L 144.486405 87.12 
L 144.951793 268.56 
L 145.417181 288.72 
L 145.882569 329.04 
L 146.347957 228.24 
L 146.813344 187.92 
L 147.278732 288.72 
L 147.74412 87.12 
L 148.209508 288.72 
L 148.674896 329.04 
L 149.140284 228.24 
L 149.605671 288.72 
L 150.071059 268.56 
L 150.536447 87.12 
L 151.001835 288.72 
L 151.467223 268.56 
L 151.932611 308.88 
L 152.397998 187.92 
L 152.863386 228.24 
L 153.328774 329.04 
L 153.794162 288.72 
L 154.25955 208.08 
L 154.724937 288.72 
L 155.190325 268.56 
L 155.655713 288.72 
L 156.121101 329.04 
L 156.586489 288.72 
L 157.517264 288.72 
L 157.982652 228.24 
L 158.44804 147.6 
L 158.913428 268.56 
L 159.378816 87.12 
L 159.844204 329.04 
L 160.309591 288.72 
L 160.774979 187.92 
L 161.240367 187.92 
L 161.705755 228.24 
L 162.171143 66.96 
L 162.63653 147.6 
L 163.101918 288.72 
L 163.567306 268.56 
L 164.032694 288.72 
L 164.498082 288.72 
L 164.96347 228.24 
L 165.428857 147.6 
L 165.894245 288.72 
L 166.359633 228.24 
L 166.825021 329.04 
L 167.290409 187.92 
L 167.755796 268.56 
L 168.221184 288.72 
L 168.686572 187.92 
L 169.15196 187.92 
L 169.617348 147.6 
L 170.082736 187.92 
L 170.548123 187.92 
L 171.013511 268.56 
L 171.478899 288.72 
L 172.409675 288.72 
L 172.875063 228.24 
L 173.34045 288.72 
L 173.805838 127.44 
L 174.271226 288.72 
L 174.736614 87.12 
L 175.202002 228.24 
L 175.667389 288.72 
L 176.598165 288.72 
L 177.063553 187.92 
L 177.528941 228.24 
L 177.994329 288.72 
L 178.459716 308.88 
L 178.925104 147.6 
L 179.390492 147.6 
L 179.85588 268.56 
L 180.321268 187.92 
L 180.786656 147.6 
L 181.252043 187.92 
L 181.717431 147.6 
L 182.182819 87.12 
L 182.648207 268.56 
L 183.113595 248.4 
L 183.578982 187.92 
L 184.04437 187.92 
L 184.975146 268.56 
L 185.440534 288.72 
L 185.905922 288.72 
L 186.371309 187.92 
L 186.836697 288.72 
L 187.302085 288.72 
L 187.767473 308.88 
L 188.232861 268.56 
L 188.698249 288.72 
L 189.163636 87.12 
L 189.629024 268.56 
L 190.094412 167.76 
L 190.5598 268.56 
L 191.025188 268.56 
L 191.490575 228.24 
L 191.955963 288.72 
L 192.421351 268.56 
L 192.886739 147.6 
L 193.352127 228.24 
L 193.817515 187.92 
L 194.282902 329.04 
L 194.74829 268.56 
L 195.213678 147.6 
L 195.679066 268.56 
L 196.144454 87.12 
L 196.609842 308.88 
L 197.075229 187.92 
L 197.540617 268.56 
L 198.006005 329.04 
L 198.471393 268.56 
L 198.936781 288.72 
L 199.402168 87.12 
L 199.867556 228.24 
L 200.332944 329.04 
L 200.798332 288.72 
L 201.26372 268.56 
L 201.729108 187.92 
L 202.194495 228.24 
L 202.659883 147.6 
L 203.125271 87.12 
L 203.590659 288.72 
L 204.056047 187.92 
L 204.521435 187.92 
L 204.986822 147.6 
L 205.45221 87.12 
L 205.917598 187.92 
L 206.382986 187.92 
L 206.848374 288.72 
L 207.313761 268.56 
L 207.779149 228.24 
L 208.244537 288.72 
L 208.709925 187.92 
L 209.175313 288.72 
L 209.640701 187.92 
L 210.106088 288.72 
L 210.571476 288.72 
L 211.036864 167.76 
L 211.502252 187.92 
L 211.96764 288.72 
L 212.433028 329.04 
L 212.898415 288.72 
L 213.363803 228.24 
L 213.829191 228.24 
L 214.294579 329.04 
L 214.759967 288.72 
L 215.225354 87.12 
L 215.690742 329.04 
L 216.15613 288.72 
L 216.621518 228.24 
L 217.086906 187.92 
L 218.017681 268.56 
L 218.483069 147.6 
L 218.948457 147.6 
L 219.413845 187.92 
L 219.879233 187.92 
L 220.344621 147.6 
L 220.810008 288.72 
L 221.275396 268.56 
L 221.740784 147.6 
L 222.206172 187.92 
L 222.67156 167.76 
L 223.136947 228.24 
L 223.602335 228.24 
L 224.067723 268.56 
L 224.533111 248.4 
L 224.998499 288.72 
L 225.463887 127.44 
L 225.929274 268.56 
L 226.394662 187.92 
L 226.86005 288.72 
L 227.325438 187.92 
L 227.790826 288.72 
L 228.256214 329.04 
L 228.721601 187.92 
L 229.186989 187.92 
L 229.652377 127.44 
L 230.117765 147.6 
L 230.583153 228.24 
L 231.04854 288.72 
L 231.513928 228.24 
L 231.979316 107.28 
L 232.444704 288.72 
L 232.910092 187.92 
L 233.37548 187.92 
L 234.306255 308.88 
L 234.771643 329.04 
L 235.237031 288.72 
L 235.702419 187.92 
L 236.167807 288.72 
L 236.633194 308.88 
L 237.098582 187.92 
L 237.56397 228.24 
L 238.029358 288.72 
L 238.494746 187.92 
L 238.960133 127.44 
L 239.425521 228.24 
L 239.890909 288.72 
L 240.356297 228.24 
L 240.821685 288.72 
L 241.287073 228.24 
L 241.75246 187.92 
L 242.217848 228.24 
L 242.683236 228.24 
L 243.148624 187.92 
L 243.614012 228.24 
L 244.079399 288.72 
L 244.544787 288.72 
L 245.010175 268.56 
L 245.475563 187.92 
L 245.940951 268.56 
L 246.406339 187.92 
L 246.871726 187.92 
L 247.337114 268.56 
L 247.802502 288.72 
L 248.26789 248.4 
L 249.198666 288.72 
L 249.664053 268.56 
L 250.129441 288.72 
L 250.594829 107.28 
L 251.060217 228.24 
L 251.525605 187.92 
L 251.990992 288.72 
L 252.45638 228.24 
L 253.387156 147.6 
L 253.852544 147.6 
L 254.317932 187.92 
L 254.783319 288.72 
L 255.248707 147.6 
L 255.714095 329.04 
L 256.179483 87.12 
L 256.644871 87.12 
L 257.110259 208.08 
L 257.575646 288.72 
L 258.041034 147.6 
L 258.506422 187.92 
L 258.97181 288.72 
L 259.437198 329.04 
L 259.902585 288.72 
L 260.367973 268.56 
L 260.833361 87.12 
L 261.298749 288.72 
L 261.764137 288.72 
L 262.229525 208.08 
L 262.694912 288.72 
L 263.1603 288.72 
L 264.091076 248.4 
L 264.556464 147.6 
L 265.021852 288.72 
L 265.487239 187.92 
L 265.952627 288.72 
L 266.418015 288.72 
L 266.883403 268.56 
L 267.348791 268.56 
L 267.814178 288.72 
L 268.279566 228.24 
L 268.744954 147.6 
L 269.210342 228.24 
L 269.67573 187.92 
L 270.141118 288.72 
L 270.606505 187.92 
L 271.537281 268.56 
L 272.002669 187.92 
L 272.468057 228.24 
L 272.933445 288.72 
L 273.398832 329.04 
L 273.86422 288.72 
L 274.329608 288.72 
L 274.794996 228.24 
L 275.260384 228.24 
L 275.725771 187.92 
L 276.191159 208.08 
L 276.656547 147.6 
L 277.121935 288.72 
L 277.587323 187.92 
L 278.052711 147.6 
L 278.518098 147.6 
L 278.983486 268.56 
L 279.448874 329.04 
L 279.914262 288.72 
L 280.37965 288.72 
L 280.845038 268.56 
L 281.310425 288.72 
L 281.775813 288.72 
L 282.241201 187.92 
L 282.706589 228.24 
L 283.171977 187.92 
L 283.637364 66.96 
L 284.102752 268.56 
L 284.56814 288.72 
L 285.033528 187.92 
L 285.498916 187.92 
L 285.964304 268.56 
L 286.429691 268.56 
L 286.895079 228.24 
L 287.360467 228.24 
L 287.825855 167.76 
L 288.291243 147.6 
L 288.756631 187.92 
L 289.222018 288.72 
L 289.687406 288.72 
L 290.152794 228.24 
L 290.618182 147.6 
L 291.08357 228.24 
L 291.548957 187.92 
L 292.014345 228.24 
L 292.479733 187.92 
L 292.945121 268.56 
L 293.410509 187.92 
L 293.875897 248.4 
L 294.341284 268.56 
L 294.806672 308.88 
L 295.27206 187.92 
L 295.737448 329.04 
L 296.202836 228.24 
L 296.668224 87.12 
L 297.133611 268.56 
L 297.598999 127.44 
L 298.529775 349.2 
L 298.995163 288.72 
L 299.46055 87.12 
L 299.925938 268.56 
L 300.391326 288.72 
L 300.856714 147.6 
L 301.322102 288.72 
L 301.78749 87.12 
L 302.252877 268.56 
L 302.718265 248.4 
L 303.183653 329.04 
L 303.649041 288.72 
L 304.114429 147.6 
L 304.579817 228.24 
L 305.045204 87.12 
L 305.510592 127.44 
L 305.97598 187.92 
L 306.441368 228.24 
L 306.906756 228.24 
L 307.372143 288.72 
L 307.837531 147.6 
L 308.302919 288.72 
L 308.768307 228.24 
L 309.233695 187.92 
L 309.699083 349.2 
L 310.16447 127.44 
L 310.629858 268.56 
L 311.095246 187.92 
L 311.560634 167.76 
L 312.49141 288.72 
L 312.956797 228.24 
L 313.422185 228.24 
L 313.887573 288.72 
L 314.352961 87.12 
L 314.818349 288.72 
L 315.283736 288.72 
L 315.749124 228.24 
L 316.214512 228.24 
L 316.6799 329.04 
L 317.145288 288.72 
L 317.610676 147.6 
L 318.541451 228.24 
L 319.006839 329.04 
L 319.472227 228.24 
L 319.937615 288.72 
L 320.403003 147.6 
L 320.86839 288.72 
L 321.333778 228.24 
L 321.799166 147.6 
L 322.264554 147.6 
L 322.729942 329.04 
L 323.195329 268.56 
L 323.660717 228.24 
L 324.126105 228.24 
L 324.591493 288.72 
L 325.522269 288.72 
L 325.987656 228.24 
L 326.453044 147.6 
L 326.918432 288.72 
L 327.38382 228.24 
L 327.849208 288.72 
L 328.314595 87.12 
L 328.779983 147.6 
L 329.245371 288.72 
L 329.710759 228.24 
L 330.176147 187.92 
L 330.641535 268.56 
L 331.106922 208.08 
L 331.57231 268.56 
L 332.037698 288.72 
L 332.503086 147.6 
L 333.433862 228.24 
L 333.899249 187.92 
L 334.364637 187.92 
L 334.830025 288.72 
L 335.295413 87.12 
L 335.760801 147.6 
L 336.691576 147.6 
L 337.156964 228.24 
L 337.622352 187.92 
L 338.08774 288.72 
L 338.553128 308.88 
L 339.018515 288.72 
L 339.483903 248.4 
L 340.414679 329.04 
L 340.880067 187.92 
L 341.345455 228.24 
L 341.810842 288.72 
L 342.27623 288.72 
L 342.741618 268.56 
L 343.672394 187.92 
L 344.137781 288.72 
L 344.603169 147.6 
L 345.068557 228.24 
L 345.533945 208.08 
L 345.999333 87.12 
L 346.464721 187.92 
L 346.930108 228.24 
L 347.395496 288.72 
L 347.860884 87.12 
L 348.326272 288.72 
L 348.79166 329.04 
L 349.257048 187.92 
L 349.722435 167.76 
L 350.187823 187.92 
L 350.653211 147.6 
L 351.118599 187.92 
L 351.583987 288.72 
L 352.049374 329.04 
L 352.514762 228.24 
L 352.98015 288.72 
L 353.445538 87.12 
L 354.376314 288.72 
L 354.841701 228.24 
L 355.307089 288.72 
L 355.772477 187.92 
L 356.237865 187.92 
L 356.703253 329.04 
L 357.168641 208.08 
L 357.634028 248.4 
L 358.099416 187.92 
L 358.564804 147.6 
L 359.030192 187.92 
L 359.960967 187.92 
L 360.426355 228.24 
L 360.891743 288.72 
L 361.357131 187.92 
L 361.822519 228.24 
L 362.287907 228.24 
L 362.753294 329.04 
L 363.218682 288.72 
L 364.149458 288.72 
L 364.614846 187.92 
L 365.080234 268.56 
L 366.011009 187.92 
L 366.941785 268.56 
L 367.407173 329.04 
L 367.87256 369.36 
L 368.803336 288.72 
L 369.268724 329.04 
L 369.734112 187.92 
L 370.1995 228.24 
L 370.664887 167.76 
L 371.595663 288.72 
L 372.061051 147.6 
L 372.526439 187.92 
L 372.991827 288.72 
L 373.457214 228.24 
L 373.922602 187.92 
L 374.38799 187.92 
L 375.318766 268.56 
L 375.784153 268.56 
L 376.249541 187.92 
L 376.714929 288.72 
L 377.180317 288.72 
L 377.645705 268.56 
L 378.111093 187.92 
L 378.57648 329.04 
L 379.041868 147.6 
L 379.507256 268.56 
L 379.972644 288.72 
L 380.438032 329.04 
L 380.90342 329.04 
L 381.368807 187.92 
L 381.834195 187.92 
L 382.299583 288.72 
L 382.764971 228.24 
L 383.230359 228.24 
L 383.695746 147.6 
L 384.161134 187.92 
L 384.626522 288.72 
L 385.09191 187.92 
L 385.557298 308.88 
L 386.022686 208.08 
L 386.488073 268.56 
L 387.418849 308.88 
L 387.884237 187.92 
L 388.349625 268.56 
L 388.815013 208.08 
L 389.2804 228.24 
L 389.745788 329.04 
L 390.211176 329.04 
L 390.676564 147.6 
L 391.141952 228.24 
L 391.607339 187.92 
L 392.072727 268.56 
L 392.538115 288.72 
L 393.934279 288.72 
L 394.399666 127.44 
L 394.865054 288.72 
L 395.330442 187.92 
L 395.79583 288.72 
L 396.261218 288.72 
L 396.726606 268.56 
L 397.191993 288.72 
L 397.657381 228.24 
L 398.122769 228.24 
L 398.588157 187.92 
L 399.053545 288.72 
L 399.518932 228.24 
L 399.98432 228.24 
L 400.449708 288.72 
L 400.915096 288.72 
L 401.380484 187.92 
L 401.845872 228.24 
L 402.311259 147.6 
L 402.776647 288.72 
L 403.242035 308.88 
L 403.707423 167.76 
L 404.172811 288.72 
L 404.638198 147.6 
L 405.103586 268.56 
L 405.568974 87.12 
L 406.034362 147.6 
L 406.49975 288.72 
L 406.965138 329.04 
L 407.430525 228.24 
L 407.895913 268.56 
L 408.361301 187.92 
L 408.826689 187.92 
L 409.292077 208.08 
L 409.757465 268.56 
L 410.222852 268.56 
L 410.68824 288.72 
L 411.153628 329.04 
L 411.619016 187.92 
L 412.084404 87.12 
L 412.549791 147.6 
L 413.015179 167.76 
L 413.480567 147.6 
L 413.945955 288.72 
L 414.411343 268.56 
L 414.876731 187.92 
L 415.342118 228.24 
L 415.807506 187.92 
L 416.272894 288.72 
L 416.738282 228.24 
L 417.20367 268.56 
L 417.669058 87.12 
L 418.134445 288.72 
L 418.599833 187.92 
L 419.065221 308.88 
L 419.530609 147.6 
L 419.995997 288.72 
L 420.461384 329.04 
L 420.926772 187.92 
L 421.39216 228.24 
L 421.857548 288.72 
L 422.322936 268.56 
L 422.788324 288.72 
L 423.253711 228.24 
L 423.719099 187.92 
L 424.184487 87.12 
L 424.649875 147.6 
L 425.115263 268.56 
L 425.580651 228.24 
L 426.046038 288.72 
L 426.511426 187.92 
L 426.976814 187.92 
L 427.90759 268.56 
L 428.372977 87.12 
L 428.838365 288.72 
L 429.303753 147.6 
L 429.769141 187.92 
L 430.234529 349.2 
L 431.165304 187.92 
L 431.630692 268.56 
L 432.09608 228.24 
L 432.561468 288.72 
L 433.026856 228.24 
L 433.492244 288.72 
L 433.957631 187.92 
L 434.423019 228.24 
L 435.819183 228.24 
L 436.28457 187.92 
L 437.215346 187.92 
L 437.680734 288.72 
L 438.146122 288.72 
L 438.61151 329.04 
L 439.076897 187.92 
L 439.542285 288.72 
L 440.007673 228.24 
L 440.473061 147.6 
L 440.938449 228.24 
L 441.403837 228.24 
L 441.869224 187.92 
L 442.334612 228.24 
L 443.265388 268.56 
L 443.730776 187.92 
L 444.196163 288.72 
L 444.661551 268.56 
L 445.126939 228.24 
L 445.592327 329.04 
L 446.057715 288.72 
L 446.98849 329.04 
L 447.453878 187.92 
L 447.919266 329.04 
L 448.384654 248.4 
L 448.850042 329.04 
L 449.31543 228.24 
L 449.780817 228.24 
L 450.246205 187.92 
L 450.711593 208.08 
L 451.176981 268.56 
L 451.642369 147.6 
L 452.107756 187.92 
L 452.573144 187.92 
L 453.038532 288.72 
L 453.50392 228.24 
L 453.969308 288.72 
L 454.434696 187.92 
L 454.900083 288.72 
L 455.365471 187.92 
L 455.830859 288.72 
L 456.296247 288.72 
L 456.761635 228.24 
L 457.227023 288.72 
L 457.69241 268.56 
L 458.157798 187.92 
L 458.623186 147.6 
L 459.088574 288.72 
L 459.553962 187.92 
L 460.019349 329.04 
L 460.950125 147.6 
L 461.415513 147.6 
L 461.880901 208.08 
L 462.346289 167.76 
L 462.811676 87.12 
L 463.277064 187.92 
L 463.742452 187.92 
L 464.20784 268.56 
L 464.673228 208.08 
L 465.138616 187.92 
L 465.604003 187.92 
L 466.069391 228.24 
L 466.534779 228.24 
L 467.000167 268.56 
L 467.930942 268.56 
L 468.39633 147.6 
L 468.861718 228.24 
L 469.327106 147.6 
L 469.792494 187.92 
L 470.257882 187.92 
L 470.723269 87.12 
L 471.188657 147.6 
L 471.654045 268.56 
L 472.119433 288.72 
L 472.584821 268.56 
L 473.050209 187.92 
L 473.515596 228.24 
L 473.980984 127.44 
L 474.446372 228.24 
L 474.91176 288.72 
L 475.377148 127.44 
L 475.842535 288.72 
L 476.307923 66.96 
L 476.773311 288.72 
L 477.238699 268.56 
L 478.169475 308.88 
L 478.634862 87.12 
L 479.10025 228.24 
L 479.565638 288.72 
L 480.031026 228.24 
L 480.496414 147.6 
L 480.961802 187.92 
L 481.427189 147.6 
L 481.892577 147.6 
L 482.357965 228.24 
L 482.823353 329.04 
L 483.288741 288.72 
L 483.754128 228.24 
L 484.219516 288.72 
L 484.684904 187.92 
L 485.150292 147.6 
L 486.546455 268.56 
L 487.011843 147.6 
L 487.477231 288.72 
L 487.942619 228.24 
L 488.408007 228.24 
L 488.873394 288.72 
L 489.338782 288.72 
L 489.80417 187.92 
L 490.269558 288.72 
L 490.734946 187.92 
L 491.200334 288.72 
L 492.131109 288.72 
L 492.596497 228.24 
L 493.061885 147.6 
L 493.527273 187.92 
L 493.992661 288.72 
L 494.458048 329.04 
L 494.923436 288.72 
L 495.388824 329.04 
L 495.854212 147.6 
L 496.3196 288.72 
L 496.784987 268.56 
L 497.715763 147.6 
L 498.181151 187.92 
L 498.646539 288.72 
L 499.111927 308.88 
L 499.577314 288.72 
L 500.042702 147.6 
L 500.50809 228.24 
L 500.973478 288.72 
L 501.904254 288.72 
L 502.369641 329.04 
L 502.835029 329.04 
L 503.300417 268.56 
L 503.765805 87.12 
L 504.231193 187.92 
L 504.69658 228.24 
L 505.161968 228.24 
L 505.627356 349.2 
L 506.092744 87.12 
L 506.558132 147.6 
L 507.02352 268.56 
L 507.488907 147.6 
L 507.954295 268.56 
L 508.419683 268.56 
L 508.885071 127.44 
L 509.815847 288.72 
L 510.281234 308.88 
L 510.746622 228.24 
L 511.21201 268.56 
L 511.677398 268.56 
L 512.142786 228.24 
L 512.608173 288.72 
L 513.073561 288.72 
L 513.538949 187.92 
L 514.004337 329.04 
L 514.469725 228.24 
L 514.935113 288.72 
L 515.4005 187.92 
L 515.865888 187.92 
L 516.331276 228.24 
L 516.796664 187.92 
L 517.262052 288.72 
L 517.72744 87.12 
L 518.192827 268.56 
L 518.658215 187.92 
L 519.123603 228.24 
L 519.588991 187.92 
L 520.054379 308.88 
L 520.519766 87.12 
L 520.985154 228.24 
L 521.450542 288.72 
L 521.91593 288.72 
L 522.381318 228.24 
L 522.846706 268.56 
L 523.312093 288.72 
L 523.777481 147.6 
L 524.242869 147.6 
L 524.708257 288.72 
L 525.173645 268.56 
L 525.639033 288.72 
L 526.10442 329.04 
L 527.035196 147.6 
L 527.500584 187.92 
L 527.965972 268.56 
L 528.431359 147.6 
L 528.896747 187.92 
L 529.362135 288.72 
L 529.827523 187.92 
L 530.292911 187.92 
L 530.758299 147.6 
L 531.223686 288.72 
L 531.689074 187.92 
L 532.154462 228.24 
L 532.61985 288.72 
L 533.085238 187.92 
L 533.550626 288.72 
L 534.016013 329.04 
L 534.946789 147.6 
L 535.412177 288.72 
L 535.877565 268.56 
L 536.342952 288.72 
L 536.80834 288.72 
L 537.273728 147.6 
L 537.739116 187.92 
L 538.204504 288.72 
L 538.669892 288.72 
L 539.135279 369.36 
L 539.600667 228.24 
L 540.066055 268.56 
L 540.531443 268.56 
L 540.996831 147.6 
L 541.462219 228.24 
L 541.927606 228.24 
L 542.392994 288.72 
L 542.858382 187.92 
L 543.32377 147.6 
L 543.789158 268.56 
L 544.254545 288.72 
L 544.719933 147.6 
L 545.185321 288.72 
L 545.650709 288.72 
L 546.116097 87.12 
L 546.581485 228.24 
L 547.046872 228.24 
L 547.977648 147.6 
L 548.443036 329.04 
L 548.908424 147.6 
L 549.373812 228.24 
L 549.839199 147.6 
L 550.304587 288.72 
L 550.769975 187.92 
L 551.235363 288.72 
L 551.700751 187.92 
L 552.631526 268.56 
L 553.562302 308.88 
L 554.493078 228.24 
L 554.958465 147.6 
L 555.423853 308.88 
L 555.889241 248.4 
L 556.820017 288.72 
L 557.285405 147.6 
L 557.750792 268.56 
L 558.21618 288.72 
L 558.681568 288.72 
L 559.146956 228.24 
L 559.612344 329.04 
L 560.077731 187.92 
L 560.543119 288.72 
L 561.008507 288.72 
L 561.473895 147.6 
L 561.939283 288.72 
L 562.404671 187.92 
L 562.870058 147.6 
L 563.335446 228.24 
L 563.800834 228.24 
L 564.266222 268.56 
L 564.73161 288.72 
L 565.196997 187.92 
L 565.662385 288.72 
L 566.127773 87.12 
L 566.593161 288.72 
L 567.523937 288.72 
L 567.989324 228.24 
L 568.454712 228.24 
L 568.9201 87.12 
L 569.385488 87.12 
L 569.850876 268.56 
L 570.316264 228.24 
L 570.781651 288.72 
L 571.247039 268.56 
L 571.712427 187.92 
L 572.177815 288.72 
L 572.643203 228.24 
L 573.10859 187.92 
L 573.573978 268.56 
L 574.039366 288.72 
L 574.504754 87.12 
L 574.970142 329.04 
L 575.43553 288.72 
L 575.900917 329.04 
L 576.366305 288.72 
L 576.831693 288.72 
L 577.297081 187.92 
L 577.762469 208.08 
L 578.227857 288.72 
L 578.693244 228.24 
L 579.158632 268.56 
L 579.62402 147.6 
L 580.089408 288.72 
L 580.554796 288.72 
L 581.020183 187.92 
L 581.485571 187.92 
L 581.950959 228.24 
L 582.416347 167.76 
L 582.881735 248.4 
L 583.347123 147.6 
L 583.81251 268.56 
L 584.277898 268.56 
L 584.743286 308.88 
L 585.674062 147.6 
L 586.13945 288.72 
L 586.604837 107.28 
L 587.070225 288.72 
L 587.535613 87.12 
L 588.001001 349.2 
L 588.466389 187.92 
L 588.931776 288.72 
L 589.397164 228.24 
L 589.862552 288.72 
L 590.32794 308.88 
L 590.793328 187.92 
L 591.258716 147.6 
L 591.724103 228.24 
L 592.189491 288.72 
L 592.654879 187.92 
L 593.120267 329.04 
L 593.585655 187.92 
L 594.051043 288.72 
L 594.51643 228.24 
L 594.981818 107.28 
L 595.447206 167.76 
L 595.912594 147.6 
L 596.377982 87.12 
L 596.843369 228.24 
L 597.308757 187.92 
L 598.239533 268.56 
L 598.704921 187.92 
L 599.170309 288.72 
L 599.635696 288.72 
L 600.101084 228.24 
L 600.566472 187.92 
L 601.03186 329.04 
L 601.497248 127.44 
L 601.962636 288.72 
L 602.428023 187.92 
L 602.893411 329.04 
L 603.824187 147.6 
L 604.289575 268.56 
L 604.754962 187.92 
L 605.22035 147.6 
L 605.685738 228.24 
L 606.151126 329.04 
L 606.616514 288.72 
L 607.081902 187.92 
L 607.547289 268.56 
L 608.012677 187.92 
L 608.478065 268.56 
L 608.943453 288.72 
L 609.408841 228.24 
L 609.874229 288.72 
L 610.339616 268.56 
L 610.805004 288.72 
L 611.270392 87.12 
L 611.73578 288.72 
L 612.201168 228.24 
L 612.666555 329.04 
L 613.131943 228.24 
L 613.597331 187.92 
L 614.062719 187.92 
L 614.993495 268.56 
L 615.458882 147.6 
L 615.92427 288.72 
L 616.389658 167.76 
L 616.855046 147.6 
L 617.320434 208.08 
L 617.785822 288.72 
L 618.251209 228.24 
L 618.716597 288.72 
L 619.181985 329.04 
L 619.647373 228.24 
L 620.112761 288.72 
L 620.578148 268.56 
L 621.043536 228.24 
L 621.508924 288.72 
L 621.974312 288.72 
L 622.4397 268.56 
L 622.905088 87.12 
L 623.370475 268.56 
L 623.835863 248.4 
L 624.301251 288.72 
L 624.766639 187.92 
L 625.232027 268.56 
L 625.697415 268.56 
L 626.162802 228.24 
L 626.62819 167.76 
L 627.093578 187.92 
L 628.024354 187.92 
L 628.489741 268.56 
L 628.955129 288.72 
L 629.420517 107.28 
L 629.885905 268.56 
L 630.351293 268.56 
L 630.816681 187.92 
L 631.282068 268.56 
L 631.747456 288.72 
L 632.212844 288.72 
L 632.678232 147.6 
L 633.14362 167.76 
L 633.609008 329.04 
L 634.074395 187.92 
L 634.539783 208.08 
L 635.005171 288.72 
L 635.935947 87.12 
L 636.401334 228.24 
L 636.866722 288.72 
L 637.33211 268.56 
L 637.797498 228.24 
L 638.262886 329.04 
L 638.728274 288.72 
L 639.193661 349.2 
L 639.659049 187.92 
L 640.124437 228.24 
L 640.589825 187.92 
L 641.055213 288.72 
L 641.520601 66.96 
L 641.985988 228.24 
L 642.451376 288.72 
L 642.916764 268.56 
L 643.382152 187.92 
L 643.84754 147.6 
L 644.312927 167.76 
L 644.778315 268.56 
L 645.243703 87.12 
L 645.709091 268.56 
L 646.174479 228.24 
L 646.639867 329.04 
L 647.105254 349.2 
L 647.570642 187.92 
L 648.03603 228.24 
L 648.501418 329.04 
L 648.966806 248.4 
L 649.432193 329.04 
L 649.897581 288.72 
L 650.362969 228.24 
L 650.828357 268.56 
L 651.293745 288.72 
L 651.759133 187.92 
L 652.22452 288.72 
L 652.689908 288.72 
L 653.155296 228.24 
L 653.620684 288.72 
L 654.086072 288.72 
L 654.55146 369.36 
L 655.016847 147.6 
L 655.947623 147.6 
L 656.413011 268.56 
L 656.878399 228.24 
L 657.343786 288.72 
L 657.809174 288.72 
L 658.274562 329.04 
L 659.205338 288.72 
L 659.670726 288.72 
L 660.136113 268.56 
L 660.601501 228.24 
L 661.066889 268.56 
L 661.532277 187.92 
L 661.997665 288.72 
L 663.393828 288.72 
L 663.859216 187.92 
L 664.324604 147.6 
L 664.789992 87.12 
L 665.255379 87.12 
L 665.720767 228.24 
L 666.186155 268.56 
L 666.651543 187.92 
L 667.116931 329.04 
L 667.582319 187.92 
L 668.047706 268.56 
L 668.513094 288.72 
L 669.44387 288.72 
L 669.909258 228.24 
L 670.374646 308.88 
L 670.840033 288.72 
L 671.305421 187.92 
L 671.770809 288.72 
L 672.236197 187.92 
L 672.701585 228.24 
L 673.166972 187.92 
L 673.63236 308.88 
L 674.097748 329.04 
L 674.563136 329.04 
L 675.028524 187.92 
L 675.493912 147.6 
L 675.959299 87.12 
L 676.424687 288.72 
L 676.890075 147.6 
L 677.820851 147.6 
L 678.286239 87.12 
L 678.751626 288.72 
L 679.217014 288.72 
L 679.682402 308.88 
L 680.14779 228.24 
L 680.613178 228.24 
L 681.078565 187.92 
L 681.543953 248.4 
L 682.009341 187.92 
L 682.940117 187.92 
L 683.405505 107.28 
L 683.870892 147.6 
L 684.33628 147.6 
L 685.267056 228.24 
L 685.732444 288.72 
L 686.663219 288.72 
L 687.128607 329.04 
L 687.593995 288.72 
L 688.059383 288.72 
L 688.524771 87.12 
L 688.990158 288.72 
L 689.455546 329.04 
L 689.920934 228.24 
L 690.85171 349.2 
L 691.317098 228.24 
L 692.247873 147.6 
L 692.713261 228.24 
L 693.178649 187.92 
L 693.644037 187.92 
L 694.109425 329.04 
L 694.574812 288.72 
L 695.0402 147.6 
L 695.505588 187.92 
L 695.970976 187.92 
L 696.436364 288.72 
L 698.297915 288.72 
L 698.763303 308.88 
L 699.228691 187.92 
L 699.694078 228.24 
L 700.159466 228.24 
L 700.624854 147.6 
L 701.090242 288.72 
L 701.55563 228.24 
L 702.021018 228.24 
L 702.486405 288.72 
L 702.951793 187.92 
L 703.417181 187.92 
L 703.882569 288.72 
L 704.347957 268.56 
L 704.813344 288.72 
L 705.278732 288.72 
L 705.74412 147.6 
L 706.209508 167.76 
L 706.674896 288.72 
L 707.140284 228.24 
L 707.605671 228.24 
L 708.071059 147.6 
L 708.536447 288.72 
L 709.001835 329.04 
L 709.467223 228.24 
L 709.932611 248.4 
L 710.397998 187.92 
L 710.863386 288.72 
L 711.328774 66.96 
L 711.794162 228.24 
L 712.25955 288.72 
L 712.724937 228.24 
L 713.190325 288.72 
L 713.655713 187.92 
L 714.121101 329.04 
L 714.586489 147.6 
L 715.051877 268.56 
L 715.517264 187.92 
L 715.982652 147.6 
L 716.44804 329.04 
L 716.913428 147.6 
L 717.378816 329.04 
L 717.844204 107.28 
L 718.774979 187.92 
L 719.240367 147.6 
L 719.705755 147.6 
L 720.171143 208.08 
L 720.63653 187.92 
L 721.101918 288.72 
L 721.567306 228.24 
L 722.032694 87.12 
L 722.498082 329.04 
L 722.96347 268.56 
L 723.894245 107.28 
L 724.359633 228.24 
L 724.825021 288.72 
L 725.290409 147.6 
L 725.755796 187.92 
L 726.221184 147.6 
L 726.686572 288.72 
L 727.15196 268.56 
L 727.617348 288.72 
L 728.082736 288.72 
L 728.548123 248.4 
L 729.013511 187.92 
L 729.478899 187.92 
L 729.944287 268.56 
L 730.409675 147.6 
L 730.875063 228.24 
L 731.34045 329.04 
L 731.805838 87.12 
L 732.271226 308.88 
L 732.736614 248.4 
L 733.202002 228.24 
L 733.667389 268.56 
L 734.132777 288.72 
L 734.598165 228.24 
L 735.528941 228.24 
L 735.994329 147.6 
L 736.459716 208.08 
L 736.925104 288.72 
L 737.390492 288.72 
L 737.85588 147.6 
L 738.321268 329.04 
L 738.786656 187.92 
L 739.252043 87.12 
L 739.717431 288.72 
L 740.182819 87.12 
L 740.648207 187.92 
L 741.113595 228.24 
L 742.04437 228.24 
L 742.509758 288.72 
L 742.975146 87.12 
L 743.440534 167.76 
L 743.905922 288.72 
L 744.371309 147.6 
L 744.836697 187.92 
L 745.302085 288.72 
L 745.767473 147.6 
L 746.232861 147.6 
L 747.163636 228.24 
L 747.163636 228.24 
" clip-path="url(#pdfae7fa278)" style="fill: none; stroke: #1f77b4; stroke-width: 1.5; stroke-linecap: square"/>
   </g>
   <g id="line2d_17">
    <path d="M 138.436364 234.314507 
L 138.901751 215.565691 
L 139.367139 226.146338 
L 139.832527 209.458606 
L 140.297915 237.932902 
L 140.763303 246.758382 
L 141.228691 207.004167 
L 141.694078 251.190511 
L 142.159466 204.470574 
L 142.624854 219.644772 
L 143.090242 265.186497 
L 143.55563 241.517219 
L 144.021018 242.598234 
L 144.486405 245.925527 
L 144.951793 237.62865 
L 145.417181 293.193071 
L 145.882569 271.633403 
L 146.347957 229.817317 
L 146.813344 220.552012 
L 147.278732 292.781508 
L 147.74412 180.047596 
L 148.209508 266.743742 
L 148.674896 271.535254 
L 149.140284 266.827702 
L 149.605671 236.8394 
L 150.071059 242.724444 
L 150.536447 188.040624 
L 151.001835 278.523961 
L 151.467223 296.010652 
L 151.932611 305.248964 
L 152.397998 204.420009 
L 152.863386 175.403979 
L 153.328774 271.573466 
L 153.794162 210.808776 
L 154.25955 209.051628 
L 154.724937 215.878711 
L 155.190325 218.22483 
L 155.655713 280.193774 
L 156.121101 229.30697 
L 156.586489 245.15981 
L 157.051877 274.780519 
L 157.517264 244.237449 
L 157.982652 236.086199 
L 158.44804 204.935652 
L 158.913428 218.005518 
L 159.378816 265.214548 
L 159.844204 284.834449 
L 160.309591 292.010177 
L 160.774979 179.470909 
L 161.240367 221.256648 
L 161.705755 229.4779 
L 162.171143 220.353618 
L 162.63653 234.672535 
L 163.101918 298.58039 
L 164.032694 246.086238 
L 164.498082 302.522975 
L 164.96347 259.633122 
L 165.428857 198.21837 
L 165.894245 300.364753 
L 166.359633 231.382386 
L 166.825021 277.010927 
L 167.290409 241.778213 
L 167.755796 278.357396 
L 168.221184 287.120073 
L 168.686572 242.900093 
L 169.15196 178.079672 
L 169.617348 242.366819 
L 170.082736 217.209078 
L 170.548123 233.322067 
L 171.013511 226.049439 
L 171.478899 293.531392 
L 171.944287 250.374402 
L 172.409675 275.269727 
L 172.875063 243.79897 
L 173.34045 266.542224 
L 173.805838 231.006459 
L 174.271226 234.792025 
L 174.736614 225.410422 
L 175.202002 207.205348 
L 175.667389 265.279109 
L 176.132777 303.90309 
L 176.598165 256.1349 
L 177.063553 249.306529 
L 177.528941 228.616302 
L 177.994329 221.394845 
L 178.459716 263.677577 
L 178.925104 186.556275 
L 179.390492 184.963741 
L 179.85588 248.467733 
L 180.786656 179.887308 
L 181.252043 187.422929 
L 181.717431 134.613037 
L 182.182819 176.072547 
L 182.648207 236.513797 
L 183.113595 246.076385 
L 183.578982 220.471628 
L 184.04437 202.123608 
L 184.509758 259.867853 
L 184.975146 225.257075 
L 185.440534 214.224673 
L 186.371309 266.521152 
L 186.836697 252.759032 
L 187.302085 277.5452 
L 187.767473 264.2536 
L 188.232861 268.604739 
L 189.163636 209.763416 
L 189.629024 214.440947 
L 190.094412 151.707939 
L 190.5598 271.99046 
L 191.025188 237.428939 
L 191.490575 237.356072 
L 191.955963 285.801107 
L 192.421351 276.533716 
L 192.886739 198.933176 
L 193.352127 230.878634 
L 193.817515 218.292641 
L 194.282902 314.405449 
L 194.74829 273.575698 
L 195.213678 180.483777 
L 195.679066 237.507477 
L 196.144454 191.082055 
L 196.609842 232.731576 
L 197.075229 182.19759 
L 197.540617 311.976609 
L 198.006005 300.107681 
L 198.471393 295.383469 
L 198.936781 272.865641 
L 199.402168 215.322693 
L 199.867556 223.276116 
L 200.332944 286.878488 
L 200.798332 273.66187 
L 201.26372 233.518538 
L 201.729108 219.05382 
L 202.194495 234.613992 
L 202.659883 167.095412 
L 203.125271 172.256017 
L 203.590659 267.987515 
L 204.056047 231.990757 
L 204.521435 238.179265 
L 204.986822 196.425596 
L 205.45221 221.592373 
L 205.917598 200.585484 
L 206.382986 238.16721 
L 206.848374 262.104922 
L 207.313761 231.254716 
L 207.779149 244.214753 
L 208.244537 274.530696 
L 208.709925 237.571462 
L 209.175313 266.695715 
L 209.640701 178.110876 
L 210.106088 269.005084 
L 210.571476 264.916294 
L 211.036864 226.277114 
L 211.502252 280.397802 
L 211.96764 247.638282 
L 212.433028 277.729021 
L 212.898415 277.379875 
L 213.363803 189.903093 
L 213.829191 234.416953 
L 214.294579 307.60435 
L 214.759967 207.419796 
L 215.225354 277.594438 
L 215.690742 261.651495 
L 216.15613 280.157293 
L 216.621518 237.159918 
L 217.086906 205.630348 
L 217.552294 237.887779 
L 218.017681 213.85557 
L 218.483069 227.22171 
L 218.948457 212.557464 
L 219.413845 190.123827 
L 219.879233 193.964005 
L 220.344621 213.655446 
L 220.810008 217.345314 
L 221.275396 281.996873 
L 221.740784 196.895904 
L 222.206172 205.755433 
L 222.67156 186.673631 
L 223.136947 278.748252 
L 223.602335 199.826266 
L 224.067723 159.670687 
L 224.533111 243.482874 
L 224.998499 288.870905 
L 225.463887 180.005933 
L 225.929274 299.132794 
L 226.394662 223.270906 
L 226.86005 254.515785 
L 227.325438 218.807996 
L 227.790826 277.862103 
L 228.256214 277.93571 
L 228.721601 261.60317 
L 229.186989 201.633228 
L 229.652377 186.243121 
L 230.117765 185.189859 
L 230.583153 285.687221 
L 231.04854 252.623959 
L 231.513928 269.764667 
L 231.979316 223.357404 
L 232.444704 291.135381 
L 232.910092 179.007003 
L 233.37548 204.896335 
L 233.840867 294.699069 
L 234.306255 283.946666 
L 234.771643 297.311469 
L 235.237031 190.526421 
L 235.702419 218.509761 
L 236.167807 264.044132 
L 236.633194 253.523191 
L 237.098582 134.231534 
L 237.56397 226.357767 
L 238.029358 274.402525 
L 238.494746 175.155098 
L 238.960133 226.517959 
L 239.425521 246.384694 
L 239.890909 197.503352 
L 240.356297 229.02824 
L 240.821685 305.362186 
L 241.75246 222.883385 
L 242.217848 220.475358 
L 242.683236 216.745884 
L 243.148624 228.761267 
L 243.614012 234.188259 
L 244.079399 224.346182 
L 244.544787 264.228365 
L 245.010175 242.491001 
L 245.475563 199.616259 
L 245.940951 262.066365 
L 246.406339 242.546497 
L 246.871726 210.953048 
L 247.337114 251.218687 
L 247.802502 270.308881 
L 248.26789 239.075287 
L 249.198666 278.188774 
L 249.664053 242.260182 
L 250.129441 282.741191 
L 250.594829 242.035545 
L 251.060217 255.051424 
L 251.525605 217.450558 
L 251.990992 278.617179 
L 252.45638 218.315404 
L 252.921768 212.255903 
L 253.387156 187.63034 
L 253.852544 242.88875 
L 254.317932 218.888726 
L 254.783319 274.217513 
L 256.644871 183.966446 
L 257.110259 203.800218 
L 257.575646 271.992739 
L 258.041034 197.618189 
L 258.506422 234.124063 
L 258.97181 208.087229 
L 259.437198 275.784524 
L 259.902585 236.292082 
L 260.367973 248.255343 
L 260.833361 193.142032 
L 261.298749 238.549146 
L 261.764137 246.548981 
L 262.229525 249.215243 
L 262.694912 196.733732 
L 263.1603 262.264528 
L 263.625688 227.389016 
L 264.091076 266.143158 
L 264.556464 263.650247 
L 265.021852 209.125206 
L 265.487239 232.056568 
L 265.952627 245.679203 
L 266.418015 268.896764 
L 266.883403 223.843151 
L 267.348791 215.138488 
L 267.814178 245.972276 
L 268.279566 209.475832 
L 269.210342 184.839252 
L 269.67573 229.280823 
L 270.141118 221.984393 
L 270.606505 188.321806 
L 271.071893 222.568231 
L 271.537281 271.368987 
L 272.002669 228.411939 
L 272.468057 142.695505 
L 272.933445 286.44519 
L 273.398832 278.341582 
L 273.86422 287.516948 
L 274.329608 213.897233 
L 274.794996 238.892533 
L 275.260384 252.145893 
L 275.725771 202.929758 
L 276.191159 227.043965 
L 277.121935 260.272005 
L 277.587323 234.209436 
L 278.518098 137.038964 
L 278.983486 250.110842 
L 279.448874 245.664918 
L 279.914262 194.966356 
L 280.37965 270.788648 
L 280.845038 220.927651 
L 281.310425 299.814656 
L 281.775813 159.332808 
L 282.241201 219.807598 
L 283.171977 170.555683 
L 283.637364 125.511432 
L 284.56814 275.66662 
L 285.033528 213.37713 
L 285.498916 207.946187 
L 285.964304 215.020651 
L 286.429691 213.385627 
L 286.895079 249.162843 
L 287.360467 209.428786 
L 288.291243 230.080964 
L 288.756631 204.289522 
L 289.222018 251.810975 
L 289.687406 242.043495 
L 290.152794 198.816512 
L 290.618182 183.877045 
L 291.08357 210.471224 
L 291.548957 215.221621 
L 292.014345 201.43295 
L 292.479733 245.862485 
L 292.945121 279.186799 
L 293.410509 247.081226 
L 293.875897 250.753406 
L 294.341284 228.360365 
L 294.806672 223.679767 
L 295.27206 239.315132 
L 295.737448 284.986691 
L 296.668224 232.088599 
L 297.133611 266.45289 
L 297.598999 193.145186 
L 298.064387 247.009167 
L 298.529775 277.53428 
L 299.46055 200.040463 
L 299.925938 230.445452 
L 300.391326 268.240809 
L 300.856714 205.313406 
L 301.322102 256.16918 
L 301.78749 260.734055 
L 302.252877 237.038428 
L 302.718265 229.973769 
L 303.183653 274.604851 
L 303.649041 265.317503 
L 304.114429 253.642797 
L 304.579817 229.659115 
L 305.045204 171.194027 
L 305.510592 214.968087 
L 305.97598 199.789736 
L 306.441368 256.575609 
L 306.906756 230.127645 
L 307.372143 191.920235 
L 307.837531 230.398521 
L 308.302919 287.932154 
L 308.768307 215.529623 
L 309.233695 227.664929 
L 309.699083 244.326918 
L 310.16447 176.242467 
L 310.629858 222.289395 
L 311.095246 165.689679 
L 311.560634 169.13155 
L 312.026022 240.895217 
L 312.49141 257.69399 
L 312.956797 211.110375 
L 313.887573 291.634221 
L 314.352961 168.021378 
L 314.818349 264.648724 
L 315.283736 274.156326 
L 315.749124 303.241665 
L 316.214512 244.126149 
L 316.6799 285.25797 
L 317.145288 296.334564 
L 317.610676 249.350527 
L 318.076063 230.445087 
L 318.541451 226.527668 
L 319.006839 273.764373 
L 319.472227 278.562663 
L 319.937615 246.263868 
L 320.403003 229.766819 
L 320.86839 271.580839 
L 321.333778 240.212874 
L 322.264554 215.832203 
L 322.729942 281.677335 
L 323.195329 267.583431 
L 323.660717 215.468773 
L 324.126105 243.100659 
L 324.591493 298.037302 
L 325.056881 267.052137 
L 325.522269 204.923944 
L 325.987656 226.819751 
L 326.453044 164.444867 
L 326.918432 221.212947 
L 327.38382 222.060336 
L 327.849208 264.797996 
L 328.314595 138.74199 
L 328.779983 265.452086 
L 329.245371 152.610392 
L 329.710759 212.204724 
L 330.176147 227.136404 
L 330.641535 232.307564 
L 331.106922 216.498348 
L 331.57231 240.24777 
L 332.037698 196.844821 
L 332.503086 188.447967 
L 332.968474 198.107435 
L 333.433862 216.855049 
L 333.899249 221.030261 
L 334.364637 223.394799 
L 334.830025 248.628733 
L 335.295413 211.657992 
L 335.760801 197.290289 
L 336.226188 250.239955 
L 337.156964 188.261878 
L 337.622352 197.092529 
L 338.553128 296.295054 
L 339.018515 284.917996 
L 339.483903 241.789451 
L 339.949291 241.315759 
L 340.414679 217.574854 
L 340.880067 220.197637 
L 341.345455 201.570974 
L 341.810842 300.01876 
L 342.27623 241.585337 
L 342.741618 280.459248 
L 343.672394 184.127964 
L 344.137781 284.160325 
L 344.603169 214.606791 
L 345.068557 264.989862 
L 345.999333 190.624224 
L 346.464721 231.991469 
L 346.930108 191.738587 
L 347.395496 195.20499 
L 347.860884 186.835822 
L 348.326272 284.558228 
L 349.257048 207.836463 
L 349.722435 267.7469 
L 350.653211 198.167132 
L 351.118599 210.061189 
L 351.583987 286.292266 
L 352.049374 291.677124 
L 352.514762 260.194899 
L 352.98015 286.531765 
L 353.445538 220.725258 
L 353.910926 214.534808 
L 354.376314 277.886261 
L 354.841701 257.406176 
L 355.307089 246.282277 
L 355.772477 230.95649 
L 356.237865 219.688857 
L 356.703253 274.924119 
L 357.168641 222.384603 
L 357.634028 268.021353 
L 358.099416 231.078663 
L 358.564804 222.440666 
L 359.030192 207.064536 
L 359.49558 201.921427 
L 359.960967 239.844137 
L 360.426355 212.416422 
L 360.891743 286.002462 
L 361.357131 239.587883 
L 361.822519 170.947241 
L 362.287907 248.770698 
L 362.753294 283.410758 
L 363.218682 289.85554 
L 363.68407 271.917661 
L 364.614846 212.012713 
L 365.080234 228.627444 
L 365.545621 253.573294 
L 366.011009 193.15403 
L 366.476397 207.89343 
L 366.941785 191.552574 
L 367.407173 293.992289 
L 367.87256 275.164685 
L 368.337948 235.226659 
L 368.803336 262.599138 
L 369.268724 280.272111 
L 369.734112 187.532825 
L 370.1995 213.898195 
L 370.664887 203.139918 
L 371.130275 205.555847 
L 371.595663 264.057484 
L 372.061051 200.535862 
L 372.526439 191.774386 
L 372.991827 261.918526 
L 373.457214 267.031402 
L 373.922602 147.42437 
L 374.38799 190.095315 
L 375.318766 229.079468 
L 375.784153 239.855058 
L 376.249541 199.484868 
L 376.714929 289.860337 
L 377.180317 256.632941 
L 377.645705 282.033441 
L 378.111093 221.099667 
L 378.57648 301.114377 
L 379.041868 193.857262 
L 379.507256 248.725238 
L 379.972644 271.1446 
L 380.438032 233.249171 
L 380.90342 287.820152 
L 381.368807 214.971644 
L 381.834195 184.983256 
L 382.299583 222.770067 
L 382.764971 235.609835 
L 383.230359 200.264832 
L 383.695746 245.589302 
L 384.161134 180.223072 
L 384.626522 285.104248 
L 385.09191 252.53573 
L 385.557298 235.996019 
L 386.022686 223.532323 
L 386.488073 264.748239 
L 386.953461 205.124414 
L 387.418849 317.576621 
L 387.884237 195.239251 
L 388.349625 255.585034 
L 388.815013 147.403163 
L 389.2804 280.785111 
L 389.745788 218.835758 
L 390.211176 220.755039 
L 390.676564 166.054993 
L 391.141952 199.389449 
L 391.607339 170.495409 
L 392.072727 248.14114 
L 392.538115 249.865238 
L 393.003503 233.12175 
L 393.468891 294.5572 
L 393.934279 221.53235 
L 394.399666 182.600914 
L 394.865054 240.256277 
L 395.330442 204.335991 
L 395.79583 276.563603 
L 396.261218 249.014215 
L 396.726606 250.170673 
L 397.191993 293.250942 
L 397.657381 229.871236 
L 398.122769 218.90451 
L 398.588157 204.614154 
L 399.053545 249.553103 
L 399.518932 181.614174 
L 399.98432 242.274352 
L 400.449708 231.074923 
L 401.380484 172.835338 
L 401.845872 237.836234 
L 402.311259 176.626604 
L 402.776647 276.050363 
L 403.242035 280.248165 
L 403.707423 161.381961 
L 404.172811 272.553467 
L 404.638198 190.65912 
L 405.103586 203.975002 
L 405.568974 244.364178 
L 406.034362 207.797742 
L 406.49975 293.341814 
L 407.430525 230.244357 
L 407.895913 204.827698 
L 408.361301 237.614547 
L 408.826689 200.681653 
L 409.292077 241.568293 
L 409.757465 225.874981 
L 410.222852 173.300628 
L 410.68824 256.916161 
L 411.153628 286.41116 
L 411.619016 220.113946 
L 412.084404 121.218923 
L 412.549791 166.441303 
L 413.015179 234.592362 
L 413.480567 223.91223 
L 413.945955 263.760749 
L 414.411343 260.545505 
L 414.876731 207.563184 
L 415.342118 235.669686 
L 415.807506 223.681113 
L 416.272894 163.883351 
L 416.738282 233.356078 
L 417.20367 231.947777 
L 417.669058 191.893222 
L 418.134445 300.731432 
L 418.599833 239.684426 
L 419.065221 288.589378 
L 419.530609 250.542659 
L 419.995997 245.760577 
L 420.461384 227.97022 
L 420.926772 166.301414 
L 421.39216 218.899839 
L 421.857548 201.742874 
L 422.322936 267.389459 
L 422.788324 300.818228 
L 423.253711 138.53008 
L 423.719099 183.782645 
L 424.184487 257.476553 
L 424.649875 175.14214 
L 425.115263 225.162521 
L 426.046038 259.964157 
L 426.511426 194.575394 
L 427.442202 247.652038 
L 427.90759 279.010458 
L 428.372977 233.602085 
L 428.838365 286.832788 
L 429.303753 235.264871 
L 429.769141 205.701196 
L 430.234529 278.421005 
L 430.699917 266.564035 
L 431.165304 201.262569 
L 431.630692 249.28041 
L 432.09608 281.975099 
L 432.561468 279.905268 
L 433.026856 171.976278 
L 433.492244 274.763514 
L 433.957631 232.070267 
L 434.423019 152.855755 
L 434.888407 264.026809 
L 435.353795 197.198523 
L 435.819183 214.446253 
L 436.28457 191.753775 
L 436.749958 135.008113 
L 437.215346 285.043773 
L 437.680734 216.416849 
L 438.61151 268.393618 
L 439.076897 206.993784 
L 439.542285 248.845045 
L 440.007673 267.223317 
L 440.473061 198.376966 
L 440.938449 248.858955 
L 441.403837 278.123722 
L 441.869224 236.071386 
L 442.334612 227.431428 
L 442.8 237.905976 
L 443.265388 200.002684 
L 444.196163 257.526069 
L 445.126939 214.007303 
L 445.592327 287.7653 
L 446.057715 277.99361 
L 446.523103 254.453849 
L 446.98849 272.592861 
L 447.919266 283.541601 
L 448.384654 250.314773 
L 448.850042 276.178495 
L 449.31543 214.166879 
L 449.780817 232.110872 
L 450.246205 153.854973 
L 450.711593 250.384054 
L 451.176981 254.881581 
L 451.642369 197.047867 
L 452.107756 214.067903 
L 452.573144 209.531011 
L 453.038532 234.942613 
L 453.50392 207.260392 
L 453.969308 227.21823 
L 454.434696 213.982347 
L 454.900083 303.906416 
L 455.365471 183.015121 
L 455.830859 228.147984 
L 456.296247 232.172078 
L 456.761635 195.903281 
L 457.227023 278.11682 
L 457.69241 245.324578 
L 458.157798 193.278038 
L 458.623186 218.86727 
L 459.088574 234.76383 
L 459.553962 269.1684 
L 460.019349 272.344412 
L 460.950125 199.277592 
L 461.415513 179.102692 
L 461.880901 229.800763 
L 462.811676 257.73648 
L 463.277064 176.51292 
L 463.742452 229.875802 
L 464.20784 310.131069 
L 464.673228 166.230623 
L 465.138616 195.5883 
L 465.604003 260.908417 
L 466.069391 240.661399 
L 466.534779 232.162398 
L 467.000167 284.0904 
L 467.465555 259.30154 
L 467.930942 223.543128 
L 468.39633 243.505618 
L 468.861718 208.649399 
L 469.327106 211.073711 
L 469.792494 217.187122 
L 470.257882 191.309865 
L 470.723269 188.493091 
L 471.188657 149.272726 
L 471.654045 243.926333 
L 472.119433 222.752802 
L 472.584821 220.368807 
L 473.050209 187.388034 
L 473.515596 228.392165 
L 473.980984 233.761786 
L 474.446372 263.917605 
L 474.91176 278.514684 
L 475.377148 231.751662 
L 475.842535 222.780141 
L 476.307923 218.169767 
L 476.773311 268.030033 
L 477.238699 240.063545 
L 477.704087 281.464128 
L 478.169475 283.804883 
L 478.634862 237.313678 
L 479.10025 263.702148 
L 479.565638 230.117224 
L 480.031026 254.44138 
L 480.496414 198.147406 
L 480.961802 200.582485 
L 481.427189 246.795276 
L 481.892577 221.58526 
L 482.357965 257.0948 
L 482.823353 272.562561 
L 483.288741 218.16471 
L 483.754128 227.590216 
L 484.219516 263.601624 
L 484.684904 203.627472 
L 485.150292 171.522581 
L 485.61568 191.189586 
L 486.081068 258.757721 
L 486.546455 261.455668 
L 487.011843 247.414856 
L 487.477231 190.712587 
L 487.942619 180.558528 
L 488.408007 174.041639 
L 488.873394 243.831231 
L 489.338782 262.887385 
L 489.80417 228.50506 
L 490.269558 180.254449 
L 490.734946 216.594517 
L 491.200334 270.654613 
L 491.665721 288.804191 
L 492.596497 197.675214 
L 493.061885 133.619991 
L 493.527273 218.448372 
L 493.992661 242.88501 
L 494.458048 290.174126 
L 494.923436 235.079157 
L 495.388824 287.957321 
L 495.854212 181.114027 
L 496.3196 251.521401 
L 496.784987 220.328259 
L 497.250375 243.307349 
L 497.715763 236.635344 
L 498.181151 213.288401 
L 499.111927 300.759166 
L 499.577314 286.776388 
L 500.042702 184.079861 
L 500.50809 265.336297 
L 500.973478 276.167527 
L 501.438866 202.324329 
L 501.904254 225.581015 
L 502.835029 281.838988 
L 503.300417 158.314999 
L 503.765805 221.256898 
L 504.231193 184.613038 
L 504.69658 239.591074 
L 505.161968 188.676431 
L 505.627356 278.50411 
L 506.092744 149.728153 
L 506.558132 176.305798 
L 507.02352 245.647461 
L 507.488907 204.362581 
L 507.954295 242.26869 
L 508.419683 212.700333 
L 508.885071 211.291447 
L 509.350459 228.045874 
L 509.815847 224.78717 
L 510.281234 289.150462 
L 510.746622 238.652726 
L 511.21201 276.67821 
L 512.142786 210.018392 
L 512.608173 284.237268 
L 513.073561 277.448743 
L 513.538949 210.775995 
L 514.004337 199.691241 
L 514.469725 225.486826 
L 514.935113 290.982919 
L 515.4005 205.856754 
L 515.865888 198.55175 
L 516.331276 235.517665 
L 516.796664 180.823925 
L 517.262052 276.151646 
L 517.72744 140.938607 
L 518.192827 232.569895 
L 518.658215 191.007477 
L 519.123603 247.609856 
L 519.588991 248.143649 
L 520.054379 259.156777 
L 520.519766 181.268144 
L 520.985154 240.452095 
L 521.450542 224.088418 
L 521.91593 278.875789 
L 522.381318 200.804334 
L 523.312093 260.578315 
L 523.777481 214.259606 
L 524.242869 228.312761 
L 524.708257 290.632302 
L 525.639033 260.762731 
L 526.10442 297.055436 
L 526.569808 233.15181 
L 527.035196 260.522097 
L 527.500584 164.711841 
L 527.965972 225.268553 
L 528.431359 197.336201 
L 528.896747 220.722951 
L 529.362135 202.725481 
L 529.827523 211.195239 
L 530.292911 233.991413 
L 530.758299 159.122013 
L 531.223686 260.540901 
L 531.689074 191.327399 
L 532.154462 194.442715 
L 532.61985 245.161906 
L 533.085238 218.699618 
L 533.550626 304.343771 
L 534.016013 185.22883 
L 534.481401 225.552406 
L 534.946789 218.376236 
L 535.412177 307.6533 
L 535.877565 223.016526 
L 536.342952 258.732285 
L 536.80834 261.004076 
L 537.273728 201.412359 
L 537.739116 241.850417 
L 538.204504 262.653885 
L 538.669892 170.798566 
L 539.135279 267.885876 
L 539.600667 200.248336 
L 540.066055 203.661137 
L 540.531443 238.413612 
L 540.996831 245.74485 
L 541.462219 237.567395 
L 541.927606 208.682218 
L 542.392994 276.911922 
L 542.858382 227.517907 
L 543.32377 210.387437 
L 543.789158 240.945599 
L 544.719933 135.850139 
L 545.185321 282.178511 
L 545.650709 284.129083 
L 546.116097 156.778893 
L 546.581485 218.683757 
L 547.046872 225.845123 
L 547.51226 212.706428 
L 547.977648 172.188169 
L 548.443036 217.69396 
L 548.908424 208.183705 
L 549.373812 225.401751 
L 549.839199 211.200276 
L 550.304587 222.666457 
L 550.769975 261.017736 
L 551.235363 244.13159 
L 551.700751 232.033622 
L 552.166138 213.118308 
L 552.631526 252.234439 
L 553.096914 192.678549 
L 553.562302 254.360496 
L 554.02769 276.802468 
L 554.493078 195.465715 
L 554.958465 207.198523 
L 555.423853 211.101685 
L 555.889241 157.329682 
L 556.820017 296.36894 
L 557.750792 180.487142 
L 558.21618 279.361756 
L 558.681568 231.081681 
L 559.146956 218.058967 
L 559.612344 291.423311 
L 560.077731 231.305924 
L 560.543119 258.076916 
L 561.008507 253.485643 
L 561.473895 204.049542 
L 561.939283 267.638869 
L 562.870058 191.523582 
L 563.335446 213.562988 
L 563.800834 209.393506 
L 564.266222 267.508276 
L 564.73161 273.506504 
L 565.196997 248.524249 
L 565.662385 235.394186 
L 566.127773 159.056837 
L 566.593161 233.530006 
L 567.058549 266.271905 
L 567.523937 213.475106 
L 567.989324 190.30884 
L 568.454712 225.936928 
L 568.9201 175.851928 
L 569.385488 200.107793 
L 569.850876 200.891236 
L 570.316264 201.1803 
L 570.781651 280.305853 
L 571.247039 253.341015 
L 571.712427 208.08348 
L 572.177815 265.634993 
L 572.643203 214.392785 
L 573.10859 138.337531 
L 573.573978 326.486816 
L 574.039366 247.681512 
L 574.504754 247.666862 
L 574.970142 255.604731 
L 575.43553 289.523227 
L 575.900917 217.431582 
L 576.366305 238.622311 
L 576.831693 190.29938 
L 577.297081 192.787427 
L 577.762469 220.342371 
L 578.227857 268.705762 
L 578.693244 236.809148 
L 579.158632 253.602614 
L 579.62402 185.132642 
L 580.089408 215.146986 
L 580.554796 255.953925 
L 581.020183 184.327262 
L 581.485571 200.977657 
L 581.950959 226.324929 
L 582.416347 209.880906 
L 582.881735 171.814087 
L 583.347123 204.536981 
L 583.81251 198.832604 
L 584.277898 249.898048 
L 584.743286 279.842706 
L 585.208674 207.330049 
L 585.674062 207.575642 
L 586.13945 271.284133 
L 586.604837 219.187961 
L 587.070225 278.682691 
L 587.535613 230.263977 
L 588.001001 292.562812 
L 588.466389 187.441982 
L 588.931776 257.877407 
L 589.397164 245.389822 
L 589.862552 247.780507 
L 590.32794 212.641463 
L 590.793328 228.660801 
L 591.724103 245.891891 
L 592.189491 247.737162 
L 592.654879 182.553657 
L 593.120267 283.000945 
L 593.585655 235.058681 
L 594.051043 251.708884 
L 594.51643 245.100075 
L 594.981818 183.313952 
L 595.447206 210.409085 
L 595.912594 201.087534 
L 596.377982 187.062036 
L 596.843369 142.826243 
L 597.308757 203.357615 
L 597.774145 164.074208 
L 598.239533 241.198403 
L 598.704921 204.602753 
L 599.170309 191.835544 
L 599.635696 285.369645 
L 600.101084 197.946378 
L 600.566472 200.73787 
L 601.03186 264.91391 
L 601.497248 232.607895 
L 601.962636 253.777398 
L 602.428023 235.761817 
L 602.893411 300.924135 
L 603.358799 286.995873 
L 603.824187 201.561592 
L 604.289575 243.255333 
L 604.754962 232.431544 
L 605.22035 164.449232 
L 606.151126 283.562606 
L 606.616514 265.794973 
L 607.081902 183.098831 
L 607.547289 257.186354 
L 608.012677 203.688303 
L 608.478065 259.60435 
L 608.943453 253.018661 
L 609.408841 195.815418 
L 609.874229 261.185359 
L 610.339616 244.358881 
L 610.805004 290.427679 
L 611.270392 171.011148 
L 611.73578 279.88187 
L 612.201168 195.529776 
L 612.666555 288.613613 
L 613.131943 235.215364 
L 613.597331 247.959521 
L 614.062719 225.195916 
L 614.528107 254.695078 
L 615.458882 172.012711 
L 615.92427 288.445106 
L 616.389658 227.236918 
L 616.855046 196.532281 
L 617.320434 209.224221 
L 617.785822 190.808333 
L 618.251209 212.108593 
L 618.716597 279.881812 
L 619.181985 290.242907 
L 619.647373 215.483923 
L 620.112761 237.607309 
L 620.578148 277.52682 
L 621.043536 238.152099 
L 621.508924 253.318347 
L 621.974312 239.959821 
L 622.4397 296.441586 
L 622.905088 208.347723 
L 623.370475 205.364759 
L 623.835863 211.264492 
L 624.301251 297.162679 
L 624.766639 265.102075 
L 625.232027 179.409251 
L 625.697415 213.422445 
L 626.162802 236.624164 
L 626.62819 149.203493 
L 627.093578 189.545968 
L 628.024354 208.444738 
L 628.489741 245.577747 
L 628.955129 251.392904 
L 629.420517 244.136089 
L 629.885905 197.396186 
L 630.351293 223.830538 
L 630.816681 156.579403 
L 631.282068 243.762661 
L 631.747456 228.015247 
L 632.212844 297.632074 
L 632.678232 120.505828 
L 633.14362 238.446815 
L 633.609008 249.971789 
L 634.539783 179.621488 
L 635.005171 245.011952 
L 635.470559 269.525457 
L 635.935947 150.911345 
L 636.401334 227.728529 
L 636.866722 278.656284 
L 637.33211 217.74239 
L 637.797498 206.402967 
L 638.262886 273.058988 
L 638.728274 176.98717 
L 639.193661 268.913241 
L 639.659049 215.367701 
L 640.124437 236.752133 
L 640.589825 217.064498 
L 641.055213 248.243942 
L 641.520601 161.196833 
L 641.985988 203.560565 
L 642.451376 213.264984 
L 642.916764 251.650543 
L 643.382152 243.194819 
L 643.84754 183.311779 
L 644.312927 191.923792 
L 644.778315 243.929745 
L 645.243703 162.484557 
L 645.709091 238.134891 
L 646.174479 199.498019 
L 646.639867 261.418158 
L 647.105254 254.38425 
L 647.570642 251.498234 
L 648.03603 254.913852 
L 648.501418 267.794543 
L 648.966806 219.946794 
L 649.432193 259.502548 
L 649.897581 227.86886 
L 650.362969 214.604503 
L 650.828357 144.304113 
L 651.293745 223.960583 
L 651.759133 162.16129 
L 652.689908 292.600504 
L 653.155296 213.216092 
L 653.620684 241.318085 
L 654.55146 266.728274 
L 655.016847 251.164296 
L 655.482235 165.988952 
L 655.947623 145.522546 
L 656.413011 199.328387 
L 656.878399 235.153965 
L 657.343786 251.683698 
L 657.809174 226.041518 
L 658.274562 302.907766 
L 658.73995 196.054879 
L 659.205338 279.554584 
L 659.670726 294.720496 
L 660.136113 216.819616 
L 660.601501 220.456631 
L 661.066889 271.167238 
L 661.532277 190.744906 
L 661.997665 254.539424 
L 662.463053 267.895787 
L 662.92844 252.832898 
L 663.393828 272.770241 
L 663.859216 193.415869 
L 664.324604 183.360402 
L 664.789992 240.07487 
L 665.255379 207.512523 
L 665.720767 232.706957 
L 666.186155 267.001169 
L 666.651543 284.441314 
L 667.116931 291.786174 
L 667.582319 208.263936 
L 668.513094 248.497832 
L 668.978482 230.067044 
L 669.909258 261.749355 
L 670.374646 205.334286 
L 670.840033 250.300219 
L 671.305421 200.124193 
L 671.770809 274.890704 
L 672.236197 266.588039 
L 672.701585 186.023425 
L 673.166972 222.137644 
L 673.63236 153.742404 
L 674.097748 277.107999 
L 674.563136 222.589284 
L 675.028524 199.224393 
L 675.493912 212.124647 
L 675.959299 228.159347 
L 676.424687 273.641615 
L 676.890075 240.143708 
L 677.355463 164.6259 
L 677.820851 239.741874 
L 678.286239 173.309356 
L 679.217014 271.396942 
L 679.682402 286.818503 
L 680.14779 205.765681 
L 680.613178 195.046337 
L 681.078565 220.743619 
L 682.009341 202.253365 
L 682.474729 189.663113 
L 682.940117 242.451876 
L 683.405505 203.65287 
L 683.870892 196.595055 
L 684.33628 248.482489 
L 684.801668 166.449089 
L 685.267056 231.627538 
L 685.732444 245.994126 
L 686.197832 269.94869 
L 686.663219 286.328613 
L 687.128607 296.210007 
L 687.593995 233.369709 
L 688.059383 258.81562 
L 688.524771 226.945258 
L 688.990158 262.92204 
L 689.455546 287.41206 
L 689.920934 193.649812 
L 690.386322 272.871178 
L 690.85171 292.548373 
L 691.317098 268.694438 
L 691.782485 211.008804 
L 692.247873 219.60384 
L 692.713261 218.537292 
L 693.178649 191.923138 
L 693.644037 174.463671 
L 694.109425 242.22 
L 694.574812 262.253377 
L 695.0402 180.501465 
L 695.505588 231.887744 
L 695.970976 218.935887 
L 696.436364 270.425102 
L 696.901751 255.696776 
L 697.367139 255.472571 
L 697.832527 254.385 
L 698.297915 255.305429 
L 698.763303 285.447078 
L 699.228691 214.199467 
L 699.694078 261.45486 
L 700.159466 290.094155 
L 700.624854 223.685497 
L 701.090242 220.10191 
L 701.55563 258.94853 
L 702.021018 246.749201 
L 702.486405 261.045921 
L 702.951793 281.642469 
L 703.417181 217.3715 
L 703.882569 197.01203 
L 704.347957 211.851348 
L 704.813344 248.076281 
L 705.278732 299.752008 
L 706.209508 164.03243 
L 706.674896 224.244553 
L 707.140284 252.965654 
L 707.605671 223.436865 
L 708.071059 230.340391 
L 708.536447 179.995185 
L 709.001835 287.451819 
L 709.467223 187.688422 
L 709.932611 265.087646 
L 710.397998 204.784593 
L 710.863386 236.236451 
L 711.328774 199.527339 
L 712.25955 257.866534 
L 712.724937 190.702378 
L 713.190325 245.141978 
L 713.655713 231.691263 
L 714.121101 265.38168 
L 714.586489 226.375994 
L 715.051877 236.708932 
L 715.517264 216.734848 
L 715.982652 205.515799 
L 716.44804 282.840522 
L 716.913428 215.393003 
L 717.378816 279.032798 
L 717.844204 247.145278 
L 718.309591 181.147173 
L 718.774979 231.177638 
L 719.240367 159.26717 
L 719.705755 200.058901 
L 720.171143 255.962711 
L 720.63653 250.719164 
L 721.101918 253.537284 
L 721.567306 174.621228 
L 722.032694 163.213206 
L 722.498082 229.788353 
L 722.96347 109.7856 
L 723.894245 252.80726 
L 724.359633 238.512905 
L 724.825021 294.962908 
L 725.290409 162.344803 
L 725.755796 212.679069 
L 726.221184 190.750367 
L 726.686572 298.76819 
L 727.15196 245.264737 
L 727.617348 292.782566 
L 728.082736 290.162686 
L 728.548123 253.341985 
L 729.013511 248.236511 
L 729.478899 204.208157 
L 729.944287 210.261717 
L 730.409675 192.6286 
L 730.875063 213.33737 
L 731.34045 286.186301 
L 731.805838 178.721746 
L 732.271226 204.186009 
L 732.736614 193.223455 
L 733.202002 242.219077 
L 733.667389 266.918122 
L 734.132777 273.324846 
L 734.598165 219.517457 
L 735.063553 247.953945 
L 735.528941 267.501874 
L 735.994329 177.9503 
L 736.459716 204.379077 
L 736.925104 258.022987 
L 737.390492 290.40928 
L 737.85588 234.472584 
L 738.321268 272.733923 
L 738.786656 148.179359 
L 739.252043 143.259791 
L 739.717431 286.777792 
L 740.182819 145.562036 
L 741.113595 233.03332 
L 741.578982 236.861327 
L 742.04437 253.301274 
L 742.509758 260.025921 
L 742.975146 144.648644 
L 743.440534 200.700667 
L 743.905922 213.641315 
L 744.371309 198.68168 
L 744.836697 260.062104 
L 745.302085 201.657664 
L 745.767473 259.606456 
L 746.232861 245.592215 
L 746.698249 194.957762 
L 747.163636 234.85475 
L 747.163636 234.85475 
" clip-path="url(#pdfae7fa278)" style="fill: none; stroke: #ff7f0e; stroke-width: 1.5; stroke-linecap: square"/>
   </g>
   <g id="patch_3">
    <path d="M 108 384.48 
L 108 51.84 
" style="fill: none; stroke: #000000; stroke-width: 0.8; stroke-linejoin: miter; stroke-linecap: square"/>
   </g>
   <g id="patch_4">
    <path d="M 777.6 384.48 
L 777.6 51.84 
" style="fill: none; stroke: #000000; stroke-width: 0.8; stroke-linejoin: miter; stroke-linecap: square"/>
   </g>
   <g id="patch_5">
    <path d="M 108 384.48 
L 777.6 384.48 
" style="fill: none; stroke: #000000; stroke-width: 0.8; stroke-linejoin: miter; stroke-linecap: square"/>
   </g>
   <g id="patch_6">
    <path d="M 108 51.84 
L 777.6 51.84 
" style="fill: none; stroke: #000000; stroke-width: 0.8; stroke-linejoin: miter; stroke-linecap: square"/>
   </g>
   <g id="text_16">
    <!-- Regresso: Real vs Previsto -->
    <g transform="translate(360.520313 45.84) scale(0.12 -0.12)">
     <defs>
      <path id="DejaVuSans-52" d="M 2841 2188 
Q 3044 2119 3236 1894 
Q 3428 1669 3622 1275 
L 4263 0 
L 3584 0 
L 2988 1197 
Q 2756 1666 2539 1819 
Q 2322 1972 1947 1972 
L 1259 1972 
L 1259 0 
L 628 0 
L 628 4666 
L 2053 4666 
Q 2853 4666 3247 4331 
Q 3641 3997 3641 3322 
Q 3641 2881 3436 2590 
Q 3231 2300 2841 2188 
z
M 1259 4147 
L 1259 2491 
L 2053 2491 
Q 2509 2491 2742 2702 
Q 2975 2913 2975 3322 
Q 2975 3731 2742 3939 
Q 2509 4147 2053 4147 
L 1259 4147 
z
" transform="scale(0.015625)"/>
      <path id="DejaVuSans-65" d="M 3597 1894 
L 3597 1613 
L 953 1613 
Q 991 1019 1311 708 
Q 1631 397 2203 397 
Q 2534 397 2845 478 
Q 3156 559 3463 722 
L 3463 178 
Q 3153 47 2828 -22 
Q 2503 -91 2169 -91 
Q 1331 -91 842 396 
Q 353 884 353 1716 
Q 353 2575 817 3079 
Q 1281 3584 2069 3584 
Q 2775 3584 3186 3129 
Q 3597 2675 3597 1894 
z
M 3022 2063 
Q 3016 2534 2758 2815 
Q 2500 3097 2075 3097 
Q 1594 3097 1305 2825 
Q 1016 2553 972 2059 
L 3022 2063 
z
" transform="scale(0.015625)"/>
      <path id="DejaVuSans-67" d="M 2906 1791 
Q 2906 2416 2648 2759 
Q 2391 3103 1925 3103 
Q 1463 3103 1205 2759 
Q 947 2416 947 1791 
Q 947 1169 1205 825 
Q 1463 481 1925 481 
Q 2391 481 2648 825 
Q 2906 1169 2906 1791 
z
M 3481 434 
Q 3481 -459 3084 -895 
Q 2688 -1331 1869 -1331 
Q 1566 -1331 1297 -1286 
Q 1028 -1241 775 -1147 
L 775 -588 
Q 1028 -725 1275 -790 
Q 1522 -856 1778 -856 
Q 2344 -856 2625 -561 
Q 2906 -266 2906 331 
L 2906 616 
Q 2728 306 2450 153 
Q 2172 0 1784 0 
Q 1141 0 747 490 
Q 353 981 353 1791 
Q 353 2603 747 3093 
Q 1141 3584 1784 3584 
Q 2172 3584 2450 3431 
Q 2728 3278 2906 2969 
L 2906 3500 
L 3481 3500 
L 3481 434 
z
" transform="scale(0.015625)"/>
      <path id="DejaVuSans-72" d="M 2631 2963 
Q 2534 3019 2420 3045 
Q 2306 3072 2169 3072 
Q 1681 3072 1420 2755 
Q 1159 2438 1159 1844 
L 1159 0 
L 581 0 
L 581 3500 
L 1159 3500 
L 1159 2956 
Q 1341 3275 1631 3429 
Q 1922 3584 2338 3584 
Q 2397 3584 2469 3576 
Q 2541 3569 2628 3553 
L 2631 2963 
z
" transform="scale(0.015625)"/>
      <path id="DejaVuSans-73" d="M 2834 3397 
L 2834 2853 
Q 2591 2978 2328 3040 
Q 2066 3103 1784 3103 
Q 1356 3103 1142 2972 
Q 928 2841 928 2578 
Q 928 2378 1081 2264 
Q 1234 2150 1697 2047 
L 1894 2003 
Q 2506 1872 2764 1633 
Q 3022 1394 3022 966 
Q 3022 478 2636 193 
Q 2250 -91 1575 -91 
Q 1294 -91 989 -36 
Q 684 19 347 128 
L 347 722 
Q 666 556 975 473 
Q 1284 391 1588 391 
Q 1994 391 2212 530 
Q 2431 669 2431 922 
Q 2431 1156 2273 1281 
Q 2116 1406 1581 1522 
L 1381 1569 
Q 847 1681 609 1914 
Q 372 2147 372 2553 
Q 372 3047 722 3315 
Q 1072 3584 1716 3584 
Q 2034 3584 2315 3537 
Q 2597 3491 2834 3397 
z
" transform="scale(0.015625)"/>
      <path id="DejaVuSans-e3" d="M 2194 1759 
Q 1497 1759 1228 1600 
Q 959 1441 959 1056 
Q 959 750 1161 570 
Q 1363 391 1709 391 
Q 2188 391 2477 730 
Q 2766 1069 2766 1631 
L 2766 1759 
L 2194 1759 
z
M 3341 1997 
L 3341 0 
L 2766 0 
L 2766 531 
Q 2569 213 2275 61 
Q 1981 -91 1556 -91 
Q 1019 -91 701 211 
Q 384 513 384 1019 
Q 384 1609 779 1909 
Q 1175 2209 1959 2209 
L 2766 2209 
L 2766 2266 
Q 2766 2663 2505 2880 
Q 2244 3097 1772 3097 
Q 1472 3097 1187 3025 
Q 903 2953 641 2809 
L 641 3341 
Q 956 3463 1253 3523 
Q 1550 3584 1831 3584 
Q 2591 3584 2966 3190 
Q 3341 2797 3341 1997 
z
M 1844 4281 
L 1665 4453 
Q 1597 4516 1545 4545 
Q 1494 4575 1453 4575 
Q 1334 4575 1278 4461 
Q 1222 4347 1215 4091 
L 825 4091 
Q 831 4513 990 4742 
Q 1150 4972 1434 4972 
Q 1553 4972 1653 4928 
Q 1753 4884 1869 4781 
L 2047 4609 
Q 2115 4547 2167 4517 
Q 2219 4488 2259 4488 
Q 2378 4488 2434 4602 
Q 2490 4716 2497 4972 
L 2887 4972 
Q 2881 4550 2721 4320 
Q 2562 4091 2278 4091 
Q 2159 4091 2059 4134 
Q 1959 4178 1844 4281 
z
" transform="scale(0.015625)"/>
      <path id="DejaVuSans-6f" d="M 1959 3097 
Q 1497 3097 1228 2736 
Q 959 2375 959 1747 
Q 959 1119 1226 758 
Q 1494 397 1959 397 
Q 2419 397 2687 759 
Q 2956 1122 2956 1747 
Q 2956 2369 2687 2733 
Q 2419 3097 1959 3097 
z
M 1959 3584 
Q 2709 3584 3137 3096 
Q 3566 2609 3566 1747 
Q 3566 888 3137 398 
Q 2709 -91 1959 -91 
Q 1206 -91 779 398 
Q 353 888 353 1747 
Q 353 2609 779 3096 
Q 1206 3584 1959 3584 
z
" transform="scale(0.015625)"/>
      <path id="DejaVuSans-3a" d="M 750 794 
L 1409 794 
L 1409 0 
L 750 0 
L 750 794 
z
M 750 3309 
L 1409 3309 
L 1409 2516 
L 750 2516 
L 750 3309 
z
" transform="scale(0.015625)"/>
      <path id="DejaVuSans-20" transform="scale(0.015625)"/>
      <path id="DejaVuSans-61" d="M 2194 1759 
Q 1497 1759 1228 1600 
Q 959 1441 959 1056 
Q 959 750 1161 570 
Q 1363 391 1709 391 
Q 2188 391 2477 730 
Q 2766 1069 2766 1631 
L 2766 1759 
L 2194 1759 
z
M 3341 1997 
L 3341 0 
L 2766 0 
L 2766 531 
Q 2569 213 2275 61 
Q 1981 -91 1556 -91 
Q 1019 -91 701 211 
Q 384 513 384 1019 
Q 384 1609 779 1909 
Q 1175 2209 1959 2209 
L 2766 2209 
L 2766 2266 
Q 2766 2663 2505 2880 
Q 2244 3097 1772 3097 
Q 1472 3097 1187 3025 
Q 903 2953 641 2809 
L 641 3341 
Q 956 3463 1253 3523 
Q 1550 3584 1831 3584 
Q 2591 3584 2966 3190 
Q 3341 2797 3341 1997 
z
" transform="scale(0.015625)"/>
      <path id="DejaVuSans-6c" d="M 603 4863 
L 1178 4863 
L 1178 0 
L 603 0 
L 603 4863 
z
" transform="scale(0.015625)"/>
      <path id="DejaVuSans-76" d="M 191 3500 
L 800 3500 
L 1894 563 
L 2988 3500 
L 3597 3500 
L 2284 0 
L 1503 0 
L 191 3500 
z
" transform="scale(0.015625)"/>
      <path id="DejaVuSans-50" d="M 1259 4147 
L 1259 2394 
L 2053 2394 
Q 2494 2394 2734 2622 
Q 2975 2850 2975 3272 
Q 2975 3691 2734 3919 
Q 2494 4147 2053 4147 
L 1259 4147 
z
M 628 4666 
L 2053 4666 
Q 2838 4666 3239 4311 
Q 3641 3956 3641 3272 
Q 3641 2581 3239 2228 
Q 2838 1875 2053 1875 
L 1259 1875 
L 1259 0 
L 628 0 
L 628 4666 
z
" transform="scale(0.015625)"/>
      <path id="DejaVuSans-69" d="M 603 3500 
L 1178 3500 
L 1178 0 
L 603 0 
L 603 3500 
z
M 603 4863 
L 1178 4863 
L 1178 4134 
L 603 4134 
L 603 4863 
z
" transform="scale(0.015625)"/>
      <path id="DejaVuSans-74" d="M 1172 4494 
L 1172 3500 
L 2356 3500 
L 2356 3053 
L 1172 3053 
L 1172 1153 
Q 1172 725 1289 603 
Q 1406 481 1766 481 
L 2356 481 
L 2356 0 
L 1766 0 
Q 1100 0 847 248 
Q 594 497 594 1153 
L 594 3053 
L 172 3053 
L 172 3500 
L 594 3500 
L 594 4494 
L 1172 4494 
z
" transform="scale(0.015625)"/>
     </defs>
     <use xlink:href="#DejaVuSans-52"/>
     <use xlink:href="#DejaVuSans-65" x="64.982422"/>
     <use xlink:href="#DejaVuSans-67" x="126.505859"/>
     <use xlink:href="#DejaVuSans-72" x="189.982422"/>
     <use xlink:href="#DejaVuSans-65" x="228.845703"/>
     <use xlink:href="#DejaVuSans-73" x="290.369141"/>
     <use xlink:href="#DejaVuSans-73" x="342.46875"/>
     <use xlink:href="#DejaVuSans-e3" x="394.568359"/>
     <use xlink:href="#DejaVuSans-6f" x="455.847656"/>
     <use xlink:href="#DejaVuSans-3a" x="517.029297"/>
     <use xlink:href="#DejaVuSans-20" x="550.720703"/>
     <use xlink:href="#DejaVuSans-52" x="582.507812"/>
     <use xlink:href="#DejaVuSans-65" x="647.490234"/>
     <use xlink:href="#DejaVuSans-61" x="709.013672"/>
     <use xlink:href="#DejaVuSans-6c" x="770.292969"/>
     <use xlink:href="#DejaVuSans-20" x="798.076172"/>
     <use xlink:href="#DejaVuSans-76" x="829.863281"/>
     <use xlink:href="#DejaVuSans-73" x="889.042969"/>
     <use xlink:href="#DejaVuSans-20" x="941.142578"/>
     <use xlink:href="#DejaVuSans-50" x="972.929688"/>
     <use xlink:href="#DejaVuSans-72" x="1031.482422"/>
     <use xlink:href="#DejaVuSans-65" x="1070.345703"/>
     <use xlink:href="#DejaVuSans-76" x="1131.869141"/>
     <use xlink:href="#DejaVuSans-69" x="1191.048828"/>
     <use xlink:href="#DejaVuSans-73" x="1218.832031"/>
     <use xlink:href="#DejaVuSans-74" x="1270.931641"/>
     <use xlink:href="#DejaVuSans-6f" x="1310.140625"/>
    </g>
   </g>
   <g id="legend_1">
    <g id="patch_7">
     <path d="M 115 379.48 
L 213.284375 379.48 
Q 215.284375 379.48 215.284375 377.48 
L 215.284375 349.12375 
Q 215.284375 347.12375 213.284375 347.12375 
L 115 347.12375 
Q 113 347.12375 113 349.12375 
L 113 377.48 
Q 113 379.48 115 379.48 
z
" style="fill: #ffffff; opacity: 0.8; stroke: #cccccc; stroke-linejoin: miter"/>
    </g>
    <g id="line2d_18">
     <path d="M 117 355.222188 
L 127 355.222188 
L 137 355.222188 
" style="fill: none; stroke: #1f77b4; stroke-width: 1.5; stroke-linecap: square"/>
    </g>
    <g id="text_17">
     <!-- Valores Reais -->
     <g transform="translate(145 358.722188) scale(0.1 -0.1)">
      <defs>
       <path id="DejaVuSans-56" d="M 1831 0 
L 50 4666 
L 709 4666 
L 2188 738 
L 3669 4666 
L 4325 4666 
L 2547 0 
L 1831 0 
z
" transform="scale(0.015625)"/>
      </defs>
      <use xlink:href="#DejaVuSans-56"/>
      <use xlink:href="#DejaVuSans-61" x="60.658203"/>
      <use xlink:href="#DejaVuSans-6c" x="121.9375"/>
      <use xlink:href="#DejaVuSans-6f" x="149.720703"/>
      <use xlink:href="#DejaVuSans-72" x="210.902344"/>
      <use xlink:href="#DejaVuSans-65" x="249.765625"/>
      <use xlink:href="#DejaVuSans-73" x="311.289062"/>
      <use xlink:href="#DejaVuSans-20" x="363.388672"/>
      <use xlink:href="#DejaVuSans-52" x="395.175781"/>
      <use xlink:href="#DejaVuSans-65" x="460.158203"/>
      <use xlink:href="#DejaVuSans-61" x="521.681641"/>
      <use xlink:href="#DejaVuSans-69" x="582.960938"/>
      <use xlink:href="#DejaVuSans-73" x="610.744141"/>
     </g>
    </g>
    <g id="line2d_19">
     <path d="M 117 369.900312 
L 127 369.900312 
L 137 369.900312 
" style="fill: none; stroke: #ff7f0e; stroke-width: 1.5; stroke-linecap: square"/>
    </g>
    <g id="text_18">
     <!-- Previses -->
     <g transform="translate(145 373.400312) scale(0.1 -0.1)">
      <defs>
       <path id="DejaVuSans-f5" d="M 1959 3097 
Q 1497 3097 1228 2736 
Q 959 2375 959 1747 
Q 959 1119 1226 758 
Q 1494 397 1959 397 
Q 2419 397 2687 759 
Q 2956 1122 2956 1747 
Q 2956 2369 2687 2733 
Q 2419 3097 1959 3097 
z
M 1959 3584 
Q 2709 3584 3137 3096 
Q 3566 2609 3566 1747 
Q 3566 888 3137 398 
Q 2709 -91 1959 -91 
Q 1206 -91 779 398 
Q 353 888 353 1747 
Q 353 2609 779 3096 
Q 1206 3584 1959 3584 
z
M 1948 4281 
L 1769 4453 
Q 1701 4516 1649 4545 
Q 1598 4575 1557 4575 
Q 1438 4575 1382 4461 
Q 1326 4347 1319 4091 
L 929 4091 
Q 935 4513 1094 4742 
Q 1254 4972 1538 4972 
Q 1657 4972 1757 4928 
Q 1857 4884 1973 4781 
L 2151 4609 
Q 2219 4547 2271 4517 
Q 2323 4488 2363 4488 
Q 2482 4488 2538 4602 
Q 2594 4716 2601 4972 
L 2991 4972 
Q 2985 4550 2825 4320 
Q 2666 4091 2382 4091 
Q 2263 4091 2163 4134 
Q 2063 4178 1948 4281 
z
" transform="scale(0.015625)"/>
      </defs>
      <use xlink:href="#DejaVuSans-50"/>
      <use xlink:href="#DejaVuSans-72" x="58.552734"/>
      <use xlink:href="#DejaVuSans-65" x="97.416016"/>
      <use xlink:href="#DejaVuSans-76" x="158.939453"/>
      <use xlink:href="#DejaVuSans-69" x="218.119141"/>
      <use xlink:href="#DejaVuSans-73" x="245.902344"/>
      <use xlink:href="#DejaVuSans-f5" x="298.001953"/>
      <use xlink:href="#DejaVuSans-65" x="359.183594"/>
      <use xlink:href="#DejaVuSans-73" x="420.707031"/>
     </g>
    </g>
   </g>
  </g>
 </g>
 <defs>
  <clipPath id="pdfae7fa278">
   <rect x="108" y="51.84" width="669.6" height="332.64"/>
  </clipPath>
 </defs>
</svg>
