<?xml version="1.0" encoding="utf-8" standalone="no"?>
<!DOCTYPE svg PUBLIC "-//W3C//DTD SVG 1.1//EN"
  "http://www.w3.org/Graphics/SVG/1.1/DTD/svg11.dtd">
<svg xmlns:xlink="http://www.w3.org/1999/xlink" width="864pt" height="432pt" viewBox="0 0 864 432" xmlns="http://www.w3.org/2000/svg" version="1.1">
 <metadata>
  <rdf:RDF xmlns:dc="http://purl.org/dc/elements/1.1/" xmlns:cc="http://creativecommons.org/ns#" xmlns:rdf="http://www.w3.org/1999/02/22-rdf-syntax-ns#">
   <cc:Work>
    <dc:type rdf:resource="http://purl.org/dc/dcmitype/StillImage"/>
    <dc:date>2024-11-24T15:50:02.046617</dc:date>
    <dc:format>image/svg+xml</dc:format>
    <dc:creator>
     <cc:Agent>
      <dc:title>Matplotlib v3.9.2, https://matplotlib.org/</dc:title>
     </cc:Agent>
    </dc:creator>
   </cc:Work>
  </rdf:RDF>
 </metadata>
 <defs>
  <style type="text/css">*{stroke-linejoin: round; stroke-linecap: butt}</style>
 </defs>
 <g id="figure_1">
  <g id="patch_1">
   <path d="M 0 432 
L 864 432 
L 864 0 
L 0 0 
z
" style="fill: #ffffff"/>
  </g>
  <g id="axes_1">
   <g id="patch_2">
    <path d="M 108 384.48 
L 777.6 384.48 
L 777.6 51.84 
L 108 51.84 
z
" style="fill: #ffffff"/>
   </g>
   <g id="matplotlib.axis_1">
    <g id="xtick_1">
     <g id="line2d_1">
      <defs>
       <path id="mbeeb0cef39" d="M 0 0 
L 0 3.5 
" style="stroke: #000000; stroke-width: 0.8"/>
      </defs>
      <g>
       <use xlink:href="#mbeeb0cef39" x="138.436364" y="384.48" style="stroke: #000000; stroke-width: 0.8"/>
      </g>
     </g>
     <g id="text_1">
      <!-- 0 -->
      <g transform="translate(135.255114 399.078438) scale(0.1 -0.1)">
       <defs>
        <path id="DejaVuSans-30" d="M 2034 4250 
Q 1547 4250 1301 3770 
Q 1056 3291 1056 2328 
Q 1056 1369 1301 889 
Q 1547 409 2034 409 
Q 2525 409 2770 889 
Q 3016 1369 3016 2328 
Q 3016 3291 2770 3770 
Q 2525 4250 2034 4250 
z
M 2034 4750 
Q 2819 4750 3233 4129 
Q 3647 3509 3647 2328 
Q 3647 1150 3233 529 
Q 2819 -91 2034 -91 
Q 1250 -91 836 529 
Q 422 1150 422 2328 
Q 422 3509 836 4129 
Q 1250 4750 2034 4750 
z
" transform="scale(0.015625)"/>
       </defs>
       <use xlink:href="#DejaVuSans-30"/>
      </g>
     </g>
    </g>
    <g id="xtick_2">
     <g id="line2d_2">
      <g>
       <use xlink:href="#mbeeb0cef39" x="231.513928" y="384.48" style="stroke: #000000; stroke-width: 0.8"/>
      </g>
     </g>
     <g id="text_2">
      <!-- 200 -->
      <g transform="translate(221.970178 399.078438) scale(0.1 -0.1)">
       <defs>
        <path id="DejaVuSans-32" d="M 1228 531 
L 3431 531 
L 3431 0 
L 469 0 
L 469 531 
Q 828 903 1448 1529 
Q 2069 2156 2228 2338 
Q 2531 2678 2651 2914 
Q 2772 3150 2772 3378 
Q 2772 3750 2511 3984 
Q 2250 4219 1831 4219 
Q 1534 4219 1204 4116 
Q 875 4013 500 3803 
L 500 4441 
Q 881 4594 1212 4672 
Q 1544 4750 1819 4750 
Q 2544 4750 2975 4387 
Q 3406 4025 3406 3419 
Q 3406 3131 3298 2873 
Q 3191 2616 2906 2266 
Q 2828 2175 2409 1742 
Q 1991 1309 1228 531 
z
" transform="scale(0.015625)"/>
       </defs>
       <use xlink:href="#DejaVuSans-32"/>
       <use xlink:href="#DejaVuSans-30" x="63.623047"/>
       <use xlink:href="#DejaVuSans-30" x="127.246094"/>
      </g>
     </g>
    </g>
    <g id="xtick_3">
     <g id="line2d_3">
      <g>
       <use xlink:href="#mbeeb0cef39" x="324.591493" y="384.48" style="stroke: #000000; stroke-width: 0.8"/>
      </g>
     </g>
     <g id="text_3">
      <!-- 400 -->
      <g transform="translate(315.047743 399.078438) scale(0.1 -0.1)">
       <defs>
        <path id="DejaVuSans-34" d="M 2419 4116 
L 825 1625 
L 2419 1625 
L 2419 4116 
z
M 2253 4666 
L 3047 4666 
L 3047 1625 
L 3713 1625 
L 3713 1100 
L 3047 1100 
L 3047 0 
L 2419 0 
L 2419 1100 
L 313 1100 
L 313 1709 
L 2253 4666 
z
" transform="scale(0.015625)"/>
       </defs>
       <use xlink:href="#DejaVuSans-34"/>
       <use xlink:href="#DejaVuSans-30" x="63.623047"/>
       <use xlink:href="#DejaVuSans-30" x="127.246094"/>
      </g>
     </g>
    </g>
    <g id="xtick_4">
     <g id="line2d_4">
      <g>
       <use xlink:href="#mbeeb0cef39" x="417.669058" y="384.48" style="stroke: #000000; stroke-width: 0.8"/>
      </g>
     </g>
     <g id="text_4">
      <!-- 600 -->
      <g transform="translate(408.125308 399.078438) scale(0.1 -0.1)">
       <defs>
        <path id="DejaVuSans-36" d="M 2113 2584 
Q 1688 2584 1439 2293 
Q 1191 2003 1191 1497 
Q 1191 994 1439 701 
Q 1688 409 2113 409 
Q 2538 409 2786 701 
Q 3034 994 3034 1497 
Q 3034 2003 2786 2293 
Q 2538 2584 2113 2584 
z
M 3366 4563 
L 3366 3988 
Q 3128 4100 2886 4159 
Q 2644 4219 2406 4219 
Q 1781 4219 1451 3797 
Q 1122 3375 1075 2522 
Q 1259 2794 1537 2939 
Q 1816 3084 2150 3084 
Q 2853 3084 3261 2657 
Q 3669 2231 3669 1497 
Q 3669 778 3244 343 
Q 2819 -91 2113 -91 
Q 1303 -91 875 529 
Q 447 1150 447 2328 
Q 447 3434 972 4092 
Q 1497 4750 2381 4750 
Q 2619 4750 2861 4703 
Q 3103 4656 3366 4563 
z
" transform="scale(0.015625)"/>
       </defs>
       <use xlink:href="#DejaVuSans-36"/>
       <use xlink:href="#DejaVuSans-30" x="63.623047"/>
       <use xlink:href="#DejaVuSans-30" x="127.246094"/>
      </g>
     </g>
    </g>
    <g id="xtick_5">
     <g id="line2d_5">
      <g>
       <use xlink:href="#mbeeb0cef39" x="510.746622" y="384.48" style="stroke: #000000; stroke-width: 0.8"/>
      </g>
     </g>
     <g id="text_5">
      <!-- 800 -->
      <g transform="translate(501.202872 399.078438) scale(0.1 -0.1)">
       <defs>
        <path id="DejaVuSans-38" d="M 2034 2216 
Q 1584 2216 1326 1975 
Q 1069 1734 1069 1313 
Q 1069 891 1326 650 
Q 1584 409 2034 409 
Q 2484 409 2743 651 
Q 3003 894 3003 1313 
Q 3003 1734 2745 1975 
Q 2488 2216 2034 2216 
z
M 1403 2484 
Q 997 2584 770 2862 
Q 544 3141 544 3541 
Q 544 4100 942 4425 
Q 1341 4750 2034 4750 
Q 2731 4750 3128 4425 
Q 3525 4100 3525 3541 
Q 3525 3141 3298 2862 
Q 3072 2584 2669 2484 
Q 3125 2378 3379 2068 
Q 3634 1759 3634 1313 
Q 3634 634 3220 271 
Q 2806 -91 2034 -91 
Q 1263 -91 848 271 
Q 434 634 434 1313 
Q 434 1759 690 2068 
Q 947 2378 1403 2484 
z
M 1172 3481 
Q 1172 3119 1398 2916 
Q 1625 2713 2034 2713 
Q 2441 2713 2670 2916 
Q 2900 3119 2900 3481 
Q 2900 3844 2670 4047 
Q 2441 4250 2034 4250 
Q 1625 4250 1398 4047 
Q 1172 3844 1172 3481 
z
" transform="scale(0.015625)"/>
       </defs>
       <use xlink:href="#DejaVuSans-38"/>
       <use xlink:href="#DejaVuSans-30" x="63.623047"/>
       <use xlink:href="#DejaVuSans-30" x="127.246094"/>
      </g>
     </g>
    </g>
    <g id="xtick_6">
     <g id="line2d_6">
      <g>
       <use xlink:href="#mbeeb0cef39" x="603.824187" y="384.48" style="stroke: #000000; stroke-width: 0.8"/>
      </g>
     </g>
     <g id="text_6">
      <!-- 1000 -->
      <g transform="translate(591.099187 399.078438) scale(0.1 -0.1)">
       <defs>
        <path id="DejaVuSans-31" d="M 794 531 
L 1825 531 
L 1825 4091 
L 703 3866 
L 703 4441 
L 1819 4666 
L 2450 4666 
L 2450 531 
L 3481 531 
L 3481 0 
L 794 0 
L 794 531 
z
" transform="scale(0.015625)"/>
       </defs>
       <use xlink:href="#DejaVuSans-31"/>
       <use xlink:href="#DejaVuSans-30" x="63.623047"/>
       <use xlink:href="#DejaVuSans-30" x="127.246094"/>
       <use xlink:href="#DejaVuSans-30" x="190.869141"/>
      </g>
     </g>
    </g>
    <g id="xtick_7">
     <g id="line2d_7">
      <g>
       <use xlink:href="#mbeeb0cef39" x="696.901751" y="384.48" style="stroke: #000000; stroke-width: 0.8"/>
      </g>
     </g>
     <g id="text_7">
      <!-- 1200 -->
      <g transform="translate(684.176751 399.078438) scale(0.1 -0.1)">
       <use xlink:href="#DejaVuSans-31"/>
       <use xlink:href="#DejaVuSans-32" x="63.623047"/>
       <use xlink:href="#DejaVuSans-30" x="127.246094"/>
       <use xlink:href="#DejaVuSans-30" x="190.869141"/>
      </g>
     </g>
    </g>
   </g>
   <g id="matplotlib.axis_2">
    <g id="ytick_1">
     <g id="line2d_8">
      <defs>
       <path id="m6ac7e0c16a" d="M 0 0 
L -3.5 0 
" style="stroke: #000000; stroke-width: 0.8"/>
      </defs>
      <g>
       <use xlink:href="#m6ac7e0c16a" x="108" y="349.2" style="stroke: #000000; stroke-width: 0.8"/>
      </g>
     </g>
     <g id="text_8">
      <!-- 2 -->
      <g transform="translate(94.6375 352.999219) scale(0.1 -0.1)">
       <use xlink:href="#DejaVuSans-32"/>
      </g>
     </g>
    </g>
    <g id="ytick_2">
     <g id="line2d_9">
      <g>
       <use xlink:href="#m6ac7e0c16a" x="108" y="308.88" style="stroke: #000000; stroke-width: 0.8"/>
      </g>
     </g>
     <g id="text_9">
      <!-- 4 -->
      <g transform="translate(94.6375 312.679219) scale(0.1 -0.1)">
       <use xlink:href="#DejaVuSans-34"/>
      </g>
     </g>
    </g>
    <g id="ytick_3">
     <g id="line2d_10">
      <g>
       <use xlink:href="#m6ac7e0c16a" x="108" y="268.56" style="stroke: #000000; stroke-width: 0.8"/>
      </g>
     </g>
     <g id="text_10">
      <!-- 6 -->
      <g transform="translate(94.6375 272.359219) scale(0.1 -0.1)">
       <use xlink:href="#DejaVuSans-36"/>
      </g>
     </g>
    </g>
    <g id="ytick_4">
     <g id="line2d_11">
      <g>
       <use xlink:href="#m6ac7e0c16a" x="108" y="228.24" style="stroke: #000000; stroke-width: 0.8"/>
      </g>
     </g>
     <g id="text_11">
      <!-- 8 -->
      <g transform="translate(94.6375 232.039219) scale(0.1 -0.1)">
       <use xlink:href="#DejaVuSans-38"/>
      </g>
     </g>
    </g>
    <g id="ytick_5">
     <g id="line2d_12">
      <g>
       <use xlink:href="#m6ac7e0c16a" x="108" y="187.92" style="stroke: #000000; stroke-width: 0.8"/>
      </g>
     </g>
     <g id="text_12">
      <!-- 10 -->
      <g transform="translate(88.275 191.719219) scale(0.1 -0.1)">
       <use xlink:href="#DejaVuSans-31"/>
       <use xlink:href="#DejaVuSans-30" x="63.623047"/>
      </g>
     </g>
    </g>
    <g id="ytick_6">
     <g id="line2d_13">
      <g>
       <use xlink:href="#m6ac7e0c16a" x="108" y="147.6" style="stroke: #000000; stroke-width: 0.8"/>
      </g>
     </g>
     <g id="text_13">
      <!-- 12 -->
      <g transform="translate(88.275 151.399219) scale(0.1 -0.1)">
       <use xlink:href="#DejaVuSans-31"/>
       <use xlink:href="#DejaVuSans-32" x="63.623047"/>
      </g>
     </g>
    </g>
    <g id="ytick_7">
     <g id="line2d_14">
      <g>
       <use xlink:href="#m6ac7e0c16a" x="108" y="107.28" style="stroke: #000000; stroke-width: 0.8"/>
      </g>
     </g>
     <g id="text_14">
      <!-- 14 -->
      <g transform="translate(88.275 111.079219) scale(0.1 -0.1)">
       <use xlink:href="#DejaVuSans-31"/>
       <use xlink:href="#DejaVuSans-34" x="63.623047"/>
      </g>
     </g>
    </g>
    <g id="ytick_8">
     <g id="line2d_15">
      <g>
       <use xlink:href="#m6ac7e0c16a" x="108" y="66.96" style="stroke: #000000; stroke-width: 0.8"/>
      </g>
     </g>
     <g id="text_15">
      <!-- 16 -->
      <g transform="translate(88.275 70.759219) scale(0.1 -0.1)">
       <use xlink:href="#DejaVuSans-31"/>
       <use xlink:href="#DejaVuSans-36" x="63.623047"/>
      </g>
     </g>
    </g>
   </g>
   <g id="line2d_16">
    <path d="M 138.436364 147.6 
L 139.367139 308.88 
L 139.832527 87.12 
L 140.297915 288.72 
L 140.763303 329.04 
L 141.228691 147.6 
L 141.694078 228.24 
L 142.159466 187.92 
L 142.624854 187.92 
L 143.090242 288.72 
L 143.55563 268.56 
L 144.021018 228.24 
L 144.486405 87.12 
L 144.951793 268.56 
L 145.417181 288.72 
L 145.882569 329.04 
L 146.347957 228.24 
L 146.813344 187.92 
L 147.278732 288.72 
L 147.74412 87.12 
L 148.209508 288.72 
L 148.674896 329.04 
L 149.140284 228.24 
L 149.605671 288.72 
L 150.071059 268.56 
L 150.536447 87.12 
L 151.001835 288.72 
L 151.467223 268.56 
L 151.932611 308.88 
L 152.397998 187.92 
L 152.863386 228.24 
L 153.328774 329.04 
L 153.794162 288.72 
L 154.25955 208.08 
L 154.724937 288.72 
L 155.190325 268.56 
L 155.655713 288.72 
L 156.121101 329.04 
L 156.586489 288.72 
L 157.517264 288.72 
L 157.982652 228.24 
L 158.44804 147.6 
L 158.913428 268.56 
L 159.378816 87.12 
L 159.844204 329.04 
L 160.309591 288.72 
L 160.774979 187.92 
L 161.240367 187.92 
L 161.705755 228.24 
L 162.171143 66.96 
L 162.63653 147.6 
L 163.101918 288.72 
L 163.567306 268.56 
L 164.032694 288.72 
L 164.498082 288.72 
L 164.96347 228.24 
L 165.428857 147.6 
L 165.894245 288.72 
L 166.359633 228.24 
L 166.825021 329.04 
L 167.290409 187.92 
L 167.755796 268.56 
L 168.221184 288.72 
L 168.686572 187.92 
L 169.15196 187.92 
L 169.617348 147.6 
L 170.082736 187.92 
L 170.548123 187.92 
L 171.013511 268.56 
L 171.478899 288.72 
L 172.409675 288.72 
L 172.875063 228.24 
L 173.34045 288.72 
L 173.805838 127.44 
L 174.271226 288.72 
L 174.736614 87.12 
L 175.202002 228.24 
L 175.667389 288.72 
L 176.598165 288.72 
L 177.063553 187.92 
L 177.528941 228.24 
L 177.994329 288.72 
L 178.459716 308.88 
L 178.925104 147.6 
L 179.390492 147.6 
L 179.85588 268.56 
L 180.321268 187.92 
L 180.786656 147.6 
L 181.252043 187.92 
L 181.717431 147.6 
L 182.182819 87.12 
L 182.648207 268.56 
L 183.113595 248.4 
L 183.578982 187.92 
L 184.04437 187.92 
L 184.975146 268.56 
L 185.440534 288.72 
L 185.905922 288.72 
L 186.371309 187.92 
L 186.836697 288.72 
L 187.302085 288.72 
L 187.767473 308.88 
L 188.232861 268.56 
L 188.698249 288.72 
L 189.163636 87.12 
L 189.629024 268.56 
L 190.094412 167.76 
L 190.5598 268.56 
L 191.025188 268.56 
L 191.490575 228.24 
L 191.955963 288.72 
L 192.421351 268.56 
L 192.886739 147.6 
L 193.352127 228.24 
L 193.817515 187.92 
L 194.282902 329.04 
L 194.74829 268.56 
L 195.213678 147.6 
L 195.679066 268.56 
L 196.144454 87.12 
L 196.609842 308.88 
L 197.075229 187.92 
L 197.540617 268.56 
L 198.006005 329.04 
L 198.471393 268.56 
L 198.936781 288.72 
L 199.402168 87.12 
L 199.867556 228.24 
L 200.332944 329.04 
L 200.798332 288.72 
L 201.26372 268.56 
L 201.729108 187.92 
L 202.194495 228.24 
L 202.659883 147.6 
L 203.125271 87.12 
L 203.590659 288.72 
L 204.056047 187.92 
L 204.521435 187.92 
L 204.986822 147.6 
L 205.45221 87.12 
L 205.917598 187.92 
L 206.382986 187.92 
L 206.848374 288.72 
L 207.313761 268.56 
L 207.779149 228.24 
L 208.244537 288.72 
L 208.709925 187.92 
L 209.175313 288.72 
L 209.640701 187.92 
L 210.106088 288.72 
L 210.571476 288.72 
L 211.036864 167.76 
L 211.502252 187.92 
L 211.96764 288.72 
L 212.433028 329.04 
L 212.898415 288.72 
L 213.363803 228.24 
L 213.829191 228.24 
L 214.294579 329.04 
L 214.759967 288.72 
L 215.225354 87.12 
L 215.690742 329.04 
L 216.15613 288.72 
L 216.621518 228.24 
L 217.086906 187.92 
L 218.017681 268.56 
L 218.483069 147.6 
L 218.948457 147.6 
L 219.413845 187.92 
L 219.879233 187.92 
L 220.344621 147.6 
L 220.810008 288.72 
L 221.275396 268.56 
L 221.740784 147.6 
L 222.206172 187.92 
L 222.67156 167.76 
L 223.136947 228.24 
L 223.602335 228.24 
L 224.067723 268.56 
L 224.533111 248.4 
L 224.998499 288.72 
L 225.463887 127.44 
L 225.929274 268.56 
L 226.394662 187.92 
L 226.86005 288.72 
L 227.325438 187.92 
L 227.790826 288.72 
L 228.256214 329.04 
L 228.721601 187.92 
L 229.186989 187.92 
L 229.652377 127.44 
L 230.117765 147.6 
L 230.583153 228.24 
L 231.04854 288.72 
L 231.513928 228.24 
L 231.979316 107.28 
L 232.444704 288.72 
L 232.910092 187.92 
L 233.37548 187.92 
L 234.306255 308.88 
L 234.771643 329.04 
L 235.237031 288.72 
L 235.702419 187.92 
L 236.167807 288.72 
L 236.633194 308.88 
L 237.098582 187.92 
L 237.56397 228.24 
L 238.029358 288.72 
L 238.494746 187.92 
L 238.960133 127.44 
L 239.425521 228.24 
L 239.890909 288.72 
L 240.356297 228.24 
L 240.821685 288.72 
L 241.287073 228.24 
L 241.75246 187.92 
L 242.217848 228.24 
L 242.683236 228.24 
L 243.148624 187.92 
L 243.614012 228.24 
L 244.079399 288.72 
L 244.544787 288.72 
L 245.010175 268.56 
L 245.475563 187.92 
L 245.940951 268.56 
L 246.406339 187.92 
L 246.871726 187.92 
L 247.337114 268.56 
L 247.802502 288.72 
L 248.26789 248.4 
L 249.198666 288.72 
L 249.664053 268.56 
L 250.129441 288.72 
L 250.594829 107.28 
L 251.060217 228.24 
L 251.525605 187.92 
L 251.990992 288.72 
L 252.45638 228.24 
L 253.387156 147.6 
L 253.852544 147.6 
L 254.317932 187.92 
L 254.783319 288.72 
L 255.248707 147.6 
L 255.714095 329.04 
L 256.179483 87.12 
L 256.644871 87.12 
L 257.110259 208.08 
L 257.575646 288.72 
L 258.041034 147.6 
L 258.506422 187.92 
L 258.97181 288.72 
L 259.437198 329.04 
L 259.902585 288.72 
L 260.367973 268.56 
L 260.833361 87.12 
L 261.298749 288.72 
L 261.764137 288.72 
L 262.229525 208.08 
L 262.694912 288.72 
L 263.1603 288.72 
L 264.091076 248.4 
L 264.556464 147.6 
L 265.021852 288.72 
L 265.487239 187.92 
L 265.952627 288.72 
L 266.418015 288.72 
L 266.883403 268.56 
L 267.348791 268.56 
L 267.814178 288.72 
L 268.279566 228.24 
L 268.744954 147.6 
L 269.210342 228.24 
L 269.67573 187.92 
L 270.141118 288.72 
L 270.606505 187.92 
L 271.537281 268.56 
L 272.002669 187.92 
L 272.468057 228.24 
L 272.933445 288.72 
L 273.398832 329.04 
L 273.86422 288.72 
L 274.329608 288.72 
L 274.794996 228.24 
L 275.260384 228.24 
L 275.725771 187.92 
L 276.191159 208.08 
L 276.656547 147.6 
L 277.121935 288.72 
L 277.587323 187.92 
L 278.052711 147.6 
L 278.518098 147.6 
L 278.983486 268.56 
L 279.448874 329.04 
L 279.914262 288.72 
L 280.37965 288.72 
L 280.845038 268.56 
L 281.310425 288.72 
L 281.775813 288.72 
L 282.241201 187.92 
L 282.706589 228.24 
L 283.171977 187.92 
L 283.637364 66.96 
L 284.102752 268.56 
L 284.56814 288.72 
L 285.033528 187.92 
L 285.498916 187.92 
L 285.964304 268.56 
L 286.429691 268.56 
L 286.895079 228.24 
L 287.360467 228.24 
L 287.825855 167.76 
L 288.291243 147.6 
L 288.756631 187.92 
L 289.222018 288.72 
L 289.687406 288.72 
L 290.152794 228.24 
L 290.618182 147.6 
L 291.08357 228.24 
L 291.548957 187.92 
L 292.014345 228.24 
L 292.479733 187.92 
L 292.945121 268.56 
L 293.410509 187.92 
L 293.875897 248.4 
L 294.341284 268.56 
L 294.806672 308.88 
L 295.27206 187.92 
L 295.737448 329.04 
L 296.202836 228.24 
L 296.668224 87.12 
L 297.133611 268.56 
L 297.598999 127.44 
L 298.529775 349.2 
L 298.995163 288.72 
L 299.46055 87.12 
L 299.925938 268.56 
L 300.391326 288.72 
L 300.856714 147.6 
L 301.322102 288.72 
L 301.78749 87.12 
L 302.252877 268.56 
L 302.718265 248.4 
L 303.183653 329.04 
L 303.649041 288.72 
L 304.114429 147.6 
L 304.579817 228.24 
L 305.045204 87.12 
L 305.510592 127.44 
L 305.97598 187.92 
L 306.441368 228.24 
L 306.906756 228.24 
L 307.372143 288.72 
L 307.837531 147.6 
L 308.302919 288.72 
L 308.768307 228.24 
L 309.233695 187.92 
L 309.699083 349.2 
L 310.16447 127.44 
L 310.629858 268.56 
L 311.095246 187.92 
L 311.560634 167.76 
L 312.49141 288.72 
L 312.956797 228.24 
L 313.422185 228.24 
L 313.887573 288.72 
L 314.352961 87.12 
L 314.818349 288.72 
L 315.283736 288.72 
L 315.749124 228.24 
L 316.214512 228.24 
L 316.6799 329.04 
L 317.145288 288.72 
L 317.610676 147.6 
L 318.541451 228.24 
L 319.006839 329.04 
L 319.472227 228.24 
L 319.937615 288.72 
L 320.403003 147.6 
L 320.86839 288.72 
L 321.333778 228.24 
L 321.799166 147.6 
L 322.264554 147.6 
L 322.729942 329.04 
L 323.195329 268.56 
L 323.660717 228.24 
L 324.126105 228.24 
L 324.591493 288.72 
L 325.522269 288.72 
L 325.987656 228.24 
L 326.453044 147.6 
L 326.918432 288.72 
L 327.38382 228.24 
L 327.849208 288.72 
L 328.314595 87.12 
L 328.779983 147.6 
L 329.245371 288.72 
L 329.710759 228.24 
L 330.176147 187.92 
L 330.641535 268.56 
L 331.106922 208.08 
L 331.57231 268.56 
L 332.037698 288.72 
L 332.503086 147.6 
L 333.433862 228.24 
L 333.899249 187.92 
L 334.364637 187.92 
L 334.830025 288.72 
L 335.295413 87.12 
L 335.760801 147.6 
L 336.691576 147.6 
L 337.156964 228.24 
L 337.622352 187.92 
L 338.08774 288.72 
L 338.553128 308.88 
L 339.018515 288.72 
L 339.483903 248.4 
L 340.414679 329.04 
L 340.880067 187.92 
L 341.345455 228.24 
L 341.810842 288.72 
L 342.27623 288.72 
L 342.741618 268.56 
L 343.672394 187.92 
L 344.137781 288.72 
L 344.603169 147.6 
L 345.068557 228.24 
L 345.533945 208.08 
L 345.999333 87.12 
L 346.464721 187.92 
L 346.930108 228.24 
L 347.395496 288.72 
L 347.860884 87.12 
L 348.326272 288.72 
L 348.79166 329.04 
L 349.257048 187.92 
L 349.722435 167.76 
L 350.187823 187.92 
L 350.653211 147.6 
L 351.118599 187.92 
L 351.583987 288.72 
L 352.049374 329.04 
L 352.514762 228.24 
L 352.98015 288.72 
L 353.445538 87.12 
L 354.376314 288.72 
L 354.841701 228.24 
L 355.307089 288.72 
L 355.772477 187.92 
L 356.237865 187.92 
L 356.703253 329.04 
L 357.168641 208.08 
L 357.634028 248.4 
L 358.099416 187.92 
L 358.564804 147.6 
L 359.030192 187.92 
L 359.960967 187.92 
L 360.426355 228.24 
L 360.891743 288.72 
L 361.357131 187.92 
L 361.822519 228.24 
L 362.287907 228.24 
L 362.753294 329.04 
L 363.218682 288.72 
L 364.149458 288.72 
L 364.614846 187.92 
L 365.080234 268.56 
L 366.011009 187.92 
L 366.941785 268.56 
L 367.407173 329.04 
L 367.87256 369.36 
L 368.803336 288.72 
L 369.268724 329.04 
L 369.734112 187.92 
L 370.1995 228.24 
L 370.664887 167.76 
L 371.595663 288.72 
L 372.061051 147.6 
L 372.526439 187.92 
L 372.991827 288.72 
L 373.457214 228.24 
L 373.922602 187.92 
L 374.38799 187.92 
L 375.318766 268.56 
L 375.784153 268.56 
L 376.249541 187.92 
L 376.714929 288.72 
L 377.180317 288.72 
L 377.645705 268.56 
L 378.111093 187.92 
L 378.57648 329.04 
L 379.041868 147.6 
L 379.507256 268.56 
L 379.972644 288.72 
L 380.438032 329.04 
L 380.90342 329.04 
L 381.368807 187.92 
L 381.834195 187.92 
L 382.299583 288.72 
L 382.764971 228.24 
L 383.230359 228.24 
L 383.695746 147.6 
L 384.161134 187.92 
L 384.626522 288.72 
L 385.09191 187.92 
L 385.557298 308.88 
L 386.022686 208.08 
L 386.488073 268.56 
L 387.418849 308.88 
L 387.884237 187.92 
L 388.349625 268.56 
L 388.815013 208.08 
L 389.2804 228.24 
L 389.745788 329.04 
L 390.211176 329.04 
L 390.676564 147.6 
L 391.141952 228.24 
L 391.607339 187.92 
L 392.072727 268.56 
L 392.538115 288.72 
L 393.934279 288.72 
L 394.399666 127.44 
L 394.865054 288.72 
L 395.330442 187.92 
L 395.79583 288.72 
L 396.261218 288.72 
L 396.726606 268.56 
L 397.191993 288.72 
L 397.657381 228.24 
L 398.122769 228.24 
L 398.588157 187.92 
L 399.053545 288.72 
L 399.518932 228.24 
L 399.98432 228.24 
L 400.449708 288.72 
L 400.915096 288.72 
L 401.380484 187.92 
L 401.845872 228.24 
L 402.311259 147.6 
L 402.776647 288.72 
L 403.242035 308.88 
L 403.707423 167.76 
L 404.172811 288.72 
L 404.638198 147.6 
L 405.103586 268.56 
L 405.568974 87.12 
L 406.034362 147.6 
L 406.49975 288.72 
L 406.965138 329.04 
L 407.430525 228.24 
L 407.895913 268.56 
L 408.361301 187.92 
L 408.826689 187.92 
L 409.292077 208.08 
L 409.757465 268.56 
L 410.222852 268.56 
L 410.68824 288.72 
L 411.153628 329.04 
L 411.619016 187.92 
L 412.084404 87.12 
L 412.549791 147.6 
L 413.015179 167.76 
L 413.480567 147.6 
L 413.945955 288.72 
L 414.411343 268.56 
L 414.876731 187.92 
L 415.342118 228.24 
L 415.807506 187.92 
L 416.272894 288.72 
L 416.738282 228.24 
L 417.20367 268.56 
L 417.669058 87.12 
L 418.134445 288.72 
L 418.599833 187.92 
L 419.065221 308.88 
L 419.530609 147.6 
L 419.995997 288.72 
L 420.461384 329.04 
L 420.926772 187.92 
L 421.39216 228.24 
L 421.857548 288.72 
L 422.322936 268.56 
L 422.788324 288.72 
L 423.253711 228.24 
L 423.719099 187.92 
L 424.184487 87.12 
L 424.649875 147.6 
L 425.115263 268.56 
L 425.580651 228.24 
L 426.046038 288.72 
L 426.511426 187.92 
L 426.976814 187.92 
L 427.90759 268.56 
L 428.372977 87.12 
L 428.838365 288.72 
L 429.303753 147.6 
L 429.769141 187.92 
L 430.234529 349.2 
L 431.165304 187.92 
L 431.630692 268.56 
L 432.09608 228.24 
L 432.561468 288.72 
L 433.026856 228.24 
L 433.492244 288.72 
L 433.957631 187.92 
L 434.423019 228.24 
L 435.819183 228.24 
L 436.28457 187.92 
L 437.215346 187.92 
L 437.680734 288.72 
L 438.146122 288.72 
L 438.61151 329.04 
L 439.076897 187.92 
L 439.542285 288.72 
L 440.007673 228.24 
L 440.473061 147.6 
L 440.938449 228.24 
L 441.403837 228.24 
L 441.869224 187.92 
L 442.334612 228.24 
L 443.265388 268.56 
L 443.730776 187.92 
L 444.196163 288.72 
L 444.661551 268.56 
L 445.126939 228.24 
L 445.592327 329.04 
L 446.057715 288.72 
L 446.98849 329.04 
L 447.453878 187.92 
L 447.919266 329.04 
L 448.384654 248.4 
L 448.850042 329.04 
L 449.31543 228.24 
L 449.780817 228.24 
L 450.246205 187.92 
L 450.711593 208.08 
L 451.176981 268.56 
L 451.642369 147.6 
L 452.107756 187.92 
L 452.573144 187.92 
L 453.038532 288.72 
L 453.50392 228.24 
L 453.969308 288.72 
L 454.434696 187.92 
L 454.900083 288.72 
L 455.365471 187.92 
L 455.830859 288.72 
L 456.296247 288.72 
L 456.761635 228.24 
L 457.227023 288.72 
L 457.69241 268.56 
L 458.157798 187.92 
L 458.623186 147.6 
L 459.088574 288.72 
L 459.553962 187.92 
L 460.019349 329.04 
L 460.950125 147.6 
L 461.415513 147.6 
L 461.880901 208.08 
L 462.346289 167.76 
L 462.811676 87.12 
L 463.277064 187.92 
L 463.742452 187.92 
L 464.20784 268.56 
L 464.673228 208.08 
L 465.138616 187.92 
L 465.604003 187.92 
L 466.069391 228.24 
L 466.534779 228.24 
L 467.000167 268.56 
L 467.930942 268.56 
L 468.39633 147.6 
L 468.861718 228.24 
L 469.327106 147.6 
L 469.792494 187.92 
L 470.257882 187.92 
L 470.723269 87.12 
L 471.188657 147.6 
L 471.654045 268.56 
L 472.119433 288.72 
L 472.584821 268.56 
L 473.050209 187.92 
L 473.515596 228.24 
L 473.980984 127.44 
L 474.446372 228.24 
L 474.91176 288.72 
L 475.377148 127.44 
L 475.842535 288.72 
L 476.307923 66.96 
L 476.773311 288.72 
L 477.238699 268.56 
L 478.169475 308.88 
L 478.634862 87.12 
L 479.10025 228.24 
L 479.565638 288.72 
L 480.031026 228.24 
L 480.496414 147.6 
L 480.961802 187.92 
L 481.427189 147.6 
L 481.892577 147.6 
L 482.357965 228.24 
L 482.823353 329.04 
L 483.288741 288.72 
L 483.754128 228.24 
L 484.219516 288.72 
L 484.684904 187.92 
L 485.150292 147.6 
L 486.546455 268.56 
L 487.011843 147.6 
L 487.477231 288.72 
L 487.942619 228.24 
L 488.408007 228.24 
L 488.873394 288.72 
L 489.338782 288.72 
L 489.80417 187.92 
L 490.269558 288.72 
L 490.734946 187.92 
L 491.200334 288.72 
L 492.131109 288.72 
L 492.596497 228.24 
L 493.061885 147.6 
L 493.527273 187.92 
L 493.992661 288.72 
L 494.458048 329.04 
L 494.923436 288.72 
L 495.388824 329.04 
L 495.854212 147.6 
L 496.3196 288.72 
L 496.784987 268.56 
L 497.715763 147.6 
L 498.181151 187.92 
L 498.646539 288.72 
L 499.111927 308.88 
L 499.577314 288.72 
L 500.042702 147.6 
L 500.50809 228.24 
L 500.973478 288.72 
L 501.904254 288.72 
L 502.369641 329.04 
L 502.835029 329.04 
L 503.300417 268.56 
L 503.765805 87.12 
L 504.231193 187.92 
L 504.69658 228.24 
L 505.161968 228.24 
L 505.627356 349.2 
L 506.092744 87.12 
L 506.558132 147.6 
L 507.02352 268.56 
L 507.488907 147.6 
L 507.954295 268.56 
L 508.419683 268.56 
L 508.885071 127.44 
L 509.815847 288.72 
L 510.281234 308.88 
L 510.746622 228.24 
L 511.21201 268.56 
L 511.677398 268.56 
L 512.142786 228.24 
L 512.608173 288.72 
L 513.073561 288.72 
L 513.538949 187.92 
L 514.004337 329.04 
L 514.469725 228.24 
L 514.935113 288.72 
L 515.4005 187.92 
L 515.865888 187.92 
L 516.331276 228.24 
L 516.796664 187.92 
L 517.262052 288.72 
L 517.72744 87.12 
L 518.192827 268.56 
L 518.658215 187.92 
L 519.123603 228.24 
L 519.588991 187.92 
L 520.054379 308.88 
L 520.519766 87.12 
L 520.985154 228.24 
L 521.450542 288.72 
L 521.91593 288.72 
L 522.381318 228.24 
L 522.846706 268.56 
L 523.312093 288.72 
L 523.777481 147.6 
L 524.242869 147.6 
L 524.708257 288.72 
L 525.173645 268.56 
L 525.639033 288.72 
L 526.10442 329.04 
L 527.035196 147.6 
L 527.500584 187.92 
L 527.965972 268.56 
L 528.431359 147.6 
L 528.896747 187.92 
L 529.362135 288.72 
L 529.827523 187.92 
L 530.292911 187.92 
L 530.758299 147.6 
L 531.223686 288.72 
L 531.689074 187.92 
L 532.154462 228.24 
L 532.61985 288.72 
L 533.085238 187.92 
L 533.550626 288.72 
L 534.016013 329.04 
L 534.946789 147.6 
L 535.412177 288.72 
L 535.877565 268.56 
L 536.342952 288.72 
L 536.80834 288.72 
L 537.273728 147.6 
L 537.739116 187.92 
L 538.204504 288.72 
L 538.669892 288.72 
L 539.135279 369.36 
L 539.600667 228.24 
L 540.066055 268.56 
L 540.531443 268.56 
L 540.996831 147.6 
L 541.462219 228.24 
L 541.927606 228.24 
L 542.392994 288.72 
L 542.858382 187.92 
L 543.32377 147.6 
L 543.789158 268.56 
L 544.254545 288.72 
L 544.719933 147.6 
L 545.185321 288.72 
L 545.650709 288.72 
L 546.116097 87.12 
L 546.581485 228.24 
L 547.046872 228.24 
L 547.977648 147.6 
L 548.443036 329.04 
L 548.908424 147.6 
L 549.373812 228.24 
L 549.839199 147.6 
L 550.304587 288.72 
L 550.769975 187.92 
L 551.235363 288.72 
L 551.700751 187.92 
L 552.631526 268.56 
L 553.562302 308.88 
L 554.493078 228.24 
L 554.958465 147.6 
L 555.423853 308.88 
L 555.889241 248.4 
L 556.820017 288.72 
L 557.285405 147.6 
L 557.750792 268.56 
L 558.21618 288.72 
L 558.681568 288.72 
L 559.146956 228.24 
L 559.612344 329.04 
L 560.077731 187.92 
L 560.543119 288.72 
L 561.008507 288.72 
L 561.473895 147.6 
L 561.939283 288.72 
L 562.404671 187.92 
L 562.870058 147.6 
L 563.335446 228.24 
L 563.800834 228.24 
L 564.266222 268.56 
L 564.73161 288.72 
L 565.196997 187.92 
L 565.662385 288.72 
L 566.127773 87.12 
L 566.593161 288.72 
L 567.523937 288.72 
L 567.989324 228.24 
L 568.454712 228.24 
L 568.9201 87.12 
L 569.385488 87.12 
L 569.850876 268.56 
L 570.316264 228.24 
L 570.781651 288.72 
L 571.247039 268.56 
L 571.712427 187.92 
L 572.177815 288.72 
L 572.643203 228.24 
L 573.10859 187.92 
L 573.573978 268.56 
L 574.039366 288.72 
L 574.504754 87.12 
L 574.970142 329.04 
L 575.43553 288.72 
L 575.900917 329.04 
L 576.366305 288.72 
L 576.831693 288.72 
L 577.297081 187.92 
L 577.762469 208.08 
L 578.227857 288.72 
L 578.693244 228.24 
L 579.158632 268.56 
L 579.62402 147.6 
L 580.089408 288.72 
L 580.554796 288.72 
L 581.020183 187.92 
L 581.485571 187.92 
L 581.950959 228.24 
L 582.416347 167.76 
L 582.881735 248.4 
L 583.347123 147.6 
L 583.81251 268.56 
L 584.277898 268.56 
L 584.743286 308.88 
L 585.674062 147.6 
L 586.13945 288.72 
L 586.604837 107.28 
L 587.070225 288.72 
L 587.535613 87.12 
L 588.001001 349.2 
L 588.466389 187.92 
L 588.931776 288.72 
L 589.397164 228.24 
L 589.862552 288.72 
L 590.32794 308.88 
L 590.793328 187.92 
L 591.258716 147.6 
L 591.724103 228.24 
L 592.189491 288.72 
L 592.654879 187.92 
L 593.120267 329.04 
L 593.585655 187.92 
L 594.051043 288.72 
L 594.51643 228.24 
L 594.981818 107.28 
L 595.447206 167.76 
L 595.912594 147.6 
L 596.377982 87.12 
L 596.843369 228.24 
L 597.308757 187.92 
L 598.239533 268.56 
L 598.704921 187.92 
L 599.170309 288.72 
L 599.635696 288.72 
L 600.101084 228.24 
L 600.566472 187.92 
L 601.03186 329.04 
L 601.497248 127.44 
L 601.962636 288.72 
L 602.428023 187.92 
L 602.893411 329.04 
L 603.824187 147.6 
L 604.289575 268.56 
L 604.754962 187.92 
L 605.22035 147.6 
L 605.685738 228.24 
L 606.151126 329.04 
L 606.616514 288.72 
L 607.081902 187.92 
L 607.547289 268.56 
L 608.012677 187.92 
L 608.478065 268.56 
L 608.943453 288.72 
L 609.408841 228.24 
L 609.874229 288.72 
L 610.339616 268.56 
L 610.805004 288.72 
L 611.270392 87.12 
L 611.73578 288.72 
L 612.201168 228.24 
L 612.666555 329.04 
L 613.131943 228.24 
L 613.597331 187.92 
L 614.062719 187.92 
L 614.993495 268.56 
L 615.458882 147.6 
L 615.92427 288.72 
L 616.389658 167.76 
L 616.855046 147.6 
L 617.320434 208.08 
L 617.785822 288.72 
L 618.251209 228.24 
L 618.716597 288.72 
L 619.181985 329.04 
L 619.647373 228.24 
L 620.112761 288.72 
L 620.578148 268.56 
L 621.043536 228.24 
L 621.508924 288.72 
L 621.974312 288.72 
L 622.4397 268.56 
L 622.905088 87.12 
L 623.370475 268.56 
L 623.835863 248.4 
L 624.301251 288.72 
L 624.766639 187.92 
L 625.232027 268.56 
L 625.697415 268.56 
L 626.162802 228.24 
L 626.62819 167.76 
L 627.093578 187.92 
L 628.024354 187.92 
L 628.489741 268.56 
L 628.955129 288.72 
L 629.420517 107.28 
L 629.885905 268.56 
L 630.351293 268.56 
L 630.816681 187.92 
L 631.282068 268.56 
L 631.747456 288.72 
L 632.212844 288.72 
L 632.678232 147.6 
L 633.14362 167.76 
L 633.609008 329.04 
L 634.074395 187.92 
L 634.539783 208.08 
L 635.005171 288.72 
L 635.935947 87.12 
L 636.401334 228.24 
L 636.866722 288.72 
L 637.33211 268.56 
L 637.797498 228.24 
L 638.262886 329.04 
L 638.728274 288.72 
L 639.193661 349.2 
L 639.659049 187.92 
L 640.124437 228.24 
L 640.589825 187.92 
L 641.055213 288.72 
L 641.520601 66.96 
L 641.985988 228.24 
L 642.451376 288.72 
L 642.916764 268.56 
L 643.382152 187.92 
L 643.84754 147.6 
L 644.312927 167.76 
L 644.778315 268.56 
L 645.243703 87.12 
L 645.709091 268.56 
L 646.174479 228.24 
L 646.639867 329.04 
L 647.105254 349.2 
L 647.570642 187.92 
L 648.03603 228.24 
L 648.501418 329.04 
L 648.966806 248.4 
L 649.432193 329.04 
L 649.897581 288.72 
L 650.362969 228.24 
L 650.828357 268.56 
L 651.293745 288.72 
L 651.759133 187.92 
L 652.22452 288.72 
L 652.689908 288.72 
L 653.155296 228.24 
L 653.620684 288.72 
L 654.086072 288.72 
L 654.55146 369.36 
L 655.016847 147.6 
L 655.947623 147.6 
L 656.413011 268.56 
L 656.878399 228.24 
L 657.343786 288.72 
L 657.809174 288.72 
L 658.274562 329.04 
L 659.205338 288.72 
L 659.670726 288.72 
L 660.136113 268.56 
L 660.601501 228.24 
L 661.066889 268.56 
L 661.532277 187.92 
L 661.997665 288.72 
L 663.393828 288.72 
L 663.859216 187.92 
L 664.324604 147.6 
L 664.789992 87.12 
L 665.255379 87.12 
L 665.720767 228.24 
L 666.186155 268.56 
L 666.651543 187.92 
L 667.116931 329.04 
L 667.582319 187.92 
L 668.047706 268.56 
L 668.513094 288.72 
L 669.44387 288.72 
L 669.909258 228.24 
L 670.374646 308.88 
L 670.840033 288.72 
L 671.305421 187.92 
L 671.770809 288.72 
L 672.236197 187.92 
L 672.701585 228.24 
L 673.166972 187.92 
L 673.63236 308.88 
L 674.097748 329.04 
L 674.563136 329.04 
L 675.028524 187.92 
L 675.493912 147.6 
L 675.959299 87.12 
L 676.424687 288.72 
L 676.890075 147.6 
L 677.820851 147.6 
L 678.286239 87.12 
L 678.751626 288.72 
L 679.217014 288.72 
L 679.682402 308.88 
L 680.14779 228.24 
L 680.613178 228.24 
L 681.078565 187.92 
L 681.543953 248.4 
L 682.009341 187.92 
L 682.940117 187.92 
L 683.405505 107.28 
L 683.870892 147.6 
L 684.33628 147.6 
L 685.267056 228.24 
L 685.732444 288.72 
L 686.663219 288.72 
L 687.128607 329.04 
L 687.593995 288.72 
L 688.059383 288.72 
L 688.524771 87.12 
L 688.990158 288.72 
L 689.455546 329.04 
L 689.920934 228.24 
L 690.85171 349.2 
L 691.317098 228.24 
L 692.247873 147.6 
L 692.713261 228.24 
L 693.178649 187.92 
L 693.644037 187.92 
L 694.109425 329.04 
L 694.574812 288.72 
L 695.0402 147.6 
L 695.505588 187.92 
L 695.970976 187.92 
L 696.436364 288.72 
L 698.297915 288.72 
L 698.763303 308.88 
L 699.228691 187.92 
L 699.694078 228.24 
L 700.159466 228.24 
L 700.624854 147.6 
L 701.090242 288.72 
L 701.55563 228.24 
L 702.021018 228.24 
L 702.486405 288.72 
L 702.951793 187.92 
L 703.417181 187.92 
L 703.882569 288.72 
L 704.347957 268.56 
L 704.813344 288.72 
L 705.278732 288.72 
L 705.74412 147.6 
L 706.209508 167.76 
L 706.674896 288.72 
L 707.140284 228.24 
L 707.605671 228.24 
L 708.071059 147.6 
L 708.536447 288.72 
L 709.001835 329.04 
L 709.467223 228.24 
L 709.932611 248.4 
L 710.397998 187.92 
L 710.863386 288.72 
L 711.328774 66.96 
L 711.794162 228.24 
L 712.25955 288.72 
L 712.724937 228.24 
L 713.190325 288.72 
L 713.655713 187.92 
L 714.121101 329.04 
L 714.586489 147.6 
L 715.051877 268.56 
L 715.517264 187.92 
L 715.982652 147.6 
L 716.44804 329.04 
L 716.913428 147.6 
L 717.378816 329.04 
L 717.844204 107.28 
L 718.774979 187.92 
L 719.240367 147.6 
L 719.705755 147.6 
L 720.171143 208.08 
L 720.63653 187.92 
L 721.101918 288.72 
L 721.567306 228.24 
L 722.032694 87.12 
L 722.498082 329.04 
L 722.96347 268.56 
L 723.894245 107.28 
L 724.359633 228.24 
L 724.825021 288.72 
L 725.290409 147.6 
L 725.755796 187.92 
L 726.221184 147.6 
L 726.686572 288.72 
L 727.15196 268.56 
L 727.617348 288.72 
L 728.082736 288.72 
L 728.548123 248.4 
L 729.013511 187.92 
L 729.478899 187.92 
L 729.944287 268.56 
L 730.409675 147.6 
L 730.875063 228.24 
L 731.34045 329.04 
L 731.805838 87.12 
L 732.271226 308.88 
L 732.736614 248.4 
L 733.202002 228.24 
L 733.667389 268.56 
L 734.132777 288.72 
L 734.598165 228.24 
L 735.528941 228.24 
L 735.994329 147.6 
L 736.459716 208.08 
L 736.925104 288.72 
L 737.390492 288.72 
L 737.85588 147.6 
L 738.321268 329.04 
L 738.786656 187.92 
L 739.252043 87.12 
L 739.717431 288.72 
L 740.182819 87.12 
L 740.648207 187.92 
L 741.113595 228.24 
L 742.04437 228.24 
L 742.509758 288.72 
L 742.975146 87.12 
L 743.440534 167.76 
L 743.905922 288.72 
L 744.371309 147.6 
L 744.836697 187.92 
L 745.302085 288.72 
L 745.767473 147.6 
L 746.232861 147.6 
L 747.163636 228.24 
L 747.163636 228.24 
" clip-path="url(#pa87029019b)" style="fill: none; stroke: #1f77b4; stroke-width: 1.5; stroke-linecap: square"/>
   </g>
   <g id="line2d_17">
    <path d="M 138.436364 227.390227 
L 138.901751 225.654881 
L 139.367139 217.979563 
L 139.832527 221.190049 
L 140.297915 245.220738 
L 140.763303 228.958055 
L 141.228691 217.447789 
L 141.694078 234.885685 
L 142.159466 207.811104 
L 142.624854 238.638855 
L 143.090242 237.946678 
L 143.55563 235.807421 
L 144.021018 224.942555 
L 144.486405 245.68002 
L 144.951793 235.988146 
L 145.417181 296.847102 
L 145.882569 281.293266 
L 146.347957 230.861917 
L 146.813344 229.554929 
L 147.278732 297.870314 
L 147.74412 196.014158 
L 148.209508 272.162784 
L 148.674896 280.887076 
L 149.605671 231.045978 
L 150.071059 251.494994 
L 150.536447 199.027691 
L 151.001835 268.557924 
L 151.467223 305.320696 
L 151.932611 299.006498 
L 152.397998 198.629885 
L 152.863386 187.886008 
L 153.328774 281.415803 
L 153.794162 246.337994 
L 154.25955 229.05632 
L 154.724937 219.045245 
L 155.190325 239.973663 
L 155.655713 286.841363 
L 156.121101 251.071953 
L 156.586489 263.899494 
L 157.051877 285.632927 
L 157.517264 251.988162 
L 157.982652 230.327327 
L 158.44804 202.134683 
L 158.913428 217.243897 
L 159.378816 238.466906 
L 159.844204 284.523169 
L 160.309591 305.512226 
L 160.774979 182.620313 
L 161.240367 239.943661 
L 161.705755 228.285797 
L 162.171143 233.399702 
L 162.63653 221.416147 
L 163.101918 302.132071 
L 163.567306 284.911795 
L 164.032694 245.761 
L 164.498082 308.663611 
L 165.428857 200.80841 
L 165.894245 282.076555 
L 166.359633 249.42995 
L 166.825021 292.615328 
L 167.290409 245.728854 
L 167.755796 280.814306 
L 168.221184 296.840354 
L 169.15196 188.452466 
L 169.617348 214.0352 
L 170.082736 209.743575 
L 170.548123 235.884037 
L 171.013511 235.849747 
L 171.478899 279.336868 
L 171.944287 231.211505 
L 172.409675 291.008951 
L 172.875063 256.71 
L 173.34045 273.238838 
L 173.805838 231.92908 
L 174.271226 253.064649 
L 174.736614 189.262653 
L 175.202002 197.311572 
L 175.667389 300.361734 
L 176.132777 294.366102 
L 177.063553 233.824261 
L 177.528941 235.847267 
L 177.994329 224.736567 
L 178.459716 281.619176 
L 178.925104 209.499615 
L 179.390492 155.671702 
L 179.85588 233.596855 
L 180.321268 237.63782 
L 180.786656 170.873663 
L 181.252043 228.20099 
L 181.717431 141.938152 
L 182.182819 158.725822 
L 182.648207 239.565907 
L 183.113595 233.955277 
L 183.578982 171.459577 
L 184.04437 194.112103 
L 184.509758 262.103 
L 184.975146 217.696171 
L 185.440534 218.781598 
L 185.905922 224.657913 
L 186.371309 281.273732 
L 186.836697 248.328412 
L 187.302085 285.301469 
L 187.767473 239.987487 
L 188.232861 282.138098 
L 188.698249 266.655273 
L 189.163636 196.489926 
L 189.629024 216.470739 
L 190.094412 130.542646 
L 190.5598 297.063962 
L 191.025188 242.316793 
L 191.490575 222.358975 
L 191.955963 287.222356 
L 192.421351 299.895184 
L 192.886739 202.605202 
L 193.352127 220.848959 
L 193.817515 224.160938 
L 194.282902 308.025555 
L 194.74829 294.7363 
L 195.213678 192.294739 
L 195.679066 228.563325 
L 196.144454 174.290771 
L 196.609842 234.429267 
L 197.075229 183.782433 
L 197.540617 312.611545 
L 198.006005 293.570883 
L 198.471393 313.056206 
L 198.936781 275.815526 
L 199.402168 218.833951 
L 199.867556 212.356936 
L 200.332944 291.725276 
L 200.798332 287.91337 
L 201.729108 196.950314 
L 202.194495 218.238654 
L 202.659883 145.137121 
L 203.125271 141.824353 
L 203.590659 246.483824 
L 204.056047 222.362166 
L 204.521435 227.342585 
L 204.986822 173.98448 
L 205.45221 194.232651 
L 205.917598 196.01087 
L 206.382986 229.624287 
L 206.848374 253.181553 
L 207.313761 230.662418 
L 207.779149 218.698695 
L 208.244537 271.40245 
L 208.709925 254.605735 
L 209.175313 266.912018 
L 209.640701 195.545965 
L 210.106088 282.747007 
L 210.571476 254.944623 
L 211.036864 217.881357 
L 211.502252 258.33392 
L 211.96764 235.273994 
L 212.433028 286.043721 
L 212.898415 287.929241 
L 213.363803 199.37501 
L 213.829191 233.637797 
L 214.294579 304.015851 
L 214.759967 204.510237 
L 215.225354 275.20803 
L 215.690742 268.766382 
L 216.15613 301.363989 
L 217.086906 193.290458 
L 217.552294 230.790156 
L 218.017681 221.656838 
L 218.483069 206.738366 
L 218.948457 217.618459 
L 219.413845 190.222611 
L 219.879233 189.938526 
L 220.344621 200.271311 
L 220.810008 226.932704 
L 221.275396 285.680838 
L 221.740784 202.138374 
L 222.67156 169.58144 
L 223.136947 272.167754 
L 223.602335 190.909059 
L 224.067723 153.277863 
L 224.533111 251.540579 
L 224.998499 305.42196 
L 225.463887 165.090786 
L 225.929274 300.182701 
L 226.394662 214.861421 
L 226.86005 265.918885 
L 227.325438 215.008981 
L 227.790826 286.460244 
L 228.256214 269.053783 
L 228.721601 218.962804 
L 229.186989 199.040611 
L 229.652377 192.619583 
L 230.117765 167.267928 
L 230.583153 282.683378 
L 231.04854 248.50881 
L 231.513928 245.574998 
L 231.979316 207.203426 
L 232.444704 278.521894 
L 232.910092 195.162424 
L 233.840867 266.572514 
L 234.771643 311.285763 
L 235.237031 190.766824 
L 235.702419 215.070774 
L 236.167807 285.485896 
L 236.633194 253.049499 
L 237.098582 148.200872 
L 237.56397 219.998378 
L 238.029358 256.895868 
L 238.494746 186.977576 
L 239.425521 251.806764 
L 239.890909 206.143819 
L 240.356297 219.3395 
L 240.821685 303.77217 
L 241.287073 284.630287 
L 241.75246 227.662276 
L 242.217848 223.638777 
L 242.683236 220.682365 
L 243.148624 235.530393 
L 243.614012 245.34713 
L 244.079399 234.060348 
L 244.544787 246.292938 
L 245.010175 234.272556 
L 245.475563 183.022311 
L 245.940951 267.67065 
L 246.406339 237.16508 
L 246.871726 220.117791 
L 247.337114 235.457603 
L 247.802502 236.240508 
L 248.26789 233.400586 
L 248.733278 247.793821 
L 249.198666 293.291864 
L 249.664053 250.252365 
L 250.129441 288.4604 
L 250.594829 240.89564 
L 251.060217 234.771857 
L 251.525605 198.691024 
L 251.990992 289.405448 
L 252.45638 228.466531 
L 252.921768 224.342106 
L 253.387156 187.119734 
L 253.852544 236.108146 
L 254.783319 279.718996 
L 255.248707 276.027946 
L 255.714095 240.214114 
L 256.179483 220.997096 
L 256.644871 174.015722 
L 257.110259 197.732411 
L 257.575646 272.645868 
L 258.041034 216.484371 
L 258.506422 227.237956 
L 258.97181 229.97697 
L 259.437198 294.955025 
L 259.902585 222.323868 
L 260.367973 273.452334 
L 260.833361 227.81943 
L 261.298749 255.991752 
L 261.764137 225.253172 
L 262.229525 246.936011 
L 262.694912 193.287074 
L 263.1603 272.305066 
L 263.625688 240.454594 
L 264.091076 260.745841 
L 264.556464 241.136389 
L 265.021852 227.620997 
L 265.487239 225.096518 
L 265.952627 243.438731 
L 266.418015 272.525657 
L 266.883403 234.539144 
L 267.348791 186.674996 
L 267.814178 254.293676 
L 268.279566 229.742479 
L 268.744954 185.66632 
L 269.210342 187.94336 
L 269.67573 229.343356 
L 270.141118 224.240169 
L 270.606505 191.617405 
L 271.071893 242.979785 
L 271.537281 279.359353 
L 272.002669 238.740147 
L 272.468057 145.668452 
L 272.933445 293.593992 
L 273.398832 285.637137 
L 273.86422 287.224913 
L 274.329608 212.491057 
L 274.794996 235.947618 
L 275.260384 247.182384 
L 275.725771 228.459072 
L 276.191159 246.308703 
L 276.656547 245.240175 
L 277.121935 267.811087 
L 278.518098 149.754551 
L 278.983486 258.694092 
L 279.448874 250.201983 
L 279.914262 178.824144 
L 280.37965 255.317907 
L 280.845038 208.493457 
L 281.310425 298.734266 
L 281.775813 159.301854 
L 282.241201 226.306434 
L 282.706589 214.669122 
L 283.171977 164.886644 
L 283.637364 128.205621 
L 284.102752 224.164803 
L 284.56814 276.84116 
L 285.033528 227.846269 
L 285.498916 220.551531 
L 285.964304 245.126001 
L 286.429691 231.26331 
L 286.895079 230.277166 
L 287.360467 190.871837 
L 287.825855 211.704634 
L 288.291243 218.332592 
L 288.756631 231.923091 
L 289.222018 276.137217 
L 289.687406 251.551384 
L 290.152794 202.950041 
L 290.618182 202.821227 
L 291.08357 182.044646 
L 291.548957 217.663737 
L 292.014345 221.698271 
L 292.479733 221.709729 
L 292.945121 280.20903 
L 293.410509 263.095469 
L 293.875897 272.161784 
L 294.341284 250.242646 
L 294.806672 213.330948 
L 295.27206 234.239179 
L 295.737448 286.448209 
L 296.202836 237.00436 
L 296.668224 229.871323 
L 297.133611 239.975 
L 297.598999 198.743511 
L 298.529775 274.56414 
L 298.995163 230.854044 
L 299.46055 199.443051 
L 299.925938 244.082381 
L 300.391326 271.664521 
L 300.856714 216.191884 
L 301.78749 269.74919 
L 302.252877 233.533054 
L 302.718265 223.087816 
L 303.183653 294.458656 
L 303.649041 256.301272 
L 304.114429 265.125223 
L 304.579817 237.857844 
L 305.045204 149.144027 
L 305.510592 231.230933 
L 305.97598 201.754698 
L 306.441368 293.086107 
L 306.906756 199.129724 
L 307.372143 228.085615 
L 307.837531 220.475781 
L 308.302919 292.129504 
L 308.768307 225.644422 
L 309.233695 223.667559 
L 309.699083 260.397157 
L 310.16447 184.297173 
L 310.629858 231.124786 
L 311.095246 167.523212 
L 311.560634 183.275192 
L 312.026022 226.139994 
L 312.49141 258.037445 
L 312.956797 221.572551 
L 313.422185 257.731606 
L 313.887573 255.970824 
L 314.352961 133.067703 
L 314.818349 279.428519 
L 315.283736 283.520414 
L 315.749124 282.7494 
L 316.214512 248.509108 
L 316.6799 304.008094 
L 317.145288 286.904991 
L 317.610676 241.737838 
L 318.076063 241.577503 
L 318.541451 217.797223 
L 319.006839 274.819616 
L 319.472227 241.956179 
L 319.937615 241.714219 
L 320.403003 227.672927 
L 320.86839 267.100779 
L 321.333778 242.115506 
L 321.799166 228.385936 
L 322.264554 234.647916 
L 322.729942 291.295996 
L 323.195329 285.495951 
L 323.660717 211.650705 
L 324.126105 247.301797 
L 324.591493 311.502129 
L 325.056881 252.65374 
L 325.522269 234.178704 
L 325.987656 230.273638 
L 326.453044 163.139859 
L 326.918432 244.527907 
L 327.38382 228.510309 
L 327.849208 249.839908 
L 328.314595 135.032146 
L 328.779983 258.445153 
L 329.245371 159.004138 
L 329.710759 226.119902 
L 330.176147 222.981284 
L 330.641535 231.536368 
L 331.106922 217.093318 
L 331.57231 221.785922 
L 332.037698 234.017128 
L 332.503086 193.620166 
L 332.968474 193.948682 
L 333.433862 223.895715 
L 333.899249 239.996552 
L 334.364637 209.293627 
L 334.830025 271.351943 
L 335.295413 210.59181 
L 335.760801 183.244969 
L 336.226188 230.839404 
L 336.691576 228.070157 
L 337.156964 181.641283 
L 337.622352 210.013374 
L 338.553128 306.505282 
L 339.018515 282.298885 
L 339.483903 278.492767 
L 339.949291 232.871465 
L 340.414679 199.88081 
L 340.880067 208.373986 
L 341.345455 194.506988 
L 341.810842 296.7428 
L 342.27623 244.371205 
L 342.741618 281.767361 
L 343.207006 225.291489 
L 343.672394 195.61364 
L 344.137781 264.505365 
L 344.603169 213.902655 
L 345.068557 263.463821 
L 345.533945 224.044794 
L 345.999333 196.697549 
L 346.464721 222.930508 
L 346.930108 192.732209 
L 347.395496 172.208125 
L 347.860884 171.759543 
L 348.326272 280.242426 
L 348.79166 245.324818 
L 349.257048 197.61171 
L 349.722435 250.561693 
L 350.187823 230.322645 
L 350.653211 204.637706 
L 351.118599 233.686718 
L 351.583987 278.361357 
L 352.049374 298.725336 
L 352.514762 252.637619 
L 352.98015 297.322563 
L 353.445538 236.561929 
L 353.910926 192.637175 
L 354.376314 273.456458 
L 354.841701 234.113229 
L 355.307089 237.666121 
L 355.772477 215.657342 
L 356.237865 228.44744 
L 356.703253 271.79944 
L 357.168641 217.129425 
L 357.634028 279.576819 
L 358.564804 193.181407 
L 359.030192 194.145807 
L 359.960967 237.420306 
L 360.426355 229.551487 
L 360.891743 274.833112 
L 361.357131 267.877263 
L 361.822519 184.483243 
L 362.753294 281.828568 
L 363.218682 291.754307 
L 363.68407 292.435477 
L 364.149458 241.005998 
L 364.614846 207.491932 
L 365.080234 228.360471 
L 365.545621 241.283074 
L 366.011009 216.917707 
L 366.476397 226.069261 
L 366.941785 209.037574 
L 367.407173 244.498674 
L 367.87256 294.33137 
L 368.337948 239.46547 
L 368.803336 254.585989 
L 369.268724 289.456878 
L 369.734112 224.330878 
L 370.664887 195.117589 
L 371.130275 206.878813 
L 371.595663 256.975454 
L 372.061051 216.013582 
L 372.526439 199.255866 
L 372.991827 256.486506 
L 373.457214 268.765844 
L 373.922602 151.917773 
L 374.38799 207.044522 
L 374.853378 214.364581 
L 375.784153 233.592414 
L 376.249541 214.515621 
L 376.714929 304.353586 
L 377.180317 234.419962 
L 377.645705 280.252827 
L 378.111093 224.830121 
L 378.57648 301.483604 
L 379.041868 223.998555 
L 379.507256 240.416305 
L 379.972644 266.732562 
L 380.438032 241.536859 
L 380.90342 293.585254 
L 381.368807 214.178126 
L 381.834195 198.264397 
L 382.299583 216.63195 
L 382.764971 245.33297 
L 383.230359 216.01462 
L 383.695746 245.754242 
L 384.161134 166.792871 
L 384.626522 288.947358 
L 385.557298 231.440305 
L 386.022686 224.242322 
L 386.488073 243.506272 
L 386.953461 203.050651 
L 387.418849 309.307256 
L 387.884237 210.921537 
L 388.349625 269.662933 
L 388.815013 151.330128 
L 389.2804 287.155719 
L 389.745788 239.200275 
L 390.211176 229.873909 
L 390.676564 188.092631 
L 391.141952 204.228844 
L 391.607339 167.559799 
L 392.072727 226.060782 
L 392.538115 238.152079 
L 393.003503 254.972981 
L 393.468891 296.059131 
L 393.934279 229.178031 
L 394.399666 207.149593 
L 394.865054 248.419639 
L 395.330442 211.866729 
L 395.79583 283.023382 
L 396.261218 254.625018 
L 396.726606 242.727827 
L 397.191993 303.380083 
L 397.657381 218.610544 
L 398.122769 248.490276 
L 398.588157 216.889291 
L 399.053545 274.775492 
L 399.518932 209.196151 
L 399.98432 233.937378 
L 400.449708 216.302915 
L 400.915096 205.357761 
L 401.380484 169.885289 
L 401.845872 231.35149 
L 402.311259 176.547931 
L 402.776647 285.875262 
L 403.242035 290.409193 
L 403.707423 164.084359 
L 404.172811 289.354951 
L 404.638198 208.723497 
L 405.103586 182.521318 
L 405.568974 227.325627 
L 406.034362 213.33514 
L 406.49975 292.669113 
L 407.430525 225.399751 
L 407.895913 226.052746 
L 408.361301 236.870575 
L 408.826689 195.565518 
L 409.292077 238.269906 
L 409.757465 226.297705 
L 410.222852 177.076917 
L 410.68824 274.272413 
L 411.153628 287.217703 
L 411.619016 220.474377 
L 412.084404 130.31722 
L 412.549791 161.531944 
L 413.015179 230.264986 
L 413.480567 223.661041 
L 413.945955 267.082188 
L 414.411343 230.246712 
L 414.876731 212.863986 
L 415.342118 234.273507 
L 415.807506 229.012148 
L 416.272894 172.631656 
L 416.738282 226.792373 
L 417.20367 212.977669 
L 417.669058 171.165034 
L 418.134445 295.770826 
L 418.599833 239.705008 
L 419.065221 291.159366 
L 419.530609 226.275576 
L 419.995997 275.594878 
L 420.461384 245.103449 
L 420.926772 166.28934 
L 421.39216 224.740893 
L 421.857548 230.267716 
L 422.322936 277.017704 
L 422.788324 247.042389 
L 423.253711 142.135219 
L 423.719099 184.025586 
L 424.184487 244.371407 
L 424.649875 153.13015 
L 425.115263 231.638103 
L 425.580651 228.281596 
L 426.046038 270.331 
L 426.511426 199.598629 
L 426.976814 211.880803 
L 427.442202 240.252374 
L 427.90759 250.814439 
L 428.372977 231.222195 
L 428.838365 262.319062 
L 429.303753 241.905288 
L 429.769141 212.16531 
L 430.234529 264.755939 
L 430.699917 263.150879 
L 431.165304 190.446979 
L 431.630692 239.124592 
L 432.09608 256.952825 
L 432.561468 280.217105 
L 433.026856 178.759929 
L 433.492244 313.641241 
L 433.957631 256.008507 
L 434.423019 141.313362 
L 434.888407 268.094748 
L 435.353795 205.197473 
L 435.819183 213.736907 
L 436.28457 207.644279 
L 436.749958 147.185467 
L 437.215346 275.034611 
L 437.680734 209.412809 
L 438.61151 291.566257 
L 439.076897 214.351084 
L 439.542285 239.886146 
L 440.007673 248.473732 
L 440.473061 196.978288 
L 440.938449 253.206942 
L 441.869224 234.852981 
L 442.334612 212.986187 
L 442.8 239.446023 
L 443.265388 214.619691 
L 444.196163 257.230988 
L 444.661551 264.611253 
L 445.126939 204.377904 
L 445.592327 288.616814 
L 446.057715 285.522723 
L 446.523103 245.816285 
L 446.98849 264.747537 
L 447.453878 271.274472 
L 447.919266 275.961289 
L 448.384654 241.466732 
L 448.850042 288.216402 
L 449.31543 223.397317 
L 449.780817 222.767183 
L 450.246205 151.958282 
L 450.711593 251.961573 
L 451.176981 253.947886 
L 451.642369 202.8189 
L 452.107756 205.213085 
L 452.573144 208.364104 
L 453.038532 209.786141 
L 453.50392 197.543938 
L 453.969308 230.700447 
L 454.434696 223.303532 
L 454.900083 319.469775 
L 455.365471 167.423986 
L 455.830859 242.980766 
L 456.296247 234.662557 
L 456.761635 219.685935 
L 457.227023 293.296286 
L 458.157798 188.23648 
L 458.623186 245.397156 
L 459.088574 249.385259 
L 459.553962 289.849455 
L 460.019349 265.088338 
L 460.484737 217.626784 
L 460.950125 204.717033 
L 461.415513 158.442122 
L 461.880901 229.194757 
L 462.346289 240.254643 
L 462.811676 243.152637 
L 463.277064 183.964274 
L 464.20784 313.388341 
L 464.673228 166.22549 
L 465.138616 220.547436 
L 465.604003 257.938123 
L 466.069391 242.497143 
L 466.534779 217.568356 
L 467.000167 284.121498 
L 467.465555 241.801438 
L 467.930942 258.52696 
L 468.39633 222.324214 
L 468.861718 201.090226 
L 469.327106 195.528988 
L 469.792494 205.356165 
L 470.257882 225.029207 
L 470.723269 202.326482 
L 471.188657 138.077672 
L 471.654045 248.949433 
L 472.119433 249.195104 
L 472.584821 214.75039 
L 473.050209 210.318146 
L 473.515596 213.842823 
L 473.980984 238.98802 
L 474.446372 248.826752 
L 474.91176 265.672186 
L 475.377148 203.274366 
L 475.842535 198.409362 
L 476.307923 196.261482 
L 476.773311 284.955756 
L 477.238699 249.748921 
L 477.704087 272.297751 
L 478.169475 288.828089 
L 478.634862 244.895654 
L 479.10025 275.647769 
L 479.565638 237.034804 
L 480.031026 257.332367 
L 480.496414 201.755275 
L 480.961802 196.929377 
L 481.427189 251.290227 
L 481.892577 215.715751 
L 482.357965 236.104032 
L 482.823353 271.004624 
L 483.288741 221.326765 
L 483.754128 210.99225 
L 484.219516 252.023625 
L 485.150292 171.352373 
L 485.61568 244.821182 
L 486.081068 263.344764 
L 486.546455 249.939278 
L 487.011843 222.946946 
L 487.477231 174.321148 
L 487.942619 178.868037 
L 488.408007 171.847617 
L 488.873394 231.335667 
L 489.338782 269.135533 
L 490.269558 172.188918 
L 491.665721 293.497074 
L 492.131109 240.957654 
L 492.596497 224.825776 
L 493.061885 122.413477 
L 493.527273 228.952701 
L 493.992661 244.767137 
L 494.458048 309.625626 
L 494.923436 234.250946 
L 495.388824 258.525297 
L 495.854212 155.715307 
L 496.3196 239.516439 
L 496.784987 212.900823 
L 497.250375 246.018341 
L 497.715763 233.490179 
L 498.181151 231.46228 
L 498.646539 277.43961 
L 499.111927 301.023486 
L 499.577314 282.25034 
L 500.042702 181.776808 
L 500.50809 246.960246 
L 500.973478 270.433591 
L 501.438866 205.364817 
L 502.369641 245.664956 
L 502.835029 288.970093 
L 503.300417 205.116281 
L 503.765805 231.662462 
L 504.231193 212.914819 
L 504.69658 222.158466 
L 505.161968 192.734517 
L 505.627356 286.334948 
L 506.092744 160.47226 
L 506.558132 193.605266 
L 507.02352 242.887875 
L 507.488907 187.246165 
L 507.954295 241.82424 
L 508.419683 253.623349 
L 508.885071 215.117147 
L 509.350459 219.880503 
L 509.815847 217.893181 
L 510.281234 310.323748 
L 510.746622 215.728363 
L 511.21201 258.14936 
L 511.677398 232.847384 
L 512.142786 221.885321 
L 512.608173 286.58506 
L 513.073561 291.270723 
L 513.538949 209.459259 
L 514.004337 206.947007 
L 514.469725 229.246937 
L 514.935113 298.997586 
L 515.4005 210.299804 
L 515.865888 199.712851 
L 516.331276 219.895922 
L 516.796664 172.574344 
L 517.262052 256.555153 
L 517.72744 132.262841 
L 518.192827 230.831185 
L 518.658215 190.499851 
L 519.123603 245.887844 
L 519.588991 226.538935 
L 520.054379 253.322058 
L 520.519766 210.038925 
L 520.985154 225.765835 
L 521.450542 233.400278 
L 521.91593 281.246296 
L 522.381318 209.631121 
L 522.846706 224.006072 
L 523.312093 263.450632 
L 523.777481 214.062231 
L 524.242869 226.116615 
L 524.708257 298.722654 
L 525.639033 257.651981 
L 526.10442 295.906062 
L 526.569808 224.072306 
L 527.035196 239.426489 
L 527.500584 178.27747 
L 527.965972 221.356815 
L 528.431359 207.912387 
L 528.896747 190.426042 
L 529.362135 213.677575 
L 530.292911 244.807387 
L 530.758299 166.798908 
L 531.223686 265.933295 
L 531.689074 199.634274 
L 532.154462 213.406315 
L 532.61985 274.849983 
L 533.085238 171.654222 
L 533.550626 305.958819 
L 534.016013 209.82963 
L 534.481401 232.964308 
L 534.946789 235.185852 
L 535.412177 301.353694 
L 535.877565 217.009281 
L 536.342952 279.193778 
L 536.80834 261.203652 
L 537.273728 190.178006 
L 537.739116 254.6995 
L 538.204504 279.309683 
L 538.669892 119.604779 
L 539.135279 288.040147 
L 539.600667 197.913867 
L 540.066055 234.880503 
L 540.531443 238.027869 
L 540.996831 235.989146 
L 541.462219 244.231902 
L 541.927606 204.070421 
L 542.392994 286.47774 
L 542.858382 229.001545 
L 543.32377 225.566845 
L 543.789158 241.264291 
L 544.719933 135.405151 
L 545.185321 277.923886 
L 545.650709 289.020311 
L 546.116097 162.442068 
L 546.581485 231.651148 
L 547.046872 240.666148 
L 547.51226 194.825833 
L 547.977648 189.294241 
L 548.443036 232.529549 
L 548.908424 204.732933 
L 549.373812 220.701937 
L 549.839199 208.285296 
L 550.304587 218.043509 
L 550.769975 274.41111 
L 551.235363 227.116294 
L 551.700751 236.757689 
L 552.166138 207.442098 
L 552.631526 236.97106 
L 553.096914 212.61074 
L 553.562302 254.110269 
L 554.02769 243.754807 
L 554.493078 193.622011 
L 554.958465 223.154396 
L 555.423853 229.46101 
L 555.889241 113.797601 
L 556.354629 238.945818 
L 556.820017 298.805691 
L 557.285405 268.393906 
L 557.750792 176.785334 
L 558.21618 298.2244 
L 558.681568 236.808629 
L 559.146956 201.324861 
L 559.612344 311.354929 
L 560.077731 226.437421 
L 560.543119 275.159062 
L 561.008507 245.690219 
L 561.473895 199.550871 
L 561.939283 299.758256 
L 562.404671 231.027781 
L 562.870058 189.827726 
L 563.335446 202.59234 
L 563.800834 224.59391 
L 564.266222 268.024314 
L 564.73161 283.273618 
L 565.196997 231.268155 
L 565.662385 235.833828 
L 566.127773 162.550157 
L 567.058549 288.762653 
L 567.523937 153.010256 
L 567.989324 180.039271 
L 568.454712 217.955531 
L 568.9201 206.172139 
L 569.385488 150.579945 
L 569.850876 210.254757 
L 570.316264 190.293863 
L 570.781651 285.557224 
L 571.247039 247.022077 
L 571.712427 195.196704 
L 572.177815 270.134692 
L 572.643203 222.906437 
L 573.10859 163.475066 
L 573.573978 312.292479 
L 574.039366 245.235994 
L 574.504754 252.842146 
L 574.970142 263.347696 
L 575.43553 284.607293 
L 575.900917 209.148047 
L 576.366305 252.724338 
L 576.831693 177.177796 
L 577.297081 228.367296 
L 577.762469 209.114709 
L 578.227857 251.368871 
L 578.693244 237.664689 
L 579.158632 233.484489 
L 579.62402 192.886191 
L 580.089408 230.967055 
L 580.554796 247.261547 
L 581.020183 212.900361 
L 581.485571 203.199153 
L 581.950959 217.664179 
L 582.416347 195.584359 
L 582.881735 144.719415 
L 583.347123 202.063661 
L 583.81251 218.56294 
L 584.743286 278.971852 
L 585.208674 195.175055 
L 585.674062 206.692204 
L 586.13945 281.001875 
L 586.604837 239.3348 
L 587.070225 295.606174 
L 587.535613 247.32582 
L 588.001001 310.950201 
L 588.466389 188.663011 
L 588.931776 266.663309 
L 589.862552 230.023584 
L 590.32794 233.859762 
L 590.793328 211.884244 
L 591.258716 227.102912 
L 591.724103 228.861742 
L 592.189491 259.579828 
L 592.654879 200.25097 
L 593.120267 290.114092 
L 593.585655 249.091985 
L 594.051043 240.637559 
L 594.51643 251.185618 
L 594.981818 195.967458 
L 595.447206 217.479743 
L 595.912594 191.169418 
L 596.377982 207.151496 
L 596.843369 148.574608 
L 597.308757 205.606604 
L 597.774145 165.459158 
L 598.239533 249.045583 
L 598.704921 218.948192 
L 599.170309 199.385777 
L 599.635696 287.196824 
L 600.101084 217.713897 
L 600.566472 199.36657 
L 601.03186 274.551287 
L 601.497248 245.969084 
L 601.962636 256.5331 
L 602.428023 222.420517 
L 602.893411 299.468952 
L 603.358799 282.544316 
L 603.824187 213.127575 
L 604.289575 229.631199 
L 604.754962 219.990995 
L 605.22035 141.908794 
L 606.151126 295.079216 
L 607.081902 193.292611 
L 607.547289 237.809788 
L 608.012677 190.115252 
L 608.478065 250.233956 
L 608.943453 236.408178 
L 609.408841 198.48344 
L 609.874229 242.979516 
L 610.339616 252.416413 
L 610.805004 295.055655 
L 611.270392 167.060498 
L 611.73578 310.292535 
L 612.201168 229.262923 
L 612.666555 299.174803 
L 613.131943 229.251455 
L 613.597331 278.013288 
L 614.062719 217.803625 
L 614.528107 231.117855 
L 614.993495 205.788829 
L 615.458882 151.097896 
L 615.92427 295.705179 
L 616.389658 217.450519 
L 616.855046 182.392119 
L 617.320434 212.958289 
L 617.785822 193.208997 
L 618.251209 226.010698 
L 618.716597 274.968243 
L 619.181985 292.115911 
L 619.647373 218.513741 
L 620.112761 205.235483 
L 620.578148 285.666582 
L 621.043536 224.985026 
L 621.508924 247.817536 
L 621.974312 241.707404 
L 622.4397 277.496789 
L 622.905088 207.897794 
L 623.370475 211.360853 
L 623.835863 220.233609 
L 624.301251 300.125686 
L 624.766639 301.292545 
L 625.232027 179.410943 
L 625.697415 252.368233 
L 626.162802 243.852572 
L 626.62819 146.323523 
L 627.093578 205.245923 
L 627.558966 183.152587 
L 628.489741 236.965879 
L 628.955129 244.301885 
L 629.420517 280.595446 
L 629.885905 213.605478 
L 630.351293 256.848168 
L 630.816681 150.378687 
L 631.282068 236.44564 
L 631.747456 220.450768 
L 632.212844 294.827172 
L 632.678232 128.260934 
L 633.14362 242.353025 
L 633.609008 235.087578 
L 634.074395 182.81244 
L 634.539783 226.21338 
L 635.470559 271.134525 
L 635.935947 172.737381 
L 636.401334 237.971806 
L 636.866722 259.922686 
L 637.33211 215.088577 
L 637.797498 215.567691 
L 638.262886 290.440618 
L 638.728274 165.434299 
L 639.193661 273.112446 
L 639.659049 166.868352 
L 640.124437 237.827092 
L 640.589825 225.154657 
L 641.055213 236.086392 
L 641.520601 137.885757 
L 641.985988 206.371744 
L 642.451376 233.662983 
L 642.916764 249.925743 
L 643.382152 245.112399 
L 643.84754 198.594932 
L 644.312927 132.601913 
L 644.778315 230.429859 
L 645.243703 175.452391 
L 645.709091 221.903028 
L 646.174479 205.801364 
L 646.639867 271.965284 
L 647.105254 258.273108 
L 647.570642 235.773535 
L 648.03603 246.585712 
L 648.501418 265.754387 
L 648.966806 214.599216 
L 649.432193 275.308727 
L 650.828357 154.047099 
L 651.293745 232.223172 
L 651.759133 136.49973 
L 652.22452 241.675056 
L 652.689908 289.24965 
L 653.155296 227.686904 
L 653.620684 246.900578 
L 654.086072 250.353023 
L 654.55146 259.570359 
L 655.016847 228.499975 
L 655.947623 128.411301 
L 656.413011 204.647127 
L 656.878399 228.00548 
L 657.343786 226.551143 
L 657.809174 234.107894 
L 658.274562 305.556264 
L 658.73995 216.229991 
L 659.205338 286.766938 
L 659.670726 309.804664 
L 660.136113 229.859143 
L 660.601501 197.435215 
L 661.066889 252.451405 
L 661.532277 181.502375 
L 662.463053 267.864564 
L 662.92844 223.14684 
L 663.393828 256.13465 
L 663.859216 177.986445 
L 664.324604 185.102034 
L 664.789992 230.193581 
L 665.255379 204.407358 
L 666.186155 283.57814 
L 666.651543 295.494836 
L 667.116931 292.345144 
L 667.582319 227.837867 
L 668.047706 231.0119 
L 668.513094 264.298964 
L 668.978482 229.359304 
L 669.909258 255.756396 
L 670.374646 227.394072 
L 670.840033 256.513211 
L 671.305421 175.338169 
L 671.770809 262.405359 
L 672.236197 260.965037 
L 672.701585 206.096792 
L 673.166972 221.415109 
L 673.63236 146.444705 
L 674.097748 289.4834 
L 675.028524 185.051297 
L 675.493912 223.074608 
L 675.959299 242.122264 
L 676.424687 284.637093 
L 677.355463 161.714207 
L 677.820851 211.271067 
L 678.286239 173.663731 
L 679.217014 267.656442 
L 679.682402 276.048104 
L 680.14779 210.635722 
L 680.613178 215.831299 
L 681.078565 216.175196 
L 681.543953 234.780066 
L 682.009341 195.512857 
L 682.474729 207.698882 
L 682.940117 248.337957 
L 683.405505 209.160063 
L 683.870892 213.780108 
L 684.33628 257.992571 
L 684.801668 159.105921 
L 685.267056 238.341053 
L 685.732444 247.501008 
L 686.197832 263.945415 
L 686.663219 295.626756 
L 687.128607 289.84858 
L 687.593995 233.547021 
L 688.059383 263.830184 
L 688.524771 225.871386 
L 689.455546 299.248554 
L 689.920934 190.310435 
L 690.386322 255.845989 
L 690.85171 293.86584 
L 691.782485 211.572378 
L 692.247873 218.407055 
L 692.713261 192.956828 
L 693.178649 220.110966 
L 693.644037 158.170995 
L 694.109425 250.717386 
L 694.574812 240.859216 
L 695.0402 187.071938 
L 695.505588 226.839419 
L 695.970976 205.86581 
L 696.436364 260.68947 
L 696.901751 255.011193 
L 697.367139 252.780748 
L 697.832527 255.461247 
L 698.297915 239.615943 
L 698.763303 281.585656 
L 699.228691 211.116355 
L 699.694078 252.901651 
L 700.159466 275.794358 
L 701.090242 209.336578 
L 701.55563 245.053779 
L 702.021018 234.780701 
L 702.486405 277.634822 
L 703.417181 214.758715 
L 703.882569 172.620044 
L 705.278732 303.959615 
L 706.209508 153.18529 
L 706.674896 241.002345 
L 707.140284 253.147581 
L 707.605671 231.024397 
L 708.071059 232.172818 
L 708.536447 150.236645 
L 709.001835 290.140557 
L 709.467223 217.988734 
L 709.932611 274.680207 
L 710.397998 203.678056 
L 710.863386 216.163603 
L 711.328774 209.652501 
L 711.794162 227.462805 
L 712.25955 279.371148 
L 712.724937 193.679324 
L 713.190325 239.880225 
L 713.655713 227.873436 
L 714.121101 267.250935 
L 714.586489 208.292929 
L 715.051877 242.301518 
L 715.517264 242.046032 
L 715.982652 199.429401 
L 716.44804 296.605344 
L 716.913428 242.146681 
L 717.378816 283.569767 
L 717.844204 221.475536 
L 718.309591 197.218941 
L 718.774979 247.139327 
L 719.240367 153.01014 
L 719.705755 220.260641 
L 720.171143 236.047209 
L 720.63653 257.788659 
L 721.101918 265.291731 
L 721.567306 190.933322 
L 722.032694 163.963235 
L 722.498082 217.661872 
L 722.96347 233.23504 
L 723.428857 186.111942 
L 723.894245 248.120636 
L 724.359633 243.852678 
L 724.825021 323.079643 
L 725.290409 145.074463 
L 725.755796 218.936849 
L 726.221184 164.043984 
L 726.686572 312.691661 
L 727.15196 249.153662 
L 727.617348 321.98617 
L 728.082736 287.553275 
L 728.548123 240.268361 
L 729.013511 253.643354 
L 729.478899 204.064654 
L 729.944287 206.852165 
L 730.409675 174.217308 
L 731.34045 283.424159 
L 731.805838 164.025181 
L 732.271226 226.368034 
L 732.736614 218.119875 
L 733.667389 267.597956 
L 734.132777 273.023622 
L 734.598165 225.522279 
L 735.063553 258.690843 
L 735.528941 243.115521 
L 735.994329 169.696469 
L 736.459716 208.369122 
L 737.390492 313.240839 
L 737.85588 202.247309 
L 738.321268 279.361872 
L 738.786656 168.070693 
L 739.252043 143.274172 
L 739.717431 288.064074 
L 740.182819 148.809743 
L 741.113595 246.293466 
L 741.578982 235.09399 
L 742.04437 263.578245 
L 742.509758 245.112043 
L 742.975146 139.883365 
L 743.440534 217.400186 
L 744.371309 189.552659 
L 744.836697 222.72402 
L 745.302085 211.424626 
L 745.767473 235.363857 
L 746.232861 251.973829 
L 746.698249 207.009915 
L 747.163636 247.468343 
L 747.163636 247.468343 
" clip-path="url(#pa87029019b)" style="fill: none; stroke: #ff7f0e; stroke-width: 1.5; stroke-linecap: square"/>
   </g>
   <g id="patch_3">
    <path d="M 108 384.48 
L 108 51.84 
" style="fill: none; stroke: #000000; stroke-width: 0.8; stroke-linejoin: miter; stroke-linecap: square"/>
   </g>
   <g id="patch_4">
    <path d="M 777.6 384.48 
L 777.6 51.84 
" style="fill: none; stroke: #000000; stroke-width: 0.8; stroke-linejoin: miter; stroke-linecap: square"/>
   </g>
   <g id="patch_5">
    <path d="M 108 384.48 
L 777.6 384.48 
" style="fill: none; stroke: #000000; stroke-width: 0.8; stroke-linejoin: miter; stroke-linecap: square"/>
   </g>
   <g id="patch_6">
    <path d="M 108 51.84 
L 777.6 51.84 
" style="fill: none; stroke: #000000; stroke-width: 0.8; stroke-linejoin: miter; stroke-linecap: square"/>
   </g>
   <g id="text_16">
    <!-- Regresso: Real vs Previsto -->
    <g transform="translate(360.520313 45.84) scale(0.12 -0.12)">
     <defs>
      <path id="DejaVuSans-52" d="M 2841 2188 
Q 3044 2119 3236 1894 
Q 3428 1669 3622 1275 
L 4263 0 
L 3584 0 
L 2988 1197 
Q 2756 1666 2539 1819 
Q 2322 1972 1947 1972 
L 1259 1972 
L 1259 0 
L 628 0 
L 628 4666 
L 2053 4666 
Q 2853 4666 3247 4331 
Q 3641 3997 3641 3322 
Q 3641 2881 3436 2590 
Q 3231 2300 2841 2188 
z
M 1259 4147 
L 1259 2491 
L 2053 2491 
Q 2509 2491 2742 2702 
Q 2975 2913 2975 3322 
Q 2975 3731 2742 3939 
Q 2509 4147 2053 4147 
L 1259 4147 
z
" transform="scale(0.015625)"/>
      <path id="DejaVuSans-65" d="M 3597 1894 
L 3597 1613 
L 953 1613 
Q 991 1019 1311 708 
Q 1631 397 2203 397 
Q 2534 397 2845 478 
Q 3156 559 3463 722 
L 3463 178 
Q 3153 47 2828 -22 
Q 2503 -91 2169 -91 
Q 1331 -91 842 396 
Q 353 884 353 1716 
Q 353 2575 817 3079 
Q 1281 3584 2069 3584 
Q 2775 3584 3186 3129 
Q 3597 2675 3597 1894 
z
M 3022 2063 
Q 3016 2534 2758 2815 
Q 2500 3097 2075 3097 
Q 1594 3097 1305 2825 
Q 1016 2553 972 2059 
L 3022 2063 
z
" transform="scale(0.015625)"/>
      <path id="DejaVuSans-67" d="M 2906 1791 
Q 2906 2416 2648 2759 
Q 2391 3103 1925 3103 
Q 1463 3103 1205 2759 
Q 947 2416 947 1791 
Q 947 1169 1205 825 
Q 1463 481 1925 481 
Q 2391 481 2648 825 
Q 2906 1169 2906 1791 
z
M 3481 434 
Q 3481 -459 3084 -895 
Q 2688 -1331 1869 -1331 
Q 1566 -1331 1297 -1286 
Q 1028 -1241 775 -1147 
L 775 -588 
Q 1028 -725 1275 -790 
Q 1522 -856 1778 -856 
Q 2344 -856 2625 -561 
Q 2906 -266 2906 331 
L 2906 616 
Q 2728 306 2450 153 
Q 2172 0 1784 0 
Q 1141 0 747 490 
Q 353 981 353 1791 
Q 353 2603 747 3093 
Q 1141 3584 1784 3584 
Q 2172 3584 2450 3431 
Q 2728 3278 2906 2969 
L 2906 3500 
L 3481 3500 
L 3481 434 
z
" transform="scale(0.015625)"/>
      <path id="DejaVuSans-72" d="M 2631 2963 
Q 2534 3019 2420 3045 
Q 2306 3072 2169 3072 
Q 1681 3072 1420 2755 
Q 1159 2438 1159 1844 
L 1159 0 
L 581 0 
L 581 3500 
L 1159 3500 
L 1159 2956 
Q 1341 3275 1631 3429 
Q 1922 3584 2338 3584 
Q 2397 3584 2469 3576 
Q 2541 3569 2628 3553 
L 2631 2963 
z
" transform="scale(0.015625)"/>
      <path id="DejaVuSans-73" d="M 2834 3397 
L 2834 2853 
Q 2591 2978 2328 3040 
Q 2066 3103 1784 3103 
Q 1356 3103 1142 2972 
Q 928 2841 928 2578 
Q 928 2378 1081 2264 
Q 1234 2150 1697 2047 
L 1894 2003 
Q 2506 1872 2764 1633 
Q 3022 1394 3022 966 
Q 3022 478 2636 193 
Q 2250 -91 1575 -91 
Q 1294 -91 989 -36 
Q 684 19 347 128 
L 347 722 
Q 666 556 975 473 
Q 1284 391 1588 391 
Q 1994 391 2212 530 
Q 2431 669 2431 922 
Q 2431 1156 2273 1281 
Q 2116 1406 1581 1522 
L 1381 1569 
Q 847 1681 609 1914 
Q 372 2147 372 2553 
Q 372 3047 722 3315 
Q 1072 3584 1716 3584 
Q 2034 3584 2315 3537 
Q 2597 3491 2834 3397 
z
" transform="scale(0.015625)"/>
      <path id="DejaVuSans-e3" d="M 2194 1759 
Q 1497 1759 1228 1600 
Q 959 1441 959 1056 
Q 959 750 1161 570 
Q 1363 391 1709 391 
Q 2188 391 2477 730 
Q 2766 1069 2766 1631 
L 2766 1759 
L 2194 1759 
z
M 3341 1997 
L 3341 0 
L 2766 0 
L 2766 531 
Q 2569 213 2275 61 
Q 1981 -91 1556 -91 
Q 1019 -91 701 211 
Q 384 513 384 1019 
Q 384 1609 779 1909 
Q 1175 2209 1959 2209 
L 2766 2209 
L 2766 2266 
Q 2766 2663 2505 2880 
Q 2244 3097 1772 3097 
Q 1472 3097 1187 3025 
Q 903 2953 641 2809 
L 641 3341 
Q 956 3463 1253 3523 
Q 1550 3584 1831 3584 
Q 2591 3584 2966 3190 
Q 3341 2797 3341 1997 
z
M 1844 4281 
L 1665 4453 
Q 1597 4516 1545 4545 
Q 1494 4575 1453 4575 
Q 1334 4575 1278 4461 
Q 1222 4347 1215 4091 
L 825 4091 
Q 831 4513 990 4742 
Q 1150 4972 1434 4972 
Q 1553 4972 1653 4928 
Q 1753 4884 1869 4781 
L 2047 4609 
Q 2115 4547 2167 4517 
Q 2219 4488 2259 4488 
Q 2378 4488 2434 4602 
Q 2490 4716 2497 4972 
L 2887 4972 
Q 2881 4550 2721 4320 
Q 2562 4091 2278 4091 
Q 2159 4091 2059 4134 
Q 1959 4178 1844 4281 
z
" transform="scale(0.015625)"/>
      <path id="DejaVuSans-6f" d="M 1959 3097 
Q 1497 3097 1228 2736 
Q 959 2375 959 1747 
Q 959 1119 1226 758 
Q 1494 397 1959 397 
Q 2419 397 2687 759 
Q 2956 1122 2956 1747 
Q 2956 2369 2687 2733 
Q 2419 3097 1959 3097 
z
M 1959 3584 
Q 2709 3584 3137 3096 
Q 3566 2609 3566 1747 
Q 3566 888 3137 398 
Q 2709 -91 1959 -91 
Q 1206 -91 779 398 
Q 353 888 353 1747 
Q 353 2609 779 3096 
Q 1206 3584 1959 3584 
z
" transform="scale(0.015625)"/>
      <path id="DejaVuSans-3a" d="M 750 794 
L 1409 794 
L 1409 0 
L 750 0 
L 750 794 
z
M 750 3309 
L 1409 3309 
L 1409 2516 
L 750 2516 
L 750 3309 
z
" transform="scale(0.015625)"/>
      <path id="DejaVuSans-20" transform="scale(0.015625)"/>
      <path id="DejaVuSans-61" d="M 2194 1759 
Q 1497 1759 1228 1600 
Q 959 1441 959 1056 
Q 959 750 1161 570 
Q 1363 391 1709 391 
Q 2188 391 2477 730 
Q 2766 1069 2766 1631 
L 2766 1759 
L 2194 1759 
z
M 3341 1997 
L 3341 0 
L 2766 0 
L 2766 531 
Q 2569 213 2275 61 
Q 1981 -91 1556 -91 
Q 1019 -91 701 211 
Q 384 513 384 1019 
Q 384 1609 779 1909 
Q 1175 2209 1959 2209 
L 2766 2209 
L 2766 2266 
Q 2766 2663 2505 2880 
Q 2244 3097 1772 3097 
Q 1472 3097 1187 3025 
Q 903 2953 641 2809 
L 641 3341 
Q 956 3463 1253 3523 
Q 1550 3584 1831 3584 
Q 2591 3584 2966 3190 
Q 3341 2797 3341 1997 
z
" transform="scale(0.015625)"/>
      <path id="DejaVuSans-6c" d="M 603 4863 
L 1178 4863 
L 1178 0 
L 603 0 
L 603 4863 
z
" transform="scale(0.015625)"/>
      <path id="DejaVuSans-76" d="M 191 3500 
L 800 3500 
L 1894 563 
L 2988 3500 
L 3597 3500 
L 2284 0 
L 1503 0 
L 191 3500 
z
" transform="scale(0.015625)"/>
      <path id="DejaVuSans-50" d="M 1259 4147 
L 1259 2394 
L 2053 2394 
Q 2494 2394 2734 2622 
Q 2975 2850 2975 3272 
Q 2975 3691 2734 3919 
Q 2494 4147 2053 4147 
L 1259 4147 
z
M 628 4666 
L 2053 4666 
Q 2838 4666 3239 4311 
Q 3641 3956 3641 3272 
Q 3641 2581 3239 2228 
Q 2838 1875 2053 1875 
L 1259 1875 
L 1259 0 
L 628 0 
L 628 4666 
z
" transform="scale(0.015625)"/>
      <path id="DejaVuSans-69" d="M 603 3500 
L 1178 3500 
L 1178 0 
L 603 0 
L 603 3500 
z
M 603 4863 
L 1178 4863 
L 1178 4134 
L 603 4134 
L 603 4863 
z
" transform="scale(0.015625)"/>
      <path id="DejaVuSans-74" d="M 1172 4494 
L 1172 3500 
L 2356 3500 
L 2356 3053 
L 1172 3053 
L 1172 1153 
Q 1172 725 1289 603 
Q 1406 481 1766 481 
L 2356 481 
L 2356 0 
L 1766 0 
Q 1100 0 847 248 
Q 594 497 594 1153 
L 594 3053 
L 172 3053 
L 172 3500 
L 594 3500 
L 594 4494 
L 1172 4494 
z
" transform="scale(0.015625)"/>
     </defs>
     <use xlink:href="#DejaVuSans-52"/>
     <use xlink:href="#DejaVuSans-65" x="64.982422"/>
     <use xlink:href="#DejaVuSans-67" x="126.505859"/>
     <use xlink:href="#DejaVuSans-72" x="189.982422"/>
     <use xlink:href="#DejaVuSans-65" x="228.845703"/>
     <use xlink:href="#DejaVuSans-73" x="290.369141"/>
     <use xlink:href="#DejaVuSans-73" x="342.46875"/>
     <use xlink:href="#DejaVuSans-e3" x="394.568359"/>
     <use xlink:href="#DejaVuSans-6f" x="455.847656"/>
     <use xlink:href="#DejaVuSans-3a" x="517.029297"/>
     <use xlink:href="#DejaVuSans-20" x="550.720703"/>
     <use xlink:href="#DejaVuSans-52" x="582.507812"/>
     <use xlink:href="#DejaVuSans-65" x="647.490234"/>
     <use xlink:href="#DejaVuSans-61" x="709.013672"/>
     <use xlink:href="#DejaVuSans-6c" x="770.292969"/>
     <use xlink:href="#DejaVuSans-20" x="798.076172"/>
     <use xlink:href="#DejaVuSans-76" x="829.863281"/>
     <use xlink:href="#DejaVuSans-73" x="889.042969"/>
     <use xlink:href="#DejaVuSans-20" x="941.142578"/>
     <use xlink:href="#DejaVuSans-50" x="972.929688"/>
     <use xlink:href="#DejaVuSans-72" x="1031.482422"/>
     <use xlink:href="#DejaVuSans-65" x="1070.345703"/>
     <use xlink:href="#DejaVuSans-76" x="1131.869141"/>
     <use xlink:href="#DejaVuSans-69" x="1191.048828"/>
     <use xlink:href="#DejaVuSans-73" x="1218.832031"/>
     <use xlink:href="#DejaVuSans-74" x="1270.931641"/>
     <use xlink:href="#DejaVuSans-6f" x="1310.140625"/>
    </g>
   </g>
   <g id="legend_1">
    <g id="patch_7">
     <path d="M 115 379.48 
L 213.284375 379.48 
Q 215.284375 379.48 215.284375 377.48 
L 215.284375 349.12375 
Q 215.284375 347.12375 213.284375 347.12375 
L 115 347.12375 
Q 113 347.12375 113 349.12375 
L 113 377.48 
Q 113 379.48 115 379.48 
z
" style="fill: #ffffff; opacity: 0.8; stroke: #cccccc; stroke-linejoin: miter"/>
    </g>
    <g id="line2d_18">
     <path d="M 117 355.222188 
L 127 355.222188 
L 137 355.222188 
" style="fill: none; stroke: #1f77b4; stroke-width: 1.5; stroke-linecap: square"/>
    </g>
    <g id="text_17">
     <!-- Valores Reais -->
     <g transform="translate(145 358.722188) scale(0.1 -0.1)">
      <defs>
       <path id="DejaVuSans-56" d="M 1831 0 
L 50 4666 
L 709 4666 
L 2188 738 
L 3669 4666 
L 4325 4666 
L 2547 0 
L 1831 0 
z
" transform="scale(0.015625)"/>
      </defs>
      <use xlink:href="#DejaVuSans-56"/>
      <use xlink:href="#DejaVuSans-61" x="60.658203"/>
      <use xlink:href="#DejaVuSans-6c" x="121.9375"/>
      <use xlink:href="#DejaVuSans-6f" x="149.720703"/>
      <use xlink:href="#DejaVuSans-72" x="210.902344"/>
      <use xlink:href="#DejaVuSans-65" x="249.765625"/>
      <use xlink:href="#DejaVuSans-73" x="311.289062"/>
      <use xlink:href="#DejaVuSans-20" x="363.388672"/>
      <use xlink:href="#DejaVuSans-52" x="395.175781"/>
      <use xlink:href="#DejaVuSans-65" x="460.158203"/>
      <use xlink:href="#DejaVuSans-61" x="521.681641"/>
      <use xlink:href="#DejaVuSans-69" x="582.960938"/>
      <use xlink:href="#DejaVuSans-73" x="610.744141"/>
     </g>
    </g>
    <g id="line2d_19">
     <path d="M 117 369.900312 
L 127 369.900312 
L 137 369.900312 
" style="fill: none; stroke: #ff7f0e; stroke-width: 1.5; stroke-linecap: square"/>
    </g>
    <g id="text_18">
     <!-- Previses -->
     <g transform="translate(145 373.400312) scale(0.1 -0.1)">
      <defs>
       <path id="DejaVuSans-f5" d="M 1959 3097 
Q 1497 3097 1228 2736 
Q 959 2375 959 1747 
Q 959 1119 1226 758 
Q 1494 397 1959 397 
Q 2419 397 2687 759 
Q 2956 1122 2956 1747 
Q 2956 2369 2687 2733 
Q 2419 3097 1959 3097 
z
M 1959 3584 
Q 2709 3584 3137 3096 
Q 3566 2609 3566 1747 
Q 3566 888 3137 398 
Q 2709 -91 1959 -91 
Q 1206 -91 779 398 
Q 353 888 353 1747 
Q 353 2609 779 3096 
Q 1206 3584 1959 3584 
z
M 1948 4281 
L 1769 4453 
Q 1701 4516 1649 4545 
Q 1598 4575 1557 4575 
Q 1438 4575 1382 4461 
Q 1326 4347 1319 4091 
L 929 4091 
Q 935 4513 1094 4742 
Q 1254 4972 1538 4972 
Q 1657 4972 1757 4928 
Q 1857 4884 1973 4781 
L 2151 4609 
Q 2219 4547 2271 4517 
Q 2323 4488 2363 4488 
Q 2482 4488 2538 4602 
Q 2594 4716 2601 4972 
L 2991 4972 
Q 2985 4550 2825 4320 
Q 2666 4091 2382 4091 
Q 2263 4091 2163 4134 
Q 2063 4178 1948 4281 
z
" transform="scale(0.015625)"/>
      </defs>
      <use xlink:href="#DejaVuSans-50"/>
      <use xlink:href="#DejaVuSans-72" x="58.552734"/>
      <use xlink:href="#DejaVuSans-65" x="97.416016"/>
      <use xlink:href="#DejaVuSans-76" x="158.939453"/>
      <use xlink:href="#DejaVuSans-69" x="218.119141"/>
      <use xlink:href="#DejaVuSans-73" x="245.902344"/>
      <use xlink:href="#DejaVuSans-f5" x="298.001953"/>
      <use xlink:href="#DejaVuSans-65" x="359.183594"/>
      <use xlink:href="#DejaVuSans-73" x="420.707031"/>
     </g>
    </g>
   </g>
  </g>
 </g>
 <defs>
  <clipPath id="pa87029019b">
   <rect x="108" y="51.84" width="669.6" height="332.64"/>
  </clipPath>
 </defs>
</svg>
