<?xml version="1.0" encoding="utf-8" standalone="no"?>
<!DOCTYPE svg PUBLIC "-//W3C//DTD SVG 1.1//EN"
  "http://www.w3.org/Graphics/SVG/1.1/DTD/svg11.dtd">
<svg xmlns:xlink="http://www.w3.org/1999/xlink" width="864pt" height="432pt" viewBox="0 0 864 432" xmlns="http://www.w3.org/2000/svg" version="1.1">
 <metadata>
  <rdf:RDF xmlns:dc="http://purl.org/dc/elements/1.1/" xmlns:cc="http://creativecommons.org/ns#" xmlns:rdf="http://www.w3.org/1999/02/22-rdf-syntax-ns#">
   <cc:Work>
    <dc:type rdf:resource="http://purl.org/dc/dcmitype/StillImage"/>
    <dc:date>2024-12-07T09:38:00.220639</dc:date>
    <dc:format>image/svg+xml</dc:format>
    <dc:creator>
     <cc:Agent>
      <dc:title>Matplotlib v3.9.2, https://matplotlib.org/</dc:title>
     </cc:Agent>
    </dc:creator>
   </cc:Work>
  </rdf:RDF>
 </metadata>
 <defs>
  <style type="text/css">*{stroke-linejoin: round; stroke-linecap: butt}</style>
 </defs>
 <g id="figure_1">
  <g id="patch_1">
   <path d="M 0 432 
L 864 432 
L 864 0 
L 0 0 
z
" style="fill: #ffffff"/>
  </g>
  <g id="axes_1">
   <g id="patch_2">
    <path d="M 108 384.48 
L 777.6 384.48 
L 777.6 51.84 
L 108 51.84 
z
" style="fill: #ffffff"/>
   </g>
   <g id="matplotlib.axis_1">
    <g id="xtick_1">
     <g id="line2d_1">
      <defs>
       <path id="md81bf7f13e" d="M 0 0 
L 0 3.5 
" style="stroke: #000000; stroke-width: 0.8"/>
      </defs>
      <g>
       <use xlink:href="#md81bf7f13e" x="138.436364" y="384.48" style="stroke: #000000; stroke-width: 0.8"/>
      </g>
     </g>
     <g id="text_1">
      <!-- 0 -->
      <g transform="translate(135.255114 399.078438) scale(0.1 -0.1)">
       <defs>
        <path id="DejaVuSans-30" d="M 2034 4250 
Q 1547 4250 1301 3770 
Q 1056 3291 1056 2328 
Q 1056 1369 1301 889 
Q 1547 409 2034 409 
Q 2525 409 2770 889 
Q 3016 1369 3016 2328 
Q 3016 3291 2770 3770 
Q 2525 4250 2034 4250 
z
M 2034 4750 
Q 2819 4750 3233 4129 
Q 3647 3509 3647 2328 
Q 3647 1150 3233 529 
Q 2819 -91 2034 -91 
Q 1250 -91 836 529 
Q 422 1150 422 2328 
Q 422 3509 836 4129 
Q 1250 4750 2034 4750 
z
" transform="scale(0.015625)"/>
       </defs>
       <use xlink:href="#DejaVuSans-30"/>
      </g>
     </g>
    </g>
    <g id="xtick_2">
     <g id="line2d_2">
      <g>
       <use xlink:href="#md81bf7f13e" x="231.513928" y="384.48" style="stroke: #000000; stroke-width: 0.8"/>
      </g>
     </g>
     <g id="text_2">
      <!-- 200 -->
      <g transform="translate(221.970178 399.078438) scale(0.1 -0.1)">
       <defs>
        <path id="DejaVuSans-32" d="M 1228 531 
L 3431 531 
L 3431 0 
L 469 0 
L 469 531 
Q 828 903 1448 1529 
Q 2069 2156 2228 2338 
Q 2531 2678 2651 2914 
Q 2772 3150 2772 3378 
Q 2772 3750 2511 3984 
Q 2250 4219 1831 4219 
Q 1534 4219 1204 4116 
Q 875 4013 500 3803 
L 500 4441 
Q 881 4594 1212 4672 
Q 1544 4750 1819 4750 
Q 2544 4750 2975 4387 
Q 3406 4025 3406 3419 
Q 3406 3131 3298 2873 
Q 3191 2616 2906 2266 
Q 2828 2175 2409 1742 
Q 1991 1309 1228 531 
z
" transform="scale(0.015625)"/>
       </defs>
       <use xlink:href="#DejaVuSans-32"/>
       <use xlink:href="#DejaVuSans-30" x="63.623047"/>
       <use xlink:href="#DejaVuSans-30" x="127.246094"/>
      </g>
     </g>
    </g>
    <g id="xtick_3">
     <g id="line2d_3">
      <g>
       <use xlink:href="#md81bf7f13e" x="324.591493" y="384.48" style="stroke: #000000; stroke-width: 0.8"/>
      </g>
     </g>
     <g id="text_3">
      <!-- 400 -->
      <g transform="translate(315.047743 399.078438) scale(0.1 -0.1)">
       <defs>
        <path id="DejaVuSans-34" d="M 2419 4116 
L 825 1625 
L 2419 1625 
L 2419 4116 
z
M 2253 4666 
L 3047 4666 
L 3047 1625 
L 3713 1625 
L 3713 1100 
L 3047 1100 
L 3047 0 
L 2419 0 
L 2419 1100 
L 313 1100 
L 313 1709 
L 2253 4666 
z
" transform="scale(0.015625)"/>
       </defs>
       <use xlink:href="#DejaVuSans-34"/>
       <use xlink:href="#DejaVuSans-30" x="63.623047"/>
       <use xlink:href="#DejaVuSans-30" x="127.246094"/>
      </g>
     </g>
    </g>
    <g id="xtick_4">
     <g id="line2d_4">
      <g>
       <use xlink:href="#md81bf7f13e" x="417.669058" y="384.48" style="stroke: #000000; stroke-width: 0.8"/>
      </g>
     </g>
     <g id="text_4">
      <!-- 600 -->
      <g transform="translate(408.125308 399.078438) scale(0.1 -0.1)">
       <defs>
        <path id="DejaVuSans-36" d="M 2113 2584 
Q 1688 2584 1439 2293 
Q 1191 2003 1191 1497 
Q 1191 994 1439 701 
Q 1688 409 2113 409 
Q 2538 409 2786 701 
Q 3034 994 3034 1497 
Q 3034 2003 2786 2293 
Q 2538 2584 2113 2584 
z
M 3366 4563 
L 3366 3988 
Q 3128 4100 2886 4159 
Q 2644 4219 2406 4219 
Q 1781 4219 1451 3797 
Q 1122 3375 1075 2522 
Q 1259 2794 1537 2939 
Q 1816 3084 2150 3084 
Q 2853 3084 3261 2657 
Q 3669 2231 3669 1497 
Q 3669 778 3244 343 
Q 2819 -91 2113 -91 
Q 1303 -91 875 529 
Q 447 1150 447 2328 
Q 447 3434 972 4092 
Q 1497 4750 2381 4750 
Q 2619 4750 2861 4703 
Q 3103 4656 3366 4563 
z
" transform="scale(0.015625)"/>
       </defs>
       <use xlink:href="#DejaVuSans-36"/>
       <use xlink:href="#DejaVuSans-30" x="63.623047"/>
       <use xlink:href="#DejaVuSans-30" x="127.246094"/>
      </g>
     </g>
    </g>
    <g id="xtick_5">
     <g id="line2d_5">
      <g>
       <use xlink:href="#md81bf7f13e" x="510.746622" y="384.48" style="stroke: #000000; stroke-width: 0.8"/>
      </g>
     </g>
     <g id="text_5">
      <!-- 800 -->
      <g transform="translate(501.202872 399.078438) scale(0.1 -0.1)">
       <defs>
        <path id="DejaVuSans-38" d="M 2034 2216 
Q 1584 2216 1326 1975 
Q 1069 1734 1069 1313 
Q 1069 891 1326 650 
Q 1584 409 2034 409 
Q 2484 409 2743 651 
Q 3003 894 3003 1313 
Q 3003 1734 2745 1975 
Q 2488 2216 2034 2216 
z
M 1403 2484 
Q 997 2584 770 2862 
Q 544 3141 544 3541 
Q 544 4100 942 4425 
Q 1341 4750 2034 4750 
Q 2731 4750 3128 4425 
Q 3525 4100 3525 3541 
Q 3525 3141 3298 2862 
Q 3072 2584 2669 2484 
Q 3125 2378 3379 2068 
Q 3634 1759 3634 1313 
Q 3634 634 3220 271 
Q 2806 -91 2034 -91 
Q 1263 -91 848 271 
Q 434 634 434 1313 
Q 434 1759 690 2068 
Q 947 2378 1403 2484 
z
M 1172 3481 
Q 1172 3119 1398 2916 
Q 1625 2713 2034 2713 
Q 2441 2713 2670 2916 
Q 2900 3119 2900 3481 
Q 2900 3844 2670 4047 
Q 2441 4250 2034 4250 
Q 1625 4250 1398 4047 
Q 1172 3844 1172 3481 
z
" transform="scale(0.015625)"/>
       </defs>
       <use xlink:href="#DejaVuSans-38"/>
       <use xlink:href="#DejaVuSans-30" x="63.623047"/>
       <use xlink:href="#DejaVuSans-30" x="127.246094"/>
      </g>
     </g>
    </g>
    <g id="xtick_6">
     <g id="line2d_6">
      <g>
       <use xlink:href="#md81bf7f13e" x="603.824187" y="384.48" style="stroke: #000000; stroke-width: 0.8"/>
      </g>
     </g>
     <g id="text_6">
      <!-- 1000 -->
      <g transform="translate(591.099187 399.078438) scale(0.1 -0.1)">
       <defs>
        <path id="DejaVuSans-31" d="M 794 531 
L 1825 531 
L 1825 4091 
L 703 3866 
L 703 4441 
L 1819 4666 
L 2450 4666 
L 2450 531 
L 3481 531 
L 3481 0 
L 794 0 
L 794 531 
z
" transform="scale(0.015625)"/>
       </defs>
       <use xlink:href="#DejaVuSans-31"/>
       <use xlink:href="#DejaVuSans-30" x="63.623047"/>
       <use xlink:href="#DejaVuSans-30" x="127.246094"/>
       <use xlink:href="#DejaVuSans-30" x="190.869141"/>
      </g>
     </g>
    </g>
    <g id="xtick_7">
     <g id="line2d_7">
      <g>
       <use xlink:href="#md81bf7f13e" x="696.901751" y="384.48" style="stroke: #000000; stroke-width: 0.8"/>
      </g>
     </g>
     <g id="text_7">
      <!-- 1200 -->
      <g transform="translate(684.176751 399.078438) scale(0.1 -0.1)">
       <use xlink:href="#DejaVuSans-31"/>
       <use xlink:href="#DejaVuSans-32" x="63.623047"/>
       <use xlink:href="#DejaVuSans-30" x="127.246094"/>
       <use xlink:href="#DejaVuSans-30" x="190.869141"/>
      </g>
     </g>
    </g>
   </g>
   <g id="matplotlib.axis_2">
    <g id="ytick_1">
     <g id="line2d_8">
      <defs>
       <path id="md07a560f52" d="M 0 0 
L -3.5 0 
" style="stroke: #000000; stroke-width: 0.8"/>
      </defs>
      <g>
       <use xlink:href="#md07a560f52" x="108" y="349.2" style="stroke: #000000; stroke-width: 0.8"/>
      </g>
     </g>
     <g id="text_8">
      <!-- 2 -->
      <g transform="translate(94.6375 352.999219) scale(0.1 -0.1)">
       <use xlink:href="#DejaVuSans-32"/>
      </g>
     </g>
    </g>
    <g id="ytick_2">
     <g id="line2d_9">
      <g>
       <use xlink:href="#md07a560f52" x="108" y="308.88" style="stroke: #000000; stroke-width: 0.8"/>
      </g>
     </g>
     <g id="text_9">
      <!-- 4 -->
      <g transform="translate(94.6375 312.679219) scale(0.1 -0.1)">
       <use xlink:href="#DejaVuSans-34"/>
      </g>
     </g>
    </g>
    <g id="ytick_3">
     <g id="line2d_10">
      <g>
       <use xlink:href="#md07a560f52" x="108" y="268.56" style="stroke: #000000; stroke-width: 0.8"/>
      </g>
     </g>
     <g id="text_10">
      <!-- 6 -->
      <g transform="translate(94.6375 272.359219) scale(0.1 -0.1)">
       <use xlink:href="#DejaVuSans-36"/>
      </g>
     </g>
    </g>
    <g id="ytick_4">
     <g id="line2d_11">
      <g>
       <use xlink:href="#md07a560f52" x="108" y="228.24" style="stroke: #000000; stroke-width: 0.8"/>
      </g>
     </g>
     <g id="text_11">
      <!-- 8 -->
      <g transform="translate(94.6375 232.039219) scale(0.1 -0.1)">
       <use xlink:href="#DejaVuSans-38"/>
      </g>
     </g>
    </g>
    <g id="ytick_5">
     <g id="line2d_12">
      <g>
       <use xlink:href="#md07a560f52" x="108" y="187.92" style="stroke: #000000; stroke-width: 0.8"/>
      </g>
     </g>
     <g id="text_12">
      <!-- 10 -->
      <g transform="translate(88.275 191.719219) scale(0.1 -0.1)">
       <use xlink:href="#DejaVuSans-31"/>
       <use xlink:href="#DejaVuSans-30" x="63.623047"/>
      </g>
     </g>
    </g>
    <g id="ytick_6">
     <g id="line2d_13">
      <g>
       <use xlink:href="#md07a560f52" x="108" y="147.6" style="stroke: #000000; stroke-width: 0.8"/>
      </g>
     </g>
     <g id="text_13">
      <!-- 12 -->
      <g transform="translate(88.275 151.399219) scale(0.1 -0.1)">
       <use xlink:href="#DejaVuSans-31"/>
       <use xlink:href="#DejaVuSans-32" x="63.623047"/>
      </g>
     </g>
    </g>
    <g id="ytick_7">
     <g id="line2d_14">
      <g>
       <use xlink:href="#md07a560f52" x="108" y="107.28" style="stroke: #000000; stroke-width: 0.8"/>
      </g>
     </g>
     <g id="text_14">
      <!-- 14 -->
      <g transform="translate(88.275 111.079219) scale(0.1 -0.1)">
       <use xlink:href="#DejaVuSans-31"/>
       <use xlink:href="#DejaVuSans-34" x="63.623047"/>
      </g>
     </g>
    </g>
    <g id="ytick_8">
     <g id="line2d_15">
      <g>
       <use xlink:href="#md07a560f52" x="108" y="66.96" style="stroke: #000000; stroke-width: 0.8"/>
      </g>
     </g>
     <g id="text_15">
      <!-- 16 -->
      <g transform="translate(88.275 70.759219) scale(0.1 -0.1)">
       <use xlink:href="#DejaVuSans-31"/>
       <use xlink:href="#DejaVuSans-36" x="63.623047"/>
      </g>
     </g>
    </g>
   </g>
   <g id="line2d_16">
    <path d="M 138.436364 147.6 
L 139.367139 308.88 
L 139.832527 87.12 
L 140.297915 288.72 
L 140.763303 329.04 
L 141.228691 147.6 
L 141.694078 228.24 
L 142.159466 187.92 
L 142.624854 187.92 
L 143.090242 288.72 
L 143.55563 268.56 
L 144.021018 228.24 
L 144.486405 87.12 
L 144.951793 268.56 
L 145.417181 288.72 
L 145.882569 329.04 
L 146.347957 228.24 
L 146.813344 187.92 
L 147.278732 288.72 
L 147.74412 87.12 
L 148.209508 288.72 
L 148.674896 329.04 
L 149.140284 228.24 
L 149.605671 288.72 
L 150.071059 268.56 
L 150.536447 87.12 
L 151.001835 288.72 
L 151.467223 268.56 
L 151.932611 308.88 
L 152.397998 187.92 
L 152.863386 228.24 
L 153.328774 329.04 
L 153.794162 288.72 
L 154.25955 208.08 
L 154.724937 288.72 
L 155.190325 268.56 
L 155.655713 288.72 
L 156.121101 329.04 
L 156.586489 288.72 
L 157.517264 288.72 
L 157.982652 228.24 
L 158.44804 147.6 
L 158.913428 268.56 
L 159.378816 87.12 
L 159.844204 329.04 
L 160.309591 288.72 
L 160.774979 187.92 
L 161.240367 187.92 
L 161.705755 228.24 
L 162.171143 66.96 
L 162.63653 147.6 
L 163.101918 288.72 
L 163.567306 268.56 
L 164.032694 288.72 
L 164.498082 288.72 
L 164.96347 228.24 
L 165.428857 147.6 
L 165.894245 288.72 
L 166.359633 228.24 
L 166.825021 329.04 
L 167.290409 187.92 
L 167.755796 268.56 
L 168.221184 288.72 
L 168.686572 187.92 
L 169.15196 187.92 
L 169.617348 147.6 
L 170.082736 187.92 
L 170.548123 187.92 
L 171.013511 268.56 
L 171.478899 288.72 
L 172.409675 288.72 
L 172.875063 228.24 
L 173.34045 288.72 
L 173.805838 127.44 
L 174.271226 288.72 
L 174.736614 87.12 
L 175.202002 228.24 
L 175.667389 288.72 
L 176.598165 288.72 
L 177.063553 187.92 
L 177.528941 228.24 
L 177.994329 288.72 
L 178.459716 308.88 
L 178.925104 147.6 
L 179.390492 147.6 
L 179.85588 268.56 
L 180.321268 187.92 
L 180.786656 147.6 
L 181.252043 187.92 
L 181.717431 147.6 
L 182.182819 87.12 
L 182.648207 268.56 
L 183.113595 248.4 
L 183.578982 187.92 
L 184.04437 187.92 
L 184.975146 268.56 
L 185.440534 288.72 
L 185.905922 288.72 
L 186.371309 187.92 
L 186.836697 288.72 
L 187.302085 288.72 
L 187.767473 308.88 
L 188.232861 268.56 
L 188.698249 288.72 
L 189.163636 87.12 
L 189.629024 268.56 
L 190.094412 167.76 
L 190.5598 268.56 
L 191.025188 268.56 
L 191.490575 228.24 
L 191.955963 288.72 
L 192.421351 268.56 
L 192.886739 147.6 
L 193.352127 228.24 
L 193.817515 187.92 
L 194.282902 329.04 
L 194.74829 268.56 
L 195.213678 147.6 
L 195.679066 268.56 
L 196.144454 87.12 
L 196.609842 308.88 
L 197.075229 187.92 
L 197.540617 268.56 
L 198.006005 329.04 
L 198.471393 268.56 
L 198.936781 288.72 
L 199.402168 87.12 
L 199.867556 228.24 
L 200.332944 329.04 
L 200.798332 288.72 
L 201.26372 268.56 
L 201.729108 187.92 
L 202.194495 228.24 
L 202.659883 147.6 
L 203.125271 87.12 
L 203.590659 288.72 
L 204.056047 187.92 
L 204.521435 187.92 
L 204.986822 147.6 
L 205.45221 87.12 
L 205.917598 187.92 
L 206.382986 187.92 
L 206.848374 288.72 
L 207.313761 268.56 
L 207.779149 228.24 
L 208.244537 288.72 
L 208.709925 187.92 
L 209.175313 288.72 
L 209.640701 187.92 
L 210.106088 288.72 
L 210.571476 288.72 
L 211.036864 167.76 
L 211.502252 187.92 
L 211.96764 288.72 
L 212.433028 329.04 
L 212.898415 288.72 
L 213.363803 228.24 
L 213.829191 228.24 
L 214.294579 329.04 
L 214.759967 288.72 
L 215.225354 87.12 
L 215.690742 329.04 
L 216.15613 288.72 
L 216.621518 228.24 
L 217.086906 187.92 
L 218.017681 268.56 
L 218.483069 147.6 
L 218.948457 147.6 
L 219.413845 187.92 
L 219.879233 187.92 
L 220.344621 147.6 
L 220.810008 288.72 
L 221.275396 268.56 
L 221.740784 147.6 
L 222.206172 187.92 
L 222.67156 167.76 
L 223.136947 228.24 
L 223.602335 228.24 
L 224.067723 268.56 
L 224.533111 248.4 
L 224.998499 288.72 
L 225.463887 127.44 
L 225.929274 268.56 
L 226.394662 187.92 
L 226.86005 288.72 
L 227.325438 187.92 
L 227.790826 288.72 
L 228.256214 329.04 
L 228.721601 187.92 
L 229.186989 187.92 
L 229.652377 127.44 
L 230.117765 147.6 
L 230.583153 228.24 
L 231.04854 288.72 
L 231.513928 228.24 
L 231.979316 107.28 
L 232.444704 288.72 
L 232.910092 187.92 
L 233.37548 187.92 
L 234.306255 308.88 
L 234.771643 329.04 
L 235.237031 288.72 
L 235.702419 187.92 
L 236.167807 288.72 
L 236.633194 308.88 
L 237.098582 187.92 
L 237.56397 228.24 
L 238.029358 288.72 
L 238.494746 187.92 
L 238.960133 127.44 
L 239.425521 228.24 
L 239.890909 288.72 
L 240.356297 228.24 
L 240.821685 288.72 
L 241.287073 228.24 
L 241.75246 187.92 
L 242.217848 228.24 
L 242.683236 228.24 
L 243.148624 187.92 
L 243.614012 228.24 
L 244.079399 288.72 
L 244.544787 288.72 
L 245.010175 268.56 
L 245.475563 187.92 
L 245.940951 268.56 
L 246.406339 187.92 
L 246.871726 187.92 
L 247.337114 268.56 
L 247.802502 288.72 
L 248.26789 248.4 
L 249.198666 288.72 
L 249.664053 268.56 
L 250.129441 288.72 
L 250.594829 107.28 
L 251.060217 228.24 
L 251.525605 187.92 
L 251.990992 288.72 
L 252.45638 228.24 
L 253.387156 147.6 
L 253.852544 147.6 
L 254.317932 187.92 
L 254.783319 288.72 
L 255.248707 147.6 
L 255.714095 329.04 
L 256.179483 87.12 
L 256.644871 87.12 
L 257.110259 208.08 
L 257.575646 288.72 
L 258.041034 147.6 
L 258.506422 187.92 
L 258.97181 288.72 
L 259.437198 329.04 
L 259.902585 288.72 
L 260.367973 268.56 
L 260.833361 87.12 
L 261.298749 288.72 
L 261.764137 288.72 
L 262.229525 208.08 
L 262.694912 288.72 
L 263.1603 288.72 
L 264.091076 248.4 
L 264.556464 147.6 
L 265.021852 288.72 
L 265.487239 187.92 
L 265.952627 288.72 
L 266.418015 288.72 
L 266.883403 268.56 
L 267.348791 268.56 
L 267.814178 288.72 
L 268.279566 228.24 
L 268.744954 147.6 
L 269.210342 228.24 
L 269.67573 187.92 
L 270.141118 288.72 
L 270.606505 187.92 
L 271.537281 268.56 
L 272.002669 187.92 
L 272.468057 228.24 
L 272.933445 288.72 
L 273.398832 329.04 
L 273.86422 288.72 
L 274.329608 288.72 
L 274.794996 228.24 
L 275.260384 228.24 
L 275.725771 187.92 
L 276.191159 208.08 
L 276.656547 147.6 
L 277.121935 288.72 
L 277.587323 187.92 
L 278.052711 147.6 
L 278.518098 147.6 
L 278.983486 268.56 
L 279.448874 329.04 
L 279.914262 288.72 
L 280.37965 288.72 
L 280.845038 268.56 
L 281.310425 288.72 
L 281.775813 288.72 
L 282.241201 187.92 
L 282.706589 228.24 
L 283.171977 187.92 
L 283.637364 66.96 
L 284.102752 268.56 
L 284.56814 288.72 
L 285.033528 187.92 
L 285.498916 187.92 
L 285.964304 268.56 
L 286.429691 268.56 
L 286.895079 228.24 
L 287.360467 228.24 
L 287.825855 167.76 
L 288.291243 147.6 
L 288.756631 187.92 
L 289.222018 288.72 
L 289.687406 288.72 
L 290.152794 228.24 
L 290.618182 147.6 
L 291.08357 228.24 
L 291.548957 187.92 
L 292.014345 228.24 
L 292.479733 187.92 
L 292.945121 268.56 
L 293.410509 187.92 
L 293.875897 248.4 
L 294.341284 268.56 
L 294.806672 308.88 
L 295.27206 187.92 
L 295.737448 329.04 
L 296.202836 228.24 
L 296.668224 87.12 
L 297.133611 268.56 
L 297.598999 127.44 
L 298.529775 349.2 
L 298.995163 288.72 
L 299.46055 87.12 
L 299.925938 268.56 
L 300.391326 288.72 
L 300.856714 147.6 
L 301.322102 288.72 
L 301.78749 87.12 
L 302.252877 268.56 
L 302.718265 248.4 
L 303.183653 329.04 
L 303.649041 288.72 
L 304.114429 147.6 
L 304.579817 228.24 
L 305.045204 87.12 
L 305.510592 127.44 
L 305.97598 187.92 
L 306.441368 228.24 
L 306.906756 228.24 
L 307.372143 288.72 
L 307.837531 147.6 
L 308.302919 288.72 
L 308.768307 228.24 
L 309.233695 187.92 
L 309.699083 349.2 
L 310.16447 127.44 
L 310.629858 268.56 
L 311.095246 187.92 
L 311.560634 167.76 
L 312.49141 288.72 
L 312.956797 228.24 
L 313.422185 228.24 
L 313.887573 288.72 
L 314.352961 87.12 
L 314.818349 288.72 
L 315.283736 288.72 
L 315.749124 228.24 
L 316.214512 228.24 
L 316.6799 329.04 
L 317.145288 288.72 
L 317.610676 147.6 
L 318.541451 228.24 
L 319.006839 329.04 
L 319.472227 228.24 
L 319.937615 288.72 
L 320.403003 147.6 
L 320.86839 288.72 
L 321.333778 228.24 
L 321.799166 147.6 
L 322.264554 147.6 
L 322.729942 329.04 
L 323.195329 268.56 
L 323.660717 228.24 
L 324.126105 228.24 
L 324.591493 288.72 
L 325.522269 288.72 
L 325.987656 228.24 
L 326.453044 147.6 
L 326.918432 288.72 
L 327.38382 228.24 
L 327.849208 288.72 
L 328.314595 87.12 
L 328.779983 147.6 
L 329.245371 288.72 
L 329.710759 228.24 
L 330.176147 187.92 
L 330.641535 268.56 
L 331.106922 208.08 
L 331.57231 268.56 
L 332.037698 288.72 
L 332.503086 147.6 
L 333.433862 228.24 
L 333.899249 187.92 
L 334.364637 187.92 
L 334.830025 288.72 
L 335.295413 87.12 
L 335.760801 147.6 
L 336.691576 147.6 
L 337.156964 228.24 
L 337.622352 187.92 
L 338.08774 288.72 
L 338.553128 308.88 
L 339.018515 288.72 
L 339.483903 248.4 
L 340.414679 329.04 
L 340.880067 187.92 
L 341.345455 228.24 
L 341.810842 288.72 
L 342.27623 288.72 
L 342.741618 268.56 
L 343.672394 187.92 
L 344.137781 288.72 
L 344.603169 147.6 
L 345.068557 228.24 
L 345.533945 208.08 
L 345.999333 87.12 
L 346.464721 187.92 
L 346.930108 228.24 
L 347.395496 288.72 
L 347.860884 87.12 
L 348.326272 288.72 
L 348.79166 329.04 
L 349.257048 187.92 
L 349.722435 167.76 
L 350.187823 187.92 
L 350.653211 147.6 
L 351.118599 187.92 
L 351.583987 288.72 
L 352.049374 329.04 
L 352.514762 228.24 
L 352.98015 288.72 
L 353.445538 87.12 
L 354.376314 288.72 
L 354.841701 228.24 
L 355.307089 288.72 
L 355.772477 187.92 
L 356.237865 187.92 
L 356.703253 329.04 
L 357.168641 208.08 
L 357.634028 248.4 
L 358.099416 187.92 
L 358.564804 147.6 
L 359.030192 187.92 
L 359.960967 187.92 
L 360.426355 228.24 
L 360.891743 288.72 
L 361.357131 187.92 
L 361.822519 228.24 
L 362.287907 228.24 
L 362.753294 329.04 
L 363.218682 288.72 
L 364.149458 288.72 
L 364.614846 187.92 
L 365.080234 268.56 
L 366.011009 187.92 
L 366.941785 268.56 
L 367.407173 329.04 
L 367.87256 369.36 
L 368.803336 288.72 
L 369.268724 329.04 
L 369.734112 187.92 
L 370.1995 228.24 
L 370.664887 167.76 
L 371.595663 288.72 
L 372.061051 147.6 
L 372.526439 187.92 
L 372.991827 288.72 
L 373.457214 228.24 
L 373.922602 187.92 
L 374.38799 187.92 
L 375.318766 268.56 
L 375.784153 268.56 
L 376.249541 187.92 
L 376.714929 288.72 
L 377.180317 288.72 
L 377.645705 268.56 
L 378.111093 187.92 
L 378.57648 329.04 
L 379.041868 147.6 
L 379.507256 268.56 
L 379.972644 288.72 
L 380.438032 329.04 
L 380.90342 329.04 
L 381.368807 187.92 
L 381.834195 187.92 
L 382.299583 288.72 
L 382.764971 228.24 
L 383.230359 228.24 
L 383.695746 147.6 
L 384.161134 187.92 
L 384.626522 288.72 
L 385.09191 187.92 
L 385.557298 308.88 
L 386.022686 208.08 
L 386.488073 268.56 
L 387.418849 308.88 
L 387.884237 187.92 
L 388.349625 268.56 
L 388.815013 208.08 
L 389.2804 228.24 
L 389.745788 329.04 
L 390.211176 329.04 
L 390.676564 147.6 
L 391.141952 228.24 
L 391.607339 187.92 
L 392.072727 268.56 
L 392.538115 288.72 
L 393.934279 288.72 
L 394.399666 127.44 
L 394.865054 288.72 
L 395.330442 187.92 
L 395.79583 288.72 
L 396.261218 288.72 
L 396.726606 268.56 
L 397.191993 288.72 
L 397.657381 228.24 
L 398.122769 228.24 
L 398.588157 187.92 
L 399.053545 288.72 
L 399.518932 228.24 
L 399.98432 228.24 
L 400.449708 288.72 
L 400.915096 288.72 
L 401.380484 187.92 
L 401.845872 228.24 
L 402.311259 147.6 
L 402.776647 288.72 
L 403.242035 308.88 
L 403.707423 167.76 
L 404.172811 288.72 
L 404.638198 147.6 
L 405.103586 268.56 
L 405.568974 87.12 
L 406.034362 147.6 
L 406.49975 288.72 
L 406.965138 329.04 
L 407.430525 228.24 
L 407.895913 268.56 
L 408.361301 187.92 
L 408.826689 187.92 
L 409.292077 208.08 
L 409.757465 268.56 
L 410.222852 268.56 
L 410.68824 288.72 
L 411.153628 329.04 
L 411.619016 187.92 
L 412.084404 87.12 
L 412.549791 147.6 
L 413.015179 167.76 
L 413.480567 147.6 
L 413.945955 288.72 
L 414.411343 268.56 
L 414.876731 187.92 
L 415.342118 228.24 
L 415.807506 187.92 
L 416.272894 288.72 
L 416.738282 228.24 
L 417.20367 268.56 
L 417.669058 87.12 
L 418.134445 288.72 
L 418.599833 187.92 
L 419.065221 308.88 
L 419.530609 147.6 
L 419.995997 288.72 
L 420.461384 329.04 
L 420.926772 187.92 
L 421.39216 228.24 
L 421.857548 288.72 
L 422.322936 268.56 
L 422.788324 288.72 
L 423.253711 228.24 
L 423.719099 187.92 
L 424.184487 87.12 
L 424.649875 147.6 
L 425.115263 268.56 
L 425.580651 228.24 
L 426.046038 288.72 
L 426.511426 187.92 
L 426.976814 187.92 
L 427.90759 268.56 
L 428.372977 87.12 
L 428.838365 288.72 
L 429.303753 147.6 
L 429.769141 187.92 
L 430.234529 349.2 
L 431.165304 187.92 
L 431.630692 268.56 
L 432.09608 228.24 
L 432.561468 288.72 
L 433.026856 228.24 
L 433.492244 288.72 
L 433.957631 187.92 
L 434.423019 228.24 
L 435.819183 228.24 
L 436.28457 187.92 
L 437.215346 187.92 
L 437.680734 288.72 
L 438.146122 288.72 
L 438.61151 329.04 
L 439.076897 187.92 
L 439.542285 288.72 
L 440.007673 228.24 
L 440.473061 147.6 
L 440.938449 228.24 
L 441.403837 228.24 
L 441.869224 187.92 
L 442.334612 228.24 
L 443.265388 268.56 
L 443.730776 187.92 
L 444.196163 288.72 
L 444.661551 268.56 
L 445.126939 228.24 
L 445.592327 329.04 
L 446.057715 288.72 
L 446.98849 329.04 
L 447.453878 187.92 
L 447.919266 329.04 
L 448.384654 248.4 
L 448.850042 329.04 
L 449.31543 228.24 
L 449.780817 228.24 
L 450.246205 187.92 
L 450.711593 208.08 
L 451.176981 268.56 
L 451.642369 147.6 
L 452.107756 187.92 
L 452.573144 187.92 
L 453.038532 288.72 
L 453.50392 228.24 
L 453.969308 288.72 
L 454.434696 187.92 
L 454.900083 288.72 
L 455.365471 187.92 
L 455.830859 288.72 
L 456.296247 288.72 
L 456.761635 228.24 
L 457.227023 288.72 
L 457.69241 268.56 
L 458.157798 187.92 
L 458.623186 147.6 
L 459.088574 288.72 
L 459.553962 187.92 
L 460.019349 329.04 
L 460.950125 147.6 
L 461.415513 147.6 
L 461.880901 208.08 
L 462.346289 167.76 
L 462.811676 87.12 
L 463.277064 187.92 
L 463.742452 187.92 
L 464.20784 268.56 
L 464.673228 208.08 
L 465.138616 187.92 
L 465.604003 187.92 
L 466.069391 228.24 
L 466.534779 228.24 
L 467.000167 268.56 
L 467.930942 268.56 
L 468.39633 147.6 
L 468.861718 228.24 
L 469.327106 147.6 
L 469.792494 187.92 
L 470.257882 187.92 
L 470.723269 87.12 
L 471.188657 147.6 
L 471.654045 268.56 
L 472.119433 288.72 
L 472.584821 268.56 
L 473.050209 187.92 
L 473.515596 228.24 
L 473.980984 127.44 
L 474.446372 228.24 
L 474.91176 288.72 
L 475.377148 127.44 
L 475.842535 288.72 
L 476.307923 66.96 
L 476.773311 288.72 
L 477.238699 268.56 
L 478.169475 308.88 
L 478.634862 87.12 
L 479.10025 228.24 
L 479.565638 288.72 
L 480.031026 228.24 
L 480.496414 147.6 
L 480.961802 187.92 
L 481.427189 147.6 
L 481.892577 147.6 
L 482.357965 228.24 
L 482.823353 329.04 
L 483.288741 288.72 
L 483.754128 228.24 
L 484.219516 288.72 
L 484.684904 187.92 
L 485.150292 147.6 
L 486.546455 268.56 
L 487.011843 147.6 
L 487.477231 288.72 
L 487.942619 228.24 
L 488.408007 228.24 
L 488.873394 288.72 
L 489.338782 288.72 
L 489.80417 187.92 
L 490.269558 288.72 
L 490.734946 187.92 
L 491.200334 288.72 
L 492.131109 288.72 
L 492.596497 228.24 
L 493.061885 147.6 
L 493.527273 187.92 
L 493.992661 288.72 
L 494.458048 329.04 
L 494.923436 288.72 
L 495.388824 329.04 
L 495.854212 147.6 
L 496.3196 288.72 
L 496.784987 268.56 
L 497.715763 147.6 
L 498.181151 187.92 
L 498.646539 288.72 
L 499.111927 308.88 
L 499.577314 288.72 
L 500.042702 147.6 
L 500.50809 228.24 
L 500.973478 288.72 
L 501.904254 288.72 
L 502.369641 329.04 
L 502.835029 329.04 
L 503.300417 268.56 
L 503.765805 87.12 
L 504.231193 187.92 
L 504.69658 228.24 
L 505.161968 228.24 
L 505.627356 349.2 
L 506.092744 87.12 
L 506.558132 147.6 
L 507.02352 268.56 
L 507.488907 147.6 
L 507.954295 268.56 
L 508.419683 268.56 
L 508.885071 127.44 
L 509.815847 288.72 
L 510.281234 308.88 
L 510.746622 228.24 
L 511.21201 268.56 
L 511.677398 268.56 
L 512.142786 228.24 
L 512.608173 288.72 
L 513.073561 288.72 
L 513.538949 187.92 
L 514.004337 329.04 
L 514.469725 228.24 
L 514.935113 288.72 
L 515.4005 187.92 
L 515.865888 187.92 
L 516.331276 228.24 
L 516.796664 187.92 
L 517.262052 288.72 
L 517.72744 87.12 
L 518.192827 268.56 
L 518.658215 187.92 
L 519.123603 228.24 
L 519.588991 187.92 
L 520.054379 308.88 
L 520.519766 87.12 
L 520.985154 228.24 
L 521.450542 288.72 
L 521.91593 288.72 
L 522.381318 228.24 
L 522.846706 268.56 
L 523.312093 288.72 
L 523.777481 147.6 
L 524.242869 147.6 
L 524.708257 288.72 
L 525.173645 268.56 
L 525.639033 288.72 
L 526.10442 329.04 
L 527.035196 147.6 
L 527.500584 187.92 
L 527.965972 268.56 
L 528.431359 147.6 
L 528.896747 187.92 
L 529.362135 288.72 
L 529.827523 187.92 
L 530.292911 187.92 
L 530.758299 147.6 
L 531.223686 288.72 
L 531.689074 187.92 
L 532.154462 228.24 
L 532.61985 288.72 
L 533.085238 187.92 
L 533.550626 288.72 
L 534.016013 329.04 
L 534.946789 147.6 
L 535.412177 288.72 
L 535.877565 268.56 
L 536.342952 288.72 
L 536.80834 288.72 
L 537.273728 147.6 
L 537.739116 187.92 
L 538.204504 288.72 
L 538.669892 288.72 
L 539.135279 369.36 
L 539.600667 228.24 
L 540.066055 268.56 
L 540.531443 268.56 
L 540.996831 147.6 
L 541.462219 228.24 
L 541.927606 228.24 
L 542.392994 288.72 
L 542.858382 187.92 
L 543.32377 147.6 
L 543.789158 268.56 
L 544.254545 288.72 
L 544.719933 147.6 
L 545.185321 288.72 
L 545.650709 288.72 
L 546.116097 87.12 
L 546.581485 228.24 
L 547.046872 228.24 
L 547.977648 147.6 
L 548.443036 329.04 
L 548.908424 147.6 
L 549.373812 228.24 
L 549.839199 147.6 
L 550.304587 288.72 
L 550.769975 187.92 
L 551.235363 288.72 
L 551.700751 187.92 
L 552.631526 268.56 
L 553.562302 308.88 
L 554.493078 228.24 
L 554.958465 147.6 
L 555.423853 308.88 
L 555.889241 248.4 
L 556.820017 288.72 
L 557.285405 147.6 
L 557.750792 268.56 
L 558.21618 288.72 
L 558.681568 288.72 
L 559.146956 228.24 
L 559.612344 329.04 
L 560.077731 187.92 
L 560.543119 288.72 
L 561.008507 288.72 
L 561.473895 147.6 
L 561.939283 288.72 
L 562.404671 187.92 
L 562.870058 147.6 
L 563.335446 228.24 
L 563.800834 228.24 
L 564.266222 268.56 
L 564.73161 288.72 
L 565.196997 187.92 
L 565.662385 288.72 
L 566.127773 87.12 
L 566.593161 288.72 
L 567.523937 288.72 
L 567.989324 228.24 
L 568.454712 228.24 
L 568.9201 87.12 
L 569.385488 87.12 
L 569.850876 268.56 
L 570.316264 228.24 
L 570.781651 288.72 
L 571.247039 268.56 
L 571.712427 187.92 
L 572.177815 288.72 
L 572.643203 228.24 
L 573.10859 187.92 
L 573.573978 268.56 
L 574.039366 288.72 
L 574.504754 87.12 
L 574.970142 329.04 
L 575.43553 288.72 
L 575.900917 329.04 
L 576.366305 288.72 
L 576.831693 288.72 
L 577.297081 187.92 
L 577.762469 208.08 
L 578.227857 288.72 
L 578.693244 228.24 
L 579.158632 268.56 
L 579.62402 147.6 
L 580.089408 288.72 
L 580.554796 288.72 
L 581.020183 187.92 
L 581.485571 187.92 
L 581.950959 228.24 
L 582.416347 167.76 
L 582.881735 248.4 
L 583.347123 147.6 
L 583.81251 268.56 
L 584.277898 268.56 
L 584.743286 308.88 
L 585.674062 147.6 
L 586.13945 288.72 
L 586.604837 107.28 
L 587.070225 288.72 
L 587.535613 87.12 
L 588.001001 349.2 
L 588.466389 187.92 
L 588.931776 288.72 
L 589.397164 228.24 
L 589.862552 288.72 
L 590.32794 308.88 
L 590.793328 187.92 
L 591.258716 147.6 
L 591.724103 228.24 
L 592.189491 288.72 
L 592.654879 187.92 
L 593.120267 329.04 
L 593.585655 187.92 
L 594.051043 288.72 
L 594.51643 228.24 
L 594.981818 107.28 
L 595.447206 167.76 
L 595.912594 147.6 
L 596.377982 87.12 
L 596.843369 228.24 
L 597.308757 187.92 
L 598.239533 268.56 
L 598.704921 187.92 
L 599.170309 288.72 
L 599.635696 288.72 
L 600.101084 228.24 
L 600.566472 187.92 
L 601.03186 329.04 
L 601.497248 127.44 
L 601.962636 288.72 
L 602.428023 187.92 
L 602.893411 329.04 
L 603.824187 147.6 
L 604.289575 268.56 
L 604.754962 187.92 
L 605.22035 147.6 
L 605.685738 228.24 
L 606.151126 329.04 
L 606.616514 288.72 
L 607.081902 187.92 
L 607.547289 268.56 
L 608.012677 187.92 
L 608.478065 268.56 
L 608.943453 288.72 
L 609.408841 228.24 
L 609.874229 288.72 
L 610.339616 268.56 
L 610.805004 288.72 
L 611.270392 87.12 
L 611.73578 288.72 
L 612.201168 228.24 
L 612.666555 329.04 
L 613.131943 228.24 
L 613.597331 187.92 
L 614.062719 187.92 
L 614.993495 268.56 
L 615.458882 147.6 
L 615.92427 288.72 
L 616.389658 167.76 
L 616.855046 147.6 
L 617.320434 208.08 
L 617.785822 288.72 
L 618.251209 228.24 
L 618.716597 288.72 
L 619.181985 329.04 
L 619.647373 228.24 
L 620.112761 288.72 
L 620.578148 268.56 
L 621.043536 228.24 
L 621.508924 288.72 
L 621.974312 288.72 
L 622.4397 268.56 
L 622.905088 87.12 
L 623.370475 268.56 
L 623.835863 248.4 
L 624.301251 288.72 
L 624.766639 187.92 
L 625.232027 268.56 
L 625.697415 268.56 
L 626.162802 228.24 
L 626.62819 167.76 
L 627.093578 187.92 
L 628.024354 187.92 
L 628.489741 268.56 
L 628.955129 288.72 
L 629.420517 107.28 
L 629.885905 268.56 
L 630.351293 268.56 
L 630.816681 187.92 
L 631.282068 268.56 
L 631.747456 288.72 
L 632.212844 288.72 
L 632.678232 147.6 
L 633.14362 167.76 
L 633.609008 329.04 
L 634.074395 187.92 
L 634.539783 208.08 
L 635.005171 288.72 
L 635.935947 87.12 
L 636.401334 228.24 
L 636.866722 288.72 
L 637.33211 268.56 
L 637.797498 228.24 
L 638.262886 329.04 
L 638.728274 288.72 
L 639.193661 349.2 
L 639.659049 187.92 
L 640.124437 228.24 
L 640.589825 187.92 
L 641.055213 288.72 
L 641.520601 66.96 
L 641.985988 228.24 
L 642.451376 288.72 
L 642.916764 268.56 
L 643.382152 187.92 
L 643.84754 147.6 
L 644.312927 167.76 
L 644.778315 268.56 
L 645.243703 87.12 
L 645.709091 268.56 
L 646.174479 228.24 
L 646.639867 329.04 
L 647.105254 349.2 
L 647.570642 187.92 
L 648.03603 228.24 
L 648.501418 329.04 
L 648.966806 248.4 
L 649.432193 329.04 
L 649.897581 288.72 
L 650.362969 228.24 
L 650.828357 268.56 
L 651.293745 288.72 
L 651.759133 187.92 
L 652.22452 288.72 
L 652.689908 288.72 
L 653.155296 228.24 
L 653.620684 288.72 
L 654.086072 288.72 
L 654.55146 369.36 
L 655.016847 147.6 
L 655.947623 147.6 
L 656.413011 268.56 
L 656.878399 228.24 
L 657.343786 288.72 
L 657.809174 288.72 
L 658.274562 329.04 
L 659.205338 288.72 
L 659.670726 288.72 
L 660.136113 268.56 
L 660.601501 228.24 
L 661.066889 268.56 
L 661.532277 187.92 
L 661.997665 288.72 
L 663.393828 288.72 
L 663.859216 187.92 
L 664.324604 147.6 
L 664.789992 87.12 
L 665.255379 87.12 
L 665.720767 228.24 
L 666.186155 268.56 
L 666.651543 187.92 
L 667.116931 329.04 
L 667.582319 187.92 
L 668.047706 268.56 
L 668.513094 288.72 
L 669.44387 288.72 
L 669.909258 228.24 
L 670.374646 308.88 
L 670.840033 288.72 
L 671.305421 187.92 
L 671.770809 288.72 
L 672.236197 187.92 
L 672.701585 228.24 
L 673.166972 187.92 
L 673.63236 308.88 
L 674.097748 329.04 
L 674.563136 329.04 
L 675.028524 187.92 
L 675.493912 147.6 
L 675.959299 87.12 
L 676.424687 288.72 
L 676.890075 147.6 
L 677.820851 147.6 
L 678.286239 87.12 
L 678.751626 288.72 
L 679.217014 288.72 
L 679.682402 308.88 
L 680.14779 228.24 
L 680.613178 228.24 
L 681.078565 187.92 
L 681.543953 248.4 
L 682.009341 187.92 
L 682.940117 187.92 
L 683.405505 107.28 
L 683.870892 147.6 
L 684.33628 147.6 
L 685.267056 228.24 
L 685.732444 288.72 
L 686.663219 288.72 
L 687.128607 329.04 
L 687.593995 288.72 
L 688.059383 288.72 
L 688.524771 87.12 
L 688.990158 288.72 
L 689.455546 329.04 
L 689.920934 228.24 
L 690.85171 349.2 
L 691.317098 228.24 
L 692.247873 147.6 
L 692.713261 228.24 
L 693.178649 187.92 
L 693.644037 187.92 
L 694.109425 329.04 
L 694.574812 288.72 
L 695.0402 147.6 
L 695.505588 187.92 
L 695.970976 187.92 
L 696.436364 288.72 
L 698.297915 288.72 
L 698.763303 308.88 
L 699.228691 187.92 
L 699.694078 228.24 
L 700.159466 228.24 
L 700.624854 147.6 
L 701.090242 288.72 
L 701.55563 228.24 
L 702.021018 228.24 
L 702.486405 288.72 
L 702.951793 187.92 
L 703.417181 187.92 
L 703.882569 288.72 
L 704.347957 268.56 
L 704.813344 288.72 
L 705.278732 288.72 
L 705.74412 147.6 
L 706.209508 167.76 
L 706.674896 288.72 
L 707.140284 228.24 
L 707.605671 228.24 
L 708.071059 147.6 
L 708.536447 288.72 
L 709.001835 329.04 
L 709.467223 228.24 
L 709.932611 248.4 
L 710.397998 187.92 
L 710.863386 288.72 
L 711.328774 66.96 
L 711.794162 228.24 
L 712.25955 288.72 
L 712.724937 228.24 
L 713.190325 288.72 
L 713.655713 187.92 
L 714.121101 329.04 
L 714.586489 147.6 
L 715.051877 268.56 
L 715.517264 187.92 
L 715.982652 147.6 
L 716.44804 329.04 
L 716.913428 147.6 
L 717.378816 329.04 
L 717.844204 107.28 
L 718.774979 187.92 
L 719.240367 147.6 
L 719.705755 147.6 
L 720.171143 208.08 
L 720.63653 187.92 
L 721.101918 288.72 
L 721.567306 228.24 
L 722.032694 87.12 
L 722.498082 329.04 
L 722.96347 268.56 
L 723.894245 107.28 
L 724.359633 228.24 
L 724.825021 288.72 
L 725.290409 147.6 
L 725.755796 187.92 
L 726.221184 147.6 
L 726.686572 288.72 
L 727.15196 268.56 
L 727.617348 288.72 
L 728.082736 288.72 
L 728.548123 248.4 
L 729.013511 187.92 
L 729.478899 187.92 
L 729.944287 268.56 
L 730.409675 147.6 
L 730.875063 228.24 
L 731.34045 329.04 
L 731.805838 87.12 
L 732.271226 308.88 
L 732.736614 248.4 
L 733.202002 228.24 
L 733.667389 268.56 
L 734.132777 288.72 
L 734.598165 228.24 
L 735.528941 228.24 
L 735.994329 147.6 
L 736.459716 208.08 
L 736.925104 288.72 
L 737.390492 288.72 
L 737.85588 147.6 
L 738.321268 329.04 
L 738.786656 187.92 
L 739.252043 87.12 
L 739.717431 288.72 
L 740.182819 87.12 
L 740.648207 187.92 
L 741.113595 228.24 
L 742.04437 228.24 
L 742.509758 288.72 
L 742.975146 87.12 
L 743.440534 167.76 
L 743.905922 288.72 
L 744.371309 147.6 
L 744.836697 187.92 
L 745.302085 288.72 
L 745.767473 147.6 
L 746.232861 147.6 
L 747.163636 228.24 
L 747.163636 228.24 
" clip-path="url(#p72ca6981a3)" style="fill: none; stroke: #1f77b4; stroke-width: 1.5; stroke-linecap: square"/>
   </g>
   <g id="line2d_17">
    <path d="M 138.436364 233.954758 
L 138.901751 210.829329 
L 139.367139 226.490389 
L 139.832527 195.136026 
L 140.297915 245.219632 
L 140.763303 220.41593 
L 141.228691 212.028036 
L 141.694078 244.445187 
L 142.159466 207.225459 
L 142.624854 213.712182 
L 143.090242 231.749585 
L 143.55563 240.490681 
L 144.021018 232.43586 
L 144.486405 220.870857 
L 144.951793 221.450869 
L 145.417181 280.805106 
L 145.882569 268.161049 
L 146.347957 222.959693 
L 146.813344 212.581747 
L 147.278732 269.55419 
L 147.74412 195.959114 
L 148.209508 262.322283 
L 148.674896 263.167942 
L 149.140284 226.160123 
L 149.605671 230.272802 
L 150.071059 252.166523 
L 150.536447 193.657676 
L 151.001835 247.667169 
L 151.467223 278.593713 
L 151.932611 269.617415 
L 152.397998 208.590298 
L 152.863386 182.89565 
L 153.328774 271.24372 
L 153.794162 252.13678 
L 154.25955 207.538728 
L 154.724937 191.90943 
L 155.190325 241.300263 
L 155.655713 247.869783 
L 156.121101 233.622811 
L 156.586489 229.742325 
L 157.051877 279.440285 
L 157.982652 234.969251 
L 158.44804 196.893712 
L 158.913428 218.991278 
L 159.378816 234.12291 
L 160.309591 279.301406 
L 160.774979 202.213586 
L 161.240367 219.191786 
L 161.705755 210.862205 
L 162.171143 257.198044 
L 162.63653 203.16993 
L 163.101918 276.497225 
L 163.567306 271.709471 
L 164.032694 236.899914 
L 164.498082 278.12327 
L 165.428857 190.204731 
L 165.894245 274.629412 
L 166.359633 261.903635 
L 166.825021 257.744699 
L 167.290409 259.874919 
L 167.755796 248.731765 
L 168.221184 274.876063 
L 168.686572 215.654112 
L 169.15196 190.317357 
L 169.617348 211.481227 
L 170.082736 190.657043 
L 170.548123 218.051315 
L 171.013511 219.55987 
L 171.478899 257.384268 
L 171.944287 225.141045 
L 172.409675 270.677127 
L 172.875063 244.760485 
L 173.34045 255.784514 
L 173.805838 230.551176 
L 174.271226 244.419962 
L 174.736614 190.281981 
L 175.202002 200.509426 
L 175.667389 269.476555 
L 176.132777 277.533866 
L 177.528941 218.626598 
L 177.994329 214.383634 
L 178.459716 268.937514 
L 178.925104 201.58051 
L 179.390492 196.82992 
L 179.85588 263.378246 
L 180.321268 257.286974 
L 180.786656 184.86813 
L 181.252043 234.090812 
L 181.717431 196.24664 
L 182.182819 185.989048 
L 182.648207 214.484109 
L 183.113595 232.135193 
L 183.578982 197.428044 
L 184.04437 190.871548 
L 184.509758 252.758426 
L 184.975146 221.167958 
L 185.440534 236.015717 
L 185.905922 226.766398 
L 186.371309 253.383437 
L 186.836697 228.469915 
L 187.302085 279.435123 
L 187.767473 243.67922 
L 188.232861 257.042889 
L 188.698249 240.014471 
L 189.163636 196.92755 
L 189.629024 220.916135 
L 190.094412 183.215014 
L 190.5598 267.346748 
L 191.025188 228.480105 
L 191.490575 213.981828 
L 191.955963 261.846716 
L 192.421351 272.518802 
L 192.886739 196.571906 
L 193.352127 230.114475 
L 193.817515 221.901336 
L 194.282902 288.151523 
L 194.74829 267.655375 
L 195.213678 207.283464 
L 195.679066 222.345689 
L 196.144454 186.199036 
L 196.609842 227.664198 
L 197.075229 186.665422 
L 197.540617 272.534337 
L 198.006005 279.316815 
L 198.471393 297.23644 
L 198.936781 265.977919 
L 199.402168 198.888571 
L 199.867556 218.119087 
L 200.332944 285.151544 
L 200.798332 261.137466 
L 201.729108 203.654138 
L 202.194495 218.526641 
L 202.659883 182.285857 
L 203.125271 188.796344 
L 203.590659 240.835963 
L 204.056047 223.681113 
L 204.521435 220.37619 
L 204.986822 212.68476 
L 205.45221 223.123403 
L 205.917598 192.643385 
L 206.382986 217.864784 
L 207.313761 243.978426 
L 207.779149 226.055649 
L 208.244537 254.933068 
L 208.709925 254.480025 
L 209.175313 256.008421 
L 209.640701 207.654373 
L 210.106088 271.4981 
L 211.036864 207.2756 
L 211.502252 261.648082 
L 211.96764 228.271819 
L 212.433028 274.027809 
L 212.898415 277.06152 
L 213.363803 193.199711 
L 213.829191 222.331443 
L 214.294579 278.27431 
L 214.759967 205.386619 
L 215.225354 259.72634 
L 215.690742 262.964664 
L 216.15613 274.917313 
L 216.621518 252.800579 
L 217.086906 195.475059 
L 217.552294 230.923681 
L 218.017681 221.769119 
L 218.483069 187.320146 
L 218.948457 215.24179 
L 219.413845 207.31934 
L 219.879233 191.133677 
L 220.344621 192.910454 
L 220.810008 208.754701 
L 221.275396 271.168103 
L 221.740784 198.844121 
L 222.206172 209.212685 
L 222.67156 206.14157 
L 223.136947 259.33531 
L 223.602335 194.696095 
L 224.067723 201.082036 
L 224.998499 272.580768 
L 225.463887 208.293717 
L 225.929274 277.19566 
L 226.394662 203.299533 
L 226.86005 255.94832 
L 227.325438 209.290435 
L 227.790826 278.698082 
L 228.256214 282.636736 
L 228.721601 212.845067 
L 229.652377 192.920529 
L 230.117765 194.69175 
L 230.583153 254.400121 
L 231.04854 233.150089 
L 231.513928 223.03083 
L 231.979316 240.664091 
L 232.444704 265.202637 
L 232.910092 210.153801 
L 233.37548 220.534382 
L 234.306255 279.401314 
L 234.771643 283.632146 
L 235.237031 199.514034 
L 235.702419 202.189669 
L 236.167807 253.987366 
L 236.633194 242.928557 
L 237.098582 193.450707 
L 238.029358 240.978043 
L 238.494746 209.60532 
L 238.960133 209.448185 
L 239.425521 241.95616 
L 239.890909 241.797141 
L 240.356297 209.682301 
L 240.821685 272.829467 
L 241.287073 250.808373 
L 241.75246 220.80049 
L 242.217848 210.292806 
L 242.683236 216.311278 
L 243.148624 242.532606 
L 243.614012 232.679108 
L 244.079399 229.191316 
L 244.544787 242.791235 
L 245.010175 222.86935 
L 245.475563 195.891457 
L 245.940951 265.010088 
L 246.871726 212.574422 
L 247.337114 221.684216 
L 247.802502 239.46052 
L 248.26789 223.4504 
L 248.733278 237.066816 
L 249.198666 279.890973 
L 249.664053 247.57622 
L 250.129441 277.19717 
L 250.594829 254.684244 
L 251.060217 224.559091 
L 251.525605 233.335025 
L 251.990992 278.770141 
L 252.45638 210.422255 
L 252.921768 193.405622 
L 253.387156 199.428151 
L 253.852544 220.745599 
L 254.317932 227.005071 
L 254.783319 273.577313 
L 255.248707 261.120845 
L 255.714095 218.727746 
L 256.179483 213.045038 
L 256.644871 198.207815 
L 257.110259 197.614094 
L 257.575646 255.163214 
L 258.041034 194.831812 
L 258.506422 222.885731 
L 258.97181 231.441266 
L 259.437198 277.212724 
L 259.902585 223.380437 
L 260.367973 249.222905 
L 260.833361 209.340615 
L 261.298749 238.119857 
L 261.764137 201.544923 
L 262.229525 231.786778 
L 262.694912 209.634678 
L 263.1603 264.058493 
L 263.625688 213.907096 
L 264.091076 238.646613 
L 264.556464 229.97846 
L 265.021852 229.955812 
L 265.487239 220.151187 
L 265.952627 247.135069 
L 266.418015 258.846199 
L 266.883403 229.113758 
L 267.348791 238.179429 
L 267.814178 257.408704 
L 268.279566 215.31704 
L 268.744954 190.464225 
L 269.210342 191.604677 
L 269.67573 235.556338 
L 270.141118 229.127889 
L 270.606505 203.001279 
L 271.537281 263.727469 
L 272.002669 213.44842 
L 272.468057 191.323515 
L 272.933445 275.951983 
L 273.398832 279.969387 
L 273.86422 278.059959 
L 274.329608 203.013314 
L 274.794996 215.225351 
L 275.260384 230.419775 
L 275.725771 222.735863 
L 276.191159 235.096133 
L 276.656547 250.71107 
L 277.121935 258.316828 
L 277.587323 210.41145 
L 278.052711 199.944756 
L 278.518098 186.393027 
L 278.983486 256.472606 
L 279.448874 259.73057 
L 279.914262 188.417321 
L 280.37965 225.789406 
L 280.845038 216.585596 
L 281.310425 273.112359 
L 281.775813 182.83132 
L 282.241201 231.012909 
L 282.706589 214.066865 
L 283.171977 183.824539 
L 283.637364 182.106304 
L 284.56814 239.755255 
L 285.033528 211.720515 
L 285.498916 221.787268 
L 285.964304 211.69156 
L 286.429691 222.309448 
L 286.895079 221.023762 
L 287.360467 205.979744 
L 287.825855 196.455358 
L 288.291243 207.328357 
L 288.756631 246.472288 
L 289.222018 265.334816 
L 289.687406 228.032954 
L 290.152794 208.660743 
L 290.618182 201.075345 
L 291.08357 187.264141 
L 291.548957 206.08218 
L 292.014345 211.131793 
L 292.479733 210.127673 
L 292.945121 276.105273 
L 293.410509 245.077436 
L 293.875897 247.774691 
L 294.341284 221.000499 
L 294.806672 217.512485 
L 295.27206 209.067067 
L 295.737448 272.683099 
L 296.202836 228.06983 
L 296.668224 205.149254 
L 297.133611 238.475279 
L 297.598999 195.867328 
L 298.064387 241.660405 
L 298.529775 258.746195 
L 298.995163 219.549238 
L 299.46055 209.205302 
L 299.925938 259.410081 
L 300.391326 258.627281 
L 300.856714 208.921122 
L 301.78749 278.72348 
L 302.252877 231.567457 
L 302.718265 224.532982 
L 303.183653 281.733994 
L 303.649041 263.643547 
L 304.114429 259.315104 
L 305.045204 195.818783 
L 305.510592 198.574302 
L 305.97598 207.390265 
L 306.441368 256.430923 
L 306.906756 209.828304 
L 307.372143 231.601804 
L 307.837531 217.031737 
L 308.302919 266.52716 
L 308.768307 227.608846 
L 309.233695 209.56185 
L 309.699083 242.143605 
L 310.16447 185.952769 
L 310.629858 223.593231 
L 311.095246 180.670713 
L 312.026022 232.926817 
L 312.49141 254.514968 
L 312.956797 206.112577 
L 313.422185 245.705091 
L 313.887573 262.518812 
L 314.352961 184.647261 
L 314.818349 258.187091 
L 315.283736 265.104805 
L 315.749124 243.814514 
L 316.214512 234.329023 
L 316.6799 283.877192 
L 317.145288 271.047941 
L 317.610676 273.326951 
L 318.076063 215.271052 
L 318.541451 200.52771 
L 319.006839 265.767009 
L 319.472227 233.258707 
L 319.937615 210.819177 
L 320.403003 205.798192 
L 320.86839 269.242516 
L 321.333778 236.911133 
L 321.799166 227.038889 
L 322.264554 209.803829 
L 322.729942 282.334357 
L 323.195329 253.117858 
L 323.660717 211.365505 
L 324.126105 236.441939 
L 324.591493 285.250242 
L 325.987656 196.236969 
L 326.453044 182.273206 
L 326.918432 259.729791 
L 327.38382 214.226614 
L 327.849208 248.707492 
L 328.314595 181.770425 
L 328.779983 251.326631 
L 329.245371 183.196211 
L 329.710759 215.885652 
L 330.176147 212.28555 
L 330.641535 235.725662 
L 331.106922 191.929482 
L 331.57231 222.442858 
L 332.037698 215.731343 
L 332.503086 201.489109 
L 332.968474 204.916715 
L 333.433862 222.741554 
L 333.899249 209.422057 
L 334.364637 212.100941 
L 334.830025 245.863139 
L 335.295413 241.063686 
L 335.760801 210.205308 
L 336.226188 225.223044 
L 336.691576 229.509007 
L 337.156964 200.854803 
L 337.622352 203.350905 
L 338.08774 220.588542 
L 338.553128 274.057186 
L 339.018515 270.328655 
L 339.483903 241.408842 
L 339.949291 249.625854 
L 340.880067 213.783646 
L 341.345455 186.31122 
L 341.810842 282.484369 
L 342.27623 245.141488 
L 342.741618 273.806315 
L 343.207006 207.55086 
L 343.672394 209.168638 
L 344.137781 240.324635 
L 344.603169 196.010909 
L 345.068557 248.927179 
L 345.533945 208.241557 
L 345.999333 206.258253 
L 346.464721 217.542612 
L 346.930108 190.638471 
L 347.395496 189.178577 
L 347.860884 206.579962 
L 348.326272 280.182758 
L 348.79166 225.507802 
L 349.257048 226.223531 
L 349.722435 269.276777 
L 350.187823 223.155703 
L 350.653211 210.921133 
L 351.118599 249.001632 
L 351.583987 262.689914 
L 352.049374 267.841387 
L 352.514762 242.218404 
L 352.98015 272.368926 
L 353.445538 247.214847 
L 353.910926 237.47759 
L 354.376314 264.670825 
L 354.841701 209.688396 
L 355.307089 232.719896 
L 355.772477 205.24971 
L 356.237865 203.933282 
L 356.703253 267.638254 
L 357.168641 204.880128 
L 357.634028 262.565262 
L 358.564804 203.561469 
L 359.030192 197.889373 
L 359.960967 226.875968 
L 360.426355 214.815605 
L 360.891743 252.609126 
L 361.357131 243.570016 
L 361.822519 187.948954 
L 362.753294 272.808761 
L 363.218682 279.442045 
L 363.68407 270.41671 
L 364.614846 197.823043 
L 365.080234 211.305039 
L 365.545621 229.383961 
L 366.011009 201.25209 
L 366.476397 221.350336 
L 366.941785 214.773058 
L 367.407173 216.557545 
L 367.87256 285.471697 
L 368.337948 252.341143 
L 368.803336 250.202146 
L 369.268724 274.908402 
L 369.734112 218.874114 
L 370.1995 214.687098 
L 370.664887 202.172039 
L 371.130275 210.89439 
L 371.595663 245.233293 
L 372.061051 196.226222 
L 372.526439 199.591265 
L 372.991827 256.270347 
L 373.457214 260.408481 
L 373.922602 209.739883 
L 374.38799 211.946094 
L 374.853378 199.884944 
L 375.318766 246.811474 
L 375.784153 223.199481 
L 376.249541 190.368094 
L 376.714929 277.442437 
L 377.180317 231.379156 
L 377.645705 275.874637 
L 378.111093 224.442812 
L 378.57648 267.721618 
L 379.041868 193.089199 
L 379.507256 234.251926 
L 379.972644 261.363892 
L 380.438032 233.59824 
L 380.90342 284.565082 
L 381.368807 216.728253 
L 381.834195 200.984848 
L 382.299583 209.529646 
L 382.764971 232.355697 
L 383.230359 209.982228 
L 383.695746 218.836085 
L 384.161134 194.521599 
L 384.626522 266.525257 
L 385.09191 260.900832 
L 386.022686 209.417943 
L 386.488073 238.643335 
L 386.953461 207.402742 
L 387.418849 264.635853 
L 387.884237 212.596455 
L 388.349625 263.090576 
L 388.815013 202.764856 
L 389.2804 246.669509 
L 389.745788 208.528967 
L 390.211176 210.89512 
L 390.676564 195.107649 
L 391.141952 199.615009 
L 391.607339 184.426642 
L 393.003503 266.69856 
L 393.468891 274.729292 
L 393.934279 210.422159 
L 394.399666 214.391247 
L 394.865054 247.254847 
L 395.330442 211.045237 
L 395.79583 265.410894 
L 396.261218 255.047607 
L 396.726606 253.665349 
L 397.191993 275.421594 
L 397.657381 218.143427 
L 398.122769 235.911617 
L 398.588157 198.247324 
L 399.053545 268.006577 
L 399.518932 213.139591 
L 399.98432 244.29457 
L 400.449708 199.537682 
L 400.915096 193.719199 
L 401.845872 227.13627 
L 402.311259 183.783991 
L 402.776647 278.099622 
L 403.242035 274.683101 
L 403.707423 184.912427 
L 404.172811 269.327341 
L 404.638198 210.700648 
L 405.103586 182.205703 
L 405.568974 228.948144 
L 406.49975 257.403436 
L 406.965138 244.624143 
L 407.430525 214.542633 
L 407.895913 221.849541 
L 408.361301 236.108482 
L 408.826689 198.135005 
L 409.292077 219.698182 
L 409.757465 218.34757 
L 410.222852 184.705189 
L 410.68824 246.949479 
L 411.153628 278.991481 
L 411.619016 209.008369 
L 412.084404 185.454006 
L 412.549791 181.6667 
L 413.480567 245.316157 
L 413.945955 245.003897 
L 414.411343 225.168173 
L 414.876731 226.578963 
L 415.342118 226.133457 
L 415.807506 229.720475 
L 416.272894 189.234487 
L 416.738282 217.087993 
L 417.20367 213.335813 
L 417.669058 210.685998 
L 418.134445 283.47481 
L 418.599833 233.363826 
L 419.065221 281.584435 
L 419.530609 233.515279 
L 419.995997 257.98713 
L 420.461384 227.192467 
L 420.926772 184.851153 
L 421.39216 216.101849 
L 421.857548 227.678772 
L 422.322936 271.228464 
L 422.788324 258.080646 
L 423.253711 183.90175 
L 424.184487 270.023633 
L 424.649875 185.872289 
L 425.115263 226.974578 
L 425.580651 213.874527 
L 426.046038 232.628169 
L 426.511426 188.371505 
L 426.976814 190.377631 
L 427.442202 232.73446 
L 427.90759 234.148499 
L 428.372977 231.663452 
L 428.838365 243.611544 
L 429.303753 251.199076 
L 429.769141 226.485428 
L 430.234529 252.285455 
L 430.699917 259.34725 
L 431.165304 211.273566 
L 432.09608 249.278747 
L 432.561468 271.486314 
L 433.026856 199.64556 
L 433.492244 269.08592 
L 433.957631 265.518204 
L 434.423019 183.275307 
L 434.888407 258.636481 
L 435.353795 204.890317 
L 435.819183 206.351249 
L 436.28457 198.018707 
L 436.749958 185.658841 
L 437.215346 256.214899 
L 437.680734 218.49511 
L 438.146122 221.615118 
L 438.61151 275.7973 
L 439.076897 215.206587 
L 439.542285 245.06294 
L 440.007673 227.366444 
L 440.473061 215.522471 
L 440.938449 264.291965 
L 441.403837 238.374016 
L 441.869224 228.751981 
L 442.334612 207.027372 
L 442.8 230.295719 
L 443.265388 202.196494 
L 444.196163 256.451784 
L 444.661551 241.22281 
L 445.126939 193.896021 
L 445.592327 279.370591 
L 446.057715 260.066757 
L 446.523103 252.336846 
L 446.98849 254.063492 
L 447.453878 270.96348 
L 447.919266 269.327293 
L 448.384654 206.755996 
L 448.850042 252.193977 
L 449.31543 221.318113 
L 449.780817 203.664444 
L 450.246205 190.818869 
L 450.711593 246.619627 
L 451.176981 251.226387 
L 451.642369 192.49942 
L 452.107756 199.670419 
L 452.573144 193.864664 
L 453.038532 201.787325 
L 453.50392 187.422852 
L 453.969308 233.528516 
L 454.434696 226.103368 
L 454.900083 284.312634 
L 455.365471 184.404185 
L 455.830859 248.18312 
L 456.296247 227.069017 
L 456.761635 218.068253 
L 457.227023 275.924048 
L 458.157798 197.821428 
L 458.623186 244.672333 
L 459.088574 257.647415 
L 459.553962 246.681612 
L 460.019349 258.567258 
L 460.484737 200.003626 
L 460.950125 199.620989 
L 461.415513 182.440992 
L 462.346289 251.670298 
L 462.811676 254.245957 
L 463.277064 184.91781 
L 464.20784 277.697922 
L 464.673228 182.098172 
L 465.138616 207.935074 
L 465.604003 247.140961 
L 466.069391 234.349825 
L 466.534779 212.21524 
L 467.000167 268.910184 
L 467.465555 234.669132 
L 467.930942 264.688618 
L 468.39633 243.879008 
L 468.861718 207.756752 
L 469.327106 194.32855 
L 470.257882 215.963825 
L 470.723269 203.797776 
L 471.188657 205.902436 
L 471.654045 246.524727 
L 472.119433 219.876831 
L 472.584821 220.803354 
L 473.050209 224.063097 
L 473.515596 201.636343 
L 473.980984 254.792718 
L 474.446372 232.601868 
L 474.91176 264.804061 
L 475.377148 204.209926 
L 475.842535 202.699795 
L 476.307923 205.667012 
L 476.773311 267.276015 
L 477.238699 238.361865 
L 477.704087 263.475617 
L 478.169475 272.511016 
L 478.634862 270.860506 
L 479.10025 253.392079 
L 479.565638 222.967307 
L 480.031026 250.507764 
L 480.496414 199.079871 
L 480.961802 202.897689 
L 481.427189 273.510137 
L 481.892577 219.964002 
L 482.357965 231.868326 
L 482.823353 232.439571 
L 483.288741 214.635764 
L 483.754128 205.759797 
L 484.219516 236.37411 
L 484.684904 191.719687 
L 485.150292 187.017317 
L 486.081068 259.530782 
L 486.546455 243.189051 
L 487.011843 209.775355 
L 487.477231 190.404509 
L 487.942619 190.081414 
L 488.408007 188.684121 
L 488.873394 225.966132 
L 489.338782 246.611379 
L 489.80417 190.457265 
L 490.269558 183.037365 
L 490.734946 212.00681 
L 491.200334 249.263885 
L 491.665721 274.347846 
L 492.131109 243.344273 
L 492.596497 199.229219 
L 493.061885 185.584801 
L 493.527273 227.734681 
L 493.992661 209.771491 
L 494.458048 279.122421 
L 494.923436 229.357266 
L 495.388824 233.227859 
L 495.854212 185.450603 
L 496.3196 238.984857 
L 496.784987 216.200575 
L 497.250375 243.233329 
L 497.715763 236.850493 
L 498.181151 226.642448 
L 498.646539 270.015356 
L 499.111927 276.546502 
L 499.577314 267.292435 
L 500.042702 185.30014 
L 500.50809 234.102386 
L 500.973478 244.870554 
L 501.438866 200.570603 
L 501.904254 225.864388 
L 502.369641 242.566742 
L 502.835029 282.143702 
L 503.300417 203.363959 
L 503.765805 238.93261 
L 504.231193 216.606456 
L 504.69658 227.391342 
L 505.161968 204.062616 
L 505.627356 269.109462 
L 506.092744 192.042974 
L 506.558132 198.003172 
L 507.02352 246.209583 
L 507.488907 185.590261 
L 507.954295 250.928882 
L 508.419683 214.419702 
L 508.885071 208.049623 
L 509.350459 196.112173 
L 509.815847 217.541651 
L 510.281234 278.895486 
L 510.746622 208.11626 
L 511.21201 239.050937 
L 511.677398 222.845817 
L 512.142786 222.385161 
L 512.608173 272.862065 
L 513.073561 272.492463 
L 513.538949 219.878004 
L 514.004337 210.537784 
L 514.469725 215.985992 
L 514.935113 275.031862 
L 515.4005 231.376148 
L 515.865888 204.913446 
L 516.331276 214.713073 
L 516.796664 201.44214 
L 517.262052 240.137085 
L 517.72744 183.83121 
L 518.192827 227.976833 
L 518.658215 190.387436 
L 519.123603 244.222068 
L 519.588991 210.057229 
L 520.054379 245.595867 
L 520.519766 204.366657 
L 520.985154 235.15409 
L 521.450542 233.22286 
L 521.91593 277.557159 
L 522.381318 209.507574 
L 522.846706 223.769919 
L 523.312093 251.615099 
L 523.777481 210.530728 
L 524.242869 220.83254 
L 524.708257 280.327742 
L 525.173645 251.392442 
L 525.639033 241.989181 
L 526.10442 286.02983 
L 526.569808 222.539815 
L 527.035196 212.398618 
L 527.500584 185.955653 
L 527.965972 211.729916 
L 528.431359 194.317841 
L 528.896747 199.853374 
L 529.362135 199.443359 
L 529.827523 253.762162 
L 530.758299 223.11752 
L 531.223686 257.586295 
L 531.689074 198.514913 
L 532.154462 211.619789 
L 532.61985 254.092658 
L 533.085238 198.063311 
L 533.550626 267.563003 
L 534.016013 209.022481 
L 535.412177 281.140341 
L 535.877565 207.553994 
L 536.342952 265.375758 
L 536.80834 248.623888 
L 537.273728 191.320708 
L 537.739116 250.966517 
L 538.204504 271.210968 
L 538.669892 188.161479 
L 539.135279 275.478349 
L 539.600667 195.894168 
L 540.531443 241.864865 
L 540.996831 248.592924 
L 541.927606 202.897958 
L 542.392994 281.227897 
L 542.858382 224.241457 
L 543.32377 216.840399 
L 543.789158 239.924522 
L 544.254545 188.472865 
L 544.719933 183.597844 
L 545.185321 274.356517 
L 545.650709 263.986425 
L 546.116097 183.100831 
L 546.581485 224.919772 
L 547.046872 229.840109 
L 547.51226 195.565287 
L 547.977648 212.050607 
L 548.443036 217.711859 
L 548.908424 197.135269 
L 549.373812 217.207867 
L 549.839199 202.954982 
L 550.304587 211.655761 
L 550.769975 251.422791 
L 551.235363 225.358992 
L 551.700751 210.860667 
L 552.166138 204.573645 
L 552.631526 223.927726 
L 553.096914 215.511685 
L 553.562302 248.400298 
L 554.02769 224.422144 
L 554.493078 188.234135 
L 554.958465 216.896866 
L 555.423853 214.04264 
L 555.889241 182.225275 
L 556.354629 225.030726 
L 556.820017 283.507581 
L 557.285405 274.383866 
L 557.750792 187.241877 
L 558.21618 267.95086 
L 559.146956 196.562639 
L 559.612344 288.322837 
L 560.077731 218.842064 
L 560.543119 264.975029 
L 561.008507 254.923253 
L 561.473895 215.639654 
L 561.939283 260.147612 
L 562.870058 199.301105 
L 563.335446 203.040385 
L 563.800834 195.854485 
L 564.266222 266.510798 
L 564.73161 270.507438 
L 565.196997 222.326944 
L 565.662385 240.560953 
L 566.127773 199.826785 
L 566.593161 241.734935 
L 567.058549 261.259446 
L 567.523937 192.847431 
L 567.989324 192.771238 
L 568.454712 215.714232 
L 568.9201 190.793221 
L 569.385488 195.177401 
L 569.850876 219.466489 
L 570.316264 191.944709 
L 570.781651 272.673111 
L 571.247039 244.178521 
L 571.712427 203.28098 
L 572.177815 252.001496 
L 573.10859 203.857954 
L 573.573978 256.526592 
L 574.039366 244.863969 
L 574.504754 258.845507 
L 574.970142 260.195687 
L 575.43553 248.335718 
L 575.900917 219.946025 
L 576.366305 261.787317 
L 576.831693 210.1578 
L 577.297081 210.076762 
L 577.762469 208.390655 
L 578.227857 251.759064 
L 578.693244 231.069203 
L 579.158632 223.47401 
L 579.62402 187.851997 
L 580.089408 223.805102 
L 580.554796 244.83786 
L 581.020183 204.828986 
L 581.485571 213.017775 
L 581.950959 207.806413 
L 582.416347 194.146018 
L 582.881735 197.123541 
L 583.347123 238.950567 
L 583.81251 226.868239 
L 584.743286 276.452544 
L 585.208674 196.324832 
L 585.674062 191.028145 
L 586.13945 273.284404 
L 586.604837 213.306781 
L 587.070225 266.275423 
L 587.535613 251.441882 
L 588.001001 288.179228 
L 588.466389 190.746194 
L 588.931776 261.35822 
L 589.397164 237.303008 
L 589.862552 221.216292 
L 590.32794 218.154001 
L 590.793328 209.886078 
L 591.258716 217.239244 
L 591.724103 226.965061 
L 592.189491 250.148438 
L 592.654879 200.709954 
L 593.120267 259.72783 
L 593.585655 226.64885 
L 594.051043 232.986158 
L 594.51643 241.265089 
L 594.981818 191.835371 
L 595.447206 233.940195 
L 595.912594 199.492616 
L 596.377982 211.982547 
L 596.843369 182.967306 
L 597.308757 209.654 
L 597.774145 187.343218 
L 598.239533 239.403293 
L 598.704921 197.566298 
L 599.170309 206.65754 
L 599.635696 283.638491 
L 600.101084 208.187858 
L 600.566472 187.768268 
L 601.03186 254.88432 
L 601.497248 227.994406 
L 601.962636 252.761387 
L 602.428023 214.758331 
L 602.893411 282.633679 
L 603.358799 260.241762 
L 603.824187 210.182448 
L 604.289575 258.568555 
L 604.754962 209.588362 
L 605.22035 185.361759 
L 605.685738 224.511603 
L 606.151126 273.734986 
L 607.081902 198.912104 
L 607.547289 228.335602 
L 608.012677 192.20107 
L 608.478065 232.313178 
L 608.943453 237.188815 
L 609.408841 202.09898 
L 609.874229 212.18942 
L 610.339616 259.319516 
L 610.805004 281.638104 
L 611.270392 186.282611 
L 611.73578 283.05473 
L 612.201168 226.885004 
L 612.666555 283.350388 
L 613.131943 224.414203 
L 613.597331 274.778155 
L 614.062719 229.555265 
L 614.528107 212.37199 
L 614.993495 208.487401 
L 615.458882 187.282252 
L 615.92427 271.251372 
L 616.855046 186.409061 
L 617.785822 206.87764 
L 618.251209 208.602488 
L 619.181985 282.440457 
L 619.647373 191.490013 
L 620.578148 259.435959 
L 621.043536 221.085574 
L 621.508924 245.409221 
L 621.974312 242.875397 
L 622.4397 263.971313 
L 622.905088 207.357119 
L 623.370475 215.824666 
L 623.835863 210.019507 
L 624.301251 282.360322 
L 624.766639 268.008 
L 625.232027 195.354973 
L 626.162802 236.070655 
L 626.62819 184.020452 
L 627.558966 214.927001 
L 628.024354 214.704171 
L 628.489741 249.161468 
L 629.420517 242.107902 
L 629.885905 214.336049 
L 630.351293 236.34355 
L 630.816681 200.312839 
L 631.282068 233.824184 
L 631.747456 234.904113 
L 632.212844 279.376089 
L 632.678232 184.725088 
L 633.14362 244.522524 
L 633.609008 233.564392 
L 634.074395 194.964914 
L 635.005171 229.974951 
L 635.470559 236.959371 
L 635.935947 192.860659 
L 636.401334 248.245586 
L 636.866722 244.497443 
L 637.33211 195.386811 
L 637.797498 206.675074 
L 638.262886 272.909226 
L 638.728274 184.344162 
L 639.193661 266.80936 
L 639.659049 199.973326 
L 640.124437 228.286844 
L 640.589825 207.415355 
L 641.055213 231.852531 
L 641.520601 183.762323 
L 641.985988 227.430563 
L 642.451376 215.98084 
L 642.916764 237.983236 
L 644.312927 183.934858 
L 644.778315 232.080053 
L 645.243703 192.628312 
L 645.709091 222.201898 
L 646.174479 199.781738 
L 646.639867 264.211293 
L 647.105254 257.414039 
L 647.570642 221.360853 
L 648.501418 259.527629 
L 648.966806 215.863888 
L 649.432193 238.374535 
L 649.897581 219.177059 
L 650.362969 210.196349 
L 650.828357 183.152164 
L 651.293745 210.643739 
L 651.759133 183.544203 
L 652.22452 238.046548 
L 652.689908 263.771765 
L 653.155296 217.754772 
L 653.620684 244.216666 
L 654.086072 254.024501 
L 654.55146 252.427045 
L 655.016847 228.970706 
L 655.482235 216.151894 
L 655.947623 183.747654 
L 656.413011 213.478912 
L 656.878399 227.147498 
L 657.343786 209.942007 
L 657.809174 209.106115 
L 658.274562 289.278633 
L 658.73995 213.887736 
L 659.205338 272.475746 
L 659.670726 276.698378 
L 660.136113 228.006249 
L 660.601501 204.364042 
L 661.066889 233.170258 
L 661.532277 204.699153 
L 661.997665 234.534126 
L 662.463053 252.227488 
L 662.92844 214.031797 
L 663.393828 232.90713 
L 664.324604 200.348273 
L 664.789992 215.428763 
L 665.255379 197.866436 
L 665.720767 238.671943 
L 666.186155 269.483169 
L 666.651543 251.193164 
L 667.116931 278.66806 
L 667.582319 223.456553 
L 668.047706 204.546574 
L 668.513094 263.796682 
L 668.978482 213.923958 
L 669.44387 224.135695 
L 669.909258 239.120968 
L 670.374646 223.153742 
L 670.840033 245.735776 
L 671.305421 196.786046 
L 671.770809 261.041826 
L 672.236197 265.141575 
L 672.701585 209.916898 
L 673.166972 210.902465 
L 673.63236 182.649787 
L 674.097748 267.01804 
L 674.563136 194.063692 
L 675.959299 243.435501 
L 676.424687 260.955953 
L 676.890075 227.014761 
L 677.355463 201.991391 
L 677.820851 247.220817 
L 678.286239 184.572241 
L 678.751626 224.249052 
L 679.217014 251.62775 
L 679.682402 256.38704 
L 680.14779 193.000663 
L 680.613178 213.814811 
L 681.078565 209.816191 
L 681.543953 252.331069 
L 682.009341 209.986438 
L 682.474729 214.479495 
L 682.940117 233.849621 
L 683.405505 212.837934 
L 683.870892 236.533042 
L 684.33628 244.322592 
L 684.801668 185.342975 
L 685.267056 235.975409 
L 686.197832 256.804871 
L 686.663219 284.177427 
L 687.128607 274.472595 
L 687.593995 222.740093 
L 688.059383 259.002738 
L 688.524771 211.790594 
L 688.990158 260.178297 
L 689.455546 280.24209 
L 689.920934 194.793879 
L 690.85171 281.30856 
L 691.317098 252.696326 
L 691.782485 204.151382 
L 692.247873 235.586312 
L 692.713261 187.137287 
L 693.178649 204.095089 
L 693.644037 185.487344 
L 694.109425 247.666737 
L 694.574812 253.737447 
L 695.0402 188.540387 
L 695.505588 197.070765 
L 695.970976 188.443603 
L 696.436364 257.047686 
L 696.901751 253.929746 
L 697.367139 248.820465 
L 697.832527 231.473268 
L 698.297915 240.182843 
L 698.763303 243.853889 
L 699.228691 194.617672 
L 699.694078 241.667923 
L 700.159466 245.197042 
L 700.624854 235.766652 
L 701.090242 216.675843 
L 701.55563 231.066146 
L 702.021018 236.653792 
L 702.486405 271.116347 
L 702.951793 257.570837 
L 703.417181 205.505571 
L 703.882569 183.599247 
L 704.347957 222.354533 
L 704.813344 250.601924 
L 705.278732 269.168121 
L 705.74412 219.292973 
L 706.209508 184.883434 
L 706.674896 253.902522 
L 707.140284 241.614695 
L 707.605671 235.108967 
L 708.071059 231.107502 
L 708.536447 189.398101 
L 709.001835 278.032514 
L 709.467223 217.579949 
L 709.932611 257.464863 
L 710.397998 187.98608 
L 710.863386 210.623667 
L 711.328774 210.218286 
L 711.794162 221.498089 
L 712.25955 267.46173 
L 712.724937 203.877392 
L 713.190325 228.89882 
L 713.655713 211.054716 
L 714.121101 260.647365 
L 714.586489 211.396094 
L 715.051877 242.533144 
L 715.517264 215.359511 
L 715.982652 205.286701 
L 716.44804 290.106902 
L 716.913428 256.667039 
L 717.378816 280.028007 
L 717.844204 210.669214 
L 718.309591 202.848931 
L 718.774979 212.929066 
L 719.240367 184.355524 
L 719.705755 198.288276 
L 720.171143 226.361516 
L 720.63653 213.718854 
L 721.101918 251.502223 
L 721.567306 191.039277 
L 722.032694 189.666573 
L 722.498082 196.754439 
L 722.96347 197.794108 
L 723.428857 188.587875 
L 724.359633 243.280933 
L 724.825021 284.86447 
L 725.290409 191.502337 
L 725.755796 239.348114 
L 726.221184 182.332595 
L 726.686572 287.076594 
L 727.15196 239.45207 
L 727.617348 285.586323 
L 728.082736 265.207703 
L 728.548123 230.37048 
L 729.013511 269.763879 
L 729.478899 205.064217 
L 729.944287 211.723995 
L 730.409675 186.80458 
L 730.875063 203.289593 
L 731.34045 266.671865 
L 731.805838 214.013936 
L 732.271226 228.456159 
L 732.736614 207.84475 
L 733.202002 242.771586 
L 733.667389 263.092114 
L 734.132777 260.297229 
L 734.598165 226.335427 
L 735.063553 263.210624 
L 735.528941 244.245841 
L 735.994329 201.118969 
L 736.459716 216.857972 
L 737.390492 278.872866 
L 737.85588 220.586119 
L 738.321268 269.87365 
L 738.786656 200.807699 
L 739.252043 189.148085 
L 739.717431 275.820362 
L 740.182819 208.467463 
L 740.648207 225.6574 
L 741.578982 215.069562 
L 742.04437 248.39677 
L 742.509758 231.46627 
L 742.975146 182.711541 
L 743.905922 207.803587 
L 744.371309 203.632913 
L 744.836697 215.54385 
L 745.302085 205.956922 
L 745.767473 231.092236 
L 746.232861 244.838927 
L 746.698249 197.963759 
L 747.163636 234.973288 
L 747.163636 234.973288 
" clip-path="url(#p72ca6981a3)" style="fill: none; stroke: #ff7f0e; stroke-width: 1.5; stroke-linecap: square"/>
   </g>
   <g id="patch_3">
    <path d="M 108 384.48 
L 108 51.84 
" style="fill: none; stroke: #000000; stroke-width: 0.8; stroke-linejoin: miter; stroke-linecap: square"/>
   </g>
   <g id="patch_4">
    <path d="M 777.6 384.48 
L 777.6 51.84 
" style="fill: none; stroke: #000000; stroke-width: 0.8; stroke-linejoin: miter; stroke-linecap: square"/>
   </g>
   <g id="patch_5">
    <path d="M 108 384.48 
L 777.6 384.48 
" style="fill: none; stroke: #000000; stroke-width: 0.8; stroke-linejoin: miter; stroke-linecap: square"/>
   </g>
   <g id="patch_6">
    <path d="M 108 51.84 
L 777.6 51.84 
" style="fill: none; stroke: #000000; stroke-width: 0.8; stroke-linejoin: miter; stroke-linecap: square"/>
   </g>
   <g id="text_16">
    <!-- Regresso: Real vs Previsto -->
    <g transform="translate(360.520313 45.84) scale(0.12 -0.12)">
     <defs>
      <path id="DejaVuSans-52" d="M 2841 2188 
Q 3044 2119 3236 1894 
Q 3428 1669 3622 1275 
L 4263 0 
L 3584 0 
L 2988 1197 
Q 2756 1666 2539 1819 
Q 2322 1972 1947 1972 
L 1259 1972 
L 1259 0 
L 628 0 
L 628 4666 
L 2053 4666 
Q 2853 4666 3247 4331 
Q 3641 3997 3641 3322 
Q 3641 2881 3436 2590 
Q 3231 2300 2841 2188 
z
M 1259 4147 
L 1259 2491 
L 2053 2491 
Q 2509 2491 2742 2702 
Q 2975 2913 2975 3322 
Q 2975 3731 2742 3939 
Q 2509 4147 2053 4147 
L 1259 4147 
z
" transform="scale(0.015625)"/>
      <path id="DejaVuSans-65" d="M 3597 1894 
L 3597 1613 
L 953 1613 
Q 991 1019 1311 708 
Q 1631 397 2203 397 
Q 2534 397 2845 478 
Q 3156 559 3463 722 
L 3463 178 
Q 3153 47 2828 -22 
Q 2503 -91 2169 -91 
Q 1331 -91 842 396 
Q 353 884 353 1716 
Q 353 2575 817 3079 
Q 1281 3584 2069 3584 
Q 2775 3584 3186 3129 
Q 3597 2675 3597 1894 
z
M 3022 2063 
Q 3016 2534 2758 2815 
Q 2500 3097 2075 3097 
Q 1594 3097 1305 2825 
Q 1016 2553 972 2059 
L 3022 2063 
z
" transform="scale(0.015625)"/>
      <path id="DejaVuSans-67" d="M 2906 1791 
Q 2906 2416 2648 2759 
Q 2391 3103 1925 3103 
Q 1463 3103 1205 2759 
Q 947 2416 947 1791 
Q 947 1169 1205 825 
Q 1463 481 1925 481 
Q 2391 481 2648 825 
Q 2906 1169 2906 1791 
z
M 3481 434 
Q 3481 -459 3084 -895 
Q 2688 -1331 1869 -1331 
Q 1566 -1331 1297 -1286 
Q 1028 -1241 775 -1147 
L 775 -588 
Q 1028 -725 1275 -790 
Q 1522 -856 1778 -856 
Q 2344 -856 2625 -561 
Q 2906 -266 2906 331 
L 2906 616 
Q 2728 306 2450 153 
Q 2172 0 1784 0 
Q 1141 0 747 490 
Q 353 981 353 1791 
Q 353 2603 747 3093 
Q 1141 3584 1784 3584 
Q 2172 3584 2450 3431 
Q 2728 3278 2906 2969 
L 2906 3500 
L 3481 3500 
L 3481 434 
z
" transform="scale(0.015625)"/>
      <path id="DejaVuSans-72" d="M 2631 2963 
Q 2534 3019 2420 3045 
Q 2306 3072 2169 3072 
Q 1681 3072 1420 2755 
Q 1159 2438 1159 1844 
L 1159 0 
L 581 0 
L 581 3500 
L 1159 3500 
L 1159 2956 
Q 1341 3275 1631 3429 
Q 1922 3584 2338 3584 
Q 2397 3584 2469 3576 
Q 2541 3569 2628 3553 
L 2631 2963 
z
" transform="scale(0.015625)"/>
      <path id="DejaVuSans-73" d="M 2834 3397 
L 2834 2853 
Q 2591 2978 2328 3040 
Q 2066 3103 1784 3103 
Q 1356 3103 1142 2972 
Q 928 2841 928 2578 
Q 928 2378 1081 2264 
Q 1234 2150 1697 2047 
L 1894 2003 
Q 2506 1872 2764 1633 
Q 3022 1394 3022 966 
Q 3022 478 2636 193 
Q 2250 -91 1575 -91 
Q 1294 -91 989 -36 
Q 684 19 347 128 
L 347 722 
Q 666 556 975 473 
Q 1284 391 1588 391 
Q 1994 391 2212 530 
Q 2431 669 2431 922 
Q 2431 1156 2273 1281 
Q 2116 1406 1581 1522 
L 1381 1569 
Q 847 1681 609 1914 
Q 372 2147 372 2553 
Q 372 3047 722 3315 
Q 1072 3584 1716 3584 
Q 2034 3584 2315 3537 
Q 2597 3491 2834 3397 
z
" transform="scale(0.015625)"/>
      <path id="DejaVuSans-e3" d="M 2194 1759 
Q 1497 1759 1228 1600 
Q 959 1441 959 1056 
Q 959 750 1161 570 
Q 1363 391 1709 391 
Q 2188 391 2477 730 
Q 2766 1069 2766 1631 
L 2766 1759 
L 2194 1759 
z
M 3341 1997 
L 3341 0 
L 2766 0 
L 2766 531 
Q 2569 213 2275 61 
Q 1981 -91 1556 -91 
Q 1019 -91 701 211 
Q 384 513 384 1019 
Q 384 1609 779 1909 
Q 1175 2209 1959 2209 
L 2766 2209 
L 2766 2266 
Q 2766 2663 2505 2880 
Q 2244 3097 1772 3097 
Q 1472 3097 1187 3025 
Q 903 2953 641 2809 
L 641 3341 
Q 956 3463 1253 3523 
Q 1550 3584 1831 3584 
Q 2591 3584 2966 3190 
Q 3341 2797 3341 1997 
z
M 1844 4281 
L 1665 4453 
Q 1597 4516 1545 4545 
Q 1494 4575 1453 4575 
Q 1334 4575 1278 4461 
Q 1222 4347 1215 4091 
L 825 4091 
Q 831 4513 990 4742 
Q 1150 4972 1434 4972 
Q 1553 4972 1653 4928 
Q 1753 4884 1869 4781 
L 2047 4609 
Q 2115 4547 2167 4517 
Q 2219 4488 2259 4488 
Q 2378 4488 2434 4602 
Q 2490 4716 2497 4972 
L 2887 4972 
Q 2881 4550 2721 4320 
Q 2562 4091 2278 4091 
Q 2159 4091 2059 4134 
Q 1959 4178 1844 4281 
z
" transform="scale(0.015625)"/>
      <path id="DejaVuSans-6f" d="M 1959 3097 
Q 1497 3097 1228 2736 
Q 959 2375 959 1747 
Q 959 1119 1226 758 
Q 1494 397 1959 397 
Q 2419 397 2687 759 
Q 2956 1122 2956 1747 
Q 2956 2369 2687 2733 
Q 2419 3097 1959 3097 
z
M 1959 3584 
Q 2709 3584 3137 3096 
Q 3566 2609 3566 1747 
Q 3566 888 3137 398 
Q 2709 -91 1959 -91 
Q 1206 -91 779 398 
Q 353 888 353 1747 
Q 353 2609 779 3096 
Q 1206 3584 1959 3584 
z
" transform="scale(0.015625)"/>
      <path id="DejaVuSans-3a" d="M 750 794 
L 1409 794 
L 1409 0 
L 750 0 
L 750 794 
z
M 750 3309 
L 1409 3309 
L 1409 2516 
L 750 2516 
L 750 3309 
z
" transform="scale(0.015625)"/>
      <path id="DejaVuSans-20" transform="scale(0.015625)"/>
      <path id="DejaVuSans-61" d="M 2194 1759 
Q 1497 1759 1228 1600 
Q 959 1441 959 1056 
Q 959 750 1161 570 
Q 1363 391 1709 391 
Q 2188 391 2477 730 
Q 2766 1069 2766 1631 
L 2766 1759 
L 2194 1759 
z
M 3341 1997 
L 3341 0 
L 2766 0 
L 2766 531 
Q 2569 213 2275 61 
Q 1981 -91 1556 -91 
Q 1019 -91 701 211 
Q 384 513 384 1019 
Q 384 1609 779 1909 
Q 1175 2209 1959 2209 
L 2766 2209 
L 2766 2266 
Q 2766 2663 2505 2880 
Q 2244 3097 1772 3097 
Q 1472 3097 1187 3025 
Q 903 2953 641 2809 
L 641 3341 
Q 956 3463 1253 3523 
Q 1550 3584 1831 3584 
Q 2591 3584 2966 3190 
Q 3341 2797 3341 1997 
z
" transform="scale(0.015625)"/>
      <path id="DejaVuSans-6c" d="M 603 4863 
L 1178 4863 
L 1178 0 
L 603 0 
L 603 4863 
z
" transform="scale(0.015625)"/>
      <path id="DejaVuSans-76" d="M 191 3500 
L 800 3500 
L 1894 563 
L 2988 3500 
L 3597 3500 
L 2284 0 
L 1503 0 
L 191 3500 
z
" transform="scale(0.015625)"/>
      <path id="DejaVuSans-50" d="M 1259 4147 
L 1259 2394 
L 2053 2394 
Q 2494 2394 2734 2622 
Q 2975 2850 2975 3272 
Q 2975 3691 2734 3919 
Q 2494 4147 2053 4147 
L 1259 4147 
z
M 628 4666 
L 2053 4666 
Q 2838 4666 3239 4311 
Q 3641 3956 3641 3272 
Q 3641 2581 3239 2228 
Q 2838 1875 2053 1875 
L 1259 1875 
L 1259 0 
L 628 0 
L 628 4666 
z
" transform="scale(0.015625)"/>
      <path id="DejaVuSans-69" d="M 603 3500 
L 1178 3500 
L 1178 0 
L 603 0 
L 603 3500 
z
M 603 4863 
L 1178 4863 
L 1178 4134 
L 603 4134 
L 603 4863 
z
" transform="scale(0.015625)"/>
      <path id="DejaVuSans-74" d="M 1172 4494 
L 1172 3500 
L 2356 3500 
L 2356 3053 
L 1172 3053 
L 1172 1153 
Q 1172 725 1289 603 
Q 1406 481 1766 481 
L 2356 481 
L 2356 0 
L 1766 0 
Q 1100 0 847 248 
Q 594 497 594 1153 
L 594 3053 
L 172 3053 
L 172 3500 
L 594 3500 
L 594 4494 
L 1172 4494 
z
" transform="scale(0.015625)"/>
     </defs>
     <use xlink:href="#DejaVuSans-52"/>
     <use xlink:href="#DejaVuSans-65" x="64.982422"/>
     <use xlink:href="#DejaVuSans-67" x="126.505859"/>
     <use xlink:href="#DejaVuSans-72" x="189.982422"/>
     <use xlink:href="#DejaVuSans-65" x="228.845703"/>
     <use xlink:href="#DejaVuSans-73" x="290.369141"/>
     <use xlink:href="#DejaVuSans-73" x="342.46875"/>
     <use xlink:href="#DejaVuSans-e3" x="394.568359"/>
     <use xlink:href="#DejaVuSans-6f" x="455.847656"/>
     <use xlink:href="#DejaVuSans-3a" x="517.029297"/>
     <use xlink:href="#DejaVuSans-20" x="550.720703"/>
     <use xlink:href="#DejaVuSans-52" x="582.507812"/>
     <use xlink:href="#DejaVuSans-65" x="647.490234"/>
     <use xlink:href="#DejaVuSans-61" x="709.013672"/>
     <use xlink:href="#DejaVuSans-6c" x="770.292969"/>
     <use xlink:href="#DejaVuSans-20" x="798.076172"/>
     <use xlink:href="#DejaVuSans-76" x="829.863281"/>
     <use xlink:href="#DejaVuSans-73" x="889.042969"/>
     <use xlink:href="#DejaVuSans-20" x="941.142578"/>
     <use xlink:href="#DejaVuSans-50" x="972.929688"/>
     <use xlink:href="#DejaVuSans-72" x="1031.482422"/>
     <use xlink:href="#DejaVuSans-65" x="1070.345703"/>
     <use xlink:href="#DejaVuSans-76" x="1131.869141"/>
     <use xlink:href="#DejaVuSans-69" x="1191.048828"/>
     <use xlink:href="#DejaVuSans-73" x="1218.832031"/>
     <use xlink:href="#DejaVuSans-74" x="1270.931641"/>
     <use xlink:href="#DejaVuSans-6f" x="1310.140625"/>
    </g>
   </g>
   <g id="legend_1">
    <g id="patch_7">
     <path d="M 115 379.48 
L 213.284375 379.48 
Q 215.284375 379.48 215.284375 377.48 
L 215.284375 349.12375 
Q 215.284375 347.12375 213.284375 347.12375 
L 115 347.12375 
Q 113 347.12375 113 349.12375 
L 113 377.48 
Q 113 379.48 115 379.48 
z
" style="fill: #ffffff; opacity: 0.8; stroke: #cccccc; stroke-linejoin: miter"/>
    </g>
    <g id="line2d_18">
     <path d="M 117 355.222188 
L 127 355.222188 
L 137 355.222188 
" style="fill: none; stroke: #1f77b4; stroke-width: 1.5; stroke-linecap: square"/>
    </g>
    <g id="text_17">
     <!-- Valores Reais -->
     <g transform="translate(145 358.722188) scale(0.1 -0.1)">
      <defs>
       <path id="DejaVuSans-56" d="M 1831 0 
L 50 4666 
L 709 4666 
L 2188 738 
L 3669 4666 
L 4325 4666 
L 2547 0 
L 1831 0 
z
" transform="scale(0.015625)"/>
      </defs>
      <use xlink:href="#DejaVuSans-56"/>
      <use xlink:href="#DejaVuSans-61" x="60.658203"/>
      <use xlink:href="#DejaVuSans-6c" x="121.9375"/>
      <use xlink:href="#DejaVuSans-6f" x="149.720703"/>
      <use xlink:href="#DejaVuSans-72" x="210.902344"/>
      <use xlink:href="#DejaVuSans-65" x="249.765625"/>
      <use xlink:href="#DejaVuSans-73" x="311.289062"/>
      <use xlink:href="#DejaVuSans-20" x="363.388672"/>
      <use xlink:href="#DejaVuSans-52" x="395.175781"/>
      <use xlink:href="#DejaVuSans-65" x="460.158203"/>
      <use xlink:href="#DejaVuSans-61" x="521.681641"/>
      <use xlink:href="#DejaVuSans-69" x="582.960938"/>
      <use xlink:href="#DejaVuSans-73" x="610.744141"/>
     </g>
    </g>
    <g id="line2d_19">
     <path d="M 117 369.900312 
L 127 369.900312 
L 137 369.900312 
" style="fill: none; stroke: #ff7f0e; stroke-width: 1.5; stroke-linecap: square"/>
    </g>
    <g id="text_18">
     <!-- Previses -->
     <g transform="translate(145 373.400312) scale(0.1 -0.1)">
      <defs>
       <path id="DejaVuSans-f5" d="M 1959 3097 
Q 1497 3097 1228 2736 
Q 959 2375 959 1747 
Q 959 1119 1226 758 
Q 1494 397 1959 397 
Q 2419 397 2687 759 
Q 2956 1122 2956 1747 
Q 2956 2369 2687 2733 
Q 2419 3097 1959 3097 
z
M 1959 3584 
Q 2709 3584 3137 3096 
Q 3566 2609 3566 1747 
Q 3566 888 3137 398 
Q 2709 -91 1959 -91 
Q 1206 -91 779 398 
Q 353 888 353 1747 
Q 353 2609 779 3096 
Q 1206 3584 1959 3584 
z
M 1948 4281 
L 1769 4453 
Q 1701 4516 1649 4545 
Q 1598 4575 1557 4575 
Q 1438 4575 1382 4461 
Q 1326 4347 1319 4091 
L 929 4091 
Q 935 4513 1094 4742 
Q 1254 4972 1538 4972 
Q 1657 4972 1757 4928 
Q 1857 4884 1973 4781 
L 2151 4609 
Q 2219 4547 2271 4517 
Q 2323 4488 2363 4488 
Q 2482 4488 2538 4602 
Q 2594 4716 2601 4972 
L 2991 4972 
Q 2985 4550 2825 4320 
Q 2666 4091 2382 4091 
Q 2263 4091 2163 4134 
Q 2063 4178 1948 4281 
z
" transform="scale(0.015625)"/>
      </defs>
      <use xlink:href="#DejaVuSans-50"/>
      <use xlink:href="#DejaVuSans-72" x="58.552734"/>
      <use xlink:href="#DejaVuSans-65" x="97.416016"/>
      <use xlink:href="#DejaVuSans-76" x="158.939453"/>
      <use xlink:href="#DejaVuSans-69" x="218.119141"/>
      <use xlink:href="#DejaVuSans-73" x="245.902344"/>
      <use xlink:href="#DejaVuSans-f5" x="298.001953"/>
      <use xlink:href="#DejaVuSans-65" x="359.183594"/>
      <use xlink:href="#DejaVuSans-73" x="420.707031"/>
     </g>
    </g>
   </g>
  </g>
 </g>
 <defs>
  <clipPath id="p72ca6981a3">
   <rect x="108" y="51.84" width="669.6" height="332.64"/>
  </clipPath>
 </defs>
</svg>
