<?xml version="1.0" encoding="utf-8" standalone="no"?>
<!DOCTYPE svg PUBLIC "-//W3C//DTD SVG 1.1//EN"
  "http://www.w3.org/Graphics/SVG/1.1/DTD/svg11.dtd">
<svg xmlns:xlink="http://www.w3.org/1999/xlink" width="864pt" height="432pt" viewBox="0 0 864 432" xmlns="http://www.w3.org/2000/svg" version="1.1">
 <metadata>
  <rdf:RDF xmlns:dc="http://purl.org/dc/elements/1.1/" xmlns:cc="http://creativecommons.org/ns#" xmlns:rdf="http://www.w3.org/1999/02/22-rdf-syntax-ns#">
   <cc:Work>
    <dc:type rdf:resource="http://purl.org/dc/dcmitype/StillImage"/>
    <dc:date>2024-12-01T13:56:53.880766</dc:date>
    <dc:format>image/svg+xml</dc:format>
    <dc:creator>
     <cc:Agent>
      <dc:title>Matplotlib v3.9.2, https://matplotlib.org/</dc:title>
     </cc:Agent>
    </dc:creator>
   </cc:Work>
  </rdf:RDF>
 </metadata>
 <defs>
  <style type="text/css">*{stroke-linejoin: round; stroke-linecap: butt}</style>
 </defs>
 <g id="figure_1">
  <g id="patch_1">
   <path d="M 0 432 
L 864 432 
L 864 0 
L 0 0 
z
" style="fill: #ffffff"/>
  </g>
  <g id="axes_1">
   <g id="patch_2">
    <path d="M 108 384.48 
L 777.6 384.48 
L 777.6 51.84 
L 108 51.84 
z
" style="fill: #ffffff"/>
   </g>
   <g id="matplotlib.axis_1">
    <g id="xtick_1">
     <g id="line2d_1">
      <defs>
       <path id="mfc473407c1" d="M 0 0 
L 0 3.5 
" style="stroke: #000000; stroke-width: 0.8"/>
      </defs>
      <g>
       <use xlink:href="#mfc473407c1" x="138.436364" y="384.48" style="stroke: #000000; stroke-width: 0.8"/>
      </g>
     </g>
     <g id="text_1">
      <!-- 0 -->
      <g transform="translate(135.255114 399.078438) scale(0.1 -0.1)">
       <defs>
        <path id="DejaVuSans-30" d="M 2034 4250 
Q 1547 4250 1301 3770 
Q 1056 3291 1056 2328 
Q 1056 1369 1301 889 
Q 1547 409 2034 409 
Q 2525 409 2770 889 
Q 3016 1369 3016 2328 
Q 3016 3291 2770 3770 
Q 2525 4250 2034 4250 
z
M 2034 4750 
Q 2819 4750 3233 4129 
Q 3647 3509 3647 2328 
Q 3647 1150 3233 529 
Q 2819 -91 2034 -91 
Q 1250 -91 836 529 
Q 422 1150 422 2328 
Q 422 3509 836 4129 
Q 1250 4750 2034 4750 
z
" transform="scale(0.015625)"/>
       </defs>
       <use xlink:href="#DejaVuSans-30"/>
      </g>
     </g>
    </g>
    <g id="xtick_2">
     <g id="line2d_2">
      <g>
       <use xlink:href="#mfc473407c1" x="231.513928" y="384.48" style="stroke: #000000; stroke-width: 0.8"/>
      </g>
     </g>
     <g id="text_2">
      <!-- 200 -->
      <g transform="translate(221.970178 399.078438) scale(0.1 -0.1)">
       <defs>
        <path id="DejaVuSans-32" d="M 1228 531 
L 3431 531 
L 3431 0 
L 469 0 
L 469 531 
Q 828 903 1448 1529 
Q 2069 2156 2228 2338 
Q 2531 2678 2651 2914 
Q 2772 3150 2772 3378 
Q 2772 3750 2511 3984 
Q 2250 4219 1831 4219 
Q 1534 4219 1204 4116 
Q 875 4013 500 3803 
L 500 4441 
Q 881 4594 1212 4672 
Q 1544 4750 1819 4750 
Q 2544 4750 2975 4387 
Q 3406 4025 3406 3419 
Q 3406 3131 3298 2873 
Q 3191 2616 2906 2266 
Q 2828 2175 2409 1742 
Q 1991 1309 1228 531 
z
" transform="scale(0.015625)"/>
       </defs>
       <use xlink:href="#DejaVuSans-32"/>
       <use xlink:href="#DejaVuSans-30" x="63.623047"/>
       <use xlink:href="#DejaVuSans-30" x="127.246094"/>
      </g>
     </g>
    </g>
    <g id="xtick_3">
     <g id="line2d_3">
      <g>
       <use xlink:href="#mfc473407c1" x="324.591493" y="384.48" style="stroke: #000000; stroke-width: 0.8"/>
      </g>
     </g>
     <g id="text_3">
      <!-- 400 -->
      <g transform="translate(315.047743 399.078438) scale(0.1 -0.1)">
       <defs>
        <path id="DejaVuSans-34" d="M 2419 4116 
L 825 1625 
L 2419 1625 
L 2419 4116 
z
M 2253 4666 
L 3047 4666 
L 3047 1625 
L 3713 1625 
L 3713 1100 
L 3047 1100 
L 3047 0 
L 2419 0 
L 2419 1100 
L 313 1100 
L 313 1709 
L 2253 4666 
z
" transform="scale(0.015625)"/>
       </defs>
       <use xlink:href="#DejaVuSans-34"/>
       <use xlink:href="#DejaVuSans-30" x="63.623047"/>
       <use xlink:href="#DejaVuSans-30" x="127.246094"/>
      </g>
     </g>
    </g>
    <g id="xtick_4">
     <g id="line2d_4">
      <g>
       <use xlink:href="#mfc473407c1" x="417.669058" y="384.48" style="stroke: #000000; stroke-width: 0.8"/>
      </g>
     </g>
     <g id="text_4">
      <!-- 600 -->
      <g transform="translate(408.125308 399.078438) scale(0.1 -0.1)">
       <defs>
        <path id="DejaVuSans-36" d="M 2113 2584 
Q 1688 2584 1439 2293 
Q 1191 2003 1191 1497 
Q 1191 994 1439 701 
Q 1688 409 2113 409 
Q 2538 409 2786 701 
Q 3034 994 3034 1497 
Q 3034 2003 2786 2293 
Q 2538 2584 2113 2584 
z
M 3366 4563 
L 3366 3988 
Q 3128 4100 2886 4159 
Q 2644 4219 2406 4219 
Q 1781 4219 1451 3797 
Q 1122 3375 1075 2522 
Q 1259 2794 1537 2939 
Q 1816 3084 2150 3084 
Q 2853 3084 3261 2657 
Q 3669 2231 3669 1497 
Q 3669 778 3244 343 
Q 2819 -91 2113 -91 
Q 1303 -91 875 529 
Q 447 1150 447 2328 
Q 447 3434 972 4092 
Q 1497 4750 2381 4750 
Q 2619 4750 2861 4703 
Q 3103 4656 3366 4563 
z
" transform="scale(0.015625)"/>
       </defs>
       <use xlink:href="#DejaVuSans-36"/>
       <use xlink:href="#DejaVuSans-30" x="63.623047"/>
       <use xlink:href="#DejaVuSans-30" x="127.246094"/>
      </g>
     </g>
    </g>
    <g id="xtick_5">
     <g id="line2d_5">
      <g>
       <use xlink:href="#mfc473407c1" x="510.746622" y="384.48" style="stroke: #000000; stroke-width: 0.8"/>
      </g>
     </g>
     <g id="text_5">
      <!-- 800 -->
      <g transform="translate(501.202872 399.078438) scale(0.1 -0.1)">
       <defs>
        <path id="DejaVuSans-38" d="M 2034 2216 
Q 1584 2216 1326 1975 
Q 1069 1734 1069 1313 
Q 1069 891 1326 650 
Q 1584 409 2034 409 
Q 2484 409 2743 651 
Q 3003 894 3003 1313 
Q 3003 1734 2745 1975 
Q 2488 2216 2034 2216 
z
M 1403 2484 
Q 997 2584 770 2862 
Q 544 3141 544 3541 
Q 544 4100 942 4425 
Q 1341 4750 2034 4750 
Q 2731 4750 3128 4425 
Q 3525 4100 3525 3541 
Q 3525 3141 3298 2862 
Q 3072 2584 2669 2484 
Q 3125 2378 3379 2068 
Q 3634 1759 3634 1313 
Q 3634 634 3220 271 
Q 2806 -91 2034 -91 
Q 1263 -91 848 271 
Q 434 634 434 1313 
Q 434 1759 690 2068 
Q 947 2378 1403 2484 
z
M 1172 3481 
Q 1172 3119 1398 2916 
Q 1625 2713 2034 2713 
Q 2441 2713 2670 2916 
Q 2900 3119 2900 3481 
Q 2900 3844 2670 4047 
Q 2441 4250 2034 4250 
Q 1625 4250 1398 4047 
Q 1172 3844 1172 3481 
z
" transform="scale(0.015625)"/>
       </defs>
       <use xlink:href="#DejaVuSans-38"/>
       <use xlink:href="#DejaVuSans-30" x="63.623047"/>
       <use xlink:href="#DejaVuSans-30" x="127.246094"/>
      </g>
     </g>
    </g>
    <g id="xtick_6">
     <g id="line2d_6">
      <g>
       <use xlink:href="#mfc473407c1" x="603.824187" y="384.48" style="stroke: #000000; stroke-width: 0.8"/>
      </g>
     </g>
     <g id="text_6">
      <!-- 1000 -->
      <g transform="translate(591.099187 399.078438) scale(0.1 -0.1)">
       <defs>
        <path id="DejaVuSans-31" d="M 794 531 
L 1825 531 
L 1825 4091 
L 703 3866 
L 703 4441 
L 1819 4666 
L 2450 4666 
L 2450 531 
L 3481 531 
L 3481 0 
L 794 0 
L 794 531 
z
" transform="scale(0.015625)"/>
       </defs>
       <use xlink:href="#DejaVuSans-31"/>
       <use xlink:href="#DejaVuSans-30" x="63.623047"/>
       <use xlink:href="#DejaVuSans-30" x="127.246094"/>
       <use xlink:href="#DejaVuSans-30" x="190.869141"/>
      </g>
     </g>
    </g>
    <g id="xtick_7">
     <g id="line2d_7">
      <g>
       <use xlink:href="#mfc473407c1" x="696.901751" y="384.48" style="stroke: #000000; stroke-width: 0.8"/>
      </g>
     </g>
     <g id="text_7">
      <!-- 1200 -->
      <g transform="translate(684.176751 399.078438) scale(0.1 -0.1)">
       <use xlink:href="#DejaVuSans-31"/>
       <use xlink:href="#DejaVuSans-32" x="63.623047"/>
       <use xlink:href="#DejaVuSans-30" x="127.246094"/>
       <use xlink:href="#DejaVuSans-30" x="190.869141"/>
      </g>
     </g>
    </g>
   </g>
   <g id="matplotlib.axis_2">
    <g id="ytick_1">
     <g id="line2d_8">
      <defs>
       <path id="mf9919ccdf4" d="M 0 0 
L -3.5 0 
" style="stroke: #000000; stroke-width: 0.8"/>
      </defs>
      <g>
       <use xlink:href="#mf9919ccdf4" x="108" y="349.2" style="stroke: #000000; stroke-width: 0.8"/>
      </g>
     </g>
     <g id="text_8">
      <!-- 2 -->
      <g transform="translate(94.6375 352.999219) scale(0.1 -0.1)">
       <use xlink:href="#DejaVuSans-32"/>
      </g>
     </g>
    </g>
    <g id="ytick_2">
     <g id="line2d_9">
      <g>
       <use xlink:href="#mf9919ccdf4" x="108" y="308.88" style="stroke: #000000; stroke-width: 0.8"/>
      </g>
     </g>
     <g id="text_9">
      <!-- 4 -->
      <g transform="translate(94.6375 312.679219) scale(0.1 -0.1)">
       <use xlink:href="#DejaVuSans-34"/>
      </g>
     </g>
    </g>
    <g id="ytick_3">
     <g id="line2d_10">
      <g>
       <use xlink:href="#mf9919ccdf4" x="108" y="268.56" style="stroke: #000000; stroke-width: 0.8"/>
      </g>
     </g>
     <g id="text_10">
      <!-- 6 -->
      <g transform="translate(94.6375 272.359219) scale(0.1 -0.1)">
       <use xlink:href="#DejaVuSans-36"/>
      </g>
     </g>
    </g>
    <g id="ytick_4">
     <g id="line2d_11">
      <g>
       <use xlink:href="#mf9919ccdf4" x="108" y="228.24" style="stroke: #000000; stroke-width: 0.8"/>
      </g>
     </g>
     <g id="text_11">
      <!-- 8 -->
      <g transform="translate(94.6375 232.039219) scale(0.1 -0.1)">
       <use xlink:href="#DejaVuSans-38"/>
      </g>
     </g>
    </g>
    <g id="ytick_5">
     <g id="line2d_12">
      <g>
       <use xlink:href="#mf9919ccdf4" x="108" y="187.92" style="stroke: #000000; stroke-width: 0.8"/>
      </g>
     </g>
     <g id="text_12">
      <!-- 10 -->
      <g transform="translate(88.275 191.719219) scale(0.1 -0.1)">
       <use xlink:href="#DejaVuSans-31"/>
       <use xlink:href="#DejaVuSans-30" x="63.623047"/>
      </g>
     </g>
    </g>
    <g id="ytick_6">
     <g id="line2d_13">
      <g>
       <use xlink:href="#mf9919ccdf4" x="108" y="147.6" style="stroke: #000000; stroke-width: 0.8"/>
      </g>
     </g>
     <g id="text_13">
      <!-- 12 -->
      <g transform="translate(88.275 151.399219) scale(0.1 -0.1)">
       <use xlink:href="#DejaVuSans-31"/>
       <use xlink:href="#DejaVuSans-32" x="63.623047"/>
      </g>
     </g>
    </g>
    <g id="ytick_7">
     <g id="line2d_14">
      <g>
       <use xlink:href="#mf9919ccdf4" x="108" y="107.28" style="stroke: #000000; stroke-width: 0.8"/>
      </g>
     </g>
     <g id="text_14">
      <!-- 14 -->
      <g transform="translate(88.275 111.079219) scale(0.1 -0.1)">
       <use xlink:href="#DejaVuSans-31"/>
       <use xlink:href="#DejaVuSans-34" x="63.623047"/>
      </g>
     </g>
    </g>
    <g id="ytick_8">
     <g id="line2d_15">
      <g>
       <use xlink:href="#mf9919ccdf4" x="108" y="66.96" style="stroke: #000000; stroke-width: 0.8"/>
      </g>
     </g>
     <g id="text_15">
      <!-- 16 -->
      <g transform="translate(88.275 70.759219) scale(0.1 -0.1)">
       <use xlink:href="#DejaVuSans-31"/>
       <use xlink:href="#DejaVuSans-36" x="63.623047"/>
      </g>
     </g>
    </g>
   </g>
   <g id="line2d_16">
    <path d="M 138.436364 147.6 
L 139.367139 308.88 
L 139.832527 87.12 
L 140.297915 288.72 
L 140.763303 329.04 
L 141.228691 147.6 
L 141.694078 228.24 
L 142.159466 187.92 
L 142.624854 187.92 
L 143.090242 288.72 
L 143.55563 268.56 
L 144.021018 228.24 
L 144.486405 87.12 
L 144.951793 268.56 
L 145.417181 288.72 
L 145.882569 329.04 
L 146.347957 228.24 
L 146.813344 187.92 
L 147.278732 288.72 
L 147.74412 87.12 
L 148.209508 288.72 
L 148.674896 329.04 
L 149.140284 228.24 
L 149.605671 288.72 
L 150.071059 268.56 
L 150.536447 87.12 
L 151.001835 288.72 
L 151.467223 268.56 
L 151.932611 308.88 
L 152.397998 187.92 
L 152.863386 228.24 
L 153.328774 329.04 
L 153.794162 288.72 
L 154.25955 208.08 
L 154.724937 288.72 
L 155.190325 268.56 
L 155.655713 288.72 
L 156.121101 329.04 
L 156.586489 288.72 
L 157.517264 288.72 
L 157.982652 228.24 
L 158.44804 147.6 
L 158.913428 268.56 
L 159.378816 87.12 
L 159.844204 329.04 
L 160.309591 288.72 
L 160.774979 187.92 
L 161.240367 187.92 
L 161.705755 228.24 
L 162.171143 66.96 
L 162.63653 147.6 
L 163.101918 288.72 
L 163.567306 268.56 
L 164.032694 288.72 
L 164.498082 288.72 
L 164.96347 228.24 
L 165.428857 147.6 
L 165.894245 288.72 
L 166.359633 228.24 
L 166.825021 329.04 
L 167.290409 187.92 
L 167.755796 268.56 
L 168.221184 288.72 
L 168.686572 187.92 
L 169.15196 187.92 
L 169.617348 147.6 
L 170.082736 187.92 
L 170.548123 187.92 
L 171.013511 268.56 
L 171.478899 288.72 
L 172.409675 288.72 
L 172.875063 228.24 
L 173.34045 288.72 
L 173.805838 127.44 
L 174.271226 288.72 
L 174.736614 87.12 
L 175.202002 228.24 
L 175.667389 288.72 
L 176.598165 288.72 
L 177.063553 187.92 
L 177.528941 228.24 
L 177.994329 288.72 
L 178.459716 308.88 
L 178.925104 147.6 
L 179.390492 147.6 
L 179.85588 268.56 
L 180.321268 187.92 
L 180.786656 147.6 
L 181.252043 187.92 
L 181.717431 147.6 
L 182.182819 87.12 
L 182.648207 268.56 
L 183.113595 248.4 
L 183.578982 187.92 
L 184.04437 187.92 
L 184.975146 268.56 
L 185.440534 288.72 
L 185.905922 288.72 
L 186.371309 187.92 
L 186.836697 288.72 
L 187.302085 288.72 
L 187.767473 308.88 
L 188.232861 268.56 
L 188.698249 288.72 
L 189.163636 87.12 
L 189.629024 268.56 
L 190.094412 167.76 
L 190.5598 268.56 
L 191.025188 268.56 
L 191.490575 228.24 
L 191.955963 288.72 
L 192.421351 268.56 
L 192.886739 147.6 
L 193.352127 228.24 
L 193.817515 187.92 
L 194.282902 329.04 
L 194.74829 268.56 
L 195.213678 147.6 
L 195.679066 268.56 
L 196.144454 87.12 
L 196.609842 308.88 
L 197.075229 187.92 
L 197.540617 268.56 
L 198.006005 329.04 
L 198.471393 268.56 
L 198.936781 288.72 
L 199.402168 87.12 
L 199.867556 228.24 
L 200.332944 329.04 
L 200.798332 288.72 
L 201.26372 268.56 
L 201.729108 187.92 
L 202.194495 228.24 
L 202.659883 147.6 
L 203.125271 87.12 
L 203.590659 288.72 
L 204.056047 187.92 
L 204.521435 187.92 
L 204.986822 147.6 
L 205.45221 87.12 
L 205.917598 187.92 
L 206.382986 187.92 
L 206.848374 288.72 
L 207.313761 268.56 
L 207.779149 228.24 
L 208.244537 288.72 
L 208.709925 187.92 
L 209.175313 288.72 
L 209.640701 187.92 
L 210.106088 288.72 
L 210.571476 288.72 
L 211.036864 167.76 
L 211.502252 187.92 
L 211.96764 288.72 
L 212.433028 329.04 
L 212.898415 288.72 
L 213.363803 228.24 
L 213.829191 228.24 
L 214.294579 329.04 
L 214.759967 288.72 
L 215.225354 87.12 
L 215.690742 329.04 
L 216.15613 288.72 
L 216.621518 228.24 
L 217.086906 187.92 
L 218.017681 268.56 
L 218.483069 147.6 
L 218.948457 147.6 
L 219.413845 187.92 
L 219.879233 187.92 
L 220.344621 147.6 
L 220.810008 288.72 
L 221.275396 268.56 
L 221.740784 147.6 
L 222.206172 187.92 
L 222.67156 167.76 
L 223.136947 228.24 
L 223.602335 228.24 
L 224.067723 268.56 
L 224.533111 248.4 
L 224.998499 288.72 
L 225.463887 127.44 
L 225.929274 268.56 
L 226.394662 187.92 
L 226.86005 288.72 
L 227.325438 187.92 
L 227.790826 288.72 
L 228.256214 329.04 
L 228.721601 187.92 
L 229.186989 187.92 
L 229.652377 127.44 
L 230.117765 147.6 
L 230.583153 228.24 
L 231.04854 288.72 
L 231.513928 228.24 
L 231.979316 107.28 
L 232.444704 288.72 
L 232.910092 187.92 
L 233.37548 187.92 
L 234.306255 308.88 
L 234.771643 329.04 
L 235.237031 288.72 
L 235.702419 187.92 
L 236.167807 288.72 
L 236.633194 308.88 
L 237.098582 187.92 
L 237.56397 228.24 
L 238.029358 288.72 
L 238.494746 187.92 
L 238.960133 127.44 
L 239.425521 228.24 
L 239.890909 288.72 
L 240.356297 228.24 
L 240.821685 288.72 
L 241.287073 228.24 
L 241.75246 187.92 
L 242.217848 228.24 
L 242.683236 228.24 
L 243.148624 187.92 
L 243.614012 228.24 
L 244.079399 288.72 
L 244.544787 288.72 
L 245.010175 268.56 
L 245.475563 187.92 
L 245.940951 268.56 
L 246.406339 187.92 
L 246.871726 187.92 
L 247.337114 268.56 
L 247.802502 288.72 
L 248.26789 248.4 
L 249.198666 288.72 
L 249.664053 268.56 
L 250.129441 288.72 
L 250.594829 107.28 
L 251.060217 228.24 
L 251.525605 187.92 
L 251.990992 288.72 
L 252.45638 228.24 
L 253.387156 147.6 
L 253.852544 147.6 
L 254.317932 187.92 
L 254.783319 288.72 
L 255.248707 147.6 
L 255.714095 329.04 
L 256.179483 87.12 
L 256.644871 87.12 
L 257.110259 208.08 
L 257.575646 288.72 
L 258.041034 147.6 
L 258.506422 187.92 
L 258.97181 288.72 
L 259.437198 329.04 
L 259.902585 288.72 
L 260.367973 268.56 
L 260.833361 87.12 
L 261.298749 288.72 
L 261.764137 288.72 
L 262.229525 208.08 
L 262.694912 288.72 
L 263.1603 288.72 
L 264.091076 248.4 
L 264.556464 147.6 
L 265.021852 288.72 
L 265.487239 187.92 
L 265.952627 288.72 
L 266.418015 288.72 
L 266.883403 268.56 
L 267.348791 268.56 
L 267.814178 288.72 
L 268.279566 228.24 
L 268.744954 147.6 
L 269.210342 228.24 
L 269.67573 187.92 
L 270.141118 288.72 
L 270.606505 187.92 
L 271.537281 268.56 
L 272.002669 187.92 
L 272.468057 228.24 
L 272.933445 288.72 
L 273.398832 329.04 
L 273.86422 288.72 
L 274.329608 288.72 
L 274.794996 228.24 
L 275.260384 228.24 
L 275.725771 187.92 
L 276.191159 208.08 
L 276.656547 147.6 
L 277.121935 288.72 
L 277.587323 187.92 
L 278.052711 147.6 
L 278.518098 147.6 
L 278.983486 268.56 
L 279.448874 329.04 
L 279.914262 288.72 
L 280.37965 288.72 
L 280.845038 268.56 
L 281.310425 288.72 
L 281.775813 288.72 
L 282.241201 187.92 
L 282.706589 228.24 
L 283.171977 187.92 
L 283.637364 66.96 
L 284.102752 268.56 
L 284.56814 288.72 
L 285.033528 187.92 
L 285.498916 187.92 
L 285.964304 268.56 
L 286.429691 268.56 
L 286.895079 228.24 
L 287.360467 228.24 
L 287.825855 167.76 
L 288.291243 147.6 
L 288.756631 187.92 
L 289.222018 288.72 
L 289.687406 288.72 
L 290.152794 228.24 
L 290.618182 147.6 
L 291.08357 228.24 
L 291.548957 187.92 
L 292.014345 228.24 
L 292.479733 187.92 
L 292.945121 268.56 
L 293.410509 187.92 
L 293.875897 248.4 
L 294.341284 268.56 
L 294.806672 308.88 
L 295.27206 187.92 
L 295.737448 329.04 
L 296.202836 228.24 
L 296.668224 87.12 
L 297.133611 268.56 
L 297.598999 127.44 
L 298.529775 349.2 
L 298.995163 288.72 
L 299.46055 87.12 
L 299.925938 268.56 
L 300.391326 288.72 
L 300.856714 147.6 
L 301.322102 288.72 
L 301.78749 87.12 
L 302.252877 268.56 
L 302.718265 248.4 
L 303.183653 329.04 
L 303.649041 288.72 
L 304.114429 147.6 
L 304.579817 228.24 
L 305.045204 87.12 
L 305.510592 127.44 
L 305.97598 187.92 
L 306.441368 228.24 
L 306.906756 228.24 
L 307.372143 288.72 
L 307.837531 147.6 
L 308.302919 288.72 
L 308.768307 228.24 
L 309.233695 187.92 
L 309.699083 349.2 
L 310.16447 127.44 
L 310.629858 268.56 
L 311.095246 187.92 
L 311.560634 167.76 
L 312.49141 288.72 
L 312.956797 228.24 
L 313.422185 228.24 
L 313.887573 288.72 
L 314.352961 87.12 
L 314.818349 288.72 
L 315.283736 288.72 
L 315.749124 228.24 
L 316.214512 228.24 
L 316.6799 329.04 
L 317.145288 288.72 
L 317.610676 147.6 
L 318.541451 228.24 
L 319.006839 329.04 
L 319.472227 228.24 
L 319.937615 288.72 
L 320.403003 147.6 
L 320.86839 288.72 
L 321.333778 228.24 
L 321.799166 147.6 
L 322.264554 147.6 
L 322.729942 329.04 
L 323.195329 268.56 
L 323.660717 228.24 
L 324.126105 228.24 
L 324.591493 288.72 
L 325.522269 288.72 
L 325.987656 228.24 
L 326.453044 147.6 
L 326.918432 288.72 
L 327.38382 228.24 
L 327.849208 288.72 
L 328.314595 87.12 
L 328.779983 147.6 
L 329.245371 288.72 
L 329.710759 228.24 
L 330.176147 187.92 
L 330.641535 268.56 
L 331.106922 208.08 
L 331.57231 268.56 
L 332.037698 288.72 
L 332.503086 147.6 
L 333.433862 228.24 
L 333.899249 187.92 
L 334.364637 187.92 
L 334.830025 288.72 
L 335.295413 87.12 
L 335.760801 147.6 
L 336.691576 147.6 
L 337.156964 228.24 
L 337.622352 187.92 
L 338.08774 288.72 
L 338.553128 308.88 
L 339.018515 288.72 
L 339.483903 248.4 
L 340.414679 329.04 
L 340.880067 187.92 
L 341.345455 228.24 
L 341.810842 288.72 
L 342.27623 288.72 
L 342.741618 268.56 
L 343.672394 187.92 
L 344.137781 288.72 
L 344.603169 147.6 
L 345.068557 228.24 
L 345.533945 208.08 
L 345.999333 87.12 
L 346.464721 187.92 
L 346.930108 228.24 
L 347.395496 288.72 
L 347.860884 87.12 
L 348.326272 288.72 
L 348.79166 329.04 
L 349.257048 187.92 
L 349.722435 167.76 
L 350.187823 187.92 
L 350.653211 147.6 
L 351.118599 187.92 
L 351.583987 288.72 
L 352.049374 329.04 
L 352.514762 228.24 
L 352.98015 288.72 
L 353.445538 87.12 
L 354.376314 288.72 
L 354.841701 228.24 
L 355.307089 288.72 
L 355.772477 187.92 
L 356.237865 187.92 
L 356.703253 329.04 
L 357.168641 208.08 
L 357.634028 248.4 
L 358.099416 187.92 
L 358.564804 147.6 
L 359.030192 187.92 
L 359.960967 187.92 
L 360.426355 228.24 
L 360.891743 288.72 
L 361.357131 187.92 
L 361.822519 228.24 
L 362.287907 228.24 
L 362.753294 329.04 
L 363.218682 288.72 
L 364.149458 288.72 
L 364.614846 187.92 
L 365.080234 268.56 
L 366.011009 187.92 
L 366.941785 268.56 
L 367.407173 329.04 
L 367.87256 369.36 
L 368.803336 288.72 
L 369.268724 329.04 
L 369.734112 187.92 
L 370.1995 228.24 
L 370.664887 167.76 
L 371.595663 288.72 
L 372.061051 147.6 
L 372.526439 187.92 
L 372.991827 288.72 
L 373.457214 228.24 
L 373.922602 187.92 
L 374.38799 187.92 
L 375.318766 268.56 
L 375.784153 268.56 
L 376.249541 187.92 
L 376.714929 288.72 
L 377.180317 288.72 
L 377.645705 268.56 
L 378.111093 187.92 
L 378.57648 329.04 
L 379.041868 147.6 
L 379.507256 268.56 
L 379.972644 288.72 
L 380.438032 329.04 
L 380.90342 329.04 
L 381.368807 187.92 
L 381.834195 187.92 
L 382.299583 288.72 
L 382.764971 228.24 
L 383.230359 228.24 
L 383.695746 147.6 
L 384.161134 187.92 
L 384.626522 288.72 
L 385.09191 187.92 
L 385.557298 308.88 
L 386.022686 208.08 
L 386.488073 268.56 
L 387.418849 308.88 
L 387.884237 187.92 
L 388.349625 268.56 
L 388.815013 208.08 
L 389.2804 228.24 
L 389.745788 329.04 
L 390.211176 329.04 
L 390.676564 147.6 
L 391.141952 228.24 
L 391.607339 187.92 
L 392.072727 268.56 
L 392.538115 288.72 
L 393.934279 288.72 
L 394.399666 127.44 
L 394.865054 288.72 
L 395.330442 187.92 
L 395.79583 288.72 
L 396.261218 288.72 
L 396.726606 268.56 
L 397.191993 288.72 
L 397.657381 228.24 
L 398.122769 228.24 
L 398.588157 187.92 
L 399.053545 288.72 
L 399.518932 228.24 
L 399.98432 228.24 
L 400.449708 288.72 
L 400.915096 288.72 
L 401.380484 187.92 
L 401.845872 228.24 
L 402.311259 147.6 
L 402.776647 288.72 
L 403.242035 308.88 
L 403.707423 167.76 
L 404.172811 288.72 
L 404.638198 147.6 
L 405.103586 268.56 
L 405.568974 87.12 
L 406.034362 147.6 
L 406.49975 288.72 
L 406.965138 329.04 
L 407.430525 228.24 
L 407.895913 268.56 
L 408.361301 187.92 
L 408.826689 187.92 
L 409.292077 208.08 
L 409.757465 268.56 
L 410.222852 268.56 
L 410.68824 288.72 
L 411.153628 329.04 
L 411.619016 187.92 
L 412.084404 87.12 
L 412.549791 147.6 
L 413.015179 167.76 
L 413.480567 147.6 
L 413.945955 288.72 
L 414.411343 268.56 
L 414.876731 187.92 
L 415.342118 228.24 
L 415.807506 187.92 
L 416.272894 288.72 
L 416.738282 228.24 
L 417.20367 268.56 
L 417.669058 87.12 
L 418.134445 288.72 
L 418.599833 187.92 
L 419.065221 308.88 
L 419.530609 147.6 
L 419.995997 288.72 
L 420.461384 329.04 
L 420.926772 187.92 
L 421.39216 228.24 
L 421.857548 288.72 
L 422.322936 268.56 
L 422.788324 288.72 
L 423.253711 228.24 
L 423.719099 187.92 
L 424.184487 87.12 
L 424.649875 147.6 
L 425.115263 268.56 
L 425.580651 228.24 
L 426.046038 288.72 
L 426.511426 187.92 
L 426.976814 187.92 
L 427.90759 268.56 
L 428.372977 87.12 
L 428.838365 288.72 
L 429.303753 147.6 
L 429.769141 187.92 
L 430.234529 349.2 
L 431.165304 187.92 
L 431.630692 268.56 
L 432.09608 228.24 
L 432.561468 288.72 
L 433.026856 228.24 
L 433.492244 288.72 
L 433.957631 187.92 
L 434.423019 228.24 
L 435.819183 228.24 
L 436.28457 187.92 
L 437.215346 187.92 
L 437.680734 288.72 
L 438.146122 288.72 
L 438.61151 329.04 
L 439.076897 187.92 
L 439.542285 288.72 
L 440.007673 228.24 
L 440.473061 147.6 
L 440.938449 228.24 
L 441.403837 228.24 
L 441.869224 187.92 
L 442.334612 228.24 
L 443.265388 268.56 
L 443.730776 187.92 
L 444.196163 288.72 
L 444.661551 268.56 
L 445.126939 228.24 
L 445.592327 329.04 
L 446.057715 288.72 
L 446.98849 329.04 
L 447.453878 187.92 
L 447.919266 329.04 
L 448.384654 248.4 
L 448.850042 329.04 
L 449.31543 228.24 
L 449.780817 228.24 
L 450.246205 187.92 
L 450.711593 208.08 
L 451.176981 268.56 
L 451.642369 147.6 
L 452.107756 187.92 
L 452.573144 187.92 
L 453.038532 288.72 
L 453.50392 228.24 
L 453.969308 288.72 
L 454.434696 187.92 
L 454.900083 288.72 
L 455.365471 187.92 
L 455.830859 288.72 
L 456.296247 288.72 
L 456.761635 228.24 
L 457.227023 288.72 
L 457.69241 268.56 
L 458.157798 187.92 
L 458.623186 147.6 
L 459.088574 288.72 
L 459.553962 187.92 
L 460.019349 329.04 
L 460.950125 147.6 
L 461.415513 147.6 
L 461.880901 208.08 
L 462.346289 167.76 
L 462.811676 87.12 
L 463.277064 187.92 
L 463.742452 187.92 
L 464.20784 268.56 
L 464.673228 208.08 
L 465.138616 187.92 
L 465.604003 187.92 
L 466.069391 228.24 
L 466.534779 228.24 
L 467.000167 268.56 
L 467.930942 268.56 
L 468.39633 147.6 
L 468.861718 228.24 
L 469.327106 147.6 
L 469.792494 187.92 
L 470.257882 187.92 
L 470.723269 87.12 
L 471.188657 147.6 
L 471.654045 268.56 
L 472.119433 288.72 
L 472.584821 268.56 
L 473.050209 187.92 
L 473.515596 228.24 
L 473.980984 127.44 
L 474.446372 228.24 
L 474.91176 288.72 
L 475.377148 127.44 
L 475.842535 288.72 
L 476.307923 66.96 
L 476.773311 288.72 
L 477.238699 268.56 
L 478.169475 308.88 
L 478.634862 87.12 
L 479.10025 228.24 
L 479.565638 288.72 
L 480.031026 228.24 
L 480.496414 147.6 
L 480.961802 187.92 
L 481.427189 147.6 
L 481.892577 147.6 
L 482.357965 228.24 
L 482.823353 329.04 
L 483.288741 288.72 
L 483.754128 228.24 
L 484.219516 288.72 
L 484.684904 187.92 
L 485.150292 147.6 
L 486.546455 268.56 
L 487.011843 147.6 
L 487.477231 288.72 
L 487.942619 228.24 
L 488.408007 228.24 
L 488.873394 288.72 
L 489.338782 288.72 
L 489.80417 187.92 
L 490.269558 288.72 
L 490.734946 187.92 
L 491.200334 288.72 
L 492.131109 288.72 
L 492.596497 228.24 
L 493.061885 147.6 
L 493.527273 187.92 
L 493.992661 288.72 
L 494.458048 329.04 
L 494.923436 288.72 
L 495.388824 329.04 
L 495.854212 147.6 
L 496.3196 288.72 
L 496.784987 268.56 
L 497.715763 147.6 
L 498.181151 187.92 
L 498.646539 288.72 
L 499.111927 308.88 
L 499.577314 288.72 
L 500.042702 147.6 
L 500.50809 228.24 
L 500.973478 288.72 
L 501.904254 288.72 
L 502.369641 329.04 
L 502.835029 329.04 
L 503.300417 268.56 
L 503.765805 87.12 
L 504.231193 187.92 
L 504.69658 228.24 
L 505.161968 228.24 
L 505.627356 349.2 
L 506.092744 87.12 
L 506.558132 147.6 
L 507.02352 268.56 
L 507.488907 147.6 
L 507.954295 268.56 
L 508.419683 268.56 
L 508.885071 127.44 
L 509.815847 288.72 
L 510.281234 308.88 
L 510.746622 228.24 
L 511.21201 268.56 
L 511.677398 268.56 
L 512.142786 228.24 
L 512.608173 288.72 
L 513.073561 288.72 
L 513.538949 187.92 
L 514.004337 329.04 
L 514.469725 228.24 
L 514.935113 288.72 
L 515.4005 187.92 
L 515.865888 187.92 
L 516.331276 228.24 
L 516.796664 187.92 
L 517.262052 288.72 
L 517.72744 87.12 
L 518.192827 268.56 
L 518.658215 187.92 
L 519.123603 228.24 
L 519.588991 187.92 
L 520.054379 308.88 
L 520.519766 87.12 
L 520.985154 228.24 
L 521.450542 288.72 
L 521.91593 288.72 
L 522.381318 228.24 
L 522.846706 268.56 
L 523.312093 288.72 
L 523.777481 147.6 
L 524.242869 147.6 
L 524.708257 288.72 
L 525.173645 268.56 
L 525.639033 288.72 
L 526.10442 329.04 
L 527.035196 147.6 
L 527.500584 187.92 
L 527.965972 268.56 
L 528.431359 147.6 
L 528.896747 187.92 
L 529.362135 288.72 
L 529.827523 187.92 
L 530.292911 187.92 
L 530.758299 147.6 
L 531.223686 288.72 
L 531.689074 187.92 
L 532.154462 228.24 
L 532.61985 288.72 
L 533.085238 187.92 
L 533.550626 288.72 
L 534.016013 329.04 
L 534.946789 147.6 
L 535.412177 288.72 
L 535.877565 268.56 
L 536.342952 288.72 
L 536.80834 288.72 
L 537.273728 147.6 
L 537.739116 187.92 
L 538.204504 288.72 
L 538.669892 288.72 
L 539.135279 369.36 
L 539.600667 228.24 
L 540.066055 268.56 
L 540.531443 268.56 
L 540.996831 147.6 
L 541.462219 228.24 
L 541.927606 228.24 
L 542.392994 288.72 
L 542.858382 187.92 
L 543.32377 147.6 
L 543.789158 268.56 
L 544.254545 288.72 
L 544.719933 147.6 
L 545.185321 288.72 
L 545.650709 288.72 
L 546.116097 87.12 
L 546.581485 228.24 
L 547.046872 228.24 
L 547.977648 147.6 
L 548.443036 329.04 
L 548.908424 147.6 
L 549.373812 228.24 
L 549.839199 147.6 
L 550.304587 288.72 
L 550.769975 187.92 
L 551.235363 288.72 
L 551.700751 187.92 
L 552.631526 268.56 
L 553.562302 308.88 
L 554.493078 228.24 
L 554.958465 147.6 
L 555.423853 308.88 
L 555.889241 248.4 
L 556.820017 288.72 
L 557.285405 147.6 
L 557.750792 268.56 
L 558.21618 288.72 
L 558.681568 288.72 
L 559.146956 228.24 
L 559.612344 329.04 
L 560.077731 187.92 
L 560.543119 288.72 
L 561.008507 288.72 
L 561.473895 147.6 
L 561.939283 288.72 
L 562.404671 187.92 
L 562.870058 147.6 
L 563.335446 228.24 
L 563.800834 228.24 
L 564.266222 268.56 
L 564.73161 288.72 
L 565.196997 187.92 
L 565.662385 288.72 
L 566.127773 87.12 
L 566.593161 288.72 
L 567.523937 288.72 
L 567.989324 228.24 
L 568.454712 228.24 
L 568.9201 87.12 
L 569.385488 87.12 
L 569.850876 268.56 
L 570.316264 228.24 
L 570.781651 288.72 
L 571.247039 268.56 
L 571.712427 187.92 
L 572.177815 288.72 
L 572.643203 228.24 
L 573.10859 187.92 
L 573.573978 268.56 
L 574.039366 288.72 
L 574.504754 87.12 
L 574.970142 329.04 
L 575.43553 288.72 
L 575.900917 329.04 
L 576.366305 288.72 
L 576.831693 288.72 
L 577.297081 187.92 
L 577.762469 208.08 
L 578.227857 288.72 
L 578.693244 228.24 
L 579.158632 268.56 
L 579.62402 147.6 
L 580.089408 288.72 
L 580.554796 288.72 
L 581.020183 187.92 
L 581.485571 187.92 
L 581.950959 228.24 
L 582.416347 167.76 
L 582.881735 248.4 
L 583.347123 147.6 
L 583.81251 268.56 
L 584.277898 268.56 
L 584.743286 308.88 
L 585.674062 147.6 
L 586.13945 288.72 
L 586.604837 107.28 
L 587.070225 288.72 
L 587.535613 87.12 
L 588.001001 349.2 
L 588.466389 187.92 
L 588.931776 288.72 
L 589.397164 228.24 
L 589.862552 288.72 
L 590.32794 308.88 
L 590.793328 187.92 
L 591.258716 147.6 
L 591.724103 228.24 
L 592.189491 288.72 
L 592.654879 187.92 
L 593.120267 329.04 
L 593.585655 187.92 
L 594.051043 288.72 
L 594.51643 228.24 
L 594.981818 107.28 
L 595.447206 167.76 
L 595.912594 147.6 
L 596.377982 87.12 
L 596.843369 228.24 
L 597.308757 187.92 
L 598.239533 268.56 
L 598.704921 187.92 
L 599.170309 288.72 
L 599.635696 288.72 
L 600.101084 228.24 
L 600.566472 187.92 
L 601.03186 329.04 
L 601.497248 127.44 
L 601.962636 288.72 
L 602.428023 187.92 
L 602.893411 329.04 
L 603.824187 147.6 
L 604.289575 268.56 
L 604.754962 187.92 
L 605.22035 147.6 
L 605.685738 228.24 
L 606.151126 329.04 
L 606.616514 288.72 
L 607.081902 187.92 
L 607.547289 268.56 
L 608.012677 187.92 
L 608.478065 268.56 
L 608.943453 288.72 
L 609.408841 228.24 
L 609.874229 288.72 
L 610.339616 268.56 
L 610.805004 288.72 
L 611.270392 87.12 
L 611.73578 288.72 
L 612.201168 228.24 
L 612.666555 329.04 
L 613.131943 228.24 
L 613.597331 187.92 
L 614.062719 187.92 
L 614.993495 268.56 
L 615.458882 147.6 
L 615.92427 288.72 
L 616.389658 167.76 
L 616.855046 147.6 
L 617.320434 208.08 
L 617.785822 288.72 
L 618.251209 228.24 
L 618.716597 288.72 
L 619.181985 329.04 
L 619.647373 228.24 
L 620.112761 288.72 
L 620.578148 268.56 
L 621.043536 228.24 
L 621.508924 288.72 
L 621.974312 288.72 
L 622.4397 268.56 
L 622.905088 87.12 
L 623.370475 268.56 
L 623.835863 248.4 
L 624.301251 288.72 
L 624.766639 187.92 
L 625.232027 268.56 
L 625.697415 268.56 
L 626.162802 228.24 
L 626.62819 167.76 
L 627.093578 187.92 
L 628.024354 187.92 
L 628.489741 268.56 
L 628.955129 288.72 
L 629.420517 107.28 
L 629.885905 268.56 
L 630.351293 268.56 
L 630.816681 187.92 
L 631.282068 268.56 
L 631.747456 288.72 
L 632.212844 288.72 
L 632.678232 147.6 
L 633.14362 167.76 
L 633.609008 329.04 
L 634.074395 187.92 
L 634.539783 208.08 
L 635.005171 288.72 
L 635.935947 87.12 
L 636.401334 228.24 
L 636.866722 288.72 
L 637.33211 268.56 
L 637.797498 228.24 
L 638.262886 329.04 
L 638.728274 288.72 
L 639.193661 349.2 
L 639.659049 187.92 
L 640.124437 228.24 
L 640.589825 187.92 
L 641.055213 288.72 
L 641.520601 66.96 
L 641.985988 228.24 
L 642.451376 288.72 
L 642.916764 268.56 
L 643.382152 187.92 
L 643.84754 147.6 
L 644.312927 167.76 
L 644.778315 268.56 
L 645.243703 87.12 
L 645.709091 268.56 
L 646.174479 228.24 
L 646.639867 329.04 
L 647.105254 349.2 
L 647.570642 187.92 
L 648.03603 228.24 
L 648.501418 329.04 
L 648.966806 248.4 
L 649.432193 329.04 
L 649.897581 288.72 
L 650.362969 228.24 
L 650.828357 268.56 
L 651.293745 288.72 
L 651.759133 187.92 
L 652.22452 288.72 
L 652.689908 288.72 
L 653.155296 228.24 
L 653.620684 288.72 
L 654.086072 288.72 
L 654.55146 369.36 
L 655.016847 147.6 
L 655.947623 147.6 
L 656.413011 268.56 
L 656.878399 228.24 
L 657.343786 288.72 
L 657.809174 288.72 
L 658.274562 329.04 
L 659.205338 288.72 
L 659.670726 288.72 
L 660.136113 268.56 
L 660.601501 228.24 
L 661.066889 268.56 
L 661.532277 187.92 
L 661.997665 288.72 
L 663.393828 288.72 
L 663.859216 187.92 
L 664.324604 147.6 
L 664.789992 87.12 
L 665.255379 87.12 
L 665.720767 228.24 
L 666.186155 268.56 
L 666.651543 187.92 
L 667.116931 329.04 
L 667.582319 187.92 
L 668.047706 268.56 
L 668.513094 288.72 
L 669.44387 288.72 
L 669.909258 228.24 
L 670.374646 308.88 
L 670.840033 288.72 
L 671.305421 187.92 
L 671.770809 288.72 
L 672.236197 187.92 
L 672.701585 228.24 
L 673.166972 187.92 
L 673.63236 308.88 
L 674.097748 329.04 
L 674.563136 329.04 
L 675.028524 187.92 
L 675.493912 147.6 
L 675.959299 87.12 
L 676.424687 288.72 
L 676.890075 147.6 
L 677.820851 147.6 
L 678.286239 87.12 
L 678.751626 288.72 
L 679.217014 288.72 
L 679.682402 308.88 
L 680.14779 228.24 
L 680.613178 228.24 
L 681.078565 187.92 
L 681.543953 248.4 
L 682.009341 187.92 
L 682.940117 187.92 
L 683.405505 107.28 
L 683.870892 147.6 
L 684.33628 147.6 
L 685.267056 228.24 
L 685.732444 288.72 
L 686.663219 288.72 
L 687.128607 329.04 
L 687.593995 288.72 
L 688.059383 288.72 
L 688.524771 87.12 
L 688.990158 288.72 
L 689.455546 329.04 
L 689.920934 228.24 
L 690.85171 349.2 
L 691.317098 228.24 
L 692.247873 147.6 
L 692.713261 228.24 
L 693.178649 187.92 
L 693.644037 187.92 
L 694.109425 329.04 
L 694.574812 288.72 
L 695.0402 147.6 
L 695.505588 187.92 
L 695.970976 187.92 
L 696.436364 288.72 
L 698.297915 288.72 
L 698.763303 308.88 
L 699.228691 187.92 
L 699.694078 228.24 
L 700.159466 228.24 
L 700.624854 147.6 
L 701.090242 288.72 
L 701.55563 228.24 
L 702.021018 228.24 
L 702.486405 288.72 
L 702.951793 187.92 
L 703.417181 187.92 
L 703.882569 288.72 
L 704.347957 268.56 
L 704.813344 288.72 
L 705.278732 288.72 
L 705.74412 147.6 
L 706.209508 167.76 
L 706.674896 288.72 
L 707.140284 228.24 
L 707.605671 228.24 
L 708.071059 147.6 
L 708.536447 288.72 
L 709.001835 329.04 
L 709.467223 228.24 
L 709.932611 248.4 
L 710.397998 187.92 
L 710.863386 288.72 
L 711.328774 66.96 
L 711.794162 228.24 
L 712.25955 288.72 
L 712.724937 228.24 
L 713.190325 288.72 
L 713.655713 187.92 
L 714.121101 329.04 
L 714.586489 147.6 
L 715.051877 268.56 
L 715.517264 187.92 
L 715.982652 147.6 
L 716.44804 329.04 
L 716.913428 147.6 
L 717.378816 329.04 
L 717.844204 107.28 
L 718.774979 187.92 
L 719.240367 147.6 
L 719.705755 147.6 
L 720.171143 208.08 
L 720.63653 187.92 
L 721.101918 288.72 
L 721.567306 228.24 
L 722.032694 87.12 
L 722.498082 329.04 
L 722.96347 268.56 
L 723.894245 107.28 
L 724.359633 228.24 
L 724.825021 288.72 
L 725.290409 147.6 
L 725.755796 187.92 
L 726.221184 147.6 
L 726.686572 288.72 
L 727.15196 268.56 
L 727.617348 288.72 
L 728.082736 288.72 
L 728.548123 248.4 
L 729.013511 187.92 
L 729.478899 187.92 
L 729.944287 268.56 
L 730.409675 147.6 
L 730.875063 228.24 
L 731.34045 329.04 
L 731.805838 87.12 
L 732.271226 308.88 
L 732.736614 248.4 
L 733.202002 228.24 
L 733.667389 268.56 
L 734.132777 288.72 
L 734.598165 228.24 
L 735.528941 228.24 
L 735.994329 147.6 
L 736.459716 208.08 
L 736.925104 288.72 
L 737.390492 288.72 
L 737.85588 147.6 
L 738.321268 329.04 
L 738.786656 187.92 
L 739.252043 87.12 
L 739.717431 288.72 
L 740.182819 87.12 
L 740.648207 187.92 
L 741.113595 228.24 
L 742.04437 228.24 
L 742.509758 288.72 
L 742.975146 87.12 
L 743.440534 167.76 
L 743.905922 288.72 
L 744.371309 147.6 
L 744.836697 187.92 
L 745.302085 288.72 
L 745.767473 147.6 
L 746.232861 147.6 
L 747.163636 228.24 
L 747.163636 228.24 
" clip-path="url(#pd03c01b2d4)" style="fill: none; stroke: #1f77b4; stroke-width: 1.5; stroke-linecap: square"/>
   </g>
   <g id="line2d_17">
    <path d="M 138.436364 249.418934 
L 138.901751 251.145762 
L 139.367139 248.735841 
L 139.832527 240.539593 
L 140.297915 245.884451 
L 140.763303 243.749962 
L 141.228691 245.091279 
L 141.694078 245.777054 
L 142.159466 250.899957 
L 142.624854 248.962843 
L 143.090242 257.042582 
L 143.55563 250.266736 
L 144.021018 249.326966 
L 144.486405 243.928794 
L 144.951793 247.749303 
L 145.417181 259.283438 
L 145.882569 249.502933 
L 146.347957 243.657629 
L 146.813344 245.559924 
L 147.278732 257.633803 
L 147.74412 241.369486 
L 148.674896 253.81014 
L 149.605671 247.905861 
L 150.071059 257.553774 
L 150.536447 240.339584 
L 151.001835 249.332503 
L 151.467223 260.989368 
L 151.932611 255.843586 
L 152.397998 246.462041 
L 152.863386 243.317789 
L 153.328774 248.612112 
L 153.794162 247.725607 
L 154.25955 241.527947 
L 154.724937 243.558692 
L 155.190325 251.872421 
L 155.655713 246.471221 
L 156.121101 257.802339 
L 156.586489 246.507404 
L 157.051877 257.894153 
L 157.517264 248.67426 
L 157.982652 249.271864 
L 158.44804 247.058097 
L 158.913428 253.133238 
L 159.378816 245.380651 
L 160.309591 259.890444 
L 160.774979 249.315219 
L 161.240367 242.462844 
L 161.705755 252.542219 
L 162.171143 250.489346 
L 162.63653 242.353198 
L 163.101918 249.988554 
L 163.567306 251.754633 
L 164.032694 250.069352 
L 164.498082 261.088709 
L 164.96347 250.371019 
L 165.428857 247.122946 
L 165.894245 251.550327 
L 166.359633 238.927044 
L 166.825021 252.218606 
L 167.290409 253.446412 
L 167.755796 255.451547 
L 168.221184 260.024546 
L 168.686572 243.55526 
L 169.15196 246.428472 
L 169.617348 243.648593 
L 170.082736 242.127945 
L 170.548123 245.252471 
L 171.013511 242.598378 
L 171.478899 251.027253 
L 171.944287 240.37421 
L 172.409675 258.732881 
L 172.875063 245.223035 
L 173.34045 244.421077 
L 173.805838 246.318931 
L 174.271226 252.143865 
L 174.736614 243.330152 
L 175.202002 246.565756 
L 175.667389 260.334451 
L 176.132777 256.101562 
L 176.598165 244.490926 
L 177.063553 245.358752 
L 177.528941 243.003539 
L 177.994329 243.428868 
L 178.459716 256.113924 
L 178.925104 251.068839 
L 179.390492 247.326262 
L 179.85588 248.357837 
L 180.321268 252.315121 
L 180.786656 242.452241 
L 181.252043 246.986297 
L 181.717431 246.84463 
L 182.182819 246.456532 
L 182.648207 242.58641 
L 183.113595 244.462904 
L 183.578982 245.768633 
L 184.04437 246.345184 
L 184.509758 249.687541 
L 184.975146 248.931149 
L 185.440534 242.764655 
L 185.905922 247.092464 
L 186.371309 254.193479 
L 186.836697 244.309009 
L 187.302085 259.429355 
L 187.767473 248.593953 
L 188.232861 251.488948 
L 188.698249 253.167249 
L 189.163636 246.783799 
L 189.629024 256.054169 
L 190.094412 244.138771 
L 190.5598 261.327064 
L 191.025188 240.76026 
L 191.955963 252.581152 
L 192.421351 260.632282 
L 192.886739 250.123627 
L 193.352127 248.954768 
L 193.817515 243.522297 
L 194.282902 258.514367 
L 194.74829 257.881473 
L 195.213678 246.844226 
L 195.679066 246.565881 
L 196.144454 239.122102 
L 196.609842 245.942619 
L 197.075229 244.124246 
L 197.540617 259.076191 
L 198.006005 254.907892 
L 198.471393 255.738573 
L 198.936781 253.535804 
L 199.402168 245.911473 
L 199.867556 241.711345 
L 200.332944 262.006946 
L 200.798332 247.439436 
L 201.26372 246.055871 
L 201.729108 248.192368 
L 202.194495 242.357245 
L 202.659883 242.577614 
L 203.125271 244.260992 
L 203.590659 246.389885 
L 204.056047 256.763967 
L 204.521435 247.037813 
L 204.986822 248.527507 
L 205.917598 241.132169 
L 206.382986 254.637804 
L 206.848374 238.21789 
L 207.313761 249.760764 
L 207.779149 247.773249 
L 208.244537 241.334802 
L 208.709925 247.459989 
L 209.175313 251.84934 
L 209.640701 243.936715 
L 210.106088 253.162914 
L 210.571476 249.652329 
L 211.036864 247.320533 
L 211.502252 250.74562 
L 211.96764 246.969119 
L 212.433028 255.494498 
L 212.898415 248.893139 
L 213.363803 246.860597 
L 213.829191 242.622507 
L 214.294579 258.522461 
L 214.759967 245.699727 
L 215.225354 250.623284 
L 215.690742 257.730808 
L 216.15613 261.960631 
L 216.621518 247.663747 
L 217.086906 246.503771 
L 217.552294 248.064995 
L 218.017681 253.153503 
L 218.483069 240.733584 
L 218.948457 244.865565 
L 219.413845 247.008705 
L 219.879233 244.773828 
L 220.344621 244.094148 
L 220.810008 253.015248 
L 221.275396 256.283344 
L 221.740784 246.954267 
L 222.206172 241.865259 
L 222.67156 245.35584 
L 223.136947 252.248579 
L 223.602335 245.90162 
L 224.067723 249.006996 
L 224.533111 244.617058 
L 224.998499 257.416337 
L 225.463887 246.923159 
L 225.929274 258.995614 
L 226.394662 245.743802 
L 226.86005 250.275369 
L 227.325438 248.583753 
L 227.790826 248.853332 
L 228.256214 250.886191 
L 228.721601 254.756025 
L 229.186989 246.577743 
L 229.652377 242.544401 
L 230.583153 251.136639 
L 231.04854 244.92507 
L 231.513928 243.405864 
L 231.979316 246.140975 
L 232.444704 263.511464 
L 232.910092 240.398012 
L 233.37548 252.565781 
L 233.840867 249.807137 
L 234.306255 255.963961 
L 234.771643 257.288195 
L 235.237031 244.978749 
L 236.167807 250.277638 
L 236.633194 249.735953 
L 237.098582 248.209354 
L 237.56397 249.51343 
L 238.029358 242.746727 
L 238.494746 242.370271 
L 238.960133 246.721929 
L 239.425521 248.119559 
L 239.890909 242.64976 
L 240.821685 256.647226 
L 241.287073 259.571435 
L 242.217848 249.434978 
L 242.683236 249.386528 
L 243.148624 253.369873 
L 243.614012 246.637632 
L 244.079399 255.4249 
L 244.544787 249.290033 
L 245.010175 239.612944 
L 245.940951 256.750576 
L 246.406339 247.046081 
L 246.871726 251.940924 
L 247.337114 245.079647 
L 247.802502 245.521741 
L 248.26789 244.537088 
L 248.733278 244.607465 
L 249.198666 262.96079 
L 249.664053 243.055296 
L 250.129441 263.277271 
L 250.594829 250.552657 
L 251.060217 245.140161 
L 251.525605 250.14667 
L 251.990992 260.422901 
L 252.45638 245.622524 
L 252.921768 248.578187 
L 253.387156 247.921732 
L 253.852544 247.592361 
L 254.317932 247.407098 
L 254.783319 249.324928 
L 255.248707 249.881302 
L 255.714095 246.31697 
L 256.179483 245.305227 
L 256.644871 244.619904 
L 257.110259 247.293847 
L 257.575646 253.867367 
L 258.041034 248.634126 
L 258.97181 250.643789 
L 259.437198 255.894276 
L 259.902585 246.207593 
L 260.367973 252.572789 
L 260.833361 247.093944 
L 261.298749 247.790755 
L 261.764137 243.057805 
L 262.229525 244.738846 
L 262.694912 248.07009 
L 263.1603 248.040357 
L 263.625688 240.163646 
L 264.091076 244.193393 
L 264.556464 244.565225 
L 265.487239 252.441628 
L 265.952627 251.491505 
L 266.418015 245.306467 
L 266.883403 254.613627 
L 267.348791 252.971739 
L 267.814178 248.226196 
L 268.279566 253.627348 
L 268.744954 242.880156 
L 269.210342 247.369646 
L 269.67573 249.903056 
L 270.141118 245.421679 
L 270.606505 243.671914 
L 271.071893 249.825613 
L 271.537281 253.713404 
L 272.002669 242.295173 
L 272.468057 249.982489 
L 272.933445 253.749761 
L 273.398832 256.42182 
L 273.86422 252.043524 
L 274.329608 244.160285 
L 274.794996 246.837372 
L 275.260384 244.547556 
L 275.725771 248.956201 
L 276.191159 251.408496 
L 276.656547 240.499872 
L 277.121935 252.795494 
L 277.587323 250.061835 
L 278.052711 248.657341 
L 278.518098 244.970309 
L 278.983486 253.865867 
L 279.448874 255.378075 
L 279.914262 242.738998 
L 280.37965 239.686503 
L 280.845038 241.865115 
L 281.310425 253.408277 
L 281.775813 236.93628 
L 282.241201 254.658222 
L 282.706589 251.681756 
L 283.171977 241.548067 
L 283.637364 243.827761 
L 284.102752 256.187675 
L 284.56814 253.564912 
L 285.033528 247.707448 
L 285.498916 243.644998 
L 285.964304 250.421516 
L 286.429691 241.161133 
L 286.895079 242.580133 
L 287.360467 249.89177 
L 288.291243 242.557417 
L 289.222018 256.232232 
L 289.687406 240.436406 
L 290.152794 241.326766 
L 290.618182 250.07512 
L 291.08357 236.840304 
L 291.548957 247.077765 
L 292.479733 250.488788 
L 292.945121 259.042872 
L 293.875897 252.533 
L 294.341284 244.06975 
L 294.806672 256.793373 
L 295.27206 247.045379 
L 295.737448 257.403686 
L 296.202836 245.636136 
L 296.668224 244.447061 
L 297.133611 244.621029 
L 297.598999 246.262291 
L 298.064387 253.125923 
L 298.529775 254.53307 
L 298.995163 246.261743 
L 299.46055 243.379043 
L 299.925938 249.77726 
L 300.391326 262.016348 
L 300.856714 247.447723 
L 301.78749 250.773074 
L 302.252877 247.942727 
L 302.718265 242.06049 
L 303.183653 258.953481 
L 303.649041 246.211727 
L 304.114429 247.961223 
L 304.579817 247.808981 
L 305.045204 250.795723 
L 305.510592 250.219536 
L 305.97598 246.770254 
L 306.441368 258.207355 
L 306.906756 247.40954 
L 307.372143 249.232479 
L 307.837531 244.522341 
L 308.302919 258.051547 
L 308.768307 245.779755 
L 309.233695 249.395334 
L 309.699083 250.736285 
L 310.16447 242.691865 
L 310.629858 255.701976 
L 311.095246 242.114708 
L 311.560634 246.918506 
L 312.026022 247.674168 
L 312.49141 251.447352 
L 312.956797 240.410691 
L 313.422185 249.355392 
L 313.887573 249.419261 
L 314.352961 243.433232 
L 314.818349 253.728968 
L 315.283736 252.029883 
L 315.749124 247.640955 
L 316.214512 248.791183 
L 316.6799 259.77329 
L 317.145288 256.430539 
L 317.610676 248.297708 
L 318.076063 253.192435 
L 318.541451 248.112762 
L 319.472227 243.365451 
L 319.937615 236.67444 
L 320.403003 255.390581 
L 321.333778 249.041747 
L 321.799166 247.155102 
L 322.264554 247.398591 
L 322.729942 263.779004 
L 323.195329 252.616249 
L 323.660717 253.105457 
L 324.126105 248.158405 
L 324.591493 255.594301 
L 325.522269 237.308699 
L 325.987656 242.852451 
L 326.453044 245.188707 
L 326.918432 242.901151 
L 327.38382 250.453845 
L 327.849208 253.05619 
L 328.314595 242.186402 
L 328.779983 247.277197 
L 329.245371 242.077486 
L 329.710759 251.474086 
L 330.176147 244.972577 
L 330.641535 244.233777 
L 331.106922 246.841342 
L 331.57231 242.691586 
L 332.037698 248.594135 
L 332.503086 248.082991 
L 332.968474 242.561656 
L 333.433862 253.842805 
L 333.899249 247.616028 
L 334.364637 251.122181 
L 334.830025 255.720876 
L 335.760801 242.356418 
L 336.226188 240.277705 
L 336.691576 246.821635 
L 337.156964 246.149348 
L 337.622352 250.434695 
L 338.08774 244.816702 
L 338.553128 259.22104 
L 339.483903 254.17856 
L 339.949291 250.987128 
L 340.414679 245.950502 
L 340.880067 243.086499 
L 341.345455 241.314096 
L 341.810842 261.203162 
L 342.27623 249.390652 
L 342.741618 255.074168 
L 343.207006 247.395332 
L 343.672394 247.79981 
L 344.137781 241.837266 
L 344.603169 247.447704 
L 345.068557 248.44098 
L 345.999333 249.742614 
L 346.930108 247.936479 
L 347.395496 245.574171 
L 347.860884 247.825804 
L 348.326272 249.22078 
L 348.79166 244.874669 
L 349.257048 252.870553 
L 349.722435 256.659589 
L 350.187823 244.928444 
L 350.653211 254.979893 
L 351.118599 248.659148 
L 351.583987 244.604023 
L 352.049374 253.102169 
L 352.514762 249.114297 
L 352.98015 256.668394 
L 353.445538 246.658493 
L 353.910926 250.677021 
L 354.376314 263.443817 
L 354.841701 241.378445 
L 355.307089 249.954197 
L 355.772477 254.679899 
L 356.237865 241.93878 
L 356.703253 255.332086 
L 357.168641 250.000657 
L 357.634028 254.853837 
L 358.099416 247.947437 
L 358.564804 246.598498 
L 359.030192 243.162635 
L 359.49558 245.195283 
L 359.960967 245.866119 
L 360.426355 247.740863 
L 360.891743 250.860178 
L 361.357131 256.193232 
L 361.822519 244.775683 
L 363.218682 261.16843 
L 364.149458 249.67291 
L 364.614846 245.090539 
L 365.080234 244.696952 
L 365.545621 247.795138 
L 366.011009 248.913269 
L 366.476397 255.310832 
L 366.941785 244.508335 
L 367.87256 256.864395 
L 368.337948 247.447829 
L 368.803336 251.51422 
L 369.268724 251.515854 
L 369.734112 247.272083 
L 370.664887 251.647918 
L 371.130275 244.996245 
L 371.595663 249.032326 
L 372.061051 244.427547 
L 372.526439 245.291115 
L 372.991827 254.841148 
L 373.457214 254.622471 
L 373.922602 248.748175 
L 374.38799 249.568455 
L 374.853378 245.319223 
L 375.318766 237.888932 
L 375.784153 240.351398 
L 376.249541 246.360008 
L 376.714929 260.538382 
L 377.180317 242.795273 
L 377.645705 259.236584 
L 378.111093 254.203919 
L 378.57648 255.768326 
L 379.041868 248.234089 
L 379.507256 250.40153 
L 379.972644 250.323098 
L 380.90342 261.189636 
L 381.368807 249.14677 
L 381.834195 242.539229 
L 382.299583 244.764503 
L 382.764971 243.423533 
L 383.695746 253.323807 
L 384.161134 246.310318 
L 384.626522 250.657122 
L 385.09191 248.807939 
L 385.557298 245.94957 
L 386.022686 249.372734 
L 386.488073 244.45156 
L 386.953461 244.491829 
L 387.418849 251.521843 
L 387.884237 253.576861 
L 388.349625 246.309789 
L 388.815013 246.459801 
L 389.2804 252.115833 
L 389.745788 245.616401 
L 390.676564 247.935642 
L 391.141952 243.090037 
L 391.607339 241.171948 
L 392.072727 248.36372 
L 392.538115 248.162952 
L 393.003503 257.767213 
L 393.468891 262.345143 
L 393.934279 244.805714 
L 394.399666 248.650814 
L 394.865054 248.280952 
L 395.330442 239.003862 
L 395.79583 251.215985 
L 396.261218 248.469118 
L 396.726606 244.85873 
L 397.191993 256.967629 
L 397.657381 246.652946 
L 398.122769 248.431406 
L 398.588157 246.851042 
L 399.053545 253.493833 
L 399.518932 247.559955 
L 399.98432 252.100885 
L 400.449708 245.247962 
L 400.915096 247.186123 
L 401.380484 251.432384 
L 401.845872 245.222507 
L 402.311259 245.801183 
L 402.776647 258.634087 
L 403.242035 254.636631 
L 403.707423 244.460424 
L 404.172811 253.845632 
L 404.638198 243.007778 
L 405.103586 245.787426 
L 405.568974 239.821258 
L 406.034362 251.112895 
L 406.49975 253.366777 
L 406.965138 248.411238 
L 407.430525 254.193604 
L 407.895913 247.713379 
L 408.361301 246.874988 
L 408.826689 247.214693 
L 409.292077 246.330813 
L 409.757465 254.84905 
L 410.222852 240.457218 
L 410.68824 253.126413 
L 411.153628 253.287191 
L 411.619016 248.880642 
L 412.084404 246.974348 
L 412.549791 242.810567 
L 413.015179 252.03243 
L 413.480567 247.622911 
L 413.945955 253.851044 
L 414.411343 241.907595 
L 414.876731 234.873399 
L 415.342118 245.672224 
L 415.807506 252.77348 
L 416.272894 246.396143 
L 416.738282 246.039317 
L 417.20367 241.112087 
L 417.669058 246.396422 
L 418.134445 259.904844 
L 418.599833 249.29607 
L 419.065221 262.154708 
L 419.530609 245.663736 
L 419.995997 262.218299 
L 420.461384 258.653679 
L 420.926772 246.107416 
L 421.39216 254.896269 
L 421.857548 249.242583 
L 422.322936 251.344954 
L 422.788324 252.644454 
L 423.253711 241.388741 
L 423.719099 252.571712 
L 424.184487 257.640532 
L 424.649875 242.487723 
L 425.115263 255.601357 
L 425.580651 246.232558 
L 426.046038 255.315927 
L 426.511426 245.985561 
L 426.976814 242.627102 
L 427.442202 244.505614 
L 427.90759 243.93982 
L 428.372977 248.193839 
L 428.838365 246.274183 
L 429.303753 254.518592 
L 429.769141 249.100887 
L 430.234529 248.907684 
L 430.699917 250.202819 
L 431.165304 244.581634 
L 431.630692 244.512372 
L 432.09608 242.788168 
L 432.561468 247.759608 
L 433.026856 242.292242 
L 433.492244 260.311543 
L 433.957631 243.923151 
L 434.423019 241.970647 
L 434.888407 244.482841 
L 435.353795 247.943362 
L 436.28457 242.497403 
L 436.749958 247.260221 
L 437.215346 248.372074 
L 438.146122 239.118305 
L 438.61151 257.167551 
L 439.076897 247.547035 
L 439.542285 247.208416 
L 440.007673 244.548075 
L 440.473061 246.513451 
L 440.938449 253.054796 
L 441.403837 245.212019 
L 441.869224 248.615861 
L 442.334612 249.057397 
L 442.8 244.169466 
L 443.730776 250.085262 
L 444.196163 251.719151 
L 444.661551 251.008834 
L 445.126939 247.27936 
L 445.592327 257.658729 
L 446.057715 250.244511 
L 446.523103 250.623793 
L 446.98849 243.188849 
L 447.453878 259.511806 
L 447.919266 250.296739 
L 448.384654 237.163523 
L 448.850042 252.910629 
L 449.31543 243.995989 
L 449.780817 247.598042 
L 450.246205 245.867936 
L 450.711593 252.856671 
L 451.176981 251.585203 
L 451.642369 246.595912 
L 452.107756 249.535598 
L 452.573144 246.63098 
L 453.038532 244.996158 
L 453.50392 239.789497 
L 453.969308 247.229584 
L 454.434696 246.034299 
L 454.900083 259.535627 
L 455.365471 244.221184 
L 455.830859 263.338294 
L 456.296247 247.212328 
L 456.761635 245.902889 
L 457.227023 250.498295 
L 457.69241 250.572335 
L 458.157798 240.979687 
L 458.623186 254.086996 
L 459.088574 241.732542 
L 459.553962 251.63893 
L 460.019349 257.54395 
L 460.484737 251.648034 
L 460.950125 247.780103 
L 461.415513 241.175226 
L 461.880901 250.545092 
L 462.346289 247.259096 
L 462.811676 249.01609 
L 463.277064 238.514606 
L 463.742452 252.466622 
L 464.20784 254.101675 
L 464.673228 240.576305 
L 465.138616 254.114922 
L 466.069391 246.915593 
L 466.534779 248.544859 
L 467.000167 252.716196 
L 467.465555 245.626456 
L 467.930942 248.571208 
L 468.39633 245.166049 
L 468.861718 248.334026 
L 469.327106 246.852762 
L 469.792494 243.457957 
L 470.257882 246.539281 
L 470.723269 247.122918 
L 471.188657 248.999113 
L 471.654045 253.172767 
L 472.119433 237.847904 
L 472.584821 243.106235 
L 473.050209 253.107639 
L 473.515596 242.930201 
L 473.980984 247.862958 
L 474.446372 245.158936 
L 474.91176 251.767947 
L 475.377148 244.809713 
L 475.842535 249.543288 
L 476.307923 244.225154 
L 476.773311 253.289412 
L 477.238699 245.970622 
L 477.704087 253.682806 
L 478.169475 258.726469 
L 479.10025 249.224289 
L 479.565638 241.537109 
L 480.031026 246.740002 
L 480.496414 247.734057 
L 480.961802 243.557817 
L 481.892577 248.945617 
L 482.357965 247.004783 
L 482.823353 246.04221 
L 483.288741 247.901708 
L 483.754128 247.142653 
L 484.219516 247.5576 
L 484.684904 245.774939 
L 485.150292 245.623447 
L 485.61568 247.186268 
L 486.081068 252.872023 
L 486.546455 246.126171 
L 487.011843 247.350631 
L 487.477231 242.81074 
L 488.408007 247.886712 
L 488.873394 245.641808 
L 489.338782 242.437543 
L 489.80417 240.557463 
L 490.269558 241.906403 
L 490.734946 248.926083 
L 491.200334 247.849086 
L 491.665721 263.321731 
L 492.131109 246.248285 
L 492.596497 250.117571 
L 493.061885 245.20032 
L 493.527273 241.890705 
L 493.992661 239.389181 
L 494.458048 262.383306 
L 494.923436 246.432778 
L 495.388824 248.65562 
L 495.854212 245.118744 
L 496.3196 247.851278 
L 496.784987 246.836834 
L 497.250375 242.693182 
L 497.715763 251.1647 
L 498.181151 250.129981 
L 498.646539 251.309866 
L 499.111927 258.676385 
L 499.577314 257.14025 
L 500.042702 242.03393 
L 500.973478 249.198238 
L 501.438866 240.36478 
L 501.904254 247.947418 
L 502.369641 248.949202 
L 502.835029 255.136047 
L 503.300417 250.968344 
L 503.765805 239.516064 
L 504.231193 243.677778 
L 504.69658 245.664918 
L 505.161968 244.965377 
L 505.627356 248.588598 
L 506.092744 242.406069 
L 506.558132 246.995689 
L 507.02352 249.155719 
L 507.488907 243.156136 
L 507.954295 246.875526 
L 508.419683 248.727209 
L 508.885071 244.781095 
L 509.350459 242.463709 
L 509.815847 246.824462 
L 510.281234 262.22721 
L 510.746622 244.127178 
L 511.21201 248.677192 
L 511.677398 249.16465 
L 513.073561 258.582667 
L 513.538949 247.436918 
L 514.004337 253.224899 
L 514.469725 246.606563 
L 514.935113 256.8901 
L 515.865888 243.780772 
L 516.331276 244.20887 
L 516.796664 245.141584 
L 517.262052 247.4088 
L 517.72744 242.825563 
L 518.192827 248.550175 
L 518.658215 243.153531 
L 519.123603 241.594729 
L 520.054379 245.135788 
L 520.519766 250.135288 
L 520.985154 244.232566 
L 521.450542 246.869403 
L 521.91593 253.734774 
L 522.381318 243.823694 
L 523.312093 252.160889 
L 523.777481 250.287837 
L 524.242869 246.819069 
L 524.708257 261.710009 
L 525.173645 259.108693 
L 525.639033 248.431012 
L 526.10442 258.328681 
L 527.035196 250.490614 
L 527.500584 238.781532 
L 527.965972 244.136589 
L 528.431359 243.44447 
L 528.896747 246.959621 
L 529.362135 242.594937 
L 529.827523 253.381803 
L 530.292911 245.222757 
L 530.758299 243.949962 
L 531.223686 245.754598 
L 531.689074 246.602823 
L 532.61985 249.375185 
L 533.085238 246.448746 
L 533.550626 255.623005 
L 534.016013 244.382866 
L 534.481401 248.842084 
L 534.946789 249.508393 
L 535.412177 260.943639 
L 535.877565 242.637811 
L 536.342952 254.527052 
L 536.80834 248.908222 
L 537.273728 244.72507 
L 538.204504 252.441869 
L 538.669892 245.819553 
L 539.135279 251.494292 
L 539.600667 248.450738 
L 540.066055 254.300492 
L 540.531443 253.036464 
L 540.996831 250.012001 
L 541.462219 243.393492 
L 541.927606 248.151888 
L 542.392994 259.864383 
L 542.858382 248.554664 
L 543.32377 252.542834 
L 543.789158 250.485308 
L 544.254545 243.679326 
L 544.719933 243.715288 
L 545.185321 256.679728 
L 545.650709 250.25571 
L 546.116097 240.743668 
L 546.581485 242.488328 
L 547.046872 254.714843 
L 547.51226 241.600689 
L 547.977648 242.216029 
L 548.443036 257.137472 
L 548.908424 245.46936 
L 549.373812 253.404268 
L 549.839199 247.57349 
L 550.304587 243.63847 
L 550.769975 251.744577 
L 551.235363 244.410455 
L 551.700751 251.828278 
L 552.166138 249.048928 
L 552.631526 240.839933 
L 553.096914 251.533956 
L 553.562302 251.69308 
L 554.02769 238.868895 
L 554.493078 246.457907 
L 554.958465 238.239106 
L 555.423853 254.10477 
L 555.889241 241.714113 
L 556.820017 260.284232 
L 557.285405 246.95195 
L 557.750792 244.63192 
L 558.21618 257.386844 
L 559.146956 238.811611 
L 559.612344 261.473442 
L 560.077731 248.71201 
L 560.543119 256.952344 
L 561.008507 251.103849 
L 561.473895 243.663647 
L 561.939283 259.471614 
L 562.404671 252.638177 
L 563.335446 246.939289 
L 563.800834 248.84542 
L 564.266222 257.173579 
L 565.196997 241.731052 
L 565.662385 247.389689 
L 566.127773 247.867072 
L 566.593161 244.85377 
L 567.058549 258.541716 
L 567.523937 244.377204 
L 567.989324 242.543699 
L 568.9201 244.276718 
L 569.385488 244.103463 
L 569.850876 250.165492 
L 570.316264 241.409188 
L 570.781651 261.073569 
L 571.247039 258.841037 
L 571.712427 250.438589 
L 572.177815 250.773766 
L 572.643203 254.515468 
L 573.10859 250.08852 
L 573.573978 255.230399 
L 574.039366 246.50777 
L 574.504754 247.530981 
L 574.970142 251.583386 
L 575.43553 253.880835 
L 575.900917 248.506436 
L 576.366305 252.045965 
L 576.831693 243.933706 
L 577.297081 249.035076 
L 577.762469 244.087947 
L 578.693244 251.051554 
L 579.158632 241.868345 
L 579.62402 245.3824 
L 580.089408 256.663396 
L 580.554796 249.043016 
L 581.020183 248.047451 
L 581.485571 251.604477 
L 581.950959 252.7787 
L 582.416347 244.890213 
L 583.347123 249.128178 
L 583.81251 247.74291 
L 584.277898 244.099569 
L 584.743286 253.585311 
L 585.208674 244.848319 
L 585.674062 246.040557 
L 586.13945 259.914457 
L 586.604837 242.272958 
L 587.070225 256.957112 
L 587.535613 246.141503 
L 588.001001 258.022131 
L 588.466389 248.673327 
L 588.931776 248.355761 
L 589.397164 244.566254 
L 589.862552 242.971393 
L 590.32794 253.272743 
L 590.793328 244.695184 
L 591.724103 241.003037 
L 592.189491 244.72732 
L 592.654879 249.567888 
L 593.120267 259.183578 
L 593.585655 239.278333 
L 594.051043 245.276792 
L 594.51643 245.669724 
L 594.981818 243.07381 
L 595.447206 253.731698 
L 595.912594 241.771513 
L 596.377982 253.883699 
L 596.843369 242.609914 
L 597.774145 245.23436 
L 598.239533 245.093269 
L 598.704921 249.694713 
L 599.170309 249.290542 
L 599.635696 256.681555 
L 600.101084 249.386538 
L 600.566472 244.858442 
L 601.03186 250.239349 
L 601.962636 249.17707 
L 602.428023 246.544828 
L 602.893411 258.025198 
L 603.358799 253.520596 
L 603.824187 243.304302 
L 604.289575 245.391667 
L 604.754962 252.756359 
L 605.22035 242.861612 
L 605.685738 255.287924 
L 606.151126 254.064194 
L 606.616514 244.852751 
L 607.081902 247.133252 
L 607.547289 243.536986 
L 608.012677 246.886985 
L 608.478065 245.108227 
L 608.943453 248.477173 
L 609.408841 248.939147 
L 609.874229 251.190722 
L 610.339616 250.168155 
L 610.805004 257.825641 
L 611.270392 240.539506 
L 611.73578 253.137737 
L 612.201168 248.578572 
L 612.666555 249.866738 
L 613.131943 242.980035 
L 613.597331 257.787717 
L 614.062719 248.371363 
L 614.528107 241.664337 
L 614.993495 249.916216 
L 615.458882 242.825736 
L 615.92427 258.264274 
L 616.389658 245.773295 
L 616.855046 239.955514 
L 617.320434 244.840196 
L 617.785822 234.794967 
L 618.251209 248.737821 
L 618.716597 248.461504 
L 619.181985 251.722602 
L 619.647373 242.496307 
L 620.112761 248.415083 
L 620.578148 248.692611 
L 621.043536 244.24737 
L 621.508924 247.863083 
L 621.974312 249.395151 
L 622.4397 255.607798 
L 622.905088 244.521543 
L 623.370475 243.638124 
L 623.835863 247.827553 
L 624.301251 258.454054 
L 624.766639 260.54463 
L 625.232027 244.00415 
L 625.697415 250.207857 
L 626.162802 248.648276 
L 626.62819 241.878544 
L 627.093578 251.91842 
L 627.558966 245.429821 
L 628.024354 253.632876 
L 628.489741 244.855269 
L 628.955129 250.709176 
L 629.420517 247.872533 
L 629.885905 252.776797 
L 630.351293 252.25329 
L 630.816681 242.651077 
L 631.282068 245.13598 
L 631.747456 245.167847 
L 632.212844 258.705205 
L 632.678232 247.82416 
L 633.14362 249.442274 
L 633.609008 244.87365 
L 634.074395 246.367506 
L 634.539783 244.538616 
L 635.005171 252.018684 
L 635.470559 252.112728 
L 635.935947 240.590888 
L 636.401334 247.111872 
L 636.866722 247.681022 
L 637.33211 241.822606 
L 637.797498 249.429153 
L 638.262886 260.005272 
L 638.728274 241.981414 
L 639.193661 257.967885 
L 639.659049 246.133861 
L 640.124437 246.449255 
L 640.589825 253.262553 
L 641.055213 246.283046 
L 641.520601 243.485373 
L 641.985988 248.455823 
L 642.451376 243.631414 
L 642.916764 256.970244 
L 643.382152 248.14288 
L 643.84754 249.703057 
L 644.312927 244.882984 
L 644.778315 243.50161 
L 645.243703 246.054544 
L 645.709091 241.757334 
L 646.174479 242.370146 
L 646.639867 250.090568 
L 647.105254 251.809235 
L 647.570642 247.916906 
L 648.03603 246.125171 
L 648.501418 247.585622 
L 648.966806 246.629865 
L 649.432193 250.997923 
L 649.897581 242.761896 
L 650.362969 246.567822 
L 650.828357 244.844234 
L 651.293745 249.03546 
L 651.759133 243.011912 
L 652.22452 246.466559 
L 652.689908 255.16181 
L 653.155296 241.812791 
L 653.620684 247.12137 
L 654.086072 249.79662 
L 654.55146 246.707038 
L 655.016847 241.959784 
L 655.482235 246.817386 
L 655.947623 241.273173 
L 656.413011 246.834901 
L 656.878399 245.376392 
L 657.343786 241.970647 
L 657.809174 244.053167 
L 658.274562 259.243842 
L 658.73995 251.593701 
L 659.205338 258.023025 
L 659.670726 254.381559 
L 660.136113 245.270668 
L 660.601501 240.632455 
L 661.066889 245.454364 
L 661.532277 246.939549 
L 661.997665 245.814295 
L 662.463053 247.117169 
L 662.92844 247.149728 
L 663.393828 243.418399 
L 663.859216 244.849704 
L 664.324604 243.736466 
L 664.789992 250.072217 
L 665.255379 246.556066 
L 665.720767 246.110982 
L 666.186155 261.697339 
L 666.651543 252.355255 
L 667.116931 248.341466 
L 667.582319 251.693648 
L 668.047706 247.558734 
L 668.513094 250.395272 
L 668.978482 249.700932 
L 669.44387 247.014098 
L 669.909258 247.367243 
L 670.374646 253.850323 
L 670.840033 240.456767 
L 671.770809 247.669736 
L 672.236197 252.922175 
L 672.701585 246.988662 
L 673.166972 253.834971 
L 673.63236 240.805806 
L 674.097748 258.664676 
L 674.563136 244.214397 
L 675.028524 246.700165 
L 675.493912 254.804619 
L 675.959299 246.952392 
L 676.424687 257.090618 
L 676.890075 244.303318 
L 677.355463 245.438512 
L 677.820851 245.577237 
L 678.286239 238.621926 
L 678.751626 252.701459 
L 679.217014 251.097755 
L 679.682402 248.977686 
L 680.14779 244.852876 
L 680.613178 241.954353 
L 681.078565 248.28325 
L 681.543953 251.202941 
L 682.009341 247.22 
L 682.474729 250.23931 
L 683.405505 246.650725 
L 683.870892 249.174119 
L 684.33628 247.466622 
L 684.801668 243.845343 
L 685.267056 250.091827 
L 685.732444 251.825779 
L 686.197832 251.78153 
L 686.663219 259.93948 
L 687.128607 258.518606 
L 687.593995 246.110713 
L 688.059383 252.531904 
L 688.524771 244.471306 
L 688.990158 249.930194 
L 689.455546 259.04565 
L 689.920934 241.998131 
L 690.386322 246.893791 
L 690.85171 260.535508 
L 691.317098 242.663161 
L 691.782485 252.479965 
L 692.247873 250.38265 
L 692.713261 238.214026 
L 693.178649 253.325807 
L 693.644037 245.31781 
L 694.109425 251.508251 
L 694.574812 246.728379 
L 695.0402 244.321313 
L 695.505588 247.753091 
L 695.970976 244.29855 
L 696.436364 259.275392 
L 696.901751 251.146839 
L 697.367139 251.566669 
L 698.297915 245.817006 
L 698.763303 248.598528 
L 699.228691 246.719583 
L 699.694078 249.048226 
L 700.159466 252.681983 
L 700.624854 243.402816 
L 701.090242 243.550329 
L 701.55563 246.203229 
L 702.021018 246.067233 
L 702.486405 240.899437 
L 702.951793 248.31206 
L 703.417181 249.113124 
L 703.882569 238.715576 
L 704.347957 254.625845 
L 704.813344 246.6131 
L 705.278732 252.815499 
L 705.74412 255.387457 
L 706.209508 244.932924 
L 706.674896 240.928786 
L 707.140284 247.979218 
L 708.071059 248.51774 
L 708.536447 242.439927 
L 709.001835 264.052581 
L 709.467223 242.052262 
L 709.932611 254.772992 
L 710.397998 240.75852 
L 710.863386 248.990356 
L 711.328774 248.959892 
L 711.794162 243.033003 
L 712.25955 255.396253 
L 712.724937 246.65631 
L 713.190325 241.669336 
L 713.655713 248.218131 
L 714.121101 251.101321 
L 714.586489 244.484821 
L 715.051877 250.266727 
L 715.517264 251.862212 
L 715.982652 252.00163 
L 716.44804 253.366085 
L 716.913428 247.645425 
L 717.378816 251.699694 
L 717.844204 242.444973 
L 718.309591 241.602429 
L 718.774979 245.534344 
L 719.240367 243.467829 
L 719.705755 248.025207 
L 720.171143 242.850961 
L 720.63653 251.027349 
L 721.101918 252.550294 
L 721.567306 247.576009 
L 722.032694 245.1777 
L 722.498082 241.560103 
L 722.96347 247.067864 
L 723.428857 244.963974 
L 723.894245 246.705068 
L 724.359633 245.9918 
L 724.825021 257.817027 
L 725.290409 246.584386 
L 725.755796 247.598196 
L 726.221184 239.943575 
L 726.686572 258.658283 
L 727.15196 248.011729 
L 727.617348 257.177616 
L 728.082736 256.361392 
L 728.548123 242.383354 
L 729.013511 253.976898 
L 729.478899 254.279583 
L 729.944287 248.751539 
L 730.409675 241.218561 
L 731.34045 255.839645 
L 731.805838 247.126138 
L 732.271226 253.563835 
L 732.736614 248.5426 
L 733.202002 251.180888 
L 733.667389 253.090085 
L 734.132777 256.799064 
L 734.598165 251.566823 
L 735.063553 257.822093 
L 735.528941 245.630744 
L 735.994329 242.160216 
L 736.459716 249.484706 
L 736.925104 248.235434 
L 737.390492 256.20891 
L 737.85588 243.654053 
L 738.321268 248.345677 
L 738.786656 248.377121 
L 739.252043 248.650775 
L 739.717431 260.759943 
L 740.182819 248.377227 
L 740.648207 245.052529 
L 741.113595 245.04406 
L 741.578982 244.408725 
L 742.04437 258.875874 
L 742.509758 244.265625 
L 742.975146 243.120135 
L 743.440534 239.95463 
L 743.905922 241.969359 
L 744.371309 250.402473 
L 744.836697 253.510387 
L 745.302085 250.17075 
L 746.232861 249.949352 
L 746.698249 247.844818 
L 747.163636 247.541556 
L 747.163636 247.541556 
" clip-path="url(#pd03c01b2d4)" style="fill: none; stroke: #ff7f0e; stroke-width: 1.5; stroke-linecap: square"/>
   </g>
   <g id="patch_3">
    <path d="M 108 384.48 
L 108 51.84 
" style="fill: none; stroke: #000000; stroke-width: 0.8; stroke-linejoin: miter; stroke-linecap: square"/>
   </g>
   <g id="patch_4">
    <path d="M 777.6 384.48 
L 777.6 51.84 
" style="fill: none; stroke: #000000; stroke-width: 0.8; stroke-linejoin: miter; stroke-linecap: square"/>
   </g>
   <g id="patch_5">
    <path d="M 108 384.48 
L 777.6 384.48 
" style="fill: none; stroke: #000000; stroke-width: 0.8; stroke-linejoin: miter; stroke-linecap: square"/>
   </g>
   <g id="patch_6">
    <path d="M 108 51.84 
L 777.6 51.84 
" style="fill: none; stroke: #000000; stroke-width: 0.8; stroke-linejoin: miter; stroke-linecap: square"/>
   </g>
   <g id="text_16">
    <!-- Regresso: Real vs Previsto -->
    <g transform="translate(360.520313 45.84) scale(0.12 -0.12)">
     <defs>
      <path id="DejaVuSans-52" d="M 2841 2188 
Q 3044 2119 3236 1894 
Q 3428 1669 3622 1275 
L 4263 0 
L 3584 0 
L 2988 1197 
Q 2756 1666 2539 1819 
Q 2322 1972 1947 1972 
L 1259 1972 
L 1259 0 
L 628 0 
L 628 4666 
L 2053 4666 
Q 2853 4666 3247 4331 
Q 3641 3997 3641 3322 
Q 3641 2881 3436 2590 
Q 3231 2300 2841 2188 
z
M 1259 4147 
L 1259 2491 
L 2053 2491 
Q 2509 2491 2742 2702 
Q 2975 2913 2975 3322 
Q 2975 3731 2742 3939 
Q 2509 4147 2053 4147 
L 1259 4147 
z
" transform="scale(0.015625)"/>
      <path id="DejaVuSans-65" d="M 3597 1894 
L 3597 1613 
L 953 1613 
Q 991 1019 1311 708 
Q 1631 397 2203 397 
Q 2534 397 2845 478 
Q 3156 559 3463 722 
L 3463 178 
Q 3153 47 2828 -22 
Q 2503 -91 2169 -91 
Q 1331 -91 842 396 
Q 353 884 353 1716 
Q 353 2575 817 3079 
Q 1281 3584 2069 3584 
Q 2775 3584 3186 3129 
Q 3597 2675 3597 1894 
z
M 3022 2063 
Q 3016 2534 2758 2815 
Q 2500 3097 2075 3097 
Q 1594 3097 1305 2825 
Q 1016 2553 972 2059 
L 3022 2063 
z
" transform="scale(0.015625)"/>
      <path id="DejaVuSans-67" d="M 2906 1791 
Q 2906 2416 2648 2759 
Q 2391 3103 1925 3103 
Q 1463 3103 1205 2759 
Q 947 2416 947 1791 
Q 947 1169 1205 825 
Q 1463 481 1925 481 
Q 2391 481 2648 825 
Q 2906 1169 2906 1791 
z
M 3481 434 
Q 3481 -459 3084 -895 
Q 2688 -1331 1869 -1331 
Q 1566 -1331 1297 -1286 
Q 1028 -1241 775 -1147 
L 775 -588 
Q 1028 -725 1275 -790 
Q 1522 -856 1778 -856 
Q 2344 -856 2625 -561 
Q 2906 -266 2906 331 
L 2906 616 
Q 2728 306 2450 153 
Q 2172 0 1784 0 
Q 1141 0 747 490 
Q 353 981 353 1791 
Q 353 2603 747 3093 
Q 1141 3584 1784 3584 
Q 2172 3584 2450 3431 
Q 2728 3278 2906 2969 
L 2906 3500 
L 3481 3500 
L 3481 434 
z
" transform="scale(0.015625)"/>
      <path id="DejaVuSans-72" d="M 2631 2963 
Q 2534 3019 2420 3045 
Q 2306 3072 2169 3072 
Q 1681 3072 1420 2755 
Q 1159 2438 1159 1844 
L 1159 0 
L 581 0 
L 581 3500 
L 1159 3500 
L 1159 2956 
Q 1341 3275 1631 3429 
Q 1922 3584 2338 3584 
Q 2397 3584 2469 3576 
Q 2541 3569 2628 3553 
L 2631 2963 
z
" transform="scale(0.015625)"/>
      <path id="DejaVuSans-73" d="M 2834 3397 
L 2834 2853 
Q 2591 2978 2328 3040 
Q 2066 3103 1784 3103 
Q 1356 3103 1142 2972 
Q 928 2841 928 2578 
Q 928 2378 1081 2264 
Q 1234 2150 1697 2047 
L 1894 2003 
Q 2506 1872 2764 1633 
Q 3022 1394 3022 966 
Q 3022 478 2636 193 
Q 2250 -91 1575 -91 
Q 1294 -91 989 -36 
Q 684 19 347 128 
L 347 722 
Q 666 556 975 473 
Q 1284 391 1588 391 
Q 1994 391 2212 530 
Q 2431 669 2431 922 
Q 2431 1156 2273 1281 
Q 2116 1406 1581 1522 
L 1381 1569 
Q 847 1681 609 1914 
Q 372 2147 372 2553 
Q 372 3047 722 3315 
Q 1072 3584 1716 3584 
Q 2034 3584 2315 3537 
Q 2597 3491 2834 3397 
z
" transform="scale(0.015625)"/>
      <path id="DejaVuSans-e3" d="M 2194 1759 
Q 1497 1759 1228 1600 
Q 959 1441 959 1056 
Q 959 750 1161 570 
Q 1363 391 1709 391 
Q 2188 391 2477 730 
Q 2766 1069 2766 1631 
L 2766 1759 
L 2194 1759 
z
M 3341 1997 
L 3341 0 
L 2766 0 
L 2766 531 
Q 2569 213 2275 61 
Q 1981 -91 1556 -91 
Q 1019 -91 701 211 
Q 384 513 384 1019 
Q 384 1609 779 1909 
Q 1175 2209 1959 2209 
L 2766 2209 
L 2766 2266 
Q 2766 2663 2505 2880 
Q 2244 3097 1772 3097 
Q 1472 3097 1187 3025 
Q 903 2953 641 2809 
L 641 3341 
Q 956 3463 1253 3523 
Q 1550 3584 1831 3584 
Q 2591 3584 2966 3190 
Q 3341 2797 3341 1997 
z
M 1844 4281 
L 1665 4453 
Q 1597 4516 1545 4545 
Q 1494 4575 1453 4575 
Q 1334 4575 1278 4461 
Q 1222 4347 1215 4091 
L 825 4091 
Q 831 4513 990 4742 
Q 1150 4972 1434 4972 
Q 1553 4972 1653 4928 
Q 1753 4884 1869 4781 
L 2047 4609 
Q 2115 4547 2167 4517 
Q 2219 4488 2259 4488 
Q 2378 4488 2434 4602 
Q 2490 4716 2497 4972 
L 2887 4972 
Q 2881 4550 2721 4320 
Q 2562 4091 2278 4091 
Q 2159 4091 2059 4134 
Q 1959 4178 1844 4281 
z
" transform="scale(0.015625)"/>
      <path id="DejaVuSans-6f" d="M 1959 3097 
Q 1497 3097 1228 2736 
Q 959 2375 959 1747 
Q 959 1119 1226 758 
Q 1494 397 1959 397 
Q 2419 397 2687 759 
Q 2956 1122 2956 1747 
Q 2956 2369 2687 2733 
Q 2419 3097 1959 3097 
z
M 1959 3584 
Q 2709 3584 3137 3096 
Q 3566 2609 3566 1747 
Q 3566 888 3137 398 
Q 2709 -91 1959 -91 
Q 1206 -91 779 398 
Q 353 888 353 1747 
Q 353 2609 779 3096 
Q 1206 3584 1959 3584 
z
" transform="scale(0.015625)"/>
      <path id="DejaVuSans-3a" d="M 750 794 
L 1409 794 
L 1409 0 
L 750 0 
L 750 794 
z
M 750 3309 
L 1409 3309 
L 1409 2516 
L 750 2516 
L 750 3309 
z
" transform="scale(0.015625)"/>
      <path id="DejaVuSans-20" transform="scale(0.015625)"/>
      <path id="DejaVuSans-61" d="M 2194 1759 
Q 1497 1759 1228 1600 
Q 959 1441 959 1056 
Q 959 750 1161 570 
Q 1363 391 1709 391 
Q 2188 391 2477 730 
Q 2766 1069 2766 1631 
L 2766 1759 
L 2194 1759 
z
M 3341 1997 
L 3341 0 
L 2766 0 
L 2766 531 
Q 2569 213 2275 61 
Q 1981 -91 1556 -91 
Q 1019 -91 701 211 
Q 384 513 384 1019 
Q 384 1609 779 1909 
Q 1175 2209 1959 2209 
L 2766 2209 
L 2766 2266 
Q 2766 2663 2505 2880 
Q 2244 3097 1772 3097 
Q 1472 3097 1187 3025 
Q 903 2953 641 2809 
L 641 3341 
Q 956 3463 1253 3523 
Q 1550 3584 1831 3584 
Q 2591 3584 2966 3190 
Q 3341 2797 3341 1997 
z
" transform="scale(0.015625)"/>
      <path id="DejaVuSans-6c" d="M 603 4863 
L 1178 4863 
L 1178 0 
L 603 0 
L 603 4863 
z
" transform="scale(0.015625)"/>
      <path id="DejaVuSans-76" d="M 191 3500 
L 800 3500 
L 1894 563 
L 2988 3500 
L 3597 3500 
L 2284 0 
L 1503 0 
L 191 3500 
z
" transform="scale(0.015625)"/>
      <path id="DejaVuSans-50" d="M 1259 4147 
L 1259 2394 
L 2053 2394 
Q 2494 2394 2734 2622 
Q 2975 2850 2975 3272 
Q 2975 3691 2734 3919 
Q 2494 4147 2053 4147 
L 1259 4147 
z
M 628 4666 
L 2053 4666 
Q 2838 4666 3239 4311 
Q 3641 3956 3641 3272 
Q 3641 2581 3239 2228 
Q 2838 1875 2053 1875 
L 1259 1875 
L 1259 0 
L 628 0 
L 628 4666 
z
" transform="scale(0.015625)"/>
      <path id="DejaVuSans-69" d="M 603 3500 
L 1178 3500 
L 1178 0 
L 603 0 
L 603 3500 
z
M 603 4863 
L 1178 4863 
L 1178 4134 
L 603 4134 
L 603 4863 
z
" transform="scale(0.015625)"/>
      <path id="DejaVuSans-74" d="M 1172 4494 
L 1172 3500 
L 2356 3500 
L 2356 3053 
L 1172 3053 
L 1172 1153 
Q 1172 725 1289 603 
Q 1406 481 1766 481 
L 2356 481 
L 2356 0 
L 1766 0 
Q 1100 0 847 248 
Q 594 497 594 1153 
L 594 3053 
L 172 3053 
L 172 3500 
L 594 3500 
L 594 4494 
L 1172 4494 
z
" transform="scale(0.015625)"/>
     </defs>
     <use xlink:href="#DejaVuSans-52"/>
     <use xlink:href="#DejaVuSans-65" x="64.982422"/>
     <use xlink:href="#DejaVuSans-67" x="126.505859"/>
     <use xlink:href="#DejaVuSans-72" x="189.982422"/>
     <use xlink:href="#DejaVuSans-65" x="228.845703"/>
     <use xlink:href="#DejaVuSans-73" x="290.369141"/>
     <use xlink:href="#DejaVuSans-73" x="342.46875"/>
     <use xlink:href="#DejaVuSans-e3" x="394.568359"/>
     <use xlink:href="#DejaVuSans-6f" x="455.847656"/>
     <use xlink:href="#DejaVuSans-3a" x="517.029297"/>
     <use xlink:href="#DejaVuSans-20" x="550.720703"/>
     <use xlink:href="#DejaVuSans-52" x="582.507812"/>
     <use xlink:href="#DejaVuSans-65" x="647.490234"/>
     <use xlink:href="#DejaVuSans-61" x="709.013672"/>
     <use xlink:href="#DejaVuSans-6c" x="770.292969"/>
     <use xlink:href="#DejaVuSans-20" x="798.076172"/>
     <use xlink:href="#DejaVuSans-76" x="829.863281"/>
     <use xlink:href="#DejaVuSans-73" x="889.042969"/>
     <use xlink:href="#DejaVuSans-20" x="941.142578"/>
     <use xlink:href="#DejaVuSans-50" x="972.929688"/>
     <use xlink:href="#DejaVuSans-72" x="1031.482422"/>
     <use xlink:href="#DejaVuSans-65" x="1070.345703"/>
     <use xlink:href="#DejaVuSans-76" x="1131.869141"/>
     <use xlink:href="#DejaVuSans-69" x="1191.048828"/>
     <use xlink:href="#DejaVuSans-73" x="1218.832031"/>
     <use xlink:href="#DejaVuSans-74" x="1270.931641"/>
     <use xlink:href="#DejaVuSans-6f" x="1310.140625"/>
    </g>
   </g>
   <g id="legend_1">
    <g id="patch_7">
     <path d="M 115 379.48 
L 213.284375 379.48 
Q 215.284375 379.48 215.284375 377.48 
L 215.284375 349.12375 
Q 215.284375 347.12375 213.284375 347.12375 
L 115 347.12375 
Q 113 347.12375 113 349.12375 
L 113 377.48 
Q 113 379.48 115 379.48 
z
" style="fill: #ffffff; opacity: 0.8; stroke: #cccccc; stroke-linejoin: miter"/>
    </g>
    <g id="line2d_18">
     <path d="M 117 355.222188 
L 127 355.222188 
L 137 355.222188 
" style="fill: none; stroke: #1f77b4; stroke-width: 1.5; stroke-linecap: square"/>
    </g>
    <g id="text_17">
     <!-- Valores Reais -->
     <g transform="translate(145 358.722188) scale(0.1 -0.1)">
      <defs>
       <path id="DejaVuSans-56" d="M 1831 0 
L 50 4666 
L 709 4666 
L 2188 738 
L 3669 4666 
L 4325 4666 
L 2547 0 
L 1831 0 
z
" transform="scale(0.015625)"/>
      </defs>
      <use xlink:href="#DejaVuSans-56"/>
      <use xlink:href="#DejaVuSans-61" x="60.658203"/>
      <use xlink:href="#DejaVuSans-6c" x="121.9375"/>
      <use xlink:href="#DejaVuSans-6f" x="149.720703"/>
      <use xlink:href="#DejaVuSans-72" x="210.902344"/>
      <use xlink:href="#DejaVuSans-65" x="249.765625"/>
      <use xlink:href="#DejaVuSans-73" x="311.289062"/>
      <use xlink:href="#DejaVuSans-20" x="363.388672"/>
      <use xlink:href="#DejaVuSans-52" x="395.175781"/>
      <use xlink:href="#DejaVuSans-65" x="460.158203"/>
      <use xlink:href="#DejaVuSans-61" x="521.681641"/>
      <use xlink:href="#DejaVuSans-69" x="582.960938"/>
      <use xlink:href="#DejaVuSans-73" x="610.744141"/>
     </g>
    </g>
    <g id="line2d_19">
     <path d="M 117 369.900312 
L 127 369.900312 
L 137 369.900312 
" style="fill: none; stroke: #ff7f0e; stroke-width: 1.5; stroke-linecap: square"/>
    </g>
    <g id="text_18">
     <!-- Previses -->
     <g transform="translate(145 373.400312) scale(0.1 -0.1)">
      <defs>
       <path id="DejaVuSans-f5" d="M 1959 3097 
Q 1497 3097 1228 2736 
Q 959 2375 959 1747 
Q 959 1119 1226 758 
Q 1494 397 1959 397 
Q 2419 397 2687 759 
Q 2956 1122 2956 1747 
Q 2956 2369 2687 2733 
Q 2419 3097 1959 3097 
z
M 1959 3584 
Q 2709 3584 3137 3096 
Q 3566 2609 3566 1747 
Q 3566 888 3137 398 
Q 2709 -91 1959 -91 
Q 1206 -91 779 398 
Q 353 888 353 1747 
Q 353 2609 779 3096 
Q 1206 3584 1959 3584 
z
M 1948 4281 
L 1769 4453 
Q 1701 4516 1649 4545 
Q 1598 4575 1557 4575 
Q 1438 4575 1382 4461 
Q 1326 4347 1319 4091 
L 929 4091 
Q 935 4513 1094 4742 
Q 1254 4972 1538 4972 
Q 1657 4972 1757 4928 
Q 1857 4884 1973 4781 
L 2151 4609 
Q 2219 4547 2271 4517 
Q 2323 4488 2363 4488 
Q 2482 4488 2538 4602 
Q 2594 4716 2601 4972 
L 2991 4972 
Q 2985 4550 2825 4320 
Q 2666 4091 2382 4091 
Q 2263 4091 2163 4134 
Q 2063 4178 1948 4281 
z
" transform="scale(0.015625)"/>
      </defs>
      <use xlink:href="#DejaVuSans-50"/>
      <use xlink:href="#DejaVuSans-72" x="58.552734"/>
      <use xlink:href="#DejaVuSans-65" x="97.416016"/>
      <use xlink:href="#DejaVuSans-76" x="158.939453"/>
      <use xlink:href="#DejaVuSans-69" x="218.119141"/>
      <use xlink:href="#DejaVuSans-73" x="245.902344"/>
      <use xlink:href="#DejaVuSans-f5" x="298.001953"/>
      <use xlink:href="#DejaVuSans-65" x="359.183594"/>
      <use xlink:href="#DejaVuSans-73" x="420.707031"/>
     </g>
    </g>
   </g>
  </g>
 </g>
 <defs>
  <clipPath id="pd03c01b2d4">
   <rect x="108" y="51.84" width="669.6" height="332.64"/>
  </clipPath>
 </defs>
</svg>
