<?xml version="1.0" encoding="utf-8" standalone="no"?>
<!DOCTYPE svg PUBLIC "-//W3C//DTD SVG 1.1//EN"
  "http://www.w3.org/Graphics/SVG/1.1/DTD/svg11.dtd">
<svg xmlns:xlink="http://www.w3.org/1999/xlink" width="864pt" height="432pt" viewBox="0 0 864 432" xmlns="http://www.w3.org/2000/svg" version="1.1">
 <metadata>
  <rdf:RDF xmlns:dc="http://purl.org/dc/elements/1.1/" xmlns:cc="http://creativecommons.org/ns#" xmlns:rdf="http://www.w3.org/1999/02/22-rdf-syntax-ns#">
   <cc:Work>
    <dc:type rdf:resource="http://purl.org/dc/dcmitype/StillImage"/>
    <dc:date>2024-12-07T09:37:59.127543</dc:date>
    <dc:format>image/svg+xml</dc:format>
    <dc:creator>
     <cc:Agent>
      <dc:title>Matplotlib v3.9.2, https://matplotlib.org/</dc:title>
     </cc:Agent>
    </dc:creator>
   </cc:Work>
  </rdf:RDF>
 </metadata>
 <defs>
  <style type="text/css">*{stroke-linejoin: round; stroke-linecap: butt}</style>
 </defs>
 <g id="figure_1">
  <g id="patch_1">
   <path d="M 0 432 
L 864 432 
L 864 0 
L 0 0 
z
" style="fill: #ffffff"/>
  </g>
  <g id="axes_1">
   <g id="patch_2">
    <path d="M 108 384.48 
L 777.6 384.48 
L 777.6 51.84 
L 108 51.84 
z
" style="fill: #ffffff"/>
   </g>
   <g id="matplotlib.axis_1">
    <g id="xtick_1">
     <g id="line2d_1">
      <defs>
       <path id="mf55590f1c9" d="M 0 0 
L 0 3.5 
" style="stroke: #000000; stroke-width: 0.8"/>
      </defs>
      <g>
       <use xlink:href="#mf55590f1c9" x="138.436364" y="384.48" style="stroke: #000000; stroke-width: 0.8"/>
      </g>
     </g>
     <g id="text_1">
      <!-- 0 -->
      <g transform="translate(135.255114 399.078438) scale(0.1 -0.1)">
       <defs>
        <path id="DejaVuSans-30" d="M 2034 4250 
Q 1547 4250 1301 3770 
Q 1056 3291 1056 2328 
Q 1056 1369 1301 889 
Q 1547 409 2034 409 
Q 2525 409 2770 889 
Q 3016 1369 3016 2328 
Q 3016 3291 2770 3770 
Q 2525 4250 2034 4250 
z
M 2034 4750 
Q 2819 4750 3233 4129 
Q 3647 3509 3647 2328 
Q 3647 1150 3233 529 
Q 2819 -91 2034 -91 
Q 1250 -91 836 529 
Q 422 1150 422 2328 
Q 422 3509 836 4129 
Q 1250 4750 2034 4750 
z
" transform="scale(0.015625)"/>
       </defs>
       <use xlink:href="#DejaVuSans-30"/>
      </g>
     </g>
    </g>
    <g id="xtick_2">
     <g id="line2d_2">
      <g>
       <use xlink:href="#mf55590f1c9" x="231.513928" y="384.48" style="stroke: #000000; stroke-width: 0.8"/>
      </g>
     </g>
     <g id="text_2">
      <!-- 200 -->
      <g transform="translate(221.970178 399.078438) scale(0.1 -0.1)">
       <defs>
        <path id="DejaVuSans-32" d="M 1228 531 
L 3431 531 
L 3431 0 
L 469 0 
L 469 531 
Q 828 903 1448 1529 
Q 2069 2156 2228 2338 
Q 2531 2678 2651 2914 
Q 2772 3150 2772 3378 
Q 2772 3750 2511 3984 
Q 2250 4219 1831 4219 
Q 1534 4219 1204 4116 
Q 875 4013 500 3803 
L 500 4441 
Q 881 4594 1212 4672 
Q 1544 4750 1819 4750 
Q 2544 4750 2975 4387 
Q 3406 4025 3406 3419 
Q 3406 3131 3298 2873 
Q 3191 2616 2906 2266 
Q 2828 2175 2409 1742 
Q 1991 1309 1228 531 
z
" transform="scale(0.015625)"/>
       </defs>
       <use xlink:href="#DejaVuSans-32"/>
       <use xlink:href="#DejaVuSans-30" x="63.623047"/>
       <use xlink:href="#DejaVuSans-30" x="127.246094"/>
      </g>
     </g>
    </g>
    <g id="xtick_3">
     <g id="line2d_3">
      <g>
       <use xlink:href="#mf55590f1c9" x="324.591493" y="384.48" style="stroke: #000000; stroke-width: 0.8"/>
      </g>
     </g>
     <g id="text_3">
      <!-- 400 -->
      <g transform="translate(315.047743 399.078438) scale(0.1 -0.1)">
       <defs>
        <path id="DejaVuSans-34" d="M 2419 4116 
L 825 1625 
L 2419 1625 
L 2419 4116 
z
M 2253 4666 
L 3047 4666 
L 3047 1625 
L 3713 1625 
L 3713 1100 
L 3047 1100 
L 3047 0 
L 2419 0 
L 2419 1100 
L 313 1100 
L 313 1709 
L 2253 4666 
z
" transform="scale(0.015625)"/>
       </defs>
       <use xlink:href="#DejaVuSans-34"/>
       <use xlink:href="#DejaVuSans-30" x="63.623047"/>
       <use xlink:href="#DejaVuSans-30" x="127.246094"/>
      </g>
     </g>
    </g>
    <g id="xtick_4">
     <g id="line2d_4">
      <g>
       <use xlink:href="#mf55590f1c9" x="417.669058" y="384.48" style="stroke: #000000; stroke-width: 0.8"/>
      </g>
     </g>
     <g id="text_4">
      <!-- 600 -->
      <g transform="translate(408.125308 399.078438) scale(0.1 -0.1)">
       <defs>
        <path id="DejaVuSans-36" d="M 2113 2584 
Q 1688 2584 1439 2293 
Q 1191 2003 1191 1497 
Q 1191 994 1439 701 
Q 1688 409 2113 409 
Q 2538 409 2786 701 
Q 3034 994 3034 1497 
Q 3034 2003 2786 2293 
Q 2538 2584 2113 2584 
z
M 3366 4563 
L 3366 3988 
Q 3128 4100 2886 4159 
Q 2644 4219 2406 4219 
Q 1781 4219 1451 3797 
Q 1122 3375 1075 2522 
Q 1259 2794 1537 2939 
Q 1816 3084 2150 3084 
Q 2853 3084 3261 2657 
Q 3669 2231 3669 1497 
Q 3669 778 3244 343 
Q 2819 -91 2113 -91 
Q 1303 -91 875 529 
Q 447 1150 447 2328 
Q 447 3434 972 4092 
Q 1497 4750 2381 4750 
Q 2619 4750 2861 4703 
Q 3103 4656 3366 4563 
z
" transform="scale(0.015625)"/>
       </defs>
       <use xlink:href="#DejaVuSans-36"/>
       <use xlink:href="#DejaVuSans-30" x="63.623047"/>
       <use xlink:href="#DejaVuSans-30" x="127.246094"/>
      </g>
     </g>
    </g>
    <g id="xtick_5">
     <g id="line2d_5">
      <g>
       <use xlink:href="#mf55590f1c9" x="510.746622" y="384.48" style="stroke: #000000; stroke-width: 0.8"/>
      </g>
     </g>
     <g id="text_5">
      <!-- 800 -->
      <g transform="translate(501.202872 399.078438) scale(0.1 -0.1)">
       <defs>
        <path id="DejaVuSans-38" d="M 2034 2216 
Q 1584 2216 1326 1975 
Q 1069 1734 1069 1313 
Q 1069 891 1326 650 
Q 1584 409 2034 409 
Q 2484 409 2743 651 
Q 3003 894 3003 1313 
Q 3003 1734 2745 1975 
Q 2488 2216 2034 2216 
z
M 1403 2484 
Q 997 2584 770 2862 
Q 544 3141 544 3541 
Q 544 4100 942 4425 
Q 1341 4750 2034 4750 
Q 2731 4750 3128 4425 
Q 3525 4100 3525 3541 
Q 3525 3141 3298 2862 
Q 3072 2584 2669 2484 
Q 3125 2378 3379 2068 
Q 3634 1759 3634 1313 
Q 3634 634 3220 271 
Q 2806 -91 2034 -91 
Q 1263 -91 848 271 
Q 434 634 434 1313 
Q 434 1759 690 2068 
Q 947 2378 1403 2484 
z
M 1172 3481 
Q 1172 3119 1398 2916 
Q 1625 2713 2034 2713 
Q 2441 2713 2670 2916 
Q 2900 3119 2900 3481 
Q 2900 3844 2670 4047 
Q 2441 4250 2034 4250 
Q 1625 4250 1398 4047 
Q 1172 3844 1172 3481 
z
" transform="scale(0.015625)"/>
       </defs>
       <use xlink:href="#DejaVuSans-38"/>
       <use xlink:href="#DejaVuSans-30" x="63.623047"/>
       <use xlink:href="#DejaVuSans-30" x="127.246094"/>
      </g>
     </g>
    </g>
    <g id="xtick_6">
     <g id="line2d_6">
      <g>
       <use xlink:href="#mf55590f1c9" x="603.824187" y="384.48" style="stroke: #000000; stroke-width: 0.8"/>
      </g>
     </g>
     <g id="text_6">
      <!-- 1000 -->
      <g transform="translate(591.099187 399.078438) scale(0.1 -0.1)">
       <defs>
        <path id="DejaVuSans-31" d="M 794 531 
L 1825 531 
L 1825 4091 
L 703 3866 
L 703 4441 
L 1819 4666 
L 2450 4666 
L 2450 531 
L 3481 531 
L 3481 0 
L 794 0 
L 794 531 
z
" transform="scale(0.015625)"/>
       </defs>
       <use xlink:href="#DejaVuSans-31"/>
       <use xlink:href="#DejaVuSans-30" x="63.623047"/>
       <use xlink:href="#DejaVuSans-30" x="127.246094"/>
       <use xlink:href="#DejaVuSans-30" x="190.869141"/>
      </g>
     </g>
    </g>
    <g id="xtick_7">
     <g id="line2d_7">
      <g>
       <use xlink:href="#mf55590f1c9" x="696.901751" y="384.48" style="stroke: #000000; stroke-width: 0.8"/>
      </g>
     </g>
     <g id="text_7">
      <!-- 1200 -->
      <g transform="translate(684.176751 399.078438) scale(0.1 -0.1)">
       <use xlink:href="#DejaVuSans-31"/>
       <use xlink:href="#DejaVuSans-32" x="63.623047"/>
       <use xlink:href="#DejaVuSans-30" x="127.246094"/>
       <use xlink:href="#DejaVuSans-30" x="190.869141"/>
      </g>
     </g>
    </g>
   </g>
   <g id="matplotlib.axis_2">
    <g id="ytick_1">
     <g id="line2d_8">
      <defs>
       <path id="m4aa9e3df5a" d="M 0 0 
L -3.5 0 
" style="stroke: #000000; stroke-width: 0.8"/>
      </defs>
      <g>
       <use xlink:href="#m4aa9e3df5a" x="108" y="349.2" style="stroke: #000000; stroke-width: 0.8"/>
      </g>
     </g>
     <g id="text_8">
      <!-- 2 -->
      <g transform="translate(94.6375 352.999219) scale(0.1 -0.1)">
       <use xlink:href="#DejaVuSans-32"/>
      </g>
     </g>
    </g>
    <g id="ytick_2">
     <g id="line2d_9">
      <g>
       <use xlink:href="#m4aa9e3df5a" x="108" y="308.88" style="stroke: #000000; stroke-width: 0.8"/>
      </g>
     </g>
     <g id="text_9">
      <!-- 4 -->
      <g transform="translate(94.6375 312.679219) scale(0.1 -0.1)">
       <use xlink:href="#DejaVuSans-34"/>
      </g>
     </g>
    </g>
    <g id="ytick_3">
     <g id="line2d_10">
      <g>
       <use xlink:href="#m4aa9e3df5a" x="108" y="268.56" style="stroke: #000000; stroke-width: 0.8"/>
      </g>
     </g>
     <g id="text_10">
      <!-- 6 -->
      <g transform="translate(94.6375 272.359219) scale(0.1 -0.1)">
       <use xlink:href="#DejaVuSans-36"/>
      </g>
     </g>
    </g>
    <g id="ytick_4">
     <g id="line2d_11">
      <g>
       <use xlink:href="#m4aa9e3df5a" x="108" y="228.24" style="stroke: #000000; stroke-width: 0.8"/>
      </g>
     </g>
     <g id="text_11">
      <!-- 8 -->
      <g transform="translate(94.6375 232.039219) scale(0.1 -0.1)">
       <use xlink:href="#DejaVuSans-38"/>
      </g>
     </g>
    </g>
    <g id="ytick_5">
     <g id="line2d_12">
      <g>
       <use xlink:href="#m4aa9e3df5a" x="108" y="187.92" style="stroke: #000000; stroke-width: 0.8"/>
      </g>
     </g>
     <g id="text_12">
      <!-- 10 -->
      <g transform="translate(88.275 191.719219) scale(0.1 -0.1)">
       <use xlink:href="#DejaVuSans-31"/>
       <use xlink:href="#DejaVuSans-30" x="63.623047"/>
      </g>
     </g>
    </g>
    <g id="ytick_6">
     <g id="line2d_13">
      <g>
       <use xlink:href="#m4aa9e3df5a" x="108" y="147.6" style="stroke: #000000; stroke-width: 0.8"/>
      </g>
     </g>
     <g id="text_13">
      <!-- 12 -->
      <g transform="translate(88.275 151.399219) scale(0.1 -0.1)">
       <use xlink:href="#DejaVuSans-31"/>
       <use xlink:href="#DejaVuSans-32" x="63.623047"/>
      </g>
     </g>
    </g>
    <g id="ytick_7">
     <g id="line2d_14">
      <g>
       <use xlink:href="#m4aa9e3df5a" x="108" y="107.28" style="stroke: #000000; stroke-width: 0.8"/>
      </g>
     </g>
     <g id="text_14">
      <!-- 14 -->
      <g transform="translate(88.275 111.079219) scale(0.1 -0.1)">
       <use xlink:href="#DejaVuSans-31"/>
       <use xlink:href="#DejaVuSans-34" x="63.623047"/>
      </g>
     </g>
    </g>
    <g id="ytick_8">
     <g id="line2d_15">
      <g>
       <use xlink:href="#m4aa9e3df5a" x="108" y="66.96" style="stroke: #000000; stroke-width: 0.8"/>
      </g>
     </g>
     <g id="text_15">
      <!-- 16 -->
      <g transform="translate(88.275 70.759219) scale(0.1 -0.1)">
       <use xlink:href="#DejaVuSans-31"/>
       <use xlink:href="#DejaVuSans-36" x="63.623047"/>
      </g>
     </g>
    </g>
   </g>
   <g id="line2d_16">
    <path d="M 138.436364 147.6 
L 139.367139 308.88 
L 139.832527 87.12 
L 140.297915 288.72 
L 140.763303 329.04 
L 141.228691 147.6 
L 141.694078 228.24 
L 142.159466 187.92 
L 142.624854 187.92 
L 143.090242 288.72 
L 143.55563 268.56 
L 144.021018 228.24 
L 144.486405 87.12 
L 144.951793 268.56 
L 145.417181 288.72 
L 145.882569 329.04 
L 146.347957 228.24 
L 146.813344 187.92 
L 147.278732 288.72 
L 147.74412 87.12 
L 148.209508 288.72 
L 148.674896 329.04 
L 149.140284 228.24 
L 149.605671 288.72 
L 150.071059 268.56 
L 150.536447 87.12 
L 151.001835 288.72 
L 151.467223 268.56 
L 151.932611 308.88 
L 152.397998 187.92 
L 152.863386 228.24 
L 153.328774 329.04 
L 153.794162 288.72 
L 154.25955 208.08 
L 154.724937 288.72 
L 155.190325 268.56 
L 155.655713 288.72 
L 156.121101 329.04 
L 156.586489 288.72 
L 157.517264 288.72 
L 157.982652 228.24 
L 158.44804 147.6 
L 158.913428 268.56 
L 159.378816 87.12 
L 159.844204 329.04 
L 160.309591 288.72 
L 160.774979 187.92 
L 161.240367 187.92 
L 161.705755 228.24 
L 162.171143 66.96 
L 162.63653 147.6 
L 163.101918 288.72 
L 163.567306 268.56 
L 164.032694 288.72 
L 164.498082 288.72 
L 164.96347 228.24 
L 165.428857 147.6 
L 165.894245 288.72 
L 166.359633 228.24 
L 166.825021 329.04 
L 167.290409 187.92 
L 167.755796 268.56 
L 168.221184 288.72 
L 168.686572 187.92 
L 169.15196 187.92 
L 169.617348 147.6 
L 170.082736 187.92 
L 170.548123 187.92 
L 171.013511 268.56 
L 171.478899 288.72 
L 172.409675 288.72 
L 172.875063 228.24 
L 173.34045 288.72 
L 173.805838 127.44 
L 174.271226 288.72 
L 174.736614 87.12 
L 175.202002 228.24 
L 175.667389 288.72 
L 176.598165 288.72 
L 177.063553 187.92 
L 177.528941 228.24 
L 177.994329 288.72 
L 178.459716 308.88 
L 178.925104 147.6 
L 179.390492 147.6 
L 179.85588 268.56 
L 180.321268 187.92 
L 180.786656 147.6 
L 181.252043 187.92 
L 181.717431 147.6 
L 182.182819 87.12 
L 182.648207 268.56 
L 183.113595 248.4 
L 183.578982 187.92 
L 184.04437 187.92 
L 184.975146 268.56 
L 185.440534 288.72 
L 185.905922 288.72 
L 186.371309 187.92 
L 186.836697 288.72 
L 187.302085 288.72 
L 187.767473 308.88 
L 188.232861 268.56 
L 188.698249 288.72 
L 189.163636 87.12 
L 189.629024 268.56 
L 190.094412 167.76 
L 190.5598 268.56 
L 191.025188 268.56 
L 191.490575 228.24 
L 191.955963 288.72 
L 192.421351 268.56 
L 192.886739 147.6 
L 193.352127 228.24 
L 193.817515 187.92 
L 194.282902 329.04 
L 194.74829 268.56 
L 195.213678 147.6 
L 195.679066 268.56 
L 196.144454 87.12 
L 196.609842 308.88 
L 197.075229 187.92 
L 197.540617 268.56 
L 198.006005 329.04 
L 198.471393 268.56 
L 198.936781 288.72 
L 199.402168 87.12 
L 199.867556 228.24 
L 200.332944 329.04 
L 200.798332 288.72 
L 201.26372 268.56 
L 201.729108 187.92 
L 202.194495 228.24 
L 202.659883 147.6 
L 203.125271 87.12 
L 203.590659 288.72 
L 204.056047 187.92 
L 204.521435 187.92 
L 204.986822 147.6 
L 205.45221 87.12 
L 205.917598 187.92 
L 206.382986 187.92 
L 206.848374 288.72 
L 207.313761 268.56 
L 207.779149 228.24 
L 208.244537 288.72 
L 208.709925 187.92 
L 209.175313 288.72 
L 209.640701 187.92 
L 210.106088 288.72 
L 210.571476 288.72 
L 211.036864 167.76 
L 211.502252 187.92 
L 211.96764 288.72 
L 212.433028 329.04 
L 212.898415 288.72 
L 213.363803 228.24 
L 213.829191 228.24 
L 214.294579 329.04 
L 214.759967 288.72 
L 215.225354 87.12 
L 215.690742 329.04 
L 216.15613 288.72 
L 216.621518 228.24 
L 217.086906 187.92 
L 218.017681 268.56 
L 218.483069 147.6 
L 218.948457 147.6 
L 219.413845 187.92 
L 219.879233 187.92 
L 220.344621 147.6 
L 220.810008 288.72 
L 221.275396 268.56 
L 221.740784 147.6 
L 222.206172 187.92 
L 222.67156 167.76 
L 223.136947 228.24 
L 223.602335 228.24 
L 224.067723 268.56 
L 224.533111 248.4 
L 224.998499 288.72 
L 225.463887 127.44 
L 225.929274 268.56 
L 226.394662 187.92 
L 226.86005 288.72 
L 227.325438 187.92 
L 227.790826 288.72 
L 228.256214 329.04 
L 228.721601 187.92 
L 229.186989 187.92 
L 229.652377 127.44 
L 230.117765 147.6 
L 230.583153 228.24 
L 231.04854 288.72 
L 231.513928 228.24 
L 231.979316 107.28 
L 232.444704 288.72 
L 232.910092 187.92 
L 233.37548 187.92 
L 234.306255 308.88 
L 234.771643 329.04 
L 235.237031 288.72 
L 235.702419 187.92 
L 236.167807 288.72 
L 236.633194 308.88 
L 237.098582 187.92 
L 237.56397 228.24 
L 238.029358 288.72 
L 238.494746 187.92 
L 238.960133 127.44 
L 239.425521 228.24 
L 239.890909 288.72 
L 240.356297 228.24 
L 240.821685 288.72 
L 241.287073 228.24 
L 241.75246 187.92 
L 242.217848 228.24 
L 242.683236 228.24 
L 243.148624 187.92 
L 243.614012 228.24 
L 244.079399 288.72 
L 244.544787 288.72 
L 245.010175 268.56 
L 245.475563 187.92 
L 245.940951 268.56 
L 246.406339 187.92 
L 246.871726 187.92 
L 247.337114 268.56 
L 247.802502 288.72 
L 248.26789 248.4 
L 249.198666 288.72 
L 249.664053 268.56 
L 250.129441 288.72 
L 250.594829 107.28 
L 251.060217 228.24 
L 251.525605 187.92 
L 251.990992 288.72 
L 252.45638 228.24 
L 253.387156 147.6 
L 253.852544 147.6 
L 254.317932 187.92 
L 254.783319 288.72 
L 255.248707 147.6 
L 255.714095 329.04 
L 256.179483 87.12 
L 256.644871 87.12 
L 257.110259 208.08 
L 257.575646 288.72 
L 258.041034 147.6 
L 258.506422 187.92 
L 258.97181 288.72 
L 259.437198 329.04 
L 259.902585 288.72 
L 260.367973 268.56 
L 260.833361 87.12 
L 261.298749 288.72 
L 261.764137 288.72 
L 262.229525 208.08 
L 262.694912 288.72 
L 263.1603 288.72 
L 264.091076 248.4 
L 264.556464 147.6 
L 265.021852 288.72 
L 265.487239 187.92 
L 265.952627 288.72 
L 266.418015 288.72 
L 266.883403 268.56 
L 267.348791 268.56 
L 267.814178 288.72 
L 268.279566 228.24 
L 268.744954 147.6 
L 269.210342 228.24 
L 269.67573 187.92 
L 270.141118 288.72 
L 270.606505 187.92 
L 271.537281 268.56 
L 272.002669 187.92 
L 272.468057 228.24 
L 272.933445 288.72 
L 273.398832 329.04 
L 273.86422 288.72 
L 274.329608 288.72 
L 274.794996 228.24 
L 275.260384 228.24 
L 275.725771 187.92 
L 276.191159 208.08 
L 276.656547 147.6 
L 277.121935 288.72 
L 277.587323 187.92 
L 278.052711 147.6 
L 278.518098 147.6 
L 278.983486 268.56 
L 279.448874 329.04 
L 279.914262 288.72 
L 280.37965 288.72 
L 280.845038 268.56 
L 281.310425 288.72 
L 281.775813 288.72 
L 282.241201 187.92 
L 282.706589 228.24 
L 283.171977 187.92 
L 283.637364 66.96 
L 284.102752 268.56 
L 284.56814 288.72 
L 285.033528 187.92 
L 285.498916 187.92 
L 285.964304 268.56 
L 286.429691 268.56 
L 286.895079 228.24 
L 287.360467 228.24 
L 287.825855 167.76 
L 288.291243 147.6 
L 288.756631 187.92 
L 289.222018 288.72 
L 289.687406 288.72 
L 290.152794 228.24 
L 290.618182 147.6 
L 291.08357 228.24 
L 291.548957 187.92 
L 292.014345 228.24 
L 292.479733 187.92 
L 292.945121 268.56 
L 293.410509 187.92 
L 293.875897 248.4 
L 294.341284 268.56 
L 294.806672 308.88 
L 295.27206 187.92 
L 295.737448 329.04 
L 296.202836 228.24 
L 296.668224 87.12 
L 297.133611 268.56 
L 297.598999 127.44 
L 298.529775 349.2 
L 298.995163 288.72 
L 299.46055 87.12 
L 299.925938 268.56 
L 300.391326 288.72 
L 300.856714 147.6 
L 301.322102 288.72 
L 301.78749 87.12 
L 302.252877 268.56 
L 302.718265 248.4 
L 303.183653 329.04 
L 303.649041 288.72 
L 304.114429 147.6 
L 304.579817 228.24 
L 305.045204 87.12 
L 305.510592 127.44 
L 305.97598 187.92 
L 306.441368 228.24 
L 306.906756 228.24 
L 307.372143 288.72 
L 307.837531 147.6 
L 308.302919 288.72 
L 308.768307 228.24 
L 309.233695 187.92 
L 309.699083 349.2 
L 310.16447 127.44 
L 310.629858 268.56 
L 311.095246 187.92 
L 311.560634 167.76 
L 312.49141 288.72 
L 312.956797 228.24 
L 313.422185 228.24 
L 313.887573 288.72 
L 314.352961 87.12 
L 314.818349 288.72 
L 315.283736 288.72 
L 315.749124 228.24 
L 316.214512 228.24 
L 316.6799 329.04 
L 317.145288 288.72 
L 317.610676 147.6 
L 318.541451 228.24 
L 319.006839 329.04 
L 319.472227 228.24 
L 319.937615 288.72 
L 320.403003 147.6 
L 320.86839 288.72 
L 321.333778 228.24 
L 321.799166 147.6 
L 322.264554 147.6 
L 322.729942 329.04 
L 323.195329 268.56 
L 323.660717 228.24 
L 324.126105 228.24 
L 324.591493 288.72 
L 325.522269 288.72 
L 325.987656 228.24 
L 326.453044 147.6 
L 326.918432 288.72 
L 327.38382 228.24 
L 327.849208 288.72 
L 328.314595 87.12 
L 328.779983 147.6 
L 329.245371 288.72 
L 329.710759 228.24 
L 330.176147 187.92 
L 330.641535 268.56 
L 331.106922 208.08 
L 331.57231 268.56 
L 332.037698 288.72 
L 332.503086 147.6 
L 333.433862 228.24 
L 333.899249 187.92 
L 334.364637 187.92 
L 334.830025 288.72 
L 335.295413 87.12 
L 335.760801 147.6 
L 336.691576 147.6 
L 337.156964 228.24 
L 337.622352 187.92 
L 338.08774 288.72 
L 338.553128 308.88 
L 339.018515 288.72 
L 339.483903 248.4 
L 340.414679 329.04 
L 340.880067 187.92 
L 341.345455 228.24 
L 341.810842 288.72 
L 342.27623 288.72 
L 342.741618 268.56 
L 343.672394 187.92 
L 344.137781 288.72 
L 344.603169 147.6 
L 345.068557 228.24 
L 345.533945 208.08 
L 345.999333 87.12 
L 346.464721 187.92 
L 346.930108 228.24 
L 347.395496 288.72 
L 347.860884 87.12 
L 348.326272 288.72 
L 348.79166 329.04 
L 349.257048 187.92 
L 349.722435 167.76 
L 350.187823 187.92 
L 350.653211 147.6 
L 351.118599 187.92 
L 351.583987 288.72 
L 352.049374 329.04 
L 352.514762 228.24 
L 352.98015 288.72 
L 353.445538 87.12 
L 354.376314 288.72 
L 354.841701 228.24 
L 355.307089 288.72 
L 355.772477 187.92 
L 356.237865 187.92 
L 356.703253 329.04 
L 357.168641 208.08 
L 357.634028 248.4 
L 358.099416 187.92 
L 358.564804 147.6 
L 359.030192 187.92 
L 359.960967 187.92 
L 360.426355 228.24 
L 360.891743 288.72 
L 361.357131 187.92 
L 361.822519 228.24 
L 362.287907 228.24 
L 362.753294 329.04 
L 363.218682 288.72 
L 364.149458 288.72 
L 364.614846 187.92 
L 365.080234 268.56 
L 366.011009 187.92 
L 366.941785 268.56 
L 367.407173 329.04 
L 367.87256 369.36 
L 368.803336 288.72 
L 369.268724 329.04 
L 369.734112 187.92 
L 370.1995 228.24 
L 370.664887 167.76 
L 371.595663 288.72 
L 372.061051 147.6 
L 372.526439 187.92 
L 372.991827 288.72 
L 373.457214 228.24 
L 373.922602 187.92 
L 374.38799 187.92 
L 375.318766 268.56 
L 375.784153 268.56 
L 376.249541 187.92 
L 376.714929 288.72 
L 377.180317 288.72 
L 377.645705 268.56 
L 378.111093 187.92 
L 378.57648 329.04 
L 379.041868 147.6 
L 379.507256 268.56 
L 379.972644 288.72 
L 380.438032 329.04 
L 380.90342 329.04 
L 381.368807 187.92 
L 381.834195 187.92 
L 382.299583 288.72 
L 382.764971 228.24 
L 383.230359 228.24 
L 383.695746 147.6 
L 384.161134 187.92 
L 384.626522 288.72 
L 385.09191 187.92 
L 385.557298 308.88 
L 386.022686 208.08 
L 386.488073 268.56 
L 387.418849 308.88 
L 387.884237 187.92 
L 388.349625 268.56 
L 388.815013 208.08 
L 389.2804 228.24 
L 389.745788 329.04 
L 390.211176 329.04 
L 390.676564 147.6 
L 391.141952 228.24 
L 391.607339 187.92 
L 392.072727 268.56 
L 392.538115 288.72 
L 393.934279 288.72 
L 394.399666 127.44 
L 394.865054 288.72 
L 395.330442 187.92 
L 395.79583 288.72 
L 396.261218 288.72 
L 396.726606 268.56 
L 397.191993 288.72 
L 397.657381 228.24 
L 398.122769 228.24 
L 398.588157 187.92 
L 399.053545 288.72 
L 399.518932 228.24 
L 399.98432 228.24 
L 400.449708 288.72 
L 400.915096 288.72 
L 401.380484 187.92 
L 401.845872 228.24 
L 402.311259 147.6 
L 402.776647 288.72 
L 403.242035 308.88 
L 403.707423 167.76 
L 404.172811 288.72 
L 404.638198 147.6 
L 405.103586 268.56 
L 405.568974 87.12 
L 406.034362 147.6 
L 406.49975 288.72 
L 406.965138 329.04 
L 407.430525 228.24 
L 407.895913 268.56 
L 408.361301 187.92 
L 408.826689 187.92 
L 409.292077 208.08 
L 409.757465 268.56 
L 410.222852 268.56 
L 410.68824 288.72 
L 411.153628 329.04 
L 411.619016 187.92 
L 412.084404 87.12 
L 412.549791 147.6 
L 413.015179 167.76 
L 413.480567 147.6 
L 413.945955 288.72 
L 414.411343 268.56 
L 414.876731 187.92 
L 415.342118 228.24 
L 415.807506 187.92 
L 416.272894 288.72 
L 416.738282 228.24 
L 417.20367 268.56 
L 417.669058 87.12 
L 418.134445 288.72 
L 418.599833 187.92 
L 419.065221 308.88 
L 419.530609 147.6 
L 419.995997 288.72 
L 420.461384 329.04 
L 420.926772 187.92 
L 421.39216 228.24 
L 421.857548 288.72 
L 422.322936 268.56 
L 422.788324 288.72 
L 423.253711 228.24 
L 423.719099 187.92 
L 424.184487 87.12 
L 424.649875 147.6 
L 425.115263 268.56 
L 425.580651 228.24 
L 426.046038 288.72 
L 426.511426 187.92 
L 426.976814 187.92 
L 427.90759 268.56 
L 428.372977 87.12 
L 428.838365 288.72 
L 429.303753 147.6 
L 429.769141 187.92 
L 430.234529 349.2 
L 431.165304 187.92 
L 431.630692 268.56 
L 432.09608 228.24 
L 432.561468 288.72 
L 433.026856 228.24 
L 433.492244 288.72 
L 433.957631 187.92 
L 434.423019 228.24 
L 435.819183 228.24 
L 436.28457 187.92 
L 437.215346 187.92 
L 437.680734 288.72 
L 438.146122 288.72 
L 438.61151 329.04 
L 439.076897 187.92 
L 439.542285 288.72 
L 440.007673 228.24 
L 440.473061 147.6 
L 440.938449 228.24 
L 441.403837 228.24 
L 441.869224 187.92 
L 442.334612 228.24 
L 443.265388 268.56 
L 443.730776 187.92 
L 444.196163 288.72 
L 444.661551 268.56 
L 445.126939 228.24 
L 445.592327 329.04 
L 446.057715 288.72 
L 446.98849 329.04 
L 447.453878 187.92 
L 447.919266 329.04 
L 448.384654 248.4 
L 448.850042 329.04 
L 449.31543 228.24 
L 449.780817 228.24 
L 450.246205 187.92 
L 450.711593 208.08 
L 451.176981 268.56 
L 451.642369 147.6 
L 452.107756 187.92 
L 452.573144 187.92 
L 453.038532 288.72 
L 453.50392 228.24 
L 453.969308 288.72 
L 454.434696 187.92 
L 454.900083 288.72 
L 455.365471 187.92 
L 455.830859 288.72 
L 456.296247 288.72 
L 456.761635 228.24 
L 457.227023 288.72 
L 457.69241 268.56 
L 458.157798 187.92 
L 458.623186 147.6 
L 459.088574 288.72 
L 459.553962 187.92 
L 460.019349 329.04 
L 460.950125 147.6 
L 461.415513 147.6 
L 461.880901 208.08 
L 462.346289 167.76 
L 462.811676 87.12 
L 463.277064 187.92 
L 463.742452 187.92 
L 464.20784 268.56 
L 464.673228 208.08 
L 465.138616 187.92 
L 465.604003 187.92 
L 466.069391 228.24 
L 466.534779 228.24 
L 467.000167 268.56 
L 467.930942 268.56 
L 468.39633 147.6 
L 468.861718 228.24 
L 469.327106 147.6 
L 469.792494 187.92 
L 470.257882 187.92 
L 470.723269 87.12 
L 471.188657 147.6 
L 471.654045 268.56 
L 472.119433 288.72 
L 472.584821 268.56 
L 473.050209 187.92 
L 473.515596 228.24 
L 473.980984 127.44 
L 474.446372 228.24 
L 474.91176 288.72 
L 475.377148 127.44 
L 475.842535 288.72 
L 476.307923 66.96 
L 476.773311 288.72 
L 477.238699 268.56 
L 478.169475 308.88 
L 478.634862 87.12 
L 479.10025 228.24 
L 479.565638 288.72 
L 480.031026 228.24 
L 480.496414 147.6 
L 480.961802 187.92 
L 481.427189 147.6 
L 481.892577 147.6 
L 482.357965 228.24 
L 482.823353 329.04 
L 483.288741 288.72 
L 483.754128 228.24 
L 484.219516 288.72 
L 484.684904 187.92 
L 485.150292 147.6 
L 486.546455 268.56 
L 487.011843 147.6 
L 487.477231 288.72 
L 487.942619 228.24 
L 488.408007 228.24 
L 488.873394 288.72 
L 489.338782 288.72 
L 489.80417 187.92 
L 490.269558 288.72 
L 490.734946 187.92 
L 491.200334 288.72 
L 492.131109 288.72 
L 492.596497 228.24 
L 493.061885 147.6 
L 493.527273 187.92 
L 493.992661 288.72 
L 494.458048 329.04 
L 494.923436 288.72 
L 495.388824 329.04 
L 495.854212 147.6 
L 496.3196 288.72 
L 496.784987 268.56 
L 497.715763 147.6 
L 498.181151 187.92 
L 498.646539 288.72 
L 499.111927 308.88 
L 499.577314 288.72 
L 500.042702 147.6 
L 500.50809 228.24 
L 500.973478 288.72 
L 501.904254 288.72 
L 502.369641 329.04 
L 502.835029 329.04 
L 503.300417 268.56 
L 503.765805 87.12 
L 504.231193 187.92 
L 504.69658 228.24 
L 505.161968 228.24 
L 505.627356 349.2 
L 506.092744 87.12 
L 506.558132 147.6 
L 507.02352 268.56 
L 507.488907 147.6 
L 507.954295 268.56 
L 508.419683 268.56 
L 508.885071 127.44 
L 509.815847 288.72 
L 510.281234 308.88 
L 510.746622 228.24 
L 511.21201 268.56 
L 511.677398 268.56 
L 512.142786 228.24 
L 512.608173 288.72 
L 513.073561 288.72 
L 513.538949 187.92 
L 514.004337 329.04 
L 514.469725 228.24 
L 514.935113 288.72 
L 515.4005 187.92 
L 515.865888 187.92 
L 516.331276 228.24 
L 516.796664 187.92 
L 517.262052 288.72 
L 517.72744 87.12 
L 518.192827 268.56 
L 518.658215 187.92 
L 519.123603 228.24 
L 519.588991 187.92 
L 520.054379 308.88 
L 520.519766 87.12 
L 520.985154 228.24 
L 521.450542 288.72 
L 521.91593 288.72 
L 522.381318 228.24 
L 522.846706 268.56 
L 523.312093 288.72 
L 523.777481 147.6 
L 524.242869 147.6 
L 524.708257 288.72 
L 525.173645 268.56 
L 525.639033 288.72 
L 526.10442 329.04 
L 527.035196 147.6 
L 527.500584 187.92 
L 527.965972 268.56 
L 528.431359 147.6 
L 528.896747 187.92 
L 529.362135 288.72 
L 529.827523 187.92 
L 530.292911 187.92 
L 530.758299 147.6 
L 531.223686 288.72 
L 531.689074 187.92 
L 532.154462 228.24 
L 532.61985 288.72 
L 533.085238 187.92 
L 533.550626 288.72 
L 534.016013 329.04 
L 534.946789 147.6 
L 535.412177 288.72 
L 535.877565 268.56 
L 536.342952 288.72 
L 536.80834 288.72 
L 537.273728 147.6 
L 537.739116 187.92 
L 538.204504 288.72 
L 538.669892 288.72 
L 539.135279 369.36 
L 539.600667 228.24 
L 540.066055 268.56 
L 540.531443 268.56 
L 540.996831 147.6 
L 541.462219 228.24 
L 541.927606 228.24 
L 542.392994 288.72 
L 542.858382 187.92 
L 543.32377 147.6 
L 543.789158 268.56 
L 544.254545 288.72 
L 544.719933 147.6 
L 545.185321 288.72 
L 545.650709 288.72 
L 546.116097 87.12 
L 546.581485 228.24 
L 547.046872 228.24 
L 547.977648 147.6 
L 548.443036 329.04 
L 548.908424 147.6 
L 549.373812 228.24 
L 549.839199 147.6 
L 550.304587 288.72 
L 550.769975 187.92 
L 551.235363 288.72 
L 551.700751 187.92 
L 552.631526 268.56 
L 553.562302 308.88 
L 554.493078 228.24 
L 554.958465 147.6 
L 555.423853 308.88 
L 555.889241 248.4 
L 556.820017 288.72 
L 557.285405 147.6 
L 557.750792 268.56 
L 558.21618 288.72 
L 558.681568 288.72 
L 559.146956 228.24 
L 559.612344 329.04 
L 560.077731 187.92 
L 560.543119 288.72 
L 561.008507 288.72 
L 561.473895 147.6 
L 561.939283 288.72 
L 562.404671 187.92 
L 562.870058 147.6 
L 563.335446 228.24 
L 563.800834 228.24 
L 564.266222 268.56 
L 564.73161 288.72 
L 565.196997 187.92 
L 565.662385 288.72 
L 566.127773 87.12 
L 566.593161 288.72 
L 567.523937 288.72 
L 567.989324 228.24 
L 568.454712 228.24 
L 568.9201 87.12 
L 569.385488 87.12 
L 569.850876 268.56 
L 570.316264 228.24 
L 570.781651 288.72 
L 571.247039 268.56 
L 571.712427 187.92 
L 572.177815 288.72 
L 572.643203 228.24 
L 573.10859 187.92 
L 573.573978 268.56 
L 574.039366 288.72 
L 574.504754 87.12 
L 574.970142 329.04 
L 575.43553 288.72 
L 575.900917 329.04 
L 576.366305 288.72 
L 576.831693 288.72 
L 577.297081 187.92 
L 577.762469 208.08 
L 578.227857 288.72 
L 578.693244 228.24 
L 579.158632 268.56 
L 579.62402 147.6 
L 580.089408 288.72 
L 580.554796 288.72 
L 581.020183 187.92 
L 581.485571 187.92 
L 581.950959 228.24 
L 582.416347 167.76 
L 582.881735 248.4 
L 583.347123 147.6 
L 583.81251 268.56 
L 584.277898 268.56 
L 584.743286 308.88 
L 585.674062 147.6 
L 586.13945 288.72 
L 586.604837 107.28 
L 587.070225 288.72 
L 587.535613 87.12 
L 588.001001 349.2 
L 588.466389 187.92 
L 588.931776 288.72 
L 589.397164 228.24 
L 589.862552 288.72 
L 590.32794 308.88 
L 590.793328 187.92 
L 591.258716 147.6 
L 591.724103 228.24 
L 592.189491 288.72 
L 592.654879 187.92 
L 593.120267 329.04 
L 593.585655 187.92 
L 594.051043 288.72 
L 594.51643 228.24 
L 594.981818 107.28 
L 595.447206 167.76 
L 595.912594 147.6 
L 596.377982 87.12 
L 596.843369 228.24 
L 597.308757 187.92 
L 598.239533 268.56 
L 598.704921 187.92 
L 599.170309 288.72 
L 599.635696 288.72 
L 600.101084 228.24 
L 600.566472 187.92 
L 601.03186 329.04 
L 601.497248 127.44 
L 601.962636 288.72 
L 602.428023 187.92 
L 602.893411 329.04 
L 603.824187 147.6 
L 604.289575 268.56 
L 604.754962 187.92 
L 605.22035 147.6 
L 605.685738 228.24 
L 606.151126 329.04 
L 606.616514 288.72 
L 607.081902 187.92 
L 607.547289 268.56 
L 608.012677 187.92 
L 608.478065 268.56 
L 608.943453 288.72 
L 609.408841 228.24 
L 609.874229 288.72 
L 610.339616 268.56 
L 610.805004 288.72 
L 611.270392 87.12 
L 611.73578 288.72 
L 612.201168 228.24 
L 612.666555 329.04 
L 613.131943 228.24 
L 613.597331 187.92 
L 614.062719 187.92 
L 614.993495 268.56 
L 615.458882 147.6 
L 615.92427 288.72 
L 616.389658 167.76 
L 616.855046 147.6 
L 617.320434 208.08 
L 617.785822 288.72 
L 618.251209 228.24 
L 618.716597 288.72 
L 619.181985 329.04 
L 619.647373 228.24 
L 620.112761 288.72 
L 620.578148 268.56 
L 621.043536 228.24 
L 621.508924 288.72 
L 621.974312 288.72 
L 622.4397 268.56 
L 622.905088 87.12 
L 623.370475 268.56 
L 623.835863 248.4 
L 624.301251 288.72 
L 624.766639 187.92 
L 625.232027 268.56 
L 625.697415 268.56 
L 626.162802 228.24 
L 626.62819 167.76 
L 627.093578 187.92 
L 628.024354 187.92 
L 628.489741 268.56 
L 628.955129 288.72 
L 629.420517 107.28 
L 629.885905 268.56 
L 630.351293 268.56 
L 630.816681 187.92 
L 631.282068 268.56 
L 631.747456 288.72 
L 632.212844 288.72 
L 632.678232 147.6 
L 633.14362 167.76 
L 633.609008 329.04 
L 634.074395 187.92 
L 634.539783 208.08 
L 635.005171 288.72 
L 635.935947 87.12 
L 636.401334 228.24 
L 636.866722 288.72 
L 637.33211 268.56 
L 637.797498 228.24 
L 638.262886 329.04 
L 638.728274 288.72 
L 639.193661 349.2 
L 639.659049 187.92 
L 640.124437 228.24 
L 640.589825 187.92 
L 641.055213 288.72 
L 641.520601 66.96 
L 641.985988 228.24 
L 642.451376 288.72 
L 642.916764 268.56 
L 643.382152 187.92 
L 643.84754 147.6 
L 644.312927 167.76 
L 644.778315 268.56 
L 645.243703 87.12 
L 645.709091 268.56 
L 646.174479 228.24 
L 646.639867 329.04 
L 647.105254 349.2 
L 647.570642 187.92 
L 648.03603 228.24 
L 648.501418 329.04 
L 648.966806 248.4 
L 649.432193 329.04 
L 649.897581 288.72 
L 650.362969 228.24 
L 650.828357 268.56 
L 651.293745 288.72 
L 651.759133 187.92 
L 652.22452 288.72 
L 652.689908 288.72 
L 653.155296 228.24 
L 653.620684 288.72 
L 654.086072 288.72 
L 654.55146 369.36 
L 655.016847 147.6 
L 655.947623 147.6 
L 656.413011 268.56 
L 656.878399 228.24 
L 657.343786 288.72 
L 657.809174 288.72 
L 658.274562 329.04 
L 659.205338 288.72 
L 659.670726 288.72 
L 660.136113 268.56 
L 660.601501 228.24 
L 661.066889 268.56 
L 661.532277 187.92 
L 661.997665 288.72 
L 663.393828 288.72 
L 663.859216 187.92 
L 664.324604 147.6 
L 664.789992 87.12 
L 665.255379 87.12 
L 665.720767 228.24 
L 666.186155 268.56 
L 666.651543 187.92 
L 667.116931 329.04 
L 667.582319 187.92 
L 668.047706 268.56 
L 668.513094 288.72 
L 669.44387 288.72 
L 669.909258 228.24 
L 670.374646 308.88 
L 670.840033 288.72 
L 671.305421 187.92 
L 671.770809 288.72 
L 672.236197 187.92 
L 672.701585 228.24 
L 673.166972 187.92 
L 673.63236 308.88 
L 674.097748 329.04 
L 674.563136 329.04 
L 675.028524 187.92 
L 675.493912 147.6 
L 675.959299 87.12 
L 676.424687 288.72 
L 676.890075 147.6 
L 677.820851 147.6 
L 678.286239 87.12 
L 678.751626 288.72 
L 679.217014 288.72 
L 679.682402 308.88 
L 680.14779 228.24 
L 680.613178 228.24 
L 681.078565 187.92 
L 681.543953 248.4 
L 682.009341 187.92 
L 682.940117 187.92 
L 683.405505 107.28 
L 683.870892 147.6 
L 684.33628 147.6 
L 685.267056 228.24 
L 685.732444 288.72 
L 686.663219 288.72 
L 687.128607 329.04 
L 687.593995 288.72 
L 688.059383 288.72 
L 688.524771 87.12 
L 688.990158 288.72 
L 689.455546 329.04 
L 689.920934 228.24 
L 690.85171 349.2 
L 691.317098 228.24 
L 692.247873 147.6 
L 692.713261 228.24 
L 693.178649 187.92 
L 693.644037 187.92 
L 694.109425 329.04 
L 694.574812 288.72 
L 695.0402 147.6 
L 695.505588 187.92 
L 695.970976 187.92 
L 696.436364 288.72 
L 698.297915 288.72 
L 698.763303 308.88 
L 699.228691 187.92 
L 699.694078 228.24 
L 700.159466 228.24 
L 700.624854 147.6 
L 701.090242 288.72 
L 701.55563 228.24 
L 702.021018 228.24 
L 702.486405 288.72 
L 702.951793 187.92 
L 703.417181 187.92 
L 703.882569 288.72 
L 704.347957 268.56 
L 704.813344 288.72 
L 705.278732 288.72 
L 705.74412 147.6 
L 706.209508 167.76 
L 706.674896 288.72 
L 707.140284 228.24 
L 707.605671 228.24 
L 708.071059 147.6 
L 708.536447 288.72 
L 709.001835 329.04 
L 709.467223 228.24 
L 709.932611 248.4 
L 710.397998 187.92 
L 710.863386 288.72 
L 711.328774 66.96 
L 711.794162 228.24 
L 712.25955 288.72 
L 712.724937 228.24 
L 713.190325 288.72 
L 713.655713 187.92 
L 714.121101 329.04 
L 714.586489 147.6 
L 715.051877 268.56 
L 715.517264 187.92 
L 715.982652 147.6 
L 716.44804 329.04 
L 716.913428 147.6 
L 717.378816 329.04 
L 717.844204 107.28 
L 718.774979 187.92 
L 719.240367 147.6 
L 719.705755 147.6 
L 720.171143 208.08 
L 720.63653 187.92 
L 721.101918 288.72 
L 721.567306 228.24 
L 722.032694 87.12 
L 722.498082 329.04 
L 722.96347 268.56 
L 723.894245 107.28 
L 724.359633 228.24 
L 724.825021 288.72 
L 725.290409 147.6 
L 725.755796 187.92 
L 726.221184 147.6 
L 726.686572 288.72 
L 727.15196 268.56 
L 727.617348 288.72 
L 728.082736 288.72 
L 728.548123 248.4 
L 729.013511 187.92 
L 729.478899 187.92 
L 729.944287 268.56 
L 730.409675 147.6 
L 730.875063 228.24 
L 731.34045 329.04 
L 731.805838 87.12 
L 732.271226 308.88 
L 732.736614 248.4 
L 733.202002 228.24 
L 733.667389 268.56 
L 734.132777 288.72 
L 734.598165 228.24 
L 735.528941 228.24 
L 735.994329 147.6 
L 736.459716 208.08 
L 736.925104 288.72 
L 737.390492 288.72 
L 737.85588 147.6 
L 738.321268 329.04 
L 738.786656 187.92 
L 739.252043 87.12 
L 739.717431 288.72 
L 740.182819 87.12 
L 740.648207 187.92 
L 741.113595 228.24 
L 742.04437 228.24 
L 742.509758 288.72 
L 742.975146 87.12 
L 743.440534 167.76 
L 743.905922 288.72 
L 744.371309 147.6 
L 744.836697 187.92 
L 745.302085 288.72 
L 745.767473 147.6 
L 746.232861 147.6 
L 747.163636 228.24 
L 747.163636 228.24 
" clip-path="url(#pb805d1f4af)" style="fill: none; stroke: #1f77b4; stroke-width: 1.5; stroke-linecap: square"/>
   </g>
   <g id="line2d_17">
    <path d="M 138.436364 237.894335 
L 138.901751 227.732374 
L 139.367139 220.075052 
L 139.832527 239.875793 
L 140.297915 251.156163 
L 140.763303 248.180919 
L 141.228691 222.060951 
L 141.694078 247.362792 
L 142.159466 205.516607 
L 142.624854 241.136553 
L 143.090242 247.685924 
L 143.55563 239.442178 
L 144.021018 244.934221 
L 144.486405 236.879861 
L 144.951793 222.403791 
L 145.417181 294.889301 
L 145.882569 282.986583 
L 146.347957 237.374683 
L 146.813344 233.171007 
L 147.278732 294.781289 
L 147.74412 200.832481 
L 148.209508 272.275746 
L 148.674896 276.700301 
L 149.605671 245.192014 
L 150.071059 265.074793 
L 150.536447 200.640701 
L 151.001835 274.209793 
L 151.467223 297.495453 
L 151.932611 295.486463 
L 152.397998 192.754877 
L 152.863386 206.029135 
L 153.328774 286.893484 
L 153.794162 251.895195 
L 154.25955 242.001572 
L 154.724937 228.063428 
L 155.190325 252.518975 
L 155.655713 252.34968 
L 156.121101 251.404141 
L 156.586489 260.135038 
L 157.051877 293.972448 
L 157.517264 255.855795 
L 157.982652 242.13627 
L 158.44804 196.032711 
L 158.913428 222.60653 
L 159.378816 257.498547 
L 159.844204 268.576333 
L 160.309591 291.669482 
L 160.774979 196.293763 
L 161.240367 252.248435 
L 161.705755 225.102747 
L 162.171143 234.423721 
L 162.63653 236.973214 
L 163.101918 297.743537 
L 163.567306 284.196903 
L 164.032694 249.78122 
L 164.498082 298.375921 
L 164.96347 259.891982 
L 165.428857 203.637181 
L 165.894245 287.534184 
L 166.359633 261.257476 
L 166.825021 283.16551 
L 167.290409 267.837869 
L 168.221184 293.338036 
L 168.686572 241.115702 
L 169.15196 203.187233 
L 169.617348 248.079761 
L 170.082736 220.649027 
L 170.548123 233.053796 
L 171.013511 236.255379 
L 171.478899 277.263913 
L 171.944287 244.072932 
L 172.409675 285.673407 
L 172.875063 256.332448 
L 173.34045 267.927654 
L 173.805838 258.088384 
L 174.271226 243.689093 
L 174.736614 205.439068 
L 175.202002 206.574964 
L 175.667389 291.06337 
L 176.132777 292.74543 
L 177.063553 239.519419 
L 177.528941 244.201756 
L 177.994329 245.993818 
L 178.459716 279.279007 
L 178.925104 199.771125 
L 179.390492 191.694232 
L 179.85588 253.540226 
L 180.321268 240.834722 
L 180.786656 167.650738 
L 181.252043 193.474701 
L 181.717431 168.722726 
L 182.182819 164.87257 
L 182.648207 252.88055 
L 183.113595 242.576076 
L 183.578982 204.851404 
L 184.04437 199.614452 
L 184.509758 266.994007 
L 184.975146 231.51097 
L 185.440534 221.004113 
L 186.371309 273.241636 
L 186.836697 269.590316 
L 187.302085 298.690988 
L 187.767473 254.82148 
L 188.232861 290.615229 
L 188.698249 267.094118 
L 189.163636 203.889581 
L 189.629024 233.713096 
L 190.094412 157.291556 
L 190.5598 289.375571 
L 191.025188 245.48152 
L 191.490575 231.857722 
L 191.955963 289.439661 
L 192.421351 288.363577 
L 192.886739 205.092749 
L 193.352127 239.529964 
L 193.817515 231.821039 
L 194.282902 297.65203 
L 194.74829 286.035358 
L 195.213678 191.484149 
L 195.679066 229.264144 
L 196.144454 207.936497 
L 196.609842 251.635739 
L 197.075229 193.60019 
L 197.540617 309.540666 
L 198.006005 289.722313 
L 198.471393 289.745461 
L 198.936781 282.159333 
L 199.402168 227.360772 
L 199.867556 190.873087 
L 200.332944 295.855584 
L 200.798332 280.429698 
L 201.26372 232.093309 
L 201.729108 229.976499 
L 202.194495 242.518436 
L 202.659883 158.133505 
L 203.125271 163.373302 
L 203.590659 264.388288 
L 204.056047 240.896457 
L 204.521435 231.791594 
L 204.986822 186.905517 
L 205.45221 187.597752 
L 205.917598 204.666833 
L 206.382986 226.424482 
L 206.848374 260.355638 
L 207.313761 218.42334 
L 207.779149 232.482656 
L 208.244537 269.729676 
L 208.709925 254.701269 
L 209.175313 264.584951 
L 209.640701 191.057272 
L 210.106088 271.028599 
L 210.571476 260.25969 
L 211.036864 229.906285 
L 211.502252 273.507561 
L 211.96764 252.406185 
L 212.433028 283.992674 
L 212.898415 286.35925 
L 213.363803 207.764712 
L 213.829191 242.371866 
L 214.294579 298.359857 
L 214.759967 206.429115 
L 215.225354 273.139978 
L 215.690742 281.484382 
L 216.15613 298.519578 
L 216.621518 252.024711 
L 217.086906 182.945484 
L 217.552294 245.443953 
L 218.017681 241.199912 
L 218.483069 216.319892 
L 218.948457 227.135443 
L 219.413845 185.988991 
L 219.879233 179.641137 
L 220.344621 217.709437 
L 220.810008 219.19196 
L 221.275396 291.951576 
L 221.740784 210.456016 
L 222.206172 184.318649 
L 222.67156 196.582212 
L 223.136947 276.861569 
L 223.602335 203.280364 
L 224.067723 167.42339 
L 224.533111 257.233151 
L 224.998499 299.973992 
L 225.463887 168.808456 
L 225.929274 293.397838 
L 226.394662 221.67195 
L 226.86005 268.401164 
L 227.325438 184.110969 
L 227.790826 292.592679 
L 228.256214 285.150035 
L 228.721601 228.764651 
L 229.186989 219.661902 
L 229.652377 184.41301 
L 230.117765 164.286041 
L 230.583153 269.23696 
L 231.04854 261.628049 
L 231.513928 259.328302 
L 231.979316 211.665759 
L 232.444704 291.138419 
L 232.910092 203.373111 
L 233.37548 240.887623 
L 233.840867 269.055004 
L 234.306255 304.388962 
L 234.771643 299.494177 
L 235.237031 196.106982 
L 235.702419 218.818705 
L 236.167807 275.703515 
L 236.633194 264.127304 
L 237.098582 180.921478 
L 238.029358 261.851254 
L 238.494746 174.654201 
L 238.960133 225.608873 
L 239.425521 255.936583 
L 239.890909 201.824393 
L 240.356297 221.352932 
L 240.821685 292.059877 
L 241.287073 276.889101 
L 241.75246 219.929722 
L 242.217848 225.917586 
L 243.148624 205.882094 
L 243.614012 258.723921 
L 244.079399 244.92085 
L 244.544787 259.936933 
L 245.010175 242.230036 
L 245.475563 192.514839 
L 245.940951 282.801128 
L 246.871726 210.220112 
L 247.337114 252.542008 
L 247.802502 263.778014 
L 248.26789 247.660181 
L 248.733278 253.766324 
L 249.198666 294.635969 
L 249.664053 256.585588 
L 250.129441 292.902969 
L 250.594829 253.751924 
L 251.060217 248.329863 
L 251.525605 218.689525 
L 251.990992 290.358638 
L 252.45638 245.839789 
L 252.921768 215.461851 
L 253.387156 171.143385 
L 253.852544 238.818465 
L 254.317932 190.72866 
L 254.783319 280.529558 
L 255.248707 275.846711 
L 255.714095 251.30132 
L 256.179483 233.757922 
L 256.644871 171.119314 
L 257.110259 209.556697 
L 257.575646 265.929267 
L 258.041034 199.36061 
L 258.506422 208.444584 
L 258.97181 233.514174 
L 259.437198 291.318154 
L 259.902585 234.49876 
L 260.367973 266.512885 
L 260.833361 216.40068 
L 261.298749 245.394263 
L 261.764137 222.595648 
L 262.229525 259.940384 
L 262.694912 180.755788 
L 263.1603 274.719852 
L 263.625688 244.732828 
L 264.091076 251.674537 
L 264.556464 245.60747 
L 265.021852 237.68181 
L 265.487239 240.931939 
L 265.952627 250.585197 
L 266.418015 266.696157 
L 267.348791 206.865989 
L 267.814178 261.391866 
L 268.744954 185.828145 
L 269.210342 183.685611 
L 269.67573 239.116181 
L 270.141118 234.007563 
L 270.606505 196.583904 
L 271.071893 242.995214 
L 271.537281 267.250051 
L 272.002669 247.160783 
L 272.468057 170.286441 
L 272.933445 287.825199 
L 273.86422 293.496382 
L 274.329608 216.67119 
L 274.794996 248.952644 
L 275.260384 256.010738 
L 275.725771 188.347088 
L 276.191159 264.390355 
L 276.656547 223.117251 
L 277.121935 262.058338 
L 277.587323 231.56788 
L 278.518098 154.352659 
L 278.983486 225.133989 
L 279.448874 268.070283 
L 279.914262 180.762075 
L 280.37965 266.711317 
L 280.845038 240.75702 
L 281.310425 280.071237 
L 281.775813 168.543828 
L 282.241201 243.639374 
L 282.706589 213.617955 
L 283.171977 171.320611 
L 283.637364 149.001408 
L 284.56814 271.491515 
L 285.033528 238.881815 
L 285.498916 240.838866 
L 285.964304 234.152614 
L 286.429691 236.812935 
L 286.895079 247.9988 
L 287.360467 206.783047 
L 287.825855 220.600212 
L 288.291243 216.318719 
L 288.756631 229.006563 
L 289.222018 273.166683 
L 289.687406 254.568744 
L 290.152794 209.65475 
L 290.618182 202.530413 
L 291.08357 209.961233 
L 292.014345 231.248794 
L 292.479733 216.536493 
L 292.945121 297.244236 
L 293.410509 266.187243 
L 293.875897 261.793979 
L 294.341284 253.960882 
L 294.806672 229.400938 
L 295.27206 236.987662 
L 295.737448 294.383867 
L 296.202836 249.844657 
L 296.668224 241.187502 
L 297.133611 262.783497 
L 297.598999 179.283071 
L 298.064387 249.006092 
L 298.529775 277.910457 
L 298.995163 241.719795 
L 299.46055 225.409191 
L 299.925938 237.825179 
L 300.391326 290.0036 
L 300.856714 213.806582 
L 301.322102 254.293407 
L 301.78749 278.591214 
L 302.252877 244.008149 
L 302.718265 229.210282 
L 303.183653 295.135904 
L 303.649041 272.300087 
L 304.114429 269.679284 
L 304.579817 244.046006 
L 305.045204 154.875877 
L 305.510592 223.542474 
L 305.97598 213.808582 
L 306.441368 279.747182 
L 306.906756 231.422761 
L 307.372143 200.181256 
L 308.302919 287.892644 
L 308.768307 224.640456 
L 309.233695 216.329812 
L 309.699083 269.961187 
L 310.16447 176.994418 
L 310.629858 230.527143 
L 311.095246 184.028431 
L 311.560634 184.891605 
L 312.026022 240.586456 
L 312.49141 261.969734 
L 312.956797 222.970671 
L 313.422185 259.186847 
L 313.887573 260.162358 
L 314.352961 148.786922 
L 314.818349 268.601442 
L 315.283736 281.319355 
L 315.749124 265.033832 
L 316.214512 254.69727 
L 316.6799 293.370855 
L 317.145288 293.766566 
L 317.610676 255.798222 
L 318.076063 242.331405 
L 318.541451 225.108938 
L 319.006839 267.513131 
L 319.937615 245.474128 
L 320.403003 207.442944 
L 320.86839 275.059557 
L 321.333778 252.28185 
L 321.799166 242.185162 
L 322.264554 215.762162 
L 322.729942 289.746586 
L 323.195329 276.319211 
L 323.660717 223.294746 
L 324.126105 255.031352 
L 324.591493 304.699223 
L 325.056881 252.603877 
L 325.522269 245.132577 
L 325.987656 245.23981 
L 326.453044 164.406511 
L 326.918432 240.5891 
L 327.38382 232.486819 
L 327.849208 233.072743 
L 328.314595 147.01322 
L 328.779983 263.471243 
L 329.245371 173.851089 
L 329.710759 228.479201 
L 330.176147 243.417755 
L 330.641535 245.855967 
L 331.106922 218.118376 
L 331.57231 226.867412 
L 332.037698 230.483423 
L 332.503086 185.856158 
L 332.968474 199.083274 
L 333.433862 236.011352 
L 333.899249 219.144567 
L 334.364637 238.731851 
L 334.830025 265.759549 
L 335.295413 214.017262 
L 335.760801 177.984003 
L 336.226188 245.628369 
L 336.691576 236.919765 
L 337.156964 196.005737 
L 337.622352 192.348226 
L 338.553128 293.479376 
L 339.018515 288.137902 
L 339.483903 261.818973 
L 339.949291 248.04526 
L 340.414679 242.098664 
L 340.880067 194.129676 
L 341.345455 203.843208 
L 341.810842 293.849738 
L 342.27623 246.234577 
L 342.741618 294.002172 
L 343.207006 218.755912 
L 343.672394 207.105738 
L 344.137781 263.540716 
L 344.603169 219.759283 
L 345.068557 267.427161 
L 345.533945 229.759485 
L 345.999333 210.839134 
L 346.464721 237.535336 
L 346.930108 192.089328 
L 347.395496 192.212471 
L 347.860884 181.46498 
L 348.326272 259.066597 
L 348.79166 251.118942 
L 349.257048 189.019366 
L 349.722435 274.532128 
L 350.187823 231.647341 
L 350.653211 218.96811 
L 351.118599 199.072527 
L 351.583987 270.543266 
L 352.049374 287.808482 
L 352.514762 262.723281 
L 352.98015 296.94452 
L 353.445538 230.710714 
L 353.910926 227.156938 
L 354.376314 285.411077 
L 354.841701 249.491743 
L 355.307089 248.775187 
L 355.772477 205.415804 
L 356.237865 238.536197 
L 356.703253 288.584216 
L 357.168641 225.718231 
L 357.634028 260.53569 
L 358.099416 245.652632 
L 358.564804 191.671199 
L 359.030192 198.256534 
L 359.49558 178.383867 
L 359.960967 254.805493 
L 360.426355 228.637566 
L 360.891743 273.984223 
L 361.357131 268.837432 
L 361.822519 194.436966 
L 362.287907 255.41421 
L 362.753294 295.409001 
L 363.218682 302.394065 
L 363.68407 290.85941 
L 364.614846 213.913037 
L 365.080234 246.700319 
L 365.545621 259.364025 
L 366.011009 212.396581 
L 366.476397 234.184212 
L 366.941785 191.046583 
L 367.87256 287.936903 
L 368.337948 252.437245 
L 368.803336 257.655826 
L 369.268724 287.223337 
L 369.734112 224.260433 
L 370.1995 219.842608 
L 370.664887 180.085509 
L 371.130275 231.199758 
L 371.595663 265.140873 
L 372.061051 220.581505 
L 372.526439 195.208086 
L 372.991827 281.424878 
L 373.457214 275.917511 
L 373.922602 174.864957 
L 374.38799 212.0349 
L 374.853378 228.547463 
L 375.318766 220.080589 
L 375.784153 244.512526 
L 376.249541 202.782313 
L 376.714929 292.971789 
L 377.180317 251.751422 
L 377.645705 288.81141 
L 378.111093 236.645111 
L 378.57648 295.146642 
L 379.041868 213.742656 
L 379.507256 246.487217 
L 379.972644 265.203714 
L 380.438032 251.775262 
L 380.90342 302.965291 
L 381.368807 217.013492 
L 381.834195 207.609692 
L 382.299583 234.19992 
L 382.764971 247.211857 
L 383.230359 229.238381 
L 383.695746 220.413873 
L 384.161134 171.936076 
L 384.626522 296.358942 
L 385.09191 255.65768 
L 385.557298 255.508706 
L 386.022686 225.84645 
L 386.488073 259.766445 
L 386.953461 198.490034 
L 387.418849 280.999789 
L 387.884237 232.360378 
L 388.349625 268.291287 
L 388.815013 156.335232 
L 389.2804 275.273524 
L 390.676564 186.868622 
L 391.141952 212.778391 
L 391.607339 176.974904 
L 392.072727 242.544459 
L 392.538115 250.166386 
L 393.003503 235.863071 
L 393.468891 300.973642 
L 393.934279 215.101805 
L 394.399666 225.844066 
L 394.865054 249.66025 
L 395.330442 224.590141 
L 395.79583 282.396967 
L 396.261218 267.182163 
L 396.726606 256.836324 
L 397.191993 293.627878 
L 397.657381 230.009145 
L 398.122769 256.729399 
L 398.588157 212.212971 
L 399.053545 271.540128 
L 399.518932 207.522751 
L 399.98432 249.285774 
L 400.449708 208.671971 
L 400.915096 205.737111 
L 401.380484 189.70268 
L 401.845872 238.383927 
L 402.311259 176.126534 
L 402.776647 277.106951 
L 403.242035 291.354501 
L 403.707423 179.042937 
L 404.172811 279.580251 
L 404.638198 210.74583 
L 405.103586 189.40185 
L 405.568974 244.719322 
L 406.034362 187.182334 
L 406.49975 293.486509 
L 407.430525 218.563017 
L 407.895913 218.289468 
L 408.361301 253.077396 
L 408.826689 207.030468 
L 409.292077 243.445671 
L 410.222852 189.918954 
L 410.68824 273.111389 
L 411.153628 289.036702 
L 411.619016 232.052675 
L 412.084404 156.39018 
L 412.549791 177.893352 
L 413.015179 212.595532 
L 413.480567 223.066725 
L 413.945955 260.610038 
L 414.411343 241.603362 
L 414.876731 199.809231 
L 415.342118 245.240262 
L 415.807506 248.544513 
L 416.272894 187.653469 
L 416.738282 244.336704 
L 417.20367 224.538635 
L 417.669058 184.158995 
L 418.134445 297.162169 
L 418.599833 249.93054 
L 419.065221 288.721336 
L 419.530609 256.393269 
L 419.995997 278.635703 
L 420.461384 242.402772 
L 420.926772 164.507487 
L 421.39216 224.468459 
L 421.857548 232.65671 
L 422.322936 276.869971 
L 422.788324 288.570546 
L 423.253711 155.813014 
L 423.719099 190.858975 
L 424.184487 277.987179 
L 424.649875 168.11201 
L 425.115263 238.819705 
L 425.580651 224.251801 
L 426.046038 261.180754 
L 426.511426 198.717825 
L 426.976814 219.26746 
L 427.442202 248.466253 
L 427.90759 259.552373 
L 428.372977 246.608957 
L 428.838365 264.082305 
L 429.303753 260.216009 
L 429.769141 245.989598 
L 430.234529 263.037589 
L 430.699917 271.442556 
L 431.165304 187.861591 
L 431.630692 250.987858 
L 432.09608 260.510889 
L 432.561468 281.31153 
L 433.026856 182.965479 
L 433.492244 290.896795 
L 433.957631 249.282534 
L 434.423019 162.493478 
L 434.888407 265.501641 
L 435.353795 208.715979 
L 435.819183 225.23706 
L 436.28457 189.102942 
L 436.749958 161.785824 
L 437.215346 276.314366 
L 437.680734 211.461482 
L 438.146122 256.225003 
L 438.61151 284.678996 
L 439.076897 222.921779 
L 439.542285 237.224191 
L 440.007673 256.719814 
L 440.473061 176.829228 
L 440.938449 271.567496 
L 441.403837 262.903593 
L 441.869224 249.17284 
L 442.334612 228.259553 
L 442.8 253.029927 
L 443.265388 196.747979 
L 443.730776 208.223984 
L 444.196163 247.939766 
L 444.661551 257.033613 
L 445.126939 208.549039 
L 445.592327 290.493846 
L 446.523103 255.492681 
L 446.98849 268.767526 
L 447.453878 288.288 
L 447.919266 287.372435 
L 448.384654 243.929217 
L 448.850042 264.571849 
L 450.246205 158.452331 
L 450.711593 255.69096 
L 451.176981 249.862874 
L 451.642369 210.196925 
L 452.107756 214.353833 
L 452.573144 216.045459 
L 453.038532 230.369913 
L 453.50392 201.290466 
L 453.969308 248.917297 
L 454.434696 236.874939 
L 454.900083 307.72085 
L 455.365471 179.921569 
L 455.830859 277.20611 
L 456.296247 244.943882 
L 456.761635 231.517478 
L 457.227023 287.336521 
L 457.69241 237.691682 
L 458.157798 228.112762 
L 458.623186 255.888075 
L 459.088574 257.524781 
L 459.553962 260.403982 
L 460.019349 286.48197 
L 460.484737 197.127886 
L 460.950125 187.277042 
L 461.415513 172.927969 
L 461.880901 230.907772 
L 462.346289 253.832721 
L 462.811676 262.198409 
L 463.277064 181.756678 
L 463.742452 252.955147 
L 464.20784 299.105127 
L 464.673228 172.427879 
L 465.138616 223.230339 
L 465.604003 261.375504 
L 466.069391 250.806057 
L 466.534779 233.924929 
L 467.000167 264.308634 
L 467.465555 251.090689 
L 467.930942 262.671534 
L 468.39633 216.434575 
L 468.861718 213.558758 
L 469.327106 190.914115 
L 469.792494 197.87876 
L 470.257882 217.672138 
L 470.723269 208.284335 
L 471.188657 178.586299 
L 471.654045 261.785212 
L 472.119433 256.207968 
L 472.584821 207.781438 
L 473.050209 210.053979 
L 473.980984 250.623438 
L 474.446372 253.965458 
L 474.91176 277.407147 
L 475.842535 188.886399 
L 476.307923 195.81588 
L 476.773311 281.399365 
L 477.238699 253.638182 
L 477.704087 253.022131 
L 478.169475 285.381834 
L 478.634862 266.388559 
L 479.10025 271.02608 
L 479.565638 242.027027 
L 480.031026 256.651139 
L 480.496414 189.204994 
L 480.961802 187.800356 
L 481.427189 269.311634 
L 481.892577 225.365702 
L 482.357965 267.851317 
L 482.823353 252.230132 
L 483.288741 227.099144 
L 483.754128 221.93677 
L 484.219516 264.677525 
L 484.684904 204.909467 
L 485.150292 186.575175 
L 485.61568 178.241594 
L 486.081068 251.447544 
L 486.546455 259.273633 
L 487.477231 184.059635 
L 487.942619 191.57528 
L 488.408007 173.391682 
L 488.873394 244.844455 
L 489.338782 268.914404 
L 490.269558 191.169553 
L 490.734946 220.68 
L 491.200334 265.439272 
L 491.665721 290.554187 
L 492.596497 215.608892 
L 493.061885 156.677437 
L 493.527273 225.076811 
L 494.458048 294.404794 
L 494.923436 253.018709 
L 495.388824 259.006141 
L 495.854212 161.12785 
L 496.3196 256.216726 
L 496.784987 220.212018 
L 497.250375 249.819509 
L 497.715763 245.8959 
L 498.181151 224.914601 
L 498.646539 288.698428 
L 499.111927 292.832784 
L 499.577314 293.264602 
L 500.042702 175.39875 
L 500.50809 260.228852 
L 500.973478 265.890027 
L 501.438866 214.585777 
L 501.904254 242.181019 
L 502.369641 256.738175 
L 502.835029 298.358156 
L 503.300417 188.786212 
L 503.765805 190.339832 
L 504.231193 202.239811 
L 504.69658 236.21562 
L 505.161968 189.957022 
L 505.627356 290.438753 
L 506.092744 148.128948 
L 506.558132 214.842233 
L 507.02352 256.656945 
L 507.488907 190.274252 
L 507.954295 250.842827 
L 508.885071 219.083275 
L 509.350459 229.230893 
L 509.815847 228.246075 
L 510.281234 291.756422 
L 510.746622 241.523064 
L 511.21201 266.339158 
L 511.677398 240.75356 
L 512.142786 239.145241 
L 512.608173 291.523642 
L 513.073561 282.404129 
L 513.538949 230.733785 
L 514.004337 208.456331 
L 514.469725 238.362643 
L 514.935113 295.480955 
L 515.4005 234.785132 
L 515.865888 211.367486 
L 516.331276 227.840598 
L 516.796664 197.225151 
L 517.262052 265.353831 
L 517.72744 153.670844 
L 518.192827 243.112724 
L 518.658215 196.711411 
L 519.123603 233.737042 
L 520.054379 260.768316 
L 520.519766 209.260058 
L 520.985154 238.877258 
L 521.450542 250.77418 
L 521.91593 298.41295 
L 522.381318 236.855463 
L 522.846706 234.660269 
L 523.312093 263.606854 
L 523.777481 213.356404 
L 524.242869 235.277579 
L 524.708257 300.550938 
L 525.639033 265.642991 
L 526.10442 293.777928 
L 526.569808 237.709687 
L 527.035196 234.885348 
L 527.500584 173.237009 
L 527.965972 216.23074 
L 528.431359 213.582483 
L 528.896747 189.258135 
L 529.362135 204.185989 
L 529.827523 197.978121 
L 530.292911 253.551675 
L 530.758299 182.820649 
L 531.223686 265.663851 
L 531.689074 206.705124 
L 532.154462 213.340139 
L 532.61985 275.302786 
L 533.085238 207.055616 
L 533.550626 300.689019 
L 534.016013 214.190527 
L 534.481401 231.917919 
L 534.946789 241.250409 
L 535.412177 296.046605 
L 535.877565 230.544995 
L 536.342952 253.527613 
L 536.80834 259.212119 
L 537.273728 196.009986 
L 537.739116 248.760402 
L 538.204504 284.203987 
L 538.669892 162.840509 
L 539.135279 279.305655 
L 539.600667 200.16203 
L 540.531443 247.579239 
L 540.996831 254.225539 
L 541.462219 249.994293 
L 541.927606 205.904743 
L 542.392994 296.545647 
L 542.858382 234.074806 
L 543.789158 244.968819 
L 544.254545 179.12709 
L 544.719933 146.07368 
L 545.185321 285.924106 
L 545.650709 287.246177 
L 546.116097 167.565105 
L 546.581485 228.9413 
L 547.046872 239.680408 
L 547.51226 206.259771 
L 547.977648 190.755135 
L 548.443036 213.38282 
L 548.908424 209.987688 
L 549.373812 227.404819 
L 549.839199 217.118793 
L 550.304587 236.73035 
L 550.769975 266.635057 
L 551.235363 261.436576 
L 551.700751 205.517395 
L 552.166138 212.2083 
L 552.631526 246.009738 
L 553.096914 192.338306 
L 553.562302 256.789403 
L 554.02769 261.994248 
L 554.493078 195.800018 
L 554.958465 205.421303 
L 555.423853 229.368494 
L 555.889241 153.543376 
L 556.354629 253.892803 
L 556.820017 301.180822 
L 557.285405 270.451567 
L 557.750792 177.632954 
L 558.21618 283.113571 
L 558.681568 241.452168 
L 559.146956 234.984757 
L 559.612344 302.090831 
L 560.077731 230.158224 
L 560.543119 273.839759 
L 561.008507 252.698191 
L 561.473895 196.56039 
L 561.939283 283.847084 
L 562.404671 245.173913 
L 562.870058 190.738581 
L 563.335446 214.535039 
L 563.800834 218.311521 
L 564.266222 281.020342 
L 564.73161 287.859825 
L 565.196997 246.652292 
L 565.662385 246.027714 
L 566.127773 160.904386 
L 566.593161 237.239677 
L 567.058549 277.742815 
L 567.523937 176.699644 
L 568.454712 226.519843 
L 568.9201 205.072677 
L 569.385488 167.373479 
L 569.850876 204.088244 
L 570.316264 191.521813 
L 570.781651 293.873328 
L 571.247039 262.22498 
L 571.712427 208.263782 
L 572.177815 273.112119 
L 573.10859 200.983252 
L 573.573978 304.74575 
L 574.039366 257.8726 
L 574.504754 252.859661 
L 574.970142 255.659833 
L 575.43553 290.729269 
L 575.900917 229.181799 
L 576.366305 267.084995 
L 576.831693 176.32512 
L 577.297081 214.516121 
L 577.762469 219.229431 
L 578.227857 260.374768 
L 578.693244 241.654301 
L 579.158632 240.603154 
L 579.62402 199.361475 
L 580.089408 232.79086 
L 580.554796 250.285578 
L 581.020183 218.985491 
L 581.485571 196.622567 
L 581.950959 216.463703 
L 582.416347 186.68311 
L 582.881735 179.943467 
L 583.347123 230.703975 
L 583.81251 207.112736 
L 584.277898 254.072557 
L 584.743286 287.06748 
L 585.208674 225.06964 
L 585.674062 203.321931 
L 586.13945 288.76173 
L 586.604837 250.288587 
L 587.070225 285.394764 
L 587.535613 240.326693 
L 588.001001 295.501056 
L 588.466389 195.925295 
L 588.931776 253.936869 
L 589.397164 252.808231 
L 589.862552 246.618839 
L 590.32794 235.983436 
L 590.793328 239.590065 
L 591.258716 220.981484 
L 591.724103 245.490143 
L 592.189491 258.712222 
L 592.654879 208.808937 
L 593.120267 287.397611 
L 593.585655 258.896341 
L 594.051043 251.656628 
L 594.51643 257.760205 
L 594.981818 216.92011 
L 595.447206 236.719958 
L 595.912594 196.006737 
L 596.377982 212.884788 
L 596.843369 171.900085 
L 597.308757 213.67596 
L 597.774145 169.007907 
L 598.239533 256.886745 
L 598.704921 217.055731 
L 599.170309 193.808389 
L 599.635696 306.281971 
L 600.101084 200.997383 
L 600.566472 203.269694 
L 601.03186 270.320214 
L 601.497248 221.60787 
L 601.962636 263.412122 
L 602.428023 229.714342 
L 602.893411 295.84724 
L 603.358799 259.884897 
L 603.824187 202.340901 
L 604.289575 232.596321 
L 604.754962 215.603182 
L 605.22035 154.523905 
L 606.151126 293.432407 
L 606.616514 255.710782 
L 607.081902 200.870587 
L 607.547289 246.604535 
L 608.012677 212.040821 
L 608.478065 267.077843 
L 608.943453 256.517114 
L 609.408841 193.618282 
L 609.874229 241.449688 
L 610.339616 261.252169 
L 610.805004 287.159064 
L 611.270392 186.802273 
L 611.73578 288.419429 
L 612.201168 213.374419 
L 612.666555 295.635369 
L 613.131943 242.100154 
L 613.597331 270.152986 
L 614.062719 231.683371 
L 614.528107 258.416852 
L 615.458882 166.688435 
L 615.92427 295.343479 
L 616.389658 197.69692 
L 616.855046 198.024398 
L 617.320434 220.051577 
L 617.785822 174.673466 
L 618.251209 209.571136 
L 618.716597 279.269808 
L 619.181985 287.786843 
L 619.647373 226.545356 
L 620.578148 268.617707 
L 621.043536 240.166962 
L 621.974312 253.612093 
L 622.4397 293.966027 
L 622.905088 208.787212 
L 623.370475 215.943099 
L 623.835863 226.242776 
L 624.301251 295.132482 
L 624.766639 288.910944 
L 625.232027 179.53649 
L 625.697415 230.718385 
L 626.162802 258.827146 
L 626.62819 157.177661 
L 627.093578 207.513869 
L 627.558966 215.72098 
L 628.024354 221.479978 
L 628.489741 249.939086 
L 628.955129 249.771271 
L 629.420517 269.355844 
L 629.885905 203.314202 
L 630.351293 248.236396 
L 630.816681 178.49088 
L 631.282068 251.570687 
L 631.747456 226.713219 
L 632.212844 289.673325 
L 632.678232 145.380138 
L 633.14362 248.984271 
L 633.609008 253.983185 
L 634.074395 197.381478 
L 634.539783 166.933875 
L 635.005171 251.581608 
L 635.470559 262.404647 
L 635.935947 166.963175 
L 636.401334 251.181254 
L 636.866722 266.87049 
L 637.33211 220.462419 
L 637.797498 216.561929 
L 638.262886 284.661981 
L 638.728274 179.579037 
L 639.193661 286.532861 
L 639.659049 183.042614 
L 640.124437 253.594097 
L 640.589825 235.536276 
L 641.055213 247.295001 
L 641.520601 149.786447 
L 641.985988 210.45094 
L 642.451376 214.41701 
L 642.916764 258.909674 
L 643.382152 241.362238 
L 643.84754 191.898105 
L 644.312927 165.591779 
L 644.778315 255.9836 
L 645.243703 190.572179 
L 645.709091 233.955825 
L 646.174479 224.276795 
L 646.639867 270.004503 
L 647.105254 260.978448 
L 647.570642 241.731984 
L 648.03603 251.307828 
L 648.501418 267.193247 
L 648.966806 226.116807 
L 649.432193 266.411823 
L 649.897581 243.09319 
L 650.362969 206.182348 
L 650.828357 182.82213 
L 651.293745 234.119507 
L 651.759133 157.579217 
L 652.22452 240.78038 
L 652.689908 294.201979 
L 653.155296 233.10461 
L 653.620684 245.105295 
L 654.086072 243.70505 
L 654.55146 261.913114 
L 655.016847 252.064692 
L 655.482235 173.314471 
L 655.947623 150.087393 
L 656.413011 216.178407 
L 656.878399 242.920973 
L 657.343786 251.008786 
L 657.809174 255.222199 
L 658.274562 291.136516 
L 658.73995 210.39355 
L 659.205338 285.094962 
L 659.670726 303.347274 
L 660.136113 233.96664 
L 660.601501 242.528405 
L 661.066889 260.289077 
L 661.532277 177.974275 
L 661.997665 264.642399 
L 662.463053 263.066303 
L 662.92844 237.110353 
L 663.393828 268.040838 
L 663.859216 194.746871 
L 664.324604 208.696811 
L 664.789992 233.19107 
L 665.255379 210.457881 
L 665.720767 256.395557 
L 666.186155 291.216102 
L 666.651543 272.385287 
L 667.116931 296.066225 
L 667.582319 241.674844 
L 668.047706 224.192796 
L 668.513094 259.317113 
L 668.978482 247.674331 
L 669.44387 213.474125 
L 669.909258 265.09228 
L 670.374646 231.455455 
L 670.840033 261.750259 
L 671.305421 179.881559 
L 671.770809 274.333225 
L 672.236197 282.455712 
L 672.701585 214.045447 
L 673.166972 211.674257 
L 673.63236 154.946706 
L 674.097748 283.694025 
L 674.563136 232.056712 
L 675.028524 213.562238 
L 675.493912 236.617618 
L 675.959299 248.659283 
L 676.424687 287.712871 
L 676.890075 248.760777 
L 677.355463 183.592384 
L 677.820851 214.083053 
L 678.286239 174.972873 
L 678.751626 207.14544 
L 679.217014 266.290785 
L 679.682402 270.66887 
L 680.14779 204.188566 
L 680.613178 208.908509 
L 681.078565 224.896547 
L 681.543953 246.931657 
L 682.009341 214.025644 
L 682.474729 189.264787 
L 682.940117 254.99016 
L 683.405505 215.190437 
L 683.870892 206.27396 
L 684.33628 250.114235 
L 684.801668 169.227296 
L 685.267056 240.002464 
L 685.732444 248.653938 
L 686.197832 262.012714 
L 686.663219 290.139663 
L 687.128607 292.255838 
L 687.593995 247.519801 
L 688.059383 254.428412 
L 688.524771 243.232675 
L 689.455546 292.659451 
L 689.920934 178.613715 
L 690.386322 262.26473 
L 690.85171 294.133832 
L 691.782485 200.264601 
L 692.247873 229.958004 
L 692.713261 194.210714 
L 693.178649 210.735928 
L 693.644037 171.101569 
L 694.109425 252.251954 
L 694.574812 238.372333 
L 695.0402 191.882109 
L 695.505588 224.50049 
L 695.970976 197.297345 
L 696.436364 286.348377 
L 696.901751 259.077441 
L 697.367139 255.249952 
L 697.832527 247.345479 
L 698.297915 255.856612 
L 698.763303 256.298071 
L 699.228691 209.679609 
L 699.694078 259.214446 
L 700.159466 279.254244 
L 700.624854 235.960605 
L 701.090242 233.607036 
L 701.55563 258.351579 
L 702.021018 255.388966 
L 702.486405 275.888691 
L 702.951793 269.848426 
L 703.417181 221.026781 
L 703.882569 195.171652 
L 704.347957 239.277949 
L 704.813344 250.993155 
L 705.278732 294.154836 
L 706.209508 173.054246 
L 706.674896 254.097714 
L 707.140284 262.765453 
L 707.605671 234.377511 
L 708.071059 238.960901 
L 708.536447 174.171742 
L 709.001835 282.681455 
L 709.467223 214.264951 
L 709.932611 251.196 
L 710.397998 217.64676 
L 710.863386 231.555267 
L 711.328774 219.223471 
L 712.25955 263.414526 
L 712.724937 202.498152 
L 713.190325 259.929492 
L 713.655713 204.781767 
L 714.121101 263.819619 
L 714.586489 214.674217 
L 715.051877 233.605363 
L 715.517264 244.653521 
L 715.982652 209.238929 
L 716.44804 293.340833 
L 716.913428 239.634852 
L 717.378816 294.383905 
L 717.844204 230.337709 
L 718.309591 197.675656 
L 718.774979 226.981711 
L 719.240367 160.893984 
L 719.705755 215.67278 
L 720.171143 245.931574 
L 720.63653 217.712436 
L 721.101918 276.747078 
L 721.567306 195.359087 
L 722.032694 192.837607 
L 722.498082 231.014928 
L 722.96347 229.87288 
L 723.428857 194.754889 
L 724.825021 297.8319 
L 725.290409 168.238575 
L 725.755796 214.217597 
L 726.221184 189.564002 
L 726.686572 300.77197 
L 727.15196 257.891173 
L 727.617348 296.945059 
L 728.082736 294.477556 
L 728.548123 256.245315 
L 729.013511 267.371925 
L 729.478899 208.900896 
L 729.944287 212.187382 
L 730.409675 193.604054 
L 730.875063 220.691266 
L 731.34045 296.052921 
L 731.805838 168.323439 
L 732.271226 239.201506 
L 732.736614 213.120807 
L 733.202002 253.831462 
L 733.667389 266.155799 
L 734.132777 286.454976 
L 734.598165 240.640991 
L 735.063553 271.689092 
L 735.528941 253.524383 
L 735.994329 174.996944 
L 736.925104 265.8025 
L 737.390492 292.786267 
L 737.85588 235.504639 
L 738.321268 284.534138 
L 738.786656 186.779778 
L 739.252043 150.509559 
L 739.717431 291.401662 
L 740.182819 160.175756 
L 740.648207 197.016855 
L 741.113595 255.612248 
L 741.578982 236.493907 
L 742.04437 271.867615 
L 742.509758 255.970709 
L 742.975146 153.185271 
L 743.440534 221.819414 
L 743.905922 227.473802 
L 744.371309 202.680146 
L 744.836697 241.488226 
L 745.302085 196.982229 
L 746.232861 258.909895 
L 746.698249 206.96333 
L 747.163636 250.327347 
L 747.163636 250.327347 
" clip-path="url(#pb805d1f4af)" style="fill: none; stroke: #ff7f0e; stroke-width: 1.5; stroke-linecap: square"/>
   </g>
   <g id="patch_3">
    <path d="M 108 384.48 
L 108 51.84 
" style="fill: none; stroke: #000000; stroke-width: 0.8; stroke-linejoin: miter; stroke-linecap: square"/>
   </g>
   <g id="patch_4">
    <path d="M 777.6 384.48 
L 777.6 51.84 
" style="fill: none; stroke: #000000; stroke-width: 0.8; stroke-linejoin: miter; stroke-linecap: square"/>
   </g>
   <g id="patch_5">
    <path d="M 108 384.48 
L 777.6 384.48 
" style="fill: none; stroke: #000000; stroke-width: 0.8; stroke-linejoin: miter; stroke-linecap: square"/>
   </g>
   <g id="patch_6">
    <path d="M 108 51.84 
L 777.6 51.84 
" style="fill: none; stroke: #000000; stroke-width: 0.8; stroke-linejoin: miter; stroke-linecap: square"/>
   </g>
   <g id="text_16">
    <!-- Regresso: Real vs Previsto -->
    <g transform="translate(360.520313 45.84) scale(0.12 -0.12)">
     <defs>
      <path id="DejaVuSans-52" d="M 2841 2188 
Q 3044 2119 3236 1894 
Q 3428 1669 3622 1275 
L 4263 0 
L 3584 0 
L 2988 1197 
Q 2756 1666 2539 1819 
Q 2322 1972 1947 1972 
L 1259 1972 
L 1259 0 
L 628 0 
L 628 4666 
L 2053 4666 
Q 2853 4666 3247 4331 
Q 3641 3997 3641 3322 
Q 3641 2881 3436 2590 
Q 3231 2300 2841 2188 
z
M 1259 4147 
L 1259 2491 
L 2053 2491 
Q 2509 2491 2742 2702 
Q 2975 2913 2975 3322 
Q 2975 3731 2742 3939 
Q 2509 4147 2053 4147 
L 1259 4147 
z
" transform="scale(0.015625)"/>
      <path id="DejaVuSans-65" d="M 3597 1894 
L 3597 1613 
L 953 1613 
Q 991 1019 1311 708 
Q 1631 397 2203 397 
Q 2534 397 2845 478 
Q 3156 559 3463 722 
L 3463 178 
Q 3153 47 2828 -22 
Q 2503 -91 2169 -91 
Q 1331 -91 842 396 
Q 353 884 353 1716 
Q 353 2575 817 3079 
Q 1281 3584 2069 3584 
Q 2775 3584 3186 3129 
Q 3597 2675 3597 1894 
z
M 3022 2063 
Q 3016 2534 2758 2815 
Q 2500 3097 2075 3097 
Q 1594 3097 1305 2825 
Q 1016 2553 972 2059 
L 3022 2063 
z
" transform="scale(0.015625)"/>
      <path id="DejaVuSans-67" d="M 2906 1791 
Q 2906 2416 2648 2759 
Q 2391 3103 1925 3103 
Q 1463 3103 1205 2759 
Q 947 2416 947 1791 
Q 947 1169 1205 825 
Q 1463 481 1925 481 
Q 2391 481 2648 825 
Q 2906 1169 2906 1791 
z
M 3481 434 
Q 3481 -459 3084 -895 
Q 2688 -1331 1869 -1331 
Q 1566 -1331 1297 -1286 
Q 1028 -1241 775 -1147 
L 775 -588 
Q 1028 -725 1275 -790 
Q 1522 -856 1778 -856 
Q 2344 -856 2625 -561 
Q 2906 -266 2906 331 
L 2906 616 
Q 2728 306 2450 153 
Q 2172 0 1784 0 
Q 1141 0 747 490 
Q 353 981 353 1791 
Q 353 2603 747 3093 
Q 1141 3584 1784 3584 
Q 2172 3584 2450 3431 
Q 2728 3278 2906 2969 
L 2906 3500 
L 3481 3500 
L 3481 434 
z
" transform="scale(0.015625)"/>
      <path id="DejaVuSans-72" d="M 2631 2963 
Q 2534 3019 2420 3045 
Q 2306 3072 2169 3072 
Q 1681 3072 1420 2755 
Q 1159 2438 1159 1844 
L 1159 0 
L 581 0 
L 581 3500 
L 1159 3500 
L 1159 2956 
Q 1341 3275 1631 3429 
Q 1922 3584 2338 3584 
Q 2397 3584 2469 3576 
Q 2541 3569 2628 3553 
L 2631 2963 
z
" transform="scale(0.015625)"/>
      <path id="DejaVuSans-73" d="M 2834 3397 
L 2834 2853 
Q 2591 2978 2328 3040 
Q 2066 3103 1784 3103 
Q 1356 3103 1142 2972 
Q 928 2841 928 2578 
Q 928 2378 1081 2264 
Q 1234 2150 1697 2047 
L 1894 2003 
Q 2506 1872 2764 1633 
Q 3022 1394 3022 966 
Q 3022 478 2636 193 
Q 2250 -91 1575 -91 
Q 1294 -91 989 -36 
Q 684 19 347 128 
L 347 722 
Q 666 556 975 473 
Q 1284 391 1588 391 
Q 1994 391 2212 530 
Q 2431 669 2431 922 
Q 2431 1156 2273 1281 
Q 2116 1406 1581 1522 
L 1381 1569 
Q 847 1681 609 1914 
Q 372 2147 372 2553 
Q 372 3047 722 3315 
Q 1072 3584 1716 3584 
Q 2034 3584 2315 3537 
Q 2597 3491 2834 3397 
z
" transform="scale(0.015625)"/>
      <path id="DejaVuSans-e3" d="M 2194 1759 
Q 1497 1759 1228 1600 
Q 959 1441 959 1056 
Q 959 750 1161 570 
Q 1363 391 1709 391 
Q 2188 391 2477 730 
Q 2766 1069 2766 1631 
L 2766 1759 
L 2194 1759 
z
M 3341 1997 
L 3341 0 
L 2766 0 
L 2766 531 
Q 2569 213 2275 61 
Q 1981 -91 1556 -91 
Q 1019 -91 701 211 
Q 384 513 384 1019 
Q 384 1609 779 1909 
Q 1175 2209 1959 2209 
L 2766 2209 
L 2766 2266 
Q 2766 2663 2505 2880 
Q 2244 3097 1772 3097 
Q 1472 3097 1187 3025 
Q 903 2953 641 2809 
L 641 3341 
Q 956 3463 1253 3523 
Q 1550 3584 1831 3584 
Q 2591 3584 2966 3190 
Q 3341 2797 3341 1997 
z
M 1844 4281 
L 1665 4453 
Q 1597 4516 1545 4545 
Q 1494 4575 1453 4575 
Q 1334 4575 1278 4461 
Q 1222 4347 1215 4091 
L 825 4091 
Q 831 4513 990 4742 
Q 1150 4972 1434 4972 
Q 1553 4972 1653 4928 
Q 1753 4884 1869 4781 
L 2047 4609 
Q 2115 4547 2167 4517 
Q 2219 4488 2259 4488 
Q 2378 4488 2434 4602 
Q 2490 4716 2497 4972 
L 2887 4972 
Q 2881 4550 2721 4320 
Q 2562 4091 2278 4091 
Q 2159 4091 2059 4134 
Q 1959 4178 1844 4281 
z
" transform="scale(0.015625)"/>
      <path id="DejaVuSans-6f" d="M 1959 3097 
Q 1497 3097 1228 2736 
Q 959 2375 959 1747 
Q 959 1119 1226 758 
Q 1494 397 1959 397 
Q 2419 397 2687 759 
Q 2956 1122 2956 1747 
Q 2956 2369 2687 2733 
Q 2419 3097 1959 3097 
z
M 1959 3584 
Q 2709 3584 3137 3096 
Q 3566 2609 3566 1747 
Q 3566 888 3137 398 
Q 2709 -91 1959 -91 
Q 1206 -91 779 398 
Q 353 888 353 1747 
Q 353 2609 779 3096 
Q 1206 3584 1959 3584 
z
" transform="scale(0.015625)"/>
      <path id="DejaVuSans-3a" d="M 750 794 
L 1409 794 
L 1409 0 
L 750 0 
L 750 794 
z
M 750 3309 
L 1409 3309 
L 1409 2516 
L 750 2516 
L 750 3309 
z
" transform="scale(0.015625)"/>
      <path id="DejaVuSans-20" transform="scale(0.015625)"/>
      <path id="DejaVuSans-61" d="M 2194 1759 
Q 1497 1759 1228 1600 
Q 959 1441 959 1056 
Q 959 750 1161 570 
Q 1363 391 1709 391 
Q 2188 391 2477 730 
Q 2766 1069 2766 1631 
L 2766 1759 
L 2194 1759 
z
M 3341 1997 
L 3341 0 
L 2766 0 
L 2766 531 
Q 2569 213 2275 61 
Q 1981 -91 1556 -91 
Q 1019 -91 701 211 
Q 384 513 384 1019 
Q 384 1609 779 1909 
Q 1175 2209 1959 2209 
L 2766 2209 
L 2766 2266 
Q 2766 2663 2505 2880 
Q 2244 3097 1772 3097 
Q 1472 3097 1187 3025 
Q 903 2953 641 2809 
L 641 3341 
Q 956 3463 1253 3523 
Q 1550 3584 1831 3584 
Q 2591 3584 2966 3190 
Q 3341 2797 3341 1997 
z
" transform="scale(0.015625)"/>
      <path id="DejaVuSans-6c" d="M 603 4863 
L 1178 4863 
L 1178 0 
L 603 0 
L 603 4863 
z
" transform="scale(0.015625)"/>
      <path id="DejaVuSans-76" d="M 191 3500 
L 800 3500 
L 1894 563 
L 2988 3500 
L 3597 3500 
L 2284 0 
L 1503 0 
L 191 3500 
z
" transform="scale(0.015625)"/>
      <path id="DejaVuSans-50" d="M 1259 4147 
L 1259 2394 
L 2053 2394 
Q 2494 2394 2734 2622 
Q 2975 2850 2975 3272 
Q 2975 3691 2734 3919 
Q 2494 4147 2053 4147 
L 1259 4147 
z
M 628 4666 
L 2053 4666 
Q 2838 4666 3239 4311 
Q 3641 3956 3641 3272 
Q 3641 2581 3239 2228 
Q 2838 1875 2053 1875 
L 1259 1875 
L 1259 0 
L 628 0 
L 628 4666 
z
" transform="scale(0.015625)"/>
      <path id="DejaVuSans-69" d="M 603 3500 
L 1178 3500 
L 1178 0 
L 603 0 
L 603 3500 
z
M 603 4863 
L 1178 4863 
L 1178 4134 
L 603 4134 
L 603 4863 
z
" transform="scale(0.015625)"/>
      <path id="DejaVuSans-74" d="M 1172 4494 
L 1172 3500 
L 2356 3500 
L 2356 3053 
L 1172 3053 
L 1172 1153 
Q 1172 725 1289 603 
Q 1406 481 1766 481 
L 2356 481 
L 2356 0 
L 1766 0 
Q 1100 0 847 248 
Q 594 497 594 1153 
L 594 3053 
L 172 3053 
L 172 3500 
L 594 3500 
L 594 4494 
L 1172 4494 
z
" transform="scale(0.015625)"/>
     </defs>
     <use xlink:href="#DejaVuSans-52"/>
     <use xlink:href="#DejaVuSans-65" x="64.982422"/>
     <use xlink:href="#DejaVuSans-67" x="126.505859"/>
     <use xlink:href="#DejaVuSans-72" x="189.982422"/>
     <use xlink:href="#DejaVuSans-65" x="228.845703"/>
     <use xlink:href="#DejaVuSans-73" x="290.369141"/>
     <use xlink:href="#DejaVuSans-73" x="342.46875"/>
     <use xlink:href="#DejaVuSans-e3" x="394.568359"/>
     <use xlink:href="#DejaVuSans-6f" x="455.847656"/>
     <use xlink:href="#DejaVuSans-3a" x="517.029297"/>
     <use xlink:href="#DejaVuSans-20" x="550.720703"/>
     <use xlink:href="#DejaVuSans-52" x="582.507812"/>
     <use xlink:href="#DejaVuSans-65" x="647.490234"/>
     <use xlink:href="#DejaVuSans-61" x="709.013672"/>
     <use xlink:href="#DejaVuSans-6c" x="770.292969"/>
     <use xlink:href="#DejaVuSans-20" x="798.076172"/>
     <use xlink:href="#DejaVuSans-76" x="829.863281"/>
     <use xlink:href="#DejaVuSans-73" x="889.042969"/>
     <use xlink:href="#DejaVuSans-20" x="941.142578"/>
     <use xlink:href="#DejaVuSans-50" x="972.929688"/>
     <use xlink:href="#DejaVuSans-72" x="1031.482422"/>
     <use xlink:href="#DejaVuSans-65" x="1070.345703"/>
     <use xlink:href="#DejaVuSans-76" x="1131.869141"/>
     <use xlink:href="#DejaVuSans-69" x="1191.048828"/>
     <use xlink:href="#DejaVuSans-73" x="1218.832031"/>
     <use xlink:href="#DejaVuSans-74" x="1270.931641"/>
     <use xlink:href="#DejaVuSans-6f" x="1310.140625"/>
    </g>
   </g>
   <g id="legend_1">
    <g id="patch_7">
     <path d="M 115 379.48 
L 213.284375 379.48 
Q 215.284375 379.48 215.284375 377.48 
L 215.284375 349.12375 
Q 215.284375 347.12375 213.284375 347.12375 
L 115 347.12375 
Q 113 347.12375 113 349.12375 
L 113 377.48 
Q 113 379.48 115 379.48 
z
" style="fill: #ffffff; opacity: 0.8; stroke: #cccccc; stroke-linejoin: miter"/>
    </g>
    <g id="line2d_18">
     <path d="M 117 355.222188 
L 127 355.222188 
L 137 355.222188 
" style="fill: none; stroke: #1f77b4; stroke-width: 1.5; stroke-linecap: square"/>
    </g>
    <g id="text_17">
     <!-- Valores Reais -->
     <g transform="translate(145 358.722188) scale(0.1 -0.1)">
      <defs>
       <path id="DejaVuSans-56" d="M 1831 0 
L 50 4666 
L 709 4666 
L 2188 738 
L 3669 4666 
L 4325 4666 
L 2547 0 
L 1831 0 
z
" transform="scale(0.015625)"/>
      </defs>
      <use xlink:href="#DejaVuSans-56"/>
      <use xlink:href="#DejaVuSans-61" x="60.658203"/>
      <use xlink:href="#DejaVuSans-6c" x="121.9375"/>
      <use xlink:href="#DejaVuSans-6f" x="149.720703"/>
      <use xlink:href="#DejaVuSans-72" x="210.902344"/>
      <use xlink:href="#DejaVuSans-65" x="249.765625"/>
      <use xlink:href="#DejaVuSans-73" x="311.289062"/>
      <use xlink:href="#DejaVuSans-20" x="363.388672"/>
      <use xlink:href="#DejaVuSans-52" x="395.175781"/>
      <use xlink:href="#DejaVuSans-65" x="460.158203"/>
      <use xlink:href="#DejaVuSans-61" x="521.681641"/>
      <use xlink:href="#DejaVuSans-69" x="582.960938"/>
      <use xlink:href="#DejaVuSans-73" x="610.744141"/>
     </g>
    </g>
    <g id="line2d_19">
     <path d="M 117 369.900312 
L 127 369.900312 
L 137 369.900312 
" style="fill: none; stroke: #ff7f0e; stroke-width: 1.5; stroke-linecap: square"/>
    </g>
    <g id="text_18">
     <!-- Previses -->
     <g transform="translate(145 373.400312) scale(0.1 -0.1)">
      <defs>
       <path id="DejaVuSans-f5" d="M 1959 3097 
Q 1497 3097 1228 2736 
Q 959 2375 959 1747 
Q 959 1119 1226 758 
Q 1494 397 1959 397 
Q 2419 397 2687 759 
Q 2956 1122 2956 1747 
Q 2956 2369 2687 2733 
Q 2419 3097 1959 3097 
z
M 1959 3584 
Q 2709 3584 3137 3096 
Q 3566 2609 3566 1747 
Q 3566 888 3137 398 
Q 2709 -91 1959 -91 
Q 1206 -91 779 398 
Q 353 888 353 1747 
Q 353 2609 779 3096 
Q 1206 3584 1959 3584 
z
M 1948 4281 
L 1769 4453 
Q 1701 4516 1649 4545 
Q 1598 4575 1557 4575 
Q 1438 4575 1382 4461 
Q 1326 4347 1319 4091 
L 929 4091 
Q 935 4513 1094 4742 
Q 1254 4972 1538 4972 
Q 1657 4972 1757 4928 
Q 1857 4884 1973 4781 
L 2151 4609 
Q 2219 4547 2271 4517 
Q 2323 4488 2363 4488 
Q 2482 4488 2538 4602 
Q 2594 4716 2601 4972 
L 2991 4972 
Q 2985 4550 2825 4320 
Q 2666 4091 2382 4091 
Q 2263 4091 2163 4134 
Q 2063 4178 1948 4281 
z
" transform="scale(0.015625)"/>
      </defs>
      <use xlink:href="#DejaVuSans-50"/>
      <use xlink:href="#DejaVuSans-72" x="58.552734"/>
      <use xlink:href="#DejaVuSans-65" x="97.416016"/>
      <use xlink:href="#DejaVuSans-76" x="158.939453"/>
      <use xlink:href="#DejaVuSans-69" x="218.119141"/>
      <use xlink:href="#DejaVuSans-73" x="245.902344"/>
      <use xlink:href="#DejaVuSans-f5" x="298.001953"/>
      <use xlink:href="#DejaVuSans-65" x="359.183594"/>
      <use xlink:href="#DejaVuSans-73" x="420.707031"/>
     </g>
    </g>
   </g>
  </g>
 </g>
 <defs>
  <clipPath id="pb805d1f4af">
   <rect x="108" y="51.84" width="669.6" height="332.64"/>
  </clipPath>
 </defs>
</svg>
