<?xml version="1.0" encoding="utf-8" standalone="no"?>
<!DOCTYPE svg PUBLIC "-//W3C//DTD SVG 1.1//EN"
  "http://www.w3.org/Graphics/SVG/1.1/DTD/svg11.dtd">
<svg xmlns:xlink="http://www.w3.org/1999/xlink" width="864pt" height="432pt" viewBox="0 0 864 432" xmlns="http://www.w3.org/2000/svg" version="1.1">
 <metadata>
  <rdf:RDF xmlns:dc="http://purl.org/dc/elements/1.1/" xmlns:cc="http://creativecommons.org/ns#" xmlns:rdf="http://www.w3.org/1999/02/22-rdf-syntax-ns#">
   <cc:Work>
    <dc:type rdf:resource="http://purl.org/dc/dcmitype/StillImage"/>
    <dc:date>2024-11-24T15:16:55.067447</dc:date>
    <dc:format>image/svg+xml</dc:format>
    <dc:creator>
     <cc:Agent>
      <dc:title>Matplotlib v3.9.2, https://matplotlib.org/</dc:title>
     </cc:Agent>
    </dc:creator>
   </cc:Work>
  </rdf:RDF>
 </metadata>
 <defs>
  <style type="text/css">*{stroke-linejoin: round; stroke-linecap: butt}</style>
 </defs>
 <g id="figure_1">
  <g id="patch_1">
   <path d="M 0 432 
L 864 432 
L 864 0 
L 0 0 
z
" style="fill: #ffffff"/>
  </g>
  <g id="axes_1">
   <g id="patch_2">
    <path d="M 108 384.48 
L 777.6 384.48 
L 777.6 51.84 
L 108 51.84 
z
" style="fill: #ffffff"/>
   </g>
   <g id="matplotlib.axis_1">
    <g id="xtick_1">
     <g id="line2d_1">
      <defs>
       <path id="m3efd654cf3" d="M 0 0 
L 0 3.5 
" style="stroke: #000000; stroke-width: 0.8"/>
      </defs>
      <g>
       <use xlink:href="#m3efd654cf3" x="138.436364" y="384.48" style="stroke: #000000; stroke-width: 0.8"/>
      </g>
     </g>
     <g id="text_1">
      <!-- 0 -->
      <g transform="translate(135.255114 399.078438) scale(0.1 -0.1)">
       <defs>
        <path id="DejaVuSans-30" d="M 2034 4250 
Q 1547 4250 1301 3770 
Q 1056 3291 1056 2328 
Q 1056 1369 1301 889 
Q 1547 409 2034 409 
Q 2525 409 2770 889 
Q 3016 1369 3016 2328 
Q 3016 3291 2770 3770 
Q 2525 4250 2034 4250 
z
M 2034 4750 
Q 2819 4750 3233 4129 
Q 3647 3509 3647 2328 
Q 3647 1150 3233 529 
Q 2819 -91 2034 -91 
Q 1250 -91 836 529 
Q 422 1150 422 2328 
Q 422 3509 836 4129 
Q 1250 4750 2034 4750 
z
" transform="scale(0.015625)"/>
       </defs>
       <use xlink:href="#DejaVuSans-30"/>
      </g>
     </g>
    </g>
    <g id="xtick_2">
     <g id="line2d_2">
      <g>
       <use xlink:href="#m3efd654cf3" x="231.513928" y="384.48" style="stroke: #000000; stroke-width: 0.8"/>
      </g>
     </g>
     <g id="text_2">
      <!-- 200 -->
      <g transform="translate(221.970178 399.078438) scale(0.1 -0.1)">
       <defs>
        <path id="DejaVuSans-32" d="M 1228 531 
L 3431 531 
L 3431 0 
L 469 0 
L 469 531 
Q 828 903 1448 1529 
Q 2069 2156 2228 2338 
Q 2531 2678 2651 2914 
Q 2772 3150 2772 3378 
Q 2772 3750 2511 3984 
Q 2250 4219 1831 4219 
Q 1534 4219 1204 4116 
Q 875 4013 500 3803 
L 500 4441 
Q 881 4594 1212 4672 
Q 1544 4750 1819 4750 
Q 2544 4750 2975 4387 
Q 3406 4025 3406 3419 
Q 3406 3131 3298 2873 
Q 3191 2616 2906 2266 
Q 2828 2175 2409 1742 
Q 1991 1309 1228 531 
z
" transform="scale(0.015625)"/>
       </defs>
       <use xlink:href="#DejaVuSans-32"/>
       <use xlink:href="#DejaVuSans-30" x="63.623047"/>
       <use xlink:href="#DejaVuSans-30" x="127.246094"/>
      </g>
     </g>
    </g>
    <g id="xtick_3">
     <g id="line2d_3">
      <g>
       <use xlink:href="#m3efd654cf3" x="324.591493" y="384.48" style="stroke: #000000; stroke-width: 0.8"/>
      </g>
     </g>
     <g id="text_3">
      <!-- 400 -->
      <g transform="translate(315.047743 399.078438) scale(0.1 -0.1)">
       <defs>
        <path id="DejaVuSans-34" d="M 2419 4116 
L 825 1625 
L 2419 1625 
L 2419 4116 
z
M 2253 4666 
L 3047 4666 
L 3047 1625 
L 3713 1625 
L 3713 1100 
L 3047 1100 
L 3047 0 
L 2419 0 
L 2419 1100 
L 313 1100 
L 313 1709 
L 2253 4666 
z
" transform="scale(0.015625)"/>
       </defs>
       <use xlink:href="#DejaVuSans-34"/>
       <use xlink:href="#DejaVuSans-30" x="63.623047"/>
       <use xlink:href="#DejaVuSans-30" x="127.246094"/>
      </g>
     </g>
    </g>
    <g id="xtick_4">
     <g id="line2d_4">
      <g>
       <use xlink:href="#m3efd654cf3" x="417.669058" y="384.48" style="stroke: #000000; stroke-width: 0.8"/>
      </g>
     </g>
     <g id="text_4">
      <!-- 600 -->
      <g transform="translate(408.125308 399.078438) scale(0.1 -0.1)">
       <defs>
        <path id="DejaVuSans-36" d="M 2113 2584 
Q 1688 2584 1439 2293 
Q 1191 2003 1191 1497 
Q 1191 994 1439 701 
Q 1688 409 2113 409 
Q 2538 409 2786 701 
Q 3034 994 3034 1497 
Q 3034 2003 2786 2293 
Q 2538 2584 2113 2584 
z
M 3366 4563 
L 3366 3988 
Q 3128 4100 2886 4159 
Q 2644 4219 2406 4219 
Q 1781 4219 1451 3797 
Q 1122 3375 1075 2522 
Q 1259 2794 1537 2939 
Q 1816 3084 2150 3084 
Q 2853 3084 3261 2657 
Q 3669 2231 3669 1497 
Q 3669 778 3244 343 
Q 2819 -91 2113 -91 
Q 1303 -91 875 529 
Q 447 1150 447 2328 
Q 447 3434 972 4092 
Q 1497 4750 2381 4750 
Q 2619 4750 2861 4703 
Q 3103 4656 3366 4563 
z
" transform="scale(0.015625)"/>
       </defs>
       <use xlink:href="#DejaVuSans-36"/>
       <use xlink:href="#DejaVuSans-30" x="63.623047"/>
       <use xlink:href="#DejaVuSans-30" x="127.246094"/>
      </g>
     </g>
    </g>
    <g id="xtick_5">
     <g id="line2d_5">
      <g>
       <use xlink:href="#m3efd654cf3" x="510.746622" y="384.48" style="stroke: #000000; stroke-width: 0.8"/>
      </g>
     </g>
     <g id="text_5">
      <!-- 800 -->
      <g transform="translate(501.202872 399.078438) scale(0.1 -0.1)">
       <defs>
        <path id="DejaVuSans-38" d="M 2034 2216 
Q 1584 2216 1326 1975 
Q 1069 1734 1069 1313 
Q 1069 891 1326 650 
Q 1584 409 2034 409 
Q 2484 409 2743 651 
Q 3003 894 3003 1313 
Q 3003 1734 2745 1975 
Q 2488 2216 2034 2216 
z
M 1403 2484 
Q 997 2584 770 2862 
Q 544 3141 544 3541 
Q 544 4100 942 4425 
Q 1341 4750 2034 4750 
Q 2731 4750 3128 4425 
Q 3525 4100 3525 3541 
Q 3525 3141 3298 2862 
Q 3072 2584 2669 2484 
Q 3125 2378 3379 2068 
Q 3634 1759 3634 1313 
Q 3634 634 3220 271 
Q 2806 -91 2034 -91 
Q 1263 -91 848 271 
Q 434 634 434 1313 
Q 434 1759 690 2068 
Q 947 2378 1403 2484 
z
M 1172 3481 
Q 1172 3119 1398 2916 
Q 1625 2713 2034 2713 
Q 2441 2713 2670 2916 
Q 2900 3119 2900 3481 
Q 2900 3844 2670 4047 
Q 2441 4250 2034 4250 
Q 1625 4250 1398 4047 
Q 1172 3844 1172 3481 
z
" transform="scale(0.015625)"/>
       </defs>
       <use xlink:href="#DejaVuSans-38"/>
       <use xlink:href="#DejaVuSans-30" x="63.623047"/>
       <use xlink:href="#DejaVuSans-30" x="127.246094"/>
      </g>
     </g>
    </g>
    <g id="xtick_6">
     <g id="line2d_6">
      <g>
       <use xlink:href="#m3efd654cf3" x="603.824187" y="384.48" style="stroke: #000000; stroke-width: 0.8"/>
      </g>
     </g>
     <g id="text_6">
      <!-- 1000 -->
      <g transform="translate(591.099187 399.078438) scale(0.1 -0.1)">
       <defs>
        <path id="DejaVuSans-31" d="M 794 531 
L 1825 531 
L 1825 4091 
L 703 3866 
L 703 4441 
L 1819 4666 
L 2450 4666 
L 2450 531 
L 3481 531 
L 3481 0 
L 794 0 
L 794 531 
z
" transform="scale(0.015625)"/>
       </defs>
       <use xlink:href="#DejaVuSans-31"/>
       <use xlink:href="#DejaVuSans-30" x="63.623047"/>
       <use xlink:href="#DejaVuSans-30" x="127.246094"/>
       <use xlink:href="#DejaVuSans-30" x="190.869141"/>
      </g>
     </g>
    </g>
    <g id="xtick_7">
     <g id="line2d_7">
      <g>
       <use xlink:href="#m3efd654cf3" x="696.901751" y="384.48" style="stroke: #000000; stroke-width: 0.8"/>
      </g>
     </g>
     <g id="text_7">
      <!-- 1200 -->
      <g transform="translate(684.176751 399.078438) scale(0.1 -0.1)">
       <use xlink:href="#DejaVuSans-31"/>
       <use xlink:href="#DejaVuSans-32" x="63.623047"/>
       <use xlink:href="#DejaVuSans-30" x="127.246094"/>
       <use xlink:href="#DejaVuSans-30" x="190.869141"/>
      </g>
     </g>
    </g>
   </g>
   <g id="matplotlib.axis_2">
    <g id="ytick_1">
     <g id="line2d_8">
      <defs>
       <path id="m5a619473cd" d="M 0 0 
L -3.5 0 
" style="stroke: #000000; stroke-width: 0.8"/>
      </defs>
      <g>
       <use xlink:href="#m5a619473cd" x="108" y="349.2" style="stroke: #000000; stroke-width: 0.8"/>
      </g>
     </g>
     <g id="text_8">
      <!-- 2 -->
      <g transform="translate(94.6375 352.999219) scale(0.1 -0.1)">
       <use xlink:href="#DejaVuSans-32"/>
      </g>
     </g>
    </g>
    <g id="ytick_2">
     <g id="line2d_9">
      <g>
       <use xlink:href="#m5a619473cd" x="108" y="308.88" style="stroke: #000000; stroke-width: 0.8"/>
      </g>
     </g>
     <g id="text_9">
      <!-- 4 -->
      <g transform="translate(94.6375 312.679219) scale(0.1 -0.1)">
       <use xlink:href="#DejaVuSans-34"/>
      </g>
     </g>
    </g>
    <g id="ytick_3">
     <g id="line2d_10">
      <g>
       <use xlink:href="#m5a619473cd" x="108" y="268.56" style="stroke: #000000; stroke-width: 0.8"/>
      </g>
     </g>
     <g id="text_10">
      <!-- 6 -->
      <g transform="translate(94.6375 272.359219) scale(0.1 -0.1)">
       <use xlink:href="#DejaVuSans-36"/>
      </g>
     </g>
    </g>
    <g id="ytick_4">
     <g id="line2d_11">
      <g>
       <use xlink:href="#m5a619473cd" x="108" y="228.24" style="stroke: #000000; stroke-width: 0.8"/>
      </g>
     </g>
     <g id="text_11">
      <!-- 8 -->
      <g transform="translate(94.6375 232.039219) scale(0.1 -0.1)">
       <use xlink:href="#DejaVuSans-38"/>
      </g>
     </g>
    </g>
    <g id="ytick_5">
     <g id="line2d_12">
      <g>
       <use xlink:href="#m5a619473cd" x="108" y="187.92" style="stroke: #000000; stroke-width: 0.8"/>
      </g>
     </g>
     <g id="text_12">
      <!-- 10 -->
      <g transform="translate(88.275 191.719219) scale(0.1 -0.1)">
       <use xlink:href="#DejaVuSans-31"/>
       <use xlink:href="#DejaVuSans-30" x="63.623047"/>
      </g>
     </g>
    </g>
    <g id="ytick_6">
     <g id="line2d_13">
      <g>
       <use xlink:href="#m5a619473cd" x="108" y="147.6" style="stroke: #000000; stroke-width: 0.8"/>
      </g>
     </g>
     <g id="text_13">
      <!-- 12 -->
      <g transform="translate(88.275 151.399219) scale(0.1 -0.1)">
       <use xlink:href="#DejaVuSans-31"/>
       <use xlink:href="#DejaVuSans-32" x="63.623047"/>
      </g>
     </g>
    </g>
    <g id="ytick_7">
     <g id="line2d_14">
      <g>
       <use xlink:href="#m5a619473cd" x="108" y="107.28" style="stroke: #000000; stroke-width: 0.8"/>
      </g>
     </g>
     <g id="text_14">
      <!-- 14 -->
      <g transform="translate(88.275 111.079219) scale(0.1 -0.1)">
       <use xlink:href="#DejaVuSans-31"/>
       <use xlink:href="#DejaVuSans-34" x="63.623047"/>
      </g>
     </g>
    </g>
    <g id="ytick_8">
     <g id="line2d_15">
      <g>
       <use xlink:href="#m5a619473cd" x="108" y="66.96" style="stroke: #000000; stroke-width: 0.8"/>
      </g>
     </g>
     <g id="text_15">
      <!-- 16 -->
      <g transform="translate(88.275 70.759219) scale(0.1 -0.1)">
       <use xlink:href="#DejaVuSans-31"/>
       <use xlink:href="#DejaVuSans-36" x="63.623047"/>
      </g>
     </g>
    </g>
   </g>
   <g id="line2d_16">
    <path d="M 138.436364 147.6 
L 139.367139 308.88 
L 139.832527 87.12 
L 140.297915 288.72 
L 140.763303 329.04 
L 141.228691 147.6 
L 141.694078 228.24 
L 142.159466 187.92 
L 142.624854 187.92 
L 143.090242 288.72 
L 143.55563 268.56 
L 144.021018 228.24 
L 144.486405 87.12 
L 144.951793 268.56 
L 145.417181 288.72 
L 145.882569 329.04 
L 146.347957 228.24 
L 146.813344 187.92 
L 147.278732 288.72 
L 147.74412 87.12 
L 148.209508 288.72 
L 148.674896 329.04 
L 149.140284 228.24 
L 149.605671 288.72 
L 150.071059 268.56 
L 150.536447 87.12 
L 151.001835 288.72 
L 151.467223 268.56 
L 151.932611 308.88 
L 152.397998 187.92 
L 152.863386 228.24 
L 153.328774 329.04 
L 153.794162 288.72 
L 154.25955 208.08 
L 154.724937 288.72 
L 155.190325 268.56 
L 155.655713 288.72 
L 156.121101 329.04 
L 156.586489 288.72 
L 157.517264 288.72 
L 157.982652 228.24 
L 158.44804 147.6 
L 158.913428 268.56 
L 159.378816 87.12 
L 159.844204 329.04 
L 160.309591 288.72 
L 160.774979 187.92 
L 161.240367 187.92 
L 161.705755 228.24 
L 162.171143 66.96 
L 162.63653 147.6 
L 163.101918 288.72 
L 163.567306 268.56 
L 164.032694 288.72 
L 164.498082 288.72 
L 164.96347 228.24 
L 165.428857 147.6 
L 165.894245 288.72 
L 166.359633 228.24 
L 166.825021 329.04 
L 167.290409 187.92 
L 167.755796 268.56 
L 168.221184 288.72 
L 168.686572 187.92 
L 169.15196 187.92 
L 169.617348 147.6 
L 170.082736 187.92 
L 170.548123 187.92 
L 171.013511 268.56 
L 171.478899 288.72 
L 172.409675 288.72 
L 172.875063 228.24 
L 173.34045 288.72 
L 173.805838 127.44 
L 174.271226 288.72 
L 174.736614 87.12 
L 175.202002 228.24 
L 175.667389 288.72 
L 176.598165 288.72 
L 177.063553 187.92 
L 177.528941 228.24 
L 177.994329 288.72 
L 178.459716 308.88 
L 178.925104 147.6 
L 179.390492 147.6 
L 179.85588 268.56 
L 180.321268 187.92 
L 180.786656 147.6 
L 181.252043 187.92 
L 181.717431 147.6 
L 182.182819 87.12 
L 182.648207 268.56 
L 183.113595 248.4 
L 183.578982 187.92 
L 184.04437 187.92 
L 184.975146 268.56 
L 185.440534 288.72 
L 185.905922 288.72 
L 186.371309 187.92 
L 186.836697 288.72 
L 187.302085 288.72 
L 187.767473 308.88 
L 188.232861 268.56 
L 188.698249 288.72 
L 189.163636 87.12 
L 189.629024 268.56 
L 190.094412 167.76 
L 190.5598 268.56 
L 191.025188 268.56 
L 191.490575 228.24 
L 191.955963 288.72 
L 192.421351 268.56 
L 192.886739 147.6 
L 193.352127 228.24 
L 193.817515 187.92 
L 194.282902 329.04 
L 194.74829 268.56 
L 195.213678 147.6 
L 195.679066 268.56 
L 196.144454 87.12 
L 196.609842 308.88 
L 197.075229 187.92 
L 197.540617 268.56 
L 198.006005 329.04 
L 198.471393 268.56 
L 198.936781 288.72 
L 199.402168 87.12 
L 199.867556 228.24 
L 200.332944 329.04 
L 200.798332 288.72 
L 201.26372 268.56 
L 201.729108 187.92 
L 202.194495 228.24 
L 202.659883 147.6 
L 203.125271 87.12 
L 203.590659 288.72 
L 204.056047 187.92 
L 204.521435 187.92 
L 204.986822 147.6 
L 205.45221 87.12 
L 205.917598 187.92 
L 206.382986 187.92 
L 206.848374 288.72 
L 207.313761 268.56 
L 207.779149 228.24 
L 208.244537 288.72 
L 208.709925 187.92 
L 209.175313 288.72 
L 209.640701 187.92 
L 210.106088 288.72 
L 210.571476 288.72 
L 211.036864 167.76 
L 211.502252 187.92 
L 211.96764 288.72 
L 212.433028 329.04 
L 212.898415 288.72 
L 213.363803 228.24 
L 213.829191 228.24 
L 214.294579 329.04 
L 214.759967 288.72 
L 215.225354 87.12 
L 215.690742 329.04 
L 216.15613 288.72 
L 216.621518 228.24 
L 217.086906 187.92 
L 218.017681 268.56 
L 218.483069 147.6 
L 218.948457 147.6 
L 219.413845 187.92 
L 219.879233 187.92 
L 220.344621 147.6 
L 220.810008 288.72 
L 221.275396 268.56 
L 221.740784 147.6 
L 222.206172 187.92 
L 222.67156 167.76 
L 223.136947 228.24 
L 223.602335 228.24 
L 224.067723 268.56 
L 224.533111 248.4 
L 224.998499 288.72 
L 225.463887 127.44 
L 225.929274 268.56 
L 226.394662 187.92 
L 226.86005 288.72 
L 227.325438 187.92 
L 227.790826 288.72 
L 228.256214 329.04 
L 228.721601 187.92 
L 229.186989 187.92 
L 229.652377 127.44 
L 230.117765 147.6 
L 230.583153 228.24 
L 231.04854 288.72 
L 231.513928 228.24 
L 231.979316 107.28 
L 232.444704 288.72 
L 232.910092 187.92 
L 233.37548 187.92 
L 234.306255 308.88 
L 234.771643 329.04 
L 235.237031 288.72 
L 235.702419 187.92 
L 236.167807 288.72 
L 236.633194 308.88 
L 237.098582 187.92 
L 237.56397 228.24 
L 238.029358 288.72 
L 238.494746 187.92 
L 238.960133 127.44 
L 239.425521 228.24 
L 239.890909 288.72 
L 240.356297 228.24 
L 240.821685 288.72 
L 241.287073 228.24 
L 241.75246 187.92 
L 242.217848 228.24 
L 242.683236 228.24 
L 243.148624 187.92 
L 243.614012 228.24 
L 244.079399 288.72 
L 244.544787 288.72 
L 245.010175 268.56 
L 245.475563 187.92 
L 245.940951 268.56 
L 246.406339 187.92 
L 246.871726 187.92 
L 247.337114 268.56 
L 247.802502 288.72 
L 248.26789 248.4 
L 249.198666 288.72 
L 249.664053 268.56 
L 250.129441 288.72 
L 250.594829 107.28 
L 251.060217 228.24 
L 251.525605 187.92 
L 251.990992 288.72 
L 252.45638 228.24 
L 253.387156 147.6 
L 253.852544 147.6 
L 254.317932 187.92 
L 254.783319 288.72 
L 255.248707 147.6 
L 255.714095 329.04 
L 256.179483 87.12 
L 256.644871 87.12 
L 257.110259 208.08 
L 257.575646 288.72 
L 258.041034 147.6 
L 258.506422 187.92 
L 258.97181 288.72 
L 259.437198 329.04 
L 259.902585 288.72 
L 260.367973 268.56 
L 260.833361 87.12 
L 261.298749 288.72 
L 261.764137 288.72 
L 262.229525 208.08 
L 262.694912 288.72 
L 263.1603 288.72 
L 264.091076 248.4 
L 264.556464 147.6 
L 265.021852 288.72 
L 265.487239 187.92 
L 265.952627 288.72 
L 266.418015 288.72 
L 266.883403 268.56 
L 267.348791 268.56 
L 267.814178 288.72 
L 268.279566 228.24 
L 268.744954 147.6 
L 269.210342 228.24 
L 269.67573 187.92 
L 270.141118 288.72 
L 270.606505 187.92 
L 271.537281 268.56 
L 272.002669 187.92 
L 272.468057 228.24 
L 272.933445 288.72 
L 273.398832 329.04 
L 273.86422 288.72 
L 274.329608 288.72 
L 274.794996 228.24 
L 275.260384 228.24 
L 275.725771 187.92 
L 276.191159 208.08 
L 276.656547 147.6 
L 277.121935 288.72 
L 277.587323 187.92 
L 278.052711 147.6 
L 278.518098 147.6 
L 278.983486 268.56 
L 279.448874 329.04 
L 279.914262 288.72 
L 280.37965 288.72 
L 280.845038 268.56 
L 281.310425 288.72 
L 281.775813 288.72 
L 282.241201 187.92 
L 282.706589 228.24 
L 283.171977 187.92 
L 283.637364 66.96 
L 284.102752 268.56 
L 284.56814 288.72 
L 285.033528 187.92 
L 285.498916 187.92 
L 285.964304 268.56 
L 286.429691 268.56 
L 286.895079 228.24 
L 287.360467 228.24 
L 287.825855 167.76 
L 288.291243 147.6 
L 288.756631 187.92 
L 289.222018 288.72 
L 289.687406 288.72 
L 290.152794 228.24 
L 290.618182 147.6 
L 291.08357 228.24 
L 291.548957 187.92 
L 292.014345 228.24 
L 292.479733 187.92 
L 292.945121 268.56 
L 293.410509 187.92 
L 293.875897 248.4 
L 294.341284 268.56 
L 294.806672 308.88 
L 295.27206 187.92 
L 295.737448 329.04 
L 296.202836 228.24 
L 296.668224 87.12 
L 297.133611 268.56 
L 297.598999 127.44 
L 298.529775 349.2 
L 298.995163 288.72 
L 299.46055 87.12 
L 299.925938 268.56 
L 300.391326 288.72 
L 300.856714 147.6 
L 301.322102 288.72 
L 301.78749 87.12 
L 302.252877 268.56 
L 302.718265 248.4 
L 303.183653 329.04 
L 303.649041 288.72 
L 304.114429 147.6 
L 304.579817 228.24 
L 305.045204 87.12 
L 305.510592 127.44 
L 305.97598 187.92 
L 306.441368 228.24 
L 306.906756 228.24 
L 307.372143 288.72 
L 307.837531 147.6 
L 308.302919 288.72 
L 308.768307 228.24 
L 309.233695 187.92 
L 309.699083 349.2 
L 310.16447 127.44 
L 310.629858 268.56 
L 311.095246 187.92 
L 311.560634 167.76 
L 312.49141 288.72 
L 312.956797 228.24 
L 313.422185 228.24 
L 313.887573 288.72 
L 314.352961 87.12 
L 314.818349 288.72 
L 315.283736 288.72 
L 315.749124 228.24 
L 316.214512 228.24 
L 316.6799 329.04 
L 317.145288 288.72 
L 317.610676 147.6 
L 318.541451 228.24 
L 319.006839 329.04 
L 319.472227 228.24 
L 319.937615 288.72 
L 320.403003 147.6 
L 320.86839 288.72 
L 321.333778 228.24 
L 321.799166 147.6 
L 322.264554 147.6 
L 322.729942 329.04 
L 323.195329 268.56 
L 323.660717 228.24 
L 324.126105 228.24 
L 324.591493 288.72 
L 325.522269 288.72 
L 325.987656 228.24 
L 326.453044 147.6 
L 326.918432 288.72 
L 327.38382 228.24 
L 327.849208 288.72 
L 328.314595 87.12 
L 328.779983 147.6 
L 329.245371 288.72 
L 329.710759 228.24 
L 330.176147 187.92 
L 330.641535 268.56 
L 331.106922 208.08 
L 331.57231 268.56 
L 332.037698 288.72 
L 332.503086 147.6 
L 333.433862 228.24 
L 333.899249 187.92 
L 334.364637 187.92 
L 334.830025 288.72 
L 335.295413 87.12 
L 335.760801 147.6 
L 336.691576 147.6 
L 337.156964 228.24 
L 337.622352 187.92 
L 338.08774 288.72 
L 338.553128 308.88 
L 339.018515 288.72 
L 339.483903 248.4 
L 340.414679 329.04 
L 340.880067 187.92 
L 341.345455 228.24 
L 341.810842 288.72 
L 342.27623 288.72 
L 342.741618 268.56 
L 343.672394 187.92 
L 344.137781 288.72 
L 344.603169 147.6 
L 345.068557 228.24 
L 345.533945 208.08 
L 345.999333 87.12 
L 346.464721 187.92 
L 346.930108 228.24 
L 347.395496 288.72 
L 347.860884 87.12 
L 348.326272 288.72 
L 348.79166 329.04 
L 349.257048 187.92 
L 349.722435 167.76 
L 350.187823 187.92 
L 350.653211 147.6 
L 351.118599 187.92 
L 351.583987 288.72 
L 352.049374 329.04 
L 352.514762 228.24 
L 352.98015 288.72 
L 353.445538 87.12 
L 354.376314 288.72 
L 354.841701 228.24 
L 355.307089 288.72 
L 355.772477 187.92 
L 356.237865 187.92 
L 356.703253 329.04 
L 357.168641 208.08 
L 357.634028 248.4 
L 358.099416 187.92 
L 358.564804 147.6 
L 359.030192 187.92 
L 359.960967 187.92 
L 360.426355 228.24 
L 360.891743 288.72 
L 361.357131 187.92 
L 361.822519 228.24 
L 362.287907 228.24 
L 362.753294 329.04 
L 363.218682 288.72 
L 364.149458 288.72 
L 364.614846 187.92 
L 365.080234 268.56 
L 366.011009 187.92 
L 366.941785 268.56 
L 367.407173 329.04 
L 367.87256 369.36 
L 368.803336 288.72 
L 369.268724 329.04 
L 369.734112 187.92 
L 370.1995 228.24 
L 370.664887 167.76 
L 371.595663 288.72 
L 372.061051 147.6 
L 372.526439 187.92 
L 372.991827 288.72 
L 373.457214 228.24 
L 373.922602 187.92 
L 374.38799 187.92 
L 375.318766 268.56 
L 375.784153 268.56 
L 376.249541 187.92 
L 376.714929 288.72 
L 377.180317 288.72 
L 377.645705 268.56 
L 378.111093 187.92 
L 378.57648 329.04 
L 379.041868 147.6 
L 379.507256 268.56 
L 379.972644 288.72 
L 380.438032 329.04 
L 380.90342 329.04 
L 381.368807 187.92 
L 381.834195 187.92 
L 382.299583 288.72 
L 382.764971 228.24 
L 383.230359 228.24 
L 383.695746 147.6 
L 384.161134 187.92 
L 384.626522 288.72 
L 385.09191 187.92 
L 385.557298 308.88 
L 386.022686 208.08 
L 386.488073 268.56 
L 387.418849 308.88 
L 387.884237 187.92 
L 388.349625 268.56 
L 388.815013 208.08 
L 389.2804 228.24 
L 389.745788 329.04 
L 390.211176 329.04 
L 390.676564 147.6 
L 391.141952 228.24 
L 391.607339 187.92 
L 392.072727 268.56 
L 392.538115 288.72 
L 393.934279 288.72 
L 394.399666 127.44 
L 394.865054 288.72 
L 395.330442 187.92 
L 395.79583 288.72 
L 396.261218 288.72 
L 396.726606 268.56 
L 397.191993 288.72 
L 397.657381 228.24 
L 398.122769 228.24 
L 398.588157 187.92 
L 399.053545 288.72 
L 399.518932 228.24 
L 399.98432 228.24 
L 400.449708 288.72 
L 400.915096 288.72 
L 401.380484 187.92 
L 401.845872 228.24 
L 402.311259 147.6 
L 402.776647 288.72 
L 403.242035 308.88 
L 403.707423 167.76 
L 404.172811 288.72 
L 404.638198 147.6 
L 405.103586 268.56 
L 405.568974 87.12 
L 406.034362 147.6 
L 406.49975 288.72 
L 406.965138 329.04 
L 407.430525 228.24 
L 407.895913 268.56 
L 408.361301 187.92 
L 408.826689 187.92 
L 409.292077 208.08 
L 409.757465 268.56 
L 410.222852 268.56 
L 410.68824 288.72 
L 411.153628 329.04 
L 411.619016 187.92 
L 412.084404 87.12 
L 412.549791 147.6 
L 413.015179 167.76 
L 413.480567 147.6 
L 413.945955 288.72 
L 414.411343 268.56 
L 414.876731 187.92 
L 415.342118 228.24 
L 415.807506 187.92 
L 416.272894 288.72 
L 416.738282 228.24 
L 417.20367 268.56 
L 417.669058 87.12 
L 418.134445 288.72 
L 418.599833 187.92 
L 419.065221 308.88 
L 419.530609 147.6 
L 419.995997 288.72 
L 420.461384 329.04 
L 420.926772 187.92 
L 421.39216 228.24 
L 421.857548 288.72 
L 422.322936 268.56 
L 422.788324 288.72 
L 423.253711 228.24 
L 423.719099 187.92 
L 424.184487 87.12 
L 424.649875 147.6 
L 425.115263 268.56 
L 425.580651 228.24 
L 426.046038 288.72 
L 426.511426 187.92 
L 426.976814 187.92 
L 427.90759 268.56 
L 428.372977 87.12 
L 428.838365 288.72 
L 429.303753 147.6 
L 429.769141 187.92 
L 430.234529 349.2 
L 431.165304 187.92 
L 431.630692 268.56 
L 432.09608 228.24 
L 432.561468 288.72 
L 433.026856 228.24 
L 433.492244 288.72 
L 433.957631 187.92 
L 434.423019 228.24 
L 435.819183 228.24 
L 436.28457 187.92 
L 437.215346 187.92 
L 437.680734 288.72 
L 438.146122 288.72 
L 438.61151 329.04 
L 439.076897 187.92 
L 439.542285 288.72 
L 440.007673 228.24 
L 440.473061 147.6 
L 440.938449 228.24 
L 441.403837 228.24 
L 441.869224 187.92 
L 442.334612 228.24 
L 443.265388 268.56 
L 443.730776 187.92 
L 444.196163 288.72 
L 444.661551 268.56 
L 445.126939 228.24 
L 445.592327 329.04 
L 446.057715 288.72 
L 446.98849 329.04 
L 447.453878 187.92 
L 447.919266 329.04 
L 448.384654 248.4 
L 448.850042 329.04 
L 449.31543 228.24 
L 449.780817 228.24 
L 450.246205 187.92 
L 450.711593 208.08 
L 451.176981 268.56 
L 451.642369 147.6 
L 452.107756 187.92 
L 452.573144 187.92 
L 453.038532 288.72 
L 453.50392 228.24 
L 453.969308 288.72 
L 454.434696 187.92 
L 454.900083 288.72 
L 455.365471 187.92 
L 455.830859 288.72 
L 456.296247 288.72 
L 456.761635 228.24 
L 457.227023 288.72 
L 457.69241 268.56 
L 458.157798 187.92 
L 458.623186 147.6 
L 459.088574 288.72 
L 459.553962 187.92 
L 460.019349 329.04 
L 460.950125 147.6 
L 461.415513 147.6 
L 461.880901 208.08 
L 462.346289 167.76 
L 462.811676 87.12 
L 463.277064 187.92 
L 463.742452 187.92 
L 464.20784 268.56 
L 464.673228 208.08 
L 465.138616 187.92 
L 465.604003 187.92 
L 466.069391 228.24 
L 466.534779 228.24 
L 467.000167 268.56 
L 467.930942 268.56 
L 468.39633 147.6 
L 468.861718 228.24 
L 469.327106 147.6 
L 469.792494 187.92 
L 470.257882 187.92 
L 470.723269 87.12 
L 471.188657 147.6 
L 471.654045 268.56 
L 472.119433 288.72 
L 472.584821 268.56 
L 473.050209 187.92 
L 473.515596 228.24 
L 473.980984 127.44 
L 474.446372 228.24 
L 474.91176 288.72 
L 475.377148 127.44 
L 475.842535 288.72 
L 476.307923 66.96 
L 476.773311 288.72 
L 477.238699 268.56 
L 478.169475 308.88 
L 478.634862 87.12 
L 479.10025 228.24 
L 479.565638 288.72 
L 480.031026 228.24 
L 480.496414 147.6 
L 480.961802 187.92 
L 481.427189 147.6 
L 481.892577 147.6 
L 482.357965 228.24 
L 482.823353 329.04 
L 483.288741 288.72 
L 483.754128 228.24 
L 484.219516 288.72 
L 484.684904 187.92 
L 485.150292 147.6 
L 486.546455 268.56 
L 487.011843 147.6 
L 487.477231 288.72 
L 487.942619 228.24 
L 488.408007 228.24 
L 488.873394 288.72 
L 489.338782 288.72 
L 489.80417 187.92 
L 490.269558 288.72 
L 490.734946 187.92 
L 491.200334 288.72 
L 492.131109 288.72 
L 492.596497 228.24 
L 493.061885 147.6 
L 493.527273 187.92 
L 493.992661 288.72 
L 494.458048 329.04 
L 494.923436 288.72 
L 495.388824 329.04 
L 495.854212 147.6 
L 496.3196 288.72 
L 496.784987 268.56 
L 497.715763 147.6 
L 498.181151 187.92 
L 498.646539 288.72 
L 499.111927 308.88 
L 499.577314 288.72 
L 500.042702 147.6 
L 500.50809 228.24 
L 500.973478 288.72 
L 501.904254 288.72 
L 502.369641 329.04 
L 502.835029 329.04 
L 503.300417 268.56 
L 503.765805 87.12 
L 504.231193 187.92 
L 504.69658 228.24 
L 505.161968 228.24 
L 505.627356 349.2 
L 506.092744 87.12 
L 506.558132 147.6 
L 507.02352 268.56 
L 507.488907 147.6 
L 507.954295 268.56 
L 508.419683 268.56 
L 508.885071 127.44 
L 509.815847 288.72 
L 510.281234 308.88 
L 510.746622 228.24 
L 511.21201 268.56 
L 511.677398 268.56 
L 512.142786 228.24 
L 512.608173 288.72 
L 513.073561 288.72 
L 513.538949 187.92 
L 514.004337 329.04 
L 514.469725 228.24 
L 514.935113 288.72 
L 515.4005 187.92 
L 515.865888 187.92 
L 516.331276 228.24 
L 516.796664 187.92 
L 517.262052 288.72 
L 517.72744 87.12 
L 518.192827 268.56 
L 518.658215 187.92 
L 519.123603 228.24 
L 519.588991 187.92 
L 520.054379 308.88 
L 520.519766 87.12 
L 520.985154 228.24 
L 521.450542 288.72 
L 521.91593 288.72 
L 522.381318 228.24 
L 522.846706 268.56 
L 523.312093 288.72 
L 523.777481 147.6 
L 524.242869 147.6 
L 524.708257 288.72 
L 525.173645 268.56 
L 525.639033 288.72 
L 526.10442 329.04 
L 527.035196 147.6 
L 527.500584 187.92 
L 527.965972 268.56 
L 528.431359 147.6 
L 528.896747 187.92 
L 529.362135 288.72 
L 529.827523 187.92 
L 530.292911 187.92 
L 530.758299 147.6 
L 531.223686 288.72 
L 531.689074 187.92 
L 532.154462 228.24 
L 532.61985 288.72 
L 533.085238 187.92 
L 533.550626 288.72 
L 534.016013 329.04 
L 534.946789 147.6 
L 535.412177 288.72 
L 535.877565 268.56 
L 536.342952 288.72 
L 536.80834 288.72 
L 537.273728 147.6 
L 537.739116 187.92 
L 538.204504 288.72 
L 538.669892 288.72 
L 539.135279 369.36 
L 539.600667 228.24 
L 540.066055 268.56 
L 540.531443 268.56 
L 540.996831 147.6 
L 541.462219 228.24 
L 541.927606 228.24 
L 542.392994 288.72 
L 542.858382 187.92 
L 543.32377 147.6 
L 543.789158 268.56 
L 544.254545 288.72 
L 544.719933 147.6 
L 545.185321 288.72 
L 545.650709 288.72 
L 546.116097 87.12 
L 546.581485 228.24 
L 547.046872 228.24 
L 547.977648 147.6 
L 548.443036 329.04 
L 548.908424 147.6 
L 549.373812 228.24 
L 549.839199 147.6 
L 550.304587 288.72 
L 550.769975 187.92 
L 551.235363 288.72 
L 551.700751 187.92 
L 552.631526 268.56 
L 553.562302 308.88 
L 554.493078 228.24 
L 554.958465 147.6 
L 555.423853 308.88 
L 555.889241 248.4 
L 556.820017 288.72 
L 557.285405 147.6 
L 557.750792 268.56 
L 558.21618 288.72 
L 558.681568 288.72 
L 559.146956 228.24 
L 559.612344 329.04 
L 560.077731 187.92 
L 560.543119 288.72 
L 561.008507 288.72 
L 561.473895 147.6 
L 561.939283 288.72 
L 562.404671 187.92 
L 562.870058 147.6 
L 563.335446 228.24 
L 563.800834 228.24 
L 564.266222 268.56 
L 564.73161 288.72 
L 565.196997 187.92 
L 565.662385 288.72 
L 566.127773 87.12 
L 566.593161 288.72 
L 567.523937 288.72 
L 567.989324 228.24 
L 568.454712 228.24 
L 568.9201 87.12 
L 569.385488 87.12 
L 569.850876 268.56 
L 570.316264 228.24 
L 570.781651 288.72 
L 571.247039 268.56 
L 571.712427 187.92 
L 572.177815 288.72 
L 572.643203 228.24 
L 573.10859 187.92 
L 573.573978 268.56 
L 574.039366 288.72 
L 574.504754 87.12 
L 574.970142 329.04 
L 575.43553 288.72 
L 575.900917 329.04 
L 576.366305 288.72 
L 576.831693 288.72 
L 577.297081 187.92 
L 577.762469 208.08 
L 578.227857 288.72 
L 578.693244 228.24 
L 579.158632 268.56 
L 579.62402 147.6 
L 580.089408 288.72 
L 580.554796 288.72 
L 581.020183 187.92 
L 581.485571 187.92 
L 581.950959 228.24 
L 582.416347 167.76 
L 582.881735 248.4 
L 583.347123 147.6 
L 583.81251 268.56 
L 584.277898 268.56 
L 584.743286 308.88 
L 585.674062 147.6 
L 586.13945 288.72 
L 586.604837 107.28 
L 587.070225 288.72 
L 587.535613 87.12 
L 588.001001 349.2 
L 588.466389 187.92 
L 588.931776 288.72 
L 589.397164 228.24 
L 589.862552 288.72 
L 590.32794 308.88 
L 590.793328 187.92 
L 591.258716 147.6 
L 591.724103 228.24 
L 592.189491 288.72 
L 592.654879 187.92 
L 593.120267 329.04 
L 593.585655 187.92 
L 594.051043 288.72 
L 594.51643 228.24 
L 594.981818 107.28 
L 595.447206 167.76 
L 595.912594 147.6 
L 596.377982 87.12 
L 596.843369 228.24 
L 597.308757 187.92 
L 598.239533 268.56 
L 598.704921 187.92 
L 599.170309 288.72 
L 599.635696 288.72 
L 600.101084 228.24 
L 600.566472 187.92 
L 601.03186 329.04 
L 601.497248 127.44 
L 601.962636 288.72 
L 602.428023 187.92 
L 602.893411 329.04 
L 603.824187 147.6 
L 604.289575 268.56 
L 604.754962 187.92 
L 605.22035 147.6 
L 605.685738 228.24 
L 606.151126 329.04 
L 606.616514 288.72 
L 607.081902 187.92 
L 607.547289 268.56 
L 608.012677 187.92 
L 608.478065 268.56 
L 608.943453 288.72 
L 609.408841 228.24 
L 609.874229 288.72 
L 610.339616 268.56 
L 610.805004 288.72 
L 611.270392 87.12 
L 611.73578 288.72 
L 612.201168 228.24 
L 612.666555 329.04 
L 613.131943 228.24 
L 613.597331 187.92 
L 614.062719 187.92 
L 614.993495 268.56 
L 615.458882 147.6 
L 615.92427 288.72 
L 616.389658 167.76 
L 616.855046 147.6 
L 617.320434 208.08 
L 617.785822 288.72 
L 618.251209 228.24 
L 618.716597 288.72 
L 619.181985 329.04 
L 619.647373 228.24 
L 620.112761 288.72 
L 620.578148 268.56 
L 621.043536 228.24 
L 621.508924 288.72 
L 621.974312 288.72 
L 622.4397 268.56 
L 622.905088 87.12 
L 623.370475 268.56 
L 623.835863 248.4 
L 624.301251 288.72 
L 624.766639 187.92 
L 625.232027 268.56 
L 625.697415 268.56 
L 626.162802 228.24 
L 626.62819 167.76 
L 627.093578 187.92 
L 628.024354 187.92 
L 628.489741 268.56 
L 628.955129 288.72 
L 629.420517 107.28 
L 629.885905 268.56 
L 630.351293 268.56 
L 630.816681 187.92 
L 631.282068 268.56 
L 631.747456 288.72 
L 632.212844 288.72 
L 632.678232 147.6 
L 633.14362 167.76 
L 633.609008 329.04 
L 634.074395 187.92 
L 634.539783 208.08 
L 635.005171 288.72 
L 635.935947 87.12 
L 636.401334 228.24 
L 636.866722 288.72 
L 637.33211 268.56 
L 637.797498 228.24 
L 638.262886 329.04 
L 638.728274 288.72 
L 639.193661 349.2 
L 639.659049 187.92 
L 640.124437 228.24 
L 640.589825 187.92 
L 641.055213 288.72 
L 641.520601 66.96 
L 641.985988 228.24 
L 642.451376 288.72 
L 642.916764 268.56 
L 643.382152 187.92 
L 643.84754 147.6 
L 644.312927 167.76 
L 644.778315 268.56 
L 645.243703 87.12 
L 645.709091 268.56 
L 646.174479 228.24 
L 646.639867 329.04 
L 647.105254 349.2 
L 647.570642 187.92 
L 648.03603 228.24 
L 648.501418 329.04 
L 648.966806 248.4 
L 649.432193 329.04 
L 649.897581 288.72 
L 650.362969 228.24 
L 650.828357 268.56 
L 651.293745 288.72 
L 651.759133 187.92 
L 652.22452 288.72 
L 652.689908 288.72 
L 653.155296 228.24 
L 653.620684 288.72 
L 654.086072 288.72 
L 654.55146 369.36 
L 655.016847 147.6 
L 655.947623 147.6 
L 656.413011 268.56 
L 656.878399 228.24 
L 657.343786 288.72 
L 657.809174 288.72 
L 658.274562 329.04 
L 659.205338 288.72 
L 659.670726 288.72 
L 660.136113 268.56 
L 660.601501 228.24 
L 661.066889 268.56 
L 661.532277 187.92 
L 661.997665 288.72 
L 663.393828 288.72 
L 663.859216 187.92 
L 664.324604 147.6 
L 664.789992 87.12 
L 665.255379 87.12 
L 665.720767 228.24 
L 666.186155 268.56 
L 666.651543 187.92 
L 667.116931 329.04 
L 667.582319 187.92 
L 668.047706 268.56 
L 668.513094 288.72 
L 669.44387 288.72 
L 669.909258 228.24 
L 670.374646 308.88 
L 670.840033 288.72 
L 671.305421 187.92 
L 671.770809 288.72 
L 672.236197 187.92 
L 672.701585 228.24 
L 673.166972 187.92 
L 673.63236 308.88 
L 674.097748 329.04 
L 674.563136 329.04 
L 675.028524 187.92 
L 675.493912 147.6 
L 675.959299 87.12 
L 676.424687 288.72 
L 676.890075 147.6 
L 677.820851 147.6 
L 678.286239 87.12 
L 678.751626 288.72 
L 679.217014 288.72 
L 679.682402 308.88 
L 680.14779 228.24 
L 680.613178 228.24 
L 681.078565 187.92 
L 681.543953 248.4 
L 682.009341 187.92 
L 682.940117 187.92 
L 683.405505 107.28 
L 683.870892 147.6 
L 684.33628 147.6 
L 685.267056 228.24 
L 685.732444 288.72 
L 686.663219 288.72 
L 687.128607 329.04 
L 687.593995 288.72 
L 688.059383 288.72 
L 688.524771 87.12 
L 688.990158 288.72 
L 689.455546 329.04 
L 689.920934 228.24 
L 690.85171 349.2 
L 691.317098 228.24 
L 692.247873 147.6 
L 692.713261 228.24 
L 693.178649 187.92 
L 693.644037 187.92 
L 694.109425 329.04 
L 694.574812 288.72 
L 695.0402 147.6 
L 695.505588 187.92 
L 695.970976 187.92 
L 696.436364 288.72 
L 698.297915 288.72 
L 698.763303 308.88 
L 699.228691 187.92 
L 699.694078 228.24 
L 700.159466 228.24 
L 700.624854 147.6 
L 701.090242 288.72 
L 701.55563 228.24 
L 702.021018 228.24 
L 702.486405 288.72 
L 702.951793 187.92 
L 703.417181 187.92 
L 703.882569 288.72 
L 704.347957 268.56 
L 704.813344 288.72 
L 705.278732 288.72 
L 705.74412 147.6 
L 706.209508 167.76 
L 706.674896 288.72 
L 707.140284 228.24 
L 707.605671 228.24 
L 708.071059 147.6 
L 708.536447 288.72 
L 709.001835 329.04 
L 709.467223 228.24 
L 709.932611 248.4 
L 710.397998 187.92 
L 710.863386 288.72 
L 711.328774 66.96 
L 711.794162 228.24 
L 712.25955 288.72 
L 712.724937 228.24 
L 713.190325 288.72 
L 713.655713 187.92 
L 714.121101 329.04 
L 714.586489 147.6 
L 715.051877 268.56 
L 715.517264 187.92 
L 715.982652 147.6 
L 716.44804 329.04 
L 716.913428 147.6 
L 717.378816 329.04 
L 717.844204 107.28 
L 718.774979 187.92 
L 719.240367 147.6 
L 719.705755 147.6 
L 720.171143 208.08 
L 720.63653 187.92 
L 721.101918 288.72 
L 721.567306 228.24 
L 722.032694 87.12 
L 722.498082 329.04 
L 722.96347 268.56 
L 723.894245 107.28 
L 724.359633 228.24 
L 724.825021 288.72 
L 725.290409 147.6 
L 725.755796 187.92 
L 726.221184 147.6 
L 726.686572 288.72 
L 727.15196 268.56 
L 727.617348 288.72 
L 728.082736 288.72 
L 728.548123 248.4 
L 729.013511 187.92 
L 729.478899 187.92 
L 729.944287 268.56 
L 730.409675 147.6 
L 730.875063 228.24 
L 731.34045 329.04 
L 731.805838 87.12 
L 732.271226 308.88 
L 732.736614 248.4 
L 733.202002 228.24 
L 733.667389 268.56 
L 734.132777 288.72 
L 734.598165 228.24 
L 735.528941 228.24 
L 735.994329 147.6 
L 736.459716 208.08 
L 736.925104 288.72 
L 737.390492 288.72 
L 737.85588 147.6 
L 738.321268 329.04 
L 738.786656 187.92 
L 739.252043 87.12 
L 739.717431 288.72 
L 740.182819 87.12 
L 740.648207 187.92 
L 741.113595 228.24 
L 742.04437 228.24 
L 742.509758 288.72 
L 742.975146 87.12 
L 743.440534 167.76 
L 743.905922 288.72 
L 744.371309 147.6 
L 744.836697 187.92 
L 745.302085 288.72 
L 745.767473 147.6 
L 746.232861 147.6 
L 747.163636 228.24 
L 747.163636 228.24 
" clip-path="url(#p45017ef280)" style="fill: none; stroke: #1f77b4; stroke-width: 1.5; stroke-linecap: square"/>
   </g>
   <g id="line2d_17">
    <path d="M 138.436364 249.766955 
L 138.901751 246.189367 
L 139.367139 246.781424 
L 139.832527 250.531854 
L 140.297915 232.6008 
L 140.763303 240.24901 
L 141.228691 231.540444 
L 141.694078 227.749524 
L 142.159466 251.964014 
L 142.624854 239.728752 
L 143.090242 255.029468 
L 143.55563 248.039675 
L 144.021018 248.004587 
L 144.486405 252.17378 
L 144.951793 233.017747 
L 145.417181 251.005152 
L 145.882569 248.373045 
L 146.347957 250.60623 
L 146.813344 251.015034 
L 147.278732 260.741188 
L 147.74412 255.026862 
L 148.209508 241.763621 
L 149.140284 238.604575 
L 149.605671 250.363165 
L 150.071059 255.788484 
L 150.536447 254.759928 
L 151.001835 232.682031 
L 151.467223 264.022464 
L 151.932611 255.890584 
L 152.397998 239.101857 
L 152.863386 251.037904 
L 153.794162 258.240693 
L 154.25955 249.76781 
L 154.724937 246.310097 
L 155.190325 249.63491 
L 155.655713 233.947885 
L 156.121101 260.124147 
L 156.586489 252.486685 
L 157.051877 261.377341 
L 157.517264 247.157265 
L 157.982652 251.531341 
L 158.44804 248.274781 
L 158.913428 261.54181 
L 159.378816 242.149622 
L 159.844204 238.030532 
L 160.309591 266.909124 
L 160.774979 244.312075 
L 161.240367 249.326072 
L 161.705755 251.729639 
L 162.171143 248.055488 
L 163.101918 230.443625 
L 163.567306 253.949299 
L 164.032694 253.483201 
L 164.498082 267.155141 
L 164.96347 249.641966 
L 165.428857 249.724984 
L 165.894245 260.548466 
L 166.359633 258.614631 
L 166.825021 244.106212 
L 167.755796 265.403627 
L 168.221184 260.346996 
L 168.686572 253.693207 
L 169.15196 249.542144 
L 169.617348 250.959625 
L 170.082736 239.136416 
L 170.548123 253.599125 
L 171.013511 251.399393 
L 171.478899 250.326347 
L 171.944287 231.787182 
L 172.409675 255.644087 
L 172.875063 253.750117 
L 173.34045 254.921417 
L 173.805838 246.897405 
L 174.271226 251.187271 
L 174.736614 249.750343 
L 175.202002 243.454246 
L 175.667389 261.160682 
L 176.132777 262.568588 
L 176.598165 254.471835 
L 177.063553 232.877444 
L 177.528941 249.643379 
L 177.994329 234.348662 
L 178.459716 252.360696 
L 178.925104 242.934517 
L 179.390492 241.290467 
L 179.85588 232.035977 
L 180.321268 254.124044 
L 180.786656 227.606405 
L 181.252043 249.184655 
L 181.717431 234.902748 
L 182.182819 244.992774 
L 182.648207 249.646542 
L 183.113595 233.874845 
L 183.578982 233.533284 
L 184.04437 245.733247 
L 184.509758 253.674375 
L 184.975146 245.02443 
L 185.440534 249.571964 
L 185.905922 250.123396 
L 186.371309 253.614544 
L 186.836697 243.289152 
L 187.302085 257.712072 
L 187.767473 242.337327 
L 188.232861 238.810505 
L 188.698249 257.981449 
L 189.163636 241.46628 
L 189.629024 254.034941 
L 190.094412 230.818668 
L 190.5598 263.627551 
L 191.025188 250.946772 
L 191.490575 251.275384 
L 191.955963 234.766416 
L 192.421351 265.193985 
L 192.886739 251.597536 
L 193.352127 248.296343 
L 193.817515 249.238968 
L 194.282902 253.950914 
L 194.74829 265.04357 
L 195.213678 250.544745 
L 195.679066 245.744812 
L 196.144454 229.514593 
L 196.609842 248.544849 
L 197.075229 236.340147 
L 197.540617 252.873686 
L 198.471393 262.085533 
L 198.936781 242.282148 
L 199.402168 241.376965 
L 199.867556 238.670261 
L 200.332944 260.950291 
L 200.798332 227.81916 
L 201.26372 251.672989 
L 201.729108 248.837701 
L 202.659883 232.896565 
L 203.125271 230.87923 
L 203.590659 247.011637 
L 204.056047 256.922477 
L 204.521435 240.017855 
L 204.986822 231.406256 
L 205.45221 225.53866 
L 205.917598 254.134552 
L 206.382986 254.745623 
L 206.848374 233.386618 
L 207.313761 248.739754 
L 207.779149 244.051994 
L 208.244537 252.564272 
L 208.709925 253.204096 
L 209.175313 252.064672 
L 209.640701 258.448729 
L 210.571476 252.348046 
L 211.036864 250.90858 
L 211.502252 227.379479 
L 211.96764 246.115241 
L 212.898415 260.299767 
L 213.363803 250.939082 
L 213.829191 250.837895 
L 214.294579 250.561597 
L 214.759967 248.016815 
L 215.225354 235.815621 
L 215.690742 239.88756 
L 216.15613 265.98337 
L 216.621518 240.611806 
L 217.086906 240.562212 
L 217.552294 249.723571 
L 218.017681 246.79618 
L 218.483069 249.399612 
L 218.948457 244.353555 
L 219.413845 237.139452 
L 219.879233 244.002603 
L 220.344621 243.895244 
L 220.810008 250.434638 
L 221.275396 248.197309 
L 221.740784 247.483531 
L 222.206172 238.947866 
L 222.67156 226.548701 
L 223.136947 261.772523 
L 223.602335 240.178325 
L 224.067723 241.512355 
L 224.533111 251.184676 
L 224.998499 252.874379 
L 225.463887 230.653747 
L 225.929274 251.214053 
L 226.394662 250.441309 
L 226.86005 235.780514 
L 227.325438 242.621161 
L 227.790826 260.234331 
L 228.256214 234.622374 
L 228.721601 250.492374 
L 229.186989 246.16866 
L 229.652377 256.039231 
L 230.117765 242.499037 
L 230.583153 244.962561 
L 231.04854 254.160266 
L 231.513928 242.146671 
L 231.979316 224.613289 
L 232.444704 258.17916 
L 232.910092 248.444143 
L 233.37548 250.892151 
L 233.840867 249.667287 
L 234.306255 250.947561 
L 234.771643 243.812399 
L 235.237031 249.243063 
L 235.702419 244.571089 
L 236.167807 247.793023 
L 236.633194 253.10313 
L 237.098582 238.479403 
L 237.56397 242.387382 
L 238.029358 234.641994 
L 238.494746 237.001543 
L 238.960133 250.341766 
L 239.425521 254.972655 
L 240.356297 247.631159 
L 240.821685 243.219025 
L 241.287073 259.198478 
L 241.75246 256.730197 
L 242.217848 245.959038 
L 243.148624 249.676371 
L 243.614012 250.098431 
L 244.079399 254.201035 
L 244.544787 248.784733 
L 245.010175 232.091358 
L 245.475563 250.441809 
L 245.940951 254.340021 
L 246.406339 252.125446 
L 246.871726 257.750717 
L 247.337114 241.7229 
L 247.802502 248.386061 
L 248.26789 233.817398 
L 248.733278 234.66993 
L 249.198666 261.660589 
L 249.664053 253.30982 
L 250.129441 262.699854 
L 250.594829 247.441907 
L 251.060217 236.016207 
L 251.525605 230.629147 
L 251.990992 256.608899 
L 252.921768 242.799935 
L 253.387156 241.326362 
L 253.852544 244.94617 
L 254.317932 237.520397 
L 254.783319 242.092704 
L 255.248707 250.980072 
L 255.714095 250.565529 
L 256.179483 246.883736 
L 256.644871 225.430648 
L 257.110259 248.758412 
L 257.575646 256.312818 
L 258.041034 241.11774 
L 258.506422 253.526633 
L 258.97181 259.813549 
L 259.437198 263.974687 
L 259.902585 244.984699 
L 260.367973 244.115421 
L 260.833361 248.287037 
L 261.298749 248.479317 
L 261.764137 230.373883 
L 262.229525 252.263076 
L 262.694912 244.889319 
L 263.1603 247.897007 
L 263.625688 241.053909 
L 264.091076 254.984815 
L 264.556464 234.138242 
L 265.021852 261.376985 
L 265.487239 252.261076 
L 265.952627 250.583899 
L 266.418015 255.585159 
L 266.883403 258.915307 
L 267.348791 250.232783 
L 267.814178 252.651404 
L 268.279566 256.497128 
L 268.744954 225.296315 
L 269.210342 247.365935 
L 269.67573 251.519421 
L 270.141118 250.145506 
L 270.606505 257.293722 
L 271.071893 262.384364 
L 271.537281 253.952942 
L 272.468057 244.026856 
L 272.933445 234.082996 
L 273.86422 259.445774 
L 274.329608 248.835615 
L 274.794996 251.482238 
L 275.260384 235.807681 
L 275.725771 243.857042 
L 276.191159 256.826711 
L 276.656547 251.446131 
L 277.121935 254.016398 
L 277.587323 247.392881 
L 278.052711 250.370586 
L 278.518098 233.681633 
L 278.983486 255.546697 
L 279.448874 256.412678 
L 279.914262 228.559403 
L 280.37965 234.551247 
L 280.845038 249.690396 
L 281.310425 253.995826 
L 281.775813 248.7853 
L 282.241201 257.483859 
L 282.706589 255.857035 
L 283.171977 245.626235 
L 283.637364 245.078023 
L 284.102752 254.950775 
L 284.56814 248.836365 
L 285.033528 250.926441 
L 285.498916 247.842425 
L 285.964304 241.39473 
L 286.429691 250.656958 
L 286.895079 234.560476 
L 287.360467 250.757347 
L 287.825855 248.552934 
L 288.291243 232.377124 
L 288.756631 253.806295 
L 289.222018 258.99549 
L 289.687406 250.749359 
L 290.152794 252.246695 
L 290.618182 253.042097 
L 291.08357 230.54934 
L 291.548957 252.684338 
L 292.014345 248.974273 
L 292.479733 248.801863 
L 292.945121 253.82134 
L 293.410509 253.651996 
L 293.875897 247.221855 
L 294.341284 251.060091 
L 294.806672 259.19073 
L 295.27206 246.970022 
L 295.737448 254.20886 
L 296.202836 236.599487 
L 296.668224 240.358752 
L 297.133611 235.718837 
L 297.598999 251.952363 
L 298.064387 244.820903 
L 298.529775 242.479898 
L 298.995163 247.880934 
L 299.46055 242.349381 
L 300.391326 262.916032 
L 300.856714 241.745289 
L 301.322102 242.353582 
L 301.78749 259.852434 
L 302.252877 254.515545 
L 302.718265 232.091521 
L 303.183653 258.403355 
L 304.579817 250.03761 
L 305.045204 248.613304 
L 305.510592 246.097514 
L 305.97598 252.305921 
L 306.441368 261.032925 
L 306.906756 243.291324 
L 307.372143 248.276847 
L 307.837531 248.57638 
L 308.302919 262.504056 
L 309.233695 246.209506 
L 309.699083 256.093362 
L 310.16447 249.900634 
L 310.629858 260.279195 
L 311.095246 250.476012 
L 312.026022 245.542592 
L 312.49141 252.505411 
L 312.956797 250.359502 
L 313.422185 255.132539 
L 313.887573 226.793584 
L 314.352961 222.738574 
L 314.818349 257.419163 
L 315.283736 239.023088 
L 315.749124 246.310895 
L 316.214512 250.300449 
L 316.6799 265.319445 
L 317.145288 239.465355 
L 317.610676 232.681252 
L 318.076063 250.853074 
L 318.541451 244.967482 
L 319.006839 253.80095 
L 319.472227 235.444818 
L 319.937615 231.78401 
L 320.403003 255.230217 
L 320.86839 257.713408 
L 321.333778 251.409823 
L 321.799166 242.369473 
L 322.264554 237.039313 
L 322.729942 262.393006 
L 323.195329 257.30371 
L 323.660717 254.256214 
L 324.126105 249.638746 
L 324.591493 263.667935 
L 325.056881 235.9873 
L 325.522269 250.531672 
L 325.987656 246.080316 
L 326.453044 235.418805 
L 326.918432 256.522738 
L 327.38382 243.222024 
L 327.849208 253.107572 
L 328.314595 225.206125 
L 329.245371 248.732409 
L 329.710759 248.920459 
L 330.176147 249.635141 
L 330.641535 234.518669 
L 331.106922 237.58021 
L 331.57231 232.284657 
L 332.037698 242.916752 
L 332.968474 255.586341 
L 333.899249 240.645403 
L 334.364637 241.504693 
L 334.830025 260.07015 
L 335.295413 233.326623 
L 335.760801 234.389075 
L 336.226188 232.009195 
L 336.691576 261.084777 
L 337.156964 231.758083 
L 337.622352 253.909203 
L 338.08774 235.188851 
L 338.553128 264.401775 
L 339.018515 259.574637 
L 339.483903 258.484883 
L 339.949291 243.463936 
L 340.880067 242.741449 
L 341.345455 242.254645 
L 341.810842 267.052801 
L 342.27623 241.255793 
L 342.741618 248.773447 
L 343.207006 241.739915 
L 343.672394 249.231778 
L 344.137781 235.327596 
L 344.603169 250.108362 
L 345.068557 255.137412 
L 345.533945 247.954532 
L 345.999333 246.421224 
L 346.464721 255.727115 
L 346.930108 244.863335 
L 347.395496 242.174405 
L 347.860884 245.001926 
L 348.326272 260.295999 
L 348.79166 249.374993 
L 349.257048 250.328933 
L 349.722435 257.196083 
L 350.187823 229.234315 
L 350.653211 254.066741 
L 351.118599 247.353313 
L 351.583987 253.931082 
L 352.049374 236.43969 
L 352.514762 247.886904 
L 352.98015 242.17005 
L 353.445538 256.281979 
L 353.910926 247.250963 
L 354.376314 265.293971 
L 354.841701 245.188486 
L 355.307089 247.666487 
L 355.772477 252.632726 
L 356.237865 252.479773 
L 356.703253 237.970605 
L 357.168641 250.115283 
L 357.634028 255.519261 
L 358.099416 251.490015 
L 358.564804 239.919061 
L 359.030192 234.512978 
L 359.960967 248.14139 
L 360.426355 230.207452 
L 360.891743 257.130858 
L 361.357131 255.6229 
L 361.822519 250.667254 
L 362.287907 248.613256 
L 362.753294 237.813854 
L 363.218682 254.416733 
L 363.68407 257.050599 
L 364.614846 238.175728 
L 365.080234 246.046008 
L 365.545621 248.653976 
L 366.011009 242.560311 
L 366.476397 255.365482 
L 366.941785 258.987309 
L 367.407173 242.178577 
L 367.87256 263.272484 
L 368.337948 240.590378 
L 368.803336 253.692246 
L 369.734112 261.24071 
L 370.1995 259.156546 
L 371.130275 244.205563 
L 371.595663 248.0542 
L 372.061051 246.318066 
L 372.526439 250.89789 
L 372.991827 233.502705 
L 373.457214 260.747658 
L 373.922602 237.592101 
L 374.38799 254.822287 
L 374.853378 247.068066 
L 375.318766 253.131325 
L 375.784153 232.599301 
L 376.249541 240.643865 
L 376.714929 263.392954 
L 377.180317 233.541859 
L 377.645705 254.754833 
L 378.111093 250.661553 
L 378.57648 253.45765 
L 379.041868 240.725701 
L 379.507256 253.649708 
L 379.972644 253.27978 
L 380.438032 257.988908 
L 380.90342 257.897854 
L 381.368807 250.86708 
L 381.834195 257.4155 
L 382.299583 248.402096 
L 382.764971 252.773442 
L 383.230359 249.459943 
L 383.695746 248.4092 
L 384.626522 232.717993 
L 385.09191 253.269215 
L 385.557298 249.01436 
L 386.022686 251.677334 
L 386.488073 239.838043 
L 386.953461 232.84501 
L 387.418849 251.506664 
L 387.884237 251.328016 
L 388.349625 253.638644 
L 388.815013 228.147446 
L 389.2804 246.037875 
L 389.745788 250.900303 
L 390.211176 252.14844 
L 390.676564 251.072886 
L 391.141952 255.350562 
L 391.607339 228.475798 
L 392.072727 248.428724 
L 392.538115 240.7456 
L 393.003503 258.808651 
L 393.468891 265.494893 
L 393.934279 249.6066 
L 394.399666 239.249004 
L 394.865054 253.20821 
L 395.79583 239.893452 
L 396.261218 229.644792 
L 396.726606 223.852591 
L 397.191993 265.891988 
L 397.657381 247.955262 
L 398.122769 260.6224 
L 398.588157 238.994114 
L 399.053545 262.174117 
L 399.98432 254.756813 
L 400.449708 244.447408 
L 400.915096 249.215407 
L 401.380484 248.1106 
L 401.845872 233.885121 
L 402.776647 261.124633 
L 403.707423 234.71438 
L 404.172811 263.589743 
L 404.638198 257.809346 
L 405.568974 232.573788 
L 406.034362 243.567372 
L 406.49975 237.007234 
L 406.965138 242.025249 
L 407.430525 253.86605 
L 407.895913 262.168157 
L 408.361301 249.187394 
L 408.826689 240.15486 
L 409.292077 237.61075 
L 409.757465 256.921563 
L 410.222852 250.026113 
L 410.68824 245.502631 
L 411.153628 237.062422 
L 411.619016 254.194066 
L 412.084404 239.449051 
L 412.549791 246.276788 
L 413.015179 243.675683 
L 413.480567 233.589453 
L 413.945955 254.036133 
L 414.411343 232.960193 
L 414.876731 251.352962 
L 415.342118 241.226492 
L 415.807506 251.552672 
L 416.272894 249.315786 
L 417.669058 227.785938 
L 418.134445 261.972176 
L 418.599833 251.235423 
L 419.065221 263.824868 
L 419.530609 245.774824 
L 419.995997 265.878568 
L 420.461384 261.791518 
L 420.926772 246.629605 
L 421.39216 251.776599 
L 421.857548 262.485426 
L 422.322936 258.512896 
L 422.788324 235.69418 
L 423.253711 224.756274 
L 423.719099 250.622909 
L 424.184487 239.552843 
L 424.649875 231.950084 
L 425.115263 260.774046 
L 425.580651 249.495665 
L 426.046038 241.622069 
L 426.511426 243.137814 
L 426.976814 243.896725 
L 427.442202 253.453718 
L 427.90759 235.593099 
L 428.372977 250.820015 
L 428.838365 237.762934 
L 429.303753 250.682798 
L 429.769141 246.274779 
L 430.234529 243.624214 
L 430.699917 253.273291 
L 431.165304 246.236653 
L 431.630692 241.096707 
L 432.09608 255.944456 
L 432.561468 229.449224 
L 433.492244 262.325003 
L 433.957631 257.041697 
L 434.423019 247.920348 
L 434.888407 254.639236 
L 435.353795 233.760306 
L 435.819183 232.568318 
L 436.28457 249.363188 
L 436.749958 239.300684 
L 437.215346 260.50092 
L 437.680734 248.33839 
L 438.146122 252.03468 
L 438.61151 263.322914 
L 439.076897 240.374623 
L 439.542285 235.21049 
L 440.007673 242.17553 
L 440.473061 231.328486 
L 440.938449 256.274317 
L 441.403837 235.416055 
L 441.869224 250.688393 
L 442.334612 246.093438 
L 442.8 234.850607 
L 443.265388 236.375533 
L 443.730776 249.718601 
L 444.196163 247.846799 
L 444.661551 235.707648 
L 445.592327 253.101467 
L 446.057715 235.850555 
L 446.523103 246.861779 
L 447.453878 261.688111 
L 447.919266 227.923962 
L 448.384654 233.1779 
L 449.31543 250.396253 
L 449.780817 234.014753 
L 450.246205 243.632126 
L 450.711593 248.644123 
L 451.176981 247.240004 
L 451.642369 251.212746 
L 452.107756 250.075129 
L 452.573144 251.197057 
L 453.038532 244.578875 
L 453.969308 252.345969 
L 454.900083 266.200865 
L 455.365471 245.684721 
L 455.830859 259.408792 
L 456.296247 249.37903 
L 456.761635 259.849762 
L 457.227023 259.235123 
L 457.69241 245.321271 
L 458.157798 238.027341 
L 458.623186 257.79411 
L 459.088574 256.513692 
L 459.553962 242.724117 
L 460.019349 242.204542 
L 460.484737 254.255589 
L 460.950125 241.261282 
L 461.415513 234.693232 
L 461.880901 244.043862 
L 462.346289 232.702766 
L 462.811676 242.34742 
L 463.277064 246.347155 
L 463.742452 241.75048 
L 464.20784 243.374967 
L 464.673228 247.662545 
L 465.138616 254.762168 
L 465.604003 248.670299 
L 466.069391 253.689968 
L 466.534779 244.349076 
L 467.000167 255.298806 
L 467.465555 235.27508 
L 467.930942 258.576726 
L 468.39633 224.673852 
L 468.861718 253.303428 
L 469.327106 249.504663 
L 469.792494 230.81614 
L 470.257882 261.519306 
L 470.723269 255.504409 
L 471.188657 241.696127 
L 471.654045 252.47489 
L 472.119433 249.9422 
L 472.584821 246.618848 
L 473.050209 257.076804 
L 473.515596 244.937663 
L 474.446372 235.649441 
L 474.91176 249.666287 
L 475.377148 249.51616 
L 475.842535 249.152778 
L 476.307923 246.457974 
L 476.773311 245.931036 
L 477.238699 248.568882 
L 477.704087 257.050359 
L 478.169475 263.346485 
L 478.634862 244.790372 
L 479.10025 245.309437 
L 479.565638 250.994443 
L 480.031026 253.411574 
L 480.496414 245.164088 
L 480.961802 228.448651 
L 481.427189 257.977757 
L 481.892577 248.942262 
L 482.357965 251.344685 
L 482.823353 236.535734 
L 483.288741 249.268692 
L 483.754128 234.93276 
L 484.219516 252.04759 
L 484.684904 249.459953 
L 485.150292 248.891822 
L 485.61568 239.12364 
L 486.081068 252.126686 
L 486.546455 236.853704 
L 487.011843 247.240341 
L 487.477231 234.153373 
L 487.942619 250.994174 
L 488.408007 242.495673 
L 488.873394 245.084233 
L 489.338782 254.201852 
L 489.80417 248.591444 
L 490.269558 246.285036 
L 490.734946 251.214217 
L 491.200334 238.065245 
L 491.665721 262.244033 
L 492.131109 251.80985 
L 492.596497 244.937355 
L 493.061885 230.451162 
L 493.527273 252.91632 
L 493.992661 234.774904 
L 494.458048 264.175994 
L 494.923436 248.334862 
L 495.388824 248.915288 
L 495.854212 236.839813 
L 496.3196 246.944394 
L 496.784987 244.501644 
L 497.250375 253.330325 
L 497.715763 250.745687 
L 498.181151 249.760898 
L 498.646539 257.519994 
L 499.111927 254.867536 
L 499.577314 251.01937 
L 500.042702 251.967235 
L 500.50809 241.52739 
L 500.973478 255.27784 
L 501.904254 246.803361 
L 502.369641 251.309097 
L 502.835029 253.517808 
L 503.300417 248.553866 
L 503.765805 251.738704 
L 504.231193 258.868001 
L 504.69658 236.065166 
L 505.161968 246.47894 
L 505.627356 242.747111 
L 506.092744 252.974566 
L 506.558132 253.826617 
L 507.02352 251.742741 
L 507.954295 232.366531 
L 508.419683 238.240241 
L 508.885071 254.060541 
L 509.350459 243.860157 
L 509.815847 236.622386 
L 510.281234 265.24479 
L 510.746622 250.045656 
L 511.21201 251.425021 
L 511.677398 246.664366 
L 512.142786 245.673887 
L 512.608173 263.185918 
L 513.073561 255.087453 
L 513.538949 241.713902 
L 514.004337 257.488454 
L 514.469725 249.920235 
L 514.935113 245.502169 
L 515.4005 235.095768 
L 515.865888 259.52711 
L 516.331276 239.023165 
L 516.796664 230.364193 
L 517.262052 238.821195 
L 517.72744 222.852873 
L 518.192827 250.090116 
L 518.658215 244.964377 
L 519.123603 253.309676 
L 519.588991 236.266828 
L 520.054379 241.238345 
L 520.519766 249.141684 
L 520.985154 233.603008 
L 521.450542 250.532374 
L 521.91593 252.445647 
L 522.381318 249.248101 
L 522.846706 249.518736 
L 523.312093 254.26353 
L 523.777481 251.585261 
L 524.242869 246.175697 
L 524.708257 260.970257 
L 525.173645 262.070623 
L 525.639033 251.614782 
L 526.10442 257.824151 
L 526.569808 250.594541 
L 527.035196 247.505401 
L 527.500584 253.324615 
L 527.965972 241.350087 
L 528.431359 243.960113 
L 528.896747 240.450182 
L 529.362135 226.668038 
L 529.827523 247.304796 
L 530.292911 252.464642 
L 530.758299 252.4622 
L 531.223686 253.882334 
L 531.689074 254.544336 
L 532.154462 260.089174 
L 532.61985 236.859626 
L 533.085238 231.697319 
L 533.550626 255.844201 
L 534.016013 247.744035 
L 534.481401 252.172521 
L 534.946789 241.803842 
L 535.412177 257.801022 
L 535.877565 231.24243 
L 536.342952 253.820397 
L 536.80834 256.371649 
L 537.273728 246.060139 
L 538.204504 257.979959 
L 538.669892 232.859305 
L 539.135279 260.219143 
L 539.600667 249.637727 
L 540.066055 255.893776 
L 540.531443 259.365832 
L 540.996831 250.82709 
L 541.462219 250.499939 
L 541.927606 249.562178 
L 542.392994 258.412834 
L 542.858382 250.128501 
L 543.32377 248.77759 
L 543.789158 244.580096 
L 544.719933 233.790846 
L 545.185321 253.61985 
L 545.650709 231.445977 
L 546.116097 227.701574 
L 546.581485 254.524129 
L 547.046872 262.400879 
L 547.51226 240.851805 
L 547.977648 238.373256 
L 548.443036 261.75569 
L 548.908424 244.529686 
L 549.373812 259.167448 
L 549.839199 248.690275 
L 550.304587 248.97012 
L 550.769975 252.379567 
L 551.235363 250.853824 
L 551.700751 242.520378 
L 552.166138 256.297014 
L 552.631526 232.680387 
L 553.096914 254.066895 
L 553.562302 253.635193 
L 554.02769 233.021573 
L 554.493078 247.063884 
L 554.958465 251.552124 
L 555.423853 249.321554 
L 555.889241 221.321017 
L 556.354629 244.335262 
L 556.820017 257.767645 
L 557.285405 262.445272 
L 557.750792 248.008538 
L 558.21618 265.526808 
L 558.681568 237.991196 
L 559.146956 230.984955 
L 559.612344 258.763046 
L 560.077731 241.205959 
L 560.543119 254.480506 
L 561.008507 244.739269 
L 561.473895 252.118198 
L 561.939283 263.429609 
L 562.404671 255.557954 
L 562.870058 251.312625 
L 563.335446 242.567636 
L 563.800834 241.754258 
L 564.266222 256.320316 
L 564.73161 248.999738 
L 565.196997 236.016053 
L 565.662385 251.0713 
L 566.127773 236.888388 
L 566.593161 252.208358 
L 567.058549 261.248997 
L 567.523937 232.591764 
L 567.989324 245.228313 
L 568.454712 237.724011 
L 568.9201 249.160266 
L 569.385488 224.225942 
L 569.850876 249.199699 
L 570.316264 235.361607 
L 570.781651 262.36956 
L 571.247039 264.242189 
L 571.712427 252.741267 
L 572.177815 256.294726 
L 572.643203 253.729679 
L 573.10859 244.468806 
L 573.573978 252.211175 
L 574.039366 235.978283 
L 574.504754 232.611682 
L 574.970142 250.790705 
L 575.43553 242.144951 
L 575.900917 247.135078 
L 576.366305 260.17823 
L 576.831693 241.366333 
L 577.297081 243.613688 
L 577.762469 223.979713 
L 578.227857 237.186085 
L 578.693244 239.578116 
L 579.158632 232.584449 
L 579.62402 249.801331 
L 580.089408 256.614023 
L 580.554796 253.884622 
L 581.020183 253.51652 
L 581.485571 252.330281 
L 581.950959 253.612083 
L 582.416347 232.821756 
L 582.881735 234.400111 
L 583.347123 238.65016 
L 583.81251 248.510646 
L 584.277898 223.952643 
L 584.743286 237.985312 
L 585.208674 244.516593 
L 585.674062 238.5704 
L 586.13945 256.186925 
L 586.604837 249.571108 
L 587.070225 257.12783 
L 588.001001 249.8324 
L 588.466389 251.122989 
L 588.931776 253.832116 
L 589.397164 255.240368 
L 589.862552 235.063757 
L 590.32794 246.805361 
L 590.793328 245.624764 
L 591.258716 255.964537 
L 591.724103 233.182822 
L 592.189491 252.805174 
L 592.654879 254.59095 
L 593.120267 262.071709 
L 593.585655 249.784431 
L 594.051043 240.570085 
L 594.51643 252.097366 
L 594.981818 239.24985 
L 595.447206 250.548918 
L 595.912594 255.126261 
L 596.377982 251.745587 
L 596.843369 246.488323 
L 597.308757 237.828937 
L 598.239533 253.743416 
L 598.704921 250.221574 
L 599.170309 241.114058 
L 599.635696 249.357247 
L 600.101084 254.603004 
L 600.566472 246.739867 
L 601.03186 241.944451 
L 601.497248 251.028916 
L 601.962636 250.977755 
L 602.428023 250.572941 
L 602.893411 248.951163 
L 603.358799 257.549035 
L 603.824187 234.890078 
L 604.289575 223.674865 
L 604.754962 255.721972 
L 605.22035 247.930836 
L 605.685738 257.758465 
L 606.151126 244.532819 
L 606.616514 236.13811 
L 607.081902 245.663918 
L 607.547289 233.787395 
L 608.012677 245.23113 
L 608.478065 238.457726 
L 608.943453 251.394692 
L 609.408841 249.961974 
L 609.874229 247.537874 
L 610.339616 247.970172 
L 610.805004 262.861199 
L 611.270392 255.098614 
L 611.73578 265.026046 
L 612.201168 248.223658 
L 612.666555 243.060746 
L 613.131943 239.276949 
L 613.597331 259.235527 
L 614.062719 245.781803 
L 614.528107 241.365218 
L 615.458882 230.655179 
L 615.92427 257.720359 
L 616.389658 227.465189 
L 616.855046 231.708201 
L 617.320434 248.660677 
L 617.785822 248.803959 
L 618.251209 233.257957 
L 618.716597 257.297154 
L 619.181985 235.725643 
L 619.647373 243.967332 
L 620.112761 230.627042 
L 620.578148 235.215085 
L 621.043536 235.894621 
L 621.508924 236.217062 
L 621.974312 250.564856 
L 622.4397 243.11953 
L 622.905088 259.946123 
L 623.370475 249.678592 
L 623.835863 249.271854 
L 624.301251 260.635733 
L 624.766639 263.834202 
L 625.232027 249.55119 
L 625.697415 240.50115 
L 626.162802 250.534037 
L 626.62819 235.345659 
L 627.093578 256.84761 
L 627.558966 230.48003 
L 628.024354 257.217049 
L 628.489741 223.602844 
L 628.955129 245.485068 
L 629.420517 242.40183 
L 629.885905 258.405759 
L 630.351293 238.545003 
L 630.816681 249.183011 
L 631.282068 235.336921 
L 632.212844 266.877978 
L 632.678232 234.021098 
L 633.14362 253.951144 
L 633.609008 240.174413 
L 634.074395 234.287475 
L 634.539783 230.919922 
L 635.005171 251.516479 
L 635.470559 247.480302 
L 635.935947 251.631384 
L 636.401334 246.495792 
L 636.866722 244.444802 
L 637.33211 250.69543 
L 637.797498 253.16674 
L 638.262886 260.64675 
L 638.728274 240.305284 
L 639.193661 242.834436 
L 639.659049 233.916691 
L 640.124437 248.955807 
L 640.589825 252.215636 
L 641.055213 241.947316 
L 641.520601 243.420053 
L 641.985988 246.713479 
L 642.451376 228.347262 
L 642.916764 248.39827 
L 643.382152 239.696145 
L 643.84754 251.684236 
L 644.312927 230.80123 
L 644.778315 237.984342 
L 645.243703 249.060627 
L 645.709091 237.612952 
L 646.174479 250.198388 
L 646.639867 248.377621 
L 647.105254 252.942218 
L 647.570642 251.991873 
L 648.03603 235.289557 
L 648.501418 252.078909 
L 648.966806 247.56828 
L 649.432193 251.875353 
L 649.897581 249.687772 
L 650.362969 252.562166 
L 650.828357 248.312185 
L 651.293745 241.637844 
L 651.759133 240.628677 
L 652.22452 233.619975 
L 652.689908 251.129247 
L 653.155296 251.720439 
L 653.620684 253.536688 
L 654.086072 242.274938 
L 654.55146 235.093672 
L 655.016847 235.233802 
L 655.482235 252.612981 
L 655.947623 246.960198 
L 656.413011 245.61443 
L 656.878399 235.6045 
L 657.343786 239.671526 
L 657.809174 248.605392 
L 658.274562 262.974576 
L 658.73995 261.166277 
L 659.205338 260.197994 
L 659.670726 236.313721 
L 660.136113 232.40256 
L 660.601501 239.465682 
L 661.066889 243.442807 
L 661.532277 239.491675 
L 661.997665 246.99394 
L 662.463053 236.802467 
L 662.92844 250.763279 
L 663.393828 237.377451 
L 663.859216 245.475233 
L 664.324604 246.697723 
L 664.789992 249.98816 
L 665.255379 246.361757 
L 665.720767 251.997122 
L 666.186155 266.376341 
L 666.651543 245.279704 
L 667.116931 254.898586 
L 667.582319 245.625014 
L 668.047706 239.499587 
L 668.513094 256.004864 
L 668.978482 246.720852 
L 669.44387 230.68796 
L 669.909258 252.558244 
L 670.374646 261.620973 
L 671.305421 243.81486 
L 671.770809 225.801211 
L 672.236197 228.762449 
L 672.701585 247.69969 
L 673.166972 253.978599 
L 673.63236 232.351602 
L 674.097748 263.548368 
L 674.563136 249.687166 
L 675.028524 240.161204 
L 675.493912 253.142996 
L 675.959299 252.811769 
L 676.424687 247.342066 
L 676.890075 244.390527 
L 677.355463 249.240304 
L 677.820851 224.386076 
L 678.286239 252.957935 
L 678.751626 250.170779 
L 679.217014 252.477437 
L 679.682402 251.098428 
L 680.14779 242.93121 
L 680.613178 229.570665 
L 681.078565 251.233923 
L 681.543953 248.679076 
L 682.009341 247.786794 
L 682.474729 250.11412 
L 682.940117 250.379228 
L 683.405505 255.854045 
L 683.870892 241.563419 
L 684.33628 253.673933 
L 684.801668 242.35463 
L 685.267056 250.852911 
L 685.732444 250.672445 
L 686.197832 248.989721 
L 686.663219 265.894689 
L 687.128607 263.153676 
L 687.593995 249.092946 
L 688.059383 247.342758 
L 688.524771 241.326477 
L 688.990158 248.410199 
L 689.455546 251.040547 
L 689.920934 227.572355 
L 690.386322 250.788426 
L 690.85171 259.537482 
L 691.317098 252.947966 
L 691.782485 252.414068 
L 692.247873 245.069659 
L 692.713261 230.637424 
L 693.178649 255.957433 
L 693.644037 242.901006 
L 694.109425 250.278839 
L 694.574812 225.0746 
L 695.0402 248.672587 
L 695.505588 245.350187 
L 695.970976 234.998936 
L 696.436364 248.72443 
L 696.901751 251.040009 
L 697.367139 242.856738 
L 697.832527 237.302422 
L 698.763303 246.471557 
L 699.228691 245.810017 
L 699.694078 250.634445 
L 700.159466 264.214715 
L 701.090242 244.441294 
L 701.55563 242.128608 
L 702.021018 245.934333 
L 702.486405 260.581275 
L 702.951793 255.75928 
L 703.417181 254.187481 
L 703.882569 237.75086 
L 704.347957 251.542694 
L 704.813344 253.147821 
L 705.278732 243.679605 
L 705.74412 259.204064 
L 706.209508 242.567049 
L 706.674896 256.088488 
L 707.140284 251.429299 
L 708.071059 251.649303 
L 708.536447 224.212291 
L 709.001835 265.769999 
L 709.467223 234.895673 
L 709.932611 255.649335 
L 710.397998 251.604102 
L 710.863386 251.530735 
L 711.328774 240.031995 
L 711.794162 235.015403 
L 712.25955 256.021812 
L 713.655713 246.352846 
L 714.121101 252.20409 
L 714.586489 228.146234 
L 715.051877 244.668411 
L 715.517264 244.135445 
L 716.44804 261.794719 
L 716.913428 258.618197 
L 717.378816 256.258225 
L 717.844204 256.253909 
L 718.309591 251.40046 
L 718.774979 232.164205 
L 719.705755 242.503959 
L 720.171143 238.004779 
L 720.63653 242.528568 
L 721.101918 237.2411 
L 721.567306 249.154527 
L 722.032694 240.693478 
L 722.498082 243.243596 
L 722.96347 239.879744 
L 723.428857 250.097009 
L 723.894245 237.442339 
L 724.825021 267.77921 
L 725.290409 235.78062 
L 725.755796 253.891207 
L 726.221184 236.902308 
L 726.686572 265.154351 
L 727.15196 250.552455 
L 727.617348 266.756517 
L 728.082736 265.448817 
L 728.548123 233.189186 
L 729.478899 256.610168 
L 729.944287 240.702514 
L 730.409675 231.48465 
L 730.875063 247.145691 
L 731.34045 240.618746 
L 731.805838 241.572946 
L 732.271226 260.51384 
L 732.736614 238.710616 
L 733.202002 254.290744 
L 733.667389 252.281273 
L 734.132777 244.274719 
L 734.598165 258.787396 
L 735.063553 255.055846 
L 735.528941 242.183797 
L 735.994329 249.718438 
L 736.459716 253.975446 
L 736.925104 250.808297 
L 737.390492 266.530351 
L 737.85588 224.672448 
L 738.321268 253.679086 
L 738.786656 248.28348 
L 739.252043 247.947957 
L 739.717431 262.05108 
L 740.182819 236.459022 
L 740.648207 247.594995 
L 741.578982 253.985146 
L 742.04437 263.64968 
L 742.509758 235.751531 
L 742.975146 248.448652 
L 743.440534 250.649306 
L 743.905922 230.666859 
L 744.371309 247.989783 
L 744.836697 246.501204 
L 745.302085 248.370815 
L 745.767473 255.167886 
L 746.232861 251.993382 
L 746.698249 250.404616 
L 747.163636 254.680697 
L 747.163636 254.680697 
" clip-path="url(#p45017ef280)" style="fill: none; stroke: #ff7f0e; stroke-width: 1.5; stroke-linecap: square"/>
   </g>
   <g id="patch_3">
    <path d="M 108 384.48 
L 108 51.84 
" style="fill: none; stroke: #000000; stroke-width: 0.8; stroke-linejoin: miter; stroke-linecap: square"/>
   </g>
   <g id="patch_4">
    <path d="M 777.6 384.48 
L 777.6 51.84 
" style="fill: none; stroke: #000000; stroke-width: 0.8; stroke-linejoin: miter; stroke-linecap: square"/>
   </g>
   <g id="patch_5">
    <path d="M 108 384.48 
L 777.6 384.48 
" style="fill: none; stroke: #000000; stroke-width: 0.8; stroke-linejoin: miter; stroke-linecap: square"/>
   </g>
   <g id="patch_6">
    <path d="M 108 51.84 
L 777.6 51.84 
" style="fill: none; stroke: #000000; stroke-width: 0.8; stroke-linejoin: miter; stroke-linecap: square"/>
   </g>
   <g id="text_16">
    <!-- Regresso: Real vs Previsto -->
    <g transform="translate(360.520313 45.84) scale(0.12 -0.12)">
     <defs>
      <path id="DejaVuSans-52" d="M 2841 2188 
Q 3044 2119 3236 1894 
Q 3428 1669 3622 1275 
L 4263 0 
L 3584 0 
L 2988 1197 
Q 2756 1666 2539 1819 
Q 2322 1972 1947 1972 
L 1259 1972 
L 1259 0 
L 628 0 
L 628 4666 
L 2053 4666 
Q 2853 4666 3247 4331 
Q 3641 3997 3641 3322 
Q 3641 2881 3436 2590 
Q 3231 2300 2841 2188 
z
M 1259 4147 
L 1259 2491 
L 2053 2491 
Q 2509 2491 2742 2702 
Q 2975 2913 2975 3322 
Q 2975 3731 2742 3939 
Q 2509 4147 2053 4147 
L 1259 4147 
z
" transform="scale(0.015625)"/>
      <path id="DejaVuSans-65" d="M 3597 1894 
L 3597 1613 
L 953 1613 
Q 991 1019 1311 708 
Q 1631 397 2203 397 
Q 2534 397 2845 478 
Q 3156 559 3463 722 
L 3463 178 
Q 3153 47 2828 -22 
Q 2503 -91 2169 -91 
Q 1331 -91 842 396 
Q 353 884 353 1716 
Q 353 2575 817 3079 
Q 1281 3584 2069 3584 
Q 2775 3584 3186 3129 
Q 3597 2675 3597 1894 
z
M 3022 2063 
Q 3016 2534 2758 2815 
Q 2500 3097 2075 3097 
Q 1594 3097 1305 2825 
Q 1016 2553 972 2059 
L 3022 2063 
z
" transform="scale(0.015625)"/>
      <path id="DejaVuSans-67" d="M 2906 1791 
Q 2906 2416 2648 2759 
Q 2391 3103 1925 3103 
Q 1463 3103 1205 2759 
Q 947 2416 947 1791 
Q 947 1169 1205 825 
Q 1463 481 1925 481 
Q 2391 481 2648 825 
Q 2906 1169 2906 1791 
z
M 3481 434 
Q 3481 -459 3084 -895 
Q 2688 -1331 1869 -1331 
Q 1566 -1331 1297 -1286 
Q 1028 -1241 775 -1147 
L 775 -588 
Q 1028 -725 1275 -790 
Q 1522 -856 1778 -856 
Q 2344 -856 2625 -561 
Q 2906 -266 2906 331 
L 2906 616 
Q 2728 306 2450 153 
Q 2172 0 1784 0 
Q 1141 0 747 490 
Q 353 981 353 1791 
Q 353 2603 747 3093 
Q 1141 3584 1784 3584 
Q 2172 3584 2450 3431 
Q 2728 3278 2906 2969 
L 2906 3500 
L 3481 3500 
L 3481 434 
z
" transform="scale(0.015625)"/>
      <path id="DejaVuSans-72" d="M 2631 2963 
Q 2534 3019 2420 3045 
Q 2306 3072 2169 3072 
Q 1681 3072 1420 2755 
Q 1159 2438 1159 1844 
L 1159 0 
L 581 0 
L 581 3500 
L 1159 3500 
L 1159 2956 
Q 1341 3275 1631 3429 
Q 1922 3584 2338 3584 
Q 2397 3584 2469 3576 
Q 2541 3569 2628 3553 
L 2631 2963 
z
" transform="scale(0.015625)"/>
      <path id="DejaVuSans-73" d="M 2834 3397 
L 2834 2853 
Q 2591 2978 2328 3040 
Q 2066 3103 1784 3103 
Q 1356 3103 1142 2972 
Q 928 2841 928 2578 
Q 928 2378 1081 2264 
Q 1234 2150 1697 2047 
L 1894 2003 
Q 2506 1872 2764 1633 
Q 3022 1394 3022 966 
Q 3022 478 2636 193 
Q 2250 -91 1575 -91 
Q 1294 -91 989 -36 
Q 684 19 347 128 
L 347 722 
Q 666 556 975 473 
Q 1284 391 1588 391 
Q 1994 391 2212 530 
Q 2431 669 2431 922 
Q 2431 1156 2273 1281 
Q 2116 1406 1581 1522 
L 1381 1569 
Q 847 1681 609 1914 
Q 372 2147 372 2553 
Q 372 3047 722 3315 
Q 1072 3584 1716 3584 
Q 2034 3584 2315 3537 
Q 2597 3491 2834 3397 
z
" transform="scale(0.015625)"/>
      <path id="DejaVuSans-e3" d="M 2194 1759 
Q 1497 1759 1228 1600 
Q 959 1441 959 1056 
Q 959 750 1161 570 
Q 1363 391 1709 391 
Q 2188 391 2477 730 
Q 2766 1069 2766 1631 
L 2766 1759 
L 2194 1759 
z
M 3341 1997 
L 3341 0 
L 2766 0 
L 2766 531 
Q 2569 213 2275 61 
Q 1981 -91 1556 -91 
Q 1019 -91 701 211 
Q 384 513 384 1019 
Q 384 1609 779 1909 
Q 1175 2209 1959 2209 
L 2766 2209 
L 2766 2266 
Q 2766 2663 2505 2880 
Q 2244 3097 1772 3097 
Q 1472 3097 1187 3025 
Q 903 2953 641 2809 
L 641 3341 
Q 956 3463 1253 3523 
Q 1550 3584 1831 3584 
Q 2591 3584 2966 3190 
Q 3341 2797 3341 1997 
z
M 1844 4281 
L 1665 4453 
Q 1597 4516 1545 4545 
Q 1494 4575 1453 4575 
Q 1334 4575 1278 4461 
Q 1222 4347 1215 4091 
L 825 4091 
Q 831 4513 990 4742 
Q 1150 4972 1434 4972 
Q 1553 4972 1653 4928 
Q 1753 4884 1869 4781 
L 2047 4609 
Q 2115 4547 2167 4517 
Q 2219 4488 2259 4488 
Q 2378 4488 2434 4602 
Q 2490 4716 2497 4972 
L 2887 4972 
Q 2881 4550 2721 4320 
Q 2562 4091 2278 4091 
Q 2159 4091 2059 4134 
Q 1959 4178 1844 4281 
z
" transform="scale(0.015625)"/>
      <path id="DejaVuSans-6f" d="M 1959 3097 
Q 1497 3097 1228 2736 
Q 959 2375 959 1747 
Q 959 1119 1226 758 
Q 1494 397 1959 397 
Q 2419 397 2687 759 
Q 2956 1122 2956 1747 
Q 2956 2369 2687 2733 
Q 2419 3097 1959 3097 
z
M 1959 3584 
Q 2709 3584 3137 3096 
Q 3566 2609 3566 1747 
Q 3566 888 3137 398 
Q 2709 -91 1959 -91 
Q 1206 -91 779 398 
Q 353 888 353 1747 
Q 353 2609 779 3096 
Q 1206 3584 1959 3584 
z
" transform="scale(0.015625)"/>
      <path id="DejaVuSans-3a" d="M 750 794 
L 1409 794 
L 1409 0 
L 750 0 
L 750 794 
z
M 750 3309 
L 1409 3309 
L 1409 2516 
L 750 2516 
L 750 3309 
z
" transform="scale(0.015625)"/>
      <path id="DejaVuSans-20" transform="scale(0.015625)"/>
      <path id="DejaVuSans-61" d="M 2194 1759 
Q 1497 1759 1228 1600 
Q 959 1441 959 1056 
Q 959 750 1161 570 
Q 1363 391 1709 391 
Q 2188 391 2477 730 
Q 2766 1069 2766 1631 
L 2766 1759 
L 2194 1759 
z
M 3341 1997 
L 3341 0 
L 2766 0 
L 2766 531 
Q 2569 213 2275 61 
Q 1981 -91 1556 -91 
Q 1019 -91 701 211 
Q 384 513 384 1019 
Q 384 1609 779 1909 
Q 1175 2209 1959 2209 
L 2766 2209 
L 2766 2266 
Q 2766 2663 2505 2880 
Q 2244 3097 1772 3097 
Q 1472 3097 1187 3025 
Q 903 2953 641 2809 
L 641 3341 
Q 956 3463 1253 3523 
Q 1550 3584 1831 3584 
Q 2591 3584 2966 3190 
Q 3341 2797 3341 1997 
z
" transform="scale(0.015625)"/>
      <path id="DejaVuSans-6c" d="M 603 4863 
L 1178 4863 
L 1178 0 
L 603 0 
L 603 4863 
z
" transform="scale(0.015625)"/>
      <path id="DejaVuSans-76" d="M 191 3500 
L 800 3500 
L 1894 563 
L 2988 3500 
L 3597 3500 
L 2284 0 
L 1503 0 
L 191 3500 
z
" transform="scale(0.015625)"/>
      <path id="DejaVuSans-50" d="M 1259 4147 
L 1259 2394 
L 2053 2394 
Q 2494 2394 2734 2622 
Q 2975 2850 2975 3272 
Q 2975 3691 2734 3919 
Q 2494 4147 2053 4147 
L 1259 4147 
z
M 628 4666 
L 2053 4666 
Q 2838 4666 3239 4311 
Q 3641 3956 3641 3272 
Q 3641 2581 3239 2228 
Q 2838 1875 2053 1875 
L 1259 1875 
L 1259 0 
L 628 0 
L 628 4666 
z
" transform="scale(0.015625)"/>
      <path id="DejaVuSans-69" d="M 603 3500 
L 1178 3500 
L 1178 0 
L 603 0 
L 603 3500 
z
M 603 4863 
L 1178 4863 
L 1178 4134 
L 603 4134 
L 603 4863 
z
" transform="scale(0.015625)"/>
      <path id="DejaVuSans-74" d="M 1172 4494 
L 1172 3500 
L 2356 3500 
L 2356 3053 
L 1172 3053 
L 1172 1153 
Q 1172 725 1289 603 
Q 1406 481 1766 481 
L 2356 481 
L 2356 0 
L 1766 0 
Q 1100 0 847 248 
Q 594 497 594 1153 
L 594 3053 
L 172 3053 
L 172 3500 
L 594 3500 
L 594 4494 
L 1172 4494 
z
" transform="scale(0.015625)"/>
     </defs>
     <use xlink:href="#DejaVuSans-52"/>
     <use xlink:href="#DejaVuSans-65" x="64.982422"/>
     <use xlink:href="#DejaVuSans-67" x="126.505859"/>
     <use xlink:href="#DejaVuSans-72" x="189.982422"/>
     <use xlink:href="#DejaVuSans-65" x="228.845703"/>
     <use xlink:href="#DejaVuSans-73" x="290.369141"/>
     <use xlink:href="#DejaVuSans-73" x="342.46875"/>
     <use xlink:href="#DejaVuSans-e3" x="394.568359"/>
     <use xlink:href="#DejaVuSans-6f" x="455.847656"/>
     <use xlink:href="#DejaVuSans-3a" x="517.029297"/>
     <use xlink:href="#DejaVuSans-20" x="550.720703"/>
     <use xlink:href="#DejaVuSans-52" x="582.507812"/>
     <use xlink:href="#DejaVuSans-65" x="647.490234"/>
     <use xlink:href="#DejaVuSans-61" x="709.013672"/>
     <use xlink:href="#DejaVuSans-6c" x="770.292969"/>
     <use xlink:href="#DejaVuSans-20" x="798.076172"/>
     <use xlink:href="#DejaVuSans-76" x="829.863281"/>
     <use xlink:href="#DejaVuSans-73" x="889.042969"/>
     <use xlink:href="#DejaVuSans-20" x="941.142578"/>
     <use xlink:href="#DejaVuSans-50" x="972.929688"/>
     <use xlink:href="#DejaVuSans-72" x="1031.482422"/>
     <use xlink:href="#DejaVuSans-65" x="1070.345703"/>
     <use xlink:href="#DejaVuSans-76" x="1131.869141"/>
     <use xlink:href="#DejaVuSans-69" x="1191.048828"/>
     <use xlink:href="#DejaVuSans-73" x="1218.832031"/>
     <use xlink:href="#DejaVuSans-74" x="1270.931641"/>
     <use xlink:href="#DejaVuSans-6f" x="1310.140625"/>
    </g>
   </g>
   <g id="legend_1">
    <g id="patch_7">
     <path d="M 115 379.48 
L 213.284375 379.48 
Q 215.284375 379.48 215.284375 377.48 
L 215.284375 349.12375 
Q 215.284375 347.12375 213.284375 347.12375 
L 115 347.12375 
Q 113 347.12375 113 349.12375 
L 113 377.48 
Q 113 379.48 115 379.48 
z
" style="fill: #ffffff; opacity: 0.8; stroke: #cccccc; stroke-linejoin: miter"/>
    </g>
    <g id="line2d_18">
     <path d="M 117 355.222188 
L 127 355.222188 
L 137 355.222188 
" style="fill: none; stroke: #1f77b4; stroke-width: 1.5; stroke-linecap: square"/>
    </g>
    <g id="text_17">
     <!-- Valores Reais -->
     <g transform="translate(145 358.722188) scale(0.1 -0.1)">
      <defs>
       <path id="DejaVuSans-56" d="M 1831 0 
L 50 4666 
L 709 4666 
L 2188 738 
L 3669 4666 
L 4325 4666 
L 2547 0 
L 1831 0 
z
" transform="scale(0.015625)"/>
      </defs>
      <use xlink:href="#DejaVuSans-56"/>
      <use xlink:href="#DejaVuSans-61" x="60.658203"/>
      <use xlink:href="#DejaVuSans-6c" x="121.9375"/>
      <use xlink:href="#DejaVuSans-6f" x="149.720703"/>
      <use xlink:href="#DejaVuSans-72" x="210.902344"/>
      <use xlink:href="#DejaVuSans-65" x="249.765625"/>
      <use xlink:href="#DejaVuSans-73" x="311.289062"/>
      <use xlink:href="#DejaVuSans-20" x="363.388672"/>
      <use xlink:href="#DejaVuSans-52" x="395.175781"/>
      <use xlink:href="#DejaVuSans-65" x="460.158203"/>
      <use xlink:href="#DejaVuSans-61" x="521.681641"/>
      <use xlink:href="#DejaVuSans-69" x="582.960938"/>
      <use xlink:href="#DejaVuSans-73" x="610.744141"/>
     </g>
    </g>
    <g id="line2d_19">
     <path d="M 117 369.900312 
L 127 369.900312 
L 137 369.900312 
" style="fill: none; stroke: #ff7f0e; stroke-width: 1.5; stroke-linecap: square"/>
    </g>
    <g id="text_18">
     <!-- Previses -->
     <g transform="translate(145 373.400312) scale(0.1 -0.1)">
      <defs>
       <path id="DejaVuSans-f5" d="M 1959 3097 
Q 1497 3097 1228 2736 
Q 959 2375 959 1747 
Q 959 1119 1226 758 
Q 1494 397 1959 397 
Q 2419 397 2687 759 
Q 2956 1122 2956 1747 
Q 2956 2369 2687 2733 
Q 2419 3097 1959 3097 
z
M 1959 3584 
Q 2709 3584 3137 3096 
Q 3566 2609 3566 1747 
Q 3566 888 3137 398 
Q 2709 -91 1959 -91 
Q 1206 -91 779 398 
Q 353 888 353 1747 
Q 353 2609 779 3096 
Q 1206 3584 1959 3584 
z
M 1948 4281 
L 1769 4453 
Q 1701 4516 1649 4545 
Q 1598 4575 1557 4575 
Q 1438 4575 1382 4461 
Q 1326 4347 1319 4091 
L 929 4091 
Q 935 4513 1094 4742 
Q 1254 4972 1538 4972 
Q 1657 4972 1757 4928 
Q 1857 4884 1973 4781 
L 2151 4609 
Q 2219 4547 2271 4517 
Q 2323 4488 2363 4488 
Q 2482 4488 2538 4602 
Q 2594 4716 2601 4972 
L 2991 4972 
Q 2985 4550 2825 4320 
Q 2666 4091 2382 4091 
Q 2263 4091 2163 4134 
Q 2063 4178 1948 4281 
z
" transform="scale(0.015625)"/>
      </defs>
      <use xlink:href="#DejaVuSans-50"/>
      <use xlink:href="#DejaVuSans-72" x="58.552734"/>
      <use xlink:href="#DejaVuSans-65" x="97.416016"/>
      <use xlink:href="#DejaVuSans-76" x="158.939453"/>
      <use xlink:href="#DejaVuSans-69" x="218.119141"/>
      <use xlink:href="#DejaVuSans-73" x="245.902344"/>
      <use xlink:href="#DejaVuSans-f5" x="298.001953"/>
      <use xlink:href="#DejaVuSans-65" x="359.183594"/>
      <use xlink:href="#DejaVuSans-73" x="420.707031"/>
     </g>
    </g>
   </g>
  </g>
 </g>
 <defs>
  <clipPath id="p45017ef280">
   <rect x="108" y="51.84" width="669.6" height="332.64"/>
  </clipPath>
 </defs>
</svg>
