<?xml version="1.0" encoding="utf-8" standalone="no"?>
<!DOCTYPE svg PUBLIC "-//W3C//DTD SVG 1.1//EN"
  "http://www.w3.org/Graphics/SVG/1.1/DTD/svg11.dtd">
<svg xmlns:xlink="http://www.w3.org/1999/xlink" width="864pt" height="432pt" viewBox="0 0 864 432" xmlns="http://www.w3.org/2000/svg" version="1.1">
 <metadata>
  <rdf:RDF xmlns:dc="http://purl.org/dc/elements/1.1/" xmlns:cc="http://creativecommons.org/ns#" xmlns:rdf="http://www.w3.org/1999/02/22-rdf-syntax-ns#">
   <cc:Work>
    <dc:type rdf:resource="http://purl.org/dc/dcmitype/StillImage"/>
    <dc:date>2024-11-24T15:01:07.598302</dc:date>
    <dc:format>image/svg+xml</dc:format>
    <dc:creator>
     <cc:Agent>
      <dc:title>Matplotlib v3.9.2, https://matplotlib.org/</dc:title>
     </cc:Agent>
    </dc:creator>
   </cc:Work>
  </rdf:RDF>
 </metadata>
 <defs>
  <style type="text/css">*{stroke-linejoin: round; stroke-linecap: butt}</style>
 </defs>
 <g id="figure_1">
  <g id="patch_1">
   <path d="M 0 432 
L 864 432 
L 864 0 
L 0 0 
z
" style="fill: #ffffff"/>
  </g>
  <g id="axes_1">
   <g id="patch_2">
    <path d="M 108 384.48 
L 777.6 384.48 
L 777.6 51.84 
L 108 51.84 
z
" style="fill: #ffffff"/>
   </g>
   <g id="matplotlib.axis_1">
    <g id="xtick_1">
     <g id="line2d_1">
      <defs>
       <path id="mc9aa14e594" d="M 0 0 
L 0 3.5 
" style="stroke: #000000; stroke-width: 0.8"/>
      </defs>
      <g>
       <use xlink:href="#mc9aa14e594" x="138.436364" y="384.48" style="stroke: #000000; stroke-width: 0.8"/>
      </g>
     </g>
     <g id="text_1">
      <!-- 0 -->
      <g transform="translate(135.255114 399.078438) scale(0.1 -0.1)">
       <defs>
        <path id="DejaVuSans-30" d="M 2034 4250 
Q 1547 4250 1301 3770 
Q 1056 3291 1056 2328 
Q 1056 1369 1301 889 
Q 1547 409 2034 409 
Q 2525 409 2770 889 
Q 3016 1369 3016 2328 
Q 3016 3291 2770 3770 
Q 2525 4250 2034 4250 
z
M 2034 4750 
Q 2819 4750 3233 4129 
Q 3647 3509 3647 2328 
Q 3647 1150 3233 529 
Q 2819 -91 2034 -91 
Q 1250 -91 836 529 
Q 422 1150 422 2328 
Q 422 3509 836 4129 
Q 1250 4750 2034 4750 
z
" transform="scale(0.015625)"/>
       </defs>
       <use xlink:href="#DejaVuSans-30"/>
      </g>
     </g>
    </g>
    <g id="xtick_2">
     <g id="line2d_2">
      <g>
       <use xlink:href="#mc9aa14e594" x="231.513928" y="384.48" style="stroke: #000000; stroke-width: 0.8"/>
      </g>
     </g>
     <g id="text_2">
      <!-- 200 -->
      <g transform="translate(221.970178 399.078438) scale(0.1 -0.1)">
       <defs>
        <path id="DejaVuSans-32" d="M 1228 531 
L 3431 531 
L 3431 0 
L 469 0 
L 469 531 
Q 828 903 1448 1529 
Q 2069 2156 2228 2338 
Q 2531 2678 2651 2914 
Q 2772 3150 2772 3378 
Q 2772 3750 2511 3984 
Q 2250 4219 1831 4219 
Q 1534 4219 1204 4116 
Q 875 4013 500 3803 
L 500 4441 
Q 881 4594 1212 4672 
Q 1544 4750 1819 4750 
Q 2544 4750 2975 4387 
Q 3406 4025 3406 3419 
Q 3406 3131 3298 2873 
Q 3191 2616 2906 2266 
Q 2828 2175 2409 1742 
Q 1991 1309 1228 531 
z
" transform="scale(0.015625)"/>
       </defs>
       <use xlink:href="#DejaVuSans-32"/>
       <use xlink:href="#DejaVuSans-30" x="63.623047"/>
       <use xlink:href="#DejaVuSans-30" x="127.246094"/>
      </g>
     </g>
    </g>
    <g id="xtick_3">
     <g id="line2d_3">
      <g>
       <use xlink:href="#mc9aa14e594" x="324.591493" y="384.48" style="stroke: #000000; stroke-width: 0.8"/>
      </g>
     </g>
     <g id="text_3">
      <!-- 400 -->
      <g transform="translate(315.047743 399.078438) scale(0.1 -0.1)">
       <defs>
        <path id="DejaVuSans-34" d="M 2419 4116 
L 825 1625 
L 2419 1625 
L 2419 4116 
z
M 2253 4666 
L 3047 4666 
L 3047 1625 
L 3713 1625 
L 3713 1100 
L 3047 1100 
L 3047 0 
L 2419 0 
L 2419 1100 
L 313 1100 
L 313 1709 
L 2253 4666 
z
" transform="scale(0.015625)"/>
       </defs>
       <use xlink:href="#DejaVuSans-34"/>
       <use xlink:href="#DejaVuSans-30" x="63.623047"/>
       <use xlink:href="#DejaVuSans-30" x="127.246094"/>
      </g>
     </g>
    </g>
    <g id="xtick_4">
     <g id="line2d_4">
      <g>
       <use xlink:href="#mc9aa14e594" x="417.669058" y="384.48" style="stroke: #000000; stroke-width: 0.8"/>
      </g>
     </g>
     <g id="text_4">
      <!-- 600 -->
      <g transform="translate(408.125308 399.078438) scale(0.1 -0.1)">
       <defs>
        <path id="DejaVuSans-36" d="M 2113 2584 
Q 1688 2584 1439 2293 
Q 1191 2003 1191 1497 
Q 1191 994 1439 701 
Q 1688 409 2113 409 
Q 2538 409 2786 701 
Q 3034 994 3034 1497 
Q 3034 2003 2786 2293 
Q 2538 2584 2113 2584 
z
M 3366 4563 
L 3366 3988 
Q 3128 4100 2886 4159 
Q 2644 4219 2406 4219 
Q 1781 4219 1451 3797 
Q 1122 3375 1075 2522 
Q 1259 2794 1537 2939 
Q 1816 3084 2150 3084 
Q 2853 3084 3261 2657 
Q 3669 2231 3669 1497 
Q 3669 778 3244 343 
Q 2819 -91 2113 -91 
Q 1303 -91 875 529 
Q 447 1150 447 2328 
Q 447 3434 972 4092 
Q 1497 4750 2381 4750 
Q 2619 4750 2861 4703 
Q 3103 4656 3366 4563 
z
" transform="scale(0.015625)"/>
       </defs>
       <use xlink:href="#DejaVuSans-36"/>
       <use xlink:href="#DejaVuSans-30" x="63.623047"/>
       <use xlink:href="#DejaVuSans-30" x="127.246094"/>
      </g>
     </g>
    </g>
    <g id="xtick_5">
     <g id="line2d_5">
      <g>
       <use xlink:href="#mc9aa14e594" x="510.746622" y="384.48" style="stroke: #000000; stroke-width: 0.8"/>
      </g>
     </g>
     <g id="text_5">
      <!-- 800 -->
      <g transform="translate(501.202872 399.078438) scale(0.1 -0.1)">
       <defs>
        <path id="DejaVuSans-38" d="M 2034 2216 
Q 1584 2216 1326 1975 
Q 1069 1734 1069 1313 
Q 1069 891 1326 650 
Q 1584 409 2034 409 
Q 2484 409 2743 651 
Q 3003 894 3003 1313 
Q 3003 1734 2745 1975 
Q 2488 2216 2034 2216 
z
M 1403 2484 
Q 997 2584 770 2862 
Q 544 3141 544 3541 
Q 544 4100 942 4425 
Q 1341 4750 2034 4750 
Q 2731 4750 3128 4425 
Q 3525 4100 3525 3541 
Q 3525 3141 3298 2862 
Q 3072 2584 2669 2484 
Q 3125 2378 3379 2068 
Q 3634 1759 3634 1313 
Q 3634 634 3220 271 
Q 2806 -91 2034 -91 
Q 1263 -91 848 271 
Q 434 634 434 1313 
Q 434 1759 690 2068 
Q 947 2378 1403 2484 
z
M 1172 3481 
Q 1172 3119 1398 2916 
Q 1625 2713 2034 2713 
Q 2441 2713 2670 2916 
Q 2900 3119 2900 3481 
Q 2900 3844 2670 4047 
Q 2441 4250 2034 4250 
Q 1625 4250 1398 4047 
Q 1172 3844 1172 3481 
z
" transform="scale(0.015625)"/>
       </defs>
       <use xlink:href="#DejaVuSans-38"/>
       <use xlink:href="#DejaVuSans-30" x="63.623047"/>
       <use xlink:href="#DejaVuSans-30" x="127.246094"/>
      </g>
     </g>
    </g>
    <g id="xtick_6">
     <g id="line2d_6">
      <g>
       <use xlink:href="#mc9aa14e594" x="603.824187" y="384.48" style="stroke: #000000; stroke-width: 0.8"/>
      </g>
     </g>
     <g id="text_6">
      <!-- 1000 -->
      <g transform="translate(591.099187 399.078438) scale(0.1 -0.1)">
       <defs>
        <path id="DejaVuSans-31" d="M 794 531 
L 1825 531 
L 1825 4091 
L 703 3866 
L 703 4441 
L 1819 4666 
L 2450 4666 
L 2450 531 
L 3481 531 
L 3481 0 
L 794 0 
L 794 531 
z
" transform="scale(0.015625)"/>
       </defs>
       <use xlink:href="#DejaVuSans-31"/>
       <use xlink:href="#DejaVuSans-30" x="63.623047"/>
       <use xlink:href="#DejaVuSans-30" x="127.246094"/>
       <use xlink:href="#DejaVuSans-30" x="190.869141"/>
      </g>
     </g>
    </g>
    <g id="xtick_7">
     <g id="line2d_7">
      <g>
       <use xlink:href="#mc9aa14e594" x="696.901751" y="384.48" style="stroke: #000000; stroke-width: 0.8"/>
      </g>
     </g>
     <g id="text_7">
      <!-- 1200 -->
      <g transform="translate(684.176751 399.078438) scale(0.1 -0.1)">
       <use xlink:href="#DejaVuSans-31"/>
       <use xlink:href="#DejaVuSans-32" x="63.623047"/>
       <use xlink:href="#DejaVuSans-30" x="127.246094"/>
       <use xlink:href="#DejaVuSans-30" x="190.869141"/>
      </g>
     </g>
    </g>
   </g>
   <g id="matplotlib.axis_2">
    <g id="ytick_1">
     <g id="line2d_8">
      <defs>
       <path id="mb24e5856f7" d="M 0 0 
L -3.5 0 
" style="stroke: #000000; stroke-width: 0.8"/>
      </defs>
      <g>
       <use xlink:href="#mb24e5856f7" x="108" y="374.085" style="stroke: #000000; stroke-width: 0.8"/>
      </g>
     </g>
     <g id="text_8">
      <!-- 0 -->
      <g transform="translate(94.6375 377.884219) scale(0.1 -0.1)">
       <use xlink:href="#DejaVuSans-30"/>
      </g>
     </g>
    </g>
    <g id="ytick_2">
     <g id="line2d_9">
      <g>
       <use xlink:href="#mb24e5856f7" x="108" y="322.000748" style="stroke: #000000; stroke-width: 0.8"/>
      </g>
     </g>
     <g id="text_9">
      <!-- 50 -->
      <g transform="translate(88.275 325.799967) scale(0.1 -0.1)">
       <defs>
        <path id="DejaVuSans-35" d="M 691 4666 
L 3169 4666 
L 3169 4134 
L 1269 4134 
L 1269 2991 
Q 1406 3038 1543 3061 
Q 1681 3084 1819 3084 
Q 2600 3084 3056 2656 
Q 3513 2228 3513 1497 
Q 3513 744 3044 326 
Q 2575 -91 1722 -91 
Q 1428 -91 1123 -41 
Q 819 9 494 109 
L 494 744 
Q 775 591 1075 516 
Q 1375 441 1709 441 
Q 2250 441 2565 725 
Q 2881 1009 2881 1497 
Q 2881 1984 2565 2268 
Q 2250 2553 1709 2553 
Q 1456 2553 1204 2497 
Q 953 2441 691 2322 
L 691 4666 
z
" transform="scale(0.015625)"/>
       </defs>
       <use xlink:href="#DejaVuSans-35"/>
       <use xlink:href="#DejaVuSans-30" x="63.623047"/>
      </g>
     </g>
    </g>
    <g id="ytick_3">
     <g id="line2d_10">
      <g>
       <use xlink:href="#mb24e5856f7" x="108" y="269.916496" style="stroke: #000000; stroke-width: 0.8"/>
      </g>
     </g>
     <g id="text_10">
      <!-- 100 -->
      <g transform="translate(81.9125 273.715715) scale(0.1 -0.1)">
       <use xlink:href="#DejaVuSans-31"/>
       <use xlink:href="#DejaVuSans-30" x="63.623047"/>
       <use xlink:href="#DejaVuSans-30" x="127.246094"/>
      </g>
     </g>
    </g>
    <g id="ytick_4">
     <g id="line2d_11">
      <g>
       <use xlink:href="#mb24e5856f7" x="108" y="217.832244" style="stroke: #000000; stroke-width: 0.8"/>
      </g>
     </g>
     <g id="text_11">
      <!-- 150 -->
      <g transform="translate(81.9125 221.631463) scale(0.1 -0.1)">
       <use xlink:href="#DejaVuSans-31"/>
       <use xlink:href="#DejaVuSans-35" x="63.623047"/>
       <use xlink:href="#DejaVuSans-30" x="127.246094"/>
      </g>
     </g>
    </g>
    <g id="ytick_5">
     <g id="line2d_12">
      <g>
       <use xlink:href="#mb24e5856f7" x="108" y="165.747992" style="stroke: #000000; stroke-width: 0.8"/>
      </g>
     </g>
     <g id="text_12">
      <!-- 200 -->
      <g transform="translate(81.9125 169.547211) scale(0.1 -0.1)">
       <use xlink:href="#DejaVuSans-32"/>
       <use xlink:href="#DejaVuSans-30" x="63.623047"/>
       <use xlink:href="#DejaVuSans-30" x="127.246094"/>
      </g>
     </g>
    </g>
    <g id="ytick_6">
     <g id="line2d_13">
      <g>
       <use xlink:href="#mb24e5856f7" x="108" y="113.66374" style="stroke: #000000; stroke-width: 0.8"/>
      </g>
     </g>
     <g id="text_13">
      <!-- 250 -->
      <g transform="translate(81.9125 117.462959) scale(0.1 -0.1)">
       <use xlink:href="#DejaVuSans-32"/>
       <use xlink:href="#DejaVuSans-35" x="63.623047"/>
       <use xlink:href="#DejaVuSans-30" x="127.246094"/>
      </g>
     </g>
    </g>
    <g id="ytick_7">
     <g id="line2d_14">
      <g>
       <use xlink:href="#mb24e5856f7" x="108" y="61.579488" style="stroke: #000000; stroke-width: 0.8"/>
      </g>
     </g>
     <g id="text_14">
      <!-- 300 -->
      <g transform="translate(81.9125 65.378707) scale(0.1 -0.1)">
       <defs>
        <path id="DejaVuSans-33" d="M 2597 2516 
Q 3050 2419 3304 2112 
Q 3559 1806 3559 1356 
Q 3559 666 3084 287 
Q 2609 -91 1734 -91 
Q 1441 -91 1130 -33 
Q 819 25 488 141 
L 488 750 
Q 750 597 1062 519 
Q 1375 441 1716 441 
Q 2309 441 2620 675 
Q 2931 909 2931 1356 
Q 2931 1769 2642 2001 
Q 2353 2234 1838 2234 
L 1294 2234 
L 1294 2753 
L 1863 2753 
Q 2328 2753 2575 2939 
Q 2822 3125 2822 3475 
Q 2822 3834 2567 4026 
Q 2313 4219 1838 4219 
Q 1578 4219 1281 4162 
Q 984 4106 628 3988 
L 628 4550 
Q 988 4650 1302 4700 
Q 1616 4750 1894 4750 
Q 2613 4750 3031 4423 
Q 3450 4097 3450 3541 
Q 3450 3153 3228 2886 
Q 3006 2619 2597 2516 
z
" transform="scale(0.015625)"/>
       </defs>
       <use xlink:href="#DejaVuSans-33"/>
       <use xlink:href="#DejaVuSans-30" x="63.623047"/>
       <use xlink:href="#DejaVuSans-30" x="127.246094"/>
      </g>
     </g>
    </g>
   </g>
   <g id="line2d_15">
    <path d="M 138.436364 350.46 
L 138.901751 345.735 
L 139.367139 251.235 
L 139.832527 355.185 
L 140.297915 211.0725 
L 140.763303 267.7725 
L 141.228691 289.035 
L 141.694078 279.585 
L 142.159466 352.8225 
L 142.624854 76.41 
L 143.090242 201.6225 
L 143.55563 239.4225 
L 144.021018 267.7725 
L 144.486405 246.51 
L 144.951793 253.5975 
L 145.417181 225.2475 
L 145.882569 267.7725 
L 146.347957 265.41 
L 146.813344 319.7475 
L 147.278732 201.6225 
L 147.74412 341.01 
L 148.209508 267.7725 
L 149.140284 267.7725 
L 149.605671 244.1475 
L 150.071059 244.1475 
L 150.536447 341.01 
L 151.001835 213.435 
L 151.467223 218.16 
L 151.932611 208.71 
L 152.397998 85.86 
L 152.863386 281.9475 
L 153.328774 267.7725 
L 153.794162 199.26 
L 154.25955 258.3225 
L 154.724937 199.26 
L 155.190325 244.1475 
L 155.655713 208.71 
L 156.121101 331.56 
L 156.586489 225.2475 
L 157.051877 199.26 
L 157.517264 201.6225 
L 157.982652 263.0475 
L 158.44804 100.035 
L 158.913428 338.6475 
L 159.378816 350.46 
L 159.844204 187.4475 
L 160.309591 213.435 
L 160.774979 319.7475 
L 161.240367 161.46 
L 161.705755 346.91625 
L 162.171143 350.46 
L 162.63653 118.935 
L 163.101918 267.7725 
L 163.567306 244.1475 
L 164.032694 253.5975 
L 164.498082 201.6225 
L 165.428857 319.7475 
L 165.894245 201.6225 
L 166.359633 279.585 
L 166.825021 267.7725 
L 167.290409 345.735 
L 167.755796 208.71 
L 168.221184 187.4475 
L 168.686572 274.86 
L 169.15196 270.135 
L 169.617348 284.31 
L 170.082736 85.86 
L 170.548123 355.185 
L 171.013511 258.3225 
L 171.478899 201.6225 
L 172.409675 267.7725 
L 172.875063 267.7725 
L 173.34045 244.1475 
L 173.805838 317.385 
L 174.271226 244.1475 
L 174.736614 336.285 
L 175.202002 310.2975 
L 175.667389 192.1725 
L 176.132777 201.6225 
L 177.063553 293.76 
L 177.528941 263.0475 
L 177.994329 246.51 
L 178.459716 267.7725 
L 178.925104 355.185 
L 179.390492 350.46 
L 179.85588 258.3225 
L 180.321268 313.84125 
L 180.786656 350.46 
L 181.252043 118.935 
L 181.717431 341.01 
L 182.182819 336.285 
L 182.648207 258.3225 
L 183.113595 263.0475 
L 183.578982 95.31 
L 184.04437 270.135 
L 184.975146 237.06 
L 185.440534 246.51 
L 185.905922 246.51 
L 186.371309 307.935 
L 186.836697 244.1475 
L 187.302085 201.6225 
L 187.767473 267.7725 
L 188.232861 213.435 
L 188.698249 201.6225 
L 189.163636 312.66 
L 189.629024 338.6475 
L 190.094412 326.835 
L 190.5598 218.16 
L 191.490575 310.2975 
L 191.955963 234.6975 
L 192.421351 222.885 
L 192.886739 329.1975 
L 193.352127 265.41 
L 193.817515 161.46 
L 194.282902 201.6225 
L 194.74829 222.885 
L 195.213678 362.2725 
L 195.679066 241.785 
L 196.144454 336.285 
L 196.609842 227.61 
L 197.075229 362.2725 
L 197.540617 213.435 
L 198.006005 192.1725 
L 198.471393 225.2475 
L 199.402168 312.66 
L 199.867556 225.2475 
L 200.332944 225.2475 
L 200.798332 267.7725 
L 201.26372 244.1475 
L 201.729108 366.9975 
L 202.194495 341.01 
L 202.659883 350.46 
L 203.125271 322.11 
L 203.590659 246.51 
L 204.056047 90.585 
L 204.521435 263.0475 
L 204.986822 350.46 
L 205.917598 359.91 
L 206.382986 348.0975 
L 206.848374 237.06 
L 207.313761 239.4225 
L 207.779149 263.0475 
L 208.244537 232.335 
L 208.709925 289.035 
L 209.175313 248.8725 
L 209.640701 324.4725 
L 210.106088 244.1475 
L 210.571476 251.235 
L 211.036864 270.135 
L 211.502252 350.46 
L 211.96764 244.1475 
L 212.433028 192.1725 
L 212.898415 244.1475 
L 213.363803 350.46 
L 213.829191 267.7725 
L 214.294579 244.1475 
L 214.759967 246.51 
L 215.225354 350.46 
L 215.690742 201.6225 
L 216.15613 199.26 
L 217.086906 308.88 
L 217.552294 312.66 
L 218.017681 225.2475 
L 218.483069 312.66 
L 218.948457 312.66 
L 219.413845 289.035 
L 219.879233 336.285 
L 220.344621 366.9975 
L 220.810008 336.285 
L 221.275396 215.7975 
L 221.740784 312.66 
L 222.206172 307.935 
L 222.67156 293.76 
L 223.136947 265.41 
L 223.602335 267.7725 
L 224.067723 255.96 
L 224.533111 286.6725 
L 224.998499 213.435 
L 225.463887 341.01 
L 225.929274 244.1475 
L 226.394662 293.76 
L 226.86005 225.2475 
L 227.325438 85.86 
L 227.790826 286.6725 
L 228.256214 225.2475 
L 228.721601 357.5475 
L 229.186989 317.385 
L 229.652377 359.91 
L 230.117765 350.46 
L 230.583153 225.2475 
L 231.04854 244.1475 
L 231.513928 255.96 
L 231.979316 341.01 
L 232.444704 187.4475 
L 232.910092 345.2625 
L 233.37548 95.31 
L 233.840867 267.7725 
L 234.306255 225.2475 
L 234.771643 222.885 
L 235.237031 244.1475 
L 235.702419 293.76 
L 236.167807 211.0725 
L 236.633194 241.785 
L 237.098582 319.7475 
L 237.56397 336.285 
L 238.494746 109.485 
L 238.960133 358.72875 
L 239.425521 279.585 
L 239.890909 244.1475 
L 240.356297 260.685 
L 240.821685 225.2475 
L 241.287073 258.3225 
L 241.75246 66.96 
L 242.217848 315.0225 
L 242.683236 263.0475 
L 243.148624 66.96 
L 243.614012 267.7725 
L 244.079399 341.01 
L 244.544787 244.1475 
L 245.010175 260.685 
L 245.475563 333.9225 
L 245.940951 244.1475 
L 246.406339 263.0475 
L 246.871726 362.2725 
L 247.337114 248.8725 
L 247.802502 239.4225 
L 248.26789 253.5975 
L 248.733278 260.685 
L 249.198666 196.8975 
L 249.664053 260.685 
L 250.129441 206.3475 
L 250.594829 307.935 
L 251.060217 267.7725 
L 251.525605 312.66 
L 251.990992 244.1475 
L 252.45638 220.5225 
L 252.921768 364.635 
L 253.387156 312.66 
L 253.852544 362.2725 
L 254.317932 95.31 
L 254.783319 267.7725 
L 255.248707 333.9225 
L 255.714095 239.4225 
L 256.179483 307.935 
L 256.644871 350.46 
L 257.110259 310.2975 
L 257.575646 229.9725 
L 258.041034 345.735 
L 258.506422 118.935 
L 258.97181 244.1475 
L 259.437198 244.1475 
L 259.902585 258.3225 
L 260.367973 196.8975 
L 260.833361 307.935 
L 261.298749 211.0725 
L 261.764137 286.6725 
L 262.229525 258.3225 
L 262.694912 206.3475 
L 263.1603 286.6725 
L 263.625688 258.3225 
L 264.091076 244.1475 
L 265.021852 336.285 
L 265.487239 317.385 
L 266.418015 248.8725 
L 266.883403 341.01 
L 267.348791 244.1475 
L 267.814178 211.0725 
L 268.279566 342.19125 
L 268.744954 350.46 
L 269.210342 329.1975 
L 270.141118 229.9725 
L 270.606505 324.4725 
L 271.071893 350.46 
L 271.537281 244.1475 
L 272.002669 281.9475 
L 272.933445 225.2475 
L 273.398832 244.1475 
L 273.86422 211.0725 
L 274.329608 225.2475 
L 274.794996 362.2725 
L 275.260384 258.3225 
L 275.725771 95.31 
L 276.191159 244.1475 
L 276.656547 161.46 
L 277.121935 244.1475 
L 277.587323 137.835 
L 278.052711 336.285 
L 278.518098 345.735 
L 278.983486 196.8975 
L 279.448874 201.6225 
L 279.914262 267.7725 
L 280.37965 234.6975 
L 280.845038 248.8725 
L 281.310425 220.5225 
L 281.775813 234.6975 
L 282.241201 95.31 
L 282.706589 345.735 
L 283.171977 333.9225 
L 283.637364 355.185 
L 284.102752 338.6475 
L 284.56814 213.435 
L 285.033528 270.135 
L 285.498916 118.935 
L 285.964304 338.6475 
L 286.429691 260.685 
L 286.895079 253.5975 
L 287.825855 357.5475 
L 288.291243 137.835 
L 288.756631 263.0475 
L 289.222018 244.1475 
L 289.687406 260.685 
L 290.152794 246.51 
L 290.618182 326.835 
L 291.08357 255.96 
L 291.548957 331.56 
L 292.014345 260.685 
L 292.479733 76.41 
L 292.945121 211.0725 
L 293.410509 310.2975 
L 293.875897 267.7725 
L 294.341284 253.5975 
L 294.806672 331.56 
L 295.737448 194.535 
L 296.202836 265.41 
L 296.668224 312.66 
L 297.133611 237.06 
L 297.598999 317.385 
L 298.064387 263.0475 
L 298.529775 244.1475 
L 298.995163 258.3225 
L 299.46055 137.835 
L 299.925938 239.4225 
L 300.391326 199.26 
L 300.856714 118.935 
L 301.322102 248.8725 
L 301.78749 317.385 
L 302.252877 258.3225 
L 302.718265 260.685 
L 303.183653 244.1475 
L 303.649041 206.3475 
L 304.114429 312.66 
L 304.579817 270.135 
L 305.045204 350.46 
L 305.510592 357.5475 
L 306.441368 218.16 
L 306.906756 258.3225 
L 307.372143 244.1475 
L 307.837531 333.9225 
L 308.302919 215.7975 
L 308.768307 270.135 
L 309.233695 137.835 
L 309.699083 173.2725 
L 310.16447 350.46 
L 310.629858 343.3725 
L 311.095246 329.1975 
L 311.560634 100.035 
L 312.026022 267.7725 
L 312.49141 244.1475 
L 312.956797 267.7725 
L 313.422185 263.0475 
L 313.887573 208.71 
L 314.352961 355.185 
L 314.818349 267.7725 
L 315.283736 267.7725 
L 315.749124 244.1475 
L 316.214512 265.41 
L 316.6799 244.1475 
L 317.145288 196.8975 
L 317.610676 350.46 
L 318.076063 307.935 
L 318.541451 344.55375 
L 319.006839 267.7725 
L 319.472227 265.41 
L 319.937615 237.06 
L 320.403003 361.09125 
L 320.86839 201.6225 
L 321.799166 333.9225 
L 322.264554 161.46 
L 322.729942 182.7225 
L 323.195329 239.4225 
L 323.660717 310.2975 
L 324.591493 225.2475 
L 325.056881 258.3225 
L 325.522269 234.6975 
L 325.987656 281.9475 
L 326.453044 350.46 
L 326.918432 267.7725 
L 327.38382 291.3975 
L 327.849208 215.7975 
L 328.314595 355.185 
L 328.779983 350.46 
L 329.245371 251.235 
L 329.710759 349.27875 
L 330.176147 161.46 
L 330.641535 237.06 
L 331.106922 356.36625 
L 331.57231 260.685 
L 332.037698 196.8975 
L 332.503086 312.66 
L 332.968474 324.4725 
L 333.433862 341.01 
L 333.899249 76.41 
L 334.364637 312.66 
L 334.830025 187.4475 
L 335.295413 350.46 
L 335.760801 312.66 
L 336.226188 331.56 
L 336.691576 312.66 
L 337.156964 350.46 
L 337.622352 358.72875 
L 338.08774 267.7725 
L 338.553128 208.71 
L 339.018515 194.535 
L 339.483903 234.6975 
L 339.949291 237.06 
L 340.414679 194.535 
L 340.880067 203.985 
L 341.345455 345.735 
L 341.810842 201.6225 
L 342.27623 234.6975 
L 342.741618 215.7975 
L 343.207006 263.0475 
L 343.672394 100.035 
L 344.137781 234.6975 
L 344.603169 319.7475 
L 345.068557 253.5975 
L 345.999333 366.9975 
L 346.464721 293.76 
L 346.930108 315.0225 
L 347.395496 241.785 
L 347.860884 341.01 
L 348.326272 196.8975 
L 348.79166 267.7725 
L 349.257048 284.31 
L 349.722435 317.385 
L 350.187823 284.31 
L 350.653211 364.635 
L 351.118599 114.21 
L 351.583987 232.335 
L 352.049374 267.7725 
L 352.514762 286.6725 
L 352.98015 215.7975 
L 353.445538 350.46 
L 353.910926 310.2975 
L 354.376314 206.3475 
L 354.841701 267.7725 
L 355.307089 206.3475 
L 355.772477 357.5475 
L 356.237865 274.86 
L 356.703253 244.1475 
L 357.168641 317.385 
L 357.634028 244.1475 
L 358.099416 315.0225 
L 358.564804 331.56 
L 359.030192 317.385 
L 359.49558 71.685 
L 359.960967 329.1975 
L 360.426355 315.0225 
L 360.891743 215.7975 
L 361.357131 310.2975 
L 361.822519 352.8225 
L 362.753294 192.1725 
L 363.218682 189.81 
L 363.68407 215.7975 
L 364.149458 213.435 
L 364.614846 303.21 
L 365.080234 251.235 
L 365.545621 255.96 
L 366.011009 345.735 
L 366.476397 342.19125 
L 366.941785 336.285 
L 367.407173 244.1475 
L 367.87256 225.2475 
L 368.337948 177.9975 
L 368.803336 227.61 
L 369.268724 206.3475 
L 369.734112 355.185 
L 370.1995 307.935 
L 370.664887 357.5475 
L 371.130275 218.16 
L 372.061051 307.935 
L 372.526439 331.56 
L 372.991827 218.16 
L 373.457214 307.935 
L 373.922602 336.285 
L 374.38799 274.86 
L 374.853378 244.1475 
L 375.318766 253.5975 
L 375.784153 260.685 
L 376.249541 364.635 
L 376.714929 244.1475 
L 377.180317 286.6725 
L 377.645705 201.6225 
L 378.111093 349.27875 
L 378.57648 192.1725 
L 379.041868 350.46 
L 379.507256 248.8725 
L 379.972644 258.3225 
L 380.438032 331.56 
L 380.90342 201.6225 
L 381.834195 359.91 
L 382.299583 194.535 
L 382.764971 286.6725 
L 383.230359 263.0475 
L 383.695746 161.46 
L 384.161134 312.66 
L 384.626522 208.71 
L 385.09191 279.585 
L 385.557298 331.56 
L 386.022686 348.0975 
L 386.488073 239.4225 
L 386.953461 232.335 
L 387.418849 196.8975 
L 387.884237 255.96 
L 388.349625 267.7725 
L 388.815013 289.035 
L 389.2804 265.41 
L 389.745788 267.7725 
L 390.211176 286.6725 
L 390.676564 326.835 
L 391.141952 350.46 
L 391.607339 293.76 
L 392.072727 218.16 
L 392.538115 248.8725 
L 393.003503 199.26 
L 393.468891 267.7725 
L 393.934279 213.435 
L 394.399666 359.91 
L 394.865054 244.1475 
L 395.330442 345.2625 
L 395.79583 286.6725 
L 396.261218 201.6225 
L 396.726606 213.435 
L 397.191993 213.435 
L 397.657381 267.7725 
L 398.122769 258.3225 
L 398.588157 357.5475 
L 399.053545 286.6725 
L 399.518932 350.46 
L 400.449708 215.7975 
L 400.915096 225.2475 
L 401.380484 315.0225 
L 401.845872 263.0475 
L 402.311259 319.7475 
L 402.776647 201.6225 
L 403.242035 244.1475 
L 403.707423 326.835 
L 404.172811 201.6225 
L 404.638198 279.585 
L 405.103586 248.8725 
L 405.568974 307.935 
L 406.034362 161.46 
L 406.49975 234.6975 
L 407.430525 343.3725 
L 407.895913 336.285 
L 408.361301 279.585 
L 408.826689 312.66 
L 409.292077 362.2725 
L 409.757465 341.01 
L 410.222852 338.6475 
L 410.68824 196.8975 
L 411.153628 192.1725 
L 411.619016 319.7475 
L 412.084404 364.635 
L 412.549791 350.46 
L 413.015179 305.5725 
L 413.480567 350.46 
L 413.945955 239.4225 
L 414.411343 244.1475 
L 414.876731 284.31 
L 415.342118 246.51 
L 415.807506 274.86 
L 416.272894 206.3475 
L 416.738282 267.7725 
L 417.20367 239.4225 
L 417.669058 350.46 
L 418.134445 194.535 
L 418.599833 272.4975 
L 419.065221 201.6225 
L 419.530609 336.285 
L 419.995997 201.6225 
L 420.461384 331.56 
L 420.926772 331.56 
L 421.39216 341.01 
L 421.857548 336.285 
L 422.322936 220.5225 
L 422.788324 211.0725 
L 423.253711 246.51 
L 423.719099 315.0225 
L 424.184487 326.835 
L 424.649875 350.46 
L 425.115263 338.6475 
L 425.580651 263.0475 
L 426.046038 206.3475 
L 426.511426 362.2725 
L 427.442202 255.96 
L 427.90759 258.3225 
L 428.372977 336.285 
L 428.838365 244.1475 
L 429.303753 303.21 
L 429.769141 319.7475 
L 430.234529 267.7725 
L 430.699917 194.535 
L 431.165304 90.585 
L 431.630692 248.8725 
L 432.09608 255.96 
L 432.561468 206.3475 
L 433.026856 309.11625 
L 433.492244 258.3225 
L 433.957631 333.9225 
L 434.423019 279.585 
L 434.888407 258.3225 
L 435.353795 350.46 
L 436.28457 161.46 
L 436.749958 289.035 
L 437.215346 241.785 
L 437.680734 211.0725 
L 438.61151 267.7725 
L 439.076897 284.31 
L 439.542285 234.6975 
L 440.007673 255.96 
L 440.473061 289.035 
L 440.938449 244.1475 
L 441.403837 267.7725 
L 441.869224 270.135 
L 442.334612 307.935 
L 442.8 260.685 
L 443.265388 344.55375 
L 443.730776 95.31 
L 444.196163 244.1475 
L 444.661551 234.6975 
L 445.126939 315.0225 
L 445.592327 196.8975 
L 446.057715 244.1475 
L 446.523103 267.7725 
L 446.98849 229.9725 
L 447.453878 310.2975 
L 447.919266 244.1475 
L 448.384654 255.96 
L 448.850042 194.535 
L 449.780817 344.55375 
L 450.246205 118.935 
L 450.711593 267.7725 
L 451.176981 237.06 
L 451.642369 333.9225 
L 452.107756 317.385 
L 452.573144 274.86 
L 453.038532 206.3475 
L 453.50392 255.96 
L 453.969308 253.5975 
L 454.434696 279.585 
L 454.900083 206.3475 
L 455.365471 359.91 
L 455.830859 215.7975 
L 456.296247 258.3225 
L 456.761635 258.3225 
L 457.227023 213.435 
L 457.69241 211.0725 
L 458.157798 289.035 
L 458.623186 312.66 
L 459.088574 187.4475 
L 459.553962 258.3225 
L 460.019349 267.7725 
L 460.484737 343.3725 
L 460.950125 362.2725 
L 461.415513 350.46 
L 462.811676 350.46 
L 463.277064 118.935 
L 463.742452 307.935 
L 464.20784 225.2475 
L 464.673228 255.96 
L 465.138616 358.72875 
L 465.604003 298.485 
L 466.069391 255.96 
L 466.534779 267.7725 
L 467.000167 258.3225 
L 468.39633 265.41 
L 468.861718 307.935 
L 469.327106 366.9975 
L 469.792494 330.37875 
L 470.257882 355.185 
L 470.723269 341.01 
L 471.188657 350.46 
L 471.654045 199.26 
L 472.584821 263.0475 
L 473.050209 369.36 
L 473.515596 263.0475 
L 473.980984 350.46 
L 474.446372 258.3225 
L 474.91176 244.1475 
L 475.377148 307.935 
L 475.842535 225.2475 
L 476.307923 355.185 
L 476.773311 267.7725 
L 477.238699 239.4225 
L 477.704087 244.1475 
L 478.169475 199.26 
L 478.634862 317.385 
L 479.10025 246.51 
L 479.565638 255.96 
L 480.031026 263.0475 
L 480.496414 341.01 
L 480.961802 312.66 
L 481.427189 350.46 
L 481.892577 338.6475 
L 482.357965 258.3225 
L 482.823353 244.1475 
L 483.288741 258.3225 
L 483.754128 258.3225 
L 484.219516 251.235 
L 484.684904 118.935 
L 485.150292 318.56625 
L 485.61568 76.41 
L 486.081068 267.7725 
L 486.546455 263.0475 
L 487.011843 137.835 
L 487.477231 215.7975 
L 487.942619 316.20375 
L 488.408007 315.0225 
L 488.873394 258.3225 
L 489.338782 244.1475 
L 489.80417 263.0475 
L 490.269558 263.0475 
L 490.734946 279.585 
L 491.200334 246.51 
L 491.665721 192.1725 
L 492.131109 310.2975 
L 492.596497 255.96 
L 493.061885 350.46 
L 493.527273 267.7725 
L 493.992661 244.1475 
L 494.458048 244.1475 
L 494.923436 239.4225 
L 495.388824 267.7725 
L 495.854212 331.56 
L 496.3196 263.0475 
L 496.784987 258.3225 
L 497.250375 319.7475 
L 498.181151 333.9225 
L 498.646539 244.1475 
L 499.111927 211.0725 
L 499.577314 215.7975 
L 500.042702 312.66 
L 500.50809 286.6725 
L 500.973478 229.9725 
L 501.438866 253.5975 
L 501.904254 263.0475 
L 502.369641 267.7725 
L 502.835029 244.1475 
L 503.300417 341.01 
L 503.765805 355.185 
L 504.231193 355.185 
L 504.69658 265.41 
L 505.161968 289.035 
L 505.627356 244.1475 
L 506.092744 355.185 
L 506.558132 326.835 
L 507.02352 258.3225 
L 507.488907 336.285 
L 507.954295 232.335 
L 508.419683 258.3225 
L 508.885071 350.46 
L 509.350459 310.2975 
L 509.815847 248.8725 
L 510.281234 225.2475 
L 510.746622 263.0475 
L 511.21201 258.3225 
L 511.677398 225.2475 
L 512.142786 310.2975 
L 512.608173 211.0725 
L 513.538949 350.46 
L 514.004337 331.56 
L 514.469725 279.585 
L 514.935113 244.1475 
L 515.4005 359.91 
L 515.865888 359.91 
L 516.331276 263.0475 
L 516.796664 350.46 
L 517.262052 246.51 
L 517.72744 350.46 
L 518.192827 263.0475 
L 518.658215 279.585 
L 519.123603 267.7725 
L 519.588991 100.035 
L 520.054379 267.7725 
L 520.519766 350.46 
L 520.985154 248.8725 
L 521.450542 199.26 
L 521.91593 225.2475 
L 522.381318 258.3225 
L 522.846706 258.3225 
L 523.312093 241.785 
L 523.777481 329.1975 
L 524.242869 369.36 
L 524.708257 192.1725 
L 525.173645 234.6975 
L 525.639033 248.8725 
L 526.10442 196.8975 
L 526.569808 343.3725 
L 527.035196 350.46 
L 527.500584 324.4725 
L 527.965972 248.8725 
L 528.431359 317.385 
L 528.896747 270.135 
L 529.362135 248.8725 
L 529.827523 90.585 
L 530.292911 336.285 
L 530.758299 333.9225 
L 531.223686 267.7725 
L 531.689074 336.285 
L 532.154462 350.46 
L 532.61985 222.885 
L 533.085238 307.935 
L 533.550626 201.6225 
L 534.016013 203.985 
L 534.481401 263.0475 
L 534.946789 350.46 
L 535.412177 220.5225 
L 535.877565 237.06 
L 536.342952 199.26 
L 536.80834 248.8725 
L 537.273728 317.385 
L 537.739116 255.96 
L 538.204504 267.7725 
L 538.669892 248.8725 
L 539.135279 192.1725 
L 539.600667 312.66 
L 540.066055 341.01 
L 540.531443 258.3225 
L 540.996831 358.72875 
L 541.462219 286.6725 
L 541.927606 312.66 
L 542.392994 206.3475 
L 542.858382 291.3975 
L 543.32377 345.735 
L 543.789158 237.06 
L 544.254545 246.51 
L 544.719933 345.735 
L 545.185321 267.7725 
L 545.650709 244.1475 
L 546.116097 336.285 
L 546.581485 255.96 
L 547.046872 343.3725 
L 547.51226 90.585 
L 547.977648 137.835 
L 548.443036 331.56 
L 548.908424 329.1975 
L 549.373812 341.01 
L 549.839199 329.1975 
L 550.304587 267.7725 
L 550.769975 319.7475 
L 551.235363 251.235 
L 551.700751 90.585 
L 552.166138 341.01 
L 552.631526 260.685 
L 553.096914 338.6475 
L 553.562302 244.1475 
L 554.02769 260.685 
L 554.493078 329.1975 
L 554.958465 267.7725 
L 555.423853 336.285 
L 555.889241 248.8725 
L 556.354629 215.7975 
L 556.820017 225.2475 
L 557.285405 161.46 
L 557.750792 215.7975 
L 558.21618 196.8975 
L 558.681568 234.6975 
L 559.146956 263.0475 
L 559.612344 225.2475 
L 560.077731 284.31 
L 560.543119 201.6225 
L 561.008507 267.7725 
L 561.473895 355.185 
L 561.939283 199.26 
L 562.404671 114.21 
L 562.870058 322.11 
L 563.335446 307.935 
L 563.800834 263.0475 
L 564.266222 201.6225 
L 564.73161 244.1475 
L 565.196997 100.035 
L 565.662385 258.3225 
L 566.127773 350.46 
L 566.593161 248.8725 
L 567.058549 192.1725 
L 567.523937 244.1475 
L 567.989324 319.7475 
L 568.454712 263.0475 
L 569.385488 350.46 
L 569.850876 309.11625 
L 570.316264 345.735 
L 570.781651 199.26 
L 571.247039 201.6225 
L 571.712427 333.9225 
L 572.177815 199.26 
L 572.643203 341.01 
L 573.10859 324.4725 
L 573.573978 215.7975 
L 574.039366 267.7725 
L 574.504754 350.46 
L 574.970142 267.7725 
L 575.900917 194.535 
L 576.366305 211.0725 
L 576.831693 258.3225 
L 577.297081 324.4725 
L 577.762469 76.41 
L 578.227857 267.7725 
L 578.693244 260.685 
L 579.158632 260.685 
L 579.62402 333.9225 
L 580.089408 341.01 
L 580.554796 244.1475 
L 581.020183 319.7475 
L 581.485571 346.91625 
L 581.950959 346.91625 
L 582.416347 336.285 
L 582.881735 338.6475 
L 583.347123 350.46 
L 583.81251 263.0475 
L 584.277898 225.2475 
L 584.743286 244.1475 
L 585.674062 333.9225 
L 586.13945 201.6225 
L 586.604837 369.36 
L 587.070225 244.1475 
L 587.535613 246.51 
L 588.001001 244.1475 
L 588.466389 270.135 
L 588.931776 232.335 
L 589.397164 255.96 
L 589.862552 241.785 
L 590.32794 336.285 
L 590.793328 298.485 
L 591.258716 161.46 
L 591.724103 319.7475 
L 592.189491 286.6725 
L 592.654879 362.2725 
L 593.120267 182.7225 
L 593.585655 326.835 
L 594.051043 286.6725 
L 594.51643 267.7725 
L 594.981818 322.11 
L 595.447206 317.385 
L 595.912594 289.035 
L 596.377982 350.46 
L 597.308757 152.01 
L 597.774145 307.935 
L 598.239533 248.8725 
L 598.704921 357.5475 
L 599.170309 286.6725 
L 599.635696 189.81 
L 600.101084 342.19125 
L 600.566472 152.01 
L 601.03186 225.2475 
L 601.497248 263.0475 
L 601.962636 286.6725 
L 602.428023 270.135 
L 602.893411 201.6225 
L 603.358799 281.9475 
L 603.824187 312.66 
L 604.289575 253.5975 
L 604.754962 344.55375 
L 605.22035 355.185 
L 605.685738 341.01 
L 606.151126 244.1475 
L 606.616514 286.6725 
L 607.081902 289.035 
L 607.547289 267.7725 
L 608.012677 331.56 
L 608.478065 246.51 
L 608.943453 246.51 
L 609.408841 326.835 
L 610.339616 218.16 
L 610.805004 201.6225 
L 611.270392 341.01 
L 611.73578 244.1475 
L 612.201168 260.685 
L 612.666555 225.2475 
L 613.131943 265.41 
L 613.597331 284.31 
L 614.062719 336.285 
L 614.528107 255.96 
L 614.993495 258.3225 
L 615.458882 336.285 
L 615.92427 225.2475 
L 616.389658 263.0475 
L 616.855046 336.285 
L 617.320434 346.91625 
L 617.785822 246.51 
L 618.251209 344.55375 
L 618.716597 201.6225 
L 619.181985 201.6225 
L 619.647373 310.2975 
L 620.112761 267.7725 
L 620.578148 213.435 
L 621.043536 265.41 
L 621.508924 241.785 
L 621.974312 286.6725 
L 622.4397 196.8975 
L 622.905088 341.01 
L 623.370475 253.5975 
L 623.835863 263.0475 
L 624.301251 267.7725 
L 624.766639 85.86 
L 625.232027 338.6475 
L 625.697415 338.6475 
L 626.162802 267.7725 
L 626.62819 289.035 
L 627.093578 362.2725 
L 627.558966 350.46 
L 628.024354 333.9225 
L 628.489741 225.2475 
L 628.955129 286.6725 
L 629.420517 312.66 
L 629.885905 352.8225 
L 630.351293 234.6975 
L 630.816681 263.0475 
L 631.282068 260.685 
L 632.212844 201.6225 
L 632.678232 350.46 
L 633.14362 369.36 
L 633.609008 182.7225 
L 634.074395 356.36625 
L 634.539783 76.41 
L 635.005171 239.4225 
L 635.470559 251.235 
L 635.935947 350.46 
L 636.401334 267.7725 
L 636.866722 244.1475 
L 637.33211 260.685 
L 637.797498 362.2725 
L 638.262886 267.7725 
L 638.728274 244.1475 
L 639.193661 175.635 
L 639.659049 307.935 
L 640.124437 286.6725 
L 640.589825 95.31 
L 641.055213 246.51 
L 641.520601 355.185 
L 641.985988 263.0475 
L 642.916764 213.435 
L 643.382152 284.31 
L 643.84754 326.835 
L 644.312927 326.835 
L 644.778315 239.4225 
L 645.243703 336.285 
L 645.709091 239.4225 
L 646.174479 279.585 
L 646.639867 187.4475 
L 647.105254 267.7725 
L 647.570642 270.135 
L 648.03603 263.0475 
L 648.501418 187.4475 
L 648.966806 265.41 
L 649.432193 192.1725 
L 649.897581 244.1475 
L 650.362969 310.2975 
L 650.828357 215.7975 
L 651.293745 220.5225 
L 651.759133 324.4725 
L 652.22452 239.4225 
L 652.689908 215.7975 
L 653.155296 263.0475 
L 654.086072 234.6975 
L 654.55146 267.7725 
L 655.016847 362.2725 
L 655.482235 312.66 
L 655.947623 350.46 
L 656.413011 263.0475 
L 656.878399 265.41 
L 657.343786 244.1475 
L 657.809174 246.51 
L 658.274562 244.1475 
L 658.73995 333.9225 
L 659.670726 215.7975 
L 660.601501 255.96 
L 661.066889 248.8725 
L 661.532277 331.56 
L 661.997665 246.51 
L 662.463053 244.1475 
L 662.92844 194.535 
L 664.324604 331.56 
L 664.789992 322.11 
L 665.255379 317.385 
L 665.720767 263.0475 
L 666.186155 225.2475 
L 666.651543 265.41 
L 667.116931 244.1475 
L 667.582319 346.91625 
L 668.047706 344.55375 
L 668.513094 267.7725 
L 668.978482 225.2475 
L 669.44387 244.1475 
L 669.909258 258.3225 
L 670.374646 333.9225 
L 670.840033 234.6975 
L 671.305421 345.735 
L 671.770809 267.7725 
L 672.236197 359.91 
L 672.701585 263.0475 
L 673.166972 352.8225 
L 673.63236 234.6975 
L 674.097748 182.7225 
L 675.493912 365.81625 
L 675.959299 246.51 
L 676.424687 215.7975 
L 676.890075 329.1975 
L 677.355463 312.66 
L 677.820851 303.21 
L 678.286239 341.01 
L 678.751626 267.7725 
L 679.217014 248.8725 
L 679.682402 206.3475 
L 680.14779 345.735 
L 680.613178 246.51 
L 681.078565 364.635 
L 682.009341 90.585 
L 682.474729 307.935 
L 682.940117 272.4975 
L 683.405505 369.36 
L 683.870892 336.285 
L 684.33628 161.46 
L 684.801668 318.56625 
L 685.267056 258.3225 
L 685.732444 227.61 
L 686.197832 267.7725 
L 686.663219 203.985 
L 687.128607 194.535 
L 687.593995 267.7725 
L 688.059383 234.6975 
L 688.524771 350.46 
L 688.990158 215.7975 
L 689.455546 215.7975 
L 689.920934 267.7725 
L 690.386322 241.785 
L 691.317098 246.51 
L 691.782485 358.72875 
L 692.247873 350.46 
L 692.713261 258.3225 
L 693.178649 358.72875 
L 693.644037 298.485 
L 694.109425 267.7725 
L 694.574812 208.71 
L 695.0402 333.9225 
L 695.505588 362.2725 
L 695.970976 66.96 
L 696.436364 286.6725 
L 696.901751 267.7725 
L 697.367139 234.6975 
L 697.832527 232.335 
L 698.297915 258.3225 
L 698.763303 196.8975 
L 699.228691 362.2725 
L 699.694078 267.7725 
L 700.159466 263.0475 
L 700.624854 293.76 
L 701.090242 246.51 
L 701.55563 272.4975 
L 702.021018 265.41 
L 702.486405 267.7725 
L 702.951793 322.11 
L 703.417181 352.8225 
L 703.882569 244.1475 
L 704.347957 338.6475 
L 704.813344 232.335 
L 705.278732 196.8975 
L 705.74412 352.8225 
L 706.209508 336.285 
L 706.674896 199.26 
L 707.140284 286.6725 
L 707.605671 265.41 
L 708.071059 322.11 
L 708.536447 234.6975 
L 709.001835 182.7225 
L 709.467223 263.0475 
L 709.932611 244.1475 
L 710.397998 274.86 
L 710.863386 338.6475 
L 711.328774 355.185 
L 711.794162 265.41 
L 712.25955 199.26 
L 712.724937 307.935 
L 713.655713 137.835 
L 714.121101 267.7725 
L 714.586489 350.46 
L 715.051877 237.06 
L 715.517264 362.2725 
L 715.982652 326.835 
L 716.44804 244.1475 
L 716.913428 322.11 
L 717.378816 244.1475 
L 717.844204 359.91 
L 718.309591 341.01 
L 718.774979 307.935 
L 719.240367 331.56 
L 719.705755 333.9225 
L 720.171143 265.41 
L 720.63653 109.485 
L 721.101918 180.36 
L 721.567306 345.735 
L 722.032694 307.935 
L 722.498082 182.7225 
L 723.428857 341.01 
L 723.894245 312.66 
L 724.825021 215.7975 
L 725.290409 350.46 
L 725.755796 263.0475 
L 726.221184 350.46 
L 726.686572 201.6225 
L 727.15196 281.9475 
L 727.617348 225.2475 
L 728.082736 208.71 
L 728.548123 260.685 
L 729.013511 289.035 
L 729.478899 362.2725 
L 729.944287 237.06 
L 730.409675 336.285 
L 730.875063 345.735 
L 731.34045 180.36 
L 731.805838 307.935 
L 732.271226 333.9225 
L 732.736614 338.6475 
L 733.202002 258.3225 
L 733.667389 267.7725 
L 734.132777 267.7725 
L 734.598165 263.0475 
L 735.063553 309.11625 
L 735.528941 258.3225 
L 735.994329 350.46 
L 736.459716 352.8225 
L 736.925104 241.785 
L 737.390492 201.6225 
L 737.85588 350.46 
L 738.321268 267.7725 
L 738.786656 359.91 
L 739.252043 336.285 
L 739.717431 215.7975 
L 740.182819 355.185 
L 740.648207 289.035 
L 741.113595 296.1225 
L 741.578982 350.46 
L 742.04437 312.66 
L 742.509758 286.6725 
L 742.975146 355.185 
L 743.440534 326.835 
L 743.905922 246.51 
L 744.371309 358.72875 
L 744.836697 357.5475 
L 745.302085 336.285 
L 745.767473 161.46 
L 746.232861 329.1975 
L 746.698249 357.5475 
L 747.163636 270.135 
L 747.163636 270.135 
" clip-path="url(#p73ca529a9d)" style="fill: none; stroke: #1f77b4; stroke-width: 1.5; stroke-linecap: square"/>
   </g>
   <g id="line2d_16">
    <path d="M 138.436364 273.131119 
L 138.901751 289.647269 
L 139.367139 286.644485 
L 139.832527 261.176712 
L 140.297915 285.275811 
L 140.763303 275.174195 
L 141.228691 284.475211 
L 141.694078 285.914736 
L 142.159466 281.606771 
L 142.624854 288.98931 
L 143.090242 272.66873 
L 143.55563 278.889522 
L 144.021018 266.735865 
L 144.486405 266.419207 
L 144.951793 292.704088 
L 145.417181 283.9019 
L 145.882569 272.464528 
L 146.347957 252.661609 
L 146.813344 257.240526 
L 147.278732 270.753503 
L 147.74412 263.791868 
L 148.209508 276.840604 
L 148.674896 285.641146 
L 149.140284 287.660619 
L 149.605671 267.39361 
L 150.071059 269.557082 
L 150.536447 265.240851 
L 151.001835 298.540145 
L 151.467223 274.989108 
L 151.932611 287.949301 
L 152.397998 286.139744 
L 153.328774 263.391492 
L 153.794162 272.070622 
L 154.25955 261.059439 
L 154.724937 270.811154 
L 155.190325 271.49526 
L 155.655713 299.483623 
L 156.586489 248.299076 
L 157.517264 281.206101 
L 157.982652 255.264915 
L 158.44804 268.882027 
L 158.913428 270.70113 
L 159.378816 278.301786 
L 159.844204 292.579321 
L 160.309591 268.750323 
L 160.774979 286.644167 
L 161.240367 255.476635 
L 161.705755 281.332696 
L 162.171143 285.259018 
L 162.63653 278.112605 
L 163.101918 288.239963 
L 163.567306 280.888514 
L 164.032694 266.441691 
L 164.498082 269.310481 
L 164.96347 274.677926 
L 165.428857 277.178449 
L 165.894245 260.421182 
L 166.359633 264.274594 
L 166.825021 291.296129 
L 167.290409 281.62288 
L 167.755796 260.565944 
L 168.221184 284.348569 
L 168.686572 262.004833 
L 169.15196 289.24315 
L 169.617348 268.464215 
L 170.082736 279.964681 
L 170.548123 267.742827 
L 171.013511 252.50084 
L 171.478899 282.224794 
L 171.944287 284.428592 
L 172.409675 290.73729 
L 172.875063 254.304564 
L 173.34045 252.949361 
L 173.805838 281.339968 
L 174.271226 278.322505 
L 174.736614 265.381345 
L 175.202002 275.98616 
L 175.667389 278.388524 
L 176.598165 253.696578 
L 177.063553 285.580269 
L 177.528941 255.854583 
L 177.994329 281.453369 
L 178.459716 284.712593 
L 178.925104 292.671066 
L 179.390492 276.852247 
L 179.85588 291.752391 
L 180.321268 283.655522 
L 180.786656 285.954402 
L 181.252043 276.943817 
L 181.717431 294.387122 
L 182.182819 283.321801 
L 182.648207 257.86556 
L 183.113595 280.818521 
L 183.578982 296.225552 
L 184.04437 286.282472 
L 184.509758 258.611386 
L 184.975146 275.892531 
L 185.440534 269.777233 
L 185.905922 269.79463 
L 186.371309 285.493006 
L 186.836697 279.720576 
L 187.302085 268.658331 
L 187.767473 277.703964 
L 188.232861 283.851791 
L 188.698249 274.499236 
L 189.163636 276.052736 
L 190.094412 295.219623 
L 190.5598 276.353705 
L 191.025188 252.575824 
L 191.490575 263.59954 
L 191.955963 283.943854 
L 192.421351 271.206777 
L 192.886739 271.420674 
L 193.352127 270.645696 
L 193.817515 254.730856 
L 194.282902 288.419702 
L 194.74829 265.704623 
L 195.213678 282.583009 
L 195.679066 271.815963 
L 196.144454 288.296397 
L 196.609842 263.522728 
L 197.075229 293.228022 
L 197.540617 289.707884 
L 198.006005 282.734939 
L 198.471393 261.722946 
L 198.936781 286.298931 
L 199.402168 276.507718 
L 199.867556 278.543292 
L 200.332944 283.230001 
L 200.798332 285.678412 
L 201.26372 269.428786 
L 201.729108 280.27018 
L 202.194495 275.892102 
L 202.659883 290.751866 
L 203.125271 291.99385 
L 203.590659 277.532014 
L 204.056047 283.054156 
L 204.521435 282.531756 
L 204.986822 293.726055 
L 205.45221 294.114295 
L 205.917598 263.60891 
L 206.382986 278.81778 
L 206.848374 284.30613 
L 207.313761 281.071027 
L 207.779149 291.749959 
L 208.244537 250.120817 
L 208.709925 274.050938 
L 209.175313 269.776923 
L 210.106088 273.455453 
L 210.571476 265.686296 
L 211.036864 276.947997 
L 211.502252 291.388796 
L 211.96764 267.599543 
L 212.433028 284.924018 
L 212.898415 264.674604 
L 213.363803 285.058091 
L 213.829191 257.299456 
L 214.294579 285.820544 
L 214.759967 272.228267 
L 215.225354 284.075082 
L 215.690742 280.136815 
L 216.15613 268.018031 
L 216.621518 284.31364 
L 217.086906 276.165708 
L 217.552294 271.034063 
L 218.017681 287.56471 
L 218.483069 258.245494 
L 219.413845 294.252556 
L 219.879233 268.40155 
L 220.810008 288.937858 
L 221.275396 278.815515 
L 221.740784 261.659526 
L 222.206172 278.581185 
L 222.67156 285.620125 
L 223.136947 273.37644 
L 223.602335 275.320444 
L 224.067723 286.58697 
L 224.533111 248.674846 
L 224.998499 281.849199 
L 225.463887 293.642647 
L 225.929274 283.672005 
L 226.394662 267.393014 
L 226.86005 287.701278 
L 227.325438 288.130503 
L 227.790826 265.445497 
L 228.256214 288.091703 
L 228.721601 286.349461 
L 229.652377 270.537007 
L 230.583153 288.342874 
L 231.04854 253.931441 
L 231.513928 279.763397 
L 231.979316 290.9717 
L 232.444704 276.891571 
L 232.910092 258.895697 
L 233.37548 284.763456 
L 233.840867 267.620238 
L 234.306255 269.140851 
L 234.771643 290.540894 
L 235.237031 273.250124 
L 235.702419 283.33977 
L 236.167807 274.455565 
L 236.633194 262.984076 
L 237.098582 292.526033 
L 237.56397 278.753414 
L 238.029358 283.588954 
L 238.494746 281.613295 
L 238.960133 280.682858 
L 239.425521 258.61071 
L 239.890909 271.510257 
L 240.356297 277.147255 
L 240.821685 287.850459 
L 241.287073 279.892638 
L 241.75246 285.260012 
L 242.217848 284.567799 
L 243.614012 274.231138 
L 244.079399 277.450108 
L 244.544787 268.526873 
L 245.010175 284.396325 
L 245.475563 272.277303 
L 245.940951 275.42051 
L 246.406339 268.725717 
L 246.871726 285.498983 
L 247.802502 271.728676 
L 248.26789 283.936932 
L 248.733278 279.798707 
L 249.198666 270.829266 
L 249.664053 254.807326 
L 250.129441 273.774916 
L 250.594829 286.138759 
L 251.060217 278.358952 
L 251.525605 277.869891 
L 251.990992 283.508367 
L 252.45638 255.521776 
L 252.921768 294.537583 
L 253.387156 277.643651 
L 253.852544 286.504213 
L 254.317932 292.39316 
L 254.783319 277.937897 
L 255.248707 267.606887 
L 255.714095 263.561893 
L 256.179483 270.755736 
L 256.644871 289.566261 
L 257.110259 279.973209 
L 257.575646 250.273065 
L 258.041034 290.855437 
L 258.506422 265.734314 
L 258.97181 270.5816 
L 259.437198 265.918384 
L 259.902585 274.243186 
L 260.367973 289.65079 
L 260.833361 263.752417 
L 261.298749 274.260973 
L 261.764137 287.751323 
L 262.229525 260.265015 
L 262.694912 281.51826 
L 263.1603 272.687907 
L 263.625688 279.689382 
L 264.091076 262.242986 
L 264.556464 283.960456 
L 265.021852 271.503303 
L 265.487239 276.107287 
L 266.418015 249.309337 
L 266.883403 277.220228 
L 267.348791 273.665583 
L 267.814178 276.940272 
L 268.279566 281.870037 
L 268.744954 283.611421 
L 269.210342 268.001389 
L 269.67573 265.202997 
L 270.141118 254.938149 
L 270.606505 271.610434 
L 272.002669 253.25188 
L 272.468057 282.085166 
L 273.398832 292.339658 
L 273.86422 255.299813 
L 274.329608 264.275532 
L 274.794996 268.897278 
L 275.260384 283.024138 
L 275.725771 282.600866 
L 276.191159 267.653999 
L 276.656547 269.253768 
L 277.121935 263.129537 
L 277.587323 277.493715 
L 278.052711 268.061026 
L 278.518098 285.071356 
L 278.983486 277.616821 
L 279.448874 286.013062 
L 279.914262 285.005662 
L 280.37965 282.952373 
L 280.845038 269.876083 
L 281.310425 278.182932 
L 281.775813 255.33529 
L 282.241201 277.85859 
L 282.706589 280.751445 
L 283.171977 278.171003 
L 283.637364 277.985502 
L 284.102752 284.645564 
L 284.56814 285.628391 
L 285.033528 282.3309 
L 285.498916 263.712537 
L 285.964304 287.28899 
L 286.429691 252.440551 
L 286.895079 279.067719 
L 287.360467 278.672183 
L 288.291243 284.986127 
L 289.222018 270.671422 
L 289.687406 252.641462 
L 290.618182 278.027417 
L 291.08357 286.230965 
L 291.548957 258.947482 
L 292.014345 275.69042 
L 292.479733 269.253029 
L 292.945121 273.88823 
L 293.410509 260.552958 
L 293.875897 282.759147 
L 294.341284 254.102326 
L 294.806672 280.055512 
L 295.27206 284.735712 
L 295.737448 279.273549 
L 296.202836 276.573697 
L 296.668224 277.19521 
L 297.133611 281.250829 
L 297.598999 269.654303 
L 298.064387 284.206564 
L 298.529775 284.622056 
L 298.995163 268.707542 
L 299.46055 285.373048 
L 299.925938 280.95648 
L 300.391326 273.669843 
L 300.856714 281.377265 
L 301.322102 278.639782 
L 301.78749 274.828435 
L 302.252877 262.618327 
L 302.718265 284.299668 
L 303.183653 278.257582 
L 303.649041 253.918248 
L 304.114429 273.533235 
L 304.579817 259.144753 
L 305.045204 287.945089 
L 305.510592 292.352239 
L 305.97598 270.560802 
L 306.441368 279.056179 
L 306.906756 279.506671 
L 307.372143 278.489083 
L 307.837531 257.680043 
L 308.302919 279.185714 
L 308.768307 253.866876 
L 309.233695 277.542091 
L 309.699083 264.219686 
L 310.16447 263.280252 
L 310.629858 275.546254 
L 311.095246 278.246702 
L 311.560634 268.358085 
L 312.026022 274.547732 
L 312.956797 257.380806 
L 313.422185 260.607732 
L 313.887573 290.347056 
L 314.352961 293.242303 
L 314.818349 267.296683 
L 315.283736 286.842217 
L 315.749124 282.561574 
L 316.214512 263.887078 
L 316.6799 272.593181 
L 317.145288 288.948802 
L 317.610676 289.461474 
L 318.076063 271.679291 
L 318.541451 279.523408 
L 319.006839 249.442933 
L 319.472227 280.471465 
L 319.937615 283.902567 
L 320.403003 285.312449 
L 320.86839 264.728591 
L 321.333778 255.34094 
L 321.799166 277.802743 
L 322.264554 291.820739 
L 322.729942 268.750156 
L 323.195329 290.732609 
L 323.660717 272.469623 
L 324.126105 263.596218 
L 324.591493 264.195541 
L 325.056881 282.349481 
L 325.522269 253.503448 
L 325.987656 268.89495 
L 326.453044 292.518603 
L 326.918432 270.08913 
L 327.38382 291.134368 
L 327.849208 279.162206 
L 328.314595 291.857806 
L 328.779983 280.138118 
L 329.245371 271.633283 
L 329.710759 283.46646 
L 330.176147 254.696945 
L 330.641535 282.379578 
L 331.106922 293.790636 
L 331.57231 283.947669 
L 332.037698 284.735784 
L 332.503086 260.961368 
L 332.968474 270.397808 
L 333.433862 284.511261 
L 334.364637 290.00414 
L 334.830025 284.207081 
L 335.295413 289.44511 
L 335.760801 283.440289 
L 336.226188 284.437199 
L 336.691576 266.764293 
L 337.156964 293.563467 
L 337.622352 283.595511 
L 338.08774 292.301948 
L 338.553128 272.873757 
L 339.018515 268.418112 
L 339.483903 280.729446 
L 339.949291 276.827578 
L 340.414679 265.380566 
L 340.880067 276.486307 
L 341.345455 270.982246 
L 341.810842 272.753751 
L 342.27623 280.521327 
L 342.741618 271.495078 
L 343.207006 294.926029 
L 343.672394 268.9406 
L 344.137781 283.041551 
L 344.603169 279.503945 
L 345.068557 256.164246 
L 345.533945 279.60262 
L 345.999333 272.541467 
L 346.464721 262.875156 
L 346.930108 288.11131 
L 347.395496 275.0919 
L 347.860884 285.217135 
L 348.326272 260.371852 
L 348.79166 266.319571 
L 349.257048 285.739766 
L 349.722435 275.261991 
L 350.187823 285.179862 
L 350.653211 285.688251 
L 351.118599 276.283521 
L 351.583987 249.383081 
L 352.049374 290.127802 
L 352.514762 266.906345 
L 352.98015 287.798213 
L 353.445538 262.34945 
L 353.910926 261.603592 
L 354.376314 273.507596 
L 354.841701 262.993128 
L 355.307089 277.754264 
L 355.772477 284.001696 
L 356.237865 259.121817 
L 356.703253 285.821267 
L 357.168641 275.062677 
L 357.634028 261.41972 
L 358.099416 267.902086 
L 358.564804 288.771351 
L 359.030192 284.383506 
L 359.49558 285.596927 
L 359.960967 269.289683 
L 360.426355 293.440798 
L 360.891743 276.092608 
L 361.357131 266.730508 
L 361.822519 262.718608 
L 362.287907 266.490448 
L 362.753294 284.874148 
L 363.218682 275.583694 
L 363.68407 272.992524 
L 364.149458 293.963516 
L 365.080234 275.750972 
L 365.545621 274.629821 
L 366.011009 289.322259 
L 366.476397 283.565946 
L 366.941785 266.383523 
L 367.407173 286.501646 
L 367.87256 273.911667 
L 368.337948 283.958231 
L 368.803336 262.134162 
L 369.268724 268.73353 
L 369.734112 268.126688 
L 370.1995 259.37383 
L 370.664887 280.93108 
L 371.130275 281.828249 
L 371.595663 267.479982 
L 372.061051 270.913707 
L 372.526439 257.875335 
L 372.991827 292.551568 
L 373.457214 277.003073 
L 373.922602 284.629328 
L 374.853378 263.924439 
L 375.318766 272.400504 
L 376.249541 293.726842 
L 376.714929 276.221666 
L 377.180317 280.579303 
L 377.645705 282.260073 
L 378.111093 280.674251 
L 378.57648 283.849614 
L 379.041868 293.454778 
L 379.507256 268.960492 
L 379.972644 252.629986 
L 380.438032 276.569414 
L 380.90342 269.765694 
L 381.368807 266.417244 
L 381.834195 264.54855 
L 382.764971 256.473679 
L 383.695746 280.438833 
L 384.161134 290.466847 
L 384.626522 288.144069 
L 385.09191 261.604077 
L 385.557298 263.758115 
L 386.022686 280.203629 
L 386.488073 282.041852 
L 386.953461 285.213018 
L 387.418849 281.275808 
L 387.884237 287.572291 
L 388.349625 269.240647 
L 388.815013 286.072398 
L 389.2804 285.733257 
L 389.745788 258.22983 
L 390.211176 256.908014 
L 390.676564 290.873819 
L 391.141952 261.418838 
L 391.607339 286.038414 
L 392.072727 272.71612 
L 392.538115 280.041533 
L 393.003503 264.642378 
L 393.468891 268.122404 
L 393.934279 255.881357 
L 394.399666 292.295733 
L 394.865054 264.387138 
L 395.330442 257.087371 
L 395.79583 283.331036 
L 396.261218 291.978368 
L 396.726606 288.610122 
L 397.191993 263.741823 
L 397.657381 268.357489 
L 398.122769 269.439007 
L 398.588157 290.37085 
L 399.053545 269.61865 
L 399.518932 268.897811 
L 399.98432 267.399061 
L 400.449708 275.206541 
L 400.915096 278.04773 
L 401.380484 284.630544 
L 402.311259 275.3749 
L 402.776647 282.747862 
L 403.242035 277.724119 
L 403.707423 294.031292 
L 404.172811 266.457697 
L 404.638198 267.809228 
L 405.568974 284.703461 
L 406.034362 278.932144 
L 406.49975 283.957325 
L 406.965138 280.844986 
L 407.430525 283.903775 
L 407.895913 267.942602 
L 408.361301 263.734861 
L 408.826689 290.445413 
L 409.292077 286.231092 
L 409.757465 277.46884 
L 410.222852 256.306863 
L 410.68824 285.904087 
L 411.153628 283.101292 
L 411.619016 263.793974 
L 412.084404 291.928085 
L 412.549791 276.941997 
L 413.015179 278.480603 
L 413.480567 286.753754 
L 413.945955 265.072015 
L 414.411343 281.705486 
L 414.876731 266.75811 
L 415.342118 281.26887 
L 415.807506 278.038011 
L 416.272894 273.894533 
L 416.738282 274.846054 
L 417.20367 281.602908 
L 417.669058 284.898189 
L 418.134445 275.310192 
L 418.599833 257.605552 
L 419.065221 280.890429 
L 419.530609 268.712127 
L 419.995997 273.366291 
L 420.461384 276.010153 
L 420.926772 274.292889 
L 421.39216 284.099695 
L 421.857548 269.642914 
L 422.322936 260.112837 
L 422.788324 296.473019 
L 424.184487 276.624903 
L 424.649875 290.272588 
L 425.115263 274.377069 
L 425.580651 277.721353 
L 426.046038 284.817197 
L 426.511426 276.29514 
L 426.976814 274.933984 
L 427.442202 263.651341 
L 427.90759 280.815278 
L 428.372977 266.888686 
L 428.838365 282.449365 
L 429.303753 289.136496 
L 429.769141 267.257224 
L 430.234529 279.428302 
L 430.699917 263.012456 
L 431.165304 284.432454 
L 431.630692 281.693795 
L 432.09608 265.506819 
L 432.561468 289.617379 
L 433.026856 277.875637 
L 433.492244 279.439833 
L 433.957631 271.484833 
L 434.423019 273.849073 
L 434.888407 250.211497 
L 435.353795 292.633061 
L 435.819183 284.383442 
L 436.28457 260.271524 
L 436.749958 289.165154 
L 437.215346 270.174374 
L 437.680734 274.046543 
L 438.146122 252.889684 
L 438.61151 276.02453 
L 439.076897 281.933608 
L 439.542285 284.437389 
L 440.007673 280.624349 
L 440.473061 294.137422 
L 440.938449 279.179142 
L 441.403837 282.090435 
L 441.869224 258.051672 
L 442.334612 277.841296 
L 442.8 280.17342 
L 443.265388 290.777298 
L 443.730776 275.756495 
L 444.196163 276.93912 
L 444.661551 287.702629 
L 445.126939 277.155632 
L 445.592327 287.93258 
L 446.523103 274.880459 
L 446.98849 251.09986 
L 447.453878 273.469051 
L 447.919266 287.783335 
L 448.384654 283.080788 
L 448.850042 293.405702 
L 449.31543 252.1502 
L 449.780817 291.945665 
L 450.246205 286.829088 
L 450.711593 278.603168 
L 451.176981 278.960143 
L 451.642369 263.460373 
L 452.107756 271.999278 
L 452.573144 266.53063 
L 453.038532 285.777469 
L 453.50392 257.768601 
L 454.434696 273.327778 
L 454.900083 262.880568 
L 455.365471 280.214922 
L 455.830859 278.93185 
L 456.296247 262.697897 
L 456.761635 270.810232 
L 457.227023 259.44186 
L 457.69241 280.756642 
L 458.157798 282.065838 
L 458.623186 281.088845 
L 459.088574 268.728666 
L 459.553962 289.540742 
L 460.019349 283.796279 
L 460.950125 279.027267 
L 461.415513 287.196283 
L 461.880901 286.135985 
L 462.346289 287.873586 
L 462.811676 277.638279 
L 463.277064 257.88755 
L 463.742452 288.591867 
L 464.20784 285.461264 
L 464.673228 262.477872 
L 465.138616 288.042445 
L 466.069391 263.739701 
L 466.534779 282.613622 
L 467.000167 250.987205 
L 467.465555 279.290922 
L 467.930942 274.19148 
L 468.39633 289.340363 
L 468.861718 270.796896 
L 469.792494 286.818438 
L 470.257882 265.845729 
L 470.723269 280.808412 
L 471.188657 276.522715 
L 471.654045 277.661899 
L 472.119433 250.586687 
L 472.584821 275.80271 
L 473.050209 263.2199 
L 473.515596 276.19021 
L 473.980984 283.812952 
L 474.446372 283.297244 
L 474.91176 276.496289 
L 475.377148 272.13084 
L 475.842535 281.350307 
L 476.307923 279.27188 
L 477.238699 287.383373 
L 477.704087 273.284289 
L 478.169475 277.354413 
L 478.634862 292.184119 
L 479.10025 284.525367 
L 479.565638 262.859865 
L 480.031026 249.201427 
L 480.496414 273.19024 
L 480.961802 287.13713 
L 481.427189 273.504457 
L 481.892577 265.849751 
L 482.357965 269.464375 
L 482.823353 296.950143 
L 483.288741 262.364073 
L 483.754128 289.567922 
L 484.219516 264.301107 
L 484.684904 255.459723 
L 485.150292 291.150262 
L 485.61568 289.224863 
L 486.081068 274.032166 
L 486.546455 277.235591 
L 487.011843 274.149677 
L 487.477231 282.922594 
L 487.942619 287.124414 
L 488.408007 289.251837 
L 488.873394 274.196908 
L 489.338782 252.754021 
L 489.80417 255.735029 
L 490.269558 273.963961 
L 490.734946 269.138173 
L 491.200334 279.664642 
L 491.665721 273.771427 
L 492.131109 255.425906 
L 492.596497 293.656134 
L 493.061885 288.489846 
L 493.527273 262.11512 
L 493.992661 283.154715 
L 494.458048 281.346929 
L 494.923436 264.341186 
L 495.388824 280.635174 
L 495.854212 288.949835 
L 496.3196 268.698585 
L 496.784987 274.382473 
L 497.250375 251.583827 
L 497.715763 271.647938 
L 498.181151 268.927145 
L 498.646539 270.249287 
L 499.111927 290.257711 
L 500.042702 264.202066 
L 500.50809 274.694703 
L 500.973478 251.988287 
L 501.438866 265.67145 
L 501.904254 267.610988 
L 502.369641 266.405832 
L 502.835029 273.107404 
L 503.300417 289.12231 
L 503.765805 269.436948 
L 504.231193 263.855455 
L 504.69658 276.423014 
L 505.161968 275.15687 
L 505.627356 267.311441 
L 506.092744 267.000824 
L 506.558132 293.728543 
L 507.02352 261.375985 
L 507.488907 269.379171 
L 507.954295 288.019549 
L 508.419683 290.157987 
L 508.885071 264.274626 
L 509.815847 282.044173 
L 510.281234 277.653228 
L 510.746622 266.858191 
L 511.21201 267.170501 
L 512.142786 286.13252 
L 512.608173 255.904588 
L 513.073561 286.491608 
L 513.538949 281.245632 
L 514.004337 271.139764 
L 514.469725 283.812539 
L 514.935113 285.704479 
L 515.4005 291.788703 
L 515.865888 267.577044 
L 516.796664 293.843359 
L 517.262052 279.703521 
L 517.72744 289.274884 
L 518.192827 264.020563 
L 518.658215 277.510031 
L 519.123603 262.398636 
L 519.588991 283.077903 
L 520.519766 276.438456 
L 520.985154 284.602561 
L 521.450542 262.274553 
L 521.91593 265.680685 
L 522.381318 272.123186 
L 522.846706 262.097969 
L 523.312093 262.75972 
L 523.777481 268.670562 
L 524.242869 278.623784 
L 524.708257 279.20544 
L 525.173645 276.76705 
L 525.639033 269.542482 
L 526.10442 286.157332 
L 526.569808 285.919751 
L 527.035196 291.06416 
L 527.500584 267.432329 
L 527.965972 277.34765 
L 528.431359 274.736618 
L 528.896747 289.952601 
L 529.362135 289.919699 
L 529.827523 280.326218 
L 530.292911 257.339281 
L 530.758299 272.650776 
L 531.223686 249.363872 
L 531.689074 272.138517 
L 532.154462 266.215237 
L 533.085238 296.432281 
L 534.016013 265.717752 
L 534.481401 258.224211 
L 534.946789 284.182396 
L 535.412177 280.528901 
L 535.877565 284.03405 
L 536.342952 284.341377 
L 536.80834 257.815093 
L 537.273728 275.043556 
L 537.739116 282.827273 
L 538.204504 272.877906 
L 538.669892 283.496931 
L 539.135279 251.449046 
L 539.600667 275.113127 
L 540.066055 283.797288 
L 540.531443 266.889997 
L 540.996831 267.502481 
L 541.462219 252.884176 
L 541.927606 272.794259 
L 542.392994 273.601447 
L 542.858382 264.869102 
L 543.32377 289.272913 
L 543.789158 281.440924 
L 544.254545 278.311768 
L 544.719933 284.189835 
L 545.185321 280.166474 
L 545.650709 284.500254 
L 546.116097 290.304466 
L 546.581485 263.801913 
L 547.046872 270.976691 
L 547.51226 286.062638 
L 547.977648 285.921055 
L 548.443036 272.730251 
L 548.908424 275.08303 
L 549.373812 272.997101 
L 549.839199 269.780595 
L 550.304587 262.050229 
L 550.769975 282.33365 
L 551.235363 267.235058 
L 551.700751 279.192517 
L 552.166138 267.895609 
L 552.631526 284.065506 
L 553.096914 276.569374 
L 553.562302 265.360682 
L 554.02769 285.074972 
L 554.493078 270.902025 
L 554.958465 266.697574 
L 555.423853 289.98269 
L 555.889241 292.222625 
L 556.354629 286.910342 
L 557.285405 271.936907 
L 557.750792 271.087732 
L 558.21618 263.736403 
L 558.681568 282.975047 
L 559.146956 285.524653 
L 559.612344 281.900221 
L 560.077731 282.427454 
L 560.543119 274.793355 
L 561.008507 276.598319 
L 561.473895 274.216125 
L 561.939283 272.550702 
L 562.404671 278.252226 
L 562.870058 266.781268 
L 563.335446 277.679383 
L 563.800834 295.621945 
L 564.73161 263.985769 
L 565.196997 281.873947 
L 565.662385 253.810894 
L 566.127773 292.030138 
L 566.593161 267.97676 
L 567.523937 286.99693 
L 567.989324 286.738853 
L 568.454712 282.096785 
L 568.9201 257.940257 
L 569.385488 291.562384 
L 569.850876 282.993851 
L 570.316264 283.852538 
L 570.781651 269.497476 
L 571.247039 270.427214 
L 571.712427 270.71921 
L 572.177815 273.8051 
L 573.10859 290.241705 
L 573.573978 294.20906 
L 574.039366 279.402393 
L 574.504754 288.792968 
L 574.970142 269.145858 
L 575.43553 285.526147 
L 575.900917 267.252726 
L 576.366305 277.836567 
L 576.831693 278.820705 
L 577.297081 290.227018 
L 577.762469 293.401156 
L 578.227857 277.746308 
L 578.693244 288.82506 
L 579.158632 284.046678 
L 579.62402 261.142506 
L 580.089408 278.114322 
L 580.554796 265.66092 
L 581.020183 260.988509 
L 581.485571 271.02908 
L 582.881735 285.307132 
L 583.347123 295.379016 
L 583.81251 269.861921 
L 584.277898 287.563462 
L 584.743286 291.630351 
L 585.208674 276.582606 
L 585.674062 284.499451 
L 586.13945 274.87933 
L 586.604837 252.167748 
L 587.070225 291.679489 
L 587.535613 264.61418 
L 588.001001 290.309321 
L 588.466389 274.087115 
L 588.931776 263.29544 
L 589.397164 261.339991 
L 590.32794 290.913858 
L 590.793328 276.225902 
L 591.258716 273.180687 
L 591.724103 282.216982 
L 592.189491 250.743315 
L 592.654879 276.897555 
L 593.120267 275.689053 
L 593.585655 253.029265 
L 594.051043 280.832254 
L 594.51643 248.288116 
L 594.981818 282.021873 
L 595.447206 266.150108 
L 595.912594 268.121395 
L 596.377982 284.151449 
L 596.843369 275.079383 
L 597.308757 281.841506 
L 597.774145 280.450635 
L 598.239533 259.440612 
L 598.704921 288.895864 
L 599.170309 290.548944 
L 599.635696 273.036974 
L 600.101084 280.386523 
L 600.566472 274.583066 
L 601.03186 289.265634 
L 601.497248 272.261718 
L 601.962636 263.733391 
L 602.428023 279.404888 
L 602.893411 289.495076 
L 603.358799 250.585876 
L 603.824187 283.422447 
L 604.289575 291.951721 
L 604.754962 276.54608 
L 605.22035 275.215578 
L 605.685738 277.579508 
L 606.151126 280.968481 
L 606.616514 276.999656 
L 607.081902 281.782067 
L 607.547289 281.170465 
L 608.012677 287.565918 
L 608.478065 279.728206 
L 608.943453 267.793913 
L 609.408841 265.573641 
L 609.874229 286.284657 
L 610.339616 279.94188 
L 610.805004 271.076574 
L 611.270392 272.833869 
L 611.73578 268.434651 
L 612.201168 269.557916 
L 612.666555 269.64587 
L 613.131943 282.132135 
L 613.597331 286.498292 
L 614.062719 273.342695 
L 614.528107 280.011452 
L 614.993495 290.06098 
L 615.458882 287.723777 
L 615.92427 278.890324 
L 616.389658 294.259884 
L 617.785822 267.556413 
L 618.251209 292.3443 
L 618.716597 263.007759 
L 619.181985 283.440337 
L 619.647373 274.568673 
L 620.112761 287.176804 
L 620.578148 278.706675 
L 621.508924 278.952553 
L 621.974312 262.386874 
L 622.4397 289.771789 
L 622.905088 270.110286 
L 623.370475 271.101354 
L 623.835863 264.646057 
L 624.301251 277.730715 
L 624.766639 270.927353 
L 625.697415 288.59557 
L 626.162802 282.940571 
L 626.62819 282.931384 
L 627.093578 280.681364 
L 627.558966 291.526923 
L 628.024354 268.257678 
L 628.489741 289.808284 
L 628.955129 276.648348 
L 629.420517 286.417586 
L 629.885905 269.399985 
L 630.351293 289.897406 
L 630.816681 273.847357 
L 631.282068 279.525157 
L 631.747456 266.518598 
L 632.212844 269.896254 
L 632.678232 289.162492 
L 633.14362 261.385864 
L 634.074395 295.183009 
L 634.539783 293.826089 
L 635.005171 268.097036 
L 635.470559 287.055892 
L 635.935947 255.797298 
L 636.401334 279.617466 
L 636.866722 278.92821 
L 637.33211 262.127136 
L 638.262886 284.488491 
L 638.728274 284.274674 
L 639.659049 291.585201 
L 640.124437 258.941196 
L 640.589825 289.910011 
L 641.055213 278.133245 
L 641.520601 280.131855 
L 641.985988 276.443463 
L 642.451376 281.988628 
L 642.916764 282.135203 
L 643.382152 284.461009 
L 643.84754 285.096922 
L 644.312927 295.934764 
L 645.243703 274.335035 
L 645.709091 282.669381 
L 646.174479 270.948692 
L 646.639867 281.369158 
L 647.105254 263.983441 
L 647.570642 274.819088 
L 648.03603 280.47164 
L 648.501418 278.543109 
L 648.966806 268.68385 
L 649.432193 281.021347 
L 649.897581 249.435256 
L 650.828357 284.845331 
L 651.293745 288.18023 
L 651.759133 280.915877 
L 652.22452 280.968362 
L 652.689908 275.315882 
L 653.155296 259.490602 
L 653.620684 266.095986 
L 654.086072 278.900338 
L 654.55146 284.203052 
L 655.016847 278.098427 
L 655.482235 274.692105 
L 655.947623 274.320244 
L 656.878399 276.877297 
L 657.343786 278.442702 
L 657.809174 270.612381 
L 658.274562 277.461624 
L 658.73995 272.49639 
L 659.670726 288.257717 
L 660.136113 286.858541 
L 660.601501 281.482385 
L 661.066889 277.447 
L 661.532277 290.43199 
L 661.997665 279.431687 
L 662.463053 283.104256 
L 662.92844 263.329487 
L 663.393828 282.724926 
L 663.859216 275.134426 
L 664.324604 290.421738 
L 664.789992 270.696703 
L 665.255379 272.812006 
L 665.720767 248.799875 
L 666.651543 286.804022 
L 667.116931 256.171121 
L 667.582319 284.105656 
L 668.047706 288.212798 
L 668.513094 267.581821 
L 668.978482 281.022881 
L 669.44387 290.480763 
L 669.909258 260.048527 
L 670.374646 274.497329 
L 670.840033 251.901469 
L 671.305421 279.844016 
L 671.770809 287.950335 
L 672.236197 289.945329 
L 672.701585 269.885223 
L 673.166972 282.698516 
L 673.63236 289.456531 
L 674.097748 267.018563 
L 674.563136 258.131282 
L 675.028524 284.756614 
L 675.493912 285.187547 
L 675.959299 263.043371 
L 676.424687 287.114138 
L 676.890075 274.582994 
L 677.355463 274.252469 
L 677.820851 290.011968 
L 678.286239 270.391148 
L 678.751626 274.560376 
L 679.217014 268.883816 
L 679.682402 285.647608 
L 680.14779 285.609889 
L 680.613178 287.313348 
L 681.078565 271.870887 
L 681.543953 281.622475 
L 682.009341 280.89937 
L 682.474729 262.373189 
L 683.405505 254.811197 
L 683.870892 284.667054 
L 684.33628 247.701199 
L 684.801668 290.438451 
L 685.267056 278.734746 
L 685.732444 276.159756 
L 686.197832 277.608484 
L 686.663219 272.690513 
L 687.128607 271.902478 
L 687.593995 256.625586 
L 688.059383 277.905758 
L 688.524771 276.48862 
L 688.990158 276.369743 
L 689.455546 291.544057 
L 689.920934 286.183542 
L 690.386322 263.433375 
L 690.85171 284.874013 
L 691.317098 261.90646 
L 691.782485 285.697541 
L 692.247873 276.690413 
L 692.713261 284.77506 
L 693.178649 285.82478 
L 694.109425 272.34368 
L 694.574812 287.70576 
L 695.0402 259.128056 
L 695.505588 286.352568 
L 695.970976 285.461765 
L 696.436364 281.051102 
L 696.901751 271.094193 
L 697.367139 283.679857 
L 697.832527 288.037629 
L 698.297915 277.429214 
L 698.763303 283.730959 
L 699.228691 281.441114 
L 699.694078 269.157724 
L 700.159466 264.2448 
L 700.624854 253.852332 
L 701.090242 281.764805 
L 701.55563 274.587087 
L 702.021018 278.460321 
L 702.486405 257.218043 
L 702.951793 272.504909 
L 703.417181 266.310057 
L 703.882569 282.536333 
L 704.347957 287.553226 
L 704.813344 264.988035 
L 705.278732 284.135793 
L 705.74412 276.378739 
L 706.209508 283.664614 
L 706.674896 267.43341 
L 707.140284 260.019566 
L 707.605671 260.351387 
L 708.071059 261.867009 
L 708.536447 283.962388 
L 709.001835 268.383493 
L 709.467223 286.421154 
L 709.932611 262.978043 
L 710.397998 257.2076 
L 710.863386 275.879307 
L 711.328774 286.768513 
L 711.794162 279.660311 
L 712.25955 276.854544 
L 712.724937 268.31745 
L 713.190325 250.578294 
L 713.655713 283.732731 
L 714.121101 260.764693 
L 714.586489 286.386011 
L 715.051877 277.076475 
L 715.517264 293.181481 
L 715.982652 269.388541 
L 716.44804 271.764789 
L 716.913428 275.981408 
L 717.378816 261.193934 
L 717.844204 267.026844 
L 718.309591 253.219868 
L 718.774979 288.832515 
L 719.240367 287.290444 
L 719.705755 283.083315 
L 720.171143 281.86844 
L 720.63653 287.625642 
L 721.101918 285.760684 
L 721.567306 269.837682 
L 722.032694 282.815089 
L 722.498082 274.855718 
L 722.96347 290.860197 
L 723.428857 260.104079 
L 723.894245 287.881724 
L 724.359633 248.168333 
L 724.825021 260.219595 
L 725.290409 292.270261 
L 725.755796 270.478482 
L 726.221184 284.718085 
L 727.15196 255.85595 
L 727.617348 264.542566 
L 728.082736 258.398586 
L 728.548123 284.572877 
L 729.013511 293.790628 
L 729.478899 283.468932 
L 729.944287 284.085462 
L 730.409675 286.672913 
L 730.875063 287.74758 
L 731.34045 292.544098 
L 732.271226 276.067176 
L 732.736614 286.152221 
L 733.202002 269.1668 
L 733.667389 260.953333 
L 734.132777 282.511665 
L 734.598165 278.987029 
L 735.063553 289.164821 
L 735.528941 277.695302 
L 735.994329 274.29099 
L 736.459716 267.44855 
L 736.925104 263.488197 
L 737.390492 255.080328 
L 737.85588 280.069921 
L 738.321268 266.986089 
L 738.786656 285.493944 
L 739.252043 282.858578 
L 739.717431 282.190851 
L 740.182819 283.526273 
L 740.648207 274.170292 
L 741.113595 258.609161 
L 742.509758 278.715656 
L 742.975146 274.08237 
L 743.440534 254.630695 
L 743.905922 284.101619 
L 744.371309 285.807526 
L 744.836697 288.3305 
L 745.302085 287.655541 
L 745.767473 255.729291 
L 746.232861 266.945494 
L 746.698249 285.829302 
L 747.163636 255.533586 
L 747.163636 255.533586 
" clip-path="url(#p73ca529a9d)" style="fill: none; stroke: #ff7f0e; stroke-width: 1.5; stroke-linecap: square"/>
   </g>
   <g id="patch_3">
    <path d="M 108 384.48 
L 108 51.84 
" style="fill: none; stroke: #000000; stroke-width: 0.8; stroke-linejoin: miter; stroke-linecap: square"/>
   </g>
   <g id="patch_4">
    <path d="M 777.6 384.48 
L 777.6 51.84 
" style="fill: none; stroke: #000000; stroke-width: 0.8; stroke-linejoin: miter; stroke-linecap: square"/>
   </g>
   <g id="patch_5">
    <path d="M 108 384.48 
L 777.6 384.48 
" style="fill: none; stroke: #000000; stroke-width: 0.8; stroke-linejoin: miter; stroke-linecap: square"/>
   </g>
   <g id="patch_6">
    <path d="M 108 51.84 
L 777.6 51.84 
" style="fill: none; stroke: #000000; stroke-width: 0.8; stroke-linejoin: miter; stroke-linecap: square"/>
   </g>
   <g id="text_15">
    <!-- Regresso: Real vs Previsto -->
    <g transform="translate(360.520313 45.84) scale(0.12 -0.12)">
     <defs>
      <path id="DejaVuSans-52" d="M 2841 2188 
Q 3044 2119 3236 1894 
Q 3428 1669 3622 1275 
L 4263 0 
L 3584 0 
L 2988 1197 
Q 2756 1666 2539 1819 
Q 2322 1972 1947 1972 
L 1259 1972 
L 1259 0 
L 628 0 
L 628 4666 
L 2053 4666 
Q 2853 4666 3247 4331 
Q 3641 3997 3641 3322 
Q 3641 2881 3436 2590 
Q 3231 2300 2841 2188 
z
M 1259 4147 
L 1259 2491 
L 2053 2491 
Q 2509 2491 2742 2702 
Q 2975 2913 2975 3322 
Q 2975 3731 2742 3939 
Q 2509 4147 2053 4147 
L 1259 4147 
z
" transform="scale(0.015625)"/>
      <path id="DejaVuSans-65" d="M 3597 1894 
L 3597 1613 
L 953 1613 
Q 991 1019 1311 708 
Q 1631 397 2203 397 
Q 2534 397 2845 478 
Q 3156 559 3463 722 
L 3463 178 
Q 3153 47 2828 -22 
Q 2503 -91 2169 -91 
Q 1331 -91 842 396 
Q 353 884 353 1716 
Q 353 2575 817 3079 
Q 1281 3584 2069 3584 
Q 2775 3584 3186 3129 
Q 3597 2675 3597 1894 
z
M 3022 2063 
Q 3016 2534 2758 2815 
Q 2500 3097 2075 3097 
Q 1594 3097 1305 2825 
Q 1016 2553 972 2059 
L 3022 2063 
z
" transform="scale(0.015625)"/>
      <path id="DejaVuSans-67" d="M 2906 1791 
Q 2906 2416 2648 2759 
Q 2391 3103 1925 3103 
Q 1463 3103 1205 2759 
Q 947 2416 947 1791 
Q 947 1169 1205 825 
Q 1463 481 1925 481 
Q 2391 481 2648 825 
Q 2906 1169 2906 1791 
z
M 3481 434 
Q 3481 -459 3084 -895 
Q 2688 -1331 1869 -1331 
Q 1566 -1331 1297 -1286 
Q 1028 -1241 775 -1147 
L 775 -588 
Q 1028 -725 1275 -790 
Q 1522 -856 1778 -856 
Q 2344 -856 2625 -561 
Q 2906 -266 2906 331 
L 2906 616 
Q 2728 306 2450 153 
Q 2172 0 1784 0 
Q 1141 0 747 490 
Q 353 981 353 1791 
Q 353 2603 747 3093 
Q 1141 3584 1784 3584 
Q 2172 3584 2450 3431 
Q 2728 3278 2906 2969 
L 2906 3500 
L 3481 3500 
L 3481 434 
z
" transform="scale(0.015625)"/>
      <path id="DejaVuSans-72" d="M 2631 2963 
Q 2534 3019 2420 3045 
Q 2306 3072 2169 3072 
Q 1681 3072 1420 2755 
Q 1159 2438 1159 1844 
L 1159 0 
L 581 0 
L 581 3500 
L 1159 3500 
L 1159 2956 
Q 1341 3275 1631 3429 
Q 1922 3584 2338 3584 
Q 2397 3584 2469 3576 
Q 2541 3569 2628 3553 
L 2631 2963 
z
" transform="scale(0.015625)"/>
      <path id="DejaVuSans-73" d="M 2834 3397 
L 2834 2853 
Q 2591 2978 2328 3040 
Q 2066 3103 1784 3103 
Q 1356 3103 1142 2972 
Q 928 2841 928 2578 
Q 928 2378 1081 2264 
Q 1234 2150 1697 2047 
L 1894 2003 
Q 2506 1872 2764 1633 
Q 3022 1394 3022 966 
Q 3022 478 2636 193 
Q 2250 -91 1575 -91 
Q 1294 -91 989 -36 
Q 684 19 347 128 
L 347 722 
Q 666 556 975 473 
Q 1284 391 1588 391 
Q 1994 391 2212 530 
Q 2431 669 2431 922 
Q 2431 1156 2273 1281 
Q 2116 1406 1581 1522 
L 1381 1569 
Q 847 1681 609 1914 
Q 372 2147 372 2553 
Q 372 3047 722 3315 
Q 1072 3584 1716 3584 
Q 2034 3584 2315 3537 
Q 2597 3491 2834 3397 
z
" transform="scale(0.015625)"/>
      <path id="DejaVuSans-e3" d="M 2194 1759 
Q 1497 1759 1228 1600 
Q 959 1441 959 1056 
Q 959 750 1161 570 
Q 1363 391 1709 391 
Q 2188 391 2477 730 
Q 2766 1069 2766 1631 
L 2766 1759 
L 2194 1759 
z
M 3341 1997 
L 3341 0 
L 2766 0 
L 2766 531 
Q 2569 213 2275 61 
Q 1981 -91 1556 -91 
Q 1019 -91 701 211 
Q 384 513 384 1019 
Q 384 1609 779 1909 
Q 1175 2209 1959 2209 
L 2766 2209 
L 2766 2266 
Q 2766 2663 2505 2880 
Q 2244 3097 1772 3097 
Q 1472 3097 1187 3025 
Q 903 2953 641 2809 
L 641 3341 
Q 956 3463 1253 3523 
Q 1550 3584 1831 3584 
Q 2591 3584 2966 3190 
Q 3341 2797 3341 1997 
z
M 1844 4281 
L 1665 4453 
Q 1597 4516 1545 4545 
Q 1494 4575 1453 4575 
Q 1334 4575 1278 4461 
Q 1222 4347 1215 4091 
L 825 4091 
Q 831 4513 990 4742 
Q 1150 4972 1434 4972 
Q 1553 4972 1653 4928 
Q 1753 4884 1869 4781 
L 2047 4609 
Q 2115 4547 2167 4517 
Q 2219 4488 2259 4488 
Q 2378 4488 2434 4602 
Q 2490 4716 2497 4972 
L 2887 4972 
Q 2881 4550 2721 4320 
Q 2562 4091 2278 4091 
Q 2159 4091 2059 4134 
Q 1959 4178 1844 4281 
z
" transform="scale(0.015625)"/>
      <path id="DejaVuSans-6f" d="M 1959 3097 
Q 1497 3097 1228 2736 
Q 959 2375 959 1747 
Q 959 1119 1226 758 
Q 1494 397 1959 397 
Q 2419 397 2687 759 
Q 2956 1122 2956 1747 
Q 2956 2369 2687 2733 
Q 2419 3097 1959 3097 
z
M 1959 3584 
Q 2709 3584 3137 3096 
Q 3566 2609 3566 1747 
Q 3566 888 3137 398 
Q 2709 -91 1959 -91 
Q 1206 -91 779 398 
Q 353 888 353 1747 
Q 353 2609 779 3096 
Q 1206 3584 1959 3584 
z
" transform="scale(0.015625)"/>
      <path id="DejaVuSans-3a" d="M 750 794 
L 1409 794 
L 1409 0 
L 750 0 
L 750 794 
z
M 750 3309 
L 1409 3309 
L 1409 2516 
L 750 2516 
L 750 3309 
z
" transform="scale(0.015625)"/>
      <path id="DejaVuSans-20" transform="scale(0.015625)"/>
      <path id="DejaVuSans-61" d="M 2194 1759 
Q 1497 1759 1228 1600 
Q 959 1441 959 1056 
Q 959 750 1161 570 
Q 1363 391 1709 391 
Q 2188 391 2477 730 
Q 2766 1069 2766 1631 
L 2766 1759 
L 2194 1759 
z
M 3341 1997 
L 3341 0 
L 2766 0 
L 2766 531 
Q 2569 213 2275 61 
Q 1981 -91 1556 -91 
Q 1019 -91 701 211 
Q 384 513 384 1019 
Q 384 1609 779 1909 
Q 1175 2209 1959 2209 
L 2766 2209 
L 2766 2266 
Q 2766 2663 2505 2880 
Q 2244 3097 1772 3097 
Q 1472 3097 1187 3025 
Q 903 2953 641 2809 
L 641 3341 
Q 956 3463 1253 3523 
Q 1550 3584 1831 3584 
Q 2591 3584 2966 3190 
Q 3341 2797 3341 1997 
z
" transform="scale(0.015625)"/>
      <path id="DejaVuSans-6c" d="M 603 4863 
L 1178 4863 
L 1178 0 
L 603 0 
L 603 4863 
z
" transform="scale(0.015625)"/>
      <path id="DejaVuSans-76" d="M 191 3500 
L 800 3500 
L 1894 563 
L 2988 3500 
L 3597 3500 
L 2284 0 
L 1503 0 
L 191 3500 
z
" transform="scale(0.015625)"/>
      <path id="DejaVuSans-50" d="M 1259 4147 
L 1259 2394 
L 2053 2394 
Q 2494 2394 2734 2622 
Q 2975 2850 2975 3272 
Q 2975 3691 2734 3919 
Q 2494 4147 2053 4147 
L 1259 4147 
z
M 628 4666 
L 2053 4666 
Q 2838 4666 3239 4311 
Q 3641 3956 3641 3272 
Q 3641 2581 3239 2228 
Q 2838 1875 2053 1875 
L 1259 1875 
L 1259 0 
L 628 0 
L 628 4666 
z
" transform="scale(0.015625)"/>
      <path id="DejaVuSans-69" d="M 603 3500 
L 1178 3500 
L 1178 0 
L 603 0 
L 603 3500 
z
M 603 4863 
L 1178 4863 
L 1178 4134 
L 603 4134 
L 603 4863 
z
" transform="scale(0.015625)"/>
      <path id="DejaVuSans-74" d="M 1172 4494 
L 1172 3500 
L 2356 3500 
L 2356 3053 
L 1172 3053 
L 1172 1153 
Q 1172 725 1289 603 
Q 1406 481 1766 481 
L 2356 481 
L 2356 0 
L 1766 0 
Q 1100 0 847 248 
Q 594 497 594 1153 
L 594 3053 
L 172 3053 
L 172 3500 
L 594 3500 
L 594 4494 
L 1172 4494 
z
" transform="scale(0.015625)"/>
     </defs>
     <use xlink:href="#DejaVuSans-52"/>
     <use xlink:href="#DejaVuSans-65" x="64.982422"/>
     <use xlink:href="#DejaVuSans-67" x="126.505859"/>
     <use xlink:href="#DejaVuSans-72" x="189.982422"/>
     <use xlink:href="#DejaVuSans-65" x="228.845703"/>
     <use xlink:href="#DejaVuSans-73" x="290.369141"/>
     <use xlink:href="#DejaVuSans-73" x="342.46875"/>
     <use xlink:href="#DejaVuSans-e3" x="394.568359"/>
     <use xlink:href="#DejaVuSans-6f" x="455.847656"/>
     <use xlink:href="#DejaVuSans-3a" x="517.029297"/>
     <use xlink:href="#DejaVuSans-20" x="550.720703"/>
     <use xlink:href="#DejaVuSans-52" x="582.507812"/>
     <use xlink:href="#DejaVuSans-65" x="647.490234"/>
     <use xlink:href="#DejaVuSans-61" x="709.013672"/>
     <use xlink:href="#DejaVuSans-6c" x="770.292969"/>
     <use xlink:href="#DejaVuSans-20" x="798.076172"/>
     <use xlink:href="#DejaVuSans-76" x="829.863281"/>
     <use xlink:href="#DejaVuSans-73" x="889.042969"/>
     <use xlink:href="#DejaVuSans-20" x="941.142578"/>
     <use xlink:href="#DejaVuSans-50" x="972.929688"/>
     <use xlink:href="#DejaVuSans-72" x="1031.482422"/>
     <use xlink:href="#DejaVuSans-65" x="1070.345703"/>
     <use xlink:href="#DejaVuSans-76" x="1131.869141"/>
     <use xlink:href="#DejaVuSans-69" x="1191.048828"/>
     <use xlink:href="#DejaVuSans-73" x="1218.832031"/>
     <use xlink:href="#DejaVuSans-74" x="1270.931641"/>
     <use xlink:href="#DejaVuSans-6f" x="1310.140625"/>
    </g>
   </g>
   <g id="legend_1">
    <g id="patch_7">
     <path d="M 672.315625 89.19625 
L 770.6 89.19625 
Q 772.6 89.19625 772.6 87.19625 
L 772.6 58.84 
Q 772.6 56.84 770.6 56.84 
L 672.315625 56.84 
Q 670.315625 56.84 670.315625 58.84 
L 670.315625 87.19625 
Q 670.315625 89.19625 672.315625 89.19625 
z
" style="fill: #ffffff; opacity: 0.8; stroke: #cccccc; stroke-linejoin: miter"/>
    </g>
    <g id="line2d_17">
     <path d="M 674.315625 64.938437 
L 684.315625 64.938437 
L 694.315625 64.938437 
" style="fill: none; stroke: #1f77b4; stroke-width: 1.5; stroke-linecap: square"/>
    </g>
    <g id="text_16">
     <!-- Valores Reais -->
     <g transform="translate(702.315625 68.438437) scale(0.1 -0.1)">
      <defs>
       <path id="DejaVuSans-56" d="M 1831 0 
L 50 4666 
L 709 4666 
L 2188 738 
L 3669 4666 
L 4325 4666 
L 2547 0 
L 1831 0 
z
" transform="scale(0.015625)"/>
      </defs>
      <use xlink:href="#DejaVuSans-56"/>
      <use xlink:href="#DejaVuSans-61" x="60.658203"/>
      <use xlink:href="#DejaVuSans-6c" x="121.9375"/>
      <use xlink:href="#DejaVuSans-6f" x="149.720703"/>
      <use xlink:href="#DejaVuSans-72" x="210.902344"/>
      <use xlink:href="#DejaVuSans-65" x="249.765625"/>
      <use xlink:href="#DejaVuSans-73" x="311.289062"/>
      <use xlink:href="#DejaVuSans-20" x="363.388672"/>
      <use xlink:href="#DejaVuSans-52" x="395.175781"/>
      <use xlink:href="#DejaVuSans-65" x="460.158203"/>
      <use xlink:href="#DejaVuSans-61" x="521.681641"/>
      <use xlink:href="#DejaVuSans-69" x="582.960938"/>
      <use xlink:href="#DejaVuSans-73" x="610.744141"/>
     </g>
    </g>
    <g id="line2d_18">
     <path d="M 674.315625 79.616562 
L 684.315625 79.616562 
L 694.315625 79.616562 
" style="fill: none; stroke: #ff7f0e; stroke-width: 1.5; stroke-linecap: square"/>
    </g>
    <g id="text_17">
     <!-- Previses -->
     <g transform="translate(702.315625 83.116562) scale(0.1 -0.1)">
      <defs>
       <path id="DejaVuSans-f5" d="M 1959 3097 
Q 1497 3097 1228 2736 
Q 959 2375 959 1747 
Q 959 1119 1226 758 
Q 1494 397 1959 397 
Q 2419 397 2687 759 
Q 2956 1122 2956 1747 
Q 2956 2369 2687 2733 
Q 2419 3097 1959 3097 
z
M 1959 3584 
Q 2709 3584 3137 3096 
Q 3566 2609 3566 1747 
Q 3566 888 3137 398 
Q 2709 -91 1959 -91 
Q 1206 -91 779 398 
Q 353 888 353 1747 
Q 353 2609 779 3096 
Q 1206 3584 1959 3584 
z
M 1948 4281 
L 1769 4453 
Q 1701 4516 1649 4545 
Q 1598 4575 1557 4575 
Q 1438 4575 1382 4461 
Q 1326 4347 1319 4091 
L 929 4091 
Q 935 4513 1094 4742 
Q 1254 4972 1538 4972 
Q 1657 4972 1757 4928 
Q 1857 4884 1973 4781 
L 2151 4609 
Q 2219 4547 2271 4517 
Q 2323 4488 2363 4488 
Q 2482 4488 2538 4602 
Q 2594 4716 2601 4972 
L 2991 4972 
Q 2985 4550 2825 4320 
Q 2666 4091 2382 4091 
Q 2263 4091 2163 4134 
Q 2063 4178 1948 4281 
z
" transform="scale(0.015625)"/>
      </defs>
      <use xlink:href="#DejaVuSans-50"/>
      <use xlink:href="#DejaVuSans-72" x="58.552734"/>
      <use xlink:href="#DejaVuSans-65" x="97.416016"/>
      <use xlink:href="#DejaVuSans-76" x="158.939453"/>
      <use xlink:href="#DejaVuSans-69" x="218.119141"/>
      <use xlink:href="#DejaVuSans-73" x="245.902344"/>
      <use xlink:href="#DejaVuSans-f5" x="298.001953"/>
      <use xlink:href="#DejaVuSans-65" x="359.183594"/>
      <use xlink:href="#DejaVuSans-73" x="420.707031"/>
     </g>
    </g>
   </g>
  </g>
 </g>
 <defs>
  <clipPath id="p73ca529a9d">
   <rect x="108" y="51.84" width="669.6" height="332.64"/>
  </clipPath>
 </defs>
</svg>
