<?xml version="1.0" encoding="utf-8" standalone="no"?>
<!DOCTYPE svg PUBLIC "-//W3C//DTD SVG 1.1//EN"
  "http://www.w3.org/Graphics/SVG/1.1/DTD/svg11.dtd">
<svg xmlns:xlink="http://www.w3.org/1999/xlink" width="864pt" height="432pt" viewBox="0 0 864 432" xmlns="http://www.w3.org/2000/svg" version="1.1">
 <metadata>
  <rdf:RDF xmlns:dc="http://purl.org/dc/elements/1.1/" xmlns:cc="http://creativecommons.org/ns#" xmlns:rdf="http://www.w3.org/1999/02/22-rdf-syntax-ns#">
   <cc:Work>
    <dc:type rdf:resource="http://purl.org/dc/dcmitype/StillImage"/>
    <dc:date>2024-11-24T15:50:13.978768</dc:date>
    <dc:format>image/svg+xml</dc:format>
    <dc:creator>
     <cc:Agent>
      <dc:title>Matplotlib v3.9.2, https://matplotlib.org/</dc:title>
     </cc:Agent>
    </dc:creator>
   </cc:Work>
  </rdf:RDF>
 </metadata>
 <defs>
  <style type="text/css">*{stroke-linejoin: round; stroke-linecap: butt}</style>
 </defs>
 <g id="figure_1">
  <g id="patch_1">
   <path d="M 0 432 
L 864 432 
L 864 0 
L 0 0 
z
" style="fill: #ffffff"/>
  </g>
  <g id="axes_1">
   <g id="patch_2">
    <path d="M 108 384.48 
L 777.6 384.48 
L 777.6 51.84 
L 108 51.84 
z
" style="fill: #ffffff"/>
   </g>
   <g id="matplotlib.axis_1">
    <g id="xtick_1">
     <g id="line2d_1">
      <defs>
       <path id="m2aac1dbaf4" d="M 0 0 
L 0 3.5 
" style="stroke: #000000; stroke-width: 0.8"/>
      </defs>
      <g>
       <use xlink:href="#m2aac1dbaf4" x="138.436364" y="384.48" style="stroke: #000000; stroke-width: 0.8"/>
      </g>
     </g>
     <g id="text_1">
      <!-- 0 -->
      <g transform="translate(135.255114 399.078438) scale(0.1 -0.1)">
       <defs>
        <path id="DejaVuSans-30" d="M 2034 4250 
Q 1547 4250 1301 3770 
Q 1056 3291 1056 2328 
Q 1056 1369 1301 889 
Q 1547 409 2034 409 
Q 2525 409 2770 889 
Q 3016 1369 3016 2328 
Q 3016 3291 2770 3770 
Q 2525 4250 2034 4250 
z
M 2034 4750 
Q 2819 4750 3233 4129 
Q 3647 3509 3647 2328 
Q 3647 1150 3233 529 
Q 2819 -91 2034 -91 
Q 1250 -91 836 529 
Q 422 1150 422 2328 
Q 422 3509 836 4129 
Q 1250 4750 2034 4750 
z
" transform="scale(0.015625)"/>
       </defs>
       <use xlink:href="#DejaVuSans-30"/>
      </g>
     </g>
    </g>
    <g id="xtick_2">
     <g id="line2d_2">
      <g>
       <use xlink:href="#m2aac1dbaf4" x="231.513928" y="384.48" style="stroke: #000000; stroke-width: 0.8"/>
      </g>
     </g>
     <g id="text_2">
      <!-- 200 -->
      <g transform="translate(221.970178 399.078438) scale(0.1 -0.1)">
       <defs>
        <path id="DejaVuSans-32" d="M 1228 531 
L 3431 531 
L 3431 0 
L 469 0 
L 469 531 
Q 828 903 1448 1529 
Q 2069 2156 2228 2338 
Q 2531 2678 2651 2914 
Q 2772 3150 2772 3378 
Q 2772 3750 2511 3984 
Q 2250 4219 1831 4219 
Q 1534 4219 1204 4116 
Q 875 4013 500 3803 
L 500 4441 
Q 881 4594 1212 4672 
Q 1544 4750 1819 4750 
Q 2544 4750 2975 4387 
Q 3406 4025 3406 3419 
Q 3406 3131 3298 2873 
Q 3191 2616 2906 2266 
Q 2828 2175 2409 1742 
Q 1991 1309 1228 531 
z
" transform="scale(0.015625)"/>
       </defs>
       <use xlink:href="#DejaVuSans-32"/>
       <use xlink:href="#DejaVuSans-30" x="63.623047"/>
       <use xlink:href="#DejaVuSans-30" x="127.246094"/>
      </g>
     </g>
    </g>
    <g id="xtick_3">
     <g id="line2d_3">
      <g>
       <use xlink:href="#m2aac1dbaf4" x="324.591493" y="384.48" style="stroke: #000000; stroke-width: 0.8"/>
      </g>
     </g>
     <g id="text_3">
      <!-- 400 -->
      <g transform="translate(315.047743 399.078438) scale(0.1 -0.1)">
       <defs>
        <path id="DejaVuSans-34" d="M 2419 4116 
L 825 1625 
L 2419 1625 
L 2419 4116 
z
M 2253 4666 
L 3047 4666 
L 3047 1625 
L 3713 1625 
L 3713 1100 
L 3047 1100 
L 3047 0 
L 2419 0 
L 2419 1100 
L 313 1100 
L 313 1709 
L 2253 4666 
z
" transform="scale(0.015625)"/>
       </defs>
       <use xlink:href="#DejaVuSans-34"/>
       <use xlink:href="#DejaVuSans-30" x="63.623047"/>
       <use xlink:href="#DejaVuSans-30" x="127.246094"/>
      </g>
     </g>
    </g>
    <g id="xtick_4">
     <g id="line2d_4">
      <g>
       <use xlink:href="#m2aac1dbaf4" x="417.669058" y="384.48" style="stroke: #000000; stroke-width: 0.8"/>
      </g>
     </g>
     <g id="text_4">
      <!-- 600 -->
      <g transform="translate(408.125308 399.078438) scale(0.1 -0.1)">
       <defs>
        <path id="DejaVuSans-36" d="M 2113 2584 
Q 1688 2584 1439 2293 
Q 1191 2003 1191 1497 
Q 1191 994 1439 701 
Q 1688 409 2113 409 
Q 2538 409 2786 701 
Q 3034 994 3034 1497 
Q 3034 2003 2786 2293 
Q 2538 2584 2113 2584 
z
M 3366 4563 
L 3366 3988 
Q 3128 4100 2886 4159 
Q 2644 4219 2406 4219 
Q 1781 4219 1451 3797 
Q 1122 3375 1075 2522 
Q 1259 2794 1537 2939 
Q 1816 3084 2150 3084 
Q 2853 3084 3261 2657 
Q 3669 2231 3669 1497 
Q 3669 778 3244 343 
Q 2819 -91 2113 -91 
Q 1303 -91 875 529 
Q 447 1150 447 2328 
Q 447 3434 972 4092 
Q 1497 4750 2381 4750 
Q 2619 4750 2861 4703 
Q 3103 4656 3366 4563 
z
" transform="scale(0.015625)"/>
       </defs>
       <use xlink:href="#DejaVuSans-36"/>
       <use xlink:href="#DejaVuSans-30" x="63.623047"/>
       <use xlink:href="#DejaVuSans-30" x="127.246094"/>
      </g>
     </g>
    </g>
    <g id="xtick_5">
     <g id="line2d_5">
      <g>
       <use xlink:href="#m2aac1dbaf4" x="510.746622" y="384.48" style="stroke: #000000; stroke-width: 0.8"/>
      </g>
     </g>
     <g id="text_5">
      <!-- 800 -->
      <g transform="translate(501.202872 399.078438) scale(0.1 -0.1)">
       <defs>
        <path id="DejaVuSans-38" d="M 2034 2216 
Q 1584 2216 1326 1975 
Q 1069 1734 1069 1313 
Q 1069 891 1326 650 
Q 1584 409 2034 409 
Q 2484 409 2743 651 
Q 3003 894 3003 1313 
Q 3003 1734 2745 1975 
Q 2488 2216 2034 2216 
z
M 1403 2484 
Q 997 2584 770 2862 
Q 544 3141 544 3541 
Q 544 4100 942 4425 
Q 1341 4750 2034 4750 
Q 2731 4750 3128 4425 
Q 3525 4100 3525 3541 
Q 3525 3141 3298 2862 
Q 3072 2584 2669 2484 
Q 3125 2378 3379 2068 
Q 3634 1759 3634 1313 
Q 3634 634 3220 271 
Q 2806 -91 2034 -91 
Q 1263 -91 848 271 
Q 434 634 434 1313 
Q 434 1759 690 2068 
Q 947 2378 1403 2484 
z
M 1172 3481 
Q 1172 3119 1398 2916 
Q 1625 2713 2034 2713 
Q 2441 2713 2670 2916 
Q 2900 3119 2900 3481 
Q 2900 3844 2670 4047 
Q 2441 4250 2034 4250 
Q 1625 4250 1398 4047 
Q 1172 3844 1172 3481 
z
" transform="scale(0.015625)"/>
       </defs>
       <use xlink:href="#DejaVuSans-38"/>
       <use xlink:href="#DejaVuSans-30" x="63.623047"/>
       <use xlink:href="#DejaVuSans-30" x="127.246094"/>
      </g>
     </g>
    </g>
    <g id="xtick_6">
     <g id="line2d_6">
      <g>
       <use xlink:href="#m2aac1dbaf4" x="603.824187" y="384.48" style="stroke: #000000; stroke-width: 0.8"/>
      </g>
     </g>
     <g id="text_6">
      <!-- 1000 -->
      <g transform="translate(591.099187 399.078438) scale(0.1 -0.1)">
       <defs>
        <path id="DejaVuSans-31" d="M 794 531 
L 1825 531 
L 1825 4091 
L 703 3866 
L 703 4441 
L 1819 4666 
L 2450 4666 
L 2450 531 
L 3481 531 
L 3481 0 
L 794 0 
L 794 531 
z
" transform="scale(0.015625)"/>
       </defs>
       <use xlink:href="#DejaVuSans-31"/>
       <use xlink:href="#DejaVuSans-30" x="63.623047"/>
       <use xlink:href="#DejaVuSans-30" x="127.246094"/>
       <use xlink:href="#DejaVuSans-30" x="190.869141"/>
      </g>
     </g>
    </g>
    <g id="xtick_7">
     <g id="line2d_7">
      <g>
       <use xlink:href="#m2aac1dbaf4" x="696.901751" y="384.48" style="stroke: #000000; stroke-width: 0.8"/>
      </g>
     </g>
     <g id="text_7">
      <!-- 1200 -->
      <g transform="translate(684.176751 399.078438) scale(0.1 -0.1)">
       <use xlink:href="#DejaVuSans-31"/>
       <use xlink:href="#DejaVuSans-32" x="63.623047"/>
       <use xlink:href="#DejaVuSans-30" x="127.246094"/>
       <use xlink:href="#DejaVuSans-30" x="190.869141"/>
      </g>
     </g>
    </g>
   </g>
   <g id="matplotlib.axis_2">
    <g id="ytick_1">
     <g id="line2d_8">
      <defs>
       <path id="ma4f6d975e5" d="M 0 0 
L -3.5 0 
" style="stroke: #000000; stroke-width: 0.8"/>
      </defs>
      <g>
       <use xlink:href="#ma4f6d975e5" x="108" y="374.085" style="stroke: #000000; stroke-width: 0.8"/>
      </g>
     </g>
     <g id="text_8">
      <!-- 0 -->
      <g transform="translate(94.6375 377.884219) scale(0.1 -0.1)">
       <use xlink:href="#DejaVuSans-30"/>
      </g>
     </g>
    </g>
    <g id="ytick_2">
     <g id="line2d_9">
      <g>
       <use xlink:href="#ma4f6d975e5" x="108" y="322.000748" style="stroke: #000000; stroke-width: 0.8"/>
      </g>
     </g>
     <g id="text_9">
      <!-- 50 -->
      <g transform="translate(88.275 325.799967) scale(0.1 -0.1)">
       <defs>
        <path id="DejaVuSans-35" d="M 691 4666 
L 3169 4666 
L 3169 4134 
L 1269 4134 
L 1269 2991 
Q 1406 3038 1543 3061 
Q 1681 3084 1819 3084 
Q 2600 3084 3056 2656 
Q 3513 2228 3513 1497 
Q 3513 744 3044 326 
Q 2575 -91 1722 -91 
Q 1428 -91 1123 -41 
Q 819 9 494 109 
L 494 744 
Q 775 591 1075 516 
Q 1375 441 1709 441 
Q 2250 441 2565 725 
Q 2881 1009 2881 1497 
Q 2881 1984 2565 2268 
Q 2250 2553 1709 2553 
Q 1456 2553 1204 2497 
Q 953 2441 691 2322 
L 691 4666 
z
" transform="scale(0.015625)"/>
       </defs>
       <use xlink:href="#DejaVuSans-35"/>
       <use xlink:href="#DejaVuSans-30" x="63.623047"/>
      </g>
     </g>
    </g>
    <g id="ytick_3">
     <g id="line2d_10">
      <g>
       <use xlink:href="#ma4f6d975e5" x="108" y="269.916496" style="stroke: #000000; stroke-width: 0.8"/>
      </g>
     </g>
     <g id="text_10">
      <!-- 100 -->
      <g transform="translate(81.9125 273.715715) scale(0.1 -0.1)">
       <use xlink:href="#DejaVuSans-31"/>
       <use xlink:href="#DejaVuSans-30" x="63.623047"/>
       <use xlink:href="#DejaVuSans-30" x="127.246094"/>
      </g>
     </g>
    </g>
    <g id="ytick_4">
     <g id="line2d_11">
      <g>
       <use xlink:href="#ma4f6d975e5" x="108" y="217.832244" style="stroke: #000000; stroke-width: 0.8"/>
      </g>
     </g>
     <g id="text_11">
      <!-- 150 -->
      <g transform="translate(81.9125 221.631463) scale(0.1 -0.1)">
       <use xlink:href="#DejaVuSans-31"/>
       <use xlink:href="#DejaVuSans-35" x="63.623047"/>
       <use xlink:href="#DejaVuSans-30" x="127.246094"/>
      </g>
     </g>
    </g>
    <g id="ytick_5">
     <g id="line2d_12">
      <g>
       <use xlink:href="#ma4f6d975e5" x="108" y="165.747992" style="stroke: #000000; stroke-width: 0.8"/>
      </g>
     </g>
     <g id="text_12">
      <!-- 200 -->
      <g transform="translate(81.9125 169.547211) scale(0.1 -0.1)">
       <use xlink:href="#DejaVuSans-32"/>
       <use xlink:href="#DejaVuSans-30" x="63.623047"/>
       <use xlink:href="#DejaVuSans-30" x="127.246094"/>
      </g>
     </g>
    </g>
    <g id="ytick_6">
     <g id="line2d_13">
      <g>
       <use xlink:href="#ma4f6d975e5" x="108" y="113.66374" style="stroke: #000000; stroke-width: 0.8"/>
      </g>
     </g>
     <g id="text_13">
      <!-- 250 -->
      <g transform="translate(81.9125 117.462959) scale(0.1 -0.1)">
       <use xlink:href="#DejaVuSans-32"/>
       <use xlink:href="#DejaVuSans-35" x="63.623047"/>
       <use xlink:href="#DejaVuSans-30" x="127.246094"/>
      </g>
     </g>
    </g>
    <g id="ytick_7">
     <g id="line2d_14">
      <g>
       <use xlink:href="#ma4f6d975e5" x="108" y="61.579488" style="stroke: #000000; stroke-width: 0.8"/>
      </g>
     </g>
     <g id="text_14">
      <!-- 300 -->
      <g transform="translate(81.9125 65.378707) scale(0.1 -0.1)">
       <defs>
        <path id="DejaVuSans-33" d="M 2597 2516 
Q 3050 2419 3304 2112 
Q 3559 1806 3559 1356 
Q 3559 666 3084 287 
Q 2609 -91 1734 -91 
Q 1441 -91 1130 -33 
Q 819 25 488 141 
L 488 750 
Q 750 597 1062 519 
Q 1375 441 1716 441 
Q 2309 441 2620 675 
Q 2931 909 2931 1356 
Q 2931 1769 2642 2001 
Q 2353 2234 1838 2234 
L 1294 2234 
L 1294 2753 
L 1863 2753 
Q 2328 2753 2575 2939 
Q 2822 3125 2822 3475 
Q 2822 3834 2567 4026 
Q 2313 4219 1838 4219 
Q 1578 4219 1281 4162 
Q 984 4106 628 3988 
L 628 4550 
Q 988 4650 1302 4700 
Q 1616 4750 1894 4750 
Q 2613 4750 3031 4423 
Q 3450 4097 3450 3541 
Q 3450 3153 3228 2886 
Q 3006 2619 2597 2516 
z
" transform="scale(0.015625)"/>
       </defs>
       <use xlink:href="#DejaVuSans-33"/>
       <use xlink:href="#DejaVuSans-30" x="63.623047"/>
       <use xlink:href="#DejaVuSans-30" x="127.246094"/>
      </g>
     </g>
    </g>
   </g>
   <g id="line2d_15">
    <path d="M 138.436364 350.46 
L 138.901751 345.735 
L 139.367139 251.235 
L 139.832527 355.185 
L 140.297915 211.0725 
L 140.763303 267.7725 
L 141.228691 289.035 
L 141.694078 279.585 
L 142.159466 352.8225 
L 142.624854 76.41 
L 143.090242 201.6225 
L 143.55563 239.4225 
L 144.021018 267.7725 
L 144.486405 246.51 
L 144.951793 253.5975 
L 145.417181 225.2475 
L 145.882569 267.7725 
L 146.347957 265.41 
L 146.813344 319.7475 
L 147.278732 201.6225 
L 147.74412 341.01 
L 148.209508 267.7725 
L 149.140284 267.7725 
L 149.605671 244.1475 
L 150.071059 244.1475 
L 150.536447 341.01 
L 151.001835 213.435 
L 151.467223 218.16 
L 151.932611 208.71 
L 152.397998 85.86 
L 152.863386 281.9475 
L 153.328774 267.7725 
L 153.794162 199.26 
L 154.25955 258.3225 
L 154.724937 199.26 
L 155.190325 244.1475 
L 155.655713 208.71 
L 156.121101 331.56 
L 156.586489 225.2475 
L 157.051877 199.26 
L 157.517264 201.6225 
L 157.982652 263.0475 
L 158.44804 100.035 
L 158.913428 338.6475 
L 159.378816 350.46 
L 159.844204 187.4475 
L 160.309591 213.435 
L 160.774979 319.7475 
L 161.240367 161.46 
L 161.705755 346.91625 
L 162.171143 350.46 
L 162.63653 118.935 
L 163.101918 267.7725 
L 163.567306 244.1475 
L 164.032694 253.5975 
L 164.498082 201.6225 
L 165.428857 319.7475 
L 165.894245 201.6225 
L 166.359633 279.585 
L 166.825021 267.7725 
L 167.290409 345.735 
L 167.755796 208.71 
L 168.221184 187.4475 
L 168.686572 274.86 
L 169.15196 270.135 
L 169.617348 284.31 
L 170.082736 85.86 
L 170.548123 355.185 
L 171.013511 258.3225 
L 171.478899 201.6225 
L 172.409675 267.7725 
L 172.875063 267.7725 
L 173.34045 244.1475 
L 173.805838 317.385 
L 174.271226 244.1475 
L 174.736614 336.285 
L 175.202002 310.2975 
L 175.667389 192.1725 
L 176.132777 201.6225 
L 177.063553 293.76 
L 177.528941 263.0475 
L 177.994329 246.51 
L 178.459716 267.7725 
L 178.925104 355.185 
L 179.390492 350.46 
L 179.85588 258.3225 
L 180.321268 313.84125 
L 180.786656 350.46 
L 181.252043 118.935 
L 181.717431 341.01 
L 182.182819 336.285 
L 182.648207 258.3225 
L 183.113595 263.0475 
L 183.578982 95.31 
L 184.04437 270.135 
L 184.975146 237.06 
L 185.440534 246.51 
L 185.905922 246.51 
L 186.371309 307.935 
L 186.836697 244.1475 
L 187.302085 201.6225 
L 187.767473 267.7725 
L 188.232861 213.435 
L 188.698249 201.6225 
L 189.163636 312.66 
L 189.629024 338.6475 
L 190.094412 326.835 
L 190.5598 218.16 
L 191.490575 310.2975 
L 191.955963 234.6975 
L 192.421351 222.885 
L 192.886739 329.1975 
L 193.352127 265.41 
L 193.817515 161.46 
L 194.282902 201.6225 
L 194.74829 222.885 
L 195.213678 362.2725 
L 195.679066 241.785 
L 196.144454 336.285 
L 196.609842 227.61 
L 197.075229 362.2725 
L 197.540617 213.435 
L 198.006005 192.1725 
L 198.471393 225.2475 
L 199.402168 312.66 
L 199.867556 225.2475 
L 200.332944 225.2475 
L 200.798332 267.7725 
L 201.26372 244.1475 
L 201.729108 366.9975 
L 202.194495 341.01 
L 202.659883 350.46 
L 203.125271 322.11 
L 203.590659 246.51 
L 204.056047 90.585 
L 204.521435 263.0475 
L 204.986822 350.46 
L 205.917598 359.91 
L 206.382986 348.0975 
L 206.848374 237.06 
L 207.313761 239.4225 
L 207.779149 263.0475 
L 208.244537 232.335 
L 208.709925 289.035 
L 209.175313 248.8725 
L 209.640701 324.4725 
L 210.106088 244.1475 
L 210.571476 251.235 
L 211.036864 270.135 
L 211.502252 350.46 
L 211.96764 244.1475 
L 212.433028 192.1725 
L 212.898415 244.1475 
L 213.363803 350.46 
L 213.829191 267.7725 
L 214.294579 244.1475 
L 214.759967 246.51 
L 215.225354 350.46 
L 215.690742 201.6225 
L 216.15613 199.26 
L 217.086906 308.88 
L 217.552294 312.66 
L 218.017681 225.2475 
L 218.483069 312.66 
L 218.948457 312.66 
L 219.413845 289.035 
L 219.879233 336.285 
L 220.344621 366.9975 
L 220.810008 336.285 
L 221.275396 215.7975 
L 221.740784 312.66 
L 222.206172 307.935 
L 222.67156 293.76 
L 223.136947 265.41 
L 223.602335 267.7725 
L 224.067723 255.96 
L 224.533111 286.6725 
L 224.998499 213.435 
L 225.463887 341.01 
L 225.929274 244.1475 
L 226.394662 293.76 
L 226.86005 225.2475 
L 227.325438 85.86 
L 227.790826 286.6725 
L 228.256214 225.2475 
L 228.721601 357.5475 
L 229.186989 317.385 
L 229.652377 359.91 
L 230.117765 350.46 
L 230.583153 225.2475 
L 231.04854 244.1475 
L 231.513928 255.96 
L 231.979316 341.01 
L 232.444704 187.4475 
L 232.910092 345.2625 
L 233.37548 95.31 
L 233.840867 267.7725 
L 234.306255 225.2475 
L 234.771643 222.885 
L 235.237031 244.1475 
L 235.702419 293.76 
L 236.167807 211.0725 
L 236.633194 241.785 
L 237.098582 319.7475 
L 237.56397 336.285 
L 238.494746 109.485 
L 238.960133 358.72875 
L 239.425521 279.585 
L 239.890909 244.1475 
L 240.356297 260.685 
L 240.821685 225.2475 
L 241.287073 258.3225 
L 241.75246 66.96 
L 242.217848 315.0225 
L 242.683236 263.0475 
L 243.148624 66.96 
L 243.614012 267.7725 
L 244.079399 341.01 
L 244.544787 244.1475 
L 245.010175 260.685 
L 245.475563 333.9225 
L 245.940951 244.1475 
L 246.406339 263.0475 
L 246.871726 362.2725 
L 247.337114 248.8725 
L 247.802502 239.4225 
L 248.26789 253.5975 
L 248.733278 260.685 
L 249.198666 196.8975 
L 249.664053 260.685 
L 250.129441 206.3475 
L 250.594829 307.935 
L 251.060217 267.7725 
L 251.525605 312.66 
L 251.990992 244.1475 
L 252.45638 220.5225 
L 252.921768 364.635 
L 253.387156 312.66 
L 253.852544 362.2725 
L 254.317932 95.31 
L 254.783319 267.7725 
L 255.248707 333.9225 
L 255.714095 239.4225 
L 256.179483 307.935 
L 256.644871 350.46 
L 257.110259 310.2975 
L 257.575646 229.9725 
L 258.041034 345.735 
L 258.506422 118.935 
L 258.97181 244.1475 
L 259.437198 244.1475 
L 259.902585 258.3225 
L 260.367973 196.8975 
L 260.833361 307.935 
L 261.298749 211.0725 
L 261.764137 286.6725 
L 262.229525 258.3225 
L 262.694912 206.3475 
L 263.1603 286.6725 
L 263.625688 258.3225 
L 264.091076 244.1475 
L 265.021852 336.285 
L 265.487239 317.385 
L 266.418015 248.8725 
L 266.883403 341.01 
L 267.348791 244.1475 
L 267.814178 211.0725 
L 268.279566 342.19125 
L 268.744954 350.46 
L 269.210342 329.1975 
L 270.141118 229.9725 
L 270.606505 324.4725 
L 271.071893 350.46 
L 271.537281 244.1475 
L 272.002669 281.9475 
L 272.933445 225.2475 
L 273.398832 244.1475 
L 273.86422 211.0725 
L 274.329608 225.2475 
L 274.794996 362.2725 
L 275.260384 258.3225 
L 275.725771 95.31 
L 276.191159 244.1475 
L 276.656547 161.46 
L 277.121935 244.1475 
L 277.587323 137.835 
L 278.052711 336.285 
L 278.518098 345.735 
L 278.983486 196.8975 
L 279.448874 201.6225 
L 279.914262 267.7725 
L 280.37965 234.6975 
L 280.845038 248.8725 
L 281.310425 220.5225 
L 281.775813 234.6975 
L 282.241201 95.31 
L 282.706589 345.735 
L 283.171977 333.9225 
L 283.637364 355.185 
L 284.102752 338.6475 
L 284.56814 213.435 
L 285.033528 270.135 
L 285.498916 118.935 
L 285.964304 338.6475 
L 286.429691 260.685 
L 286.895079 253.5975 
L 287.825855 357.5475 
L 288.291243 137.835 
L 288.756631 263.0475 
L 289.222018 244.1475 
L 289.687406 260.685 
L 290.152794 246.51 
L 290.618182 326.835 
L 291.08357 255.96 
L 291.548957 331.56 
L 292.014345 260.685 
L 292.479733 76.41 
L 292.945121 211.0725 
L 293.410509 310.2975 
L 293.875897 267.7725 
L 294.341284 253.5975 
L 294.806672 331.56 
L 295.737448 194.535 
L 296.202836 265.41 
L 296.668224 312.66 
L 297.133611 237.06 
L 297.598999 317.385 
L 298.064387 263.0475 
L 298.529775 244.1475 
L 298.995163 258.3225 
L 299.46055 137.835 
L 299.925938 239.4225 
L 300.391326 199.26 
L 300.856714 118.935 
L 301.322102 248.8725 
L 301.78749 317.385 
L 302.252877 258.3225 
L 302.718265 260.685 
L 303.183653 244.1475 
L 303.649041 206.3475 
L 304.114429 312.66 
L 304.579817 270.135 
L 305.045204 350.46 
L 305.510592 357.5475 
L 306.441368 218.16 
L 306.906756 258.3225 
L 307.372143 244.1475 
L 307.837531 333.9225 
L 308.302919 215.7975 
L 308.768307 270.135 
L 309.233695 137.835 
L 309.699083 173.2725 
L 310.16447 350.46 
L 310.629858 343.3725 
L 311.095246 329.1975 
L 311.560634 100.035 
L 312.026022 267.7725 
L 312.49141 244.1475 
L 312.956797 267.7725 
L 313.422185 263.0475 
L 313.887573 208.71 
L 314.352961 355.185 
L 314.818349 267.7725 
L 315.283736 267.7725 
L 315.749124 244.1475 
L 316.214512 265.41 
L 316.6799 244.1475 
L 317.145288 196.8975 
L 317.610676 350.46 
L 318.076063 307.935 
L 318.541451 344.55375 
L 319.006839 267.7725 
L 319.472227 265.41 
L 319.937615 237.06 
L 320.403003 361.09125 
L 320.86839 201.6225 
L 321.799166 333.9225 
L 322.264554 161.46 
L 322.729942 182.7225 
L 323.195329 239.4225 
L 323.660717 310.2975 
L 324.591493 225.2475 
L 325.056881 258.3225 
L 325.522269 234.6975 
L 325.987656 281.9475 
L 326.453044 350.46 
L 326.918432 267.7725 
L 327.38382 291.3975 
L 327.849208 215.7975 
L 328.314595 355.185 
L 328.779983 350.46 
L 329.245371 251.235 
L 329.710759 349.27875 
L 330.176147 161.46 
L 330.641535 237.06 
L 331.106922 356.36625 
L 331.57231 260.685 
L 332.037698 196.8975 
L 332.503086 312.66 
L 332.968474 324.4725 
L 333.433862 341.01 
L 333.899249 76.41 
L 334.364637 312.66 
L 334.830025 187.4475 
L 335.295413 350.46 
L 335.760801 312.66 
L 336.226188 331.56 
L 336.691576 312.66 
L 337.156964 350.46 
L 337.622352 358.72875 
L 338.08774 267.7725 
L 338.553128 208.71 
L 339.018515 194.535 
L 339.483903 234.6975 
L 339.949291 237.06 
L 340.414679 194.535 
L 340.880067 203.985 
L 341.345455 345.735 
L 341.810842 201.6225 
L 342.27623 234.6975 
L 342.741618 215.7975 
L 343.207006 263.0475 
L 343.672394 100.035 
L 344.137781 234.6975 
L 344.603169 319.7475 
L 345.068557 253.5975 
L 345.999333 366.9975 
L 346.464721 293.76 
L 346.930108 315.0225 
L 347.395496 241.785 
L 347.860884 341.01 
L 348.326272 196.8975 
L 348.79166 267.7725 
L 349.257048 284.31 
L 349.722435 317.385 
L 350.187823 284.31 
L 350.653211 364.635 
L 351.118599 114.21 
L 351.583987 232.335 
L 352.049374 267.7725 
L 352.514762 286.6725 
L 352.98015 215.7975 
L 353.445538 350.46 
L 353.910926 310.2975 
L 354.376314 206.3475 
L 354.841701 267.7725 
L 355.307089 206.3475 
L 355.772477 357.5475 
L 356.237865 274.86 
L 356.703253 244.1475 
L 357.168641 317.385 
L 357.634028 244.1475 
L 358.099416 315.0225 
L 358.564804 331.56 
L 359.030192 317.385 
L 359.49558 71.685 
L 359.960967 329.1975 
L 360.426355 315.0225 
L 360.891743 215.7975 
L 361.357131 310.2975 
L 361.822519 352.8225 
L 362.753294 192.1725 
L 363.218682 189.81 
L 363.68407 215.7975 
L 364.149458 213.435 
L 364.614846 303.21 
L 365.080234 251.235 
L 365.545621 255.96 
L 366.011009 345.735 
L 366.476397 342.19125 
L 366.941785 336.285 
L 367.407173 244.1475 
L 367.87256 225.2475 
L 368.337948 177.9975 
L 368.803336 227.61 
L 369.268724 206.3475 
L 369.734112 355.185 
L 370.1995 307.935 
L 370.664887 357.5475 
L 371.130275 218.16 
L 372.061051 307.935 
L 372.526439 331.56 
L 372.991827 218.16 
L 373.457214 307.935 
L 373.922602 336.285 
L 374.38799 274.86 
L 374.853378 244.1475 
L 375.318766 253.5975 
L 375.784153 260.685 
L 376.249541 364.635 
L 376.714929 244.1475 
L 377.180317 286.6725 
L 377.645705 201.6225 
L 378.111093 349.27875 
L 378.57648 192.1725 
L 379.041868 350.46 
L 379.507256 248.8725 
L 379.972644 258.3225 
L 380.438032 331.56 
L 380.90342 201.6225 
L 381.834195 359.91 
L 382.299583 194.535 
L 382.764971 286.6725 
L 383.230359 263.0475 
L 383.695746 161.46 
L 384.161134 312.66 
L 384.626522 208.71 
L 385.09191 279.585 
L 385.557298 331.56 
L 386.022686 348.0975 
L 386.488073 239.4225 
L 386.953461 232.335 
L 387.418849 196.8975 
L 387.884237 255.96 
L 388.349625 267.7725 
L 388.815013 289.035 
L 389.2804 265.41 
L 389.745788 267.7725 
L 390.211176 286.6725 
L 390.676564 326.835 
L 391.141952 350.46 
L 391.607339 293.76 
L 392.072727 218.16 
L 392.538115 248.8725 
L 393.003503 199.26 
L 393.468891 267.7725 
L 393.934279 213.435 
L 394.399666 359.91 
L 394.865054 244.1475 
L 395.330442 345.2625 
L 395.79583 286.6725 
L 396.261218 201.6225 
L 396.726606 213.435 
L 397.191993 213.435 
L 397.657381 267.7725 
L 398.122769 258.3225 
L 398.588157 357.5475 
L 399.053545 286.6725 
L 399.518932 350.46 
L 400.449708 215.7975 
L 400.915096 225.2475 
L 401.380484 315.0225 
L 401.845872 263.0475 
L 402.311259 319.7475 
L 402.776647 201.6225 
L 403.242035 244.1475 
L 403.707423 326.835 
L 404.172811 201.6225 
L 404.638198 279.585 
L 405.103586 248.8725 
L 405.568974 307.935 
L 406.034362 161.46 
L 406.49975 234.6975 
L 407.430525 343.3725 
L 407.895913 336.285 
L 408.361301 279.585 
L 408.826689 312.66 
L 409.292077 362.2725 
L 409.757465 341.01 
L 410.222852 338.6475 
L 410.68824 196.8975 
L 411.153628 192.1725 
L 411.619016 319.7475 
L 412.084404 364.635 
L 412.549791 350.46 
L 413.015179 305.5725 
L 413.480567 350.46 
L 413.945955 239.4225 
L 414.411343 244.1475 
L 414.876731 284.31 
L 415.342118 246.51 
L 415.807506 274.86 
L 416.272894 206.3475 
L 416.738282 267.7725 
L 417.20367 239.4225 
L 417.669058 350.46 
L 418.134445 194.535 
L 418.599833 272.4975 
L 419.065221 201.6225 
L 419.530609 336.285 
L 419.995997 201.6225 
L 420.461384 331.56 
L 420.926772 331.56 
L 421.39216 341.01 
L 421.857548 336.285 
L 422.322936 220.5225 
L 422.788324 211.0725 
L 423.253711 246.51 
L 423.719099 315.0225 
L 424.184487 326.835 
L 424.649875 350.46 
L 425.115263 338.6475 
L 425.580651 263.0475 
L 426.046038 206.3475 
L 426.511426 362.2725 
L 427.442202 255.96 
L 427.90759 258.3225 
L 428.372977 336.285 
L 428.838365 244.1475 
L 429.303753 303.21 
L 429.769141 319.7475 
L 430.234529 267.7725 
L 430.699917 194.535 
L 431.165304 90.585 
L 431.630692 248.8725 
L 432.09608 255.96 
L 432.561468 206.3475 
L 433.026856 309.11625 
L 433.492244 258.3225 
L 433.957631 333.9225 
L 434.423019 279.585 
L 434.888407 258.3225 
L 435.353795 350.46 
L 436.28457 161.46 
L 436.749958 289.035 
L 437.215346 241.785 
L 437.680734 211.0725 
L 438.61151 267.7725 
L 439.076897 284.31 
L 439.542285 234.6975 
L 440.007673 255.96 
L 440.473061 289.035 
L 440.938449 244.1475 
L 441.403837 267.7725 
L 441.869224 270.135 
L 442.334612 307.935 
L 442.8 260.685 
L 443.265388 344.55375 
L 443.730776 95.31 
L 444.196163 244.1475 
L 444.661551 234.6975 
L 445.126939 315.0225 
L 445.592327 196.8975 
L 446.057715 244.1475 
L 446.523103 267.7725 
L 446.98849 229.9725 
L 447.453878 310.2975 
L 447.919266 244.1475 
L 448.384654 255.96 
L 448.850042 194.535 
L 449.780817 344.55375 
L 450.246205 118.935 
L 450.711593 267.7725 
L 451.176981 237.06 
L 451.642369 333.9225 
L 452.107756 317.385 
L 452.573144 274.86 
L 453.038532 206.3475 
L 453.50392 255.96 
L 453.969308 253.5975 
L 454.434696 279.585 
L 454.900083 206.3475 
L 455.365471 359.91 
L 455.830859 215.7975 
L 456.296247 258.3225 
L 456.761635 258.3225 
L 457.227023 213.435 
L 457.69241 211.0725 
L 458.157798 289.035 
L 458.623186 312.66 
L 459.088574 187.4475 
L 459.553962 258.3225 
L 460.019349 267.7725 
L 460.484737 343.3725 
L 460.950125 362.2725 
L 461.415513 350.46 
L 462.811676 350.46 
L 463.277064 118.935 
L 463.742452 307.935 
L 464.20784 225.2475 
L 464.673228 255.96 
L 465.138616 358.72875 
L 465.604003 298.485 
L 466.069391 255.96 
L 466.534779 267.7725 
L 467.000167 258.3225 
L 468.39633 265.41 
L 468.861718 307.935 
L 469.327106 366.9975 
L 469.792494 330.37875 
L 470.257882 355.185 
L 470.723269 341.01 
L 471.188657 350.46 
L 471.654045 199.26 
L 472.584821 263.0475 
L 473.050209 369.36 
L 473.515596 263.0475 
L 473.980984 350.46 
L 474.446372 258.3225 
L 474.91176 244.1475 
L 475.377148 307.935 
L 475.842535 225.2475 
L 476.307923 355.185 
L 476.773311 267.7725 
L 477.238699 239.4225 
L 477.704087 244.1475 
L 478.169475 199.26 
L 478.634862 317.385 
L 479.10025 246.51 
L 479.565638 255.96 
L 480.031026 263.0475 
L 480.496414 341.01 
L 480.961802 312.66 
L 481.427189 350.46 
L 481.892577 338.6475 
L 482.357965 258.3225 
L 482.823353 244.1475 
L 483.288741 258.3225 
L 483.754128 258.3225 
L 484.219516 251.235 
L 484.684904 118.935 
L 485.150292 318.56625 
L 485.61568 76.41 
L 486.081068 267.7725 
L 486.546455 263.0475 
L 487.011843 137.835 
L 487.477231 215.7975 
L 487.942619 316.20375 
L 488.408007 315.0225 
L 488.873394 258.3225 
L 489.338782 244.1475 
L 489.80417 263.0475 
L 490.269558 263.0475 
L 490.734946 279.585 
L 491.200334 246.51 
L 491.665721 192.1725 
L 492.131109 310.2975 
L 492.596497 255.96 
L 493.061885 350.46 
L 493.527273 267.7725 
L 493.992661 244.1475 
L 494.458048 244.1475 
L 494.923436 239.4225 
L 495.388824 267.7725 
L 495.854212 331.56 
L 496.3196 263.0475 
L 496.784987 258.3225 
L 497.250375 319.7475 
L 498.181151 333.9225 
L 498.646539 244.1475 
L 499.111927 211.0725 
L 499.577314 215.7975 
L 500.042702 312.66 
L 500.50809 286.6725 
L 500.973478 229.9725 
L 501.438866 253.5975 
L 501.904254 263.0475 
L 502.369641 267.7725 
L 502.835029 244.1475 
L 503.300417 341.01 
L 503.765805 355.185 
L 504.231193 355.185 
L 504.69658 265.41 
L 505.161968 289.035 
L 505.627356 244.1475 
L 506.092744 355.185 
L 506.558132 326.835 
L 507.02352 258.3225 
L 507.488907 336.285 
L 507.954295 232.335 
L 508.419683 258.3225 
L 508.885071 350.46 
L 509.350459 310.2975 
L 509.815847 248.8725 
L 510.281234 225.2475 
L 510.746622 263.0475 
L 511.21201 258.3225 
L 511.677398 225.2475 
L 512.142786 310.2975 
L 512.608173 211.0725 
L 513.538949 350.46 
L 514.004337 331.56 
L 514.469725 279.585 
L 514.935113 244.1475 
L 515.4005 359.91 
L 515.865888 359.91 
L 516.331276 263.0475 
L 516.796664 350.46 
L 517.262052 246.51 
L 517.72744 350.46 
L 518.192827 263.0475 
L 518.658215 279.585 
L 519.123603 267.7725 
L 519.588991 100.035 
L 520.054379 267.7725 
L 520.519766 350.46 
L 520.985154 248.8725 
L 521.450542 199.26 
L 521.91593 225.2475 
L 522.381318 258.3225 
L 522.846706 258.3225 
L 523.312093 241.785 
L 523.777481 329.1975 
L 524.242869 369.36 
L 524.708257 192.1725 
L 525.173645 234.6975 
L 525.639033 248.8725 
L 526.10442 196.8975 
L 526.569808 343.3725 
L 527.035196 350.46 
L 527.500584 324.4725 
L 527.965972 248.8725 
L 528.431359 317.385 
L 528.896747 270.135 
L 529.362135 248.8725 
L 529.827523 90.585 
L 530.292911 336.285 
L 530.758299 333.9225 
L 531.223686 267.7725 
L 531.689074 336.285 
L 532.154462 350.46 
L 532.61985 222.885 
L 533.085238 307.935 
L 533.550626 201.6225 
L 534.016013 203.985 
L 534.481401 263.0475 
L 534.946789 350.46 
L 535.412177 220.5225 
L 535.877565 237.06 
L 536.342952 199.26 
L 536.80834 248.8725 
L 537.273728 317.385 
L 537.739116 255.96 
L 538.204504 267.7725 
L 538.669892 248.8725 
L 539.135279 192.1725 
L 539.600667 312.66 
L 540.066055 341.01 
L 540.531443 258.3225 
L 540.996831 358.72875 
L 541.462219 286.6725 
L 541.927606 312.66 
L 542.392994 206.3475 
L 542.858382 291.3975 
L 543.32377 345.735 
L 543.789158 237.06 
L 544.254545 246.51 
L 544.719933 345.735 
L 545.185321 267.7725 
L 545.650709 244.1475 
L 546.116097 336.285 
L 546.581485 255.96 
L 547.046872 343.3725 
L 547.51226 90.585 
L 547.977648 137.835 
L 548.443036 331.56 
L 548.908424 329.1975 
L 549.373812 341.01 
L 549.839199 329.1975 
L 550.304587 267.7725 
L 550.769975 319.7475 
L 551.235363 251.235 
L 551.700751 90.585 
L 552.166138 341.01 
L 552.631526 260.685 
L 553.096914 338.6475 
L 553.562302 244.1475 
L 554.02769 260.685 
L 554.493078 329.1975 
L 554.958465 267.7725 
L 555.423853 336.285 
L 555.889241 248.8725 
L 556.354629 215.7975 
L 556.820017 225.2475 
L 557.285405 161.46 
L 557.750792 215.7975 
L 558.21618 196.8975 
L 558.681568 234.6975 
L 559.146956 263.0475 
L 559.612344 225.2475 
L 560.077731 284.31 
L 560.543119 201.6225 
L 561.008507 267.7725 
L 561.473895 355.185 
L 561.939283 199.26 
L 562.404671 114.21 
L 562.870058 322.11 
L 563.335446 307.935 
L 563.800834 263.0475 
L 564.266222 201.6225 
L 564.73161 244.1475 
L 565.196997 100.035 
L 565.662385 258.3225 
L 566.127773 350.46 
L 566.593161 248.8725 
L 567.058549 192.1725 
L 567.523937 244.1475 
L 567.989324 319.7475 
L 568.454712 263.0475 
L 569.385488 350.46 
L 569.850876 309.11625 
L 570.316264 345.735 
L 570.781651 199.26 
L 571.247039 201.6225 
L 571.712427 333.9225 
L 572.177815 199.26 
L 572.643203 341.01 
L 573.10859 324.4725 
L 573.573978 215.7975 
L 574.039366 267.7725 
L 574.504754 350.46 
L 574.970142 267.7725 
L 575.900917 194.535 
L 576.366305 211.0725 
L 576.831693 258.3225 
L 577.297081 324.4725 
L 577.762469 76.41 
L 578.227857 267.7725 
L 578.693244 260.685 
L 579.158632 260.685 
L 579.62402 333.9225 
L 580.089408 341.01 
L 580.554796 244.1475 
L 581.020183 319.7475 
L 581.485571 346.91625 
L 581.950959 346.91625 
L 582.416347 336.285 
L 582.881735 338.6475 
L 583.347123 350.46 
L 583.81251 263.0475 
L 584.277898 225.2475 
L 584.743286 244.1475 
L 585.674062 333.9225 
L 586.13945 201.6225 
L 586.604837 369.36 
L 587.070225 244.1475 
L 587.535613 246.51 
L 588.001001 244.1475 
L 588.466389 270.135 
L 588.931776 232.335 
L 589.397164 255.96 
L 589.862552 241.785 
L 590.32794 336.285 
L 590.793328 298.485 
L 591.258716 161.46 
L 591.724103 319.7475 
L 592.189491 286.6725 
L 592.654879 362.2725 
L 593.120267 182.7225 
L 593.585655 326.835 
L 594.051043 286.6725 
L 594.51643 267.7725 
L 594.981818 322.11 
L 595.447206 317.385 
L 595.912594 289.035 
L 596.377982 350.46 
L 597.308757 152.01 
L 597.774145 307.935 
L 598.239533 248.8725 
L 598.704921 357.5475 
L 599.170309 286.6725 
L 599.635696 189.81 
L 600.101084 342.19125 
L 600.566472 152.01 
L 601.03186 225.2475 
L 601.497248 263.0475 
L 601.962636 286.6725 
L 602.428023 270.135 
L 602.893411 201.6225 
L 603.358799 281.9475 
L 603.824187 312.66 
L 604.289575 253.5975 
L 604.754962 344.55375 
L 605.22035 355.185 
L 605.685738 341.01 
L 606.151126 244.1475 
L 606.616514 286.6725 
L 607.081902 289.035 
L 607.547289 267.7725 
L 608.012677 331.56 
L 608.478065 246.51 
L 608.943453 246.51 
L 609.408841 326.835 
L 610.339616 218.16 
L 610.805004 201.6225 
L 611.270392 341.01 
L 611.73578 244.1475 
L 612.201168 260.685 
L 612.666555 225.2475 
L 613.131943 265.41 
L 613.597331 284.31 
L 614.062719 336.285 
L 614.528107 255.96 
L 614.993495 258.3225 
L 615.458882 336.285 
L 615.92427 225.2475 
L 616.389658 263.0475 
L 616.855046 336.285 
L 617.320434 346.91625 
L 617.785822 246.51 
L 618.251209 344.55375 
L 618.716597 201.6225 
L 619.181985 201.6225 
L 619.647373 310.2975 
L 620.112761 267.7725 
L 620.578148 213.435 
L 621.043536 265.41 
L 621.508924 241.785 
L 621.974312 286.6725 
L 622.4397 196.8975 
L 622.905088 341.01 
L 623.370475 253.5975 
L 623.835863 263.0475 
L 624.301251 267.7725 
L 624.766639 85.86 
L 625.232027 338.6475 
L 625.697415 338.6475 
L 626.162802 267.7725 
L 626.62819 289.035 
L 627.093578 362.2725 
L 627.558966 350.46 
L 628.024354 333.9225 
L 628.489741 225.2475 
L 628.955129 286.6725 
L 629.420517 312.66 
L 629.885905 352.8225 
L 630.351293 234.6975 
L 630.816681 263.0475 
L 631.282068 260.685 
L 632.212844 201.6225 
L 632.678232 350.46 
L 633.14362 369.36 
L 633.609008 182.7225 
L 634.074395 356.36625 
L 634.539783 76.41 
L 635.005171 239.4225 
L 635.470559 251.235 
L 635.935947 350.46 
L 636.401334 267.7725 
L 636.866722 244.1475 
L 637.33211 260.685 
L 637.797498 362.2725 
L 638.262886 267.7725 
L 638.728274 244.1475 
L 639.193661 175.635 
L 639.659049 307.935 
L 640.124437 286.6725 
L 640.589825 95.31 
L 641.055213 246.51 
L 641.520601 355.185 
L 641.985988 263.0475 
L 642.916764 213.435 
L 643.382152 284.31 
L 643.84754 326.835 
L 644.312927 326.835 
L 644.778315 239.4225 
L 645.243703 336.285 
L 645.709091 239.4225 
L 646.174479 279.585 
L 646.639867 187.4475 
L 647.105254 267.7725 
L 647.570642 270.135 
L 648.03603 263.0475 
L 648.501418 187.4475 
L 648.966806 265.41 
L 649.432193 192.1725 
L 649.897581 244.1475 
L 650.362969 310.2975 
L 650.828357 215.7975 
L 651.293745 220.5225 
L 651.759133 324.4725 
L 652.22452 239.4225 
L 652.689908 215.7975 
L 653.155296 263.0475 
L 654.086072 234.6975 
L 654.55146 267.7725 
L 655.016847 362.2725 
L 655.482235 312.66 
L 655.947623 350.46 
L 656.413011 263.0475 
L 656.878399 265.41 
L 657.343786 244.1475 
L 657.809174 246.51 
L 658.274562 244.1475 
L 658.73995 333.9225 
L 659.670726 215.7975 
L 660.601501 255.96 
L 661.066889 248.8725 
L 661.532277 331.56 
L 661.997665 246.51 
L 662.463053 244.1475 
L 662.92844 194.535 
L 664.324604 331.56 
L 664.789992 322.11 
L 665.255379 317.385 
L 665.720767 263.0475 
L 666.186155 225.2475 
L 666.651543 265.41 
L 667.116931 244.1475 
L 667.582319 346.91625 
L 668.047706 344.55375 
L 668.513094 267.7725 
L 668.978482 225.2475 
L 669.44387 244.1475 
L 669.909258 258.3225 
L 670.374646 333.9225 
L 670.840033 234.6975 
L 671.305421 345.735 
L 671.770809 267.7725 
L 672.236197 359.91 
L 672.701585 263.0475 
L 673.166972 352.8225 
L 673.63236 234.6975 
L 674.097748 182.7225 
L 675.493912 365.81625 
L 675.959299 246.51 
L 676.424687 215.7975 
L 676.890075 329.1975 
L 677.355463 312.66 
L 677.820851 303.21 
L 678.286239 341.01 
L 678.751626 267.7725 
L 679.217014 248.8725 
L 679.682402 206.3475 
L 680.14779 345.735 
L 680.613178 246.51 
L 681.078565 364.635 
L 682.009341 90.585 
L 682.474729 307.935 
L 682.940117 272.4975 
L 683.405505 369.36 
L 683.870892 336.285 
L 684.33628 161.46 
L 684.801668 318.56625 
L 685.267056 258.3225 
L 685.732444 227.61 
L 686.197832 267.7725 
L 686.663219 203.985 
L 687.128607 194.535 
L 687.593995 267.7725 
L 688.059383 234.6975 
L 688.524771 350.46 
L 688.990158 215.7975 
L 689.455546 215.7975 
L 689.920934 267.7725 
L 690.386322 241.785 
L 691.317098 246.51 
L 691.782485 358.72875 
L 692.247873 350.46 
L 692.713261 258.3225 
L 693.178649 358.72875 
L 693.644037 298.485 
L 694.109425 267.7725 
L 694.574812 208.71 
L 695.0402 333.9225 
L 695.505588 362.2725 
L 695.970976 66.96 
L 696.436364 286.6725 
L 696.901751 267.7725 
L 697.367139 234.6975 
L 697.832527 232.335 
L 698.297915 258.3225 
L 698.763303 196.8975 
L 699.228691 362.2725 
L 699.694078 267.7725 
L 700.159466 263.0475 
L 700.624854 293.76 
L 701.090242 246.51 
L 701.55563 272.4975 
L 702.021018 265.41 
L 702.486405 267.7725 
L 702.951793 322.11 
L 703.417181 352.8225 
L 703.882569 244.1475 
L 704.347957 338.6475 
L 704.813344 232.335 
L 705.278732 196.8975 
L 705.74412 352.8225 
L 706.209508 336.285 
L 706.674896 199.26 
L 707.140284 286.6725 
L 707.605671 265.41 
L 708.071059 322.11 
L 708.536447 234.6975 
L 709.001835 182.7225 
L 709.467223 263.0475 
L 709.932611 244.1475 
L 710.397998 274.86 
L 710.863386 338.6475 
L 711.328774 355.185 
L 711.794162 265.41 
L 712.25955 199.26 
L 712.724937 307.935 
L 713.655713 137.835 
L 714.121101 267.7725 
L 714.586489 350.46 
L 715.051877 237.06 
L 715.517264 362.2725 
L 715.982652 326.835 
L 716.44804 244.1475 
L 716.913428 322.11 
L 717.378816 244.1475 
L 717.844204 359.91 
L 718.309591 341.01 
L 718.774979 307.935 
L 719.240367 331.56 
L 719.705755 333.9225 
L 720.171143 265.41 
L 720.63653 109.485 
L 721.101918 180.36 
L 721.567306 345.735 
L 722.032694 307.935 
L 722.498082 182.7225 
L 723.428857 341.01 
L 723.894245 312.66 
L 724.825021 215.7975 
L 725.290409 350.46 
L 725.755796 263.0475 
L 726.221184 350.46 
L 726.686572 201.6225 
L 727.15196 281.9475 
L 727.617348 225.2475 
L 728.082736 208.71 
L 728.548123 260.685 
L 729.013511 289.035 
L 729.478899 362.2725 
L 729.944287 237.06 
L 730.409675 336.285 
L 730.875063 345.735 
L 731.34045 180.36 
L 731.805838 307.935 
L 732.271226 333.9225 
L 732.736614 338.6475 
L 733.202002 258.3225 
L 733.667389 267.7725 
L 734.132777 267.7725 
L 734.598165 263.0475 
L 735.063553 309.11625 
L 735.528941 258.3225 
L 735.994329 350.46 
L 736.459716 352.8225 
L 736.925104 241.785 
L 737.390492 201.6225 
L 737.85588 350.46 
L 738.321268 267.7725 
L 738.786656 359.91 
L 739.252043 336.285 
L 739.717431 215.7975 
L 740.182819 355.185 
L 740.648207 289.035 
L 741.113595 296.1225 
L 741.578982 350.46 
L 742.04437 312.66 
L 742.509758 286.6725 
L 742.975146 355.185 
L 743.440534 326.835 
L 743.905922 246.51 
L 744.371309 358.72875 
L 744.836697 357.5475 
L 745.302085 336.285 
L 745.767473 161.46 
L 746.232861 329.1975 
L 746.698249 357.5475 
L 747.163636 270.135 
L 747.163636 270.135 
" clip-path="url(#p6a3c1768c3)" style="fill: none; stroke: #1f77b4; stroke-width: 1.5; stroke-linecap: square"/>
   </g>
   <g id="line2d_16">
    <path d="M 138.436364 283.286499 
L 138.901751 316.396179 
L 139.367139 245.96057 
L 139.832527 256.621684 
L 140.297915 277.771406 
L 140.763303 257.282513 
L 141.228691 286.032764 
L 141.694078 254.760627 
L 142.159466 316.754104 
L 142.624854 295.324322 
L 143.090242 226.549744 
L 143.55563 250.348717 
L 144.021018 258.120974 
L 144.486405 260.661981 
L 144.951793 283.068398 
L 145.417181 247.509443 
L 145.882569 255.773463 
L 146.347957 232.708475 
L 146.813344 234.472915 
L 147.278732 249.742201 
L 147.74412 307.331691 
L 148.209508 265.24573 
L 148.674896 250.006803 
L 149.140284 218.406334 
L 149.605671 244.79136 
L 150.071059 238.749091 
L 150.536447 308.086919 
L 151.001835 207.757467 
L 151.467223 228.229099 
L 151.932611 203.677846 
L 152.397998 280.584461 
L 152.863386 278.193295 
L 153.328774 242.77203 
L 153.794162 252.532813 
L 154.25955 236.70886 
L 154.724937 227.749535 
L 155.190325 231.115493 
L 155.655713 224.409216 
L 156.121101 269.034697 
L 156.586489 260.000254 
L 157.051877 243.261083 
L 157.517264 265.522913 
L 157.982652 257.02798 
L 158.44804 232.921736 
L 158.913428 290.461936 
L 159.378816 252.222378 
L 159.844204 232.765808 
L 160.309591 204.508972 
L 160.774979 314.717385 
L 161.240367 221.701401 
L 161.705755 305.20647 
L 162.171143 275.539642 
L 162.63653 262.383012 
L 163.101918 267.070841 
L 163.567306 200.754195 
L 164.032694 264.28371 
L 164.498082 212.40749 
L 164.96347 261.166833 
L 165.428857 286.544936 
L 165.894245 193.045557 
L 166.359633 256.012005 
L 166.825021 227.892064 
L 167.290409 258.888807 
L 167.755796 234.118205 
L 168.221184 199.357642 
L 168.686572 291.669937 
L 169.15196 305.981606 
L 169.617348 244.051041 
L 170.082736 244.820742 
L 170.548123 287.282139 
L 171.013511 275.334113 
L 171.478899 216.10379 
L 171.944287 258.802037 
L 172.409675 200.379013 
L 172.875063 273.662221 
L 173.34045 235.466963 
L 173.805838 290.638194 
L 174.271226 255.597499 
L 174.736614 266.937698 
L 175.202002 260.355568 
L 175.667389 219.534376 
L 176.132777 189.700295 
L 176.598165 249.925731 
L 177.063553 280.271905 
L 177.528941 229.431831 
L 178.459716 266.394618 
L 178.925104 321.428021 
L 179.390492 300.975554 
L 179.85588 272.193553 
L 180.321268 257.554005 
L 180.786656 285.853676 
L 181.252043 237.279962 
L 181.717431 344.270509 
L 182.182819 311.382784 
L 182.648207 217.480618 
L 183.113595 269.134366 
L 183.578982 262.660655 
L 184.04437 284.964781 
L 184.509758 262.105647 
L 184.975146 286.423245 
L 185.440534 251.881919 
L 185.905922 241.451128 
L 186.371309 208.931222 
L 186.836697 249.717978 
L 187.302085 249.103173 
L 187.767473 269.483854 
L 188.232861 269.706684 
L 188.698249 207.400167 
L 190.094412 348.575367 
L 190.5598 223.559605 
L 191.025188 241.698858 
L 191.490575 254.095277 
L 191.955963 259.995057 
L 192.421351 214.919433 
L 192.886739 292.242962 
L 193.352127 278.504072 
L 193.817515 214.701896 
L 194.282902 217.516795 
L 194.74829 211.180455 
L 195.213678 277.899837 
L 195.679066 254.616326 
L 196.144454 271.640643 
L 196.609842 232.883445 
L 197.075229 328.002998 
L 197.540617 193.160255 
L 198.006005 190.036678 
L 198.471393 210.251306 
L 198.936781 273.239172 
L 199.402168 258.330436 
L 199.867556 249.642636 
L 200.332944 228.154695 
L 200.798332 279.440016 
L 201.26372 240.781844 
L 201.729108 287.721655 
L 202.194495 263.465205 
L 202.659883 295.231639 
L 203.125271 346.912414 
L 203.590659 249.90142 
L 204.056047 303.394274 
L 204.521435 280.86615 
L 204.986822 264.094689 
L 205.45221 297.303295 
L 205.917598 309.48921 
L 206.382986 313.308279 
L 206.848374 252.926584 
L 207.313761 278.800471 
L 207.779149 237.461115 
L 208.244537 230.792668 
L 208.709925 275.572576 
L 209.175313 272.127558 
L 209.640701 324.911715 
L 210.106088 236.587629 
L 210.571476 241.247364 
L 211.036864 302.232209 
L 211.502252 266.872902 
L 211.96764 263.123632 
L 212.433028 197.317426 
L 213.363803 271.058629 
L 213.829191 230.419489 
L 214.294579 201.683869 
L 214.759967 277.89177 
L 215.225354 269.456086 
L 215.690742 228.987999 
L 216.15613 203.76263 
L 216.621518 278.775905 
L 217.086906 275.109718 
L 217.552294 267.556516 
L 218.017681 304.625712 
L 218.483069 248.212282 
L 218.948457 236.949698 
L 219.413845 315.177811 
L 219.879233 240.58857 
L 220.344621 253.055634 
L 220.810008 313.970255 
L 221.275396 256.763363 
L 221.740784 226.227667 
L 222.206172 256.423753 
L 222.67156 309.858094 
L 223.136947 291.309712 
L 223.602335 259.62504 
L 224.067723 336.655969 
L 224.533111 246.109234 
L 224.998499 221.900484 
L 225.463887 330.313319 
L 225.929274 253.461772 
L 226.394662 246.552327 
L 226.86005 269.9643 
L 227.325438 273.130936 
L 227.790826 248.764604 
L 228.256214 274.328621 
L 228.721601 327.623639 
L 229.186989 286.999012 
L 229.652377 296.604255 
L 230.117765 268.05753 
L 230.583153 284.431198 
L 231.04854 224.36967 
L 231.979316 281.391236 
L 232.444704 224.974771 
L 232.910092 209.360081 
L 233.37548 297.80794 
L 233.840867 252.960035 
L 234.306255 254.325546 
L 234.771643 249.278993 
L 235.237031 292.420515 
L 235.702419 301.833526 
L 236.167807 222.078157 
L 236.633194 233.440385 
L 237.098582 351.800956 
L 237.56397 274.118745 
L 238.029358 260.931955 
L 238.494746 241.651833 
L 238.960133 289.189132 
L 239.425521 272.514208 
L 239.890909 283.879273 
L 240.356297 255.14638 
L 241.287073 211.689329 
L 241.75246 280.133111 
L 242.217848 316.008011 
L 242.683236 241.786995 
L 243.614012 285.486625 
L 244.079399 291.636454 
L 244.544787 255.706307 
L 245.010175 250.175845 
L 245.475563 299.384853 
L 245.940951 229.731337 
L 246.406339 258.417087 
L 246.871726 277.064522 
L 247.337114 243.424125 
L 247.802502 281.894547 
L 248.733278 270.745739 
L 249.198666 227.137345 
L 249.664053 263.013735 
L 250.129441 240.394431 
L 250.594829 274.905477 
L 251.060217 257.781659 
L 251.525605 286.3459 
L 251.990992 244.477413 
L 252.45638 224.768853 
L 252.921768 331.050351 
L 253.387156 256.842567 
L 253.852544 296.18874 
L 254.317932 252.709691 
L 254.783319 263.652001 
L 255.248707 213.25192 
L 255.714095 244.388656 
L 256.179483 227.124136 
L 256.644871 323.888488 
L 257.110259 285.412157 
L 257.575646 270.977032 
L 258.041034 331.78451 
L 258.506422 241.4735 
L 258.97181 266.927874 
L 259.437198 231.566668 
L 259.902585 246.38501 
L 260.367973 249.116198 
L 260.833361 231.328754 
L 261.298749 268.473617 
L 261.764137 272.106282 
L 262.229525 232.221854 
L 262.694912 297.118509 
L 263.625688 246.74111 
L 264.091076 175.682704 
L 264.556464 277.993322 
L 265.021852 265.252843 
L 265.487239 295.368462 
L 265.952627 290.43865 
L 266.418015 250.144015 
L 266.883403 285.218447 
L 267.348791 262.060513 
L 267.814178 259.508722 
L 268.279566 311.34193 
L 269.210342 272.346191 
L 269.67573 271.81725 
L 270.141118 259.773307 
L 270.606505 303.032586 
L 271.537281 288.425042 
L 272.002669 228.962885 
L 272.468057 319.886427 
L 272.933445 255.999313 
L 273.398832 256.794032 
L 273.86422 241.046898 
L 274.329608 245.429689 
L 274.794996 283.280848 
L 275.260384 265.312346 
L 275.725771 293.862194 
L 276.191159 201.028985 
L 276.656547 270.317555 
L 277.121935 261.336717 
L 277.587323 261.860993 
L 278.052711 280.244399 
L 278.518098 314.301143 
L 278.983486 191.408181 
L 279.448874 263.703779 
L 279.914262 291.642963 
L 280.37965 247.742462 
L 280.845038 267.527905 
L 281.310425 214.084206 
L 281.775813 305.888335 
L 282.241201 293.782227 
L 282.706589 268.868239 
L 283.171977 255.988823 
L 283.637364 315.343169 
L 284.102752 337.227786 
L 284.56814 226.491362 
L 285.033528 296.444456 
L 285.498916 218.318198 
L 285.964304 322.068365 
L 286.429691 256.081617 
L 286.895079 258.048899 
L 287.360467 296.737979 
L 287.825855 306.697224 
L 288.291243 285.628216 
L 288.756631 274.501915 
L 289.222018 210.194815 
L 289.687406 235.415082 
L 290.618182 311.213365 
L 291.08357 265.059586 
L 291.548957 273.144296 
L 292.014345 244.385167 
L 292.479733 259.908724 
L 292.945121 238.593274 
L 293.410509 239.898813 
L 293.875897 221.363095 
L 294.341284 249.807569 
L 294.806672 322.333066 
L 295.737448 240.986919 
L 296.202836 262.473271 
L 296.668224 260.738538 
L 297.133611 257.057775 
L 297.598999 239.995518 
L 298.064387 282.13564 
L 298.995163 232.251307 
L 299.46055 271.020076 
L 299.925938 276.708335 
L 300.391326 234.73429 
L 300.856714 290.125187 
L 301.78749 245.639557 
L 302.252877 281.640452 
L 302.718265 265.433321 
L 303.649041 186.129278 
L 304.114429 256.015892 
L 304.579817 246.378199 
L 305.045204 258.236355 
L 305.510592 303.417043 
L 305.97598 268.971134 
L 306.441368 202.000653 
L 306.906756 289.232358 
L 307.372143 274.090445 
L 308.302919 216.709273 
L 308.768307 263.473399 
L 309.233695 272.968046 
L 309.699083 166.140849 
L 310.16447 253.199999 
L 310.629858 291.789895 
L 311.095246 269.553283 
L 311.560634 226.379494 
L 312.026022 277.097711 
L 312.956797 250.763636 
L 313.422185 269.535433 
L 313.887573 265.940049 
L 314.352961 317.4911 
L 314.818349 187.277109 
L 315.283736 266.766828 
L 315.749124 189.315592 
L 316.214512 243.288883 
L 316.6799 220.356442 
L 317.145288 240.188481 
L 317.610676 273.007028 
L 318.076063 267.708749 
L 318.541451 289.098316 
L 319.006839 250.578239 
L 319.472227 263.864253 
L 319.937615 254.529294 
L 320.403003 339.550541 
L 320.86839 201.746558 
L 321.333778 251.184445 
L 321.799166 261.494958 
L 322.264554 282.709094 
L 322.729942 213.159936 
L 323.195329 185.609278 
L 323.660717 293.770028 
L 324.126105 246.506351 
L 324.591493 234.400212 
L 325.056881 272.353264 
L 325.522269 240.077837 
L 325.987656 237.456124 
L 326.453044 305.487419 
L 326.918432 262.219382 
L 327.38382 305.092726 
L 327.849208 206.803029 
L 328.314595 300.253872 
L 328.779983 282.474208 
L 329.245371 280.863726 
L 329.710759 307.624709 
L 330.176147 217.206734 
L 330.641535 252.277335 
L 331.106922 326.838597 
L 331.57231 261.455062 
L 332.037698 313.242573 
L 332.503086 230.879375 
L 332.968474 296.948061 
L 333.433862 313.998699 
L 333.899249 296.264018 
L 334.364637 311.705422 
L 334.830025 202.771824 
L 335.295413 276.229812 
L 335.760801 247.153542 
L 336.226188 254.299828 
L 337.156964 334.991845 
L 337.622352 329.551347 
L 338.553128 176.435039 
L 339.018515 201.855724 
L 339.483903 258.00131 
L 339.949291 250.330239 
L 340.414679 278.358896 
L 340.880067 239.128819 
L 341.345455 241.971041 
L 341.810842 204.834388 
L 342.27623 250.242126 
L 342.741618 253.935931 
L 343.207006 254.719738 
L 343.672394 223.988416 
L 344.137781 249.877856 
L 344.603169 298.244048 
L 345.068557 241.506204 
L 345.533945 295.681972 
L 345.999333 308.435215 
L 346.464721 295.234341 
L 346.930108 307.804452 
L 347.395496 284.875587 
L 347.860884 329.639047 
L 348.326272 185.318752 
L 349.257048 287.171288 
L 349.722435 217.831004 
L 350.653211 313.309415 
L 351.583987 232.37853 
L 352.049374 269.033871 
L 352.514762 264.769862 
L 352.98015 236.282162 
L 353.445538 298.850969 
L 354.376314 221.298832 
L 354.841701 227.885691 
L 355.307089 307.616543 
L 355.772477 327.206662 
L 356.237865 291.467714 
L 356.703253 242.500364 
L 357.168641 289.335086 
L 357.634028 276.722481 
L 358.099416 250.811925 
L 358.564804 332.24237 
L 359.030192 261.21687 
L 359.49558 270.2636 
L 359.960967 236.122387 
L 360.426355 316.228068 
L 360.891743 189.977438 
L 361.822519 267.01625 
L 362.287907 263.469536 
L 362.753294 252.239704 
L 363.218682 244.895416 
L 363.68407 223.609912 
L 364.149458 209.758597 
L 364.614846 261.890994 
L 365.080234 251.685633 
L 365.545621 249.448218 
L 366.011009 321.952944 
L 366.476397 312.099113 
L 366.941785 331.758499 
L 367.407173 226.516683 
L 368.337948 287.230894 
L 368.803336 258.124105 
L 369.268724 166.157825 
L 369.734112 297.700912 
L 370.664887 314.052388 
L 371.130275 258.920771 
L 371.595663 259.895841 
L 372.061051 232.824968 
L 372.526439 256.791536 
L 372.991827 237.239128 
L 373.457214 272.012892 
L 373.922602 334.327675 
L 374.38799 301.058104 
L 374.853378 234.442095 
L 375.318766 303.140338 
L 375.784153 256.600242 
L 376.249541 334.720635 
L 376.714929 227.249165 
L 377.180317 267.366795 
L 377.645705 228.630142 
L 378.111093 309.388568 
L 378.57648 194.655181 
L 379.041868 335.180382 
L 379.507256 239.992927 
L 379.972644 295.919298 
L 380.438032 270.422103 
L 380.90342 238.454591 
L 381.368807 279.991806 
L 381.834195 309.460429 
L 382.299583 254.970082 
L 382.764971 273.592546 
L 383.230359 228.474484 
L 383.695746 268.428937 
L 384.161134 268.298527 
L 384.626522 254.608808 
L 385.09191 271.437856 
L 385.557298 230.936358 
L 386.022686 304.609586 
L 386.488073 262.615553 
L 386.953461 280.384973 
L 387.418849 229.720815 
L 387.884237 300.824505 
L 388.349625 263.024218 
L 388.815013 307.483777 
L 389.2804 289.486969 
L 389.745788 240.199067 
L 390.211176 247.569009 
L 390.676564 305.46496 
L 391.141952 300.622744 
L 391.607339 274.104718 
L 392.072727 284.372038 
L 392.538115 262.38236 
L 393.003503 224.764927 
L 393.468891 228.546932 
L 393.934279 237.815014 
L 394.399666 327.939311 
L 395.330442 222.595995 
L 395.79583 266.553678 
L 396.261218 267.835749 
L 396.726606 271.384092 
L 397.191993 198.792961 
L 397.657381 240.41387 
L 398.122769 234.133432 
L 398.588157 329.371223 
L 399.053545 224.66746 
L 399.518932 305.298954 
L 399.98432 251.570093 
L 400.449708 256.128713 
L 401.380484 335.05651 
L 401.845872 276.840143 
L 402.311259 281.929913 
L 402.776647 197.036421 
L 403.707423 334.644622 
L 404.172811 205.958742 
L 404.638198 317.374392 
L 405.103586 298.945615 
L 405.568974 260.633775 
L 406.034362 273.23732 
L 406.49975 235.352711 
L 407.430525 317.249101 
L 407.895913 301.848396 
L 408.361301 248.469667 
L 409.292077 301.342828 
L 409.757465 256.819567 
L 410.222852 301.642089 
L 410.68824 252.668905 
L 411.153628 249.91962 
L 411.619016 284.028478 
L 412.084404 333.190311 
L 412.549791 253.490986 
L 413.015179 269.389685 
L 413.480567 270.433047 
L 413.945955 257.137067 
L 414.411343 258.35435 
L 414.876731 288.598709 
L 415.342118 257.52022 
L 415.807506 303.399885 
L 416.272894 306.644143 
L 416.738282 249.369745 
L 417.20367 273.587651 
L 417.669058 321.518101 
L 418.134445 209.344918 
L 418.599833 254.282248 
L 419.065221 204.895265 
L 419.530609 259.951425 
L 419.995997 197.219482 
L 420.461384 273.17514 
L 420.926772 264.865009 
L 421.39216 326.304037 
L 421.857548 284.503949 
L 422.322936 200.317516 
L 422.788324 206.721107 
L 423.253711 323.147856 
L 423.719099 319.756145 
L 424.184487 247.769014 
L 424.649875 325.291869 
L 425.115263 288.250882 
L 425.580651 267.160965 
L 426.046038 238.051339 
L 426.511426 284.461629 
L 426.976814 233.457599 
L 427.442202 227.645011 
L 427.90759 266.051909 
L 428.372977 238.956408 
L 428.838365 263.558476 
L 429.303753 266.734895 
L 429.769141 268.633964 
L 430.234529 273.076607 
L 430.699917 178.578842 
L 431.165304 257.560982 
L 431.630692 265.847319 
L 432.09608 276.711037 
L 432.561468 262.385269 
L 433.026856 330.104937 
L 433.492244 199.586066 
L 433.957631 268.274208 
L 434.423019 301.991346 
L 434.888407 261.063596 
L 435.353795 317.396288 
L 435.819183 285.064481 
L 436.28457 212.273369 
L 436.749958 297.412326 
L 437.215346 281.656259 
L 437.680734 239.802093 
L 438.146122 244.300765 
L 438.61151 225.780465 
L 439.076897 280.909082 
L 439.542285 259.152025 
L 440.007673 257.343573 
L 440.473061 314.74321 
L 440.938449 253.965766 
L 441.403837 259.081182 
L 441.869224 250.074014 
L 442.334612 267.132823 
L 442.8 260.918102 
L 443.265388 300.843794 
L 443.730776 268.626565 
L 444.196163 275.988258 
L 444.661551 264.30404 
L 445.126939 278.29956 
L 445.592327 198.676833 
L 446.057715 272.117878 
L 446.523103 281.772276 
L 446.98849 212.967164 
L 447.453878 198.886931 
L 447.919266 274.841667 
L 448.384654 252.2844 
L 448.850042 235.923241 
L 449.31543 247.969289 
L 449.780817 292.018574 
L 450.246205 275.797814 
L 450.711593 287.94892 
L 451.176981 263.544083 
L 452.107756 273.790191 
L 452.573144 284.491106 
L 453.038532 254.293613 
L 453.50392 267.274803 
L 453.969308 256.39136 
L 454.434696 266.980582 
L 454.900083 214.336744 
L 455.365471 300.310601 
L 455.830859 231.48961 
L 456.296247 239.08363 
L 456.761635 287.087252 
L 457.227023 181.28289 
L 457.69241 290.472315 
L 458.623186 265.527745 
L 459.088574 264.117903 
L 459.553962 283.481934 
L 460.019349 234.272497 
L 460.484737 328.111079 
L 460.950125 284.136643 
L 461.415513 285.601481 
L 461.880901 296.292994 
L 462.346289 275.412475 
L 462.811676 278.366573 
L 463.277064 218.560642 
L 463.742452 273.271375 
L 464.20784 250.70438 
L 464.673228 263.859747 
L 465.138616 310.560655 
L 466.069391 243.147268 
L 466.534779 289.665429 
L 467.000167 286.711903 
L 467.465555 271.780803 
L 467.930942 239.38498 
L 468.39633 280.84582 
L 468.861718 287.727473 
L 469.327106 305.740219 
L 469.792494 289.644758 
L 470.723269 329.913579 
L 471.188657 282.954122 
L 471.654045 209.713424 
L 472.119433 250.582562 
L 472.584821 265.268746 
L 473.050209 289.134255 
L 473.515596 261.464687 
L 473.980984 280.594308 
L 474.446372 269.741462 
L 474.91176 255.667127 
L 475.377148 286.318927 
L 475.842535 288.946799 
L 476.307923 308.975346 
L 476.773311 262.196112 
L 477.238699 193.155661 
L 477.704087 195.983848 
L 478.169475 206.11014 
L 478.634862 261.984258 
L 479.10025 273.098963 
L 479.565638 232.508247 
L 480.496414 268.996303 
L 480.961802 271.760156 
L 481.427189 259.718295 
L 481.892577 276.213162 
L 482.357965 246.948848 
L 482.823353 256.840278 
L 483.288741 255.834635 
L 483.754128 249.87428 
L 484.219516 229.078456 
L 484.684904 242.924081 
L 485.150292 290.677764 
L 485.61568 287.23753 
L 486.081068 270.429216 
L 486.546455 276.869524 
L 487.011843 279.732195 
L 487.477231 251.765672 
L 487.942619 261.497239 
L 488.408007 330.145549 
L 488.873394 240.165736 
L 489.338782 232.260653 
L 489.80417 246.581089 
L 490.269558 233.495318 
L 490.734946 281.912532 
L 491.200334 274.822824 
L 491.665721 197.84825 
L 492.131109 247.414925 
L 492.596497 311.179064 
L 493.527273 263.701124 
L 493.992661 259.321472 
L 494.458048 222.025179 
L 494.923436 242.905293 
L 495.388824 195.621795 
L 495.854212 332.780736 
L 496.3196 276.612791 
L 496.784987 257.039075 
L 497.250375 276.375822 
L 497.715763 289.58551 
L 498.181151 294.048752 
L 498.646539 263.484279 
L 499.111927 218.473967 
L 499.577314 239.906936 
L 500.042702 274.697 
L 500.50809 253.274149 
L 500.973478 247.432441 
L 501.438866 276.2371 
L 502.369641 243.281929 
L 502.835029 268.833182 
L 503.300417 335.753161 
L 503.765805 262.555972 
L 504.231193 310.044104 
L 504.69658 267.725995 
L 505.161968 314.129562 
L 505.627356 267.873348 
L 506.092744 271.678933 
L 506.558132 299.459567 
L 507.02352 270.902899 
L 507.488907 234.402516 
L 508.419683 301.94882 
L 509.350459 230.940443 
L 509.815847 280.994048 
L 510.281234 198.08378 
L 510.746622 254.770744 
L 511.21201 248.497658 
L 512.142786 307.828337 
L 512.608173 234.014237 
L 513.073561 235.270741 
L 513.538949 300.679377 
L 514.004337 295.229136 
L 514.935113 259.665962 
L 515.4005 331.290236 
L 516.331276 270.987523 
L 516.796664 340.617618 
L 517.262052 261.595875 
L 517.72744 335.746533 
L 518.192827 245.619696 
L 518.658215 251.601947 
L 519.123603 248.682491 
L 519.588991 250.964619 
L 520.054379 268.837093 
L 520.519766 330.706887 
L 520.985154 252.018098 
L 521.450542 251.588857 
L 521.91593 264.303936 
L 522.846706 248.250136 
L 523.312093 242.421557 
L 523.777481 282.623469 
L 524.242869 264.959901 
L 524.708257 219.684376 
L 525.173645 235.776754 
L 525.639033 241.604108 
L 526.10442 196.326144 
L 526.569808 311.376065 
L 527.035196 260.636612 
L 527.500584 329.517197 
L 527.965972 286.843703 
L 528.431359 232.594239 
L 528.896747 332.2414 
L 529.362135 271.482783 
L 529.827523 254.116671 
L 530.292911 246.758133 
L 530.758299 320.002547 
L 531.223686 225.239436 
L 531.689074 316.229232 
L 532.154462 290.013288 
L 532.61985 280.311968 
L 533.085238 322.779528 
L 533.550626 213.603403 
L 534.016013 219.880137 
L 534.481401 263.077013 
L 534.946789 257.105484 
L 535.412177 227.793167 
L 535.877565 257.554648 
L 536.342952 185.00947 
L 536.80834 248.420735 
L 537.273728 249.016403 
L 537.739116 257.814728 
L 538.204504 237.670991 
L 538.669892 334.970085 
L 539.135279 201.534426 
L 539.600667 284.272075 
L 540.066055 301.137682 
L 540.531443 213.774527 
L 540.996831 271.578891 
L 541.462219 228.234567 
L 541.927606 278.607086 
L 542.392994 259.36899 
L 542.858382 268.694905 
L 543.32377 296.079145 
L 543.789158 255.752689 
L 544.254545 263.440178 
L 544.719933 298.530052 
L 545.185321 266.1743 
L 545.650709 277.349398 
L 546.116097 291.432396 
L 546.581485 261.454252 
L 547.046872 288.945789 
L 547.51226 261.255177 
L 547.977648 273.628644 
L 548.443036 299.070969 
L 548.908424 265.13871 
L 549.373812 301.662085 
L 550.304587 218.953213 
L 550.769975 263.178819 
L 551.235363 232.551831 
L 551.700751 257.696367 
L 552.166138 291.413616 
L 552.631526 259.722579 
L 553.096914 261.369397 
L 553.562302 264.952025 
L 554.02769 256.111324 
L 554.493078 270.964174 
L 554.958465 262.991673 
L 555.889241 339.473554 
L 556.354629 212.353924 
L 556.820017 244.37629 
L 557.285405 259.178919 
L 557.750792 261.007479 
L 558.21618 197.605027 
L 558.681568 243.749977 
L 559.146956 271.728756 
L 559.612344 218.515898 
L 560.077731 290.748282 
L 560.543119 211.160014 
L 561.008507 261.875537 
L 561.473895 295.190964 
L 561.939283 198.600172 
L 562.404671 288.116476 
L 563.335446 262.462979 
L 563.800834 318.885357 
L 564.266222 218.548291 
L 564.73161 265.956 
L 565.196997 237.653125 
L 565.662385 284.705067 
L 566.127773 316.079415 
L 566.593161 245.551047 
L 567.058549 214.79256 
L 567.523937 332.508688 
L 567.989324 278.285438 
L 568.9201 229.591208 
L 569.385488 316.360754 
L 569.850876 306.760486 
L 570.316264 257.793929 
L 570.781651 238.905369 
L 571.247039 209.655885 
L 571.712427 296.998694 
L 572.177815 181.511664 
L 572.643203 298.224664 
L 573.10859 323.071167 
L 573.573978 171.369143 
L 574.039366 270.7431 
L 574.504754 283.485566 
L 574.970142 274.407301 
L 575.43553 213.93853 
L 575.900917 277.11022 
L 576.366305 248.620557 
L 576.831693 243.478437 
L 577.297081 324.011924 
L 577.762469 305.578719 
L 578.227857 268.103474 
L 578.693244 267.808878 
L 579.158632 255.690397 
L 579.62402 263.981478 
L 580.089408 277.830925 
L 580.554796 247.731844 
L 581.485571 303.017725 
L 581.950959 314.265399 
L 582.416347 277.080163 
L 582.881735 341.683662 
L 583.347123 312.77989 
L 583.81251 222.60256 
L 584.277898 272.863974 
L 584.743286 262.796786 
L 585.208674 265.331531 
L 585.674062 311.405136 
L 586.13945 230.759353 
L 586.604837 219.222392 
L 587.070225 190.301963 
L 587.535613 252.318121 
L 588.001001 244.567052 
L 588.466389 307.447882 
L 588.931776 261.617293 
L 589.397164 254.659194 
L 589.862552 258.46296 
L 590.32794 287.614397 
L 590.793328 267.868921 
L 591.258716 271.390775 
L 591.724103 262.809399 
L 592.189491 261.413092 
L 592.654879 320.675276 
L 593.120267 203.544266 
L 593.585655 233.150765 
L 594.051043 270.831094 
L 594.51643 248.183894 
L 594.981818 246.973739 
L 595.447206 257.456267 
L 596.377982 330.911939 
L 596.843369 303.501993 
L 597.308757 248.024993 
L 597.774145 301.416151 
L 598.239533 259.621376 
L 598.704921 318.652001 
L 599.170309 317.628098 
L 599.635696 261.383011 
L 600.101084 301.625161 
L 600.566472 279.005069 
L 601.03186 223.990148 
L 601.497248 270.186804 
L 601.962636 254.31763 
L 602.428023 303.310452 
L 602.893411 218.89313 
L 603.358799 254.434695 
L 603.824187 249.830132 
L 604.289575 282.789427 
L 604.754962 298.053889 
L 605.22035 308.198068 
L 605.685738 303.145209 
L 606.151126 274.03831 
L 606.616514 259.349773 
L 607.081902 299.758859 
L 607.547289 261.858418 
L 608.012677 299.669863 
L 608.478065 246.417419 
L 608.943453 237.249539 
L 609.408841 289.271038 
L 609.874229 291.814318 
L 610.339616 275.921277 
L 610.805004 209.179722 
L 611.270392 325.276236 
L 611.73578 233.461033 
L 612.201168 234.197505 
L 612.666555 265.856967 
L 613.131943 249.805073 
L 613.597331 222.587491 
L 614.062719 267.439506 
L 614.528107 252.935231 
L 614.993495 308.795511 
L 615.458882 278.044877 
L 615.92427 217.450513 
L 616.389658 296.938643 
L 616.855046 254.76077 
L 617.785822 310.032727 
L 618.251209 307.875668 
L 618.716597 204.804521 
L 619.181985 257.816715 
L 619.647373 230.863194 
L 620.112761 255.991692 
L 620.578148 264.091176 
L 621.043536 256.162728 
L 621.508924 258.033544 
L 621.974312 266.558327 
L 622.4397 223.170594 
L 622.905088 296.373327 
L 623.370475 293.812078 
L 623.835863 255.742238 
L 624.301251 240.606134 
L 624.766639 185.797346 
L 625.232027 313.786328 
L 625.697415 309.912268 
L 626.162802 193.334557 
L 626.62819 285.717235 
L 627.093578 316.958957 
L 627.558966 334.082318 
L 628.489741 273.998223 
L 628.955129 280.679187 
L 629.420517 208.52247 
L 629.885905 320.547005 
L 630.351293 291.56573 
L 630.816681 348.519485 
L 631.282068 268.757364 
L 631.747456 260.128176 
L 632.212844 193.068939 
L 632.678232 298.623656 
L 633.14362 256.824963 
L 633.609008 262.349521 
L 634.074395 322.74204 
L 634.539783 274.334319 
L 635.005171 265.486895 
L 635.470559 284.868243 
L 635.935947 286.038279 
L 636.401334 282.671074 
L 636.866722 260.306055 
L 637.33211 269.733785 
L 637.797498 299.434723 
L 638.262886 242.196804 
L 638.728274 272.965844 
L 639.193661 218.997496 
L 639.659049 333.707855 
L 640.124437 246.987162 
L 640.589825 294.284815 
L 641.055213 265.764347 
L 641.520601 335.887842 
L 641.985988 237.472273 
L 642.451376 272.849017 
L 642.916764 220.674721 
L 643.382152 294.25316 
L 643.84754 309.503786 
L 644.312927 334.704295 
L 644.778315 247.227326 
L 645.243703 274.557332 
L 645.709091 251.482886 
L 646.174479 263.451416 
L 646.639867 197.23827 
L 647.105254 272.69169 
L 647.570642 298.198882 
L 648.03603 286.748088 
L 648.501418 172.482069 
L 648.966806 250.839272 
L 649.432193 209.235704 
L 649.897581 245.235128 
L 650.362969 269.535934 
L 650.828357 304.787314 
L 651.293745 290.247769 
L 651.759133 316.655238 
L 652.22452 249.425075 
L 652.689908 227.636094 
L 653.155296 236.499747 
L 653.620684 258.150666 
L 654.086072 266.895934 
L 654.55146 282.236962 
L 655.016847 261.387454 
L 655.482235 298.618983 
L 655.947623 312.328524 
L 656.413011 234.734306 
L 656.878399 269.956861 
L 657.343786 246.125129 
L 657.809174 238.342437 
L 658.274562 206.757188 
L 658.73995 305.640797 
L 659.205338 234.309245 
L 659.670726 254.177008 
L 660.136113 245.312068 
L 660.601501 270.295493 
L 661.066889 230.701591 
L 661.532277 354.200256 
L 661.997665 241.811846 
L 662.463053 273.910602 
L 662.92844 262.320553 
L 663.393828 257.102201 
L 663.859216 318.222685 
L 664.324604 300.812711 
L 664.789992 235.512565 
L 665.255379 241.822647 
L 665.720767 255.020365 
L 666.186155 202.964867 
L 666.651543 271.190477 
L 667.116931 250.38944 
L 667.582319 304.263746 
L 668.047706 299.786762 
L 668.513094 269.185595 
L 668.978482 254.497568 
L 669.44387 297.964155 
L 669.909258 236.84004 
L 670.374646 276.27911 
L 670.840033 212.652175 
L 671.305421 310.435777 
L 671.770809 269.042295 
L 672.236197 268.984343 
L 672.701585 223.485614 
L 673.166972 326.180311 
L 673.63236 282.021237 
L 674.097748 167.643501 
L 674.563136 237.576575 
L 675.028524 257.755392 
L 675.493912 303.572972 
L 675.959299 247.76415 
L 676.424687 215.766231 
L 676.890075 238.935172 
L 677.355463 299.309265 
L 677.820851 282.034565 
L 678.286239 333.303729 
L 678.751626 247.060048 
L 679.217014 256.7082 
L 679.682402 195.687425 
L 680.14779 293.900978 
L 680.613178 264.277956 
L 681.078565 296.975821 
L 681.543953 277.586947 
L 682.009341 246.881048 
L 682.474729 251.05785 
L 682.940117 251.084196 
L 683.405505 295.05655 
L 683.870892 283.692652 
L 684.33628 257.341951 
L 684.801668 303.801015 
L 685.267056 243.773954 
L 685.732444 256.868372 
L 686.197832 266.004694 
L 687.128607 199.368641 
L 687.593995 241.70334 
L 688.059383 257.966023 
L 688.524771 253.902003 
L 688.990158 251.55183 
L 689.455546 242.829252 
L 689.920934 285.695316 
L 690.386322 228.747875 
L 690.85171 235.096565 
L 691.317098 203.235731 
L 691.782485 338.308592 
L 692.247873 262.990521 
L 692.713261 258.618634 
L 693.178649 324.629741 
L 693.644037 263.599643 
L 694.109425 278.6921 
L 694.574812 273.520853 
L 695.0402 270.164035 
L 695.505588 318.366279 
L 695.970976 314.157934 
L 696.436364 229.2701 
L 696.901751 282.933681 
L 697.367139 242.341518 
L 697.832527 243.874315 
L 698.297915 253.258985 
L 698.763303 282.654241 
L 699.228691 321.573085 
L 699.694078 256.097345 
L 700.159466 229.475017 
L 700.624854 255.061716 
L 701.090242 236.11622 
L 702.021018 258.901332 
L 702.486405 241.87262 
L 702.951793 257.817637 
L 703.417181 295.741149 
L 703.882569 243.032849 
L 704.347957 302.223077 
L 704.813344 252.894842 
L 705.278732 243.449787 
L 706.209508 312.688296 
L 706.674896 265.830764 
L 707.140284 248.527636 
L 707.605671 273.389037 
L 708.071059 258.466504 
L 708.536447 341.03445 
L 709.001835 186.90021 
L 709.467223 244.027875 
L 709.932611 260.422119 
L 710.397998 291.090983 
L 710.863386 287.477351 
L 711.328774 299.983882 
L 711.794162 251.07202 
L 712.25955 169.702043 
L 712.724937 283.357867 
L 713.190325 236.184933 
L 713.655713 251.343123 
L 714.121101 261.857957 
L 714.586489 315.0139 
L 715.051877 270.751262 
L 715.517264 288.958537 
L 715.982652 285.985699 
L 716.44804 253.349053 
L 716.913428 257.711101 
L 717.378816 252.358391 
L 717.844204 304.071855 
L 718.309591 294.564596 
L 718.774979 247.445069 
L 719.240367 316.214565 
L 719.705755 327.187739 
L 720.171143 236.163444 
L 720.63653 259.870051 
L 721.101918 252.127136 
L 721.567306 295.079168 
L 722.032694 246.346552 
L 722.498082 232.534188 
L 722.96347 300.923824 
L 723.428857 275.14897 
L 724.359633 251.922228 
L 724.825021 195.861823 
L 725.290409 281.393899 
L 725.755796 234.111641 
L 726.221184 255.0816 
L 726.686572 240.909027 
L 727.15196 243.497821 
L 727.617348 212.350539 
L 728.082736 234.000186 
L 728.548123 270.578541 
L 729.013511 259.333584 
L 729.478899 314.538584 
L 729.944287 280.571523 
L 730.409675 258.617577 
L 730.875063 316.070673 
L 731.34045 207.554506 
L 732.271226 270.11128 
L 732.736614 329.749095 
L 733.202002 260.078489 
L 733.667389 291.957228 
L 734.132777 253.367213 
L 734.598165 273.758107 
L 735.063553 230.443029 
L 735.528941 243.916221 
L 735.994329 307.455635 
L 736.459716 258.868318 
L 736.925104 236.825337 
L 737.390492 172.423703 
L 737.85588 297.172083 
L 738.321268 245.561871 
L 738.786656 318.703166 
L 739.252043 286.565058 
L 739.717431 228.300578 
L 740.182819 315.156071 
L 740.648207 314.125842 
L 741.113595 234.854757 
L 741.578982 293.774002 
L 742.04437 231.893768 
L 742.509758 255.930314 
L 742.975146 286.363488 
L 743.440534 264.090778 
L 743.905922 290.829639 
L 744.371309 339.517559 
L 744.836697 323.44141 
L 745.302085 333.938879 
L 745.767473 252.528887 
L 746.232861 254.507414 
L 746.698249 326.967794 
L 747.163636 265.379311 
L 747.163636 265.379311 
" clip-path="url(#p6a3c1768c3)" style="fill: none; stroke: #ff7f0e; stroke-width: 1.5; stroke-linecap: square"/>
   </g>
   <g id="patch_3">
    <path d="M 108 384.48 
L 108 51.84 
" style="fill: none; stroke: #000000; stroke-width: 0.8; stroke-linejoin: miter; stroke-linecap: square"/>
   </g>
   <g id="patch_4">
    <path d="M 777.6 384.48 
L 777.6 51.84 
" style="fill: none; stroke: #000000; stroke-width: 0.8; stroke-linejoin: miter; stroke-linecap: square"/>
   </g>
   <g id="patch_5">
    <path d="M 108 384.48 
L 777.6 384.48 
" style="fill: none; stroke: #000000; stroke-width: 0.8; stroke-linejoin: miter; stroke-linecap: square"/>
   </g>
   <g id="patch_6">
    <path d="M 108 51.84 
L 777.6 51.84 
" style="fill: none; stroke: #000000; stroke-width: 0.8; stroke-linejoin: miter; stroke-linecap: square"/>
   </g>
   <g id="text_15">
    <!-- Regresso: Real vs Previsto -->
    <g transform="translate(360.520313 45.84) scale(0.12 -0.12)">
     <defs>
      <path id="DejaVuSans-52" d="M 2841 2188 
Q 3044 2119 3236 1894 
Q 3428 1669 3622 1275 
L 4263 0 
L 3584 0 
L 2988 1197 
Q 2756 1666 2539 1819 
Q 2322 1972 1947 1972 
L 1259 1972 
L 1259 0 
L 628 0 
L 628 4666 
L 2053 4666 
Q 2853 4666 3247 4331 
Q 3641 3997 3641 3322 
Q 3641 2881 3436 2590 
Q 3231 2300 2841 2188 
z
M 1259 4147 
L 1259 2491 
L 2053 2491 
Q 2509 2491 2742 2702 
Q 2975 2913 2975 3322 
Q 2975 3731 2742 3939 
Q 2509 4147 2053 4147 
L 1259 4147 
z
" transform="scale(0.015625)"/>
      <path id="DejaVuSans-65" d="M 3597 1894 
L 3597 1613 
L 953 1613 
Q 991 1019 1311 708 
Q 1631 397 2203 397 
Q 2534 397 2845 478 
Q 3156 559 3463 722 
L 3463 178 
Q 3153 47 2828 -22 
Q 2503 -91 2169 -91 
Q 1331 -91 842 396 
Q 353 884 353 1716 
Q 353 2575 817 3079 
Q 1281 3584 2069 3584 
Q 2775 3584 3186 3129 
Q 3597 2675 3597 1894 
z
M 3022 2063 
Q 3016 2534 2758 2815 
Q 2500 3097 2075 3097 
Q 1594 3097 1305 2825 
Q 1016 2553 972 2059 
L 3022 2063 
z
" transform="scale(0.015625)"/>
      <path id="DejaVuSans-67" d="M 2906 1791 
Q 2906 2416 2648 2759 
Q 2391 3103 1925 3103 
Q 1463 3103 1205 2759 
Q 947 2416 947 1791 
Q 947 1169 1205 825 
Q 1463 481 1925 481 
Q 2391 481 2648 825 
Q 2906 1169 2906 1791 
z
M 3481 434 
Q 3481 -459 3084 -895 
Q 2688 -1331 1869 -1331 
Q 1566 -1331 1297 -1286 
Q 1028 -1241 775 -1147 
L 775 -588 
Q 1028 -725 1275 -790 
Q 1522 -856 1778 -856 
Q 2344 -856 2625 -561 
Q 2906 -266 2906 331 
L 2906 616 
Q 2728 306 2450 153 
Q 2172 0 1784 0 
Q 1141 0 747 490 
Q 353 981 353 1791 
Q 353 2603 747 3093 
Q 1141 3584 1784 3584 
Q 2172 3584 2450 3431 
Q 2728 3278 2906 2969 
L 2906 3500 
L 3481 3500 
L 3481 434 
z
" transform="scale(0.015625)"/>
      <path id="DejaVuSans-72" d="M 2631 2963 
Q 2534 3019 2420 3045 
Q 2306 3072 2169 3072 
Q 1681 3072 1420 2755 
Q 1159 2438 1159 1844 
L 1159 0 
L 581 0 
L 581 3500 
L 1159 3500 
L 1159 2956 
Q 1341 3275 1631 3429 
Q 1922 3584 2338 3584 
Q 2397 3584 2469 3576 
Q 2541 3569 2628 3553 
L 2631 2963 
z
" transform="scale(0.015625)"/>
      <path id="DejaVuSans-73" d="M 2834 3397 
L 2834 2853 
Q 2591 2978 2328 3040 
Q 2066 3103 1784 3103 
Q 1356 3103 1142 2972 
Q 928 2841 928 2578 
Q 928 2378 1081 2264 
Q 1234 2150 1697 2047 
L 1894 2003 
Q 2506 1872 2764 1633 
Q 3022 1394 3022 966 
Q 3022 478 2636 193 
Q 2250 -91 1575 -91 
Q 1294 -91 989 -36 
Q 684 19 347 128 
L 347 722 
Q 666 556 975 473 
Q 1284 391 1588 391 
Q 1994 391 2212 530 
Q 2431 669 2431 922 
Q 2431 1156 2273 1281 
Q 2116 1406 1581 1522 
L 1381 1569 
Q 847 1681 609 1914 
Q 372 2147 372 2553 
Q 372 3047 722 3315 
Q 1072 3584 1716 3584 
Q 2034 3584 2315 3537 
Q 2597 3491 2834 3397 
z
" transform="scale(0.015625)"/>
      <path id="DejaVuSans-e3" d="M 2194 1759 
Q 1497 1759 1228 1600 
Q 959 1441 959 1056 
Q 959 750 1161 570 
Q 1363 391 1709 391 
Q 2188 391 2477 730 
Q 2766 1069 2766 1631 
L 2766 1759 
L 2194 1759 
z
M 3341 1997 
L 3341 0 
L 2766 0 
L 2766 531 
Q 2569 213 2275 61 
Q 1981 -91 1556 -91 
Q 1019 -91 701 211 
Q 384 513 384 1019 
Q 384 1609 779 1909 
Q 1175 2209 1959 2209 
L 2766 2209 
L 2766 2266 
Q 2766 2663 2505 2880 
Q 2244 3097 1772 3097 
Q 1472 3097 1187 3025 
Q 903 2953 641 2809 
L 641 3341 
Q 956 3463 1253 3523 
Q 1550 3584 1831 3584 
Q 2591 3584 2966 3190 
Q 3341 2797 3341 1997 
z
M 1844 4281 
L 1665 4453 
Q 1597 4516 1545 4545 
Q 1494 4575 1453 4575 
Q 1334 4575 1278 4461 
Q 1222 4347 1215 4091 
L 825 4091 
Q 831 4513 990 4742 
Q 1150 4972 1434 4972 
Q 1553 4972 1653 4928 
Q 1753 4884 1869 4781 
L 2047 4609 
Q 2115 4547 2167 4517 
Q 2219 4488 2259 4488 
Q 2378 4488 2434 4602 
Q 2490 4716 2497 4972 
L 2887 4972 
Q 2881 4550 2721 4320 
Q 2562 4091 2278 4091 
Q 2159 4091 2059 4134 
Q 1959 4178 1844 4281 
z
" transform="scale(0.015625)"/>
      <path id="DejaVuSans-6f" d="M 1959 3097 
Q 1497 3097 1228 2736 
Q 959 2375 959 1747 
Q 959 1119 1226 758 
Q 1494 397 1959 397 
Q 2419 397 2687 759 
Q 2956 1122 2956 1747 
Q 2956 2369 2687 2733 
Q 2419 3097 1959 3097 
z
M 1959 3584 
Q 2709 3584 3137 3096 
Q 3566 2609 3566 1747 
Q 3566 888 3137 398 
Q 2709 -91 1959 -91 
Q 1206 -91 779 398 
Q 353 888 353 1747 
Q 353 2609 779 3096 
Q 1206 3584 1959 3584 
z
" transform="scale(0.015625)"/>
      <path id="DejaVuSans-3a" d="M 750 794 
L 1409 794 
L 1409 0 
L 750 0 
L 750 794 
z
M 750 3309 
L 1409 3309 
L 1409 2516 
L 750 2516 
L 750 3309 
z
" transform="scale(0.015625)"/>
      <path id="DejaVuSans-20" transform="scale(0.015625)"/>
      <path id="DejaVuSans-61" d="M 2194 1759 
Q 1497 1759 1228 1600 
Q 959 1441 959 1056 
Q 959 750 1161 570 
Q 1363 391 1709 391 
Q 2188 391 2477 730 
Q 2766 1069 2766 1631 
L 2766 1759 
L 2194 1759 
z
M 3341 1997 
L 3341 0 
L 2766 0 
L 2766 531 
Q 2569 213 2275 61 
Q 1981 -91 1556 -91 
Q 1019 -91 701 211 
Q 384 513 384 1019 
Q 384 1609 779 1909 
Q 1175 2209 1959 2209 
L 2766 2209 
L 2766 2266 
Q 2766 2663 2505 2880 
Q 2244 3097 1772 3097 
Q 1472 3097 1187 3025 
Q 903 2953 641 2809 
L 641 3341 
Q 956 3463 1253 3523 
Q 1550 3584 1831 3584 
Q 2591 3584 2966 3190 
Q 3341 2797 3341 1997 
z
" transform="scale(0.015625)"/>
      <path id="DejaVuSans-6c" d="M 603 4863 
L 1178 4863 
L 1178 0 
L 603 0 
L 603 4863 
z
" transform="scale(0.015625)"/>
      <path id="DejaVuSans-76" d="M 191 3500 
L 800 3500 
L 1894 563 
L 2988 3500 
L 3597 3500 
L 2284 0 
L 1503 0 
L 191 3500 
z
" transform="scale(0.015625)"/>
      <path id="DejaVuSans-50" d="M 1259 4147 
L 1259 2394 
L 2053 2394 
Q 2494 2394 2734 2622 
Q 2975 2850 2975 3272 
Q 2975 3691 2734 3919 
Q 2494 4147 2053 4147 
L 1259 4147 
z
M 628 4666 
L 2053 4666 
Q 2838 4666 3239 4311 
Q 3641 3956 3641 3272 
Q 3641 2581 3239 2228 
Q 2838 1875 2053 1875 
L 1259 1875 
L 1259 0 
L 628 0 
L 628 4666 
z
" transform="scale(0.015625)"/>
      <path id="DejaVuSans-69" d="M 603 3500 
L 1178 3500 
L 1178 0 
L 603 0 
L 603 3500 
z
M 603 4863 
L 1178 4863 
L 1178 4134 
L 603 4134 
L 603 4863 
z
" transform="scale(0.015625)"/>
      <path id="DejaVuSans-74" d="M 1172 4494 
L 1172 3500 
L 2356 3500 
L 2356 3053 
L 1172 3053 
L 1172 1153 
Q 1172 725 1289 603 
Q 1406 481 1766 481 
L 2356 481 
L 2356 0 
L 1766 0 
Q 1100 0 847 248 
Q 594 497 594 1153 
L 594 3053 
L 172 3053 
L 172 3500 
L 594 3500 
L 594 4494 
L 1172 4494 
z
" transform="scale(0.015625)"/>
     </defs>
     <use xlink:href="#DejaVuSans-52"/>
     <use xlink:href="#DejaVuSans-65" x="64.982422"/>
     <use xlink:href="#DejaVuSans-67" x="126.505859"/>
     <use xlink:href="#DejaVuSans-72" x="189.982422"/>
     <use xlink:href="#DejaVuSans-65" x="228.845703"/>
     <use xlink:href="#DejaVuSans-73" x="290.369141"/>
     <use xlink:href="#DejaVuSans-73" x="342.46875"/>
     <use xlink:href="#DejaVuSans-e3" x="394.568359"/>
     <use xlink:href="#DejaVuSans-6f" x="455.847656"/>
     <use xlink:href="#DejaVuSans-3a" x="517.029297"/>
     <use xlink:href="#DejaVuSans-20" x="550.720703"/>
     <use xlink:href="#DejaVuSans-52" x="582.507812"/>
     <use xlink:href="#DejaVuSans-65" x="647.490234"/>
     <use xlink:href="#DejaVuSans-61" x="709.013672"/>
     <use xlink:href="#DejaVuSans-6c" x="770.292969"/>
     <use xlink:href="#DejaVuSans-20" x="798.076172"/>
     <use xlink:href="#DejaVuSans-76" x="829.863281"/>
     <use xlink:href="#DejaVuSans-73" x="889.042969"/>
     <use xlink:href="#DejaVuSans-20" x="941.142578"/>
     <use xlink:href="#DejaVuSans-50" x="972.929688"/>
     <use xlink:href="#DejaVuSans-72" x="1031.482422"/>
     <use xlink:href="#DejaVuSans-65" x="1070.345703"/>
     <use xlink:href="#DejaVuSans-76" x="1131.869141"/>
     <use xlink:href="#DejaVuSans-69" x="1191.048828"/>
     <use xlink:href="#DejaVuSans-73" x="1218.832031"/>
     <use xlink:href="#DejaVuSans-74" x="1270.931641"/>
     <use xlink:href="#DejaVuSans-6f" x="1310.140625"/>
    </g>
   </g>
   <g id="legend_1">
    <g id="patch_7">
     <path d="M 672.315625 89.19625 
L 770.6 89.19625 
Q 772.6 89.19625 772.6 87.19625 
L 772.6 58.84 
Q 772.6 56.84 770.6 56.84 
L 672.315625 56.84 
Q 670.315625 56.84 670.315625 58.84 
L 670.315625 87.19625 
Q 670.315625 89.19625 672.315625 89.19625 
z
" style="fill: #ffffff; opacity: 0.8; stroke: #cccccc; stroke-linejoin: miter"/>
    </g>
    <g id="line2d_17">
     <path d="M 674.315625 64.938437 
L 684.315625 64.938437 
L 694.315625 64.938437 
" style="fill: none; stroke: #1f77b4; stroke-width: 1.5; stroke-linecap: square"/>
    </g>
    <g id="text_16">
     <!-- Valores Reais -->
     <g transform="translate(702.315625 68.438437) scale(0.1 -0.1)">
      <defs>
       <path id="DejaVuSans-56" d="M 1831 0 
L 50 4666 
L 709 4666 
L 2188 738 
L 3669 4666 
L 4325 4666 
L 2547 0 
L 1831 0 
z
" transform="scale(0.015625)"/>
      </defs>
      <use xlink:href="#DejaVuSans-56"/>
      <use xlink:href="#DejaVuSans-61" x="60.658203"/>
      <use xlink:href="#DejaVuSans-6c" x="121.9375"/>
      <use xlink:href="#DejaVuSans-6f" x="149.720703"/>
      <use xlink:href="#DejaVuSans-72" x="210.902344"/>
      <use xlink:href="#DejaVuSans-65" x="249.765625"/>
      <use xlink:href="#DejaVuSans-73" x="311.289062"/>
      <use xlink:href="#DejaVuSans-20" x="363.388672"/>
      <use xlink:href="#DejaVuSans-52" x="395.175781"/>
      <use xlink:href="#DejaVuSans-65" x="460.158203"/>
      <use xlink:href="#DejaVuSans-61" x="521.681641"/>
      <use xlink:href="#DejaVuSans-69" x="582.960938"/>
      <use xlink:href="#DejaVuSans-73" x="610.744141"/>
     </g>
    </g>
    <g id="line2d_18">
     <path d="M 674.315625 79.616562 
L 684.315625 79.616562 
L 694.315625 79.616562 
" style="fill: none; stroke: #ff7f0e; stroke-width: 1.5; stroke-linecap: square"/>
    </g>
    <g id="text_17">
     <!-- Previses -->
     <g transform="translate(702.315625 83.116562) scale(0.1 -0.1)">
      <defs>
       <path id="DejaVuSans-f5" d="M 1959 3097 
Q 1497 3097 1228 2736 
Q 959 2375 959 1747 
Q 959 1119 1226 758 
Q 1494 397 1959 397 
Q 2419 397 2687 759 
Q 2956 1122 2956 1747 
Q 2956 2369 2687 2733 
Q 2419 3097 1959 3097 
z
M 1959 3584 
Q 2709 3584 3137 3096 
Q 3566 2609 3566 1747 
Q 3566 888 3137 398 
Q 2709 -91 1959 -91 
Q 1206 -91 779 398 
Q 353 888 353 1747 
Q 353 2609 779 3096 
Q 1206 3584 1959 3584 
z
M 1948 4281 
L 1769 4453 
Q 1701 4516 1649 4545 
Q 1598 4575 1557 4575 
Q 1438 4575 1382 4461 
Q 1326 4347 1319 4091 
L 929 4091 
Q 935 4513 1094 4742 
Q 1254 4972 1538 4972 
Q 1657 4972 1757 4928 
Q 1857 4884 1973 4781 
L 2151 4609 
Q 2219 4547 2271 4517 
Q 2323 4488 2363 4488 
Q 2482 4488 2538 4602 
Q 2594 4716 2601 4972 
L 2991 4972 
Q 2985 4550 2825 4320 
Q 2666 4091 2382 4091 
Q 2263 4091 2163 4134 
Q 2063 4178 1948 4281 
z
" transform="scale(0.015625)"/>
      </defs>
      <use xlink:href="#DejaVuSans-50"/>
      <use xlink:href="#DejaVuSans-72" x="58.552734"/>
      <use xlink:href="#DejaVuSans-65" x="97.416016"/>
      <use xlink:href="#DejaVuSans-76" x="158.939453"/>
      <use xlink:href="#DejaVuSans-69" x="218.119141"/>
      <use xlink:href="#DejaVuSans-73" x="245.902344"/>
      <use xlink:href="#DejaVuSans-f5" x="298.001953"/>
      <use xlink:href="#DejaVuSans-65" x="359.183594"/>
      <use xlink:href="#DejaVuSans-73" x="420.707031"/>
     </g>
    </g>
   </g>
  </g>
 </g>
 <defs>
  <clipPath id="p6a3c1768c3">
   <rect x="108" y="51.84" width="669.6" height="332.64"/>
  </clipPath>
 </defs>
</svg>
