<?xml version="1.0" encoding="utf-8" standalone="no"?>
<!DOCTYPE svg PUBLIC "-//W3C//DTD SVG 1.1//EN"
  "http://www.w3.org/Graphics/SVG/1.1/DTD/svg11.dtd">
<svg xmlns:xlink="http://www.w3.org/1999/xlink" width="864pt" height="432pt" viewBox="0 0 864 432" xmlns="http://www.w3.org/2000/svg" version="1.1">
 <metadata>
  <rdf:RDF xmlns:dc="http://purl.org/dc/elements/1.1/" xmlns:cc="http://creativecommons.org/ns#" xmlns:rdf="http://www.w3.org/1999/02/22-rdf-syntax-ns#">
   <cc:Work>
    <dc:type rdf:resource="http://purl.org/dc/dcmitype/StillImage"/>
    <dc:date>2024-12-06T19:29:51.169416</dc:date>
    <dc:format>image/svg+xml</dc:format>
    <dc:creator>
     <cc:Agent>
      <dc:title>Matplotlib v3.9.2, https://matplotlib.org/</dc:title>
     </cc:Agent>
    </dc:creator>
   </cc:Work>
  </rdf:RDF>
 </metadata>
 <defs>
  <style type="text/css">*{stroke-linejoin: round; stroke-linecap: butt}</style>
 </defs>
 <g id="figure_1">
  <g id="patch_1">
   <path d="M 0 432 
L 864 432 
L 864 0 
L 0 0 
z
" style="fill: #ffffff"/>
  </g>
  <g id="axes_1">
   <g id="patch_2">
    <path d="M 108 384.48 
L 777.6 384.48 
L 777.6 51.84 
L 108 51.84 
z
" style="fill: #ffffff"/>
   </g>
   <g id="matplotlib.axis_1">
    <g id="xtick_1">
     <g id="line2d_1">
      <defs>
       <path id="m0b4e0586c6" d="M 0 0 
L 0 3.5 
" style="stroke: #000000; stroke-width: 0.8"/>
      </defs>
      <g>
       <use xlink:href="#m0b4e0586c6" x="138.436364" y="384.48" style="stroke: #000000; stroke-width: 0.8"/>
      </g>
     </g>
     <g id="text_1">
      <!-- 0 -->
      <g transform="translate(135.255114 399.078438) scale(0.1 -0.1)">
       <defs>
        <path id="DejaVuSans-30" d="M 2034 4250 
Q 1547 4250 1301 3770 
Q 1056 3291 1056 2328 
Q 1056 1369 1301 889 
Q 1547 409 2034 409 
Q 2525 409 2770 889 
Q 3016 1369 3016 2328 
Q 3016 3291 2770 3770 
Q 2525 4250 2034 4250 
z
M 2034 4750 
Q 2819 4750 3233 4129 
Q 3647 3509 3647 2328 
Q 3647 1150 3233 529 
Q 2819 -91 2034 -91 
Q 1250 -91 836 529 
Q 422 1150 422 2328 
Q 422 3509 836 4129 
Q 1250 4750 2034 4750 
z
" transform="scale(0.015625)"/>
       </defs>
       <use xlink:href="#DejaVuSans-30"/>
      </g>
     </g>
    </g>
    <g id="xtick_2">
     <g id="line2d_2">
      <g>
       <use xlink:href="#m0b4e0586c6" x="231.513928" y="384.48" style="stroke: #000000; stroke-width: 0.8"/>
      </g>
     </g>
     <g id="text_2">
      <!-- 200 -->
      <g transform="translate(221.970178 399.078438) scale(0.1 -0.1)">
       <defs>
        <path id="DejaVuSans-32" d="M 1228 531 
L 3431 531 
L 3431 0 
L 469 0 
L 469 531 
Q 828 903 1448 1529 
Q 2069 2156 2228 2338 
Q 2531 2678 2651 2914 
Q 2772 3150 2772 3378 
Q 2772 3750 2511 3984 
Q 2250 4219 1831 4219 
Q 1534 4219 1204 4116 
Q 875 4013 500 3803 
L 500 4441 
Q 881 4594 1212 4672 
Q 1544 4750 1819 4750 
Q 2544 4750 2975 4387 
Q 3406 4025 3406 3419 
Q 3406 3131 3298 2873 
Q 3191 2616 2906 2266 
Q 2828 2175 2409 1742 
Q 1991 1309 1228 531 
z
" transform="scale(0.015625)"/>
       </defs>
       <use xlink:href="#DejaVuSans-32"/>
       <use xlink:href="#DejaVuSans-30" x="63.623047"/>
       <use xlink:href="#DejaVuSans-30" x="127.246094"/>
      </g>
     </g>
    </g>
    <g id="xtick_3">
     <g id="line2d_3">
      <g>
       <use xlink:href="#m0b4e0586c6" x="324.591493" y="384.48" style="stroke: #000000; stroke-width: 0.8"/>
      </g>
     </g>
     <g id="text_3">
      <!-- 400 -->
      <g transform="translate(315.047743 399.078438) scale(0.1 -0.1)">
       <defs>
        <path id="DejaVuSans-34" d="M 2419 4116 
L 825 1625 
L 2419 1625 
L 2419 4116 
z
M 2253 4666 
L 3047 4666 
L 3047 1625 
L 3713 1625 
L 3713 1100 
L 3047 1100 
L 3047 0 
L 2419 0 
L 2419 1100 
L 313 1100 
L 313 1709 
L 2253 4666 
z
" transform="scale(0.015625)"/>
       </defs>
       <use xlink:href="#DejaVuSans-34"/>
       <use xlink:href="#DejaVuSans-30" x="63.623047"/>
       <use xlink:href="#DejaVuSans-30" x="127.246094"/>
      </g>
     </g>
    </g>
    <g id="xtick_4">
     <g id="line2d_4">
      <g>
       <use xlink:href="#m0b4e0586c6" x="417.669058" y="384.48" style="stroke: #000000; stroke-width: 0.8"/>
      </g>
     </g>
     <g id="text_4">
      <!-- 600 -->
      <g transform="translate(408.125308 399.078438) scale(0.1 -0.1)">
       <defs>
        <path id="DejaVuSans-36" d="M 2113 2584 
Q 1688 2584 1439 2293 
Q 1191 2003 1191 1497 
Q 1191 994 1439 701 
Q 1688 409 2113 409 
Q 2538 409 2786 701 
Q 3034 994 3034 1497 
Q 3034 2003 2786 2293 
Q 2538 2584 2113 2584 
z
M 3366 4563 
L 3366 3988 
Q 3128 4100 2886 4159 
Q 2644 4219 2406 4219 
Q 1781 4219 1451 3797 
Q 1122 3375 1075 2522 
Q 1259 2794 1537 2939 
Q 1816 3084 2150 3084 
Q 2853 3084 3261 2657 
Q 3669 2231 3669 1497 
Q 3669 778 3244 343 
Q 2819 -91 2113 -91 
Q 1303 -91 875 529 
Q 447 1150 447 2328 
Q 447 3434 972 4092 
Q 1497 4750 2381 4750 
Q 2619 4750 2861 4703 
Q 3103 4656 3366 4563 
z
" transform="scale(0.015625)"/>
       </defs>
       <use xlink:href="#DejaVuSans-36"/>
       <use xlink:href="#DejaVuSans-30" x="63.623047"/>
       <use xlink:href="#DejaVuSans-30" x="127.246094"/>
      </g>
     </g>
    </g>
    <g id="xtick_5">
     <g id="line2d_5">
      <g>
       <use xlink:href="#m0b4e0586c6" x="510.746622" y="384.48" style="stroke: #000000; stroke-width: 0.8"/>
      </g>
     </g>
     <g id="text_5">
      <!-- 800 -->
      <g transform="translate(501.202872 399.078438) scale(0.1 -0.1)">
       <defs>
        <path id="DejaVuSans-38" d="M 2034 2216 
Q 1584 2216 1326 1975 
Q 1069 1734 1069 1313 
Q 1069 891 1326 650 
Q 1584 409 2034 409 
Q 2484 409 2743 651 
Q 3003 894 3003 1313 
Q 3003 1734 2745 1975 
Q 2488 2216 2034 2216 
z
M 1403 2484 
Q 997 2584 770 2862 
Q 544 3141 544 3541 
Q 544 4100 942 4425 
Q 1341 4750 2034 4750 
Q 2731 4750 3128 4425 
Q 3525 4100 3525 3541 
Q 3525 3141 3298 2862 
Q 3072 2584 2669 2484 
Q 3125 2378 3379 2068 
Q 3634 1759 3634 1313 
Q 3634 634 3220 271 
Q 2806 -91 2034 -91 
Q 1263 -91 848 271 
Q 434 634 434 1313 
Q 434 1759 690 2068 
Q 947 2378 1403 2484 
z
M 1172 3481 
Q 1172 3119 1398 2916 
Q 1625 2713 2034 2713 
Q 2441 2713 2670 2916 
Q 2900 3119 2900 3481 
Q 2900 3844 2670 4047 
Q 2441 4250 2034 4250 
Q 1625 4250 1398 4047 
Q 1172 3844 1172 3481 
z
" transform="scale(0.015625)"/>
       </defs>
       <use xlink:href="#DejaVuSans-38"/>
       <use xlink:href="#DejaVuSans-30" x="63.623047"/>
       <use xlink:href="#DejaVuSans-30" x="127.246094"/>
      </g>
     </g>
    </g>
    <g id="xtick_6">
     <g id="line2d_6">
      <g>
       <use xlink:href="#m0b4e0586c6" x="603.824187" y="384.48" style="stroke: #000000; stroke-width: 0.8"/>
      </g>
     </g>
     <g id="text_6">
      <!-- 1000 -->
      <g transform="translate(591.099187 399.078438) scale(0.1 -0.1)">
       <defs>
        <path id="DejaVuSans-31" d="M 794 531 
L 1825 531 
L 1825 4091 
L 703 3866 
L 703 4441 
L 1819 4666 
L 2450 4666 
L 2450 531 
L 3481 531 
L 3481 0 
L 794 0 
L 794 531 
z
" transform="scale(0.015625)"/>
       </defs>
       <use xlink:href="#DejaVuSans-31"/>
       <use xlink:href="#DejaVuSans-30" x="63.623047"/>
       <use xlink:href="#DejaVuSans-30" x="127.246094"/>
       <use xlink:href="#DejaVuSans-30" x="190.869141"/>
      </g>
     </g>
    </g>
    <g id="xtick_7">
     <g id="line2d_7">
      <g>
       <use xlink:href="#m0b4e0586c6" x="696.901751" y="384.48" style="stroke: #000000; stroke-width: 0.8"/>
      </g>
     </g>
     <g id="text_7">
      <!-- 1200 -->
      <g transform="translate(684.176751 399.078438) scale(0.1 -0.1)">
       <use xlink:href="#DejaVuSans-31"/>
       <use xlink:href="#DejaVuSans-32" x="63.623047"/>
       <use xlink:href="#DejaVuSans-30" x="127.246094"/>
       <use xlink:href="#DejaVuSans-30" x="190.869141"/>
      </g>
     </g>
    </g>
   </g>
   <g id="matplotlib.axis_2">
    <g id="ytick_1">
     <g id="line2d_8">
      <defs>
       <path id="m9d9a9c8ca4" d="M 0 0 
L -3.5 0 
" style="stroke: #000000; stroke-width: 0.8"/>
      </defs>
      <g>
       <use xlink:href="#m9d9a9c8ca4" x="108" y="374.085" style="stroke: #000000; stroke-width: 0.8"/>
      </g>
     </g>
     <g id="text_8">
      <!-- 0 -->
      <g transform="translate(94.6375 377.884219) scale(0.1 -0.1)">
       <use xlink:href="#DejaVuSans-30"/>
      </g>
     </g>
    </g>
    <g id="ytick_2">
     <g id="line2d_9">
      <g>
       <use xlink:href="#m9d9a9c8ca4" x="108" y="322.000748" style="stroke: #000000; stroke-width: 0.8"/>
      </g>
     </g>
     <g id="text_9">
      <!-- 50 -->
      <g transform="translate(88.275 325.799967) scale(0.1 -0.1)">
       <defs>
        <path id="DejaVuSans-35" d="M 691 4666 
L 3169 4666 
L 3169 4134 
L 1269 4134 
L 1269 2991 
Q 1406 3038 1543 3061 
Q 1681 3084 1819 3084 
Q 2600 3084 3056 2656 
Q 3513 2228 3513 1497 
Q 3513 744 3044 326 
Q 2575 -91 1722 -91 
Q 1428 -91 1123 -41 
Q 819 9 494 109 
L 494 744 
Q 775 591 1075 516 
Q 1375 441 1709 441 
Q 2250 441 2565 725 
Q 2881 1009 2881 1497 
Q 2881 1984 2565 2268 
Q 2250 2553 1709 2553 
Q 1456 2553 1204 2497 
Q 953 2441 691 2322 
L 691 4666 
z
" transform="scale(0.015625)"/>
       </defs>
       <use xlink:href="#DejaVuSans-35"/>
       <use xlink:href="#DejaVuSans-30" x="63.623047"/>
      </g>
     </g>
    </g>
    <g id="ytick_3">
     <g id="line2d_10">
      <g>
       <use xlink:href="#m9d9a9c8ca4" x="108" y="269.916496" style="stroke: #000000; stroke-width: 0.8"/>
      </g>
     </g>
     <g id="text_10">
      <!-- 100 -->
      <g transform="translate(81.9125 273.715715) scale(0.1 -0.1)">
       <use xlink:href="#DejaVuSans-31"/>
       <use xlink:href="#DejaVuSans-30" x="63.623047"/>
       <use xlink:href="#DejaVuSans-30" x="127.246094"/>
      </g>
     </g>
    </g>
    <g id="ytick_4">
     <g id="line2d_11">
      <g>
       <use xlink:href="#m9d9a9c8ca4" x="108" y="217.832244" style="stroke: #000000; stroke-width: 0.8"/>
      </g>
     </g>
     <g id="text_11">
      <!-- 150 -->
      <g transform="translate(81.9125 221.631463) scale(0.1 -0.1)">
       <use xlink:href="#DejaVuSans-31"/>
       <use xlink:href="#DejaVuSans-35" x="63.623047"/>
       <use xlink:href="#DejaVuSans-30" x="127.246094"/>
      </g>
     </g>
    </g>
    <g id="ytick_5">
     <g id="line2d_12">
      <g>
       <use xlink:href="#m9d9a9c8ca4" x="108" y="165.747992" style="stroke: #000000; stroke-width: 0.8"/>
      </g>
     </g>
     <g id="text_12">
      <!-- 200 -->
      <g transform="translate(81.9125 169.547211) scale(0.1 -0.1)">
       <use xlink:href="#DejaVuSans-32"/>
       <use xlink:href="#DejaVuSans-30" x="63.623047"/>
       <use xlink:href="#DejaVuSans-30" x="127.246094"/>
      </g>
     </g>
    </g>
    <g id="ytick_6">
     <g id="line2d_13">
      <g>
       <use xlink:href="#m9d9a9c8ca4" x="108" y="113.66374" style="stroke: #000000; stroke-width: 0.8"/>
      </g>
     </g>
     <g id="text_13">
      <!-- 250 -->
      <g transform="translate(81.9125 117.462959) scale(0.1 -0.1)">
       <use xlink:href="#DejaVuSans-32"/>
       <use xlink:href="#DejaVuSans-35" x="63.623047"/>
       <use xlink:href="#DejaVuSans-30" x="127.246094"/>
      </g>
     </g>
    </g>
    <g id="ytick_7">
     <g id="line2d_14">
      <g>
       <use xlink:href="#m9d9a9c8ca4" x="108" y="61.579488" style="stroke: #000000; stroke-width: 0.8"/>
      </g>
     </g>
     <g id="text_14">
      <!-- 300 -->
      <g transform="translate(81.9125 65.378707) scale(0.1 -0.1)">
       <defs>
        <path id="DejaVuSans-33" d="M 2597 2516 
Q 3050 2419 3304 2112 
Q 3559 1806 3559 1356 
Q 3559 666 3084 287 
Q 2609 -91 1734 -91 
Q 1441 -91 1130 -33 
Q 819 25 488 141 
L 488 750 
Q 750 597 1062 519 
Q 1375 441 1716 441 
Q 2309 441 2620 675 
Q 2931 909 2931 1356 
Q 2931 1769 2642 2001 
Q 2353 2234 1838 2234 
L 1294 2234 
L 1294 2753 
L 1863 2753 
Q 2328 2753 2575 2939 
Q 2822 3125 2822 3475 
Q 2822 3834 2567 4026 
Q 2313 4219 1838 4219 
Q 1578 4219 1281 4162 
Q 984 4106 628 3988 
L 628 4550 
Q 988 4650 1302 4700 
Q 1616 4750 1894 4750 
Q 2613 4750 3031 4423 
Q 3450 4097 3450 3541 
Q 3450 3153 3228 2886 
Q 3006 2619 2597 2516 
z
" transform="scale(0.015625)"/>
       </defs>
       <use xlink:href="#DejaVuSans-33"/>
       <use xlink:href="#DejaVuSans-30" x="63.623047"/>
       <use xlink:href="#DejaVuSans-30" x="127.246094"/>
      </g>
     </g>
    </g>
   </g>
   <g id="line2d_15">
    <path d="M 138.436364 350.46 
L 138.901751 345.735 
L 139.367139 251.235 
L 139.832527 355.185 
L 140.297915 211.0725 
L 140.763303 267.7725 
L 141.228691 289.035 
L 141.694078 279.585 
L 142.159466 352.8225 
L 142.624854 76.41 
L 143.090242 201.6225 
L 143.55563 239.4225 
L 144.021018 267.7725 
L 144.486405 246.51 
L 144.951793 253.5975 
L 145.417181 225.2475 
L 145.882569 267.7725 
L 146.347957 265.41 
L 146.813344 319.7475 
L 147.278732 201.6225 
L 147.74412 341.01 
L 148.209508 267.7725 
L 149.140284 267.7725 
L 149.605671 244.1475 
L 150.071059 244.1475 
L 150.536447 341.01 
L 151.001835 213.435 
L 151.467223 218.16 
L 151.932611 208.71 
L 152.397998 85.86 
L 152.863386 281.9475 
L 153.328774 267.7725 
L 153.794162 199.26 
L 154.25955 258.3225 
L 154.724937 199.26 
L 155.190325 244.1475 
L 155.655713 208.71 
L 156.121101 331.56 
L 156.586489 225.2475 
L 157.051877 199.26 
L 157.517264 201.6225 
L 157.982652 263.0475 
L 158.44804 100.035 
L 158.913428 338.6475 
L 159.378816 350.46 
L 159.844204 187.4475 
L 160.309591 213.435 
L 160.774979 319.7475 
L 161.240367 161.46 
L 161.705755 346.91625 
L 162.171143 350.46 
L 162.63653 118.935 
L 163.101918 267.7725 
L 163.567306 244.1475 
L 164.032694 253.5975 
L 164.498082 201.6225 
L 165.428857 319.7475 
L 165.894245 201.6225 
L 166.359633 279.585 
L 166.825021 267.7725 
L 167.290409 345.735 
L 167.755796 208.71 
L 168.221184 187.4475 
L 168.686572 274.86 
L 169.15196 270.135 
L 169.617348 284.31 
L 170.082736 85.86 
L 170.548123 355.185 
L 171.013511 258.3225 
L 171.478899 201.6225 
L 172.409675 267.7725 
L 172.875063 267.7725 
L 173.34045 244.1475 
L 173.805838 317.385 
L 174.271226 244.1475 
L 174.736614 336.285 
L 175.202002 310.2975 
L 175.667389 192.1725 
L 176.132777 201.6225 
L 177.063553 293.76 
L 177.528941 263.0475 
L 177.994329 246.51 
L 178.459716 267.7725 
L 178.925104 355.185 
L 179.390492 350.46 
L 179.85588 258.3225 
L 180.321268 313.84125 
L 180.786656 350.46 
L 181.252043 118.935 
L 181.717431 341.01 
L 182.182819 336.285 
L 182.648207 258.3225 
L 183.113595 263.0475 
L 183.578982 95.31 
L 184.04437 270.135 
L 184.975146 237.06 
L 185.440534 246.51 
L 185.905922 246.51 
L 186.371309 307.935 
L 186.836697 244.1475 
L 187.302085 201.6225 
L 187.767473 267.7725 
L 188.232861 213.435 
L 188.698249 201.6225 
L 189.163636 312.66 
L 189.629024 338.6475 
L 190.094412 326.835 
L 190.5598 218.16 
L 191.490575 310.2975 
L 191.955963 234.6975 
L 192.421351 222.885 
L 192.886739 329.1975 
L 193.352127 265.41 
L 193.817515 161.46 
L 194.282902 201.6225 
L 194.74829 222.885 
L 195.213678 362.2725 
L 195.679066 241.785 
L 196.144454 336.285 
L 196.609842 227.61 
L 197.075229 362.2725 
L 197.540617 213.435 
L 198.006005 192.1725 
L 198.471393 225.2475 
L 199.402168 312.66 
L 199.867556 225.2475 
L 200.332944 225.2475 
L 200.798332 267.7725 
L 201.26372 244.1475 
L 201.729108 366.9975 
L 202.194495 341.01 
L 202.659883 350.46 
L 203.125271 322.11 
L 203.590659 246.51 
L 204.056047 90.585 
L 204.521435 263.0475 
L 204.986822 350.46 
L 205.917598 359.91 
L 206.382986 348.0975 
L 206.848374 237.06 
L 207.313761 239.4225 
L 207.779149 263.0475 
L 208.244537 232.335 
L 208.709925 289.035 
L 209.175313 248.8725 
L 209.640701 324.4725 
L 210.106088 244.1475 
L 210.571476 251.235 
L 211.036864 270.135 
L 211.502252 350.46 
L 211.96764 244.1475 
L 212.433028 192.1725 
L 212.898415 244.1475 
L 213.363803 350.46 
L 213.829191 267.7725 
L 214.294579 244.1475 
L 214.759967 246.51 
L 215.225354 350.46 
L 215.690742 201.6225 
L 216.15613 199.26 
L 217.086906 308.88 
L 217.552294 312.66 
L 218.017681 225.2475 
L 218.483069 312.66 
L 218.948457 312.66 
L 219.413845 289.035 
L 219.879233 336.285 
L 220.344621 366.9975 
L 220.810008 336.285 
L 221.275396 215.7975 
L 221.740784 312.66 
L 222.206172 307.935 
L 222.67156 293.76 
L 223.136947 265.41 
L 223.602335 267.7725 
L 224.067723 255.96 
L 224.533111 286.6725 
L 224.998499 213.435 
L 225.463887 341.01 
L 225.929274 244.1475 
L 226.394662 293.76 
L 226.86005 225.2475 
L 227.325438 85.86 
L 227.790826 286.6725 
L 228.256214 225.2475 
L 228.721601 357.5475 
L 229.186989 317.385 
L 229.652377 359.91 
L 230.117765 350.46 
L 230.583153 225.2475 
L 231.04854 244.1475 
L 231.513928 255.96 
L 231.979316 341.01 
L 232.444704 187.4475 
L 232.910092 345.2625 
L 233.37548 95.31 
L 233.840867 267.7725 
L 234.306255 225.2475 
L 234.771643 222.885 
L 235.237031 244.1475 
L 235.702419 293.76 
L 236.167807 211.0725 
L 236.633194 241.785 
L 237.098582 319.7475 
L 237.56397 336.285 
L 238.494746 109.485 
L 238.960133 358.72875 
L 239.425521 279.585 
L 239.890909 244.1475 
L 240.356297 260.685 
L 240.821685 225.2475 
L 241.287073 258.3225 
L 241.75246 66.96 
L 242.217848 315.0225 
L 242.683236 263.0475 
L 243.148624 66.96 
L 243.614012 267.7725 
L 244.079399 341.01 
L 244.544787 244.1475 
L 245.010175 260.685 
L 245.475563 333.9225 
L 245.940951 244.1475 
L 246.406339 263.0475 
L 246.871726 362.2725 
L 247.337114 248.8725 
L 247.802502 239.4225 
L 248.26789 253.5975 
L 248.733278 260.685 
L 249.198666 196.8975 
L 249.664053 260.685 
L 250.129441 206.3475 
L 250.594829 307.935 
L 251.060217 267.7725 
L 251.525605 312.66 
L 251.990992 244.1475 
L 252.45638 220.5225 
L 252.921768 364.635 
L 253.387156 312.66 
L 253.852544 362.2725 
L 254.317932 95.31 
L 254.783319 267.7725 
L 255.248707 333.9225 
L 255.714095 239.4225 
L 256.179483 307.935 
L 256.644871 350.46 
L 257.110259 310.2975 
L 257.575646 229.9725 
L 258.041034 345.735 
L 258.506422 118.935 
L 258.97181 244.1475 
L 259.437198 244.1475 
L 259.902585 258.3225 
L 260.367973 196.8975 
L 260.833361 307.935 
L 261.298749 211.0725 
L 261.764137 286.6725 
L 262.229525 258.3225 
L 262.694912 206.3475 
L 263.1603 286.6725 
L 263.625688 258.3225 
L 264.091076 244.1475 
L 265.021852 336.285 
L 265.487239 317.385 
L 266.418015 248.8725 
L 266.883403 341.01 
L 267.348791 244.1475 
L 267.814178 211.0725 
L 268.279566 342.19125 
L 268.744954 350.46 
L 269.210342 329.1975 
L 270.141118 229.9725 
L 270.606505 324.4725 
L 271.071893 350.46 
L 271.537281 244.1475 
L 272.002669 281.9475 
L 272.933445 225.2475 
L 273.398832 244.1475 
L 273.86422 211.0725 
L 274.329608 225.2475 
L 274.794996 362.2725 
L 275.260384 258.3225 
L 275.725771 95.31 
L 276.191159 244.1475 
L 276.656547 161.46 
L 277.121935 244.1475 
L 277.587323 137.835 
L 278.052711 336.285 
L 278.518098 345.735 
L 278.983486 196.8975 
L 279.448874 201.6225 
L 279.914262 267.7725 
L 280.37965 234.6975 
L 280.845038 248.8725 
L 281.310425 220.5225 
L 281.775813 234.6975 
L 282.241201 95.31 
L 282.706589 345.735 
L 283.171977 333.9225 
L 283.637364 355.185 
L 284.102752 338.6475 
L 284.56814 213.435 
L 285.033528 270.135 
L 285.498916 118.935 
L 285.964304 338.6475 
L 286.429691 260.685 
L 286.895079 253.5975 
L 287.825855 357.5475 
L 288.291243 137.835 
L 288.756631 263.0475 
L 289.222018 244.1475 
L 289.687406 260.685 
L 290.152794 246.51 
L 290.618182 326.835 
L 291.08357 255.96 
L 291.548957 331.56 
L 292.014345 260.685 
L 292.479733 76.41 
L 292.945121 211.0725 
L 293.410509 310.2975 
L 293.875897 267.7725 
L 294.341284 253.5975 
L 294.806672 331.56 
L 295.737448 194.535 
L 296.202836 265.41 
L 296.668224 312.66 
L 297.133611 237.06 
L 297.598999 317.385 
L 298.064387 263.0475 
L 298.529775 244.1475 
L 298.995163 258.3225 
L 299.46055 137.835 
L 299.925938 239.4225 
L 300.391326 199.26 
L 300.856714 118.935 
L 301.322102 248.8725 
L 301.78749 317.385 
L 302.252877 258.3225 
L 302.718265 260.685 
L 303.183653 244.1475 
L 303.649041 206.3475 
L 304.114429 312.66 
L 304.579817 270.135 
L 305.045204 350.46 
L 305.510592 357.5475 
L 306.441368 218.16 
L 306.906756 258.3225 
L 307.372143 244.1475 
L 307.837531 333.9225 
L 308.302919 215.7975 
L 308.768307 270.135 
L 309.233695 137.835 
L 309.699083 173.2725 
L 310.16447 350.46 
L 310.629858 343.3725 
L 311.095246 329.1975 
L 311.560634 100.035 
L 312.026022 267.7725 
L 312.49141 244.1475 
L 312.956797 267.7725 
L 313.422185 263.0475 
L 313.887573 208.71 
L 314.352961 355.185 
L 314.818349 267.7725 
L 315.283736 267.7725 
L 315.749124 244.1475 
L 316.214512 265.41 
L 316.6799 244.1475 
L 317.145288 196.8975 
L 317.610676 350.46 
L 318.076063 307.935 
L 318.541451 344.55375 
L 319.006839 267.7725 
L 319.472227 265.41 
L 319.937615 237.06 
L 320.403003 361.09125 
L 320.86839 201.6225 
L 321.799166 333.9225 
L 322.264554 161.46 
L 322.729942 182.7225 
L 323.195329 239.4225 
L 323.660717 310.2975 
L 324.591493 225.2475 
L 325.056881 258.3225 
L 325.522269 234.6975 
L 325.987656 281.9475 
L 326.453044 350.46 
L 326.918432 267.7725 
L 327.38382 291.3975 
L 327.849208 215.7975 
L 328.314595 355.185 
L 328.779983 350.46 
L 329.245371 251.235 
L 329.710759 349.27875 
L 330.176147 161.46 
L 330.641535 237.06 
L 331.106922 356.36625 
L 331.57231 260.685 
L 332.037698 196.8975 
L 332.503086 312.66 
L 332.968474 324.4725 
L 333.433862 341.01 
L 333.899249 76.41 
L 334.364637 312.66 
L 334.830025 187.4475 
L 335.295413 350.46 
L 335.760801 312.66 
L 336.226188 331.56 
L 336.691576 312.66 
L 337.156964 350.46 
L 337.622352 358.72875 
L 338.08774 267.7725 
L 338.553128 208.71 
L 339.018515 194.535 
L 339.483903 234.6975 
L 339.949291 237.06 
L 340.414679 194.535 
L 340.880067 203.985 
L 341.345455 345.735 
L 341.810842 201.6225 
L 342.27623 234.6975 
L 342.741618 215.7975 
L 343.207006 263.0475 
L 343.672394 100.035 
L 344.137781 234.6975 
L 344.603169 319.7475 
L 345.068557 253.5975 
L 345.999333 366.9975 
L 346.464721 293.76 
L 346.930108 315.0225 
L 347.395496 241.785 
L 347.860884 341.01 
L 348.326272 196.8975 
L 348.79166 267.7725 
L 349.257048 284.31 
L 349.722435 317.385 
L 350.187823 284.31 
L 350.653211 364.635 
L 351.118599 114.21 
L 351.583987 232.335 
L 352.049374 267.7725 
L 352.514762 286.6725 
L 352.98015 215.7975 
L 353.445538 350.46 
L 353.910926 310.2975 
L 354.376314 206.3475 
L 354.841701 267.7725 
L 355.307089 206.3475 
L 355.772477 357.5475 
L 356.237865 274.86 
L 356.703253 244.1475 
L 357.168641 317.385 
L 357.634028 244.1475 
L 358.099416 315.0225 
L 358.564804 331.56 
L 359.030192 317.385 
L 359.49558 71.685 
L 359.960967 329.1975 
L 360.426355 315.0225 
L 360.891743 215.7975 
L 361.357131 310.2975 
L 361.822519 352.8225 
L 362.753294 192.1725 
L 363.218682 189.81 
L 363.68407 215.7975 
L 364.149458 213.435 
L 364.614846 303.21 
L 365.080234 251.235 
L 365.545621 255.96 
L 366.011009 345.735 
L 366.476397 342.19125 
L 366.941785 336.285 
L 367.407173 244.1475 
L 367.87256 225.2475 
L 368.337948 177.9975 
L 368.803336 227.61 
L 369.268724 206.3475 
L 369.734112 355.185 
L 370.1995 307.935 
L 370.664887 357.5475 
L 371.130275 218.16 
L 372.061051 307.935 
L 372.526439 331.56 
L 372.991827 218.16 
L 373.457214 307.935 
L 373.922602 336.285 
L 374.38799 274.86 
L 374.853378 244.1475 
L 375.318766 253.5975 
L 375.784153 260.685 
L 376.249541 364.635 
L 376.714929 244.1475 
L 377.180317 286.6725 
L 377.645705 201.6225 
L 378.111093 349.27875 
L 378.57648 192.1725 
L 379.041868 350.46 
L 379.507256 248.8725 
L 379.972644 258.3225 
L 380.438032 331.56 
L 380.90342 201.6225 
L 381.834195 359.91 
L 382.299583 194.535 
L 382.764971 286.6725 
L 383.230359 263.0475 
L 383.695746 161.46 
L 384.161134 312.66 
L 384.626522 208.71 
L 385.09191 279.585 
L 385.557298 331.56 
L 386.022686 348.0975 
L 386.488073 239.4225 
L 386.953461 232.335 
L 387.418849 196.8975 
L 387.884237 255.96 
L 388.349625 267.7725 
L 388.815013 289.035 
L 389.2804 265.41 
L 389.745788 267.7725 
L 390.211176 286.6725 
L 390.676564 326.835 
L 391.141952 350.46 
L 391.607339 293.76 
L 392.072727 218.16 
L 392.538115 248.8725 
L 393.003503 199.26 
L 393.468891 267.7725 
L 393.934279 213.435 
L 394.399666 359.91 
L 394.865054 244.1475 
L 395.330442 345.2625 
L 395.79583 286.6725 
L 396.261218 201.6225 
L 396.726606 213.435 
L 397.191993 213.435 
L 397.657381 267.7725 
L 398.122769 258.3225 
L 398.588157 357.5475 
L 399.053545 286.6725 
L 399.518932 350.46 
L 400.449708 215.7975 
L 400.915096 225.2475 
L 401.380484 315.0225 
L 401.845872 263.0475 
L 402.311259 319.7475 
L 402.776647 201.6225 
L 403.242035 244.1475 
L 403.707423 326.835 
L 404.172811 201.6225 
L 404.638198 279.585 
L 405.103586 248.8725 
L 405.568974 307.935 
L 406.034362 161.46 
L 406.49975 234.6975 
L 407.430525 343.3725 
L 407.895913 336.285 
L 408.361301 279.585 
L 408.826689 312.66 
L 409.292077 362.2725 
L 409.757465 341.01 
L 410.222852 338.6475 
L 410.68824 196.8975 
L 411.153628 192.1725 
L 411.619016 319.7475 
L 412.084404 364.635 
L 412.549791 350.46 
L 413.015179 305.5725 
L 413.480567 350.46 
L 413.945955 239.4225 
L 414.411343 244.1475 
L 414.876731 284.31 
L 415.342118 246.51 
L 415.807506 274.86 
L 416.272894 206.3475 
L 416.738282 267.7725 
L 417.20367 239.4225 
L 417.669058 350.46 
L 418.134445 194.535 
L 418.599833 272.4975 
L 419.065221 201.6225 
L 419.530609 336.285 
L 419.995997 201.6225 
L 420.461384 331.56 
L 420.926772 331.56 
L 421.39216 341.01 
L 421.857548 336.285 
L 422.322936 220.5225 
L 422.788324 211.0725 
L 423.253711 246.51 
L 423.719099 315.0225 
L 424.184487 326.835 
L 424.649875 350.46 
L 425.115263 338.6475 
L 425.580651 263.0475 
L 426.046038 206.3475 
L 426.511426 362.2725 
L 427.442202 255.96 
L 427.90759 258.3225 
L 428.372977 336.285 
L 428.838365 244.1475 
L 429.303753 303.21 
L 429.769141 319.7475 
L 430.234529 267.7725 
L 430.699917 194.535 
L 431.165304 90.585 
L 431.630692 248.8725 
L 432.09608 255.96 
L 432.561468 206.3475 
L 433.026856 309.11625 
L 433.492244 258.3225 
L 433.957631 333.9225 
L 434.423019 279.585 
L 434.888407 258.3225 
L 435.353795 350.46 
L 436.28457 161.46 
L 436.749958 289.035 
L 437.215346 241.785 
L 437.680734 211.0725 
L 438.61151 267.7725 
L 439.076897 284.31 
L 439.542285 234.6975 
L 440.007673 255.96 
L 440.473061 289.035 
L 440.938449 244.1475 
L 441.403837 267.7725 
L 441.869224 270.135 
L 442.334612 307.935 
L 442.8 260.685 
L 443.265388 344.55375 
L 443.730776 95.31 
L 444.196163 244.1475 
L 444.661551 234.6975 
L 445.126939 315.0225 
L 445.592327 196.8975 
L 446.057715 244.1475 
L 446.523103 267.7725 
L 446.98849 229.9725 
L 447.453878 310.2975 
L 447.919266 244.1475 
L 448.384654 255.96 
L 448.850042 194.535 
L 449.780817 344.55375 
L 450.246205 118.935 
L 450.711593 267.7725 
L 451.176981 237.06 
L 451.642369 333.9225 
L 452.107756 317.385 
L 452.573144 274.86 
L 453.038532 206.3475 
L 453.50392 255.96 
L 453.969308 253.5975 
L 454.434696 279.585 
L 454.900083 206.3475 
L 455.365471 359.91 
L 455.830859 215.7975 
L 456.296247 258.3225 
L 456.761635 258.3225 
L 457.227023 213.435 
L 457.69241 211.0725 
L 458.157798 289.035 
L 458.623186 312.66 
L 459.088574 187.4475 
L 459.553962 258.3225 
L 460.019349 267.7725 
L 460.484737 343.3725 
L 460.950125 362.2725 
L 461.415513 350.46 
L 462.811676 350.46 
L 463.277064 118.935 
L 463.742452 307.935 
L 464.20784 225.2475 
L 464.673228 255.96 
L 465.138616 358.72875 
L 465.604003 298.485 
L 466.069391 255.96 
L 466.534779 267.7725 
L 467.000167 258.3225 
L 468.39633 265.41 
L 468.861718 307.935 
L 469.327106 366.9975 
L 469.792494 330.37875 
L 470.257882 355.185 
L 470.723269 341.01 
L 471.188657 350.46 
L 471.654045 199.26 
L 472.584821 263.0475 
L 473.050209 369.36 
L 473.515596 263.0475 
L 473.980984 350.46 
L 474.446372 258.3225 
L 474.91176 244.1475 
L 475.377148 307.935 
L 475.842535 225.2475 
L 476.307923 355.185 
L 476.773311 267.7725 
L 477.238699 239.4225 
L 477.704087 244.1475 
L 478.169475 199.26 
L 478.634862 317.385 
L 479.10025 246.51 
L 479.565638 255.96 
L 480.031026 263.0475 
L 480.496414 341.01 
L 480.961802 312.66 
L 481.427189 350.46 
L 481.892577 338.6475 
L 482.357965 258.3225 
L 482.823353 244.1475 
L 483.288741 258.3225 
L 483.754128 258.3225 
L 484.219516 251.235 
L 484.684904 118.935 
L 485.150292 318.56625 
L 485.61568 76.41 
L 486.081068 267.7725 
L 486.546455 263.0475 
L 487.011843 137.835 
L 487.477231 215.7975 
L 487.942619 316.20375 
L 488.408007 315.0225 
L 488.873394 258.3225 
L 489.338782 244.1475 
L 489.80417 263.0475 
L 490.269558 263.0475 
L 490.734946 279.585 
L 491.200334 246.51 
L 491.665721 192.1725 
L 492.131109 310.2975 
L 492.596497 255.96 
L 493.061885 350.46 
L 493.527273 267.7725 
L 493.992661 244.1475 
L 494.458048 244.1475 
L 494.923436 239.4225 
L 495.388824 267.7725 
L 495.854212 331.56 
L 496.3196 263.0475 
L 496.784987 258.3225 
L 497.250375 319.7475 
L 498.181151 333.9225 
L 498.646539 244.1475 
L 499.111927 211.0725 
L 499.577314 215.7975 
L 500.042702 312.66 
L 500.50809 286.6725 
L 500.973478 229.9725 
L 501.438866 253.5975 
L 501.904254 263.0475 
L 502.369641 267.7725 
L 502.835029 244.1475 
L 503.300417 341.01 
L 503.765805 355.185 
L 504.231193 355.185 
L 504.69658 265.41 
L 505.161968 289.035 
L 505.627356 244.1475 
L 506.092744 355.185 
L 506.558132 326.835 
L 507.02352 258.3225 
L 507.488907 336.285 
L 507.954295 232.335 
L 508.419683 258.3225 
L 508.885071 350.46 
L 509.350459 310.2975 
L 509.815847 248.8725 
L 510.281234 225.2475 
L 510.746622 263.0475 
L 511.21201 258.3225 
L 511.677398 225.2475 
L 512.142786 310.2975 
L 512.608173 211.0725 
L 513.538949 350.46 
L 514.004337 331.56 
L 514.469725 279.585 
L 514.935113 244.1475 
L 515.4005 359.91 
L 515.865888 359.91 
L 516.331276 263.0475 
L 516.796664 350.46 
L 517.262052 246.51 
L 517.72744 350.46 
L 518.192827 263.0475 
L 518.658215 279.585 
L 519.123603 267.7725 
L 519.588991 100.035 
L 520.054379 267.7725 
L 520.519766 350.46 
L 520.985154 248.8725 
L 521.450542 199.26 
L 521.91593 225.2475 
L 522.381318 258.3225 
L 522.846706 258.3225 
L 523.312093 241.785 
L 523.777481 329.1975 
L 524.242869 369.36 
L 524.708257 192.1725 
L 525.173645 234.6975 
L 525.639033 248.8725 
L 526.10442 196.8975 
L 526.569808 343.3725 
L 527.035196 350.46 
L 527.500584 324.4725 
L 527.965972 248.8725 
L 528.431359 317.385 
L 528.896747 270.135 
L 529.362135 248.8725 
L 529.827523 90.585 
L 530.292911 336.285 
L 530.758299 333.9225 
L 531.223686 267.7725 
L 531.689074 336.285 
L 532.154462 350.46 
L 532.61985 222.885 
L 533.085238 307.935 
L 533.550626 201.6225 
L 534.016013 203.985 
L 534.481401 263.0475 
L 534.946789 350.46 
L 535.412177 220.5225 
L 535.877565 237.06 
L 536.342952 199.26 
L 536.80834 248.8725 
L 537.273728 317.385 
L 537.739116 255.96 
L 538.204504 267.7725 
L 538.669892 248.8725 
L 539.135279 192.1725 
L 539.600667 312.66 
L 540.066055 341.01 
L 540.531443 258.3225 
L 540.996831 358.72875 
L 541.462219 286.6725 
L 541.927606 312.66 
L 542.392994 206.3475 
L 542.858382 291.3975 
L 543.32377 345.735 
L 543.789158 237.06 
L 544.254545 246.51 
L 544.719933 345.735 
L 545.185321 267.7725 
L 545.650709 244.1475 
L 546.116097 336.285 
L 546.581485 255.96 
L 547.046872 343.3725 
L 547.51226 90.585 
L 547.977648 137.835 
L 548.443036 331.56 
L 548.908424 329.1975 
L 549.373812 341.01 
L 549.839199 329.1975 
L 550.304587 267.7725 
L 550.769975 319.7475 
L 551.235363 251.235 
L 551.700751 90.585 
L 552.166138 341.01 
L 552.631526 260.685 
L 553.096914 338.6475 
L 553.562302 244.1475 
L 554.02769 260.685 
L 554.493078 329.1975 
L 554.958465 267.7725 
L 555.423853 336.285 
L 555.889241 248.8725 
L 556.354629 215.7975 
L 556.820017 225.2475 
L 557.285405 161.46 
L 557.750792 215.7975 
L 558.21618 196.8975 
L 558.681568 234.6975 
L 559.146956 263.0475 
L 559.612344 225.2475 
L 560.077731 284.31 
L 560.543119 201.6225 
L 561.008507 267.7725 
L 561.473895 355.185 
L 561.939283 199.26 
L 562.404671 114.21 
L 562.870058 322.11 
L 563.335446 307.935 
L 563.800834 263.0475 
L 564.266222 201.6225 
L 564.73161 244.1475 
L 565.196997 100.035 
L 565.662385 258.3225 
L 566.127773 350.46 
L 566.593161 248.8725 
L 567.058549 192.1725 
L 567.523937 244.1475 
L 567.989324 319.7475 
L 568.454712 263.0475 
L 569.385488 350.46 
L 569.850876 309.11625 
L 570.316264 345.735 
L 570.781651 199.26 
L 571.247039 201.6225 
L 571.712427 333.9225 
L 572.177815 199.26 
L 572.643203 341.01 
L 573.10859 324.4725 
L 573.573978 215.7975 
L 574.039366 267.7725 
L 574.504754 350.46 
L 574.970142 267.7725 
L 575.900917 194.535 
L 576.366305 211.0725 
L 576.831693 258.3225 
L 577.297081 324.4725 
L 577.762469 76.41 
L 578.227857 267.7725 
L 578.693244 260.685 
L 579.158632 260.685 
L 579.62402 333.9225 
L 580.089408 341.01 
L 580.554796 244.1475 
L 581.020183 319.7475 
L 581.485571 346.91625 
L 581.950959 346.91625 
L 582.416347 336.285 
L 582.881735 338.6475 
L 583.347123 350.46 
L 583.81251 263.0475 
L 584.277898 225.2475 
L 584.743286 244.1475 
L 585.674062 333.9225 
L 586.13945 201.6225 
L 586.604837 369.36 
L 587.070225 244.1475 
L 587.535613 246.51 
L 588.001001 244.1475 
L 588.466389 270.135 
L 588.931776 232.335 
L 589.397164 255.96 
L 589.862552 241.785 
L 590.32794 336.285 
L 590.793328 298.485 
L 591.258716 161.46 
L 591.724103 319.7475 
L 592.189491 286.6725 
L 592.654879 362.2725 
L 593.120267 182.7225 
L 593.585655 326.835 
L 594.051043 286.6725 
L 594.51643 267.7725 
L 594.981818 322.11 
L 595.447206 317.385 
L 595.912594 289.035 
L 596.377982 350.46 
L 597.308757 152.01 
L 597.774145 307.935 
L 598.239533 248.8725 
L 598.704921 357.5475 
L 599.170309 286.6725 
L 599.635696 189.81 
L 600.101084 342.19125 
L 600.566472 152.01 
L 601.03186 225.2475 
L 601.497248 263.0475 
L 601.962636 286.6725 
L 602.428023 270.135 
L 602.893411 201.6225 
L 603.358799 281.9475 
L 603.824187 312.66 
L 604.289575 253.5975 
L 604.754962 344.55375 
L 605.22035 355.185 
L 605.685738 341.01 
L 606.151126 244.1475 
L 606.616514 286.6725 
L 607.081902 289.035 
L 607.547289 267.7725 
L 608.012677 331.56 
L 608.478065 246.51 
L 608.943453 246.51 
L 609.408841 326.835 
L 610.339616 218.16 
L 610.805004 201.6225 
L 611.270392 341.01 
L 611.73578 244.1475 
L 612.201168 260.685 
L 612.666555 225.2475 
L 613.131943 265.41 
L 613.597331 284.31 
L 614.062719 336.285 
L 614.528107 255.96 
L 614.993495 258.3225 
L 615.458882 336.285 
L 615.92427 225.2475 
L 616.389658 263.0475 
L 616.855046 336.285 
L 617.320434 346.91625 
L 617.785822 246.51 
L 618.251209 344.55375 
L 618.716597 201.6225 
L 619.181985 201.6225 
L 619.647373 310.2975 
L 620.112761 267.7725 
L 620.578148 213.435 
L 621.043536 265.41 
L 621.508924 241.785 
L 621.974312 286.6725 
L 622.4397 196.8975 
L 622.905088 341.01 
L 623.370475 253.5975 
L 623.835863 263.0475 
L 624.301251 267.7725 
L 624.766639 85.86 
L 625.232027 338.6475 
L 625.697415 338.6475 
L 626.162802 267.7725 
L 626.62819 289.035 
L 627.093578 362.2725 
L 627.558966 350.46 
L 628.024354 333.9225 
L 628.489741 225.2475 
L 628.955129 286.6725 
L 629.420517 312.66 
L 629.885905 352.8225 
L 630.351293 234.6975 
L 630.816681 263.0475 
L 631.282068 260.685 
L 632.212844 201.6225 
L 632.678232 350.46 
L 633.14362 369.36 
L 633.609008 182.7225 
L 634.074395 356.36625 
L 634.539783 76.41 
L 635.005171 239.4225 
L 635.470559 251.235 
L 635.935947 350.46 
L 636.401334 267.7725 
L 636.866722 244.1475 
L 637.33211 260.685 
L 637.797498 362.2725 
L 638.262886 267.7725 
L 638.728274 244.1475 
L 639.193661 175.635 
L 639.659049 307.935 
L 640.124437 286.6725 
L 640.589825 95.31 
L 641.055213 246.51 
L 641.520601 355.185 
L 641.985988 263.0475 
L 642.916764 213.435 
L 643.382152 284.31 
L 643.84754 326.835 
L 644.312927 326.835 
L 644.778315 239.4225 
L 645.243703 336.285 
L 645.709091 239.4225 
L 646.174479 279.585 
L 646.639867 187.4475 
L 647.105254 267.7725 
L 647.570642 270.135 
L 648.03603 263.0475 
L 648.501418 187.4475 
L 648.966806 265.41 
L 649.432193 192.1725 
L 649.897581 244.1475 
L 650.362969 310.2975 
L 650.828357 215.7975 
L 651.293745 220.5225 
L 651.759133 324.4725 
L 652.22452 239.4225 
L 652.689908 215.7975 
L 653.155296 263.0475 
L 654.086072 234.6975 
L 654.55146 267.7725 
L 655.016847 362.2725 
L 655.482235 312.66 
L 655.947623 350.46 
L 656.413011 263.0475 
L 656.878399 265.41 
L 657.343786 244.1475 
L 657.809174 246.51 
L 658.274562 244.1475 
L 658.73995 333.9225 
L 659.670726 215.7975 
L 660.601501 255.96 
L 661.066889 248.8725 
L 661.532277 331.56 
L 661.997665 246.51 
L 662.463053 244.1475 
L 662.92844 194.535 
L 664.324604 331.56 
L 664.789992 322.11 
L 665.255379 317.385 
L 665.720767 263.0475 
L 666.186155 225.2475 
L 666.651543 265.41 
L 667.116931 244.1475 
L 667.582319 346.91625 
L 668.047706 344.55375 
L 668.513094 267.7725 
L 668.978482 225.2475 
L 669.44387 244.1475 
L 669.909258 258.3225 
L 670.374646 333.9225 
L 670.840033 234.6975 
L 671.305421 345.735 
L 671.770809 267.7725 
L 672.236197 359.91 
L 672.701585 263.0475 
L 673.166972 352.8225 
L 673.63236 234.6975 
L 674.097748 182.7225 
L 675.493912 365.81625 
L 675.959299 246.51 
L 676.424687 215.7975 
L 676.890075 329.1975 
L 677.355463 312.66 
L 677.820851 303.21 
L 678.286239 341.01 
L 678.751626 267.7725 
L 679.217014 248.8725 
L 679.682402 206.3475 
L 680.14779 345.735 
L 680.613178 246.51 
L 681.078565 364.635 
L 682.009341 90.585 
L 682.474729 307.935 
L 682.940117 272.4975 
L 683.405505 369.36 
L 683.870892 336.285 
L 684.33628 161.46 
L 684.801668 318.56625 
L 685.267056 258.3225 
L 685.732444 227.61 
L 686.197832 267.7725 
L 686.663219 203.985 
L 687.128607 194.535 
L 687.593995 267.7725 
L 688.059383 234.6975 
L 688.524771 350.46 
L 688.990158 215.7975 
L 689.455546 215.7975 
L 689.920934 267.7725 
L 690.386322 241.785 
L 691.317098 246.51 
L 691.782485 358.72875 
L 692.247873 350.46 
L 692.713261 258.3225 
L 693.178649 358.72875 
L 693.644037 298.485 
L 694.109425 267.7725 
L 694.574812 208.71 
L 695.0402 333.9225 
L 695.505588 362.2725 
L 695.970976 66.96 
L 696.436364 286.6725 
L 696.901751 267.7725 
L 697.367139 234.6975 
L 697.832527 232.335 
L 698.297915 258.3225 
L 698.763303 196.8975 
L 699.228691 362.2725 
L 699.694078 267.7725 
L 700.159466 263.0475 
L 700.624854 293.76 
L 701.090242 246.51 
L 701.55563 272.4975 
L 702.021018 265.41 
L 702.486405 267.7725 
L 702.951793 322.11 
L 703.417181 352.8225 
L 703.882569 244.1475 
L 704.347957 338.6475 
L 704.813344 232.335 
L 705.278732 196.8975 
L 705.74412 352.8225 
L 706.209508 336.285 
L 706.674896 199.26 
L 707.140284 286.6725 
L 707.605671 265.41 
L 708.071059 322.11 
L 708.536447 234.6975 
L 709.001835 182.7225 
L 709.467223 263.0475 
L 709.932611 244.1475 
L 710.397998 274.86 
L 710.863386 338.6475 
L 711.328774 355.185 
L 711.794162 265.41 
L 712.25955 199.26 
L 712.724937 307.935 
L 713.655713 137.835 
L 714.121101 267.7725 
L 714.586489 350.46 
L 715.051877 237.06 
L 715.517264 362.2725 
L 715.982652 326.835 
L 716.44804 244.1475 
L 716.913428 322.11 
L 717.378816 244.1475 
L 717.844204 359.91 
L 718.309591 341.01 
L 718.774979 307.935 
L 719.240367 331.56 
L 719.705755 333.9225 
L 720.171143 265.41 
L 720.63653 109.485 
L 721.101918 180.36 
L 721.567306 345.735 
L 722.032694 307.935 
L 722.498082 182.7225 
L 723.428857 341.01 
L 723.894245 312.66 
L 724.825021 215.7975 
L 725.290409 350.46 
L 725.755796 263.0475 
L 726.221184 350.46 
L 726.686572 201.6225 
L 727.15196 281.9475 
L 727.617348 225.2475 
L 728.082736 208.71 
L 728.548123 260.685 
L 729.013511 289.035 
L 729.478899 362.2725 
L 729.944287 237.06 
L 730.409675 336.285 
L 730.875063 345.735 
L 731.34045 180.36 
L 731.805838 307.935 
L 732.271226 333.9225 
L 732.736614 338.6475 
L 733.202002 258.3225 
L 733.667389 267.7725 
L 734.132777 267.7725 
L 734.598165 263.0475 
L 735.063553 309.11625 
L 735.528941 258.3225 
L 735.994329 350.46 
L 736.459716 352.8225 
L 736.925104 241.785 
L 737.390492 201.6225 
L 737.85588 350.46 
L 738.321268 267.7725 
L 738.786656 359.91 
L 739.252043 336.285 
L 739.717431 215.7975 
L 740.182819 355.185 
L 740.648207 289.035 
L 741.113595 296.1225 
L 741.578982 350.46 
L 742.04437 312.66 
L 742.509758 286.6725 
L 742.975146 355.185 
L 743.440534 326.835 
L 743.905922 246.51 
L 744.371309 358.72875 
L 744.836697 357.5475 
L 745.302085 336.285 
L 745.767473 161.46 
L 746.232861 329.1975 
L 746.698249 357.5475 
L 747.163636 270.135 
L 747.163636 270.135 
" clip-path="url(#p029719f396)" style="fill: none; stroke: #1f77b4; stroke-width: 1.5; stroke-linecap: square"/>
   </g>
   <g id="line2d_16">
    <path d="M 138.436364 276.660261 
L 138.901751 320.587406 
L 139.367139 262.695401 
L 139.832527 285.100793 
L 140.297915 272.696498 
L 140.763303 254.157481 
L 141.228691 291.732992 
L 141.694078 266.427751 
L 142.159466 327.03462 
L 142.624854 306.461352 
L 143.090242 221.075621 
L 143.55563 258.654461 
L 144.486405 264.97179 
L 144.951793 288.787628 
L 145.417181 247.847145 
L 145.882569 248.252941 
L 146.347957 245.133807 
L 146.813344 245.902069 
L 147.278732 248.368719 
L 147.74412 328.146159 
L 148.209508 260.511917 
L 148.674896 245.723768 
L 149.140284 222.788053 
L 149.605671 245.208481 
L 150.071059 242.204433 
L 150.536447 326.692118 
L 151.001835 204.943299 
L 151.467223 238.453304 
L 151.932611 200.319232 
L 152.397998 280.21853 
L 152.863386 299.598845 
L 153.328774 242.860604 
L 154.25955 251.039634 
L 154.724937 228.75506 
L 155.190325 234.372841 
L 155.655713 223.417536 
L 156.121101 266.585181 
L 156.586489 279.989469 
L 157.051877 244.943609 
L 157.517264 254.963239 
L 157.982652 260.555056 
L 158.44804 232.367689 
L 158.913428 299.784235 
L 159.844204 233.943155 
L 160.309591 214.097971 
L 160.774979 338.084546 
L 161.240367 245.58499 
L 161.705755 302.934626 
L 162.171143 272.414166 
L 162.63653 254.971592 
L 163.101918 263.996315 
L 163.567306 225.271464 
L 164.032694 270.259014 
L 164.498082 220.352182 
L 164.96347 266.45335 
L 165.428857 281.230929 
L 165.894245 207.54837 
L 166.359633 246.908697 
L 166.825021 225.057361 
L 167.290409 257.513973 
L 167.755796 224.893373 
L 168.221184 215.288686 
L 168.686572 293.743317 
L 169.15196 332.049144 
L 169.617348 270.44264 
L 170.082736 239.765344 
L 170.548123 310.463807 
L 171.013511 282.22477 
L 171.478899 240.853705 
L 171.944287 257.926985 
L 172.409675 207.347888 
L 172.875063 287.20795 
L 173.34045 263.560177 
L 173.805838 313.221028 
L 174.271226 261.695082 
L 174.736614 291.09463 
L 175.202002 265.138043 
L 175.667389 225.443097 
L 176.132777 195.49187 
L 176.598165 269.029325 
L 177.063553 278.468046 
L 177.528941 251.94127 
L 177.994329 258.103307 
L 178.459716 262.70497 
L 178.925104 320.964459 
L 179.390492 311.342387 
L 179.85588 267.957082 
L 180.321268 255.427305 
L 180.786656 291.925637 
L 181.252043 263.474877 
L 181.717431 349.61173 
L 182.182819 314.714123 
L 182.648207 231.515614 
L 183.113595 271.654026 
L 183.578982 270.796157 
L 184.04437 286.974279 
L 184.509758 261.470576 
L 184.975146 288.39601 
L 185.440534 253.727557 
L 185.905922 258.094374 
L 186.371309 209.14806 
L 186.836697 256.903158 
L 187.302085 253.781194 
L 187.767473 273.709167 
L 188.232861 263.681256 
L 188.698249 228.57594 
L 189.163636 262.006113 
L 189.629024 326.4983 
L 190.094412 338.529495 
L 190.5598 236.269001 
L 191.025188 258.314549 
L 191.490575 260.133079 
L 191.955963 262.816703 
L 192.421351 227.251867 
L 192.886739 292.414245 
L 193.352127 276.908594 
L 193.817515 234.101007 
L 194.282902 207.286073 
L 194.74829 229.731464 
L 195.213678 279.971111 
L 195.679066 264.085978 
L 196.144454 271.816026 
L 196.609842 239.048502 
L 197.075229 326.33798 
L 197.540617 221.76134 
L 198.006005 190.766092 
L 198.471393 218.220508 
L 198.936781 267.476207 
L 199.402168 258.193733 
L 199.867556 244.252882 
L 200.332944 220.7287 
L 200.798332 278.517026 
L 201.26372 255.850919 
L 201.729108 297.058729 
L 202.194495 260.726482 
L 202.659883 293.705559 
L 203.125271 336.14394 
L 203.590659 252.406369 
L 204.056047 310.848888 
L 204.521435 277.836345 
L 204.986822 273.390356 
L 205.45221 280.807816 
L 205.917598 331.497771 
L 206.382986 324.858678 
L 206.848374 251.74903 
L 207.313761 260.366154 
L 207.779149 256.818597 
L 208.244537 266.65647 
L 208.709925 270.38247 
L 209.175313 271.952945 
L 209.640701 343.346726 
L 210.106088 247.789336 
L 210.571476 247.875867 
L 211.036864 297.015248 
L 211.502252 263.979205 
L 211.96764 257.979025 
L 212.433028 197.912354 
L 213.363803 288.351107 
L 213.829191 248.751348 
L 214.294579 191.253301 
L 214.759967 291.891662 
L 215.225354 270.007955 
L 215.690742 224.254988 
L 216.15613 218.730224 
L 216.621518 270.701328 
L 217.086906 269.722348 
L 217.552294 265.303444 
L 218.017681 310.239285 
L 218.948457 233.315213 
L 219.413845 320.942509 
L 219.879233 241.433199 
L 220.344621 253.420119 
L 220.810008 323.191022 
L 221.275396 255.974017 
L 221.740784 226.895759 
L 222.206172 248.95911 
L 222.67156 308.747012 
L 223.136947 304.504839 
L 223.602335 260.491675 
L 224.067723 325.529048 
L 224.533111 258.797864 
L 224.998499 241.731593 
L 225.463887 332.488954 
L 225.929274 251.22601 
L 226.394662 260.203684 
L 226.86005 262.498202 
L 227.325438 271.129313 
L 227.790826 244.395229 
L 228.256214 268.125345 
L 228.721601 334.555396 
L 229.186989 286.715201 
L 229.652377 306.600337 
L 230.117765 280.152837 
L 230.583153 278.84508 
L 231.04854 236.551055 
L 231.513928 249.100876 
L 231.979316 284.039263 
L 232.444704 221.132508 
L 232.910092 226.645129 
L 233.37548 305.018171 
L 233.840867 260.601612 
L 234.306255 262.00686 
L 234.771643 240.808285 
L 235.237031 293.058114 
L 235.702419 299.876226 
L 236.167807 233.480679 
L 236.633194 243.594025 
L 237.098582 352.750929 
L 237.56397 273.894858 
L 238.029358 268.847162 
L 238.494746 241.18605 
L 238.960133 290.478061 
L 239.425521 280.484228 
L 239.890909 264.448142 
L 240.356297 264.078603 
L 240.821685 224.175673 
L 241.287073 222.187148 
L 241.75246 304.199547 
L 242.217848 309.710844 
L 242.683236 274.836978 
L 243.148624 278.679002 
L 243.614012 294.81122 
L 244.079399 297.699657 
L 244.544787 266.843091 
L 245.010175 255.721288 
L 245.475563 298.667145 
L 245.940951 231.569482 
L 246.871726 306.305098 
L 247.337114 253.435998 
L 247.802502 285.583877 
L 248.26789 270.821422 
L 248.733278 272.493894 
L 249.198666 221.980403 
L 249.664053 274.988607 
L 250.129441 234.853978 
L 250.594829 266.540549 
L 251.060217 259.635133 
L 251.525605 287.911416 
L 251.990992 238.977373 
L 252.45638 239.807195 
L 252.921768 342.886741 
L 253.387156 260.234465 
L 253.852544 294.695879 
L 254.317932 270.419616 
L 254.783319 259.940593 
L 255.248707 200.192852 
L 255.714095 253.259859 
L 256.179483 229.52836 
L 256.644871 315.025173 
L 257.110259 298.176741 
L 257.575646 275.615953 
L 258.041034 335.059744 
L 258.506422 260.923753 
L 258.97181 281.183816 
L 259.437198 248.344948 
L 259.902585 248.625365 
L 260.367973 253.47502 
L 260.833361 253.862393 
L 261.298749 282.269967 
L 262.229525 246.032367 
L 262.694912 294.69344 
L 263.625688 241.822273 
L 264.091076 189.961845 
L 264.556464 277.080958 
L 265.021852 276.166447 
L 265.487239 299.545264 
L 265.952627 289.44248 
L 266.418015 266.97776 
L 266.883403 317.140535 
L 267.348791 248.440278 
L 267.814178 246.601458 
L 268.279566 327.919713 
L 269.210342 267.472647 
L 269.67573 269.419178 
L 270.141118 274.778557 
L 270.606505 315.19619 
L 271.071893 308.378494 
L 271.537281 298.579667 
L 272.002669 253.503146 
L 272.468057 312.033329 
L 272.933445 256.667803 
L 273.398832 247.969186 
L 273.86422 251.75437 
L 274.329608 264.671354 
L 274.794996 290.853943 
L 275.260384 263.437405 
L 275.725771 283.102095 
L 276.191159 202.514248 
L 276.656547 265.41354 
L 277.587323 267.945423 
L 278.052711 275.686534 
L 278.518098 312.82318 
L 278.983486 222.177643 
L 279.448874 248.863772 
L 279.914262 295.906177 
L 280.37965 253.488125 
L 280.845038 284.730125 
L 281.310425 228.76137 
L 281.775813 303.82171 
L 282.241201 302.954113 
L 282.706589 293.013767 
L 283.171977 265.731064 
L 283.637364 314.553736 
L 284.102752 345.835105 
L 284.56814 224.356684 
L 285.033528 317.123957 
L 285.498916 234.928588 
L 285.964304 341.372873 
L 286.429691 269.696917 
L 286.895079 257.191054 
L 287.360467 321.138941 
L 287.825855 305.944778 
L 288.291243 281.331345 
L 288.756631 280.093843 
L 289.222018 225.84468 
L 289.687406 255.262134 
L 290.152794 264.142572 
L 290.618182 329.508745 
L 291.08357 262.958087 
L 291.548957 271.871937 
L 292.014345 261.276953 
L 292.479733 270.531857 
L 292.945121 248.280956 
L 293.875897 233.718927 
L 294.341284 261.676788 
L 294.806672 326.860885 
L 295.737448 247.126044 
L 296.202836 264.732477 
L 296.668224 256.168609 
L 297.133611 255.627541 
L 297.598999 239.59732 
L 298.064387 287.037573 
L 298.529775 265.058489 
L 298.995163 232.524238 
L 299.46055 285.397534 
L 299.925938 267.343628 
L 300.391326 240.159378 
L 300.856714 298.732091 
L 301.322102 272.945244 
L 301.78749 233.986214 
L 302.252877 288.947419 
L 302.718265 268.805454 
L 303.183653 226.985804 
L 303.649041 197.122794 
L 304.114429 243.035472 
L 304.579817 248.902444 
L 305.045204 272.059742 
L 305.510592 312.755003 
L 305.97598 290.685751 
L 306.441368 226.756345 
L 306.906756 298.474237 
L 307.372143 288.196339 
L 308.302919 229.345092 
L 308.768307 276.723999 
L 309.233695 270.257369 
L 309.699083 172.559048 
L 310.16447 269.516296 
L 310.629858 312.348643 
L 311.095246 282.827336 
L 311.560634 228.835281 
L 312.026022 271.154952 
L 312.49141 266.663917 
L 312.956797 268.783773 
L 313.422185 283.780233 
L 313.887573 262.104733 
L 314.352961 306.158404 
L 314.818349 181.718075 
L 315.283736 261.112624 
L 315.749124 185.027701 
L 316.214512 245.081076 
L 316.6799 230.19836 
L 317.145288 239.291423 
L 317.610676 267.252924 
L 318.541451 282.291211 
L 319.006839 269.275036 
L 319.472227 264.232211 
L 319.937615 250.405342 
L 320.403003 347.09872 
L 320.86839 220.847005 
L 321.333778 252.733477 
L 321.799166 264.427932 
L 322.264554 291.337965 
L 322.729942 201.676653 
L 323.195329 194.324473 
L 323.660717 298.078463 
L 324.126105 252.496485 
L 324.591493 239.443982 
L 325.056881 276.484138 
L 325.522269 261.294826 
L 325.987656 259.588101 
L 326.453044 307.527146 
L 326.918432 257.326136 
L 327.38382 308.296651 
L 327.849208 220.550184 
L 328.314595 298.104912 
L 328.779983 281.80219 
L 329.245371 295.416417 
L 329.710759 315.887242 
L 330.176147 231.910506 
L 330.641535 253.127932 
L 331.106922 325.690412 
L 331.57231 264.770148 
L 332.037698 325.233137 
L 332.503086 238.642532 
L 332.968474 307.814243 
L 333.433862 329.217989 
L 333.899249 304.658598 
L 334.364637 316.63409 
L 334.830025 218.294006 
L 335.295413 279.643637 
L 335.760801 247.084741 
L 336.226188 253.904141 
L 337.156964 339.366204 
L 337.622352 346.757342 
L 338.08774 246.211009 
L 338.553128 184.039852 
L 339.018515 197.874636 
L 339.483903 275.520489 
L 339.949291 254.265678 
L 340.414679 260.431394 
L 340.880067 232.571747 
L 341.345455 238.685814 
L 341.810842 209.297615 
L 342.27623 262.386207 
L 342.741618 262.655632 
L 343.207006 255.293049 
L 343.672394 226.299273 
L 344.603169 293.597942 
L 345.068557 246.34633 
L 345.533945 293.246944 
L 345.999333 306.633676 
L 346.464721 307.224059 
L 346.930108 312.153092 
L 347.395496 291.996608 
L 347.860884 318.982026 
L 348.326272 201.221758 
L 348.79166 246.405904 
L 349.257048 276.03181 
L 349.722435 225.679867 
L 350.653211 328.020013 
L 351.118599 252.282962 
L 351.583987 267.241091 
L 352.049374 260.69114 
L 352.514762 261.005007 
L 352.98015 231.3532 
L 353.445538 293.8758 
L 354.376314 214.849241 
L 354.841701 247.563542 
L 355.772477 328.321861 
L 356.237865 293.40753 
L 356.703253 241.592839 
L 357.168641 287.205176 
L 357.634028 286.237863 
L 358.099416 252.593889 
L 358.564804 317.855335 
L 359.030192 260.596025 
L 359.49558 277.945447 
L 359.960967 234.688815 
L 360.426355 320.172172 
L 360.891743 194.962731 
L 361.357131 237.703416 
L 361.822519 268.290961 
L 362.287907 264.989704 
L 362.753294 258.586669 
L 363.218682 245.889305 
L 363.68407 238.163302 
L 364.149458 240.067553 
L 364.614846 260.515947 
L 365.080234 251.274378 
L 365.545621 254.361611 
L 366.011009 320.635738 
L 366.476397 328.545883 
L 366.941785 357.208553 
L 367.407173 221.107808 
L 367.87256 256.748414 
L 368.337948 279.779109 
L 368.803336 266.549768 
L 369.268724 171.398501 
L 369.734112 319.467287 
L 370.1995 333.470938 
L 370.664887 311.614312 
L 371.130275 279.942635 
L 371.595663 263.037379 
L 372.061051 234.583495 
L 372.526439 267.880079 
L 372.991827 234.065387 
L 373.922602 330.113516 
L 374.38799 326.514771 
L 374.853378 237.226841 
L 375.318766 279.390758 
L 375.784153 257.180221 
L 376.249541 342.293879 
L 376.714929 236.78862 
L 377.180317 265.769323 
L 377.645705 229.202245 
L 378.111093 324.033314 
L 378.57648 187.457356 
L 379.041868 344.628048 
L 379.507256 267.032073 
L 379.972644 294.830048 
L 380.90342 240.361878 
L 381.368807 276.533396 
L 381.834195 348.399338 
L 382.299583 263.205022 
L 382.764971 287.000752 
L 383.230359 234.636457 
L 383.695746 270.088312 
L 384.161134 270.729502 
L 384.626522 253.36471 
L 385.09191 273.94875 
L 385.557298 238.714551 
L 386.022686 317.075414 
L 386.488073 263.101682 
L 386.953461 282.152059 
L 387.418849 235.013976 
L 387.884237 319.424526 
L 388.349625 256.250444 
L 388.815013 301.533598 
L 389.2804 300.742194 
L 389.745788 253.101888 
L 390.211176 256.882789 
L 390.676564 314.665619 
L 391.141952 304.066618 
L 391.607339 275.663185 
L 392.072727 290.572556 
L 392.538115 276.35229 
L 393.003503 227.128412 
L 393.468891 231.677551 
L 393.934279 258.78878 
L 394.399666 305.855043 
L 395.330442 243.506023 
L 395.79583 259.695073 
L 396.261218 262.379936 
L 396.726606 270.024557 
L 397.191993 213.099298 
L 397.657381 244.269262 
L 398.122769 250.615727 
L 398.588157 320.146316 
L 399.053545 231.004976 
L 399.518932 327.753175 
L 399.98432 256.440602 
L 400.449708 262.829697 
L 400.915096 284.17034 
L 401.380484 323.698581 
L 401.845872 282.028731 
L 402.311259 270.073728 
L 402.776647 194.153921 
L 403.707423 329.490371 
L 404.172811 217.34343 
L 404.638198 352.252248 
L 405.568974 260.505702 
L 406.034362 274.240063 
L 406.49975 239.603884 
L 406.965138 276.342992 
L 407.430525 327.626191 
L 407.895913 326.014107 
L 408.361301 254.280348 
L 408.826689 266.024983 
L 409.292077 293.458545 
L 409.757465 267.227802 
L 410.222852 299.588108 
L 410.68824 259.521811 
L 411.153628 254.039279 
L 412.084404 328.650459 
L 412.549791 261.602106 
L 413.015179 270.188107 
L 413.480567 275.599955 
L 413.945955 258.529535 
L 414.411343 257.278348 
L 414.876731 265.351304 
L 415.342118 258.722149 
L 415.807506 304.728106 
L 416.272894 309.066213 
L 416.738282 252.245442 
L 417.20367 272.791303 
L 417.669058 317.917686 
L 418.134445 199.770272 
L 418.599833 256.364466 
L 419.065221 204.243989 
L 419.530609 256.405077 
L 419.995997 206.141533 
L 420.461384 275.526338 
L 420.926772 261.83336 
L 421.39216 338.182689 
L 421.857548 302.728558 
L 422.322936 213.035941 
L 422.788324 194.971441 
L 423.253711 318.502247 
L 423.719099 302.967203 
L 424.184487 247.088158 
L 424.649875 321.266899 
L 425.115263 300.043067 
L 425.580651 248.80516 
L 426.046038 236.4029 
L 426.511426 272.67012 
L 426.976814 225.93482 
L 427.442202 240.769366 
L 427.90759 271.833765 
L 428.372977 241.151336 
L 428.838365 268.810103 
L 429.303753 253.889184 
L 429.769141 257.85038 
L 430.234529 275.258208 
L 430.699917 183.958041 
L 431.165304 267.295006 
L 431.630692 261.543454 
L 432.09608 274.761613 
L 432.561468 265.843917 
L 433.026856 311.564562 
L 433.492244 220.412408 
L 434.423019 301.650179 
L 434.888407 273.480353 
L 435.353795 328.570019 
L 435.819183 285.832361 
L 436.28457 228.499057 
L 436.749958 285.727153 
L 437.215346 288.629506 
L 437.680734 256.471883 
L 438.146122 267.703655 
L 438.61151 227.975703 
L 439.076897 284.789596 
L 439.542285 263.887722 
L 440.007673 251.860834 
L 440.473061 311.525333 
L 440.938449 254.350636 
L 441.403837 264.694687 
L 441.869224 252.80746 
L 442.334612 266.89862 
L 442.8 266.583846 
L 443.265388 305.455621 
L 443.730776 260.794051 
L 444.196163 279.639783 
L 445.126939 273.640509 
L 445.592327 197.506988 
L 446.057715 272.216895 
L 446.523103 280.875218 
L 447.453878 197.290484 
L 447.919266 274.411616 
L 448.384654 244.822951 
L 448.850042 233.210848 
L 449.31543 261.26438 
L 449.780817 297.390311 
L 450.246205 285.872607 
L 450.711593 289.771002 
L 451.176981 272.069549 
L 451.642369 268.721728 
L 452.107756 273.17742 
L 452.573144 290.980998 
L 453.038532 256.713795 
L 453.50392 290.707289 
L 453.969308 259.268662 
L 454.434696 269.007064 
L 454.900083 224.756455 
L 455.365471 303.839036 
L 455.830859 227.372525 
L 456.296247 244.52435 
L 456.761635 306.118453 
L 457.227023 194.492259 
L 457.69241 291.449332 
L 458.157798 278.366422 
L 458.623186 279.594586 
L 459.088574 251.429344 
L 459.553962 295.793085 
L 460.019349 231.730417 
L 460.484737 338.73893 
L 460.950125 277.316551 
L 461.415513 280.17172 
L 461.880901 303.748546 
L 462.346289 273.051637 
L 462.811676 275.786036 
L 463.277064 237.436335 
L 463.742452 290.226819 
L 464.20784 250.82015 
L 464.673228 278.650368 
L 465.138616 325.678666 
L 465.604003 275.478018 
L 466.069391 248.464215 
L 466.534779 307.189869 
L 467.465555 276.131924 
L 467.930942 240.89244 
L 468.39633 286.796368 
L 468.861718 307.070419 
L 469.327106 306.229431 
L 469.792494 288.010481 
L 470.257882 338.613599 
L 470.723269 346.313266 
L 471.654045 213.608871 
L 472.119433 274.58297 
L 472.584821 267.422085 
L 473.050209 307.730632 
L 473.515596 257.265449 
L 473.980984 274.284266 
L 474.446372 269.248539 
L 474.91176 261.666861 
L 475.377148 305.165993 
L 475.842535 277.630975 
L 476.307923 276.156108 
L 476.773311 253.774145 
L 477.238699 197.482335 
L 477.704087 211.441703 
L 478.169475 205.280334 
L 478.634862 247.444966 
L 479.10025 269.435987 
L 479.565638 251.270309 
L 480.031026 260.91234 
L 480.496414 262.159451 
L 480.961802 278.946203 
L 481.427189 244.187626 
L 481.892577 275.475816 
L 482.357965 252.165268 
L 482.823353 248.908786 
L 483.288741 258.352832 
L 483.754128 242.960965 
L 484.219516 240.381254 
L 484.684904 261.077877 
L 485.150292 310.781386 
L 485.61568 284.633826 
L 486.081068 275.955523 
L 486.546455 277.3986 
L 487.011843 279.528296 
L 487.477231 249.809818 
L 487.942619 273.50344 
L 488.408007 330.244653 
L 488.873394 240.103618 
L 489.338782 260.363006 
L 489.80417 265.118023 
L 490.269558 246.052927 
L 490.734946 274.090524 
L 491.200334 276.389428 
L 491.665721 190.742234 
L 492.596497 324.046571 
L 493.061885 281.158281 
L 493.527273 280.573343 
L 493.992661 257.140691 
L 494.458048 220.894944 
L 494.923436 252.077839 
L 495.388824 195.530892 
L 495.854212 323.975151 
L 496.3196 269.829043 
L 496.784987 262.391118 
L 497.250375 283.967657 
L 497.715763 287.148551 
L 498.181151 305.544752 
L 499.111927 212.981612 
L 499.577314 242.522219 
L 500.042702 293.957722 
L 500.50809 255.346559 
L 500.973478 262.440646 
L 501.438866 292.064455 
L 501.904254 263.391524 
L 502.369641 244.912606 
L 502.835029 269.294324 
L 503.300417 360.19205 
L 503.765805 254.908346 
L 504.231193 338.825247 
L 504.69658 272.636471 
L 505.161968 322.707282 
L 505.627356 271.138445 
L 506.092744 274.754444 
L 506.558132 307.08397 
L 507.488907 228.980067 
L 508.419683 304.008332 
L 508.885071 291.451843 
L 509.350459 228.513553 
L 509.815847 295.312957 
L 510.281234 198.425218 
L 510.746622 273.811482 
L 511.21201 256.643921 
L 511.677398 273.276135 
L 512.142786 312.636959 
L 512.608173 236.949841 
L 513.073561 225.620261 
L 513.538949 302.946834 
L 514.004337 298.994579 
L 514.469725 286.367764 
L 514.935113 258.747144 
L 515.4005 315.788587 
L 515.865888 328.460917 
L 516.331276 266.598772 
L 516.796664 343.192429 
L 517.262052 266.51162 
L 517.72744 325.805793 
L 518.192827 249.414481 
L 518.658215 249.885946 
L 519.123603 251.212125 
L 519.588991 245.0732 
L 520.054379 270.533105 
L 520.519766 341.762685 
L 520.985154 253.839036 
L 521.450542 273.372887 
L 521.91593 268.379893 
L 522.381318 265.843273 
L 522.846706 253.875586 
L 523.312093 251.332195 
L 523.777481 276.804975 
L 524.242869 263.447482 
L 524.708257 217.469079 
L 525.173645 250.751016 
L 525.639033 252.60484 
L 526.10442 190.676366 
L 526.569808 325.217894 
L 527.035196 276.459628 
L 527.500584 341.257022 
L 528.431359 229.997512 
L 528.896747 313.765891 
L 529.827523 251.427469 
L 530.292911 266.947505 
L 530.758299 305.805475 
L 531.223686 246.013253 
L 531.689074 336.201583 
L 532.154462 302.566867 
L 532.61985 284.105584 
L 533.085238 329.731066 
L 533.550626 233.62591 
L 534.016013 237.036341 
L 534.481401 268.519386 
L 534.946789 261.881418 
L 535.412177 219.799534 
L 535.877565 266.842805 
L 536.342952 213.102731 
L 536.80834 267.686425 
L 537.273728 244.823221 
L 537.739116 273.43359 
L 538.204504 230.778792 
L 538.669892 329.357124 
L 539.135279 212.72278 
L 540.066055 332.528119 
L 540.531443 226.273571 
L 540.996831 269.889213 
L 541.462219 243.916476 
L 541.927606 273.537741 
L 542.392994 261.666265 
L 542.858382 267.769467 
L 543.32377 289.915002 
L 543.789158 266.213282 
L 544.254545 268.375641 
L 544.719933 300.430305 
L 545.185321 261.707949 
L 546.116097 289.121865 
L 546.581485 282.716041 
L 547.046872 304.494889 
L 547.51226 265.339303 
L 547.977648 278.608072 
L 548.443036 309.392367 
L 548.908424 256.668669 
L 549.373812 317.783089 
L 549.839199 253.499721 
L 550.304587 237.109124 
L 550.769975 264.569293 
L 551.235363 248.391711 
L 551.700751 255.833498 
L 552.166138 300.074244 
L 552.631526 258.694945 
L 553.096914 275.220569 
L 553.562302 270.509493 
L 554.02769 256.665451 
L 554.493078 255.977728 
L 554.958465 276.088896 
L 555.889241 328.071008 
L 556.354629 225.46341 
L 556.820017 240.243191 
L 557.285405 250.223426 
L 557.750792 264.904555 
L 558.21618 216.543966 
L 558.681568 262.546705 
L 559.146956 263.855996 
L 559.612344 231.066489 
L 560.077731 286.11583 
L 560.543119 202.408913 
L 561.008507 272.756088 
L 561.473895 263.180814 
L 561.939283 226.437956 
L 562.404671 274.207105 
L 562.870058 279.05544 
L 563.335446 266.238531 
L 563.800834 323.65727 
L 564.266222 222.604213 
L 564.73161 265.055811 
L 565.196997 235.502758 
L 565.662385 293.888651 
L 566.127773 309.835218 
L 566.593161 265.126312 
L 567.058549 238.364881 
L 567.523937 322.247539 
L 567.989324 280.24153 
L 568.454712 259.198216 
L 568.9201 251.021681 
L 569.385488 304.913432 
L 569.850876 299.854506 
L 570.316264 258.516374 
L 571.247039 213.082783 
L 571.712427 293.609228 
L 572.177815 182.989981 
L 572.643203 306.981877 
L 573.10859 305.004994 
L 573.573978 197.774594 
L 574.039366 272.943726 
L 574.504754 281.914407 
L 574.970142 276.081187 
L 575.43553 219.44465 
L 575.900917 272.587229 
L 576.366305 237.531068 
L 576.831693 241.258427 
L 577.297081 308.958136 
L 577.762469 299.146231 
L 578.227857 273.995481 
L 578.693244 278.597152 
L 579.158632 257.311187 
L 579.62402 263.378053 
L 580.089408 284.704773 
L 580.554796 256.538665 
L 581.485571 310.296442 
L 581.950959 320.51566 
L 582.416347 277.703909 
L 582.881735 342.748847 
L 583.347123 309.468917 
L 583.81251 226.995754 
L 584.277898 271.66307 
L 584.743286 255.447746 
L 585.208674 267.502156 
L 585.674062 307.134221 
L 586.13945 232.072379 
L 586.604837 241.378751 
L 587.070225 205.264852 
L 587.535613 261.440034 
L 588.001001 233.148572 
L 588.466389 305.25413 
L 588.931776 269.778584 
L 589.397164 277.669059 
L 589.862552 258.858416 
L 590.32794 283.997603 
L 590.793328 266.704019 
L 591.258716 267.002096 
L 591.724103 262.093876 
L 592.189491 273.52671 
L 592.654879 323.302739 
L 593.120267 214.545443 
L 593.585655 255.341171 
L 594.051043 269.24323 
L 594.981818 247.088778 
L 595.447206 251.184238 
L 595.912594 305.464038 
L 596.377982 341.994001 
L 596.843369 307.131551 
L 597.308757 245.114336 
L 597.774145 310.140399 
L 598.239533 282.672663 
L 598.704921 327.694165 
L 599.170309 319.595201 
L 599.635696 270.040635 
L 600.101084 313.442928 
L 600.566472 263.223365 
L 601.03186 225.534111 
L 601.497248 271.03702 
L 601.962636 261.605936 
L 602.428023 304.632435 
L 602.893411 213.277193 
L 603.358799 267.15161 
L 603.824187 248.64285 
L 604.754962 314.281508 
L 605.22035 283.649196 
L 605.685738 317.929985 
L 606.151126 269.781358 
L 606.616514 258.124105 
L 607.081902 296.993147 
L 607.547289 261.847713 
L 608.012677 305.96765 
L 608.478065 254.082529 
L 608.943453 245.818907 
L 609.408841 291.013463 
L 609.874229 292.902519 
L 610.339616 271.651658 
L 610.805004 222.985149 
L 611.270392 333.367852 
L 611.73578 237.915024 
L 612.666555 270.817973 
L 613.597331 228.861158 
L 614.062719 272.230596 
L 614.528107 245.476619 
L 614.993495 324.255508 
L 615.92427 234.120637 
L 616.389658 286.675051 
L 616.855046 255.014468 
L 617.320434 269.057896 
L 617.785822 288.425678 
L 618.251209 312.819671 
L 618.716597 219.453217 
L 619.181985 259.492191 
L 619.647373 225.783008 
L 620.112761 258.450458 
L 620.578148 262.939578 
L 621.043536 256.533229 
L 621.508924 269.80973 
L 621.974312 268.837148 
L 622.4397 227.04293 
L 622.905088 314.336521 
L 623.370475 308.999216 
L 623.835863 256.018347 
L 624.301251 247.334123 
L 624.766639 202.978632 
L 625.232027 316.201011 
L 625.697415 320.505122 
L 626.162802 194.84681 
L 626.62819 286.837488 
L 627.093578 327.590884 
L 627.558966 334.084635 
L 628.024354 309.628577 
L 628.489741 270.376604 
L 628.955129 288.136749 
L 629.420517 199.240465 
L 629.885905 328.028648 
L 630.351293 301.361163 
L 630.816681 338.732154 
L 631.282068 272.266216 
L 631.747456 263.510449 
L 632.212844 199.056895 
L 632.678232 283.916316 
L 633.14362 263.088735 
L 633.609008 263.912025 
L 634.074395 327.482918 
L 634.539783 283.884264 
L 635.005171 264.92378 
L 635.470559 300.06307 
L 635.935947 279.184753 
L 636.401334 274.593485 
L 636.866722 265.705592 
L 637.33211 290.698006 
L 637.797498 299.818258 
L 638.262886 232.702562 
L 638.728274 277.287734 
L 639.193661 216.272562 
L 639.659049 324.834296 
L 640.124437 253.242629 
L 640.589825 306.27938 
L 641.055213 266.393839 
L 641.520601 318.002847 
L 641.985988 241.029223 
L 642.451376 288.15274 
L 642.916764 228.10504 
L 643.382152 288.139483 
L 643.84754 326.207337 
L 644.312927 330.028133 
L 644.778315 248.934353 
L 645.243703 291.308623 
L 645.709091 246.333844 
L 646.174479 286.94458 
L 646.639867 186.976267 
L 647.105254 272.442689 
L 647.570642 317.379864 
L 648.03603 286.07049 
L 648.501418 170.4385 
L 648.966806 255.848709 
L 649.432193 213.384308 
L 649.897581 263.908719 
L 650.362969 283.20743 
L 650.828357 322.256417 
L 651.293745 300.581473 
L 651.759133 308.616945 
L 652.689908 233.786146 
L 653.155296 258.409338 
L 653.620684 271.916919 
L 654.086072 269.61594 
L 654.55146 283.318734 
L 655.016847 262.743006 
L 655.947623 289.884833 
L 656.413011 232.24851 
L 656.878399 271.730266 
L 657.343786 243.565191 
L 657.809174 243.091859 
L 658.274562 207.52483 
L 658.73995 326.278403 
L 659.205338 239.510868 
L 659.670726 253.110456 
L 660.136113 251.739747 
L 660.601501 270.549111 
L 661.066889 247.38838 
L 661.532277 343.61785 
L 661.997665 241.818013 
L 662.463053 276.777581 
L 662.92844 277.482009 
L 663.393828 262.971765 
L 663.859216 315.315286 
L 664.324604 304.37826 
L 664.789992 232.287086 
L 665.255379 235.249935 
L 665.720767 262.391325 
L 666.186155 208.222789 
L 666.651543 279.766814 
L 667.116931 257.649914 
L 667.582319 317.886103 
L 668.047706 290.749784 
L 668.513094 272.066092 
L 668.978482 292.353415 
L 669.44387 297.175826 
L 669.909258 248.139404 
L 670.374646 288.651766 
L 670.840033 242.942789 
L 671.305421 286.658139 
L 671.770809 265.694243 
L 672.236197 264.086821 
L 672.701585 227.989087 
L 673.166972 332.98605 
L 673.63236 286.717085 
L 674.097748 161.962903 
L 674.563136 254.509417 
L 675.028524 267.954833 
L 675.493912 314.366069 
L 676.424687 213.415923 
L 676.890075 236.16241 
L 677.355463 287.655342 
L 677.820851 286.03785 
L 678.286239 338.987136 
L 678.751626 237.912593 
L 679.217014 261.743443 
L 679.682402 203.226019 
L 680.14779 287.186102 
L 680.613178 270.035056 
L 681.078565 291.959136 
L 681.543953 281.760307 
L 682.009341 263.710844 
L 682.474729 265.11006 
L 682.940117 252.862861 
L 683.405505 313.741262 
L 683.870892 291.6398 
L 684.33628 275.615889 
L 684.801668 297.04432 
L 685.267056 267.338995 
L 685.732444 263.98201 
L 686.197832 267.232539 
L 687.128607 203.100021 
L 687.593995 251.868567 
L 688.059383 270.798788 
L 688.524771 249.351172 
L 688.990158 263.65305 
L 689.455546 237.758794 
L 689.920934 295.25816 
L 690.386322 247.524949 
L 690.85171 235.105228 
L 691.317098 216.04277 
L 691.782485 347.373315 
L 692.247873 262.650411 
L 692.713261 252.745303 
L 693.178649 343.018386 
L 693.644037 272.991435 
L 694.109425 275.225369 
L 694.574812 278.4297 
L 695.0402 276.033527 
L 695.505588 312.001229 
L 695.970976 306.032923 
L 696.436364 232.342067 
L 696.901751 278.495878 
L 697.367139 261.789848 
L 697.832527 260.329627 
L 698.297915 262.361156 
L 698.763303 281.387008 
L 699.228691 308.729111 
L 699.694078 262.487115 
L 700.159466 227.792881 
L 700.624854 269.761688 
L 701.090242 243.269118 
L 701.55563 253.224136 
L 702.021018 257.246574 
L 702.486405 225.795072 
L 702.951793 272.861733 
L 703.417181 303.238854 
L 703.882569 249.496952 
L 704.347957 303.623025 
L 704.813344 262.696474 
L 705.278732 247.895768 
L 705.74412 272.021769 
L 706.209508 307.295308 
L 706.674896 253.556545 
L 707.140284 255.342999 
L 707.605671 281.869965 
L 708.071059 263.913527 
L 708.536447 336.613891 
L 709.001835 167.755449 
L 709.467223 251.329326 
L 709.932611 264.520138 
L 710.397998 302.074047 
L 710.863386 290.377924 
L 711.328774 294.805761 
L 711.794162 256.629775 
L 712.25955 192.829626 
L 712.724937 303.215743 
L 713.190325 259.687777 
L 713.655713 281.650338 
L 714.121101 267.427513 
L 714.586489 322.44425 
L 715.051877 264.903164 
L 715.517264 277.554267 
L 715.982652 285.787315 
L 716.44804 252.644379 
L 716.913428 259.365978 
L 717.378816 257.457722 
L 717.844204 318.759124 
L 718.309591 300.967758 
L 718.774979 240.448092 
L 719.240367 308.530616 
L 719.705755 320.551591 
L 720.171143 236.03816 
L 720.63653 267.199223 
L 721.101918 261.007257 
L 721.567306 290.073243 
L 722.032694 253.525502 
L 722.498082 229.253395 
L 722.96347 302.157845 
L 723.428857 275.904047 
L 723.894245 262.560565 
L 724.359633 260.359049 
L 724.825021 207.545684 
L 725.290409 280.780254 
L 725.755796 236.320453 
L 726.221184 256.618982 
L 726.686572 243.437683 
L 727.15196 249.046404 
L 727.617348 221.850479 
L 728.082736 228.490267 
L 728.548123 274.125858 
L 729.013511 245.778518 
L 729.478899 328.385686 
L 729.944287 281.490905 
L 730.409675 264.296895 
L 730.875063 321.112937 
L 731.34045 206.237315 
L 731.805838 247.587503 
L 732.271226 274.510124 
L 732.736614 343.0595 
L 733.202002 279.500703 
L 733.667389 296.341354 
L 734.132777 250.70961 
L 734.598165 270.281792 
L 735.063553 228.639393 
L 735.994329 274.913464 
L 736.459716 257.015368 
L 736.925104 252.482816 
L 737.390492 182.819 
L 737.85588 288.644145 
L 738.321268 239.976269 
L 738.786656 305.031316 
L 739.252043 291.629294 
L 739.717431 231.984878 
L 740.182819 306.980121 
L 740.648207 297.342794 
L 741.113595 246.573396 
L 741.578982 304.979078 
L 742.04437 231.227806 
L 742.975146 284.205229 
L 743.440534 278.350233 
L 743.905922 294.222849 
L 744.371309 342.717614 
L 744.836697 331.476317 
L 745.302085 341.602922 
L 745.767473 265.864819 
L 746.232861 254.751432 
L 746.698249 339.226623 
L 747.163636 274.658328 
L 747.163636 274.658328 
" clip-path="url(#p029719f396)" style="fill: none; stroke: #ff7f0e; stroke-width: 1.5; stroke-linecap: square"/>
   </g>
   <g id="patch_3">
    <path d="M 108 384.48 
L 108 51.84 
" style="fill: none; stroke: #000000; stroke-width: 0.8; stroke-linejoin: miter; stroke-linecap: square"/>
   </g>
   <g id="patch_4">
    <path d="M 777.6 384.48 
L 777.6 51.84 
" style="fill: none; stroke: #000000; stroke-width: 0.8; stroke-linejoin: miter; stroke-linecap: square"/>
   </g>
   <g id="patch_5">
    <path d="M 108 384.48 
L 777.6 384.48 
" style="fill: none; stroke: #000000; stroke-width: 0.8; stroke-linejoin: miter; stroke-linecap: square"/>
   </g>
   <g id="patch_6">
    <path d="M 108 51.84 
L 777.6 51.84 
" style="fill: none; stroke: #000000; stroke-width: 0.8; stroke-linejoin: miter; stroke-linecap: square"/>
   </g>
   <g id="text_15">
    <!-- Regresso: Real vs Previsto -->
    <g transform="translate(360.520313 45.84) scale(0.12 -0.12)">
     <defs>
      <path id="DejaVuSans-52" d="M 2841 2188 
Q 3044 2119 3236 1894 
Q 3428 1669 3622 1275 
L 4263 0 
L 3584 0 
L 2988 1197 
Q 2756 1666 2539 1819 
Q 2322 1972 1947 1972 
L 1259 1972 
L 1259 0 
L 628 0 
L 628 4666 
L 2053 4666 
Q 2853 4666 3247 4331 
Q 3641 3997 3641 3322 
Q 3641 2881 3436 2590 
Q 3231 2300 2841 2188 
z
M 1259 4147 
L 1259 2491 
L 2053 2491 
Q 2509 2491 2742 2702 
Q 2975 2913 2975 3322 
Q 2975 3731 2742 3939 
Q 2509 4147 2053 4147 
L 1259 4147 
z
" transform="scale(0.015625)"/>
      <path id="DejaVuSans-65" d="M 3597 1894 
L 3597 1613 
L 953 1613 
Q 991 1019 1311 708 
Q 1631 397 2203 397 
Q 2534 397 2845 478 
Q 3156 559 3463 722 
L 3463 178 
Q 3153 47 2828 -22 
Q 2503 -91 2169 -91 
Q 1331 -91 842 396 
Q 353 884 353 1716 
Q 353 2575 817 3079 
Q 1281 3584 2069 3584 
Q 2775 3584 3186 3129 
Q 3597 2675 3597 1894 
z
M 3022 2063 
Q 3016 2534 2758 2815 
Q 2500 3097 2075 3097 
Q 1594 3097 1305 2825 
Q 1016 2553 972 2059 
L 3022 2063 
z
" transform="scale(0.015625)"/>
      <path id="DejaVuSans-67" d="M 2906 1791 
Q 2906 2416 2648 2759 
Q 2391 3103 1925 3103 
Q 1463 3103 1205 2759 
Q 947 2416 947 1791 
Q 947 1169 1205 825 
Q 1463 481 1925 481 
Q 2391 481 2648 825 
Q 2906 1169 2906 1791 
z
M 3481 434 
Q 3481 -459 3084 -895 
Q 2688 -1331 1869 -1331 
Q 1566 -1331 1297 -1286 
Q 1028 -1241 775 -1147 
L 775 -588 
Q 1028 -725 1275 -790 
Q 1522 -856 1778 -856 
Q 2344 -856 2625 -561 
Q 2906 -266 2906 331 
L 2906 616 
Q 2728 306 2450 153 
Q 2172 0 1784 0 
Q 1141 0 747 490 
Q 353 981 353 1791 
Q 353 2603 747 3093 
Q 1141 3584 1784 3584 
Q 2172 3584 2450 3431 
Q 2728 3278 2906 2969 
L 2906 3500 
L 3481 3500 
L 3481 434 
z
" transform="scale(0.015625)"/>
      <path id="DejaVuSans-72" d="M 2631 2963 
Q 2534 3019 2420 3045 
Q 2306 3072 2169 3072 
Q 1681 3072 1420 2755 
Q 1159 2438 1159 1844 
L 1159 0 
L 581 0 
L 581 3500 
L 1159 3500 
L 1159 2956 
Q 1341 3275 1631 3429 
Q 1922 3584 2338 3584 
Q 2397 3584 2469 3576 
Q 2541 3569 2628 3553 
L 2631 2963 
z
" transform="scale(0.015625)"/>
      <path id="DejaVuSans-73" d="M 2834 3397 
L 2834 2853 
Q 2591 2978 2328 3040 
Q 2066 3103 1784 3103 
Q 1356 3103 1142 2972 
Q 928 2841 928 2578 
Q 928 2378 1081 2264 
Q 1234 2150 1697 2047 
L 1894 2003 
Q 2506 1872 2764 1633 
Q 3022 1394 3022 966 
Q 3022 478 2636 193 
Q 2250 -91 1575 -91 
Q 1294 -91 989 -36 
Q 684 19 347 128 
L 347 722 
Q 666 556 975 473 
Q 1284 391 1588 391 
Q 1994 391 2212 530 
Q 2431 669 2431 922 
Q 2431 1156 2273 1281 
Q 2116 1406 1581 1522 
L 1381 1569 
Q 847 1681 609 1914 
Q 372 2147 372 2553 
Q 372 3047 722 3315 
Q 1072 3584 1716 3584 
Q 2034 3584 2315 3537 
Q 2597 3491 2834 3397 
z
" transform="scale(0.015625)"/>
      <path id="DejaVuSans-e3" d="M 2194 1759 
Q 1497 1759 1228 1600 
Q 959 1441 959 1056 
Q 959 750 1161 570 
Q 1363 391 1709 391 
Q 2188 391 2477 730 
Q 2766 1069 2766 1631 
L 2766 1759 
L 2194 1759 
z
M 3341 1997 
L 3341 0 
L 2766 0 
L 2766 531 
Q 2569 213 2275 61 
Q 1981 -91 1556 -91 
Q 1019 -91 701 211 
Q 384 513 384 1019 
Q 384 1609 779 1909 
Q 1175 2209 1959 2209 
L 2766 2209 
L 2766 2266 
Q 2766 2663 2505 2880 
Q 2244 3097 1772 3097 
Q 1472 3097 1187 3025 
Q 903 2953 641 2809 
L 641 3341 
Q 956 3463 1253 3523 
Q 1550 3584 1831 3584 
Q 2591 3584 2966 3190 
Q 3341 2797 3341 1997 
z
M 1844 4281 
L 1665 4453 
Q 1597 4516 1545 4545 
Q 1494 4575 1453 4575 
Q 1334 4575 1278 4461 
Q 1222 4347 1215 4091 
L 825 4091 
Q 831 4513 990 4742 
Q 1150 4972 1434 4972 
Q 1553 4972 1653 4928 
Q 1753 4884 1869 4781 
L 2047 4609 
Q 2115 4547 2167 4517 
Q 2219 4488 2259 4488 
Q 2378 4488 2434 4602 
Q 2490 4716 2497 4972 
L 2887 4972 
Q 2881 4550 2721 4320 
Q 2562 4091 2278 4091 
Q 2159 4091 2059 4134 
Q 1959 4178 1844 4281 
z
" transform="scale(0.015625)"/>
      <path id="DejaVuSans-6f" d="M 1959 3097 
Q 1497 3097 1228 2736 
Q 959 2375 959 1747 
Q 959 1119 1226 758 
Q 1494 397 1959 397 
Q 2419 397 2687 759 
Q 2956 1122 2956 1747 
Q 2956 2369 2687 2733 
Q 2419 3097 1959 3097 
z
M 1959 3584 
Q 2709 3584 3137 3096 
Q 3566 2609 3566 1747 
Q 3566 888 3137 398 
Q 2709 -91 1959 -91 
Q 1206 -91 779 398 
Q 353 888 353 1747 
Q 353 2609 779 3096 
Q 1206 3584 1959 3584 
z
" transform="scale(0.015625)"/>
      <path id="DejaVuSans-3a" d="M 750 794 
L 1409 794 
L 1409 0 
L 750 0 
L 750 794 
z
M 750 3309 
L 1409 3309 
L 1409 2516 
L 750 2516 
L 750 3309 
z
" transform="scale(0.015625)"/>
      <path id="DejaVuSans-20" transform="scale(0.015625)"/>
      <path id="DejaVuSans-61" d="M 2194 1759 
Q 1497 1759 1228 1600 
Q 959 1441 959 1056 
Q 959 750 1161 570 
Q 1363 391 1709 391 
Q 2188 391 2477 730 
Q 2766 1069 2766 1631 
L 2766 1759 
L 2194 1759 
z
M 3341 1997 
L 3341 0 
L 2766 0 
L 2766 531 
Q 2569 213 2275 61 
Q 1981 -91 1556 -91 
Q 1019 -91 701 211 
Q 384 513 384 1019 
Q 384 1609 779 1909 
Q 1175 2209 1959 2209 
L 2766 2209 
L 2766 2266 
Q 2766 2663 2505 2880 
Q 2244 3097 1772 3097 
Q 1472 3097 1187 3025 
Q 903 2953 641 2809 
L 641 3341 
Q 956 3463 1253 3523 
Q 1550 3584 1831 3584 
Q 2591 3584 2966 3190 
Q 3341 2797 3341 1997 
z
" transform="scale(0.015625)"/>
      <path id="DejaVuSans-6c" d="M 603 4863 
L 1178 4863 
L 1178 0 
L 603 0 
L 603 4863 
z
" transform="scale(0.015625)"/>
      <path id="DejaVuSans-76" d="M 191 3500 
L 800 3500 
L 1894 563 
L 2988 3500 
L 3597 3500 
L 2284 0 
L 1503 0 
L 191 3500 
z
" transform="scale(0.015625)"/>
      <path id="DejaVuSans-50" d="M 1259 4147 
L 1259 2394 
L 2053 2394 
Q 2494 2394 2734 2622 
Q 2975 2850 2975 3272 
Q 2975 3691 2734 3919 
Q 2494 4147 2053 4147 
L 1259 4147 
z
M 628 4666 
L 2053 4666 
Q 2838 4666 3239 4311 
Q 3641 3956 3641 3272 
Q 3641 2581 3239 2228 
Q 2838 1875 2053 1875 
L 1259 1875 
L 1259 0 
L 628 0 
L 628 4666 
z
" transform="scale(0.015625)"/>
      <path id="DejaVuSans-69" d="M 603 3500 
L 1178 3500 
L 1178 0 
L 603 0 
L 603 3500 
z
M 603 4863 
L 1178 4863 
L 1178 4134 
L 603 4134 
L 603 4863 
z
" transform="scale(0.015625)"/>
      <path id="DejaVuSans-74" d="M 1172 4494 
L 1172 3500 
L 2356 3500 
L 2356 3053 
L 1172 3053 
L 1172 1153 
Q 1172 725 1289 603 
Q 1406 481 1766 481 
L 2356 481 
L 2356 0 
L 1766 0 
Q 1100 0 847 248 
Q 594 497 594 1153 
L 594 3053 
L 172 3053 
L 172 3500 
L 594 3500 
L 594 4494 
L 1172 4494 
z
" transform="scale(0.015625)"/>
     </defs>
     <use xlink:href="#DejaVuSans-52"/>
     <use xlink:href="#DejaVuSans-65" x="64.982422"/>
     <use xlink:href="#DejaVuSans-67" x="126.505859"/>
     <use xlink:href="#DejaVuSans-72" x="189.982422"/>
     <use xlink:href="#DejaVuSans-65" x="228.845703"/>
     <use xlink:href="#DejaVuSans-73" x="290.369141"/>
     <use xlink:href="#DejaVuSans-73" x="342.46875"/>
     <use xlink:href="#DejaVuSans-e3" x="394.568359"/>
     <use xlink:href="#DejaVuSans-6f" x="455.847656"/>
     <use xlink:href="#DejaVuSans-3a" x="517.029297"/>
     <use xlink:href="#DejaVuSans-20" x="550.720703"/>
     <use xlink:href="#DejaVuSans-52" x="582.507812"/>
     <use xlink:href="#DejaVuSans-65" x="647.490234"/>
     <use xlink:href="#DejaVuSans-61" x="709.013672"/>
     <use xlink:href="#DejaVuSans-6c" x="770.292969"/>
     <use xlink:href="#DejaVuSans-20" x="798.076172"/>
     <use xlink:href="#DejaVuSans-76" x="829.863281"/>
     <use xlink:href="#DejaVuSans-73" x="889.042969"/>
     <use xlink:href="#DejaVuSans-20" x="941.142578"/>
     <use xlink:href="#DejaVuSans-50" x="972.929688"/>
     <use xlink:href="#DejaVuSans-72" x="1031.482422"/>
     <use xlink:href="#DejaVuSans-65" x="1070.345703"/>
     <use xlink:href="#DejaVuSans-76" x="1131.869141"/>
     <use xlink:href="#DejaVuSans-69" x="1191.048828"/>
     <use xlink:href="#DejaVuSans-73" x="1218.832031"/>
     <use xlink:href="#DejaVuSans-74" x="1270.931641"/>
     <use xlink:href="#DejaVuSans-6f" x="1310.140625"/>
    </g>
   </g>
   <g id="legend_1">
    <g id="patch_7">
     <path d="M 672.315625 89.19625 
L 770.6 89.19625 
Q 772.6 89.19625 772.6 87.19625 
L 772.6 58.84 
Q 772.6 56.84 770.6 56.84 
L 672.315625 56.84 
Q 670.315625 56.84 670.315625 58.84 
L 670.315625 87.19625 
Q 670.315625 89.19625 672.315625 89.19625 
z
" style="fill: #ffffff; opacity: 0.8; stroke: #cccccc; stroke-linejoin: miter"/>
    </g>
    <g id="line2d_17">
     <path d="M 674.315625 64.938437 
L 684.315625 64.938437 
L 694.315625 64.938437 
" style="fill: none; stroke: #1f77b4; stroke-width: 1.5; stroke-linecap: square"/>
    </g>
    <g id="text_16">
     <!-- Valores Reais -->
     <g transform="translate(702.315625 68.438437) scale(0.1 -0.1)">
      <defs>
       <path id="DejaVuSans-56" d="M 1831 0 
L 50 4666 
L 709 4666 
L 2188 738 
L 3669 4666 
L 4325 4666 
L 2547 0 
L 1831 0 
z
" transform="scale(0.015625)"/>
      </defs>
      <use xlink:href="#DejaVuSans-56"/>
      <use xlink:href="#DejaVuSans-61" x="60.658203"/>
      <use xlink:href="#DejaVuSans-6c" x="121.9375"/>
      <use xlink:href="#DejaVuSans-6f" x="149.720703"/>
      <use xlink:href="#DejaVuSans-72" x="210.902344"/>
      <use xlink:href="#DejaVuSans-65" x="249.765625"/>
      <use xlink:href="#DejaVuSans-73" x="311.289062"/>
      <use xlink:href="#DejaVuSans-20" x="363.388672"/>
      <use xlink:href="#DejaVuSans-52" x="395.175781"/>
      <use xlink:href="#DejaVuSans-65" x="460.158203"/>
      <use xlink:href="#DejaVuSans-61" x="521.681641"/>
      <use xlink:href="#DejaVuSans-69" x="582.960938"/>
      <use xlink:href="#DejaVuSans-73" x="610.744141"/>
     </g>
    </g>
    <g id="line2d_18">
     <path d="M 674.315625 79.616562 
L 684.315625 79.616562 
L 694.315625 79.616562 
" style="fill: none; stroke: #ff7f0e; stroke-width: 1.5; stroke-linecap: square"/>
    </g>
    <g id="text_17">
     <!-- Previses -->
     <g transform="translate(702.315625 83.116562) scale(0.1 -0.1)">
      <defs>
       <path id="DejaVuSans-f5" d="M 1959 3097 
Q 1497 3097 1228 2736 
Q 959 2375 959 1747 
Q 959 1119 1226 758 
Q 1494 397 1959 397 
Q 2419 397 2687 759 
Q 2956 1122 2956 1747 
Q 2956 2369 2687 2733 
Q 2419 3097 1959 3097 
z
M 1959 3584 
Q 2709 3584 3137 3096 
Q 3566 2609 3566 1747 
Q 3566 888 3137 398 
Q 2709 -91 1959 -91 
Q 1206 -91 779 398 
Q 353 888 353 1747 
Q 353 2609 779 3096 
Q 1206 3584 1959 3584 
z
M 1948 4281 
L 1769 4453 
Q 1701 4516 1649 4545 
Q 1598 4575 1557 4575 
Q 1438 4575 1382 4461 
Q 1326 4347 1319 4091 
L 929 4091 
Q 935 4513 1094 4742 
Q 1254 4972 1538 4972 
Q 1657 4972 1757 4928 
Q 1857 4884 1973 4781 
L 2151 4609 
Q 2219 4547 2271 4517 
Q 2323 4488 2363 4488 
Q 2482 4488 2538 4602 
Q 2594 4716 2601 4972 
L 2991 4972 
Q 2985 4550 2825 4320 
Q 2666 4091 2382 4091 
Q 2263 4091 2163 4134 
Q 2063 4178 1948 4281 
z
" transform="scale(0.015625)"/>
      </defs>
      <use xlink:href="#DejaVuSans-50"/>
      <use xlink:href="#DejaVuSans-72" x="58.552734"/>
      <use xlink:href="#DejaVuSans-65" x="97.416016"/>
      <use xlink:href="#DejaVuSans-76" x="158.939453"/>
      <use xlink:href="#DejaVuSans-69" x="218.119141"/>
      <use xlink:href="#DejaVuSans-73" x="245.902344"/>
      <use xlink:href="#DejaVuSans-f5" x="298.001953"/>
      <use xlink:href="#DejaVuSans-65" x="359.183594"/>
      <use xlink:href="#DejaVuSans-73" x="420.707031"/>
     </g>
    </g>
   </g>
  </g>
 </g>
 <defs>
  <clipPath id="p029719f396">
   <rect x="108" y="51.84" width="669.6" height="332.64"/>
  </clipPath>
 </defs>
</svg>
