<?xml version="1.0" encoding="utf-8" standalone="no"?>
<!DOCTYPE svg PUBLIC "-//W3C//DTD SVG 1.1//EN"
  "http://www.w3.org/Graphics/SVG/1.1/DTD/svg11.dtd">
<svg xmlns:xlink="http://www.w3.org/1999/xlink" width="864pt" height="432pt" viewBox="0 0 864 432" xmlns="http://www.w3.org/2000/svg" version="1.1">
 <metadata>
  <rdf:RDF xmlns:dc="http://purl.org/dc/elements/1.1/" xmlns:cc="http://creativecommons.org/ns#" xmlns:rdf="http://www.w3.org/1999/02/22-rdf-syntax-ns#">
   <cc:Work>
    <dc:type rdf:resource="http://purl.org/dc/dcmitype/StillImage"/>
    <dc:date>2024-12-06T19:29:59.676282</dc:date>
    <dc:format>image/svg+xml</dc:format>
    <dc:creator>
     <cc:Agent>
      <dc:title>Matplotlib v3.9.2, https://matplotlib.org/</dc:title>
     </cc:Agent>
    </dc:creator>
   </cc:Work>
  </rdf:RDF>
 </metadata>
 <defs>
  <style type="text/css">*{stroke-linejoin: round; stroke-linecap: butt}</style>
 </defs>
 <g id="figure_1">
  <g id="patch_1">
   <path d="M 0 432 
L 864 432 
L 864 0 
L 0 0 
z
" style="fill: #ffffff"/>
  </g>
  <g id="axes_1">
   <g id="patch_2">
    <path d="M 108 384.48 
L 777.6 384.48 
L 777.6 51.84 
L 108 51.84 
z
" style="fill: #ffffff"/>
   </g>
   <g id="matplotlib.axis_1">
    <g id="xtick_1">
     <g id="line2d_1">
      <defs>
       <path id="m7ef2527593" d="M 0 0 
L 0 3.5 
" style="stroke: #000000; stroke-width: 0.8"/>
      </defs>
      <g>
       <use xlink:href="#m7ef2527593" x="138.436364" y="384.48" style="stroke: #000000; stroke-width: 0.8"/>
      </g>
     </g>
     <g id="text_1">
      <!-- 0 -->
      <g transform="translate(135.255114 399.078438) scale(0.1 -0.1)">
       <defs>
        <path id="DejaVuSans-30" d="M 2034 4250 
Q 1547 4250 1301 3770 
Q 1056 3291 1056 2328 
Q 1056 1369 1301 889 
Q 1547 409 2034 409 
Q 2525 409 2770 889 
Q 3016 1369 3016 2328 
Q 3016 3291 2770 3770 
Q 2525 4250 2034 4250 
z
M 2034 4750 
Q 2819 4750 3233 4129 
Q 3647 3509 3647 2328 
Q 3647 1150 3233 529 
Q 2819 -91 2034 -91 
Q 1250 -91 836 529 
Q 422 1150 422 2328 
Q 422 3509 836 4129 
Q 1250 4750 2034 4750 
z
" transform="scale(0.015625)"/>
       </defs>
       <use xlink:href="#DejaVuSans-30"/>
      </g>
     </g>
    </g>
    <g id="xtick_2">
     <g id="line2d_2">
      <g>
       <use xlink:href="#m7ef2527593" x="231.513928" y="384.48" style="stroke: #000000; stroke-width: 0.8"/>
      </g>
     </g>
     <g id="text_2">
      <!-- 200 -->
      <g transform="translate(221.970178 399.078438) scale(0.1 -0.1)">
       <defs>
        <path id="DejaVuSans-32" d="M 1228 531 
L 3431 531 
L 3431 0 
L 469 0 
L 469 531 
Q 828 903 1448 1529 
Q 2069 2156 2228 2338 
Q 2531 2678 2651 2914 
Q 2772 3150 2772 3378 
Q 2772 3750 2511 3984 
Q 2250 4219 1831 4219 
Q 1534 4219 1204 4116 
Q 875 4013 500 3803 
L 500 4441 
Q 881 4594 1212 4672 
Q 1544 4750 1819 4750 
Q 2544 4750 2975 4387 
Q 3406 4025 3406 3419 
Q 3406 3131 3298 2873 
Q 3191 2616 2906 2266 
Q 2828 2175 2409 1742 
Q 1991 1309 1228 531 
z
" transform="scale(0.015625)"/>
       </defs>
       <use xlink:href="#DejaVuSans-32"/>
       <use xlink:href="#DejaVuSans-30" x="63.623047"/>
       <use xlink:href="#DejaVuSans-30" x="127.246094"/>
      </g>
     </g>
    </g>
    <g id="xtick_3">
     <g id="line2d_3">
      <g>
       <use xlink:href="#m7ef2527593" x="324.591493" y="384.48" style="stroke: #000000; stroke-width: 0.8"/>
      </g>
     </g>
     <g id="text_3">
      <!-- 400 -->
      <g transform="translate(315.047743 399.078438) scale(0.1 -0.1)">
       <defs>
        <path id="DejaVuSans-34" d="M 2419 4116 
L 825 1625 
L 2419 1625 
L 2419 4116 
z
M 2253 4666 
L 3047 4666 
L 3047 1625 
L 3713 1625 
L 3713 1100 
L 3047 1100 
L 3047 0 
L 2419 0 
L 2419 1100 
L 313 1100 
L 313 1709 
L 2253 4666 
z
" transform="scale(0.015625)"/>
       </defs>
       <use xlink:href="#DejaVuSans-34"/>
       <use xlink:href="#DejaVuSans-30" x="63.623047"/>
       <use xlink:href="#DejaVuSans-30" x="127.246094"/>
      </g>
     </g>
    </g>
    <g id="xtick_4">
     <g id="line2d_4">
      <g>
       <use xlink:href="#m7ef2527593" x="417.669058" y="384.48" style="stroke: #000000; stroke-width: 0.8"/>
      </g>
     </g>
     <g id="text_4">
      <!-- 600 -->
      <g transform="translate(408.125308 399.078438) scale(0.1 -0.1)">
       <defs>
        <path id="DejaVuSans-36" d="M 2113 2584 
Q 1688 2584 1439 2293 
Q 1191 2003 1191 1497 
Q 1191 994 1439 701 
Q 1688 409 2113 409 
Q 2538 409 2786 701 
Q 3034 994 3034 1497 
Q 3034 2003 2786 2293 
Q 2538 2584 2113 2584 
z
M 3366 4563 
L 3366 3988 
Q 3128 4100 2886 4159 
Q 2644 4219 2406 4219 
Q 1781 4219 1451 3797 
Q 1122 3375 1075 2522 
Q 1259 2794 1537 2939 
Q 1816 3084 2150 3084 
Q 2853 3084 3261 2657 
Q 3669 2231 3669 1497 
Q 3669 778 3244 343 
Q 2819 -91 2113 -91 
Q 1303 -91 875 529 
Q 447 1150 447 2328 
Q 447 3434 972 4092 
Q 1497 4750 2381 4750 
Q 2619 4750 2861 4703 
Q 3103 4656 3366 4563 
z
" transform="scale(0.015625)"/>
       </defs>
       <use xlink:href="#DejaVuSans-36"/>
       <use xlink:href="#DejaVuSans-30" x="63.623047"/>
       <use xlink:href="#DejaVuSans-30" x="127.246094"/>
      </g>
     </g>
    </g>
    <g id="xtick_5">
     <g id="line2d_5">
      <g>
       <use xlink:href="#m7ef2527593" x="510.746622" y="384.48" style="stroke: #000000; stroke-width: 0.8"/>
      </g>
     </g>
     <g id="text_5">
      <!-- 800 -->
      <g transform="translate(501.202872 399.078438) scale(0.1 -0.1)">
       <defs>
        <path id="DejaVuSans-38" d="M 2034 2216 
Q 1584 2216 1326 1975 
Q 1069 1734 1069 1313 
Q 1069 891 1326 650 
Q 1584 409 2034 409 
Q 2484 409 2743 651 
Q 3003 894 3003 1313 
Q 3003 1734 2745 1975 
Q 2488 2216 2034 2216 
z
M 1403 2484 
Q 997 2584 770 2862 
Q 544 3141 544 3541 
Q 544 4100 942 4425 
Q 1341 4750 2034 4750 
Q 2731 4750 3128 4425 
Q 3525 4100 3525 3541 
Q 3525 3141 3298 2862 
Q 3072 2584 2669 2484 
Q 3125 2378 3379 2068 
Q 3634 1759 3634 1313 
Q 3634 634 3220 271 
Q 2806 -91 2034 -91 
Q 1263 -91 848 271 
Q 434 634 434 1313 
Q 434 1759 690 2068 
Q 947 2378 1403 2484 
z
M 1172 3481 
Q 1172 3119 1398 2916 
Q 1625 2713 2034 2713 
Q 2441 2713 2670 2916 
Q 2900 3119 2900 3481 
Q 2900 3844 2670 4047 
Q 2441 4250 2034 4250 
Q 1625 4250 1398 4047 
Q 1172 3844 1172 3481 
z
" transform="scale(0.015625)"/>
       </defs>
       <use xlink:href="#DejaVuSans-38"/>
       <use xlink:href="#DejaVuSans-30" x="63.623047"/>
       <use xlink:href="#DejaVuSans-30" x="127.246094"/>
      </g>
     </g>
    </g>
    <g id="xtick_6">
     <g id="line2d_6">
      <g>
       <use xlink:href="#m7ef2527593" x="603.824187" y="384.48" style="stroke: #000000; stroke-width: 0.8"/>
      </g>
     </g>
     <g id="text_6">
      <!-- 1000 -->
      <g transform="translate(591.099187 399.078438) scale(0.1 -0.1)">
       <defs>
        <path id="DejaVuSans-31" d="M 794 531 
L 1825 531 
L 1825 4091 
L 703 3866 
L 703 4441 
L 1819 4666 
L 2450 4666 
L 2450 531 
L 3481 531 
L 3481 0 
L 794 0 
L 794 531 
z
" transform="scale(0.015625)"/>
       </defs>
       <use xlink:href="#DejaVuSans-31"/>
       <use xlink:href="#DejaVuSans-30" x="63.623047"/>
       <use xlink:href="#DejaVuSans-30" x="127.246094"/>
       <use xlink:href="#DejaVuSans-30" x="190.869141"/>
      </g>
     </g>
    </g>
    <g id="xtick_7">
     <g id="line2d_7">
      <g>
       <use xlink:href="#m7ef2527593" x="696.901751" y="384.48" style="stroke: #000000; stroke-width: 0.8"/>
      </g>
     </g>
     <g id="text_7">
      <!-- 1200 -->
      <g transform="translate(684.176751 399.078438) scale(0.1 -0.1)">
       <use xlink:href="#DejaVuSans-31"/>
       <use xlink:href="#DejaVuSans-32" x="63.623047"/>
       <use xlink:href="#DejaVuSans-30" x="127.246094"/>
       <use xlink:href="#DejaVuSans-30" x="190.869141"/>
      </g>
     </g>
    </g>
   </g>
   <g id="matplotlib.axis_2">
    <g id="ytick_1">
     <g id="line2d_8">
      <defs>
       <path id="me9ce6722df" d="M 0 0 
L -3.5 0 
" style="stroke: #000000; stroke-width: 0.8"/>
      </defs>
      <g>
       <use xlink:href="#me9ce6722df" x="108" y="374.085" style="stroke: #000000; stroke-width: 0.8"/>
      </g>
     </g>
     <g id="text_8">
      <!-- 0 -->
      <g transform="translate(94.6375 377.884219) scale(0.1 -0.1)">
       <use xlink:href="#DejaVuSans-30"/>
      </g>
     </g>
    </g>
    <g id="ytick_2">
     <g id="line2d_9">
      <g>
       <use xlink:href="#me9ce6722df" x="108" y="322.000748" style="stroke: #000000; stroke-width: 0.8"/>
      </g>
     </g>
     <g id="text_9">
      <!-- 50 -->
      <g transform="translate(88.275 325.799967) scale(0.1 -0.1)">
       <defs>
        <path id="DejaVuSans-35" d="M 691 4666 
L 3169 4666 
L 3169 4134 
L 1269 4134 
L 1269 2991 
Q 1406 3038 1543 3061 
Q 1681 3084 1819 3084 
Q 2600 3084 3056 2656 
Q 3513 2228 3513 1497 
Q 3513 744 3044 326 
Q 2575 -91 1722 -91 
Q 1428 -91 1123 -41 
Q 819 9 494 109 
L 494 744 
Q 775 591 1075 516 
Q 1375 441 1709 441 
Q 2250 441 2565 725 
Q 2881 1009 2881 1497 
Q 2881 1984 2565 2268 
Q 2250 2553 1709 2553 
Q 1456 2553 1204 2497 
Q 953 2441 691 2322 
L 691 4666 
z
" transform="scale(0.015625)"/>
       </defs>
       <use xlink:href="#DejaVuSans-35"/>
       <use xlink:href="#DejaVuSans-30" x="63.623047"/>
      </g>
     </g>
    </g>
    <g id="ytick_3">
     <g id="line2d_10">
      <g>
       <use xlink:href="#me9ce6722df" x="108" y="269.916496" style="stroke: #000000; stroke-width: 0.8"/>
      </g>
     </g>
     <g id="text_10">
      <!-- 100 -->
      <g transform="translate(81.9125 273.715715) scale(0.1 -0.1)">
       <use xlink:href="#DejaVuSans-31"/>
       <use xlink:href="#DejaVuSans-30" x="63.623047"/>
       <use xlink:href="#DejaVuSans-30" x="127.246094"/>
      </g>
     </g>
    </g>
    <g id="ytick_4">
     <g id="line2d_11">
      <g>
       <use xlink:href="#me9ce6722df" x="108" y="217.832244" style="stroke: #000000; stroke-width: 0.8"/>
      </g>
     </g>
     <g id="text_11">
      <!-- 150 -->
      <g transform="translate(81.9125 221.631463) scale(0.1 -0.1)">
       <use xlink:href="#DejaVuSans-31"/>
       <use xlink:href="#DejaVuSans-35" x="63.623047"/>
       <use xlink:href="#DejaVuSans-30" x="127.246094"/>
      </g>
     </g>
    </g>
    <g id="ytick_5">
     <g id="line2d_12">
      <g>
       <use xlink:href="#me9ce6722df" x="108" y="165.747992" style="stroke: #000000; stroke-width: 0.8"/>
      </g>
     </g>
     <g id="text_12">
      <!-- 200 -->
      <g transform="translate(81.9125 169.547211) scale(0.1 -0.1)">
       <use xlink:href="#DejaVuSans-32"/>
       <use xlink:href="#DejaVuSans-30" x="63.623047"/>
       <use xlink:href="#DejaVuSans-30" x="127.246094"/>
      </g>
     </g>
    </g>
    <g id="ytick_6">
     <g id="line2d_13">
      <g>
       <use xlink:href="#me9ce6722df" x="108" y="113.66374" style="stroke: #000000; stroke-width: 0.8"/>
      </g>
     </g>
     <g id="text_13">
      <!-- 250 -->
      <g transform="translate(81.9125 117.462959) scale(0.1 -0.1)">
       <use xlink:href="#DejaVuSans-32"/>
       <use xlink:href="#DejaVuSans-35" x="63.623047"/>
       <use xlink:href="#DejaVuSans-30" x="127.246094"/>
      </g>
     </g>
    </g>
    <g id="ytick_7">
     <g id="line2d_14">
      <g>
       <use xlink:href="#me9ce6722df" x="108" y="61.579488" style="stroke: #000000; stroke-width: 0.8"/>
      </g>
     </g>
     <g id="text_14">
      <!-- 300 -->
      <g transform="translate(81.9125 65.378707) scale(0.1 -0.1)">
       <defs>
        <path id="DejaVuSans-33" d="M 2597 2516 
Q 3050 2419 3304 2112 
Q 3559 1806 3559 1356 
Q 3559 666 3084 287 
Q 2609 -91 1734 -91 
Q 1441 -91 1130 -33 
Q 819 25 488 141 
L 488 750 
Q 750 597 1062 519 
Q 1375 441 1716 441 
Q 2309 441 2620 675 
Q 2931 909 2931 1356 
Q 2931 1769 2642 2001 
Q 2353 2234 1838 2234 
L 1294 2234 
L 1294 2753 
L 1863 2753 
Q 2328 2753 2575 2939 
Q 2822 3125 2822 3475 
Q 2822 3834 2567 4026 
Q 2313 4219 1838 4219 
Q 1578 4219 1281 4162 
Q 984 4106 628 3988 
L 628 4550 
Q 988 4650 1302 4700 
Q 1616 4750 1894 4750 
Q 2613 4750 3031 4423 
Q 3450 4097 3450 3541 
Q 3450 3153 3228 2886 
Q 3006 2619 2597 2516 
z
" transform="scale(0.015625)"/>
       </defs>
       <use xlink:href="#DejaVuSans-33"/>
       <use xlink:href="#DejaVuSans-30" x="63.623047"/>
       <use xlink:href="#DejaVuSans-30" x="127.246094"/>
      </g>
     </g>
    </g>
   </g>
   <g id="line2d_15">
    <path d="M 138.436364 350.46 
L 138.901751 345.735 
L 139.367139 251.235 
L 139.832527 355.185 
L 140.297915 211.0725 
L 140.763303 267.7725 
L 141.228691 289.035 
L 141.694078 279.585 
L 142.159466 352.8225 
L 142.624854 76.41 
L 143.090242 201.6225 
L 143.55563 239.4225 
L 144.021018 267.7725 
L 144.486405 246.51 
L 144.951793 253.5975 
L 145.417181 225.2475 
L 145.882569 267.7725 
L 146.347957 265.41 
L 146.813344 319.7475 
L 147.278732 201.6225 
L 147.74412 341.01 
L 148.209508 267.7725 
L 149.140284 267.7725 
L 149.605671 244.1475 
L 150.071059 244.1475 
L 150.536447 341.01 
L 151.001835 213.435 
L 151.467223 218.16 
L 151.932611 208.71 
L 152.397998 85.86 
L 152.863386 281.9475 
L 153.328774 267.7725 
L 153.794162 199.26 
L 154.25955 258.3225 
L 154.724937 199.26 
L 155.190325 244.1475 
L 155.655713 208.71 
L 156.121101 331.56 
L 156.586489 225.2475 
L 157.051877 199.26 
L 157.517264 201.6225 
L 157.982652 263.0475 
L 158.44804 100.035 
L 158.913428 338.6475 
L 159.378816 350.46 
L 159.844204 187.4475 
L 160.309591 213.435 
L 160.774979 319.7475 
L 161.240367 161.46 
L 161.705755 346.91625 
L 162.171143 350.46 
L 162.63653 118.935 
L 163.101918 267.7725 
L 163.567306 244.1475 
L 164.032694 253.5975 
L 164.498082 201.6225 
L 165.428857 319.7475 
L 165.894245 201.6225 
L 166.359633 279.585 
L 166.825021 267.7725 
L 167.290409 345.735 
L 167.755796 208.71 
L 168.221184 187.4475 
L 168.686572 274.86 
L 169.15196 270.135 
L 169.617348 284.31 
L 170.082736 85.86 
L 170.548123 355.185 
L 171.013511 258.3225 
L 171.478899 201.6225 
L 172.409675 267.7725 
L 172.875063 267.7725 
L 173.34045 244.1475 
L 173.805838 317.385 
L 174.271226 244.1475 
L 174.736614 336.285 
L 175.202002 310.2975 
L 175.667389 192.1725 
L 176.132777 201.6225 
L 177.063553 293.76 
L 177.528941 263.0475 
L 177.994329 246.51 
L 178.459716 267.7725 
L 178.925104 355.185 
L 179.390492 350.46 
L 179.85588 258.3225 
L 180.321268 313.84125 
L 180.786656 350.46 
L 181.252043 118.935 
L 181.717431 341.01 
L 182.182819 336.285 
L 182.648207 258.3225 
L 183.113595 263.0475 
L 183.578982 95.31 
L 184.04437 270.135 
L 184.975146 237.06 
L 185.440534 246.51 
L 185.905922 246.51 
L 186.371309 307.935 
L 186.836697 244.1475 
L 187.302085 201.6225 
L 187.767473 267.7725 
L 188.232861 213.435 
L 188.698249 201.6225 
L 189.163636 312.66 
L 189.629024 338.6475 
L 190.094412 326.835 
L 190.5598 218.16 
L 191.490575 310.2975 
L 191.955963 234.6975 
L 192.421351 222.885 
L 192.886739 329.1975 
L 193.352127 265.41 
L 193.817515 161.46 
L 194.282902 201.6225 
L 194.74829 222.885 
L 195.213678 362.2725 
L 195.679066 241.785 
L 196.144454 336.285 
L 196.609842 227.61 
L 197.075229 362.2725 
L 197.540617 213.435 
L 198.006005 192.1725 
L 198.471393 225.2475 
L 199.402168 312.66 
L 199.867556 225.2475 
L 200.332944 225.2475 
L 200.798332 267.7725 
L 201.26372 244.1475 
L 201.729108 366.9975 
L 202.194495 341.01 
L 202.659883 350.46 
L 203.125271 322.11 
L 203.590659 246.51 
L 204.056047 90.585 
L 204.521435 263.0475 
L 204.986822 350.46 
L 205.917598 359.91 
L 206.382986 348.0975 
L 206.848374 237.06 
L 207.313761 239.4225 
L 207.779149 263.0475 
L 208.244537 232.335 
L 208.709925 289.035 
L 209.175313 248.8725 
L 209.640701 324.4725 
L 210.106088 244.1475 
L 210.571476 251.235 
L 211.036864 270.135 
L 211.502252 350.46 
L 211.96764 244.1475 
L 212.433028 192.1725 
L 212.898415 244.1475 
L 213.363803 350.46 
L 213.829191 267.7725 
L 214.294579 244.1475 
L 214.759967 246.51 
L 215.225354 350.46 
L 215.690742 201.6225 
L 216.15613 199.26 
L 217.086906 308.88 
L 217.552294 312.66 
L 218.017681 225.2475 
L 218.483069 312.66 
L 218.948457 312.66 
L 219.413845 289.035 
L 219.879233 336.285 
L 220.344621 366.9975 
L 220.810008 336.285 
L 221.275396 215.7975 
L 221.740784 312.66 
L 222.206172 307.935 
L 222.67156 293.76 
L 223.136947 265.41 
L 223.602335 267.7725 
L 224.067723 255.96 
L 224.533111 286.6725 
L 224.998499 213.435 
L 225.463887 341.01 
L 225.929274 244.1475 
L 226.394662 293.76 
L 226.86005 225.2475 
L 227.325438 85.86 
L 227.790826 286.6725 
L 228.256214 225.2475 
L 228.721601 357.5475 
L 229.186989 317.385 
L 229.652377 359.91 
L 230.117765 350.46 
L 230.583153 225.2475 
L 231.04854 244.1475 
L 231.513928 255.96 
L 231.979316 341.01 
L 232.444704 187.4475 
L 232.910092 345.2625 
L 233.37548 95.31 
L 233.840867 267.7725 
L 234.306255 225.2475 
L 234.771643 222.885 
L 235.237031 244.1475 
L 235.702419 293.76 
L 236.167807 211.0725 
L 236.633194 241.785 
L 237.098582 319.7475 
L 237.56397 336.285 
L 238.494746 109.485 
L 238.960133 358.72875 
L 239.425521 279.585 
L 239.890909 244.1475 
L 240.356297 260.685 
L 240.821685 225.2475 
L 241.287073 258.3225 
L 241.75246 66.96 
L 242.217848 315.0225 
L 242.683236 263.0475 
L 243.148624 66.96 
L 243.614012 267.7725 
L 244.079399 341.01 
L 244.544787 244.1475 
L 245.010175 260.685 
L 245.475563 333.9225 
L 245.940951 244.1475 
L 246.406339 263.0475 
L 246.871726 362.2725 
L 247.337114 248.8725 
L 247.802502 239.4225 
L 248.26789 253.5975 
L 248.733278 260.685 
L 249.198666 196.8975 
L 249.664053 260.685 
L 250.129441 206.3475 
L 250.594829 307.935 
L 251.060217 267.7725 
L 251.525605 312.66 
L 251.990992 244.1475 
L 252.45638 220.5225 
L 252.921768 364.635 
L 253.387156 312.66 
L 253.852544 362.2725 
L 254.317932 95.31 
L 254.783319 267.7725 
L 255.248707 333.9225 
L 255.714095 239.4225 
L 256.179483 307.935 
L 256.644871 350.46 
L 257.110259 310.2975 
L 257.575646 229.9725 
L 258.041034 345.735 
L 258.506422 118.935 
L 258.97181 244.1475 
L 259.437198 244.1475 
L 259.902585 258.3225 
L 260.367973 196.8975 
L 260.833361 307.935 
L 261.298749 211.0725 
L 261.764137 286.6725 
L 262.229525 258.3225 
L 262.694912 206.3475 
L 263.1603 286.6725 
L 263.625688 258.3225 
L 264.091076 244.1475 
L 265.021852 336.285 
L 265.487239 317.385 
L 266.418015 248.8725 
L 266.883403 341.01 
L 267.348791 244.1475 
L 267.814178 211.0725 
L 268.279566 342.19125 
L 268.744954 350.46 
L 269.210342 329.1975 
L 270.141118 229.9725 
L 270.606505 324.4725 
L 271.071893 350.46 
L 271.537281 244.1475 
L 272.002669 281.9475 
L 272.933445 225.2475 
L 273.398832 244.1475 
L 273.86422 211.0725 
L 274.329608 225.2475 
L 274.794996 362.2725 
L 275.260384 258.3225 
L 275.725771 95.31 
L 276.191159 244.1475 
L 276.656547 161.46 
L 277.121935 244.1475 
L 277.587323 137.835 
L 278.052711 336.285 
L 278.518098 345.735 
L 278.983486 196.8975 
L 279.448874 201.6225 
L 279.914262 267.7725 
L 280.37965 234.6975 
L 280.845038 248.8725 
L 281.310425 220.5225 
L 281.775813 234.6975 
L 282.241201 95.31 
L 282.706589 345.735 
L 283.171977 333.9225 
L 283.637364 355.185 
L 284.102752 338.6475 
L 284.56814 213.435 
L 285.033528 270.135 
L 285.498916 118.935 
L 285.964304 338.6475 
L 286.429691 260.685 
L 286.895079 253.5975 
L 287.825855 357.5475 
L 288.291243 137.835 
L 288.756631 263.0475 
L 289.222018 244.1475 
L 289.687406 260.685 
L 290.152794 246.51 
L 290.618182 326.835 
L 291.08357 255.96 
L 291.548957 331.56 
L 292.014345 260.685 
L 292.479733 76.41 
L 292.945121 211.0725 
L 293.410509 310.2975 
L 293.875897 267.7725 
L 294.341284 253.5975 
L 294.806672 331.56 
L 295.737448 194.535 
L 296.202836 265.41 
L 296.668224 312.66 
L 297.133611 237.06 
L 297.598999 317.385 
L 298.064387 263.0475 
L 298.529775 244.1475 
L 298.995163 258.3225 
L 299.46055 137.835 
L 299.925938 239.4225 
L 300.391326 199.26 
L 300.856714 118.935 
L 301.322102 248.8725 
L 301.78749 317.385 
L 302.252877 258.3225 
L 302.718265 260.685 
L 303.183653 244.1475 
L 303.649041 206.3475 
L 304.114429 312.66 
L 304.579817 270.135 
L 305.045204 350.46 
L 305.510592 357.5475 
L 306.441368 218.16 
L 306.906756 258.3225 
L 307.372143 244.1475 
L 307.837531 333.9225 
L 308.302919 215.7975 
L 308.768307 270.135 
L 309.233695 137.835 
L 309.699083 173.2725 
L 310.16447 350.46 
L 310.629858 343.3725 
L 311.095246 329.1975 
L 311.560634 100.035 
L 312.026022 267.7725 
L 312.49141 244.1475 
L 312.956797 267.7725 
L 313.422185 263.0475 
L 313.887573 208.71 
L 314.352961 355.185 
L 314.818349 267.7725 
L 315.283736 267.7725 
L 315.749124 244.1475 
L 316.214512 265.41 
L 316.6799 244.1475 
L 317.145288 196.8975 
L 317.610676 350.46 
L 318.076063 307.935 
L 318.541451 344.55375 
L 319.006839 267.7725 
L 319.472227 265.41 
L 319.937615 237.06 
L 320.403003 361.09125 
L 320.86839 201.6225 
L 321.799166 333.9225 
L 322.264554 161.46 
L 322.729942 182.7225 
L 323.195329 239.4225 
L 323.660717 310.2975 
L 324.591493 225.2475 
L 325.056881 258.3225 
L 325.522269 234.6975 
L 325.987656 281.9475 
L 326.453044 350.46 
L 326.918432 267.7725 
L 327.38382 291.3975 
L 327.849208 215.7975 
L 328.314595 355.185 
L 328.779983 350.46 
L 329.245371 251.235 
L 329.710759 349.27875 
L 330.176147 161.46 
L 330.641535 237.06 
L 331.106922 356.36625 
L 331.57231 260.685 
L 332.037698 196.8975 
L 332.503086 312.66 
L 332.968474 324.4725 
L 333.433862 341.01 
L 333.899249 76.41 
L 334.364637 312.66 
L 334.830025 187.4475 
L 335.295413 350.46 
L 335.760801 312.66 
L 336.226188 331.56 
L 336.691576 312.66 
L 337.156964 350.46 
L 337.622352 358.72875 
L 338.08774 267.7725 
L 338.553128 208.71 
L 339.018515 194.535 
L 339.483903 234.6975 
L 339.949291 237.06 
L 340.414679 194.535 
L 340.880067 203.985 
L 341.345455 345.735 
L 341.810842 201.6225 
L 342.27623 234.6975 
L 342.741618 215.7975 
L 343.207006 263.0475 
L 343.672394 100.035 
L 344.137781 234.6975 
L 344.603169 319.7475 
L 345.068557 253.5975 
L 345.999333 366.9975 
L 346.464721 293.76 
L 346.930108 315.0225 
L 347.395496 241.785 
L 347.860884 341.01 
L 348.326272 196.8975 
L 348.79166 267.7725 
L 349.257048 284.31 
L 349.722435 317.385 
L 350.187823 284.31 
L 350.653211 364.635 
L 351.118599 114.21 
L 351.583987 232.335 
L 352.049374 267.7725 
L 352.514762 286.6725 
L 352.98015 215.7975 
L 353.445538 350.46 
L 353.910926 310.2975 
L 354.376314 206.3475 
L 354.841701 267.7725 
L 355.307089 206.3475 
L 355.772477 357.5475 
L 356.237865 274.86 
L 356.703253 244.1475 
L 357.168641 317.385 
L 357.634028 244.1475 
L 358.099416 315.0225 
L 358.564804 331.56 
L 359.030192 317.385 
L 359.49558 71.685 
L 359.960967 329.1975 
L 360.426355 315.0225 
L 360.891743 215.7975 
L 361.357131 310.2975 
L 361.822519 352.8225 
L 362.753294 192.1725 
L 363.218682 189.81 
L 363.68407 215.7975 
L 364.149458 213.435 
L 364.614846 303.21 
L 365.080234 251.235 
L 365.545621 255.96 
L 366.011009 345.735 
L 366.476397 342.19125 
L 366.941785 336.285 
L 367.407173 244.1475 
L 367.87256 225.2475 
L 368.337948 177.9975 
L 368.803336 227.61 
L 369.268724 206.3475 
L 369.734112 355.185 
L 370.1995 307.935 
L 370.664887 357.5475 
L 371.130275 218.16 
L 372.061051 307.935 
L 372.526439 331.56 
L 372.991827 218.16 
L 373.457214 307.935 
L 373.922602 336.285 
L 374.38799 274.86 
L 374.853378 244.1475 
L 375.318766 253.5975 
L 375.784153 260.685 
L 376.249541 364.635 
L 376.714929 244.1475 
L 377.180317 286.6725 
L 377.645705 201.6225 
L 378.111093 349.27875 
L 378.57648 192.1725 
L 379.041868 350.46 
L 379.507256 248.8725 
L 379.972644 258.3225 
L 380.438032 331.56 
L 380.90342 201.6225 
L 381.834195 359.91 
L 382.299583 194.535 
L 382.764971 286.6725 
L 383.230359 263.0475 
L 383.695746 161.46 
L 384.161134 312.66 
L 384.626522 208.71 
L 385.09191 279.585 
L 385.557298 331.56 
L 386.022686 348.0975 
L 386.488073 239.4225 
L 386.953461 232.335 
L 387.418849 196.8975 
L 387.884237 255.96 
L 388.349625 267.7725 
L 388.815013 289.035 
L 389.2804 265.41 
L 389.745788 267.7725 
L 390.211176 286.6725 
L 390.676564 326.835 
L 391.141952 350.46 
L 391.607339 293.76 
L 392.072727 218.16 
L 392.538115 248.8725 
L 393.003503 199.26 
L 393.468891 267.7725 
L 393.934279 213.435 
L 394.399666 359.91 
L 394.865054 244.1475 
L 395.330442 345.2625 
L 395.79583 286.6725 
L 396.261218 201.6225 
L 396.726606 213.435 
L 397.191993 213.435 
L 397.657381 267.7725 
L 398.122769 258.3225 
L 398.588157 357.5475 
L 399.053545 286.6725 
L 399.518932 350.46 
L 400.449708 215.7975 
L 400.915096 225.2475 
L 401.380484 315.0225 
L 401.845872 263.0475 
L 402.311259 319.7475 
L 402.776647 201.6225 
L 403.242035 244.1475 
L 403.707423 326.835 
L 404.172811 201.6225 
L 404.638198 279.585 
L 405.103586 248.8725 
L 405.568974 307.935 
L 406.034362 161.46 
L 406.49975 234.6975 
L 407.430525 343.3725 
L 407.895913 336.285 
L 408.361301 279.585 
L 408.826689 312.66 
L 409.292077 362.2725 
L 409.757465 341.01 
L 410.222852 338.6475 
L 410.68824 196.8975 
L 411.153628 192.1725 
L 411.619016 319.7475 
L 412.084404 364.635 
L 412.549791 350.46 
L 413.015179 305.5725 
L 413.480567 350.46 
L 413.945955 239.4225 
L 414.411343 244.1475 
L 414.876731 284.31 
L 415.342118 246.51 
L 415.807506 274.86 
L 416.272894 206.3475 
L 416.738282 267.7725 
L 417.20367 239.4225 
L 417.669058 350.46 
L 418.134445 194.535 
L 418.599833 272.4975 
L 419.065221 201.6225 
L 419.530609 336.285 
L 419.995997 201.6225 
L 420.461384 331.56 
L 420.926772 331.56 
L 421.39216 341.01 
L 421.857548 336.285 
L 422.322936 220.5225 
L 422.788324 211.0725 
L 423.253711 246.51 
L 423.719099 315.0225 
L 424.184487 326.835 
L 424.649875 350.46 
L 425.115263 338.6475 
L 425.580651 263.0475 
L 426.046038 206.3475 
L 426.511426 362.2725 
L 427.442202 255.96 
L 427.90759 258.3225 
L 428.372977 336.285 
L 428.838365 244.1475 
L 429.303753 303.21 
L 429.769141 319.7475 
L 430.234529 267.7725 
L 430.699917 194.535 
L 431.165304 90.585 
L 431.630692 248.8725 
L 432.09608 255.96 
L 432.561468 206.3475 
L 433.026856 309.11625 
L 433.492244 258.3225 
L 433.957631 333.9225 
L 434.423019 279.585 
L 434.888407 258.3225 
L 435.353795 350.46 
L 436.28457 161.46 
L 436.749958 289.035 
L 437.215346 241.785 
L 437.680734 211.0725 
L 438.61151 267.7725 
L 439.076897 284.31 
L 439.542285 234.6975 
L 440.007673 255.96 
L 440.473061 289.035 
L 440.938449 244.1475 
L 441.403837 267.7725 
L 441.869224 270.135 
L 442.334612 307.935 
L 442.8 260.685 
L 443.265388 344.55375 
L 443.730776 95.31 
L 444.196163 244.1475 
L 444.661551 234.6975 
L 445.126939 315.0225 
L 445.592327 196.8975 
L 446.057715 244.1475 
L 446.523103 267.7725 
L 446.98849 229.9725 
L 447.453878 310.2975 
L 447.919266 244.1475 
L 448.384654 255.96 
L 448.850042 194.535 
L 449.780817 344.55375 
L 450.246205 118.935 
L 450.711593 267.7725 
L 451.176981 237.06 
L 451.642369 333.9225 
L 452.107756 317.385 
L 452.573144 274.86 
L 453.038532 206.3475 
L 453.50392 255.96 
L 453.969308 253.5975 
L 454.434696 279.585 
L 454.900083 206.3475 
L 455.365471 359.91 
L 455.830859 215.7975 
L 456.296247 258.3225 
L 456.761635 258.3225 
L 457.227023 213.435 
L 457.69241 211.0725 
L 458.157798 289.035 
L 458.623186 312.66 
L 459.088574 187.4475 
L 459.553962 258.3225 
L 460.019349 267.7725 
L 460.484737 343.3725 
L 460.950125 362.2725 
L 461.415513 350.46 
L 462.811676 350.46 
L 463.277064 118.935 
L 463.742452 307.935 
L 464.20784 225.2475 
L 464.673228 255.96 
L 465.138616 358.72875 
L 465.604003 298.485 
L 466.069391 255.96 
L 466.534779 267.7725 
L 467.000167 258.3225 
L 468.39633 265.41 
L 468.861718 307.935 
L 469.327106 366.9975 
L 469.792494 330.37875 
L 470.257882 355.185 
L 470.723269 341.01 
L 471.188657 350.46 
L 471.654045 199.26 
L 472.584821 263.0475 
L 473.050209 369.36 
L 473.515596 263.0475 
L 473.980984 350.46 
L 474.446372 258.3225 
L 474.91176 244.1475 
L 475.377148 307.935 
L 475.842535 225.2475 
L 476.307923 355.185 
L 476.773311 267.7725 
L 477.238699 239.4225 
L 477.704087 244.1475 
L 478.169475 199.26 
L 478.634862 317.385 
L 479.10025 246.51 
L 479.565638 255.96 
L 480.031026 263.0475 
L 480.496414 341.01 
L 480.961802 312.66 
L 481.427189 350.46 
L 481.892577 338.6475 
L 482.357965 258.3225 
L 482.823353 244.1475 
L 483.288741 258.3225 
L 483.754128 258.3225 
L 484.219516 251.235 
L 484.684904 118.935 
L 485.150292 318.56625 
L 485.61568 76.41 
L 486.081068 267.7725 
L 486.546455 263.0475 
L 487.011843 137.835 
L 487.477231 215.7975 
L 487.942619 316.20375 
L 488.408007 315.0225 
L 488.873394 258.3225 
L 489.338782 244.1475 
L 489.80417 263.0475 
L 490.269558 263.0475 
L 490.734946 279.585 
L 491.200334 246.51 
L 491.665721 192.1725 
L 492.131109 310.2975 
L 492.596497 255.96 
L 493.061885 350.46 
L 493.527273 267.7725 
L 493.992661 244.1475 
L 494.458048 244.1475 
L 494.923436 239.4225 
L 495.388824 267.7725 
L 495.854212 331.56 
L 496.3196 263.0475 
L 496.784987 258.3225 
L 497.250375 319.7475 
L 498.181151 333.9225 
L 498.646539 244.1475 
L 499.111927 211.0725 
L 499.577314 215.7975 
L 500.042702 312.66 
L 500.50809 286.6725 
L 500.973478 229.9725 
L 501.438866 253.5975 
L 501.904254 263.0475 
L 502.369641 267.7725 
L 502.835029 244.1475 
L 503.300417 341.01 
L 503.765805 355.185 
L 504.231193 355.185 
L 504.69658 265.41 
L 505.161968 289.035 
L 505.627356 244.1475 
L 506.092744 355.185 
L 506.558132 326.835 
L 507.02352 258.3225 
L 507.488907 336.285 
L 507.954295 232.335 
L 508.419683 258.3225 
L 508.885071 350.46 
L 509.350459 310.2975 
L 509.815847 248.8725 
L 510.281234 225.2475 
L 510.746622 263.0475 
L 511.21201 258.3225 
L 511.677398 225.2475 
L 512.142786 310.2975 
L 512.608173 211.0725 
L 513.538949 350.46 
L 514.004337 331.56 
L 514.469725 279.585 
L 514.935113 244.1475 
L 515.4005 359.91 
L 515.865888 359.91 
L 516.331276 263.0475 
L 516.796664 350.46 
L 517.262052 246.51 
L 517.72744 350.46 
L 518.192827 263.0475 
L 518.658215 279.585 
L 519.123603 267.7725 
L 519.588991 100.035 
L 520.054379 267.7725 
L 520.519766 350.46 
L 520.985154 248.8725 
L 521.450542 199.26 
L 521.91593 225.2475 
L 522.381318 258.3225 
L 522.846706 258.3225 
L 523.312093 241.785 
L 523.777481 329.1975 
L 524.242869 369.36 
L 524.708257 192.1725 
L 525.173645 234.6975 
L 525.639033 248.8725 
L 526.10442 196.8975 
L 526.569808 343.3725 
L 527.035196 350.46 
L 527.500584 324.4725 
L 527.965972 248.8725 
L 528.431359 317.385 
L 528.896747 270.135 
L 529.362135 248.8725 
L 529.827523 90.585 
L 530.292911 336.285 
L 530.758299 333.9225 
L 531.223686 267.7725 
L 531.689074 336.285 
L 532.154462 350.46 
L 532.61985 222.885 
L 533.085238 307.935 
L 533.550626 201.6225 
L 534.016013 203.985 
L 534.481401 263.0475 
L 534.946789 350.46 
L 535.412177 220.5225 
L 535.877565 237.06 
L 536.342952 199.26 
L 536.80834 248.8725 
L 537.273728 317.385 
L 537.739116 255.96 
L 538.204504 267.7725 
L 538.669892 248.8725 
L 539.135279 192.1725 
L 539.600667 312.66 
L 540.066055 341.01 
L 540.531443 258.3225 
L 540.996831 358.72875 
L 541.462219 286.6725 
L 541.927606 312.66 
L 542.392994 206.3475 
L 542.858382 291.3975 
L 543.32377 345.735 
L 543.789158 237.06 
L 544.254545 246.51 
L 544.719933 345.735 
L 545.185321 267.7725 
L 545.650709 244.1475 
L 546.116097 336.285 
L 546.581485 255.96 
L 547.046872 343.3725 
L 547.51226 90.585 
L 547.977648 137.835 
L 548.443036 331.56 
L 548.908424 329.1975 
L 549.373812 341.01 
L 549.839199 329.1975 
L 550.304587 267.7725 
L 550.769975 319.7475 
L 551.235363 251.235 
L 551.700751 90.585 
L 552.166138 341.01 
L 552.631526 260.685 
L 553.096914 338.6475 
L 553.562302 244.1475 
L 554.02769 260.685 
L 554.493078 329.1975 
L 554.958465 267.7725 
L 555.423853 336.285 
L 555.889241 248.8725 
L 556.354629 215.7975 
L 556.820017 225.2475 
L 557.285405 161.46 
L 557.750792 215.7975 
L 558.21618 196.8975 
L 558.681568 234.6975 
L 559.146956 263.0475 
L 559.612344 225.2475 
L 560.077731 284.31 
L 560.543119 201.6225 
L 561.008507 267.7725 
L 561.473895 355.185 
L 561.939283 199.26 
L 562.404671 114.21 
L 562.870058 322.11 
L 563.335446 307.935 
L 563.800834 263.0475 
L 564.266222 201.6225 
L 564.73161 244.1475 
L 565.196997 100.035 
L 565.662385 258.3225 
L 566.127773 350.46 
L 566.593161 248.8725 
L 567.058549 192.1725 
L 567.523937 244.1475 
L 567.989324 319.7475 
L 568.454712 263.0475 
L 569.385488 350.46 
L 569.850876 309.11625 
L 570.316264 345.735 
L 570.781651 199.26 
L 571.247039 201.6225 
L 571.712427 333.9225 
L 572.177815 199.26 
L 572.643203 341.01 
L 573.10859 324.4725 
L 573.573978 215.7975 
L 574.039366 267.7725 
L 574.504754 350.46 
L 574.970142 267.7725 
L 575.900917 194.535 
L 576.366305 211.0725 
L 576.831693 258.3225 
L 577.297081 324.4725 
L 577.762469 76.41 
L 578.227857 267.7725 
L 578.693244 260.685 
L 579.158632 260.685 
L 579.62402 333.9225 
L 580.089408 341.01 
L 580.554796 244.1475 
L 581.020183 319.7475 
L 581.485571 346.91625 
L 581.950959 346.91625 
L 582.416347 336.285 
L 582.881735 338.6475 
L 583.347123 350.46 
L 583.81251 263.0475 
L 584.277898 225.2475 
L 584.743286 244.1475 
L 585.674062 333.9225 
L 586.13945 201.6225 
L 586.604837 369.36 
L 587.070225 244.1475 
L 587.535613 246.51 
L 588.001001 244.1475 
L 588.466389 270.135 
L 588.931776 232.335 
L 589.397164 255.96 
L 589.862552 241.785 
L 590.32794 336.285 
L 590.793328 298.485 
L 591.258716 161.46 
L 591.724103 319.7475 
L 592.189491 286.6725 
L 592.654879 362.2725 
L 593.120267 182.7225 
L 593.585655 326.835 
L 594.051043 286.6725 
L 594.51643 267.7725 
L 594.981818 322.11 
L 595.447206 317.385 
L 595.912594 289.035 
L 596.377982 350.46 
L 597.308757 152.01 
L 597.774145 307.935 
L 598.239533 248.8725 
L 598.704921 357.5475 
L 599.170309 286.6725 
L 599.635696 189.81 
L 600.101084 342.19125 
L 600.566472 152.01 
L 601.03186 225.2475 
L 601.497248 263.0475 
L 601.962636 286.6725 
L 602.428023 270.135 
L 602.893411 201.6225 
L 603.358799 281.9475 
L 603.824187 312.66 
L 604.289575 253.5975 
L 604.754962 344.55375 
L 605.22035 355.185 
L 605.685738 341.01 
L 606.151126 244.1475 
L 606.616514 286.6725 
L 607.081902 289.035 
L 607.547289 267.7725 
L 608.012677 331.56 
L 608.478065 246.51 
L 608.943453 246.51 
L 609.408841 326.835 
L 610.339616 218.16 
L 610.805004 201.6225 
L 611.270392 341.01 
L 611.73578 244.1475 
L 612.201168 260.685 
L 612.666555 225.2475 
L 613.131943 265.41 
L 613.597331 284.31 
L 614.062719 336.285 
L 614.528107 255.96 
L 614.993495 258.3225 
L 615.458882 336.285 
L 615.92427 225.2475 
L 616.389658 263.0475 
L 616.855046 336.285 
L 617.320434 346.91625 
L 617.785822 246.51 
L 618.251209 344.55375 
L 618.716597 201.6225 
L 619.181985 201.6225 
L 619.647373 310.2975 
L 620.112761 267.7725 
L 620.578148 213.435 
L 621.043536 265.41 
L 621.508924 241.785 
L 621.974312 286.6725 
L 622.4397 196.8975 
L 622.905088 341.01 
L 623.370475 253.5975 
L 623.835863 263.0475 
L 624.301251 267.7725 
L 624.766639 85.86 
L 625.232027 338.6475 
L 625.697415 338.6475 
L 626.162802 267.7725 
L 626.62819 289.035 
L 627.093578 362.2725 
L 627.558966 350.46 
L 628.024354 333.9225 
L 628.489741 225.2475 
L 628.955129 286.6725 
L 629.420517 312.66 
L 629.885905 352.8225 
L 630.351293 234.6975 
L 630.816681 263.0475 
L 631.282068 260.685 
L 632.212844 201.6225 
L 632.678232 350.46 
L 633.14362 369.36 
L 633.609008 182.7225 
L 634.074395 356.36625 
L 634.539783 76.41 
L 635.005171 239.4225 
L 635.470559 251.235 
L 635.935947 350.46 
L 636.401334 267.7725 
L 636.866722 244.1475 
L 637.33211 260.685 
L 637.797498 362.2725 
L 638.262886 267.7725 
L 638.728274 244.1475 
L 639.193661 175.635 
L 639.659049 307.935 
L 640.124437 286.6725 
L 640.589825 95.31 
L 641.055213 246.51 
L 641.520601 355.185 
L 641.985988 263.0475 
L 642.916764 213.435 
L 643.382152 284.31 
L 643.84754 326.835 
L 644.312927 326.835 
L 644.778315 239.4225 
L 645.243703 336.285 
L 645.709091 239.4225 
L 646.174479 279.585 
L 646.639867 187.4475 
L 647.105254 267.7725 
L 647.570642 270.135 
L 648.03603 263.0475 
L 648.501418 187.4475 
L 648.966806 265.41 
L 649.432193 192.1725 
L 649.897581 244.1475 
L 650.362969 310.2975 
L 650.828357 215.7975 
L 651.293745 220.5225 
L 651.759133 324.4725 
L 652.22452 239.4225 
L 652.689908 215.7975 
L 653.155296 263.0475 
L 654.086072 234.6975 
L 654.55146 267.7725 
L 655.016847 362.2725 
L 655.482235 312.66 
L 655.947623 350.46 
L 656.413011 263.0475 
L 656.878399 265.41 
L 657.343786 244.1475 
L 657.809174 246.51 
L 658.274562 244.1475 
L 658.73995 333.9225 
L 659.670726 215.7975 
L 660.601501 255.96 
L 661.066889 248.8725 
L 661.532277 331.56 
L 661.997665 246.51 
L 662.463053 244.1475 
L 662.92844 194.535 
L 664.324604 331.56 
L 664.789992 322.11 
L 665.255379 317.385 
L 665.720767 263.0475 
L 666.186155 225.2475 
L 666.651543 265.41 
L 667.116931 244.1475 
L 667.582319 346.91625 
L 668.047706 344.55375 
L 668.513094 267.7725 
L 668.978482 225.2475 
L 669.44387 244.1475 
L 669.909258 258.3225 
L 670.374646 333.9225 
L 670.840033 234.6975 
L 671.305421 345.735 
L 671.770809 267.7725 
L 672.236197 359.91 
L 672.701585 263.0475 
L 673.166972 352.8225 
L 673.63236 234.6975 
L 674.097748 182.7225 
L 675.493912 365.81625 
L 675.959299 246.51 
L 676.424687 215.7975 
L 676.890075 329.1975 
L 677.355463 312.66 
L 677.820851 303.21 
L 678.286239 341.01 
L 678.751626 267.7725 
L 679.217014 248.8725 
L 679.682402 206.3475 
L 680.14779 345.735 
L 680.613178 246.51 
L 681.078565 364.635 
L 682.009341 90.585 
L 682.474729 307.935 
L 682.940117 272.4975 
L 683.405505 369.36 
L 683.870892 336.285 
L 684.33628 161.46 
L 684.801668 318.56625 
L 685.267056 258.3225 
L 685.732444 227.61 
L 686.197832 267.7725 
L 686.663219 203.985 
L 687.128607 194.535 
L 687.593995 267.7725 
L 688.059383 234.6975 
L 688.524771 350.46 
L 688.990158 215.7975 
L 689.455546 215.7975 
L 689.920934 267.7725 
L 690.386322 241.785 
L 691.317098 246.51 
L 691.782485 358.72875 
L 692.247873 350.46 
L 692.713261 258.3225 
L 693.178649 358.72875 
L 693.644037 298.485 
L 694.109425 267.7725 
L 694.574812 208.71 
L 695.0402 333.9225 
L 695.505588 362.2725 
L 695.970976 66.96 
L 696.436364 286.6725 
L 696.901751 267.7725 
L 697.367139 234.6975 
L 697.832527 232.335 
L 698.297915 258.3225 
L 698.763303 196.8975 
L 699.228691 362.2725 
L 699.694078 267.7725 
L 700.159466 263.0475 
L 700.624854 293.76 
L 701.090242 246.51 
L 701.55563 272.4975 
L 702.021018 265.41 
L 702.486405 267.7725 
L 702.951793 322.11 
L 703.417181 352.8225 
L 703.882569 244.1475 
L 704.347957 338.6475 
L 704.813344 232.335 
L 705.278732 196.8975 
L 705.74412 352.8225 
L 706.209508 336.285 
L 706.674896 199.26 
L 707.140284 286.6725 
L 707.605671 265.41 
L 708.071059 322.11 
L 708.536447 234.6975 
L 709.001835 182.7225 
L 709.467223 263.0475 
L 709.932611 244.1475 
L 710.397998 274.86 
L 710.863386 338.6475 
L 711.328774 355.185 
L 711.794162 265.41 
L 712.25955 199.26 
L 712.724937 307.935 
L 713.655713 137.835 
L 714.121101 267.7725 
L 714.586489 350.46 
L 715.051877 237.06 
L 715.517264 362.2725 
L 715.982652 326.835 
L 716.44804 244.1475 
L 716.913428 322.11 
L 717.378816 244.1475 
L 717.844204 359.91 
L 718.309591 341.01 
L 718.774979 307.935 
L 719.240367 331.56 
L 719.705755 333.9225 
L 720.171143 265.41 
L 720.63653 109.485 
L 721.101918 180.36 
L 721.567306 345.735 
L 722.032694 307.935 
L 722.498082 182.7225 
L 723.428857 341.01 
L 723.894245 312.66 
L 724.825021 215.7975 
L 725.290409 350.46 
L 725.755796 263.0475 
L 726.221184 350.46 
L 726.686572 201.6225 
L 727.15196 281.9475 
L 727.617348 225.2475 
L 728.082736 208.71 
L 728.548123 260.685 
L 729.013511 289.035 
L 729.478899 362.2725 
L 729.944287 237.06 
L 730.409675 336.285 
L 730.875063 345.735 
L 731.34045 180.36 
L 731.805838 307.935 
L 732.271226 333.9225 
L 732.736614 338.6475 
L 733.202002 258.3225 
L 733.667389 267.7725 
L 734.132777 267.7725 
L 734.598165 263.0475 
L 735.063553 309.11625 
L 735.528941 258.3225 
L 735.994329 350.46 
L 736.459716 352.8225 
L 736.925104 241.785 
L 737.390492 201.6225 
L 737.85588 350.46 
L 738.321268 267.7725 
L 738.786656 359.91 
L 739.252043 336.285 
L 739.717431 215.7975 
L 740.182819 355.185 
L 740.648207 289.035 
L 741.113595 296.1225 
L 741.578982 350.46 
L 742.04437 312.66 
L 742.509758 286.6725 
L 742.975146 355.185 
L 743.440534 326.835 
L 743.905922 246.51 
L 744.371309 358.72875 
L 744.836697 357.5475 
L 745.302085 336.285 
L 745.767473 161.46 
L 746.232861 329.1975 
L 746.698249 357.5475 
L 747.163636 270.135 
L 747.163636 270.135 
" clip-path="url(#pbff6038898)" style="fill: none; stroke: #1f77b4; stroke-width: 1.5; stroke-linecap: square"/>
   </g>
   <g id="line2d_16">
    <path d="M 138.436364 262.079237 
L 138.901751 315.625096 
L 139.367139 251.308814 
L 139.832527 279.594284 
L 140.297915 273.933515 
L 140.763303 240.208461 
L 141.228691 259.919222 
L 141.694078 253.241485 
L 142.159466 327.210973 
L 142.624854 286.926134 
L 143.090242 216.77654 
L 143.55563 255.561474 
L 144.021018 265.693552 
L 144.486405 257.762982 
L 144.951793 265.125899 
L 145.417181 251.089369 
L 145.882569 258.569392 
L 146.347957 239.924293 
L 146.813344 251.854246 
L 147.278732 252.375708 
L 147.74412 321.677959 
L 148.209508 272.128654 
L 148.674896 259.364778 
L 149.140284 232.581634 
L 149.605671 246.341212 
L 150.071059 236.961985 
L 150.536447 321.912738 
L 151.001835 236.678055 
L 151.467223 242.84924 
L 151.932611 219.391625 
L 152.397998 252.7869 
L 152.863386 307.209754 
L 153.328774 246.251326 
L 153.794162 247.254442 
L 154.25955 235.958098 
L 154.724937 231.636081 
L 155.190325 246.24504 
L 155.655713 243.715994 
L 156.121101 260.244169 
L 156.586489 255.810133 
L 157.051877 246.084454 
L 157.517264 260.311348 
L 157.982652 251.331679 
L 158.44804 238.53281 
L 158.913428 330.48085 
L 159.378816 242.799592 
L 159.844204 250.421198 
L 160.309591 229.449506 
L 160.774979 319.610254 
L 161.240367 229.203501 
L 161.705755 293.387288 
L 162.63653 258.065453 
L 163.101918 262.719005 
L 163.567306 258.722181 
L 164.032694 256.942434 
L 164.498082 236.231378 
L 164.96347 251.3103 
L 165.428857 318.646052 
L 165.894245 208.512727 
L 166.359633 252.817235 
L 166.825021 236.493834 
L 167.290409 251.989757 
L 167.755796 221.673951 
L 168.221184 238.899456 
L 168.686572 319.492604 
L 169.15196 321.412786 
L 169.617348 265.559828 
L 170.082736 241.751899 
L 170.548123 314.186004 
L 171.013511 261.710262 
L 171.478899 266.116919 
L 171.944287 256.454192 
L 172.409675 243.559763 
L 172.875063 273.685253 
L 173.34045 256.074504 
L 173.805838 307.199748 
L 174.271226 260.341238 
L 174.736614 277.139419 
L 175.202002 245.351463 
L 175.667389 236.273102 
L 176.132777 219.678018 
L 176.598165 258.492246 
L 177.063553 271.416724 
L 177.528941 229.505201 
L 177.994329 257.957996 
L 178.459716 257.803498 
L 178.925104 314.579871 
L 179.85588 273.880339 
L 180.321268 266.115536 
L 180.786656 269.200274 
L 181.252043 258.666938 
L 181.717431 319.44819 
L 182.182819 314.832452 
L 182.648207 227.44321 
L 183.113595 263.942599 
L 183.578982 284.202368 
L 184.04437 316.419807 
L 184.509758 253.056151 
L 184.975146 264.95832 
L 185.440534 253.414731 
L 185.905922 253.358431 
L 186.371309 232.833806 
L 186.836697 261.86596 
L 187.302085 250.795188 
L 187.767473 259.591375 
L 188.232861 263.612534 
L 188.698249 230.501045 
L 189.163636 242.612057 
L 189.629024 305.154144 
L 190.094412 313.359055 
L 190.5598 234.818278 
L 191.025188 250.957585 
L 191.490575 280.091483 
L 192.421351 233.937354 
L 192.886739 321.278597 
L 193.352127 263.721144 
L 193.817515 223.222491 
L 194.282902 246.59448 
L 194.74829 216.551501 
L 195.213678 316.543755 
L 195.679066 257.775627 
L 196.144454 273.870817 
L 196.609842 240.1723 
L 197.075229 324.034999 
L 197.540617 238.411993 
L 198.006005 223.44335 
L 198.471393 223.271669 
L 198.936781 265.416338 
L 199.402168 240.576093 
L 199.867556 246.538181 
L 200.332944 244.592039 
L 200.798332 271.773833 
L 201.26372 258.201974 
L 201.729108 326.5236 
L 202.194495 251.125491 
L 202.659883 302.531207 
L 203.125271 297.524853 
L 203.590659 252.153005 
L 204.056047 319.263686 
L 204.521435 268.455767 
L 204.986822 254.297706 
L 205.45221 266.379796 
L 205.917598 319.64951 
L 206.382986 322.528898 
L 206.848374 252.573901 
L 207.313761 258.307492 
L 207.779149 240.871125 
L 208.709925 271.051532 
L 209.175313 266.172424 
L 209.640701 317.314695 
L 210.106088 256.840373 
L 210.571476 251.672401 
L 211.036864 315.918336 
L 211.502252 261.55764 
L 211.96764 240.807482 
L 212.433028 236.032073 
L 212.898415 250.695384 
L 213.363803 303.444803 
L 213.829191 240.137522 
L 214.294579 235.752593 
L 214.759967 280.555954 
L 215.225354 270.088145 
L 216.15613 232.366084 
L 216.621518 272.102793 
L 217.086906 251.792995 
L 217.552294 269.151604 
L 218.017681 294.506389 
L 218.483069 269.633774 
L 218.948457 231.877571 
L 219.413845 317.548159 
L 219.879233 234.976416 
L 220.344621 268.013747 
L 220.810008 318.967486 
L 221.275396 257.837275 
L 221.740784 233.134886 
L 222.206172 253.796152 
L 222.67156 287.675926 
L 223.136947 293.496335 
L 223.602335 245.071507 
L 224.067723 299.124813 
L 224.533111 243.628866 
L 224.998499 251.237692 
L 225.463887 319.621297 
L 225.929274 254.136619 
L 226.394662 274.160716 
L 226.86005 266.985517 
L 227.325438 269.628458 
L 227.790826 245.590378 
L 228.256214 267.422204 
L 228.721601 319.298409 
L 229.186989 276.240962 
L 229.652377 307.633006 
L 230.117765 267.340799 
L 230.583153 257.290857 
L 231.04854 236.026207 
L 231.513928 248.163827 
L 231.979316 274.199046 
L 232.910092 211.892179 
L 233.37548 280.883157 
L 233.840867 260.945489 
L 234.306255 262.996807 
L 234.771643 256.815959 
L 235.237031 302.02285 
L 235.702419 316.349898 
L 236.167807 253.089864 
L 236.633194 252.038165 
L 237.098582 320.310728 
L 237.56397 253.859969 
L 238.029358 268.446405 
L 238.494746 237.050853 
L 238.960133 315.621234 
L 239.425521 307.556726 
L 239.890909 260.957061 
L 240.356297 260.791707 
L 240.821685 253.111068 
L 241.287073 225.768131 
L 241.75246 313.118005 
L 242.217848 324.157743 
L 242.683236 264.260265 
L 243.148624 265.91782 
L 243.614012 271.69672 
L 244.079399 319.099413 
L 244.544787 259.523178 
L 245.010175 262.916419 
L 245.475563 301.868424 
L 245.940951 245.122649 
L 246.406339 256.283529 
L 246.871726 324.081213 
L 247.337114 237.435143 
L 247.802502 273.550878 
L 248.26789 278.684836 
L 248.733278 267.040919 
L 249.198666 239.9873 
L 249.664053 257.966746 
L 250.129441 243.412752 
L 250.594829 268.615193 
L 251.060217 254.381638 
L 251.525605 262.15047 
L 251.990992 250.811623 
L 252.45638 224.306758 
L 252.921768 318.200134 
L 253.387156 250.48016 
L 253.852544 320.086952 
L 254.317932 246.730723 
L 254.783319 266.2033 
L 255.248707 242.742045 
L 255.714095 247.141668 
L 256.179483 225.666785 
L 256.644871 309.707514 
L 257.110259 300.002519 
L 257.575646 276.254457 
L 258.041034 311.690024 
L 258.506422 260.158924 
L 258.97181 250.168167 
L 259.437198 232.636424 
L 259.902585 252.824142 
L 260.367973 241.334691 
L 260.833361 236.602602 
L 261.298749 258.645067 
L 261.764137 252.320013 
L 262.229525 232.962316 
L 262.694912 280.606444 
L 263.1603 270.24118 
L 264.091076 213.631123 
L 264.556464 281.828051 
L 265.021852 253.45779 
L 265.487239 324.132355 
L 265.952627 276.986979 
L 266.418015 259.376755 
L 266.883403 284.461359 
L 267.348791 245.45443 
L 267.814178 253.260614 
L 268.279566 337.184898 
L 268.744954 271.446932 
L 269.210342 286.191116 
L 269.67573 260.699119 
L 270.141118 259.354923 
L 270.606505 316.720434 
L 271.071893 316.419159 
L 271.537281 287.032939 
L 272.002669 227.857922 
L 272.468057 301.897583 
L 272.933445 254.754055 
L 273.398832 256.894988 
L 273.86422 252.790429 
L 274.329608 256.991557 
L 274.794996 322.39165 
L 275.260384 254.83364 
L 275.725771 273.864595 
L 276.191159 214.032548 
L 276.656547 248.256811 
L 277.121935 260.427738 
L 277.587323 256.882932 
L 278.052711 319.292778 
L 278.518098 300.520524 
L 278.983486 247.636745 
L 279.448874 254.545761 
L 279.914262 297.782811 
L 280.37965 252.611826 
L 280.845038 274.423553 
L 281.310425 249.258275 
L 281.775813 307.36898 
L 282.241201 302.495078 
L 282.706589 324.737671 
L 283.171977 246.613554 
L 283.637364 310.343062 
L 284.102752 314.750021 
L 284.56814 216.43914 
L 285.033528 319.945778 
L 285.498916 217.202554 
L 285.964304 319.497341 
L 286.429691 256.364052 
L 286.895079 250.915726 
L 287.360467 316.395405 
L 287.825855 320.942238 
L 288.756631 291.233893 
L 289.222018 244.257675 
L 289.687406 247.195798 
L 290.152794 276.329084 
L 290.618182 317.333209 
L 291.08357 268.307484 
L 291.548957 269.466505 
L 292.014345 247.072947 
L 292.479733 242.303871 
L 292.945121 248.22925 
L 293.410509 248.292789 
L 293.875897 243.737802 
L 294.341284 251.081295 
L 294.806672 321.111248 
L 295.27206 313.810079 
L 295.737448 256.07866 
L 296.202836 257.741516 
L 296.668224 246.13128 
L 297.133611 257.879952 
L 297.598999 247.536504 
L 298.064387 265.104051 
L 298.529775 254.38566 
L 298.995163 232.218071 
L 299.46055 275.385247 
L 299.925938 270.376803 
L 300.391326 237.005871 
L 300.856714 271.460101 
L 301.322102 261.059233 
L 301.78749 262.769328 
L 302.252877 315.221717 
L 302.718265 266.823628 
L 303.183653 242.648297 
L 303.649041 209.015847 
L 304.114429 254.689188 
L 304.579817 241.714284 
L 305.045204 296.14491 
L 305.510592 286.032366 
L 305.97598 291.974116 
L 306.441368 225.029084 
L 306.906756 289.936754 
L 307.372143 293.180122 
L 307.837531 240.190738 
L 308.302919 227.494073 
L 308.768307 270.097197 
L 309.233695 253.157631 
L 309.699083 203.457162 
L 310.16447 304.035091 
L 310.629858 326.823985 
L 311.095246 272.423202 
L 311.560634 233.465547 
L 312.026022 263.798027 
L 312.956797 251.420769 
L 313.422185 274.457187 
L 313.887573 263.068557 
L 314.352961 287.63506 
L 314.818349 230.32234 
L 315.283736 261.766204 
L 315.749124 213.163799 
L 316.214512 253.838185 
L 316.6799 242.088178 
L 317.145288 245.304812 
L 317.610676 270.853108 
L 318.076063 258.936436 
L 318.541451 313.049697 
L 319.006839 263.844941 
L 319.937615 242.860859 
L 320.403003 323.430947 
L 320.86839 233.178994 
L 321.333778 244.149574 
L 321.799166 260.902382 
L 322.264554 273.148667 
L 322.729942 245.781943 
L 323.195329 230.780016 
L 323.660717 325.367246 
L 324.126105 246.452762 
L 324.591493 246.908173 
L 325.056881 274.811936 
L 325.522269 232.327555 
L 325.987656 241.648201 
L 326.453044 315.307493 
L 326.918432 273.267878 
L 327.38382 292.709301 
L 327.849208 238.506218 
L 328.314595 295.872051 
L 328.779983 265.081918 
L 329.245371 297.850952 
L 329.710759 310.767713 
L 330.176147 221.840735 
L 330.641535 257.33398 
L 331.106922 310.211926 
L 331.57231 263.852244 
L 332.037698 299.666589 
L 332.503086 233.652534 
L 332.968474 318.217702 
L 333.899249 288.214412 
L 334.364637 297.361319 
L 334.830025 234.006973 
L 335.295413 275.418452 
L 335.760801 236.864327 
L 336.226188 253.604738 
L 336.691576 296.842018 
L 337.156964 318.699995 
L 337.622352 323.741902 
L 338.08774 258.129001 
L 338.553128 212.734956 
L 339.018515 205.557286 
L 339.483903 292.33098 
L 339.949291 254.903617 
L 340.414679 255.139314 
L 340.880067 255.768313 
L 341.345455 235.850855 
L 341.810842 230.762436 
L 342.27623 265.272616 
L 342.741618 255.865073 
L 343.207006 276.19838 
L 343.672394 232.211204 
L 344.137781 265.154383 
L 344.603169 323.406477 
L 345.068557 245.903348 
L 345.533945 321.853069 
L 345.999333 297.81646 
L 346.464721 315.0948 
L 346.930108 319.05691 
L 347.395496 280.148664 
L 347.860884 296.343238 
L 348.326272 193.11319 
L 348.79166 241.189849 
L 349.257048 262.415342 
L 349.722435 249.895412 
L 350.187823 255.636362 
L 350.653211 309.201629 
L 351.118599 252.571986 
L 351.583987 261.577318 
L 352.049374 263.250171 
L 352.514762 248.696773 
L 352.98015 248.384042 
L 353.445538 258.979145 
L 353.910926 252.567718 
L 354.376314 227.162888 
L 354.841701 221.07721 
L 355.307089 304.9975 
L 355.772477 326.698885 
L 356.237865 316.175169 
L 356.703253 257.850165 
L 357.168641 322.169249 
L 358.099416 249.007811 
L 358.564804 286.693481 
L 359.030192 258.604487 
L 359.49558 294.127678 
L 359.960967 239.962599 
L 360.426355 311.420387 
L 360.891743 224.41621 
L 361.357131 240.466339 
L 361.822519 308.006368 
L 362.287907 261.123289 
L 362.753294 254.189724 
L 363.218682 249.362346 
L 363.68407 250.905402 
L 364.149458 245.387155 
L 364.614846 288.527516 
L 365.080234 245.75822 
L 365.545621 250.378353 
L 366.011009 301.768167 
L 366.476397 322.762298 
L 366.941785 318.89009 
L 367.407173 232.831596 
L 367.87256 251.609187 
L 368.337948 276.154685 
L 368.803336 261.772602 
L 369.268724 203.075193 
L 369.734112 301.551703 
L 370.1995 316.671717 
L 370.664887 320.918976 
L 371.130275 269.54555 
L 371.595663 257.621097 
L 372.061051 237.367653 
L 372.526439 287.320469 
L 372.991827 242.346207 
L 373.457214 268.514244 
L 373.922602 321.149066 
L 374.38799 319.64645 
L 374.853378 243.997595 
L 375.318766 263.919615 
L 375.784153 264.021477 
L 376.249541 324.18747 
L 376.714929 244.853302 
L 377.180317 259.336612 
L 377.645705 242.017541 
L 378.111093 305.328558 
L 378.57648 216.498571 
L 379.041868 314.635896 
L 379.507256 266.661215 
L 379.972644 279.357967 
L 380.438032 273.566511 
L 380.90342 255.243704 
L 381.368807 261.579916 
L 381.834195 314.943533 
L 382.299583 246.917432 
L 382.764971 276.762107 
L 383.230359 234.641988 
L 384.161134 274.415256 
L 384.626522 261.858839 
L 385.09191 267.275892 
L 385.557298 247.892708 
L 386.022686 322.998404 
L 386.488073 263.279632 
L 386.953461 259.180867 
L 387.418849 251.546839 
L 387.884237 295.736372 
L 388.349625 263.167049 
L 388.815013 296.285182 
L 389.2804 293.984283 
L 389.745788 250.011412 
L 390.211176 250.306691 
L 390.676564 317.022389 
L 391.141952 308.380024 
L 391.607339 263.330035 
L 392.072727 274.099775 
L 392.538115 259.017587 
L 393.003503 217.618808 
L 393.468891 241.884064 
L 393.934279 238.918117 
L 394.399666 306.121036 
L 394.865054 261.265182 
L 395.330442 229.884484 
L 395.79583 263.508184 
L 396.261218 267.573881 
L 396.726606 273.725324 
L 397.191993 213.633301 
L 398.588157 314.225272 
L 399.053545 238.20056 
L 399.518932 324.638217 
L 399.98432 273.008856 
L 400.449708 298.572364 
L 400.915096 307.937273 
L 401.380484 323.129207 
L 401.845872 272.190318 
L 402.311259 288.404156 
L 402.776647 240.363801 
L 403.242035 258.446715 
L 403.707423 320.837273 
L 404.172811 211.524086 
L 404.638198 318.825187 
L 405.103586 302.058447 
L 405.568974 262.029685 
L 406.034362 254.504259 
L 406.49975 248.911155 
L 406.965138 270.769819 
L 407.430525 318.651615 
L 407.895913 316.50585 
L 408.361301 257.572991 
L 408.826689 283.565136 
L 409.292077 319.877991 
L 409.757465 281.599459 
L 410.222852 310.256221 
L 410.68824 252.529157 
L 411.153628 256.819885 
L 411.619016 324.401491 
L 412.084404 307.789049 
L 412.549791 268.980313 
L 413.015179 251.62799 
L 413.480567 274.671767 
L 413.945955 268.773036 
L 414.411343 252.244798 
L 414.876731 256.655548 
L 415.342118 250.118655 
L 415.807506 315.168998 
L 416.272894 306.275573 
L 416.738282 245.417466 
L 417.20367 258.419257 
L 417.669058 295.500095 
L 418.134445 227.835399 
L 418.599833 241.121533 
L 419.065221 232.330448 
L 419.530609 249.358984 
L 419.995997 225.025444 
L 420.461384 272.015801 
L 420.926772 261.865698 
L 421.39216 316.853423 
L 421.857548 300.94498 
L 422.322936 217.224886 
L 422.788324 235.711378 
L 423.253711 302.34337 
L 423.719099 314.753582 
L 424.184487 258.763913 
L 424.649875 310.277317 
L 425.115263 326.01334 
L 425.580651 240.511767 
L 426.046038 233.424157 
L 426.511426 318.026419 
L 426.976814 229.782535 
L 427.442202 231.288778 
L 427.90759 255.22223 
L 428.372977 251.776782 
L 428.838365 269.762785 
L 429.303753 257.938803 
L 429.769141 239.802777 
L 430.234529 268.98981 
L 430.699917 210.115452 
L 431.630692 278.222081 
L 432.09608 287.745649 
L 432.561468 266.270599 
L 433.026856 271.848873 
L 433.492244 228.965301 
L 434.423019 307.013555 
L 434.888407 261.464257 
L 435.353795 321.952273 
L 435.819183 298.460806 
L 436.28457 213.698804 
L 436.749958 282.09936 
L 437.215346 281.511799 
L 437.680734 240.740938 
L 438.146122 257.358132 
L 438.61151 245.521315 
L 439.076897 265.048698 
L 439.542285 269.563948 
L 440.007673 255.175491 
L 440.473061 305.491989 
L 440.938449 245.661126 
L 441.403837 257.615693 
L 441.869224 250.772108 
L 442.334612 303.362007 
L 442.8 268.728817 
L 443.265388 304.090198 
L 443.730776 261.90673 
L 444.196163 268.19812 
L 444.661551 257.817883 
L 445.126939 309.0693 
L 445.592327 243.024663 
L 446.057715 267.888361 
L 446.523103 269.204868 
L 446.98849 247.451348 
L 447.453878 233.125047 
L 447.919266 264.510212 
L 448.384654 242.59969 
L 448.850042 247.216366 
L 449.31543 249.225881 
L 449.780817 308.199216 
L 450.246205 268.522057 
L 450.711593 276.006243 
L 451.176981 264.248138 
L 451.642369 323.130808 
L 452.107756 311.025221 
L 452.573144 323.357946 
L 453.038532 266.963725 
L 453.50392 273.700973 
L 454.434696 240.725218 
L 454.900083 240.359796 
L 455.365471 308.009443 
L 455.830859 229.016434 
L 456.296247 247.136542 
L 456.761635 276.432162 
L 457.227023 208.376873 
L 457.69241 274.509075 
L 458.157798 292.959319 
L 458.623186 260.943256 
L 459.088574 244.63927 
L 459.553962 286.24066 
L 460.019349 244.663828 
L 460.484737 324.004489 
L 460.950125 288.559767 
L 461.415513 289.982221 
L 461.880901 288.608922 
L 462.346289 274.204991 
L 462.811676 269.816915 
L 463.277064 221.397984 
L 463.742452 275.914037 
L 464.20784 253.43119 
L 464.673228 291.707035 
L 465.138616 301.236468 
L 465.604003 259.236546 
L 466.069391 239.021767 
L 466.534779 285.065991 
L 467.000167 281.97608 
L 467.465555 270.848912 
L 467.930942 253.181816 
L 468.861718 307.934142 
L 469.327106 319.89102 
L 469.792494 266.302682 
L 470.257882 321.356776 
L 470.723269 313.87578 
L 471.654045 226.193159 
L 472.119433 257.00297 
L 472.584821 239.443617 
L 473.050209 327.899427 
L 473.515596 294.18025 
L 473.980984 270.395972 
L 474.446372 261.149508 
L 474.91176 258.994094 
L 475.377148 289.035667 
L 475.842535 264.202511 
L 476.307923 263.564635 
L 476.773311 259.132554 
L 477.238699 230.899863 
L 477.704087 230.392309 
L 478.169475 218.148886 
L 479.10025 310.333553 
L 479.565638 223.953352 
L 480.031026 255.875508 
L 480.496414 252.847475 
L 480.961802 250.833232 
L 481.427189 258.050258 
L 481.892577 262.172858 
L 482.357965 257.406969 
L 482.823353 245.204865 
L 483.288741 260.400852 
L 483.754128 257.428976 
L 484.219516 248.290381 
L 484.684904 244.600328 
L 485.150292 322.344673 
L 485.61568 287.017108 
L 486.081068 268.303669 
L 486.546455 268.489146 
L 487.011843 257.037199 
L 487.477231 238.641356 
L 487.942619 286.716544 
L 488.408007 315.352198 
L 488.873394 250.328705 
L 489.338782 253.174067 
L 489.80417 258.742701 
L 490.269558 249.845152 
L 490.734946 301.172873 
L 491.665721 233.014196 
L 492.131109 256.895934 
L 492.596497 307.516079 
L 493.061885 294.418061 
L 493.527273 253.678728 
L 493.992661 252.206722 
L 494.458048 242.733756 
L 494.923436 239.205893 
L 495.388824 222.464783 
L 495.854212 297.560585 
L 496.3196 258.010672 
L 496.784987 257.150943 
L 497.250375 264.8947 
L 497.715763 296.102685 
L 498.181151 287.567221 
L 499.111927 235.407532 
L 499.577314 249.767061 
L 500.042702 300.986943 
L 500.50809 241.224571 
L 500.973478 264.961355 
L 501.438866 302.868408 
L 501.904254 265.715622 
L 502.369641 244.007251 
L 502.835029 261.295828 
L 503.300417 325.455935 
L 503.765805 252.711749 
L 504.231193 322.534056 
L 504.69658 266.51228 
L 505.161968 315.875861 
L 505.627356 271.192678 
L 506.092744 286.114694 
L 506.558132 319.008117 
L 507.488907 225.87558 
L 507.954295 271.84962 
L 508.419683 275.235208 
L 508.885071 308.27362 
L 509.350459 227.144657 
L 509.815847 258.041659 
L 510.281234 228.399603 
L 510.746622 304.150654 
L 511.21201 253.801166 
L 511.677398 293.141713 
L 512.142786 294.654807 
L 512.608173 246.717991 
L 513.073561 250.646785 
L 513.538949 295.862117 
L 514.004337 323.114842 
L 514.469725 300.010808 
L 514.935113 256.847319 
L 515.865888 297.739434 
L 516.331276 262.4519 
L 516.796664 317.089545 
L 517.262052 262.694869 
L 517.72744 309.209858 
L 518.192827 253.054641 
L 518.658215 257.729341 
L 519.123603 228.6365 
L 519.588991 237.128023 
L 520.054379 265.643888 
L 520.519766 308.001424 
L 520.985154 256.683221 
L 521.450542 273.088679 
L 521.91593 261.554286 
L 522.381318 285.293343 
L 522.846706 255.920681 
L 523.312093 257.688912 
L 523.777481 305.878735 
L 524.242869 252.570046 
L 524.708257 239.53161 
L 525.173645 233.24162 
L 525.639033 259.291161 
L 526.10442 236.051782 
L 526.569808 307.649135 
L 527.035196 289.875924 
L 527.500584 319.465837 
L 528.431359 226.859646 
L 528.896747 286.808878 
L 529.362135 258.405182 
L 529.827523 258.398705 
L 530.292911 253.280372 
L 530.758299 307.722204 
L 531.223686 260.417462 
L 531.689074 316.831484 
L 532.154462 324.033751 
L 532.61985 269.065573 
L 533.085238 311.180844 
L 533.550626 236.690692 
L 534.016013 222.055872 
L 534.481401 258.266189 
L 534.946789 268.459606 
L 535.412177 240.660129 
L 535.877565 252.435099 
L 536.342952 236.657726 
L 536.80834 261.296757 
L 537.273728 258.349288 
L 537.739116 282.324948 
L 538.204504 241.968848 
L 538.669892 300.491365 
L 539.135279 230.573494 
L 539.600667 293.568195 
L 540.066055 320.190356 
L 540.531443 227.080171 
L 540.996831 256.99662 
L 541.462219 232.153013 
L 541.927606 281.088988 
L 542.392994 255.294369 
L 542.858382 258.580327 
L 543.32377 268.715974 
L 543.789158 258.273398 
L 544.254545 290.976913 
L 544.719933 294.044008 
L 545.185321 256.273682 
L 545.650709 266.394944 
L 546.116097 287.865814 
L 546.581485 266.754295 
L 547.046872 318.755691 
L 547.51226 245.22517 
L 548.443036 324.072543 
L 548.908424 251.145645 
L 549.373812 326.786525 
L 549.839199 248.145039 
L 550.304587 221.438389 
L 550.769975 249.045593 
L 551.235363 248.849554 
L 551.700751 251.292331 
L 552.166138 321.40429 
L 552.631526 261.798105 
L 553.096914 287.1489 
L 553.562302 254.27376 
L 554.02769 254.9704 
L 554.493078 279.035953 
L 554.958465 252.338641 
L 555.423853 301.101092 
L 555.889241 307.405109 
L 556.354629 242.028811 
L 556.820017 246.916224 
L 557.285405 245.51816 
L 557.750792 272.978465 
L 558.21618 214.203116 
L 558.681568 261.251131 
L 559.146956 271.973266 
L 559.612344 243.093488 
L 560.077731 263.28607 
L 560.543119 222.295217 
L 561.008507 261.419045 
L 561.473895 261.532534 
L 561.939283 228.060741 
L 562.404671 273.585465 
L 562.870058 277.510588 
L 563.335446 249.101726 
L 563.800834 299.765201 
L 564.266222 231.548151 
L 564.73161 263.124403 
L 565.196997 232.133145 
L 565.662385 274.104194 
L 566.127773 284.446259 
L 567.058549 236.492578 
L 567.523937 289.078249 
L 567.989324 269.070675 
L 568.9201 239.836887 
L 569.385488 283.720842 
L 569.850876 258.293894 
L 570.316264 252.489348 
L 570.781651 241.927346 
L 571.247039 212.714006 
L 571.712427 306.924751 
L 572.177815 211.050006 
L 572.643203 292.534712 
L 573.10859 302.867471 
L 573.573978 226.065364 
L 574.039366 277.22057 
L 574.504754 276.938397 
L 574.970142 268.478004 
L 575.43553 235.750352 
L 576.366305 246.457109 
L 576.831693 235.983053 
L 577.297081 306.373692 
L 577.762469 307.724202 
L 578.227857 272.759434 
L 578.693244 260.038966 
L 579.158632 260.049298 
L 579.62402 312.437944 
L 580.089408 317.117241 
L 580.554796 262.121486 
L 581.020183 306.858716 
L 581.485571 318.336015 
L 581.950959 316.547673 
L 582.416347 271.815637 
L 582.881735 318.338149 
L 583.347123 287.853201 
L 583.81251 226.932731 
L 584.277898 275.032127 
L 584.743286 263.40517 
L 585.208674 269.699619 
L 585.674062 315.286913 
L 586.13945 233.382448 
L 586.604837 232.37446 
L 587.070225 240.065153 
L 587.535613 271.295756 
L 588.001001 254.314952 
L 588.466389 316.911117 
L 588.931776 267.007404 
L 589.397164 278.017824 
L 589.862552 249.948977 
L 590.793328 282.771386 
L 591.258716 253.001465 
L 591.724103 254.256546 
L 592.189491 265.041116 
L 592.654879 319.546464 
L 593.120267 220.906611 
L 594.051043 266.981996 
L 594.51643 248.628139 
L 594.981818 254.948767 
L 595.447206 239.102402 
L 595.912594 311.180669 
L 596.377982 312.492455 
L 596.843369 305.950937 
L 597.308757 236.208505 
L 597.774145 285.898611 
L 598.239533 288.857859 
L 598.704921 307.676943 
L 599.170309 316.526609 
L 599.635696 255.917574 
L 600.101084 320.755963 
L 600.566472 293.350293 
L 601.03186 238.450395 
L 601.497248 255.344763 
L 601.962636 262.214979 
L 602.428023 315.893445 
L 602.893411 250.032568 
L 603.358799 273.310405 
L 603.824187 239.003774 
L 604.754962 321.78645 
L 605.22035 278.725018 
L 605.685738 314.92347 
L 606.151126 264.987868 
L 606.616514 247.559647 
L 607.081902 283.804766 
L 607.547289 257.442311 
L 608.012677 321.512208 
L 608.478065 261.410787 
L 608.943453 250.236245 
L 609.408841 314.561711 
L 609.874229 284.639286 
L 610.339616 271.193918 
L 610.805004 230.097189 
L 611.270392 313.887475 
L 611.73578 244.18184 
L 612.201168 242.615903 
L 612.666555 263.405774 
L 613.131943 256.867474 
L 613.597331 245.624497 
L 614.062719 262.176204 
L 614.528107 256.507257 
L 614.993495 325.009334 
L 615.92427 235.233261 
L 616.389658 275.472438 
L 616.855046 255.056717 
L 617.320434 282.675691 
L 617.785822 265.549449 
L 618.251209 319.630122 
L 618.716597 220.862089 
L 619.181985 262.229475 
L 619.647373 226.998074 
L 620.112761 288.969981 
L 620.578148 265.309771 
L 621.043536 257.820959 
L 621.508924 269.617339 
L 621.974312 261.460633 
L 622.4397 237.391241 
L 622.905088 296.099045 
L 623.370475 294.008983 
L 623.835863 253.274824 
L 624.301251 247.473505 
L 624.766639 224.740004 
L 625.232027 280.565809 
L 625.697415 295.736253 
L 626.162802 230.363158 
L 626.62819 285.97892 
L 627.093578 321.346222 
L 627.558966 308.455223 
L 628.024354 305.416584 
L 628.489741 272.584495 
L 628.955129 265.180847 
L 629.420517 228.000292 
L 629.885905 323.690069 
L 630.351293 274.481466 
L 630.816681 321.453719 
L 631.282068 270.388438 
L 631.747456 249.657887 
L 632.212844 219.315981 
L 632.678232 309.714445 
L 633.14362 259.919238 
L 633.609008 257.995738 
L 634.074395 306.157673 
L 634.539783 280.274544 
L 635.005171 245.31771 
L 635.470559 292.207826 
L 635.935947 300.043424 
L 636.401334 272.50119 
L 636.866722 266.782993 
L 637.33211 302.960193 
L 637.797498 318.814708 
L 638.262886 251.13037 
L 638.728274 284.340828 
L 639.193661 239.831737 
L 639.659049 290.198272 
L 640.124437 239.628092 
L 640.589825 285.952797 
L 641.055213 254.736984 
L 641.520601 304.299343 
L 641.985988 244.96254 
L 642.451376 260.554055 
L 642.916764 223.787187 
L 643.382152 321.287002 
L 643.84754 316.821212 
L 644.312927 299.999944 
L 644.778315 250.435686 
L 645.243703 282.334246 
L 645.709091 240.727682 
L 646.174479 273.961045 
L 646.639867 231.854778 
L 647.105254 261.354519 
L 647.570642 316.982954 
L 648.03603 275.074972 
L 648.501418 214.472661 
L 648.966806 254.088625 
L 649.432193 223.302028 
L 649.897581 238.12943 
L 650.828357 318.058642 
L 651.293745 282.004905 
L 651.759133 271.477371 
L 652.22452 263.871104 
L 652.689908 240.197446 
L 653.155296 249.320312 
L 653.620684 261.105964 
L 654.086072 269.000229 
L 654.55146 270.644004 
L 655.016847 255.197505 
L 655.482235 281.415722 
L 655.947623 286.968851 
L 656.413011 237.832181 
L 656.878399 270.653707 
L 657.343786 245.646765 
L 657.809174 243.36947 
L 658.274562 237.919857 
L 658.73995 325.457 
L 659.205338 248.576242 
L 660.136113 263.153523 
L 660.601501 295.997819 
L 661.066889 232.414452 
L 661.532277 305.520512 
L 661.997665 253.584162 
L 662.463053 270.937216 
L 662.92844 240.479484 
L 663.393828 264.58522 
L 663.859216 302.855923 
L 664.324604 321.924342 
L 664.789992 228.555007 
L 665.255379 247.883227 
L 665.720767 255.352583 
L 666.186155 226.274874 
L 666.651543 272.519246 
L 667.116931 247.251756 
L 667.582319 287.138728 
L 668.047706 314.49196 
L 668.513094 262.613559 
L 668.978482 256.021638 
L 669.44387 315.949021 
L 669.909258 240.423296 
L 670.374646 289.538214 
L 670.840033 240.886186 
L 671.305421 264.582637 
L 671.770809 266.901004 
L 672.236197 259.208134 
L 672.701585 229.176559 
L 673.166972 324.833 
L 673.63236 283.759172 
L 674.097748 218.617768 
L 674.563136 250.894499 
L 675.028524 245.946868 
L 675.493912 300.32369 
L 676.424687 235.595616 
L 676.890075 244.716646 
L 677.355463 290.877602 
L 677.820851 276.9814 
L 678.286239 316.170194 
L 678.751626 245.696802 
L 679.217014 263.72588 
L 679.682402 217.992003 
L 680.14779 290.067171 
L 680.613178 270.829385 
L 681.078565 318.17134 
L 682.009341 246.775332 
L 682.474729 251.845909 
L 682.940117 236.809124 
L 683.405505 322.145896 
L 683.870892 291.005866 
L 684.33628 248.288784 
L 684.801668 296.302309 
L 685.267056 265.16628 
L 685.732444 263.476307 
L 686.197832 267.433275 
L 686.663219 238.741 
L 687.128607 228.302565 
L 687.593995 237.340887 
L 688.059383 268.297184 
L 688.524771 240.924739 
L 688.990158 255.709685 
L 689.455546 248.083112 
L 689.920934 272.237542 
L 690.386322 251.729129 
L 690.85171 247.479919 
L 691.317098 214.282908 
L 691.782485 323.652923 
L 692.247873 257.476152 
L 692.713261 251.83212 
L 693.178649 320.936405 
L 693.644037 266.34087 
L 694.109425 264.169402 
L 694.574812 265.475013 
L 695.505588 307.053738 
L 695.970976 312.304745 
L 696.436364 238.647904 
L 696.901751 266.116625 
L 697.367139 264.174926 
L 697.832527 255.858954 
L 698.297915 253.981581 
L 698.763303 306.447516 
L 699.228691 317.898696 
L 699.694078 253.420644 
L 700.159466 216.268191 
L 700.624854 256.790114 
L 701.55563 243.911087 
L 702.021018 251.069938 
L 702.486405 242.536373 
L 702.951793 262.422471 
L 703.417181 321.937665 
L 703.882569 254.757552 
L 704.347957 286.087641 
L 704.813344 260.17044 
L 705.278732 246.856467 
L 705.74412 263.581372 
L 706.209508 313.051827 
L 706.674896 248.115308 
L 707.140284 245.851491 
L 707.605671 260.780373 
L 708.071059 253.238393 
L 708.536447 300.547927 
L 709.001835 233.036608 
L 709.932611 277.402177 
L 710.397998 317.479962 
L 710.863386 308.76485 
L 711.328774 291.835561 
L 712.25955 228.783877 
L 712.724937 289.877228 
L 713.190325 243.451837 
L 713.655713 259.099978 
L 714.121101 261.409206 
L 714.586489 310.281974 
L 715.051877 260.560158 
L 715.517264 263.932776 
L 715.982652 312.646759 
L 716.44804 251.683599 
L 716.913428 271.179676 
L 717.378816 258.298217 
L 717.844204 314.241501 
L 718.309591 287.33522 
L 718.774979 247.760805 
L 719.240367 303.693677 
L 719.705755 318.991515 
L 720.171143 238.847099 
L 720.63653 254.123737 
L 721.101918 253.452839 
L 721.567306 321.200657 
L 722.032694 255.364187 
L 722.498082 228.44654 
L 722.96347 288.488653 
L 723.428857 308.211463 
L 723.894245 244.008467 
L 724.359633 253.180258 
L 724.825021 233.707164 
L 725.290409 264.681002 
L 725.755796 236.7269 
L 726.221184 266.040409 
L 726.686572 246.718595 
L 727.15196 238.184124 
L 727.617348 241.465044 
L 728.082736 235.987424 
L 728.548123 266.833221 
L 729.013511 258.828009 
L 729.478899 318.113853 
L 729.944287 253.961339 
L 730.409675 263.496478 
L 730.875063 324.034709 
L 731.34045 242.199609 
L 731.805838 241.662093 
L 732.271226 248.58016 
L 732.736614 318.767989 
L 733.202002 270.83978 
L 733.667389 286.973659 
L 734.132777 256.238046 
L 734.598165 248.513267 
L 735.063553 245.022161 
L 735.528941 253.892292 
L 735.994329 267.292661 
L 736.459716 224.524231 
L 736.925104 259.807481 
L 737.390492 227.024301 
L 737.85588 268.634338 
L 738.321268 247.13113 
L 738.786656 302.154443 
L 739.252043 298.783042 
L 739.717431 238.750935 
L 740.182819 278.89154 
L 740.648207 292.970819 
L 741.113595 252.484008 
L 741.578982 321.023107 
L 742.04437 216.925729 
L 742.509758 245.860114 
L 742.975146 290.307915 
L 743.440534 272.001122 
L 743.905922 271.878565 
L 744.371309 320.463334 
L 744.836697 308.52671 
L 745.302085 322.09483 
L 745.767473 257.382976 
L 746.232861 252.550742 
L 746.698249 318.66718 
L 747.163636 282.749825 
L 747.163636 282.749825 
" clip-path="url(#pbff6038898)" style="fill: none; stroke: #ff7f0e; stroke-width: 1.5; stroke-linecap: square"/>
   </g>
   <g id="patch_3">
    <path d="M 108 384.48 
L 108 51.84 
" style="fill: none; stroke: #000000; stroke-width: 0.8; stroke-linejoin: miter; stroke-linecap: square"/>
   </g>
   <g id="patch_4">
    <path d="M 777.6 384.48 
L 777.6 51.84 
" style="fill: none; stroke: #000000; stroke-width: 0.8; stroke-linejoin: miter; stroke-linecap: square"/>
   </g>
   <g id="patch_5">
    <path d="M 108 384.48 
L 777.6 384.48 
" style="fill: none; stroke: #000000; stroke-width: 0.8; stroke-linejoin: miter; stroke-linecap: square"/>
   </g>
   <g id="patch_6">
    <path d="M 108 51.84 
L 777.6 51.84 
" style="fill: none; stroke: #000000; stroke-width: 0.8; stroke-linejoin: miter; stroke-linecap: square"/>
   </g>
   <g id="text_15">
    <!-- Regresso: Real vs Previsto -->
    <g transform="translate(360.520313 45.84) scale(0.12 -0.12)">
     <defs>
      <path id="DejaVuSans-52" d="M 2841 2188 
Q 3044 2119 3236 1894 
Q 3428 1669 3622 1275 
L 4263 0 
L 3584 0 
L 2988 1197 
Q 2756 1666 2539 1819 
Q 2322 1972 1947 1972 
L 1259 1972 
L 1259 0 
L 628 0 
L 628 4666 
L 2053 4666 
Q 2853 4666 3247 4331 
Q 3641 3997 3641 3322 
Q 3641 2881 3436 2590 
Q 3231 2300 2841 2188 
z
M 1259 4147 
L 1259 2491 
L 2053 2491 
Q 2509 2491 2742 2702 
Q 2975 2913 2975 3322 
Q 2975 3731 2742 3939 
Q 2509 4147 2053 4147 
L 1259 4147 
z
" transform="scale(0.015625)"/>
      <path id="DejaVuSans-65" d="M 3597 1894 
L 3597 1613 
L 953 1613 
Q 991 1019 1311 708 
Q 1631 397 2203 397 
Q 2534 397 2845 478 
Q 3156 559 3463 722 
L 3463 178 
Q 3153 47 2828 -22 
Q 2503 -91 2169 -91 
Q 1331 -91 842 396 
Q 353 884 353 1716 
Q 353 2575 817 3079 
Q 1281 3584 2069 3584 
Q 2775 3584 3186 3129 
Q 3597 2675 3597 1894 
z
M 3022 2063 
Q 3016 2534 2758 2815 
Q 2500 3097 2075 3097 
Q 1594 3097 1305 2825 
Q 1016 2553 972 2059 
L 3022 2063 
z
" transform="scale(0.015625)"/>
      <path id="DejaVuSans-67" d="M 2906 1791 
Q 2906 2416 2648 2759 
Q 2391 3103 1925 3103 
Q 1463 3103 1205 2759 
Q 947 2416 947 1791 
Q 947 1169 1205 825 
Q 1463 481 1925 481 
Q 2391 481 2648 825 
Q 2906 1169 2906 1791 
z
M 3481 434 
Q 3481 -459 3084 -895 
Q 2688 -1331 1869 -1331 
Q 1566 -1331 1297 -1286 
Q 1028 -1241 775 -1147 
L 775 -588 
Q 1028 -725 1275 -790 
Q 1522 -856 1778 -856 
Q 2344 -856 2625 -561 
Q 2906 -266 2906 331 
L 2906 616 
Q 2728 306 2450 153 
Q 2172 0 1784 0 
Q 1141 0 747 490 
Q 353 981 353 1791 
Q 353 2603 747 3093 
Q 1141 3584 1784 3584 
Q 2172 3584 2450 3431 
Q 2728 3278 2906 2969 
L 2906 3500 
L 3481 3500 
L 3481 434 
z
" transform="scale(0.015625)"/>
      <path id="DejaVuSans-72" d="M 2631 2963 
Q 2534 3019 2420 3045 
Q 2306 3072 2169 3072 
Q 1681 3072 1420 2755 
Q 1159 2438 1159 1844 
L 1159 0 
L 581 0 
L 581 3500 
L 1159 3500 
L 1159 2956 
Q 1341 3275 1631 3429 
Q 1922 3584 2338 3584 
Q 2397 3584 2469 3576 
Q 2541 3569 2628 3553 
L 2631 2963 
z
" transform="scale(0.015625)"/>
      <path id="DejaVuSans-73" d="M 2834 3397 
L 2834 2853 
Q 2591 2978 2328 3040 
Q 2066 3103 1784 3103 
Q 1356 3103 1142 2972 
Q 928 2841 928 2578 
Q 928 2378 1081 2264 
Q 1234 2150 1697 2047 
L 1894 2003 
Q 2506 1872 2764 1633 
Q 3022 1394 3022 966 
Q 3022 478 2636 193 
Q 2250 -91 1575 -91 
Q 1294 -91 989 -36 
Q 684 19 347 128 
L 347 722 
Q 666 556 975 473 
Q 1284 391 1588 391 
Q 1994 391 2212 530 
Q 2431 669 2431 922 
Q 2431 1156 2273 1281 
Q 2116 1406 1581 1522 
L 1381 1569 
Q 847 1681 609 1914 
Q 372 2147 372 2553 
Q 372 3047 722 3315 
Q 1072 3584 1716 3584 
Q 2034 3584 2315 3537 
Q 2597 3491 2834 3397 
z
" transform="scale(0.015625)"/>
      <path id="DejaVuSans-e3" d="M 2194 1759 
Q 1497 1759 1228 1600 
Q 959 1441 959 1056 
Q 959 750 1161 570 
Q 1363 391 1709 391 
Q 2188 391 2477 730 
Q 2766 1069 2766 1631 
L 2766 1759 
L 2194 1759 
z
M 3341 1997 
L 3341 0 
L 2766 0 
L 2766 531 
Q 2569 213 2275 61 
Q 1981 -91 1556 -91 
Q 1019 -91 701 211 
Q 384 513 384 1019 
Q 384 1609 779 1909 
Q 1175 2209 1959 2209 
L 2766 2209 
L 2766 2266 
Q 2766 2663 2505 2880 
Q 2244 3097 1772 3097 
Q 1472 3097 1187 3025 
Q 903 2953 641 2809 
L 641 3341 
Q 956 3463 1253 3523 
Q 1550 3584 1831 3584 
Q 2591 3584 2966 3190 
Q 3341 2797 3341 1997 
z
M 1844 4281 
L 1665 4453 
Q 1597 4516 1545 4545 
Q 1494 4575 1453 4575 
Q 1334 4575 1278 4461 
Q 1222 4347 1215 4091 
L 825 4091 
Q 831 4513 990 4742 
Q 1150 4972 1434 4972 
Q 1553 4972 1653 4928 
Q 1753 4884 1869 4781 
L 2047 4609 
Q 2115 4547 2167 4517 
Q 2219 4488 2259 4488 
Q 2378 4488 2434 4602 
Q 2490 4716 2497 4972 
L 2887 4972 
Q 2881 4550 2721 4320 
Q 2562 4091 2278 4091 
Q 2159 4091 2059 4134 
Q 1959 4178 1844 4281 
z
" transform="scale(0.015625)"/>
      <path id="DejaVuSans-6f" d="M 1959 3097 
Q 1497 3097 1228 2736 
Q 959 2375 959 1747 
Q 959 1119 1226 758 
Q 1494 397 1959 397 
Q 2419 397 2687 759 
Q 2956 1122 2956 1747 
Q 2956 2369 2687 2733 
Q 2419 3097 1959 3097 
z
M 1959 3584 
Q 2709 3584 3137 3096 
Q 3566 2609 3566 1747 
Q 3566 888 3137 398 
Q 2709 -91 1959 -91 
Q 1206 -91 779 398 
Q 353 888 353 1747 
Q 353 2609 779 3096 
Q 1206 3584 1959 3584 
z
" transform="scale(0.015625)"/>
      <path id="DejaVuSans-3a" d="M 750 794 
L 1409 794 
L 1409 0 
L 750 0 
L 750 794 
z
M 750 3309 
L 1409 3309 
L 1409 2516 
L 750 2516 
L 750 3309 
z
" transform="scale(0.015625)"/>
      <path id="DejaVuSans-20" transform="scale(0.015625)"/>
      <path id="DejaVuSans-61" d="M 2194 1759 
Q 1497 1759 1228 1600 
Q 959 1441 959 1056 
Q 959 750 1161 570 
Q 1363 391 1709 391 
Q 2188 391 2477 730 
Q 2766 1069 2766 1631 
L 2766 1759 
L 2194 1759 
z
M 3341 1997 
L 3341 0 
L 2766 0 
L 2766 531 
Q 2569 213 2275 61 
Q 1981 -91 1556 -91 
Q 1019 -91 701 211 
Q 384 513 384 1019 
Q 384 1609 779 1909 
Q 1175 2209 1959 2209 
L 2766 2209 
L 2766 2266 
Q 2766 2663 2505 2880 
Q 2244 3097 1772 3097 
Q 1472 3097 1187 3025 
Q 903 2953 641 2809 
L 641 3341 
Q 956 3463 1253 3523 
Q 1550 3584 1831 3584 
Q 2591 3584 2966 3190 
Q 3341 2797 3341 1997 
z
" transform="scale(0.015625)"/>
      <path id="DejaVuSans-6c" d="M 603 4863 
L 1178 4863 
L 1178 0 
L 603 0 
L 603 4863 
z
" transform="scale(0.015625)"/>
      <path id="DejaVuSans-76" d="M 191 3500 
L 800 3500 
L 1894 563 
L 2988 3500 
L 3597 3500 
L 2284 0 
L 1503 0 
L 191 3500 
z
" transform="scale(0.015625)"/>
      <path id="DejaVuSans-50" d="M 1259 4147 
L 1259 2394 
L 2053 2394 
Q 2494 2394 2734 2622 
Q 2975 2850 2975 3272 
Q 2975 3691 2734 3919 
Q 2494 4147 2053 4147 
L 1259 4147 
z
M 628 4666 
L 2053 4666 
Q 2838 4666 3239 4311 
Q 3641 3956 3641 3272 
Q 3641 2581 3239 2228 
Q 2838 1875 2053 1875 
L 1259 1875 
L 1259 0 
L 628 0 
L 628 4666 
z
" transform="scale(0.015625)"/>
      <path id="DejaVuSans-69" d="M 603 3500 
L 1178 3500 
L 1178 0 
L 603 0 
L 603 3500 
z
M 603 4863 
L 1178 4863 
L 1178 4134 
L 603 4134 
L 603 4863 
z
" transform="scale(0.015625)"/>
      <path id="DejaVuSans-74" d="M 1172 4494 
L 1172 3500 
L 2356 3500 
L 2356 3053 
L 1172 3053 
L 1172 1153 
Q 1172 725 1289 603 
Q 1406 481 1766 481 
L 2356 481 
L 2356 0 
L 1766 0 
Q 1100 0 847 248 
Q 594 497 594 1153 
L 594 3053 
L 172 3053 
L 172 3500 
L 594 3500 
L 594 4494 
L 1172 4494 
z
" transform="scale(0.015625)"/>
     </defs>
     <use xlink:href="#DejaVuSans-52"/>
     <use xlink:href="#DejaVuSans-65" x="64.982422"/>
     <use xlink:href="#DejaVuSans-67" x="126.505859"/>
     <use xlink:href="#DejaVuSans-72" x="189.982422"/>
     <use xlink:href="#DejaVuSans-65" x="228.845703"/>
     <use xlink:href="#DejaVuSans-73" x="290.369141"/>
     <use xlink:href="#DejaVuSans-73" x="342.46875"/>
     <use xlink:href="#DejaVuSans-e3" x="394.568359"/>
     <use xlink:href="#DejaVuSans-6f" x="455.847656"/>
     <use xlink:href="#DejaVuSans-3a" x="517.029297"/>
     <use xlink:href="#DejaVuSans-20" x="550.720703"/>
     <use xlink:href="#DejaVuSans-52" x="582.507812"/>
     <use xlink:href="#DejaVuSans-65" x="647.490234"/>
     <use xlink:href="#DejaVuSans-61" x="709.013672"/>
     <use xlink:href="#DejaVuSans-6c" x="770.292969"/>
     <use xlink:href="#DejaVuSans-20" x="798.076172"/>
     <use xlink:href="#DejaVuSans-76" x="829.863281"/>
     <use xlink:href="#DejaVuSans-73" x="889.042969"/>
     <use xlink:href="#DejaVuSans-20" x="941.142578"/>
     <use xlink:href="#DejaVuSans-50" x="972.929688"/>
     <use xlink:href="#DejaVuSans-72" x="1031.482422"/>
     <use xlink:href="#DejaVuSans-65" x="1070.345703"/>
     <use xlink:href="#DejaVuSans-76" x="1131.869141"/>
     <use xlink:href="#DejaVuSans-69" x="1191.048828"/>
     <use xlink:href="#DejaVuSans-73" x="1218.832031"/>
     <use xlink:href="#DejaVuSans-74" x="1270.931641"/>
     <use xlink:href="#DejaVuSans-6f" x="1310.140625"/>
    </g>
   </g>
   <g id="legend_1">
    <g id="patch_7">
     <path d="M 672.315625 89.19625 
L 770.6 89.19625 
Q 772.6 89.19625 772.6 87.19625 
L 772.6 58.84 
Q 772.6 56.84 770.6 56.84 
L 672.315625 56.84 
Q 670.315625 56.84 670.315625 58.84 
L 670.315625 87.19625 
Q 670.315625 89.19625 672.315625 89.19625 
z
" style="fill: #ffffff; opacity: 0.8; stroke: #cccccc; stroke-linejoin: miter"/>
    </g>
    <g id="line2d_17">
     <path d="M 674.315625 64.938437 
L 684.315625 64.938437 
L 694.315625 64.938437 
" style="fill: none; stroke: #1f77b4; stroke-width: 1.5; stroke-linecap: square"/>
    </g>
    <g id="text_16">
     <!-- Valores Reais -->
     <g transform="translate(702.315625 68.438437) scale(0.1 -0.1)">
      <defs>
       <path id="DejaVuSans-56" d="M 1831 0 
L 50 4666 
L 709 4666 
L 2188 738 
L 3669 4666 
L 4325 4666 
L 2547 0 
L 1831 0 
z
" transform="scale(0.015625)"/>
      </defs>
      <use xlink:href="#DejaVuSans-56"/>
      <use xlink:href="#DejaVuSans-61" x="60.658203"/>
      <use xlink:href="#DejaVuSans-6c" x="121.9375"/>
      <use xlink:href="#DejaVuSans-6f" x="149.720703"/>
      <use xlink:href="#DejaVuSans-72" x="210.902344"/>
      <use xlink:href="#DejaVuSans-65" x="249.765625"/>
      <use xlink:href="#DejaVuSans-73" x="311.289062"/>
      <use xlink:href="#DejaVuSans-20" x="363.388672"/>
      <use xlink:href="#DejaVuSans-52" x="395.175781"/>
      <use xlink:href="#DejaVuSans-65" x="460.158203"/>
      <use xlink:href="#DejaVuSans-61" x="521.681641"/>
      <use xlink:href="#DejaVuSans-69" x="582.960938"/>
      <use xlink:href="#DejaVuSans-73" x="610.744141"/>
     </g>
    </g>
    <g id="line2d_18">
     <path d="M 674.315625 79.616562 
L 684.315625 79.616562 
L 694.315625 79.616562 
" style="fill: none; stroke: #ff7f0e; stroke-width: 1.5; stroke-linecap: square"/>
    </g>
    <g id="text_17">
     <!-- Previses -->
     <g transform="translate(702.315625 83.116562) scale(0.1 -0.1)">
      <defs>
       <path id="DejaVuSans-f5" d="M 1959 3097 
Q 1497 3097 1228 2736 
Q 959 2375 959 1747 
Q 959 1119 1226 758 
Q 1494 397 1959 397 
Q 2419 397 2687 759 
Q 2956 1122 2956 1747 
Q 2956 2369 2687 2733 
Q 2419 3097 1959 3097 
z
M 1959 3584 
Q 2709 3584 3137 3096 
Q 3566 2609 3566 1747 
Q 3566 888 3137 398 
Q 2709 -91 1959 -91 
Q 1206 -91 779 398 
Q 353 888 353 1747 
Q 353 2609 779 3096 
Q 1206 3584 1959 3584 
z
M 1948 4281 
L 1769 4453 
Q 1701 4516 1649 4545 
Q 1598 4575 1557 4575 
Q 1438 4575 1382 4461 
Q 1326 4347 1319 4091 
L 929 4091 
Q 935 4513 1094 4742 
Q 1254 4972 1538 4972 
Q 1657 4972 1757 4928 
Q 1857 4884 1973 4781 
L 2151 4609 
Q 2219 4547 2271 4517 
Q 2323 4488 2363 4488 
Q 2482 4488 2538 4602 
Q 2594 4716 2601 4972 
L 2991 4972 
Q 2985 4550 2825 4320 
Q 2666 4091 2382 4091 
Q 2263 4091 2163 4134 
Q 2063 4178 1948 4281 
z
" transform="scale(0.015625)"/>
      </defs>
      <use xlink:href="#DejaVuSans-50"/>
      <use xlink:href="#DejaVuSans-72" x="58.552734"/>
      <use xlink:href="#DejaVuSans-65" x="97.416016"/>
      <use xlink:href="#DejaVuSans-76" x="158.939453"/>
      <use xlink:href="#DejaVuSans-69" x="218.119141"/>
      <use xlink:href="#DejaVuSans-73" x="245.902344"/>
      <use xlink:href="#DejaVuSans-f5" x="298.001953"/>
      <use xlink:href="#DejaVuSans-65" x="359.183594"/>
      <use xlink:href="#DejaVuSans-73" x="420.707031"/>
     </g>
    </g>
   </g>
  </g>
 </g>
 <defs>
  <clipPath id="pbff6038898">
   <rect x="108" y="51.84" width="669.6" height="332.64"/>
  </clipPath>
 </defs>
</svg>
