<?xml version="1.0" encoding="utf-8" standalone="no"?>
<!DOCTYPE svg PUBLIC "-//W3C//DTD SVG 1.1//EN"
  "http://www.w3.org/Graphics/SVG/1.1/DTD/svg11.dtd">
<svg xmlns:xlink="http://www.w3.org/1999/xlink" width="864pt" height="432pt" viewBox="0 0 864 432" xmlns="http://www.w3.org/2000/svg" version="1.1">
 <metadata>
  <rdf:RDF xmlns:dc="http://purl.org/dc/elements/1.1/" xmlns:cc="http://creativecommons.org/ns#" xmlns:rdf="http://www.w3.org/1999/02/22-rdf-syntax-ns#">
   <cc:Work>
    <dc:type rdf:resource="http://purl.org/dc/dcmitype/StillImage"/>
    <dc:date>2024-12-01T14:05:29.249599</dc:date>
    <dc:format>image/svg+xml</dc:format>
    <dc:creator>
     <cc:Agent>
      <dc:title>Matplotlib v3.9.2, https://matplotlib.org/</dc:title>
     </cc:Agent>
    </dc:creator>
   </cc:Work>
  </rdf:RDF>
 </metadata>
 <defs>
  <style type="text/css">*{stroke-linejoin: round; stroke-linecap: butt}</style>
 </defs>
 <g id="figure_1">
  <g id="patch_1">
   <path d="M 0 432 
L 864 432 
L 864 0 
L 0 0 
z
" style="fill: #ffffff"/>
  </g>
  <g id="axes_1">
   <g id="patch_2">
    <path d="M 108 384.48 
L 777.6 384.48 
L 777.6 51.84 
L 108 51.84 
z
" style="fill: #ffffff"/>
   </g>
   <g id="matplotlib.axis_1">
    <g id="xtick_1">
     <g id="line2d_1">
      <defs>
       <path id="me170b42667" d="M 0 0 
L 0 3.5 
" style="stroke: #000000; stroke-width: 0.8"/>
      </defs>
      <g>
       <use xlink:href="#me170b42667" x="138.436364" y="384.48" style="stroke: #000000; stroke-width: 0.8"/>
      </g>
     </g>
     <g id="text_1">
      <!-- 0 -->
      <g transform="translate(135.255114 399.078438) scale(0.1 -0.1)">
       <defs>
        <path id="DejaVuSans-30" d="M 2034 4250 
Q 1547 4250 1301 3770 
Q 1056 3291 1056 2328 
Q 1056 1369 1301 889 
Q 1547 409 2034 409 
Q 2525 409 2770 889 
Q 3016 1369 3016 2328 
Q 3016 3291 2770 3770 
Q 2525 4250 2034 4250 
z
M 2034 4750 
Q 2819 4750 3233 4129 
Q 3647 3509 3647 2328 
Q 3647 1150 3233 529 
Q 2819 -91 2034 -91 
Q 1250 -91 836 529 
Q 422 1150 422 2328 
Q 422 3509 836 4129 
Q 1250 4750 2034 4750 
z
" transform="scale(0.015625)"/>
       </defs>
       <use xlink:href="#DejaVuSans-30"/>
      </g>
     </g>
    </g>
    <g id="xtick_2">
     <g id="line2d_2">
      <g>
       <use xlink:href="#me170b42667" x="231.513928" y="384.48" style="stroke: #000000; stroke-width: 0.8"/>
      </g>
     </g>
     <g id="text_2">
      <!-- 200 -->
      <g transform="translate(221.970178 399.078438) scale(0.1 -0.1)">
       <defs>
        <path id="DejaVuSans-32" d="M 1228 531 
L 3431 531 
L 3431 0 
L 469 0 
L 469 531 
Q 828 903 1448 1529 
Q 2069 2156 2228 2338 
Q 2531 2678 2651 2914 
Q 2772 3150 2772 3378 
Q 2772 3750 2511 3984 
Q 2250 4219 1831 4219 
Q 1534 4219 1204 4116 
Q 875 4013 500 3803 
L 500 4441 
Q 881 4594 1212 4672 
Q 1544 4750 1819 4750 
Q 2544 4750 2975 4387 
Q 3406 4025 3406 3419 
Q 3406 3131 3298 2873 
Q 3191 2616 2906 2266 
Q 2828 2175 2409 1742 
Q 1991 1309 1228 531 
z
" transform="scale(0.015625)"/>
       </defs>
       <use xlink:href="#DejaVuSans-32"/>
       <use xlink:href="#DejaVuSans-30" x="63.623047"/>
       <use xlink:href="#DejaVuSans-30" x="127.246094"/>
      </g>
     </g>
    </g>
    <g id="xtick_3">
     <g id="line2d_3">
      <g>
       <use xlink:href="#me170b42667" x="324.591493" y="384.48" style="stroke: #000000; stroke-width: 0.8"/>
      </g>
     </g>
     <g id="text_3">
      <!-- 400 -->
      <g transform="translate(315.047743 399.078438) scale(0.1 -0.1)">
       <defs>
        <path id="DejaVuSans-34" d="M 2419 4116 
L 825 1625 
L 2419 1625 
L 2419 4116 
z
M 2253 4666 
L 3047 4666 
L 3047 1625 
L 3713 1625 
L 3713 1100 
L 3047 1100 
L 3047 0 
L 2419 0 
L 2419 1100 
L 313 1100 
L 313 1709 
L 2253 4666 
z
" transform="scale(0.015625)"/>
       </defs>
       <use xlink:href="#DejaVuSans-34"/>
       <use xlink:href="#DejaVuSans-30" x="63.623047"/>
       <use xlink:href="#DejaVuSans-30" x="127.246094"/>
      </g>
     </g>
    </g>
    <g id="xtick_4">
     <g id="line2d_4">
      <g>
       <use xlink:href="#me170b42667" x="417.669058" y="384.48" style="stroke: #000000; stroke-width: 0.8"/>
      </g>
     </g>
     <g id="text_4">
      <!-- 600 -->
      <g transform="translate(408.125308 399.078438) scale(0.1 -0.1)">
       <defs>
        <path id="DejaVuSans-36" d="M 2113 2584 
Q 1688 2584 1439 2293 
Q 1191 2003 1191 1497 
Q 1191 994 1439 701 
Q 1688 409 2113 409 
Q 2538 409 2786 701 
Q 3034 994 3034 1497 
Q 3034 2003 2786 2293 
Q 2538 2584 2113 2584 
z
M 3366 4563 
L 3366 3988 
Q 3128 4100 2886 4159 
Q 2644 4219 2406 4219 
Q 1781 4219 1451 3797 
Q 1122 3375 1075 2522 
Q 1259 2794 1537 2939 
Q 1816 3084 2150 3084 
Q 2853 3084 3261 2657 
Q 3669 2231 3669 1497 
Q 3669 778 3244 343 
Q 2819 -91 2113 -91 
Q 1303 -91 875 529 
Q 447 1150 447 2328 
Q 447 3434 972 4092 
Q 1497 4750 2381 4750 
Q 2619 4750 2861 4703 
Q 3103 4656 3366 4563 
z
" transform="scale(0.015625)"/>
       </defs>
       <use xlink:href="#DejaVuSans-36"/>
       <use xlink:href="#DejaVuSans-30" x="63.623047"/>
       <use xlink:href="#DejaVuSans-30" x="127.246094"/>
      </g>
     </g>
    </g>
    <g id="xtick_5">
     <g id="line2d_5">
      <g>
       <use xlink:href="#me170b42667" x="510.746622" y="384.48" style="stroke: #000000; stroke-width: 0.8"/>
      </g>
     </g>
     <g id="text_5">
      <!-- 800 -->
      <g transform="translate(501.202872 399.078438) scale(0.1 -0.1)">
       <defs>
        <path id="DejaVuSans-38" d="M 2034 2216 
Q 1584 2216 1326 1975 
Q 1069 1734 1069 1313 
Q 1069 891 1326 650 
Q 1584 409 2034 409 
Q 2484 409 2743 651 
Q 3003 894 3003 1313 
Q 3003 1734 2745 1975 
Q 2488 2216 2034 2216 
z
M 1403 2484 
Q 997 2584 770 2862 
Q 544 3141 544 3541 
Q 544 4100 942 4425 
Q 1341 4750 2034 4750 
Q 2731 4750 3128 4425 
Q 3525 4100 3525 3541 
Q 3525 3141 3298 2862 
Q 3072 2584 2669 2484 
Q 3125 2378 3379 2068 
Q 3634 1759 3634 1313 
Q 3634 634 3220 271 
Q 2806 -91 2034 -91 
Q 1263 -91 848 271 
Q 434 634 434 1313 
Q 434 1759 690 2068 
Q 947 2378 1403 2484 
z
M 1172 3481 
Q 1172 3119 1398 2916 
Q 1625 2713 2034 2713 
Q 2441 2713 2670 2916 
Q 2900 3119 2900 3481 
Q 2900 3844 2670 4047 
Q 2441 4250 2034 4250 
Q 1625 4250 1398 4047 
Q 1172 3844 1172 3481 
z
" transform="scale(0.015625)"/>
       </defs>
       <use xlink:href="#DejaVuSans-38"/>
       <use xlink:href="#DejaVuSans-30" x="63.623047"/>
       <use xlink:href="#DejaVuSans-30" x="127.246094"/>
      </g>
     </g>
    </g>
    <g id="xtick_6">
     <g id="line2d_6">
      <g>
       <use xlink:href="#me170b42667" x="603.824187" y="384.48" style="stroke: #000000; stroke-width: 0.8"/>
      </g>
     </g>
     <g id="text_6">
      <!-- 1000 -->
      <g transform="translate(591.099187 399.078438) scale(0.1 -0.1)">
       <defs>
        <path id="DejaVuSans-31" d="M 794 531 
L 1825 531 
L 1825 4091 
L 703 3866 
L 703 4441 
L 1819 4666 
L 2450 4666 
L 2450 531 
L 3481 531 
L 3481 0 
L 794 0 
L 794 531 
z
" transform="scale(0.015625)"/>
       </defs>
       <use xlink:href="#DejaVuSans-31"/>
       <use xlink:href="#DejaVuSans-30" x="63.623047"/>
       <use xlink:href="#DejaVuSans-30" x="127.246094"/>
       <use xlink:href="#DejaVuSans-30" x="190.869141"/>
      </g>
     </g>
    </g>
    <g id="xtick_7">
     <g id="line2d_7">
      <g>
       <use xlink:href="#me170b42667" x="696.901751" y="384.48" style="stroke: #000000; stroke-width: 0.8"/>
      </g>
     </g>
     <g id="text_7">
      <!-- 1200 -->
      <g transform="translate(684.176751 399.078438) scale(0.1 -0.1)">
       <use xlink:href="#DejaVuSans-31"/>
       <use xlink:href="#DejaVuSans-32" x="63.623047"/>
       <use xlink:href="#DejaVuSans-30" x="127.246094"/>
       <use xlink:href="#DejaVuSans-30" x="190.869141"/>
      </g>
     </g>
    </g>
   </g>
   <g id="matplotlib.axis_2">
    <g id="ytick_1">
     <g id="line2d_8">
      <defs>
       <path id="m783f07a279" d="M 0 0 
L -3.5 0 
" style="stroke: #000000; stroke-width: 0.8"/>
      </defs>
      <g>
       <use xlink:href="#m783f07a279" x="108" y="374.085" style="stroke: #000000; stroke-width: 0.8"/>
      </g>
     </g>
     <g id="text_8">
      <!-- 0 -->
      <g transform="translate(94.6375 377.884219) scale(0.1 -0.1)">
       <use xlink:href="#DejaVuSans-30"/>
      </g>
     </g>
    </g>
    <g id="ytick_2">
     <g id="line2d_9">
      <g>
       <use xlink:href="#m783f07a279" x="108" y="322.000748" style="stroke: #000000; stroke-width: 0.8"/>
      </g>
     </g>
     <g id="text_9">
      <!-- 50 -->
      <g transform="translate(88.275 325.799967) scale(0.1 -0.1)">
       <defs>
        <path id="DejaVuSans-35" d="M 691 4666 
L 3169 4666 
L 3169 4134 
L 1269 4134 
L 1269 2991 
Q 1406 3038 1543 3061 
Q 1681 3084 1819 3084 
Q 2600 3084 3056 2656 
Q 3513 2228 3513 1497 
Q 3513 744 3044 326 
Q 2575 -91 1722 -91 
Q 1428 -91 1123 -41 
Q 819 9 494 109 
L 494 744 
Q 775 591 1075 516 
Q 1375 441 1709 441 
Q 2250 441 2565 725 
Q 2881 1009 2881 1497 
Q 2881 1984 2565 2268 
Q 2250 2553 1709 2553 
Q 1456 2553 1204 2497 
Q 953 2441 691 2322 
L 691 4666 
z
" transform="scale(0.015625)"/>
       </defs>
       <use xlink:href="#DejaVuSans-35"/>
       <use xlink:href="#DejaVuSans-30" x="63.623047"/>
      </g>
     </g>
    </g>
    <g id="ytick_3">
     <g id="line2d_10">
      <g>
       <use xlink:href="#m783f07a279" x="108" y="269.916496" style="stroke: #000000; stroke-width: 0.8"/>
      </g>
     </g>
     <g id="text_10">
      <!-- 100 -->
      <g transform="translate(81.9125 273.715715) scale(0.1 -0.1)">
       <use xlink:href="#DejaVuSans-31"/>
       <use xlink:href="#DejaVuSans-30" x="63.623047"/>
       <use xlink:href="#DejaVuSans-30" x="127.246094"/>
      </g>
     </g>
    </g>
    <g id="ytick_4">
     <g id="line2d_11">
      <g>
       <use xlink:href="#m783f07a279" x="108" y="217.832244" style="stroke: #000000; stroke-width: 0.8"/>
      </g>
     </g>
     <g id="text_11">
      <!-- 150 -->
      <g transform="translate(81.9125 221.631463) scale(0.1 -0.1)">
       <use xlink:href="#DejaVuSans-31"/>
       <use xlink:href="#DejaVuSans-35" x="63.623047"/>
       <use xlink:href="#DejaVuSans-30" x="127.246094"/>
      </g>
     </g>
    </g>
    <g id="ytick_5">
     <g id="line2d_12">
      <g>
       <use xlink:href="#m783f07a279" x="108" y="165.747992" style="stroke: #000000; stroke-width: 0.8"/>
      </g>
     </g>
     <g id="text_12">
      <!-- 200 -->
      <g transform="translate(81.9125 169.547211) scale(0.1 -0.1)">
       <use xlink:href="#DejaVuSans-32"/>
       <use xlink:href="#DejaVuSans-30" x="63.623047"/>
       <use xlink:href="#DejaVuSans-30" x="127.246094"/>
      </g>
     </g>
    </g>
    <g id="ytick_6">
     <g id="line2d_13">
      <g>
       <use xlink:href="#m783f07a279" x="108" y="113.66374" style="stroke: #000000; stroke-width: 0.8"/>
      </g>
     </g>
     <g id="text_13">
      <!-- 250 -->
      <g transform="translate(81.9125 117.462959) scale(0.1 -0.1)">
       <use xlink:href="#DejaVuSans-32"/>
       <use xlink:href="#DejaVuSans-35" x="63.623047"/>
       <use xlink:href="#DejaVuSans-30" x="127.246094"/>
      </g>
     </g>
    </g>
    <g id="ytick_7">
     <g id="line2d_14">
      <g>
       <use xlink:href="#m783f07a279" x="108" y="61.579488" style="stroke: #000000; stroke-width: 0.8"/>
      </g>
     </g>
     <g id="text_14">
      <!-- 300 -->
      <g transform="translate(81.9125 65.378707) scale(0.1 -0.1)">
       <defs>
        <path id="DejaVuSans-33" d="M 2597 2516 
Q 3050 2419 3304 2112 
Q 3559 1806 3559 1356 
Q 3559 666 3084 287 
Q 2609 -91 1734 -91 
Q 1441 -91 1130 -33 
Q 819 25 488 141 
L 488 750 
Q 750 597 1062 519 
Q 1375 441 1716 441 
Q 2309 441 2620 675 
Q 2931 909 2931 1356 
Q 2931 1769 2642 2001 
Q 2353 2234 1838 2234 
L 1294 2234 
L 1294 2753 
L 1863 2753 
Q 2328 2753 2575 2939 
Q 2822 3125 2822 3475 
Q 2822 3834 2567 4026 
Q 2313 4219 1838 4219 
Q 1578 4219 1281 4162 
Q 984 4106 628 3988 
L 628 4550 
Q 988 4650 1302 4700 
Q 1616 4750 1894 4750 
Q 2613 4750 3031 4423 
Q 3450 4097 3450 3541 
Q 3450 3153 3228 2886 
Q 3006 2619 2597 2516 
z
" transform="scale(0.015625)"/>
       </defs>
       <use xlink:href="#DejaVuSans-33"/>
       <use xlink:href="#DejaVuSans-30" x="63.623047"/>
       <use xlink:href="#DejaVuSans-30" x="127.246094"/>
      </g>
     </g>
    </g>
   </g>
   <g id="line2d_15">
    <path d="M 138.436364 350.46 
L 138.901751 345.735 
L 139.367139 251.235 
L 139.832527 355.185 
L 140.297915 211.0725 
L 140.763303 267.7725 
L 141.228691 289.035 
L 141.694078 279.585 
L 142.159466 352.8225 
L 142.624854 76.41 
L 143.090242 201.6225 
L 143.55563 239.4225 
L 144.021018 267.7725 
L 144.486405 246.51 
L 144.951793 253.5975 
L 145.417181 225.2475 
L 145.882569 267.7725 
L 146.347957 265.41 
L 146.813344 319.7475 
L 147.278732 201.6225 
L 147.74412 341.01 
L 148.209508 267.7725 
L 149.140284 267.7725 
L 149.605671 244.1475 
L 150.071059 244.1475 
L 150.536447 341.01 
L 151.001835 213.435 
L 151.467223 218.16 
L 151.932611 208.71 
L 152.397998 85.86 
L 152.863386 281.9475 
L 153.328774 267.7725 
L 153.794162 199.26 
L 154.25955 258.3225 
L 154.724937 199.26 
L 155.190325 244.1475 
L 155.655713 208.71 
L 156.121101 331.56 
L 156.586489 225.2475 
L 157.051877 199.26 
L 157.517264 201.6225 
L 157.982652 263.0475 
L 158.44804 100.035 
L 158.913428 338.6475 
L 159.378816 350.46 
L 159.844204 187.4475 
L 160.309591 213.435 
L 160.774979 319.7475 
L 161.240367 161.46 
L 161.705755 346.91625 
L 162.171143 350.46 
L 162.63653 118.935 
L 163.101918 267.7725 
L 163.567306 244.1475 
L 164.032694 253.5975 
L 164.498082 201.6225 
L 165.428857 319.7475 
L 165.894245 201.6225 
L 166.359633 279.585 
L 166.825021 267.7725 
L 167.290409 345.735 
L 167.755796 208.71 
L 168.221184 187.4475 
L 168.686572 274.86 
L 169.15196 270.135 
L 169.617348 284.31 
L 170.082736 85.86 
L 170.548123 355.185 
L 171.013511 258.3225 
L 171.478899 201.6225 
L 172.409675 267.7725 
L 172.875063 267.7725 
L 173.34045 244.1475 
L 173.805838 317.385 
L 174.271226 244.1475 
L 174.736614 336.285 
L 175.202002 310.2975 
L 175.667389 192.1725 
L 176.132777 201.6225 
L 177.063553 293.76 
L 177.528941 263.0475 
L 177.994329 246.51 
L 178.459716 267.7725 
L 178.925104 355.185 
L 179.390492 350.46 
L 179.85588 258.3225 
L 180.321268 313.84125 
L 180.786656 350.46 
L 181.252043 118.935 
L 181.717431 341.01 
L 182.182819 336.285 
L 182.648207 258.3225 
L 183.113595 263.0475 
L 183.578982 95.31 
L 184.04437 270.135 
L 184.975146 237.06 
L 185.440534 246.51 
L 185.905922 246.51 
L 186.371309 307.935 
L 186.836697 244.1475 
L 187.302085 201.6225 
L 187.767473 267.7725 
L 188.232861 213.435 
L 188.698249 201.6225 
L 189.163636 312.66 
L 189.629024 338.6475 
L 190.094412 326.835 
L 190.5598 218.16 
L 191.490575 310.2975 
L 191.955963 234.6975 
L 192.421351 222.885 
L 192.886739 329.1975 
L 193.352127 265.41 
L 193.817515 161.46 
L 194.282902 201.6225 
L 194.74829 222.885 
L 195.213678 362.2725 
L 195.679066 241.785 
L 196.144454 336.285 
L 196.609842 227.61 
L 197.075229 362.2725 
L 197.540617 213.435 
L 198.006005 192.1725 
L 198.471393 225.2475 
L 199.402168 312.66 
L 199.867556 225.2475 
L 200.332944 225.2475 
L 200.798332 267.7725 
L 201.26372 244.1475 
L 201.729108 366.9975 
L 202.194495 341.01 
L 202.659883 350.46 
L 203.125271 322.11 
L 203.590659 246.51 
L 204.056047 90.585 
L 204.521435 263.0475 
L 204.986822 350.46 
L 205.917598 359.91 
L 206.382986 348.0975 
L 206.848374 237.06 
L 207.313761 239.4225 
L 207.779149 263.0475 
L 208.244537 232.335 
L 208.709925 289.035 
L 209.175313 248.8725 
L 209.640701 324.4725 
L 210.106088 244.1475 
L 210.571476 251.235 
L 211.036864 270.135 
L 211.502252 350.46 
L 211.96764 244.1475 
L 212.433028 192.1725 
L 212.898415 244.1475 
L 213.363803 350.46 
L 213.829191 267.7725 
L 214.294579 244.1475 
L 214.759967 246.51 
L 215.225354 350.46 
L 215.690742 201.6225 
L 216.15613 199.26 
L 217.086906 308.88 
L 217.552294 312.66 
L 218.017681 225.2475 
L 218.483069 312.66 
L 218.948457 312.66 
L 219.413845 289.035 
L 219.879233 336.285 
L 220.344621 366.9975 
L 220.810008 336.285 
L 221.275396 215.7975 
L 221.740784 312.66 
L 222.206172 307.935 
L 222.67156 293.76 
L 223.136947 265.41 
L 223.602335 267.7725 
L 224.067723 255.96 
L 224.533111 286.6725 
L 224.998499 213.435 
L 225.463887 341.01 
L 225.929274 244.1475 
L 226.394662 293.76 
L 226.86005 225.2475 
L 227.325438 85.86 
L 227.790826 286.6725 
L 228.256214 225.2475 
L 228.721601 357.5475 
L 229.186989 317.385 
L 229.652377 359.91 
L 230.117765 350.46 
L 230.583153 225.2475 
L 231.04854 244.1475 
L 231.513928 255.96 
L 231.979316 341.01 
L 232.444704 187.4475 
L 232.910092 345.2625 
L 233.37548 95.31 
L 233.840867 267.7725 
L 234.306255 225.2475 
L 234.771643 222.885 
L 235.237031 244.1475 
L 235.702419 293.76 
L 236.167807 211.0725 
L 236.633194 241.785 
L 237.098582 319.7475 
L 237.56397 336.285 
L 238.494746 109.485 
L 238.960133 358.72875 
L 239.425521 279.585 
L 239.890909 244.1475 
L 240.356297 260.685 
L 240.821685 225.2475 
L 241.287073 258.3225 
L 241.75246 66.96 
L 242.217848 315.0225 
L 242.683236 263.0475 
L 243.148624 66.96 
L 243.614012 267.7725 
L 244.079399 341.01 
L 244.544787 244.1475 
L 245.010175 260.685 
L 245.475563 333.9225 
L 245.940951 244.1475 
L 246.406339 263.0475 
L 246.871726 362.2725 
L 247.337114 248.8725 
L 247.802502 239.4225 
L 248.26789 253.5975 
L 248.733278 260.685 
L 249.198666 196.8975 
L 249.664053 260.685 
L 250.129441 206.3475 
L 250.594829 307.935 
L 251.060217 267.7725 
L 251.525605 312.66 
L 251.990992 244.1475 
L 252.45638 220.5225 
L 252.921768 364.635 
L 253.387156 312.66 
L 253.852544 362.2725 
L 254.317932 95.31 
L 254.783319 267.7725 
L 255.248707 333.9225 
L 255.714095 239.4225 
L 256.179483 307.935 
L 256.644871 350.46 
L 257.110259 310.2975 
L 257.575646 229.9725 
L 258.041034 345.735 
L 258.506422 118.935 
L 258.97181 244.1475 
L 259.437198 244.1475 
L 259.902585 258.3225 
L 260.367973 196.8975 
L 260.833361 307.935 
L 261.298749 211.0725 
L 261.764137 286.6725 
L 262.229525 258.3225 
L 262.694912 206.3475 
L 263.1603 286.6725 
L 263.625688 258.3225 
L 264.091076 244.1475 
L 265.021852 336.285 
L 265.487239 317.385 
L 266.418015 248.8725 
L 266.883403 341.01 
L 267.348791 244.1475 
L 267.814178 211.0725 
L 268.279566 342.19125 
L 268.744954 350.46 
L 269.210342 329.1975 
L 270.141118 229.9725 
L 270.606505 324.4725 
L 271.071893 350.46 
L 271.537281 244.1475 
L 272.002669 281.9475 
L 272.933445 225.2475 
L 273.398832 244.1475 
L 273.86422 211.0725 
L 274.329608 225.2475 
L 274.794996 362.2725 
L 275.260384 258.3225 
L 275.725771 95.31 
L 276.191159 244.1475 
L 276.656547 161.46 
L 277.121935 244.1475 
L 277.587323 137.835 
L 278.052711 336.285 
L 278.518098 345.735 
L 278.983486 196.8975 
L 279.448874 201.6225 
L 279.914262 267.7725 
L 280.37965 234.6975 
L 280.845038 248.8725 
L 281.310425 220.5225 
L 281.775813 234.6975 
L 282.241201 95.31 
L 282.706589 345.735 
L 283.171977 333.9225 
L 283.637364 355.185 
L 284.102752 338.6475 
L 284.56814 213.435 
L 285.033528 270.135 
L 285.498916 118.935 
L 285.964304 338.6475 
L 286.429691 260.685 
L 286.895079 253.5975 
L 287.825855 357.5475 
L 288.291243 137.835 
L 288.756631 263.0475 
L 289.222018 244.1475 
L 289.687406 260.685 
L 290.152794 246.51 
L 290.618182 326.835 
L 291.08357 255.96 
L 291.548957 331.56 
L 292.014345 260.685 
L 292.479733 76.41 
L 292.945121 211.0725 
L 293.410509 310.2975 
L 293.875897 267.7725 
L 294.341284 253.5975 
L 294.806672 331.56 
L 295.737448 194.535 
L 296.202836 265.41 
L 296.668224 312.66 
L 297.133611 237.06 
L 297.598999 317.385 
L 298.064387 263.0475 
L 298.529775 244.1475 
L 298.995163 258.3225 
L 299.46055 137.835 
L 299.925938 239.4225 
L 300.391326 199.26 
L 300.856714 118.935 
L 301.322102 248.8725 
L 301.78749 317.385 
L 302.252877 258.3225 
L 302.718265 260.685 
L 303.183653 244.1475 
L 303.649041 206.3475 
L 304.114429 312.66 
L 304.579817 270.135 
L 305.045204 350.46 
L 305.510592 357.5475 
L 306.441368 218.16 
L 306.906756 258.3225 
L 307.372143 244.1475 
L 307.837531 333.9225 
L 308.302919 215.7975 
L 308.768307 270.135 
L 309.233695 137.835 
L 309.699083 173.2725 
L 310.16447 350.46 
L 310.629858 343.3725 
L 311.095246 329.1975 
L 311.560634 100.035 
L 312.026022 267.7725 
L 312.49141 244.1475 
L 312.956797 267.7725 
L 313.422185 263.0475 
L 313.887573 208.71 
L 314.352961 355.185 
L 314.818349 267.7725 
L 315.283736 267.7725 
L 315.749124 244.1475 
L 316.214512 265.41 
L 316.6799 244.1475 
L 317.145288 196.8975 
L 317.610676 350.46 
L 318.076063 307.935 
L 318.541451 344.55375 
L 319.006839 267.7725 
L 319.472227 265.41 
L 319.937615 237.06 
L 320.403003 361.09125 
L 320.86839 201.6225 
L 321.799166 333.9225 
L 322.264554 161.46 
L 322.729942 182.7225 
L 323.195329 239.4225 
L 323.660717 310.2975 
L 324.591493 225.2475 
L 325.056881 258.3225 
L 325.522269 234.6975 
L 325.987656 281.9475 
L 326.453044 350.46 
L 326.918432 267.7725 
L 327.38382 291.3975 
L 327.849208 215.7975 
L 328.314595 355.185 
L 328.779983 350.46 
L 329.245371 251.235 
L 329.710759 349.27875 
L 330.176147 161.46 
L 330.641535 237.06 
L 331.106922 356.36625 
L 331.57231 260.685 
L 332.037698 196.8975 
L 332.503086 312.66 
L 332.968474 324.4725 
L 333.433862 341.01 
L 333.899249 76.41 
L 334.364637 312.66 
L 334.830025 187.4475 
L 335.295413 350.46 
L 335.760801 312.66 
L 336.226188 331.56 
L 336.691576 312.66 
L 337.156964 350.46 
L 337.622352 358.72875 
L 338.08774 267.7725 
L 338.553128 208.71 
L 339.018515 194.535 
L 339.483903 234.6975 
L 339.949291 237.06 
L 340.414679 194.535 
L 340.880067 203.985 
L 341.345455 345.735 
L 341.810842 201.6225 
L 342.27623 234.6975 
L 342.741618 215.7975 
L 343.207006 263.0475 
L 343.672394 100.035 
L 344.137781 234.6975 
L 344.603169 319.7475 
L 345.068557 253.5975 
L 345.999333 366.9975 
L 346.464721 293.76 
L 346.930108 315.0225 
L 347.395496 241.785 
L 347.860884 341.01 
L 348.326272 196.8975 
L 348.79166 267.7725 
L 349.257048 284.31 
L 349.722435 317.385 
L 350.187823 284.31 
L 350.653211 364.635 
L 351.118599 114.21 
L 351.583987 232.335 
L 352.049374 267.7725 
L 352.514762 286.6725 
L 352.98015 215.7975 
L 353.445538 350.46 
L 353.910926 310.2975 
L 354.376314 206.3475 
L 354.841701 267.7725 
L 355.307089 206.3475 
L 355.772477 357.5475 
L 356.237865 274.86 
L 356.703253 244.1475 
L 357.168641 317.385 
L 357.634028 244.1475 
L 358.099416 315.0225 
L 358.564804 331.56 
L 359.030192 317.385 
L 359.49558 71.685 
L 359.960967 329.1975 
L 360.426355 315.0225 
L 360.891743 215.7975 
L 361.357131 310.2975 
L 361.822519 352.8225 
L 362.753294 192.1725 
L 363.218682 189.81 
L 363.68407 215.7975 
L 364.149458 213.435 
L 364.614846 303.21 
L 365.080234 251.235 
L 365.545621 255.96 
L 366.011009 345.735 
L 366.476397 342.19125 
L 366.941785 336.285 
L 367.407173 244.1475 
L 367.87256 225.2475 
L 368.337948 177.9975 
L 368.803336 227.61 
L 369.268724 206.3475 
L 369.734112 355.185 
L 370.1995 307.935 
L 370.664887 357.5475 
L 371.130275 218.16 
L 372.061051 307.935 
L 372.526439 331.56 
L 372.991827 218.16 
L 373.457214 307.935 
L 373.922602 336.285 
L 374.38799 274.86 
L 374.853378 244.1475 
L 375.318766 253.5975 
L 375.784153 260.685 
L 376.249541 364.635 
L 376.714929 244.1475 
L 377.180317 286.6725 
L 377.645705 201.6225 
L 378.111093 349.27875 
L 378.57648 192.1725 
L 379.041868 350.46 
L 379.507256 248.8725 
L 379.972644 258.3225 
L 380.438032 331.56 
L 380.90342 201.6225 
L 381.834195 359.91 
L 382.299583 194.535 
L 382.764971 286.6725 
L 383.230359 263.0475 
L 383.695746 161.46 
L 384.161134 312.66 
L 384.626522 208.71 
L 385.09191 279.585 
L 385.557298 331.56 
L 386.022686 348.0975 
L 386.488073 239.4225 
L 386.953461 232.335 
L 387.418849 196.8975 
L 387.884237 255.96 
L 388.349625 267.7725 
L 388.815013 289.035 
L 389.2804 265.41 
L 389.745788 267.7725 
L 390.211176 286.6725 
L 390.676564 326.835 
L 391.141952 350.46 
L 391.607339 293.76 
L 392.072727 218.16 
L 392.538115 248.8725 
L 393.003503 199.26 
L 393.468891 267.7725 
L 393.934279 213.435 
L 394.399666 359.91 
L 394.865054 244.1475 
L 395.330442 345.2625 
L 395.79583 286.6725 
L 396.261218 201.6225 
L 396.726606 213.435 
L 397.191993 213.435 
L 397.657381 267.7725 
L 398.122769 258.3225 
L 398.588157 357.5475 
L 399.053545 286.6725 
L 399.518932 350.46 
L 400.449708 215.7975 
L 400.915096 225.2475 
L 401.380484 315.0225 
L 401.845872 263.0475 
L 402.311259 319.7475 
L 402.776647 201.6225 
L 403.242035 244.1475 
L 403.707423 326.835 
L 404.172811 201.6225 
L 404.638198 279.585 
L 405.103586 248.8725 
L 405.568974 307.935 
L 406.034362 161.46 
L 406.49975 234.6975 
L 407.430525 343.3725 
L 407.895913 336.285 
L 408.361301 279.585 
L 408.826689 312.66 
L 409.292077 362.2725 
L 409.757465 341.01 
L 410.222852 338.6475 
L 410.68824 196.8975 
L 411.153628 192.1725 
L 411.619016 319.7475 
L 412.084404 364.635 
L 412.549791 350.46 
L 413.015179 305.5725 
L 413.480567 350.46 
L 413.945955 239.4225 
L 414.411343 244.1475 
L 414.876731 284.31 
L 415.342118 246.51 
L 415.807506 274.86 
L 416.272894 206.3475 
L 416.738282 267.7725 
L 417.20367 239.4225 
L 417.669058 350.46 
L 418.134445 194.535 
L 418.599833 272.4975 
L 419.065221 201.6225 
L 419.530609 336.285 
L 419.995997 201.6225 
L 420.461384 331.56 
L 420.926772 331.56 
L 421.39216 341.01 
L 421.857548 336.285 
L 422.322936 220.5225 
L 422.788324 211.0725 
L 423.253711 246.51 
L 423.719099 315.0225 
L 424.184487 326.835 
L 424.649875 350.46 
L 425.115263 338.6475 
L 425.580651 263.0475 
L 426.046038 206.3475 
L 426.511426 362.2725 
L 427.442202 255.96 
L 427.90759 258.3225 
L 428.372977 336.285 
L 428.838365 244.1475 
L 429.303753 303.21 
L 429.769141 319.7475 
L 430.234529 267.7725 
L 430.699917 194.535 
L 431.165304 90.585 
L 431.630692 248.8725 
L 432.09608 255.96 
L 432.561468 206.3475 
L 433.026856 309.11625 
L 433.492244 258.3225 
L 433.957631 333.9225 
L 434.423019 279.585 
L 434.888407 258.3225 
L 435.353795 350.46 
L 436.28457 161.46 
L 436.749958 289.035 
L 437.215346 241.785 
L 437.680734 211.0725 
L 438.61151 267.7725 
L 439.076897 284.31 
L 439.542285 234.6975 
L 440.007673 255.96 
L 440.473061 289.035 
L 440.938449 244.1475 
L 441.403837 267.7725 
L 441.869224 270.135 
L 442.334612 307.935 
L 442.8 260.685 
L 443.265388 344.55375 
L 443.730776 95.31 
L 444.196163 244.1475 
L 444.661551 234.6975 
L 445.126939 315.0225 
L 445.592327 196.8975 
L 446.057715 244.1475 
L 446.523103 267.7725 
L 446.98849 229.9725 
L 447.453878 310.2975 
L 447.919266 244.1475 
L 448.384654 255.96 
L 448.850042 194.535 
L 449.780817 344.55375 
L 450.246205 118.935 
L 450.711593 267.7725 
L 451.176981 237.06 
L 451.642369 333.9225 
L 452.107756 317.385 
L 452.573144 274.86 
L 453.038532 206.3475 
L 453.50392 255.96 
L 453.969308 253.5975 
L 454.434696 279.585 
L 454.900083 206.3475 
L 455.365471 359.91 
L 455.830859 215.7975 
L 456.296247 258.3225 
L 456.761635 258.3225 
L 457.227023 213.435 
L 457.69241 211.0725 
L 458.157798 289.035 
L 458.623186 312.66 
L 459.088574 187.4475 
L 459.553962 258.3225 
L 460.019349 267.7725 
L 460.484737 343.3725 
L 460.950125 362.2725 
L 461.415513 350.46 
L 462.811676 350.46 
L 463.277064 118.935 
L 463.742452 307.935 
L 464.20784 225.2475 
L 464.673228 255.96 
L 465.138616 358.72875 
L 465.604003 298.485 
L 466.069391 255.96 
L 466.534779 267.7725 
L 467.000167 258.3225 
L 468.39633 265.41 
L 468.861718 307.935 
L 469.327106 366.9975 
L 469.792494 330.37875 
L 470.257882 355.185 
L 470.723269 341.01 
L 471.188657 350.46 
L 471.654045 199.26 
L 472.584821 263.0475 
L 473.050209 369.36 
L 473.515596 263.0475 
L 473.980984 350.46 
L 474.446372 258.3225 
L 474.91176 244.1475 
L 475.377148 307.935 
L 475.842535 225.2475 
L 476.307923 355.185 
L 476.773311 267.7725 
L 477.238699 239.4225 
L 477.704087 244.1475 
L 478.169475 199.26 
L 478.634862 317.385 
L 479.10025 246.51 
L 479.565638 255.96 
L 480.031026 263.0475 
L 480.496414 341.01 
L 480.961802 312.66 
L 481.427189 350.46 
L 481.892577 338.6475 
L 482.357965 258.3225 
L 482.823353 244.1475 
L 483.288741 258.3225 
L 483.754128 258.3225 
L 484.219516 251.235 
L 484.684904 118.935 
L 485.150292 318.56625 
L 485.61568 76.41 
L 486.081068 267.7725 
L 486.546455 263.0475 
L 487.011843 137.835 
L 487.477231 215.7975 
L 487.942619 316.20375 
L 488.408007 315.0225 
L 488.873394 258.3225 
L 489.338782 244.1475 
L 489.80417 263.0475 
L 490.269558 263.0475 
L 490.734946 279.585 
L 491.200334 246.51 
L 491.665721 192.1725 
L 492.131109 310.2975 
L 492.596497 255.96 
L 493.061885 350.46 
L 493.527273 267.7725 
L 493.992661 244.1475 
L 494.458048 244.1475 
L 494.923436 239.4225 
L 495.388824 267.7725 
L 495.854212 331.56 
L 496.3196 263.0475 
L 496.784987 258.3225 
L 497.250375 319.7475 
L 498.181151 333.9225 
L 498.646539 244.1475 
L 499.111927 211.0725 
L 499.577314 215.7975 
L 500.042702 312.66 
L 500.50809 286.6725 
L 500.973478 229.9725 
L 501.438866 253.5975 
L 501.904254 263.0475 
L 502.369641 267.7725 
L 502.835029 244.1475 
L 503.300417 341.01 
L 503.765805 355.185 
L 504.231193 355.185 
L 504.69658 265.41 
L 505.161968 289.035 
L 505.627356 244.1475 
L 506.092744 355.185 
L 506.558132 326.835 
L 507.02352 258.3225 
L 507.488907 336.285 
L 507.954295 232.335 
L 508.419683 258.3225 
L 508.885071 350.46 
L 509.350459 310.2975 
L 509.815847 248.8725 
L 510.281234 225.2475 
L 510.746622 263.0475 
L 511.21201 258.3225 
L 511.677398 225.2475 
L 512.142786 310.2975 
L 512.608173 211.0725 
L 513.538949 350.46 
L 514.004337 331.56 
L 514.469725 279.585 
L 514.935113 244.1475 
L 515.4005 359.91 
L 515.865888 359.91 
L 516.331276 263.0475 
L 516.796664 350.46 
L 517.262052 246.51 
L 517.72744 350.46 
L 518.192827 263.0475 
L 518.658215 279.585 
L 519.123603 267.7725 
L 519.588991 100.035 
L 520.054379 267.7725 
L 520.519766 350.46 
L 520.985154 248.8725 
L 521.450542 199.26 
L 521.91593 225.2475 
L 522.381318 258.3225 
L 522.846706 258.3225 
L 523.312093 241.785 
L 523.777481 329.1975 
L 524.242869 369.36 
L 524.708257 192.1725 
L 525.173645 234.6975 
L 525.639033 248.8725 
L 526.10442 196.8975 
L 526.569808 343.3725 
L 527.035196 350.46 
L 527.500584 324.4725 
L 527.965972 248.8725 
L 528.431359 317.385 
L 528.896747 270.135 
L 529.362135 248.8725 
L 529.827523 90.585 
L 530.292911 336.285 
L 530.758299 333.9225 
L 531.223686 267.7725 
L 531.689074 336.285 
L 532.154462 350.46 
L 532.61985 222.885 
L 533.085238 307.935 
L 533.550626 201.6225 
L 534.016013 203.985 
L 534.481401 263.0475 
L 534.946789 350.46 
L 535.412177 220.5225 
L 535.877565 237.06 
L 536.342952 199.26 
L 536.80834 248.8725 
L 537.273728 317.385 
L 537.739116 255.96 
L 538.204504 267.7725 
L 538.669892 248.8725 
L 539.135279 192.1725 
L 539.600667 312.66 
L 540.066055 341.01 
L 540.531443 258.3225 
L 540.996831 358.72875 
L 541.462219 286.6725 
L 541.927606 312.66 
L 542.392994 206.3475 
L 542.858382 291.3975 
L 543.32377 345.735 
L 543.789158 237.06 
L 544.254545 246.51 
L 544.719933 345.735 
L 545.185321 267.7725 
L 545.650709 244.1475 
L 546.116097 336.285 
L 546.581485 255.96 
L 547.046872 343.3725 
L 547.51226 90.585 
L 547.977648 137.835 
L 548.443036 331.56 
L 548.908424 329.1975 
L 549.373812 341.01 
L 549.839199 329.1975 
L 550.304587 267.7725 
L 550.769975 319.7475 
L 551.235363 251.235 
L 551.700751 90.585 
L 552.166138 341.01 
L 552.631526 260.685 
L 553.096914 338.6475 
L 553.562302 244.1475 
L 554.02769 260.685 
L 554.493078 329.1975 
L 554.958465 267.7725 
L 555.423853 336.285 
L 555.889241 248.8725 
L 556.354629 215.7975 
L 556.820017 225.2475 
L 557.285405 161.46 
L 557.750792 215.7975 
L 558.21618 196.8975 
L 558.681568 234.6975 
L 559.146956 263.0475 
L 559.612344 225.2475 
L 560.077731 284.31 
L 560.543119 201.6225 
L 561.008507 267.7725 
L 561.473895 355.185 
L 561.939283 199.26 
L 562.404671 114.21 
L 562.870058 322.11 
L 563.335446 307.935 
L 563.800834 263.0475 
L 564.266222 201.6225 
L 564.73161 244.1475 
L 565.196997 100.035 
L 565.662385 258.3225 
L 566.127773 350.46 
L 566.593161 248.8725 
L 567.058549 192.1725 
L 567.523937 244.1475 
L 567.989324 319.7475 
L 568.454712 263.0475 
L 569.385488 350.46 
L 569.850876 309.11625 
L 570.316264 345.735 
L 570.781651 199.26 
L 571.247039 201.6225 
L 571.712427 333.9225 
L 572.177815 199.26 
L 572.643203 341.01 
L 573.10859 324.4725 
L 573.573978 215.7975 
L 574.039366 267.7725 
L 574.504754 350.46 
L 574.970142 267.7725 
L 575.900917 194.535 
L 576.366305 211.0725 
L 576.831693 258.3225 
L 577.297081 324.4725 
L 577.762469 76.41 
L 578.227857 267.7725 
L 578.693244 260.685 
L 579.158632 260.685 
L 579.62402 333.9225 
L 580.089408 341.01 
L 580.554796 244.1475 
L 581.020183 319.7475 
L 581.485571 346.91625 
L 581.950959 346.91625 
L 582.416347 336.285 
L 582.881735 338.6475 
L 583.347123 350.46 
L 583.81251 263.0475 
L 584.277898 225.2475 
L 584.743286 244.1475 
L 585.674062 333.9225 
L 586.13945 201.6225 
L 586.604837 369.36 
L 587.070225 244.1475 
L 587.535613 246.51 
L 588.001001 244.1475 
L 588.466389 270.135 
L 588.931776 232.335 
L 589.397164 255.96 
L 589.862552 241.785 
L 590.32794 336.285 
L 590.793328 298.485 
L 591.258716 161.46 
L 591.724103 319.7475 
L 592.189491 286.6725 
L 592.654879 362.2725 
L 593.120267 182.7225 
L 593.585655 326.835 
L 594.051043 286.6725 
L 594.51643 267.7725 
L 594.981818 322.11 
L 595.447206 317.385 
L 595.912594 289.035 
L 596.377982 350.46 
L 597.308757 152.01 
L 597.774145 307.935 
L 598.239533 248.8725 
L 598.704921 357.5475 
L 599.170309 286.6725 
L 599.635696 189.81 
L 600.101084 342.19125 
L 600.566472 152.01 
L 601.03186 225.2475 
L 601.497248 263.0475 
L 601.962636 286.6725 
L 602.428023 270.135 
L 602.893411 201.6225 
L 603.358799 281.9475 
L 603.824187 312.66 
L 604.289575 253.5975 
L 604.754962 344.55375 
L 605.22035 355.185 
L 605.685738 341.01 
L 606.151126 244.1475 
L 606.616514 286.6725 
L 607.081902 289.035 
L 607.547289 267.7725 
L 608.012677 331.56 
L 608.478065 246.51 
L 608.943453 246.51 
L 609.408841 326.835 
L 610.339616 218.16 
L 610.805004 201.6225 
L 611.270392 341.01 
L 611.73578 244.1475 
L 612.201168 260.685 
L 612.666555 225.2475 
L 613.131943 265.41 
L 613.597331 284.31 
L 614.062719 336.285 
L 614.528107 255.96 
L 614.993495 258.3225 
L 615.458882 336.285 
L 615.92427 225.2475 
L 616.389658 263.0475 
L 616.855046 336.285 
L 617.320434 346.91625 
L 617.785822 246.51 
L 618.251209 344.55375 
L 618.716597 201.6225 
L 619.181985 201.6225 
L 619.647373 310.2975 
L 620.112761 267.7725 
L 620.578148 213.435 
L 621.043536 265.41 
L 621.508924 241.785 
L 621.974312 286.6725 
L 622.4397 196.8975 
L 622.905088 341.01 
L 623.370475 253.5975 
L 623.835863 263.0475 
L 624.301251 267.7725 
L 624.766639 85.86 
L 625.232027 338.6475 
L 625.697415 338.6475 
L 626.162802 267.7725 
L 626.62819 289.035 
L 627.093578 362.2725 
L 627.558966 350.46 
L 628.024354 333.9225 
L 628.489741 225.2475 
L 628.955129 286.6725 
L 629.420517 312.66 
L 629.885905 352.8225 
L 630.351293 234.6975 
L 630.816681 263.0475 
L 631.282068 260.685 
L 632.212844 201.6225 
L 632.678232 350.46 
L 633.14362 369.36 
L 633.609008 182.7225 
L 634.074395 356.36625 
L 634.539783 76.41 
L 635.005171 239.4225 
L 635.470559 251.235 
L 635.935947 350.46 
L 636.401334 267.7725 
L 636.866722 244.1475 
L 637.33211 260.685 
L 637.797498 362.2725 
L 638.262886 267.7725 
L 638.728274 244.1475 
L 639.193661 175.635 
L 639.659049 307.935 
L 640.124437 286.6725 
L 640.589825 95.31 
L 641.055213 246.51 
L 641.520601 355.185 
L 641.985988 263.0475 
L 642.916764 213.435 
L 643.382152 284.31 
L 643.84754 326.835 
L 644.312927 326.835 
L 644.778315 239.4225 
L 645.243703 336.285 
L 645.709091 239.4225 
L 646.174479 279.585 
L 646.639867 187.4475 
L 647.105254 267.7725 
L 647.570642 270.135 
L 648.03603 263.0475 
L 648.501418 187.4475 
L 648.966806 265.41 
L 649.432193 192.1725 
L 649.897581 244.1475 
L 650.362969 310.2975 
L 650.828357 215.7975 
L 651.293745 220.5225 
L 651.759133 324.4725 
L 652.22452 239.4225 
L 652.689908 215.7975 
L 653.155296 263.0475 
L 654.086072 234.6975 
L 654.55146 267.7725 
L 655.016847 362.2725 
L 655.482235 312.66 
L 655.947623 350.46 
L 656.413011 263.0475 
L 656.878399 265.41 
L 657.343786 244.1475 
L 657.809174 246.51 
L 658.274562 244.1475 
L 658.73995 333.9225 
L 659.670726 215.7975 
L 660.601501 255.96 
L 661.066889 248.8725 
L 661.532277 331.56 
L 661.997665 246.51 
L 662.463053 244.1475 
L 662.92844 194.535 
L 664.324604 331.56 
L 664.789992 322.11 
L 665.255379 317.385 
L 665.720767 263.0475 
L 666.186155 225.2475 
L 666.651543 265.41 
L 667.116931 244.1475 
L 667.582319 346.91625 
L 668.047706 344.55375 
L 668.513094 267.7725 
L 668.978482 225.2475 
L 669.44387 244.1475 
L 669.909258 258.3225 
L 670.374646 333.9225 
L 670.840033 234.6975 
L 671.305421 345.735 
L 671.770809 267.7725 
L 672.236197 359.91 
L 672.701585 263.0475 
L 673.166972 352.8225 
L 673.63236 234.6975 
L 674.097748 182.7225 
L 675.493912 365.81625 
L 675.959299 246.51 
L 676.424687 215.7975 
L 676.890075 329.1975 
L 677.355463 312.66 
L 677.820851 303.21 
L 678.286239 341.01 
L 678.751626 267.7725 
L 679.217014 248.8725 
L 679.682402 206.3475 
L 680.14779 345.735 
L 680.613178 246.51 
L 681.078565 364.635 
L 682.009341 90.585 
L 682.474729 307.935 
L 682.940117 272.4975 
L 683.405505 369.36 
L 683.870892 336.285 
L 684.33628 161.46 
L 684.801668 318.56625 
L 685.267056 258.3225 
L 685.732444 227.61 
L 686.197832 267.7725 
L 686.663219 203.985 
L 687.128607 194.535 
L 687.593995 267.7725 
L 688.059383 234.6975 
L 688.524771 350.46 
L 688.990158 215.7975 
L 689.455546 215.7975 
L 689.920934 267.7725 
L 690.386322 241.785 
L 691.317098 246.51 
L 691.782485 358.72875 
L 692.247873 350.46 
L 692.713261 258.3225 
L 693.178649 358.72875 
L 693.644037 298.485 
L 694.109425 267.7725 
L 694.574812 208.71 
L 695.0402 333.9225 
L 695.505588 362.2725 
L 695.970976 66.96 
L 696.436364 286.6725 
L 696.901751 267.7725 
L 697.367139 234.6975 
L 697.832527 232.335 
L 698.297915 258.3225 
L 698.763303 196.8975 
L 699.228691 362.2725 
L 699.694078 267.7725 
L 700.159466 263.0475 
L 700.624854 293.76 
L 701.090242 246.51 
L 701.55563 272.4975 
L 702.021018 265.41 
L 702.486405 267.7725 
L 702.951793 322.11 
L 703.417181 352.8225 
L 703.882569 244.1475 
L 704.347957 338.6475 
L 704.813344 232.335 
L 705.278732 196.8975 
L 705.74412 352.8225 
L 706.209508 336.285 
L 706.674896 199.26 
L 707.140284 286.6725 
L 707.605671 265.41 
L 708.071059 322.11 
L 708.536447 234.6975 
L 709.001835 182.7225 
L 709.467223 263.0475 
L 709.932611 244.1475 
L 710.397998 274.86 
L 710.863386 338.6475 
L 711.328774 355.185 
L 711.794162 265.41 
L 712.25955 199.26 
L 712.724937 307.935 
L 713.655713 137.835 
L 714.121101 267.7725 
L 714.586489 350.46 
L 715.051877 237.06 
L 715.517264 362.2725 
L 715.982652 326.835 
L 716.44804 244.1475 
L 716.913428 322.11 
L 717.378816 244.1475 
L 717.844204 359.91 
L 718.309591 341.01 
L 718.774979 307.935 
L 719.240367 331.56 
L 719.705755 333.9225 
L 720.171143 265.41 
L 720.63653 109.485 
L 721.101918 180.36 
L 721.567306 345.735 
L 722.032694 307.935 
L 722.498082 182.7225 
L 723.428857 341.01 
L 723.894245 312.66 
L 724.825021 215.7975 
L 725.290409 350.46 
L 725.755796 263.0475 
L 726.221184 350.46 
L 726.686572 201.6225 
L 727.15196 281.9475 
L 727.617348 225.2475 
L 728.082736 208.71 
L 728.548123 260.685 
L 729.013511 289.035 
L 729.478899 362.2725 
L 729.944287 237.06 
L 730.409675 336.285 
L 730.875063 345.735 
L 731.34045 180.36 
L 731.805838 307.935 
L 732.271226 333.9225 
L 732.736614 338.6475 
L 733.202002 258.3225 
L 733.667389 267.7725 
L 734.132777 267.7725 
L 734.598165 263.0475 
L 735.063553 309.11625 
L 735.528941 258.3225 
L 735.994329 350.46 
L 736.459716 352.8225 
L 736.925104 241.785 
L 737.390492 201.6225 
L 737.85588 350.46 
L 738.321268 267.7725 
L 738.786656 359.91 
L 739.252043 336.285 
L 739.717431 215.7975 
L 740.182819 355.185 
L 740.648207 289.035 
L 741.113595 296.1225 
L 741.578982 350.46 
L 742.04437 312.66 
L 742.509758 286.6725 
L 742.975146 355.185 
L 743.440534 326.835 
L 743.905922 246.51 
L 744.371309 358.72875 
L 744.836697 357.5475 
L 745.302085 336.285 
L 745.767473 161.46 
L 746.232861 329.1975 
L 746.698249 357.5475 
L 747.163636 270.135 
L 747.163636 270.135 
" clip-path="url(#p5c532d2696)" style="fill: none; stroke: #1f77b4; stroke-width: 1.5; stroke-linecap: square"/>
   </g>
   <g id="line2d_16">
    <path d="M 138.436364 262.799497 
L 138.901751 277.629966 
L 139.367139 284.365433 
L 139.832527 264.436333 
L 140.297915 274.210618 
L 140.763303 262.107689 
L 141.228691 277.612474 
L 141.694078 276.368074 
L 142.159466 271.240005 
L 142.624854 276.485155 
L 143.090242 255.158237 
L 143.55563 270.03419 
L 144.021018 250.910234 
L 144.486405 258.764882 
L 144.951793 287.318117 
L 145.417181 265.099609 
L 145.882569 261.535752 
L 146.347957 242.734995 
L 146.813344 247.001515 
L 147.278732 253.156249 
L 147.74412 261.653859 
L 148.209508 263.029702 
L 148.674896 271.980308 
L 149.140284 270.373751 
L 150.071059 246.029529 
L 150.536447 262.138382 
L 151.001835 284.68004 
L 151.467223 257.394349 
L 151.932611 272.566772 
L 152.397998 277.902483 
L 152.863386 269.392101 
L 153.328774 253.042807 
L 153.794162 265.979023 
L 154.25955 254.216531 
L 154.724937 262.877016 
L 155.190325 254.700632 
L 155.655713 289.594752 
L 156.121101 259.130082 
L 156.586489 241.166714 
L 157.051877 245.018354 
L 157.517264 273.060728 
L 157.982652 243.370273 
L 158.44804 261.641517 
L 158.913428 259.85217 
L 159.844204 281.064748 
L 160.309591 255.386018 
L 160.774979 283.820137 
L 161.240367 248.192199 
L 161.705755 268.708352 
L 162.171143 275.989323 
L 162.63653 267.042238 
L 163.101918 269.580193 
L 163.567306 269.615479 
L 164.498082 248.567969 
L 164.96347 260.517091 
L 165.428857 268.489615 
L 165.894245 246.820712 
L 166.359633 258.349621 
L 166.825021 277.780299 
L 167.290409 272.865889 
L 167.755796 241.669444 
L 168.221184 270.355806 
L 168.686572 254.512747 
L 169.15196 283.521647 
L 169.617348 270.060583 
L 170.082736 268.699729 
L 170.548123 260.287164 
L 171.013511 243.681343 
L 171.478899 273.054458 
L 172.409675 276.994196 
L 172.875063 245.944834 
L 173.34045 243.230494 
L 173.805838 272.75329 
L 174.271226 262.604896 
L 174.736614 264.326078 
L 175.202002 264.687312 
L 175.667389 266.40131 
L 176.132777 250.158718 
L 176.598165 244.760667 
L 177.063553 274.369757 
L 177.528941 249.405524 
L 177.994329 271.071011 
L 178.459716 270.776153 
L 178.925104 282.751597 
L 179.390492 269.90382 
L 179.85588 280.611363 
L 180.321268 276.266386 
L 180.786656 281.06958 
L 181.252043 273.923008 
L 181.717431 293.250425 
L 182.182819 283.130602 
L 182.648207 244.486099 
L 183.578982 288.242283 
L 184.04437 280.035119 
L 184.509758 249.806854 
L 184.975146 270.415054 
L 185.440534 261.386937 
L 186.371309 271.52647 
L 186.836697 264.84181 
L 187.302085 245.209268 
L 187.767473 267.10023 
L 188.232861 267.784647 
L 188.698249 263.065958 
L 189.163636 261.865293 
L 190.094412 291.338847 
L 190.5598 260.430615 
L 191.025188 244.412904 
L 191.490575 249.366868 
L 191.955963 267.576305 
L 192.421351 257.113805 
L 192.886739 263.457742 
L 193.352127 264.686756 
L 193.817515 246.335458 
L 194.282902 271.874281 
L 194.74829 256.214267 
L 195.213678 267.698536 
L 195.679066 264.112507 
L 196.144454 287.046951 
L 196.609842 257.425368 
L 197.075229 294.233077 
L 198.006005 267.384645 
L 198.471393 241.156629 
L 198.936781 272.007822 
L 199.402168 263.266614 
L 199.867556 266.875803 
L 200.332944 263.370471 
L 200.798332 270.531357 
L 201.26372 268.609574 
L 201.729108 278.942762 
L 202.194495 262.872676 
L 202.659883 288.668734 
L 203.125271 288.941323 
L 203.590659 266.067812 
L 204.056047 268.645822 
L 204.521435 270.033935 
L 204.986822 285.694442 
L 205.45221 287.425701 
L 205.917598 263.027842 
L 206.382986 263.311049 
L 206.848374 272.863704 
L 207.313761 276.803378 
L 207.779149 287.395231 
L 208.244537 240.451986 
L 208.709925 268.160155 
L 209.175313 256.836042 
L 209.640701 262.505164 
L 210.106088 265.67122 
L 210.571476 256.040982 
L 211.036864 270.444261 
L 211.502252 277.209086 
L 211.96764 255.625895 
L 212.433028 267.866251 
L 212.898415 251.371177 
L 213.363803 276.44874 
L 213.829191 253.637974 
L 214.294579 269.151652 
L 215.225354 272.364518 
L 215.690742 256.709114 
L 216.15613 252.590169 
L 216.621518 275.293113 
L 217.086906 262.085857 
L 217.552294 260.636811 
L 218.017681 275.249704 
L 218.483069 257.031469 
L 218.948457 264.369932 
L 219.413845 294.435863 
L 219.879233 255.295219 
L 220.344621 270.168199 
L 220.810008 279.628378 
L 221.275396 262.557442 
L 221.740784 250.612627 
L 222.206172 267.239739 
L 222.67156 276.963042 
L 223.602335 261.246323 
L 224.067723 282.848031 
L 224.533111 239.233042 
L 224.998499 270.237429 
L 225.463887 284.791177 
L 225.929274 267.293544 
L 226.394662 262.215901 
L 226.86005 276.427226 
L 227.325438 280.943033 
L 227.790826 252.081717 
L 228.256214 275.289966 
L 228.721601 272.206086 
L 229.186989 268.312841 
L 229.652377 262.587102 
L 230.117765 273.169998 
L 230.583153 277.063863 
L 231.04854 244.585045 
L 231.513928 265.939191 
L 231.979316 276.515562 
L 232.444704 251.870927 
L 232.910092 252.882976 
L 233.37548 274.366959 
L 233.840867 252.774025 
L 234.306255 246.09984 
L 234.771643 272.699669 
L 235.237031 272.909489 
L 235.702419 272.293714 
L 236.167807 258.521961 
L 236.633194 252.061562 
L 237.098582 293.76251 
L 237.56397 273.891521 
L 238.029358 270.516988 
L 238.494746 268.950479 
L 238.960133 274.30582 
L 239.425521 249.182114 
L 239.890909 267.836178 
L 240.356297 276.498173 
L 241.287073 269.862541 
L 241.75246 276.301427 
L 242.217848 270.211441 
L 242.683236 277.177289 
L 243.148624 262.482664 
L 243.614012 266.550483 
L 244.079399 263.205467 
L 244.544787 256.288719 
L 245.010175 271.995742 
L 245.475563 261.22376 
L 245.940951 258.369967 
L 246.406339 263.392764 
L 246.871726 279.658173 
L 247.802502 258.427617 
L 248.26789 275.556331 
L 248.733278 267.086664 
L 249.198666 244.917764 
L 249.664053 246.922947 
L 250.129441 254.19787 
L 250.594829 279.153082 
L 251.060217 264.858214 
L 251.525605 259.453773 
L 251.990992 265.30203 
L 252.45638 248.305243 
L 252.921768 287.855506 
L 253.387156 268.085743 
L 254.317932 288.035793 
L 254.783319 264.235056 
L 255.248707 250.403809 
L 255.714095 253.746814 
L 256.179483 262.236739 
L 256.644871 280.587378 
L 257.110259 280.013558 
L 257.575646 235.295553 
L 258.041034 284.127917 
L 258.506422 260.884731 
L 258.97181 257.034171 
L 259.437198 249.955804 
L 260.367973 274.564914 
L 260.833361 256.966308 
L 261.764137 275.455018 
L 262.229525 254.776085 
L 262.694912 277.632549 
L 263.1603 262.492503 
L 263.625688 267.797657 
L 264.091076 245.44587 
L 264.556464 272.313178 
L 265.021852 262.37473 
L 265.487239 264.741728 
L 265.952627 248.298726 
L 266.418015 238.47384 
L 266.883403 270.344735 
L 267.348791 262.613654 
L 268.279566 279.594363 
L 268.744954 273.117703 
L 269.210342 255.876772 
L 269.67573 256.574278 
L 270.141118 245.76043 
L 270.606505 267.924037 
L 271.537281 241.024693 
L 272.002669 246.493071 
L 272.468057 274.28367 
L 272.933445 268.544572 
L 273.398832 281.172118 
L 273.86422 240.05107 
L 274.329608 256.640368 
L 274.794996 259.832953 
L 275.260384 269.97336 
L 275.725771 273.981787 
L 276.191159 253.646033 
L 276.656547 261.024471 
L 277.121935 252.590972 
L 277.587323 271.987071 
L 278.052711 257.46431 
L 278.518098 277.956947 
L 278.983486 272.242366 
L 279.448874 277.876368 
L 279.914262 281.962553 
L 280.37965 269.696567 
L 280.845038 273.153809 
L 281.310425 272.320283 
L 281.775813 247.864868 
L 282.241201 266.44057 
L 283.171977 267.327662 
L 283.637364 277.484957 
L 284.102752 276.063918 
L 284.56814 270.718034 
L 285.033528 272.476291 
L 285.498916 258.974369 
L 285.964304 282.550742 
L 286.429691 242.913765 
L 286.895079 266.747969 
L 287.360467 273.665019 
L 287.825855 273.713737 
L 288.291243 274.233665 
L 288.756631 269.605275 
L 289.222018 259.885517 
L 289.687406 246.378135 
L 290.152794 254.659171 
L 291.08357 281.754466 
L 291.548957 251.396132 
L 292.014345 266.200407 
L 292.479733 251.041653 
L 292.945121 251.635056 
L 293.410509 239.276816 
L 293.875897 268.113122 
L 294.341284 244.64721 
L 294.806672 265.010701 
L 295.27206 274.53674 
L 295.737448 269.793224 
L 296.202836 262.352748 
L 296.668224 265.198745 
L 297.133611 271.77563 
L 297.598999 264.706966 
L 298.064387 278.576997 
L 298.995163 260.317404 
L 299.46055 279.812576 
L 299.925938 274.187419 
L 300.391326 260.68599 
L 300.856714 273.534451 
L 301.322102 270.923634 
L 301.78749 270.413449 
L 302.252877 255.287971 
L 302.718265 271.977454 
L 303.649041 242.022326 
L 304.114429 266.375671 
L 304.579817 248.882767 
L 305.045204 284.772008 
L 305.510592 285.683355 
L 305.97598 267.79722 
L 306.441368 265.94752 
L 306.906756 276.457323 
L 307.372143 266.188764 
L 307.837531 249.259125 
L 308.302919 276.851396 
L 308.768307 242.508859 
L 309.233695 267.729913 
L 309.699083 249.414656 
L 310.629858 261.465505 
L 311.095246 272.029876 
L 311.560634 260.501633 
L 312.026022 262.555781 
L 312.49141 255.449637 
L 312.956797 251.308981 
L 313.422185 254.416647 
L 313.887573 273.94445 
L 314.352961 287.397416 
L 314.818349 247.457245 
L 315.283736 270.804224 
L 315.749124 268.287989 
L 316.214512 256.880103 
L 316.6799 254.948298 
L 317.145288 271.163018 
L 317.610676 278.295436 
L 318.076063 266.880905 
L 318.541451 264.753936 
L 319.006839 238.621296 
L 319.472227 267.697106 
L 319.937615 272.44675 
L 320.403003 280.295231 
L 320.86839 258.702551 
L 321.333778 245.380415 
L 321.799166 262.300962 
L 322.264554 290.844088 
L 322.729942 243.038937 
L 323.195329 283.238417 
L 323.660717 260.275481 
L 324.126105 257.288378 
L 324.591493 243.749357 
L 325.056881 272.266184 
L 325.522269 246.45354 
L 325.987656 258.21562 
L 326.453044 290.772386 
L 326.918432 262.585957 
L 327.38382 277.243673 
L 327.849208 271.4294 
L 328.314595 289.554221 
L 328.779983 266.07049 
L 329.245371 275.207527 
L 329.710759 269.297598 
L 330.176147 246.162784 
L 330.641535 276.088316 
L 331.106922 283.118307 
L 331.57231 272.46611 
L 332.037698 274.305923 
L 332.503086 249.286337 
L 332.968474 267.263351 
L 333.433862 271.664731 
L 333.899249 285.131621 
L 334.364637 276.913323 
L 334.830025 271.741495 
L 335.295413 276.697407 
L 335.760801 271.459171 
L 336.226188 274.747085 
L 336.691576 255.738598 
L 337.156964 286.347188 
L 337.622352 276.110537 
L 338.08774 279.329984 
L 339.018515 249.596732 
L 339.483903 273.379388 
L 339.949291 265.222834 
L 340.414679 253.06235 
L 340.880067 266.219608 
L 341.810842 252.970811 
L 342.27623 274.331593 
L 342.741618 250.707408 
L 343.207006 287.156458 
L 343.672394 262.684473 
L 344.137781 269.592042 
L 344.603169 271.015101 
L 345.068557 248.883561 
L 345.533945 266.27311 
L 345.999333 262.948717 
L 346.464721 252.145447 
L 346.930108 288.297915 
L 347.395496 270.76424 
L 347.860884 281.840671 
L 348.326272 252.344475 
L 348.79166 261.313121 
L 349.257048 278.15572 
L 349.722435 262.915155 
L 350.187823 275.677283 
L 350.653211 274.852452 
L 351.118599 268.921494 
L 351.583987 238.85298 
L 352.049374 275.297301 
L 352.514762 253.727303 
L 352.98015 269.781986 
L 353.445538 252.462454 
L 353.910926 248.404649 
L 354.376314 253.317613 
L 354.841701 249.838389 
L 355.307089 266.448398 
L 355.772477 269.501497 
L 356.237865 251.711701 
L 356.703253 268.652259 
L 357.168641 260.879208 
L 357.634028 245.195598 
L 358.099416 261.845853 
L 358.564804 285.393584 
L 359.030192 275.370695 
L 359.49558 275.512541 
L 359.960967 260.888307 
L 360.426355 281.73017 
L 360.891743 274.547787 
L 361.357131 247.167354 
L 361.822519 253.623359 
L 362.287907 251.445947 
L 362.753294 267.738957 
L 363.218682 250.076128 
L 363.68407 257.387943 
L 364.149458 281.539575 
L 364.614846 274.515393 
L 365.080234 262.93318 
L 365.545621 260.166077 
L 366.011009 283.192036 
L 366.476397 277.43558 
L 366.941785 258.834669 
L 367.407173 274.268721 
L 367.87256 262.668118 
L 368.337948 274.871589 
L 368.803336 255.222118 
L 369.268724 259.452724 
L 369.734112 261.711883 
L 370.1995 251.568496 
L 370.664887 265.158126 
L 371.130275 273.727621 
L 371.595663 252.510115 
L 372.061051 262.78837 
L 372.526439 248.07867 
L 372.991827 273.148635 
L 373.457214 272.092811 
L 373.922602 276.822023 
L 374.38799 264.370735 
L 374.853378 255.759166 
L 375.318766 269.60355 
L 375.784153 271.649067 
L 376.249541 290.680323 
L 376.714929 259.280432 
L 377.180317 268.621606 
L 377.645705 263.419539 
L 378.111093 266.37161 
L 378.57648 267.349589 
L 379.041868 289.304457 
L 379.507256 261.03191 
L 379.972644 240.152495 
L 380.438032 261.931669 
L 380.90342 243.702475 
L 381.368807 256.650398 
L 381.834195 261.666186 
L 382.299583 253.224008 
L 382.764971 249.326177 
L 383.230359 264.869563 
L 383.695746 275.373485 
L 384.161134 289.627679 
L 384.626522 269.092189 
L 385.09191 257.06004 
L 385.557298 256.290841 
L 386.022686 266.057051 
L 386.953461 276.811008 
L 387.418849 275.364353 
L 387.884237 279.136615 
L 388.349625 259.404181 
L 388.815013 276.521292 
L 389.2804 274.914378 
L 389.745788 251.24192 
L 390.211176 250.024804 
L 390.676564 282.474781 
L 391.141952 252.743555 
L 391.607339 283.430586 
L 392.072727 268.075721 
L 392.538115 273.83573 
L 393.003503 250.187209 
L 393.468891 245.354411 
L 393.934279 249.718589 
L 394.399666 286.153684 
L 394.865054 261.288556 
L 395.330442 249.621543 
L 395.79583 268.608119 
L 396.261218 279.346546 
L 396.726606 274.359799 
L 397.191993 254.696269 
L 397.657381 258.676714 
L 398.122769 252.581443 
L 398.588157 279.372948 
L 399.053545 259.590302 
L 399.518932 262.376876 
L 399.98432 257.406731 
L 400.449708 262.213906 
L 400.915096 269.155236 
L 401.380484 280.213015 
L 401.845872 267.368082 
L 402.311259 266.549243 
L 402.776647 270.003966 
L 403.242035 259.317062 
L 403.707423 293.206023 
L 404.172811 258.209039 
L 404.638198 265.942251 
L 405.103586 268.127093 
L 405.568974 273.894858 
L 406.034362 272.395068 
L 406.49975 267.121863 
L 406.965138 266.658266 
L 407.430525 269.345688 
L 407.895913 260.779436 
L 408.361301 255.649499 
L 408.826689 281.452559 
L 409.292077 275.867322 
L 410.222852 247.346203 
L 410.68824 270.867938 
L 411.153628 265.576892 
L 411.619016 255.620126 
L 412.084404 294.170435 
L 412.549791 278.110547 
L 413.015179 268.133054 
L 413.480567 274.017877 
L 413.945955 250.56135 
L 414.411343 270.565252 
L 414.876731 260.751644 
L 415.342118 268.180341 
L 415.807506 265.723013 
L 416.272894 266.14363 
L 416.738282 260.797222 
L 417.20367 269.867548 
L 417.669058 275.888955 
L 418.134445 255.841271 
L 418.599833 248.034784 
L 419.065221 263.707132 
L 419.530609 256.649532 
L 419.995997 256.593852 
L 420.926772 266.340878 
L 421.39216 269.434787 
L 421.857548 261.372369 
L 422.322936 250.694692 
L 422.788324 279.301612 
L 423.253711 286.376657 
L 423.719099 279.38978 
L 424.184487 253.178462 
L 424.649875 290.07004 
L 425.115263 261.909059 
L 425.580651 271.133319 
L 426.046038 266.361271 
L 426.511426 263.603744 
L 426.976814 264.769886 
L 427.442202 257.008517 
L 427.90759 266.973167 
L 428.372977 254.795524 
L 429.303753 279.462166 
L 429.769141 253.589002 
L 430.234529 264.146951 
L 430.699917 249.79436 
L 431.165304 278.842171 
L 431.630692 269.970896 
L 432.09608 252.842047 
L 432.561468 268.570544 
L 433.026856 272.949909 
L 433.492244 271.480359 
L 433.957631 264.350047 
L 434.423019 274.251777 
L 434.888407 239.835695 
L 435.353795 284.996594 
L 435.819183 278.729286 
L 436.28457 256.545643 
L 436.749958 290.317571 
L 437.215346 264.193237 
L 437.680734 271.726101 
L 438.146122 243.781298 
L 438.61151 260.26 
L 439.076897 267.773997 
L 439.542285 278.098181 
L 440.007673 267.606116 
L 440.473061 286.312696 
L 440.938449 269.711023 
L 441.403837 272.32726 
L 441.869224 246.710107 
L 442.334612 266.992503 
L 442.8 265.267522 
L 443.265388 276.636418 
L 443.730776 266.834635 
L 444.196163 269.743067 
L 444.661551 273.37303 
L 445.126939 262.274887 
L 445.592327 270.203716 
L 446.057715 265.628876 
L 446.523103 265.321684 
L 446.98849 244.105251 
L 447.453878 253.900549 
L 447.919266 271.665939 
L 448.384654 271.396434 
L 448.850042 283.889637 
L 449.31543 241.046644 
L 449.780817 277.357115 
L 450.246205 288.054597 
L 450.711593 271.907255 
L 451.176981 272.678767 
L 451.642369 253.394409 
L 452.107756 258.326145 
L 452.573144 258.090265 
L 453.038532 280.614368 
L 453.50392 256.201384 
L 453.969308 263.045032 
L 454.434696 265.771913 
L 454.900083 240.37453 
L 455.365471 284.064838 
L 455.830859 261.10342 
L 456.296247 255.373334 
L 456.761635 262.422582 
L 457.227023 250.388025 
L 457.69241 270.680101 
L 458.157798 279.08181 
L 458.623186 274.689768 
L 459.088574 263.07505 
L 459.553962 281.23402 
L 460.019349 265.214338 
L 460.484737 266.505032 
L 460.950125 266.203188 
L 461.415513 287.511327 
L 461.880901 271.164965 
L 462.346289 277.160281 
L 462.811676 267.442049 
L 463.277064 250.314241 
L 463.742452 276.420264 
L 464.20784 271.458853 
L 464.673228 255.484813 
L 465.138616 280.314551 
L 465.604003 262.982732 
L 466.069391 258.603335 
L 466.534779 282.945745 
L 467.000167 235.220958 
L 467.465555 265.664846 
L 467.930942 263.142198 
L 468.39633 275.494016 
L 468.861718 265.177295 
L 469.327106 266.207997 
L 469.792494 276.507527 
L 470.257882 261.14981 
L 470.723269 277.670728 
L 471.188657 267.143727 
L 471.654045 259.635745 
L 472.119433 243.318734 
L 472.584821 268.868302 
L 473.050209 251.680642 
L 473.515596 265.86946 
L 473.980984 274.251165 
L 474.446372 270.576188 
L 474.91176 265.107644 
L 475.377148 270.624707 
L 476.307923 276.743415 
L 476.773311 267.573356 
L 477.238699 274.278028 
L 477.704087 267.07758 
L 478.169475 263.95305 
L 478.634862 281.751835 
L 479.10025 271.926074 
L 480.031026 237.07576 
L 480.496414 259.948 
L 480.961802 277.225728 
L 481.427189 269.629268 
L 481.892577 254.21363 
L 482.357965 264.070656 
L 482.823353 286.640662 
L 483.288741 252.24328 
L 483.754128 277.436597 
L 484.219516 254.913186 
L 484.684904 249.238287 
L 485.150292 288.988348 
L 485.61568 280.773348 
L 486.081068 269.412049 
L 486.546455 262.254971 
L 487.011843 265.013443 
L 487.477231 271.05212 
L 487.942619 281.251489 
L 488.408007 287.322098 
L 489.338782 242.762366 
L 489.80417 251.267066 
L 490.269558 271.080238 
L 490.734946 260.461658 
L 491.200334 264.891752 
L 492.131109 245.965958 
L 492.596497 285.013983 
L 493.061885 281.982692 
L 493.527273 261.654098 
L 493.992661 269.56131 
L 494.458048 265.676751 
L 494.923436 258.825839 
L 495.388824 262.445447 
L 495.854212 285.005225 
L 496.3196 254.979372 
L 496.784987 262.072959 
L 497.250375 242.663214 
L 497.715763 264.31546 
L 498.181151 258.922162 
L 498.646539 255.439942 
L 499.111927 276.533722 
L 499.577314 260.349075 
L 500.042702 267.173863 
L 500.50809 261.139255 
L 500.973478 239.734461 
L 501.438866 262.055482 
L 501.904254 252.127144 
L 502.369641 255.501312 
L 502.835029 257.513123 
L 503.300417 289.638535 
L 503.765805 260.811289 
L 504.231193 258.274447 
L 504.69658 261.078768 
L 505.161968 271.703372 
L 505.627356 249.70124 
L 506.092744 263.142666 
L 506.558132 292.257752 
L 507.02352 251.445931 
L 507.488907 256.619983 
L 507.954295 276.599757 
L 508.419683 281.86441 
L 508.885071 257.230107 
L 509.350459 264.040527 
L 509.815847 275.132853 
L 510.281234 264.497496 
L 510.746622 264.599525 
L 511.21201 256.299702 
L 512.142786 274.381241 
L 512.608173 239.574765 
L 513.073561 272.270873 
L 513.538949 273.178462 
L 514.004337 259.039641 
L 514.469725 277.802592 
L 514.935113 267.599138 
L 515.4005 277.151594 
L 515.865888 264.020245 
L 516.331276 270.301724 
L 516.796664 286.459914 
L 517.262052 264.525161 
L 517.72744 282.054417 
L 518.192827 256.040735 
L 518.658215 271.714649 
L 519.123603 255.947703 
L 519.588991 273.380223 
L 520.054379 266.383619 
L 520.519766 265.905001 
L 520.985154 279.07236 
L 521.91593 247.676498 
L 522.381318 272.24092 
L 522.846706 252.902169 
L 523.312093 251.562178 
L 524.242869 265.549767 
L 524.708257 258.915907 
L 525.173645 267.464365 
L 525.639033 258.127928 
L 526.10442 269.893687 
L 526.569808 271.573948 
L 527.035196 282.527766 
L 527.500584 265.202456 
L 527.965972 267.714932 
L 528.431359 263.931878 
L 528.896747 287.532824 
L 529.362135 285.187221 
L 530.292911 248.705928 
L 530.758299 269.019629 
L 531.223686 237.524075 
L 531.689074 265.953194 
L 532.154462 256.850681 
L 532.61985 261.958405 
L 533.085238 283.835157 
L 534.016013 258.885159 
L 534.481401 249.067703 
L 534.946789 272.190271 
L 535.412177 261.044204 
L 535.877565 278.83846 
L 536.342952 278.723182 
L 536.80834 247.698338 
L 537.273728 265.809227 
L 537.739116 277.462029 
L 538.204504 258.298106 
L 538.669892 277.199112 
L 539.135279 240.706876 
L 539.600667 264.900812 
L 540.066055 282.830746 
L 540.531443 253.640684 
L 540.996831 257.252201 
L 541.462219 244.904309 
L 541.927606 261.869886 
L 542.392994 254.956992 
L 542.858382 257.126218 
L 543.32377 281.491676 
L 543.789158 273.42027 
L 544.254545 269.853696 
L 544.719933 278.458215 
L 545.185321 265.919179 
L 545.650709 268.473172 
L 546.116097 290.668299 
L 546.581485 262.092764 
L 547.046872 256.201845 
L 547.51226 275.962977 
L 547.977648 276.980431 
L 548.443036 259.130122 
L 548.908424 262.464083 
L 549.373812 264.117665 
L 549.839199 257.929362 
L 550.304587 259.097824 
L 550.769975 273.560383 
L 551.235363 263.866311 
L 551.700751 266.890037 
L 552.166138 258.378765 
L 552.631526 272.893769 
L 553.096914 263.302306 
L 553.562302 257.696367 
L 554.02769 273.938442 
L 554.493078 259.096505 
L 554.958465 261.504273 
L 555.423853 279.573628 
L 555.889241 286.401802 
L 556.820017 260.838461 
L 557.750792 263.863808 
L 558.21618 256.047292 
L 558.681568 274.98244 
L 559.146956 279.285256 
L 559.612344 261.812569 
L 560.077731 269.893997 
L 560.543119 248.103776 
L 561.008507 267.193716 
L 561.473895 272.004992 
L 561.939283 264.639739 
L 562.404671 267.766574 
L 562.870058 253.243646 
L 563.335446 265.445481 
L 563.800834 285.309929 
L 564.266222 260.318572 
L 564.73161 250.871793 
L 565.196997 270.875901 
L 565.662385 242.482744 
L 566.127773 285.91387 
L 566.593161 260.065693 
L 567.058549 273.277312 
L 567.523937 281.974403 
L 568.454712 270.288046 
L 568.9201 251.53611 
L 569.385488 284.117895 
L 569.850876 273.812618 
L 570.316264 276.325809 
L 570.781651 251.417439 
L 571.247039 251.130577 
L 571.712427 260.279487 
L 572.177815 262.528537 
L 572.643203 270.586647 
L 573.10859 286.031882 
L 573.573978 286.051885 
L 574.039366 263.683083 
L 574.504754 276.922375 
L 574.970142 261.315037 
L 575.43553 269.066861 
L 575.900917 251.63682 
L 576.366305 268.726894 
L 576.831693 266.429881 
L 577.297081 283.775027 
L 577.762469 283.227044 
L 578.227857 266.050948 
L 578.693244 284.832647 
L 579.158632 273.620092 
L 579.62402 250.731568 
L 580.089408 263.067253 
L 580.554796 262.395068 
L 581.020183 253.375804 
L 581.485571 257.136709 
L 582.416347 269.120299 
L 583.347123 289.016895 
L 583.81251 263.488983 
L 584.277898 273.697182 
L 584.743286 276.245477 
L 585.208674 271.389456 
L 585.674062 274.109995 
L 586.13945 250.411994 
L 586.604837 242.93717 
L 587.070225 281.636327 
L 587.535613 261.97 
L 588.001001 276.536273 
L 588.931776 258.341904 
L 589.862552 264.783762 
L 590.32794 279.955947 
L 590.793328 269.217242 
L 591.258716 265.207742 
L 591.724103 270.511774 
L 592.189491 240.626209 
L 592.654879 270.244097 
L 593.120267 262.821829 
L 593.585655 247.730771 
L 594.051043 268.057832 
L 594.51643 237.534184 
L 594.981818 276.225862 
L 595.447206 254.640033 
L 595.912594 265.291913 
L 596.843369 279.005038 
L 597.308757 270.192002 
L 597.774145 275.819153 
L 598.239533 257.076038 
L 598.704921 280.07461 
L 599.170309 293.357787 
L 599.635696 249.77016 
L 600.101084 278.041444 
L 600.566472 263.912677 
L 601.03186 273.273775 
L 601.497248 261.820882 
L 601.962636 254.039923 
L 602.428023 273.409899 
L 602.893411 270.528281 
L 603.358799 236.254267 
L 603.824187 273.090658 
L 604.289575 278.39365 
L 604.754962 262.933895 
L 605.22035 271.181679 
L 605.685738 266.860345 
L 606.616514 263.639977 
L 607.081902 280.778824 
L 607.547289 269.250327 
L 608.012677 286.688482 
L 608.478065 263.990863 
L 608.943453 260.923205 
L 609.408841 255.467082 
L 609.874229 275.535954 
L 610.339616 272.243105 
L 610.805004 262.047877 
L 611.270392 274.110003 
L 611.73578 252.450215 
L 612.201168 259.929443 
L 612.666555 252.577112 
L 613.131943 270.509271 
L 613.597331 273.387058 
L 614.062719 262.977026 
L 614.528107 268.843474 
L 614.993495 280.141567 
L 615.458882 283.877469 
L 615.92427 265.831416 
L 616.389658 285.533824 
L 616.855046 281.837047 
L 617.320434 261.303076 
L 617.785822 260.655376 
L 618.251209 278.948158 
L 618.716597 259.330532 
L 619.181985 266.889139 
L 619.647373 264.305828 
L 620.112761 278.538746 
L 620.578148 260.97948 
L 621.043536 264.107873 
L 621.508924 269.920295 
L 621.974312 253.563602 
L 622.4397 273.256386 
L 622.905088 263.091088 
L 623.370475 265.317996 
L 623.835863 255.928502 
L 624.301251 262.269642 
L 624.766639 256.855871 
L 625.232027 275.179949 
L 625.697415 283.12186 
L 626.162802 265.928541 
L 626.62819 280.344727 
L 627.093578 272.26779 
L 627.558966 282.873821 
L 628.024354 258.847726 
L 628.489741 276.013841 
L 628.955129 270.23367 
L 629.420517 271.919748 
L 629.885905 257.110522 
L 630.351293 280.420434 
L 630.816681 270.200187 
L 631.282068 264.584107 
L 631.747456 256.202004 
L 632.212844 254.938968 
L 632.678232 282.473755 
L 633.14362 252.18644 
L 633.609008 265.383435 
L 634.074395 283.547286 
L 634.539783 285.061572 
L 635.005171 253.035925 
L 635.470559 278.329594 
L 635.935947 246.474387 
L 636.401334 272.500347 
L 636.866722 263.097962 
L 637.33211 257.737479 
L 637.797498 262.111202 
L 638.262886 270.265762 
L 638.728274 285.544251 
L 639.193661 267.956446 
L 639.659049 286.979564 
L 640.124437 252.259715 
L 640.589825 281.75805 
L 641.055213 264.282605 
L 641.520601 275.709701 
L 641.985988 273.93942 
L 642.451376 272.910856 
L 642.916764 265.177335 
L 643.382152 273.954369 
L 643.84754 272.038666 
L 644.312927 293.416495 
L 644.778315 277.43891 
L 645.243703 273.750303 
L 645.709091 272.303402 
L 646.174479 273.724227 
L 647.105254 254.348045 
L 647.570642 265.536678 
L 648.03603 266.744003 
L 648.501418 264.441419 
L 648.966806 258.057728 
L 649.432193 267.041221 
L 649.897581 240.712058 
L 650.362969 253.503416 
L 650.828357 281.94092 
L 651.293745 289.128207 
L 651.759133 275.213511 
L 652.22452 272.952333 
L 652.689908 257.976291 
L 653.155296 257.93208 
L 653.620684 262.306104 
L 654.086072 271.910895 
L 654.55146 271.094511 
L 655.016847 264.484875 
L 655.482235 271.277938 
L 655.947623 269.565872 
L 656.413011 269.053763 
L 656.878399 261.172293 
L 657.343786 267.823502 
L 657.809174 260.84648 
L 658.274562 265.815402 
L 658.73995 265.557269 
L 659.205338 264.824056 
L 659.670726 267.399904 
L 660.136113 282.7421 
L 660.601501 276.366309 
L 661.066889 267.682475 
L 661.532277 287.384748 
L 661.997665 272.728836 
L 662.463053 268.607889 
L 662.92844 251.382296 
L 663.393828 267.818423 
L 663.859216 268.44414 
L 664.324604 281.141655 
L 664.789992 261.668292 
L 665.255379 261.156398 
L 665.720767 235.790757 
L 666.186155 249.812647 
L 666.651543 277.246582 
L 667.116931 242.897814 
L 667.582319 272.869935 
L 668.047706 277.041086 
L 668.513094 257.549904 
L 668.978482 276.375735 
L 669.44387 280.199122 
L 669.909258 254.456742 
L 670.374646 265.339208 
L 670.840033 245.591491 
L 671.305421 276.553527 
L 671.770809 272.141005 
L 672.236197 271.559579 
L 672.701585 262.275674 
L 673.166972 266.793579 
L 673.63236 287.492483 
L 674.097748 248.66511 
L 674.563136 253.649808 
L 675.028524 280.579796 
L 675.493912 274.740941 
L 675.959299 264.717123 
L 676.424687 272.196533 
L 676.890075 264.928898 
L 677.820851 275.37401 
L 678.286239 269.346435 
L 678.751626 259.156571 
L 679.217014 256.255586 
L 679.682402 270.130512 
L 680.14779 275.73673 
L 680.613178 284.745392 
L 681.078565 265.330474 
L 681.543953 271.573908 
L 682.009341 273.279489 
L 682.474729 257.095796 
L 682.940117 250.448855 
L 683.405505 245.503688 
L 683.870892 272.619479 
L 684.33628 239.681896 
L 684.801668 281.766784 
L 685.732444 267.88604 
L 686.197832 265.203148 
L 686.663219 254.182985 
L 687.128607 252.542684 
L 687.593995 248.467355 
L 688.059383 271.354639 
L 688.524771 262.34422 
L 688.990158 267.13922 
L 689.455546 279.525626 
L 689.920934 281.040191 
L 690.386322 255.318561 
L 690.85171 268.368179 
L 691.317098 246.61748 
L 691.782485 281.690791 
L 692.247873 267.9066 
L 692.713261 278.736391 
L 693.178649 279.151914 
L 694.109425 268.912116 
L 694.574812 266.841176 
L 695.0402 249.749171 
L 695.505588 275.1463 
L 695.970976 274.232831 
L 696.436364 263.414302 
L 696.901751 258.754583 
L 697.367139 279.581973 
L 697.832527 283.420993 
L 698.297915 263.479923 
L 698.763303 274.818763 
L 699.228691 267.70379 
L 699.694078 257.773195 
L 700.159466 243.397175 
L 700.624854 242.922674 
L 701.090242 279.731122 
L 701.55563 260.75309 
L 702.021018 266.828905 
L 702.486405 248.14848 
L 702.951793 263.514606 
L 703.417181 258.234002 
L 703.882569 277.686138 
L 704.347957 277.324507 
L 704.813344 256.482262 
L 705.278732 268.761163 
L 705.74412 263.333643 
L 706.209508 273.189254 
L 707.140284 253.078666 
L 707.605671 251.697284 
L 708.071059 251.15608 
L 708.536447 274.888366 
L 709.001835 245.491258 
L 709.467223 280.736376 
L 709.932611 248.647825 
L 710.397998 251.429464 
L 710.863386 268.625341 
L 711.328774 278.553815 
L 711.794162 264.922024 
L 712.25955 266.433807 
L 712.724937 263.146561 
L 713.190325 241.199664 
L 713.655713 278.283538 
L 714.121101 251.118187 
L 714.586489 280.700692 
L 715.051877 266.71691 
L 715.517264 284.172081 
L 715.982652 255.989466 
L 716.44804 260.647413 
L 716.913428 269.171163 
L 717.378816 247.873984 
L 717.844204 265.142 
L 718.309591 244.34899 
L 718.774979 278.441549 
L 719.240367 286.992098 
L 719.705755 271.358827 
L 720.171143 271.729789 
L 720.63653 284.29277 
L 721.101918 268.757022 
L 721.567306 260.426085 
L 722.032694 280.665803 
L 722.498082 264.679182 
L 722.96347 280.697029 
L 723.428857 250.34433 
L 723.894245 277.129095 
L 724.359633 235.782984 
L 724.825021 244.320714 
L 725.290409 290.845971 
L 725.755796 257.298272 
L 726.221184 283.370972 
L 726.686572 252.449993 
L 727.15196 247.089565 
L 727.617348 246.435818 
L 728.082736 241.091364 
L 728.548123 272.577628 
L 729.013511 282.876785 
L 729.478899 273.516084 
L 729.944287 276.25882 
L 730.409675 283.817673 
L 730.875063 277.849355 
L 731.34045 278.556119 
L 731.805838 281.230762 
L 732.271226 265.164937 
L 732.736614 279.279438 
L 733.202002 264.31697 
L 733.667389 241.527098 
L 734.132777 266.630609 
L 734.598165 269.695661 
L 735.063553 275.727217 
L 735.528941 264.227816 
L 735.994329 271.01189 
L 736.459716 258.756371 
L 736.925104 253.684546 
L 737.390492 243.164983 
L 737.85588 264.124436 
L 738.321268 257.929536 
L 738.786656 280.036828 
L 739.252043 283.579711 
L 739.717431 272.739136 
L 740.182819 275.832059 
L 740.648207 269.215366 
L 741.113595 249.633194 
L 741.578982 258.920024 
L 742.04437 253.167097 
L 742.509758 265.89583 
L 742.975146 272.813317 
L 743.440534 248.407908 
L 743.905922 279.964991 
L 744.371309 283.686612 
L 744.836697 274.385302 
L 745.302085 278.047134 
L 745.767473 249.483115 
L 746.232861 258.050798 
L 746.698249 275.586842 
L 747.163636 244.611486 
L 747.163636 244.611486 
" clip-path="url(#p5c532d2696)" style="fill: none; stroke: #ff7f0e; stroke-width: 1.5; stroke-linecap: square"/>
   </g>
   <g id="patch_3">
    <path d="M 108 384.48 
L 108 51.84 
" style="fill: none; stroke: #000000; stroke-width: 0.8; stroke-linejoin: miter; stroke-linecap: square"/>
   </g>
   <g id="patch_4">
    <path d="M 777.6 384.48 
L 777.6 51.84 
" style="fill: none; stroke: #000000; stroke-width: 0.8; stroke-linejoin: miter; stroke-linecap: square"/>
   </g>
   <g id="patch_5">
    <path d="M 108 384.48 
L 777.6 384.48 
" style="fill: none; stroke: #000000; stroke-width: 0.8; stroke-linejoin: miter; stroke-linecap: square"/>
   </g>
   <g id="patch_6">
    <path d="M 108 51.84 
L 777.6 51.84 
" style="fill: none; stroke: #000000; stroke-width: 0.8; stroke-linejoin: miter; stroke-linecap: square"/>
   </g>
   <g id="text_15">
    <!-- Regresso: Real vs Previsto -->
    <g transform="translate(360.520313 45.84) scale(0.12 -0.12)">
     <defs>
      <path id="DejaVuSans-52" d="M 2841 2188 
Q 3044 2119 3236 1894 
Q 3428 1669 3622 1275 
L 4263 0 
L 3584 0 
L 2988 1197 
Q 2756 1666 2539 1819 
Q 2322 1972 1947 1972 
L 1259 1972 
L 1259 0 
L 628 0 
L 628 4666 
L 2053 4666 
Q 2853 4666 3247 4331 
Q 3641 3997 3641 3322 
Q 3641 2881 3436 2590 
Q 3231 2300 2841 2188 
z
M 1259 4147 
L 1259 2491 
L 2053 2491 
Q 2509 2491 2742 2702 
Q 2975 2913 2975 3322 
Q 2975 3731 2742 3939 
Q 2509 4147 2053 4147 
L 1259 4147 
z
" transform="scale(0.015625)"/>
      <path id="DejaVuSans-65" d="M 3597 1894 
L 3597 1613 
L 953 1613 
Q 991 1019 1311 708 
Q 1631 397 2203 397 
Q 2534 397 2845 478 
Q 3156 559 3463 722 
L 3463 178 
Q 3153 47 2828 -22 
Q 2503 -91 2169 -91 
Q 1331 -91 842 396 
Q 353 884 353 1716 
Q 353 2575 817 3079 
Q 1281 3584 2069 3584 
Q 2775 3584 3186 3129 
Q 3597 2675 3597 1894 
z
M 3022 2063 
Q 3016 2534 2758 2815 
Q 2500 3097 2075 3097 
Q 1594 3097 1305 2825 
Q 1016 2553 972 2059 
L 3022 2063 
z
" transform="scale(0.015625)"/>
      <path id="DejaVuSans-67" d="M 2906 1791 
Q 2906 2416 2648 2759 
Q 2391 3103 1925 3103 
Q 1463 3103 1205 2759 
Q 947 2416 947 1791 
Q 947 1169 1205 825 
Q 1463 481 1925 481 
Q 2391 481 2648 825 
Q 2906 1169 2906 1791 
z
M 3481 434 
Q 3481 -459 3084 -895 
Q 2688 -1331 1869 -1331 
Q 1566 -1331 1297 -1286 
Q 1028 -1241 775 -1147 
L 775 -588 
Q 1028 -725 1275 -790 
Q 1522 -856 1778 -856 
Q 2344 -856 2625 -561 
Q 2906 -266 2906 331 
L 2906 616 
Q 2728 306 2450 153 
Q 2172 0 1784 0 
Q 1141 0 747 490 
Q 353 981 353 1791 
Q 353 2603 747 3093 
Q 1141 3584 1784 3584 
Q 2172 3584 2450 3431 
Q 2728 3278 2906 2969 
L 2906 3500 
L 3481 3500 
L 3481 434 
z
" transform="scale(0.015625)"/>
      <path id="DejaVuSans-72" d="M 2631 2963 
Q 2534 3019 2420 3045 
Q 2306 3072 2169 3072 
Q 1681 3072 1420 2755 
Q 1159 2438 1159 1844 
L 1159 0 
L 581 0 
L 581 3500 
L 1159 3500 
L 1159 2956 
Q 1341 3275 1631 3429 
Q 1922 3584 2338 3584 
Q 2397 3584 2469 3576 
Q 2541 3569 2628 3553 
L 2631 2963 
z
" transform="scale(0.015625)"/>
      <path id="DejaVuSans-73" d="M 2834 3397 
L 2834 2853 
Q 2591 2978 2328 3040 
Q 2066 3103 1784 3103 
Q 1356 3103 1142 2972 
Q 928 2841 928 2578 
Q 928 2378 1081 2264 
Q 1234 2150 1697 2047 
L 1894 2003 
Q 2506 1872 2764 1633 
Q 3022 1394 3022 966 
Q 3022 478 2636 193 
Q 2250 -91 1575 -91 
Q 1294 -91 989 -36 
Q 684 19 347 128 
L 347 722 
Q 666 556 975 473 
Q 1284 391 1588 391 
Q 1994 391 2212 530 
Q 2431 669 2431 922 
Q 2431 1156 2273 1281 
Q 2116 1406 1581 1522 
L 1381 1569 
Q 847 1681 609 1914 
Q 372 2147 372 2553 
Q 372 3047 722 3315 
Q 1072 3584 1716 3584 
Q 2034 3584 2315 3537 
Q 2597 3491 2834 3397 
z
" transform="scale(0.015625)"/>
      <path id="DejaVuSans-e3" d="M 2194 1759 
Q 1497 1759 1228 1600 
Q 959 1441 959 1056 
Q 959 750 1161 570 
Q 1363 391 1709 391 
Q 2188 391 2477 730 
Q 2766 1069 2766 1631 
L 2766 1759 
L 2194 1759 
z
M 3341 1997 
L 3341 0 
L 2766 0 
L 2766 531 
Q 2569 213 2275 61 
Q 1981 -91 1556 -91 
Q 1019 -91 701 211 
Q 384 513 384 1019 
Q 384 1609 779 1909 
Q 1175 2209 1959 2209 
L 2766 2209 
L 2766 2266 
Q 2766 2663 2505 2880 
Q 2244 3097 1772 3097 
Q 1472 3097 1187 3025 
Q 903 2953 641 2809 
L 641 3341 
Q 956 3463 1253 3523 
Q 1550 3584 1831 3584 
Q 2591 3584 2966 3190 
Q 3341 2797 3341 1997 
z
M 1844 4281 
L 1665 4453 
Q 1597 4516 1545 4545 
Q 1494 4575 1453 4575 
Q 1334 4575 1278 4461 
Q 1222 4347 1215 4091 
L 825 4091 
Q 831 4513 990 4742 
Q 1150 4972 1434 4972 
Q 1553 4972 1653 4928 
Q 1753 4884 1869 4781 
L 2047 4609 
Q 2115 4547 2167 4517 
Q 2219 4488 2259 4488 
Q 2378 4488 2434 4602 
Q 2490 4716 2497 4972 
L 2887 4972 
Q 2881 4550 2721 4320 
Q 2562 4091 2278 4091 
Q 2159 4091 2059 4134 
Q 1959 4178 1844 4281 
z
" transform="scale(0.015625)"/>
      <path id="DejaVuSans-6f" d="M 1959 3097 
Q 1497 3097 1228 2736 
Q 959 2375 959 1747 
Q 959 1119 1226 758 
Q 1494 397 1959 397 
Q 2419 397 2687 759 
Q 2956 1122 2956 1747 
Q 2956 2369 2687 2733 
Q 2419 3097 1959 3097 
z
M 1959 3584 
Q 2709 3584 3137 3096 
Q 3566 2609 3566 1747 
Q 3566 888 3137 398 
Q 2709 -91 1959 -91 
Q 1206 -91 779 398 
Q 353 888 353 1747 
Q 353 2609 779 3096 
Q 1206 3584 1959 3584 
z
" transform="scale(0.015625)"/>
      <path id="DejaVuSans-3a" d="M 750 794 
L 1409 794 
L 1409 0 
L 750 0 
L 750 794 
z
M 750 3309 
L 1409 3309 
L 1409 2516 
L 750 2516 
L 750 3309 
z
" transform="scale(0.015625)"/>
      <path id="DejaVuSans-20" transform="scale(0.015625)"/>
      <path id="DejaVuSans-61" d="M 2194 1759 
Q 1497 1759 1228 1600 
Q 959 1441 959 1056 
Q 959 750 1161 570 
Q 1363 391 1709 391 
Q 2188 391 2477 730 
Q 2766 1069 2766 1631 
L 2766 1759 
L 2194 1759 
z
M 3341 1997 
L 3341 0 
L 2766 0 
L 2766 531 
Q 2569 213 2275 61 
Q 1981 -91 1556 -91 
Q 1019 -91 701 211 
Q 384 513 384 1019 
Q 384 1609 779 1909 
Q 1175 2209 1959 2209 
L 2766 2209 
L 2766 2266 
Q 2766 2663 2505 2880 
Q 2244 3097 1772 3097 
Q 1472 3097 1187 3025 
Q 903 2953 641 2809 
L 641 3341 
Q 956 3463 1253 3523 
Q 1550 3584 1831 3584 
Q 2591 3584 2966 3190 
Q 3341 2797 3341 1997 
z
" transform="scale(0.015625)"/>
      <path id="DejaVuSans-6c" d="M 603 4863 
L 1178 4863 
L 1178 0 
L 603 0 
L 603 4863 
z
" transform="scale(0.015625)"/>
      <path id="DejaVuSans-76" d="M 191 3500 
L 800 3500 
L 1894 563 
L 2988 3500 
L 3597 3500 
L 2284 0 
L 1503 0 
L 191 3500 
z
" transform="scale(0.015625)"/>
      <path id="DejaVuSans-50" d="M 1259 4147 
L 1259 2394 
L 2053 2394 
Q 2494 2394 2734 2622 
Q 2975 2850 2975 3272 
Q 2975 3691 2734 3919 
Q 2494 4147 2053 4147 
L 1259 4147 
z
M 628 4666 
L 2053 4666 
Q 2838 4666 3239 4311 
Q 3641 3956 3641 3272 
Q 3641 2581 3239 2228 
Q 2838 1875 2053 1875 
L 1259 1875 
L 1259 0 
L 628 0 
L 628 4666 
z
" transform="scale(0.015625)"/>
      <path id="DejaVuSans-69" d="M 603 3500 
L 1178 3500 
L 1178 0 
L 603 0 
L 603 3500 
z
M 603 4863 
L 1178 4863 
L 1178 4134 
L 603 4134 
L 603 4863 
z
" transform="scale(0.015625)"/>
      <path id="DejaVuSans-74" d="M 1172 4494 
L 1172 3500 
L 2356 3500 
L 2356 3053 
L 1172 3053 
L 1172 1153 
Q 1172 725 1289 603 
Q 1406 481 1766 481 
L 2356 481 
L 2356 0 
L 1766 0 
Q 1100 0 847 248 
Q 594 497 594 1153 
L 594 3053 
L 172 3053 
L 172 3500 
L 594 3500 
L 594 4494 
L 1172 4494 
z
" transform="scale(0.015625)"/>
     </defs>
     <use xlink:href="#DejaVuSans-52"/>
     <use xlink:href="#DejaVuSans-65" x="64.982422"/>
     <use xlink:href="#DejaVuSans-67" x="126.505859"/>
     <use xlink:href="#DejaVuSans-72" x="189.982422"/>
     <use xlink:href="#DejaVuSans-65" x="228.845703"/>
     <use xlink:href="#DejaVuSans-73" x="290.369141"/>
     <use xlink:href="#DejaVuSans-73" x="342.46875"/>
     <use xlink:href="#DejaVuSans-e3" x="394.568359"/>
     <use xlink:href="#DejaVuSans-6f" x="455.847656"/>
     <use xlink:href="#DejaVuSans-3a" x="517.029297"/>
     <use xlink:href="#DejaVuSans-20" x="550.720703"/>
     <use xlink:href="#DejaVuSans-52" x="582.507812"/>
     <use xlink:href="#DejaVuSans-65" x="647.490234"/>
     <use xlink:href="#DejaVuSans-61" x="709.013672"/>
     <use xlink:href="#DejaVuSans-6c" x="770.292969"/>
     <use xlink:href="#DejaVuSans-20" x="798.076172"/>
     <use xlink:href="#DejaVuSans-76" x="829.863281"/>
     <use xlink:href="#DejaVuSans-73" x="889.042969"/>
     <use xlink:href="#DejaVuSans-20" x="941.142578"/>
     <use xlink:href="#DejaVuSans-50" x="972.929688"/>
     <use xlink:href="#DejaVuSans-72" x="1031.482422"/>
     <use xlink:href="#DejaVuSans-65" x="1070.345703"/>
     <use xlink:href="#DejaVuSans-76" x="1131.869141"/>
     <use xlink:href="#DejaVuSans-69" x="1191.048828"/>
     <use xlink:href="#DejaVuSans-73" x="1218.832031"/>
     <use xlink:href="#DejaVuSans-74" x="1270.931641"/>
     <use xlink:href="#DejaVuSans-6f" x="1310.140625"/>
    </g>
   </g>
   <g id="legend_1">
    <g id="patch_7">
     <path d="M 672.315625 89.19625 
L 770.6 89.19625 
Q 772.6 89.19625 772.6 87.19625 
L 772.6 58.84 
Q 772.6 56.84 770.6 56.84 
L 672.315625 56.84 
Q 670.315625 56.84 670.315625 58.84 
L 670.315625 87.19625 
Q 670.315625 89.19625 672.315625 89.19625 
z
" style="fill: #ffffff; opacity: 0.8; stroke: #cccccc; stroke-linejoin: miter"/>
    </g>
    <g id="line2d_17">
     <path d="M 674.315625 64.938437 
L 684.315625 64.938437 
L 694.315625 64.938437 
" style="fill: none; stroke: #1f77b4; stroke-width: 1.5; stroke-linecap: square"/>
    </g>
    <g id="text_16">
     <!-- Valores Reais -->
     <g transform="translate(702.315625 68.438437) scale(0.1 -0.1)">
      <defs>
       <path id="DejaVuSans-56" d="M 1831 0 
L 50 4666 
L 709 4666 
L 2188 738 
L 3669 4666 
L 4325 4666 
L 2547 0 
L 1831 0 
z
" transform="scale(0.015625)"/>
      </defs>
      <use xlink:href="#DejaVuSans-56"/>
      <use xlink:href="#DejaVuSans-61" x="60.658203"/>
      <use xlink:href="#DejaVuSans-6c" x="121.9375"/>
      <use xlink:href="#DejaVuSans-6f" x="149.720703"/>
      <use xlink:href="#DejaVuSans-72" x="210.902344"/>
      <use xlink:href="#DejaVuSans-65" x="249.765625"/>
      <use xlink:href="#DejaVuSans-73" x="311.289062"/>
      <use xlink:href="#DejaVuSans-20" x="363.388672"/>
      <use xlink:href="#DejaVuSans-52" x="395.175781"/>
      <use xlink:href="#DejaVuSans-65" x="460.158203"/>
      <use xlink:href="#DejaVuSans-61" x="521.681641"/>
      <use xlink:href="#DejaVuSans-69" x="582.960938"/>
      <use xlink:href="#DejaVuSans-73" x="610.744141"/>
     </g>
    </g>
    <g id="line2d_18">
     <path d="M 674.315625 79.616562 
L 684.315625 79.616562 
L 694.315625 79.616562 
" style="fill: none; stroke: #ff7f0e; stroke-width: 1.5; stroke-linecap: square"/>
    </g>
    <g id="text_17">
     <!-- Previses -->
     <g transform="translate(702.315625 83.116562) scale(0.1 -0.1)">
      <defs>
       <path id="DejaVuSans-f5" d="M 1959 3097 
Q 1497 3097 1228 2736 
Q 959 2375 959 1747 
Q 959 1119 1226 758 
Q 1494 397 1959 397 
Q 2419 397 2687 759 
Q 2956 1122 2956 1747 
Q 2956 2369 2687 2733 
Q 2419 3097 1959 3097 
z
M 1959 3584 
Q 2709 3584 3137 3096 
Q 3566 2609 3566 1747 
Q 3566 888 3137 398 
Q 2709 -91 1959 -91 
Q 1206 -91 779 398 
Q 353 888 353 1747 
Q 353 2609 779 3096 
Q 1206 3584 1959 3584 
z
M 1948 4281 
L 1769 4453 
Q 1701 4516 1649 4545 
Q 1598 4575 1557 4575 
Q 1438 4575 1382 4461 
Q 1326 4347 1319 4091 
L 929 4091 
Q 935 4513 1094 4742 
Q 1254 4972 1538 4972 
Q 1657 4972 1757 4928 
Q 1857 4884 1973 4781 
L 2151 4609 
Q 2219 4547 2271 4517 
Q 2323 4488 2363 4488 
Q 2482 4488 2538 4602 
Q 2594 4716 2601 4972 
L 2991 4972 
Q 2985 4550 2825 4320 
Q 2666 4091 2382 4091 
Q 2263 4091 2163 4134 
Q 2063 4178 1948 4281 
z
" transform="scale(0.015625)"/>
      </defs>
      <use xlink:href="#DejaVuSans-50"/>
      <use xlink:href="#DejaVuSans-72" x="58.552734"/>
      <use xlink:href="#DejaVuSans-65" x="97.416016"/>
      <use xlink:href="#DejaVuSans-76" x="158.939453"/>
      <use xlink:href="#DejaVuSans-69" x="218.119141"/>
      <use xlink:href="#DejaVuSans-73" x="245.902344"/>
      <use xlink:href="#DejaVuSans-f5" x="298.001953"/>
      <use xlink:href="#DejaVuSans-65" x="359.183594"/>
      <use xlink:href="#DejaVuSans-73" x="420.707031"/>
     </g>
    </g>
   </g>
  </g>
 </g>
 <defs>
  <clipPath id="p5c532d2696">
   <rect x="108" y="51.84" width="669.6" height="332.64"/>
  </clipPath>
 </defs>
</svg>
