<?xml version="1.0" encoding="utf-8" standalone="no"?>
<!DOCTYPE svg PUBLIC "-//W3C//DTD SVG 1.1//EN"
  "http://www.w3.org/Graphics/SVG/1.1/DTD/svg11.dtd">
<svg xmlns:xlink="http://www.w3.org/1999/xlink" width="864pt" height="432pt" viewBox="0 0 864 432" xmlns="http://www.w3.org/2000/svg" version="1.1">
 <metadata>
  <rdf:RDF xmlns:dc="http://purl.org/dc/elements/1.1/" xmlns:cc="http://creativecommons.org/ns#" xmlns:rdf="http://www.w3.org/1999/02/22-rdf-syntax-ns#">
   <cc:Work>
    <dc:type rdf:resource="http://purl.org/dc/dcmitype/StillImage"/>
    <dc:date>2024-12-06T19:29:56.669325</dc:date>
    <dc:format>image/svg+xml</dc:format>
    <dc:creator>
     <cc:Agent>
      <dc:title>Matplotlib v3.9.2, https://matplotlib.org/</dc:title>
     </cc:Agent>
    </dc:creator>
   </cc:Work>
  </rdf:RDF>
 </metadata>
 <defs>
  <style type="text/css">*{stroke-linejoin: round; stroke-linecap: butt}</style>
 </defs>
 <g id="figure_1">
  <g id="patch_1">
   <path d="M 0 432 
L 864 432 
L 864 0 
L 0 0 
z
" style="fill: #ffffff"/>
  </g>
  <g id="axes_1">
   <g id="patch_2">
    <path d="M 108 384.48 
L 777.6 384.48 
L 777.6 51.84 
L 108 51.84 
z
" style="fill: #ffffff"/>
   </g>
   <g id="matplotlib.axis_1">
    <g id="xtick_1">
     <g id="line2d_1">
      <defs>
       <path id="maf8d025f45" d="M 0 0 
L 0 3.5 
" style="stroke: #000000; stroke-width: 0.8"/>
      </defs>
      <g>
       <use xlink:href="#maf8d025f45" x="138.436364" y="384.48" style="stroke: #000000; stroke-width: 0.8"/>
      </g>
     </g>
     <g id="text_1">
      <!-- 0 -->
      <g transform="translate(135.255114 399.078438) scale(0.1 -0.1)">
       <defs>
        <path id="DejaVuSans-30" d="M 2034 4250 
Q 1547 4250 1301 3770 
Q 1056 3291 1056 2328 
Q 1056 1369 1301 889 
Q 1547 409 2034 409 
Q 2525 409 2770 889 
Q 3016 1369 3016 2328 
Q 3016 3291 2770 3770 
Q 2525 4250 2034 4250 
z
M 2034 4750 
Q 2819 4750 3233 4129 
Q 3647 3509 3647 2328 
Q 3647 1150 3233 529 
Q 2819 -91 2034 -91 
Q 1250 -91 836 529 
Q 422 1150 422 2328 
Q 422 3509 836 4129 
Q 1250 4750 2034 4750 
z
" transform="scale(0.015625)"/>
       </defs>
       <use xlink:href="#DejaVuSans-30"/>
      </g>
     </g>
    </g>
    <g id="xtick_2">
     <g id="line2d_2">
      <g>
       <use xlink:href="#maf8d025f45" x="231.513928" y="384.48" style="stroke: #000000; stroke-width: 0.8"/>
      </g>
     </g>
     <g id="text_2">
      <!-- 200 -->
      <g transform="translate(221.970178 399.078438) scale(0.1 -0.1)">
       <defs>
        <path id="DejaVuSans-32" d="M 1228 531 
L 3431 531 
L 3431 0 
L 469 0 
L 469 531 
Q 828 903 1448 1529 
Q 2069 2156 2228 2338 
Q 2531 2678 2651 2914 
Q 2772 3150 2772 3378 
Q 2772 3750 2511 3984 
Q 2250 4219 1831 4219 
Q 1534 4219 1204 4116 
Q 875 4013 500 3803 
L 500 4441 
Q 881 4594 1212 4672 
Q 1544 4750 1819 4750 
Q 2544 4750 2975 4387 
Q 3406 4025 3406 3419 
Q 3406 3131 3298 2873 
Q 3191 2616 2906 2266 
Q 2828 2175 2409 1742 
Q 1991 1309 1228 531 
z
" transform="scale(0.015625)"/>
       </defs>
       <use xlink:href="#DejaVuSans-32"/>
       <use xlink:href="#DejaVuSans-30" x="63.623047"/>
       <use xlink:href="#DejaVuSans-30" x="127.246094"/>
      </g>
     </g>
    </g>
    <g id="xtick_3">
     <g id="line2d_3">
      <g>
       <use xlink:href="#maf8d025f45" x="324.591493" y="384.48" style="stroke: #000000; stroke-width: 0.8"/>
      </g>
     </g>
     <g id="text_3">
      <!-- 400 -->
      <g transform="translate(315.047743 399.078438) scale(0.1 -0.1)">
       <defs>
        <path id="DejaVuSans-34" d="M 2419 4116 
L 825 1625 
L 2419 1625 
L 2419 4116 
z
M 2253 4666 
L 3047 4666 
L 3047 1625 
L 3713 1625 
L 3713 1100 
L 3047 1100 
L 3047 0 
L 2419 0 
L 2419 1100 
L 313 1100 
L 313 1709 
L 2253 4666 
z
" transform="scale(0.015625)"/>
       </defs>
       <use xlink:href="#DejaVuSans-34"/>
       <use xlink:href="#DejaVuSans-30" x="63.623047"/>
       <use xlink:href="#DejaVuSans-30" x="127.246094"/>
      </g>
     </g>
    </g>
    <g id="xtick_4">
     <g id="line2d_4">
      <g>
       <use xlink:href="#maf8d025f45" x="417.669058" y="384.48" style="stroke: #000000; stroke-width: 0.8"/>
      </g>
     </g>
     <g id="text_4">
      <!-- 600 -->
      <g transform="translate(408.125308 399.078438) scale(0.1 -0.1)">
       <defs>
        <path id="DejaVuSans-36" d="M 2113 2584 
Q 1688 2584 1439 2293 
Q 1191 2003 1191 1497 
Q 1191 994 1439 701 
Q 1688 409 2113 409 
Q 2538 409 2786 701 
Q 3034 994 3034 1497 
Q 3034 2003 2786 2293 
Q 2538 2584 2113 2584 
z
M 3366 4563 
L 3366 3988 
Q 3128 4100 2886 4159 
Q 2644 4219 2406 4219 
Q 1781 4219 1451 3797 
Q 1122 3375 1075 2522 
Q 1259 2794 1537 2939 
Q 1816 3084 2150 3084 
Q 2853 3084 3261 2657 
Q 3669 2231 3669 1497 
Q 3669 778 3244 343 
Q 2819 -91 2113 -91 
Q 1303 -91 875 529 
Q 447 1150 447 2328 
Q 447 3434 972 4092 
Q 1497 4750 2381 4750 
Q 2619 4750 2861 4703 
Q 3103 4656 3366 4563 
z
" transform="scale(0.015625)"/>
       </defs>
       <use xlink:href="#DejaVuSans-36"/>
       <use xlink:href="#DejaVuSans-30" x="63.623047"/>
       <use xlink:href="#DejaVuSans-30" x="127.246094"/>
      </g>
     </g>
    </g>
    <g id="xtick_5">
     <g id="line2d_5">
      <g>
       <use xlink:href="#maf8d025f45" x="510.746622" y="384.48" style="stroke: #000000; stroke-width: 0.8"/>
      </g>
     </g>
     <g id="text_5">
      <!-- 800 -->
      <g transform="translate(501.202872 399.078438) scale(0.1 -0.1)">
       <defs>
        <path id="DejaVuSans-38" d="M 2034 2216 
Q 1584 2216 1326 1975 
Q 1069 1734 1069 1313 
Q 1069 891 1326 650 
Q 1584 409 2034 409 
Q 2484 409 2743 651 
Q 3003 894 3003 1313 
Q 3003 1734 2745 1975 
Q 2488 2216 2034 2216 
z
M 1403 2484 
Q 997 2584 770 2862 
Q 544 3141 544 3541 
Q 544 4100 942 4425 
Q 1341 4750 2034 4750 
Q 2731 4750 3128 4425 
Q 3525 4100 3525 3541 
Q 3525 3141 3298 2862 
Q 3072 2584 2669 2484 
Q 3125 2378 3379 2068 
Q 3634 1759 3634 1313 
Q 3634 634 3220 271 
Q 2806 -91 2034 -91 
Q 1263 -91 848 271 
Q 434 634 434 1313 
Q 434 1759 690 2068 
Q 947 2378 1403 2484 
z
M 1172 3481 
Q 1172 3119 1398 2916 
Q 1625 2713 2034 2713 
Q 2441 2713 2670 2916 
Q 2900 3119 2900 3481 
Q 2900 3844 2670 4047 
Q 2441 4250 2034 4250 
Q 1625 4250 1398 4047 
Q 1172 3844 1172 3481 
z
" transform="scale(0.015625)"/>
       </defs>
       <use xlink:href="#DejaVuSans-38"/>
       <use xlink:href="#DejaVuSans-30" x="63.623047"/>
       <use xlink:href="#DejaVuSans-30" x="127.246094"/>
      </g>
     </g>
    </g>
    <g id="xtick_6">
     <g id="line2d_6">
      <g>
       <use xlink:href="#maf8d025f45" x="603.824187" y="384.48" style="stroke: #000000; stroke-width: 0.8"/>
      </g>
     </g>
     <g id="text_6">
      <!-- 1000 -->
      <g transform="translate(591.099187 399.078438) scale(0.1 -0.1)">
       <defs>
        <path id="DejaVuSans-31" d="M 794 531 
L 1825 531 
L 1825 4091 
L 703 3866 
L 703 4441 
L 1819 4666 
L 2450 4666 
L 2450 531 
L 3481 531 
L 3481 0 
L 794 0 
L 794 531 
z
" transform="scale(0.015625)"/>
       </defs>
       <use xlink:href="#DejaVuSans-31"/>
       <use xlink:href="#DejaVuSans-30" x="63.623047"/>
       <use xlink:href="#DejaVuSans-30" x="127.246094"/>
       <use xlink:href="#DejaVuSans-30" x="190.869141"/>
      </g>
     </g>
    </g>
    <g id="xtick_7">
     <g id="line2d_7">
      <g>
       <use xlink:href="#maf8d025f45" x="696.901751" y="384.48" style="stroke: #000000; stroke-width: 0.8"/>
      </g>
     </g>
     <g id="text_7">
      <!-- 1200 -->
      <g transform="translate(684.176751 399.078438) scale(0.1 -0.1)">
       <use xlink:href="#DejaVuSans-31"/>
       <use xlink:href="#DejaVuSans-32" x="63.623047"/>
       <use xlink:href="#DejaVuSans-30" x="127.246094"/>
       <use xlink:href="#DejaVuSans-30" x="190.869141"/>
      </g>
     </g>
    </g>
   </g>
   <g id="matplotlib.axis_2">
    <g id="ytick_1">
     <g id="line2d_8">
      <defs>
       <path id="mc203205150" d="M 0 0 
L -3.5 0 
" style="stroke: #000000; stroke-width: 0.8"/>
      </defs>
      <g>
       <use xlink:href="#mc203205150" x="108" y="366.181382" style="stroke: #000000; stroke-width: 0.8"/>
      </g>
     </g>
     <g id="text_8">
      <!-- 0 -->
      <g transform="translate(94.6375 369.980601) scale(0.1 -0.1)">
       <use xlink:href="#DejaVuSans-30"/>
      </g>
     </g>
    </g>
    <g id="ytick_2">
     <g id="line2d_9">
      <g>
       <use xlink:href="#mc203205150" x="108" y="315.437477" style="stroke: #000000; stroke-width: 0.8"/>
      </g>
     </g>
     <g id="text_9">
      <!-- 50 -->
      <g transform="translate(88.275 319.236696) scale(0.1 -0.1)">
       <defs>
        <path id="DejaVuSans-35" d="M 691 4666 
L 3169 4666 
L 3169 4134 
L 1269 4134 
L 1269 2991 
Q 1406 3038 1543 3061 
Q 1681 3084 1819 3084 
Q 2600 3084 3056 2656 
Q 3513 2228 3513 1497 
Q 3513 744 3044 326 
Q 2575 -91 1722 -91 
Q 1428 -91 1123 -41 
Q 819 9 494 109 
L 494 744 
Q 775 591 1075 516 
Q 1375 441 1709 441 
Q 2250 441 2565 725 
Q 2881 1009 2881 1497 
Q 2881 1984 2565 2268 
Q 2250 2553 1709 2553 
Q 1456 2553 1204 2497 
Q 953 2441 691 2322 
L 691 4666 
z
" transform="scale(0.015625)"/>
       </defs>
       <use xlink:href="#DejaVuSans-35"/>
       <use xlink:href="#DejaVuSans-30" x="63.623047"/>
      </g>
     </g>
    </g>
    <g id="ytick_3">
     <g id="line2d_10">
      <g>
       <use xlink:href="#mc203205150" x="108" y="264.693572" style="stroke: #000000; stroke-width: 0.8"/>
      </g>
     </g>
     <g id="text_10">
      <!-- 100 -->
      <g transform="translate(81.9125 268.492791) scale(0.1 -0.1)">
       <use xlink:href="#DejaVuSans-31"/>
       <use xlink:href="#DejaVuSans-30" x="63.623047"/>
       <use xlink:href="#DejaVuSans-30" x="127.246094"/>
      </g>
     </g>
    </g>
    <g id="ytick_4">
     <g id="line2d_11">
      <g>
       <use xlink:href="#mc203205150" x="108" y="213.949667" style="stroke: #000000; stroke-width: 0.8"/>
      </g>
     </g>
     <g id="text_11">
      <!-- 150 -->
      <g transform="translate(81.9125 217.748886) scale(0.1 -0.1)">
       <use xlink:href="#DejaVuSans-31"/>
       <use xlink:href="#DejaVuSans-35" x="63.623047"/>
       <use xlink:href="#DejaVuSans-30" x="127.246094"/>
      </g>
     </g>
    </g>
    <g id="ytick_5">
     <g id="line2d_12">
      <g>
       <use xlink:href="#mc203205150" x="108" y="163.205762" style="stroke: #000000; stroke-width: 0.8"/>
      </g>
     </g>
     <g id="text_12">
      <!-- 200 -->
      <g transform="translate(81.9125 167.004981) scale(0.1 -0.1)">
       <use xlink:href="#DejaVuSans-32"/>
       <use xlink:href="#DejaVuSans-30" x="63.623047"/>
       <use xlink:href="#DejaVuSans-30" x="127.246094"/>
      </g>
     </g>
    </g>
    <g id="ytick_6">
     <g id="line2d_13">
      <g>
       <use xlink:href="#mc203205150" x="108" y="112.461857" style="stroke: #000000; stroke-width: 0.8"/>
      </g>
     </g>
     <g id="text_13">
      <!-- 250 -->
      <g transform="translate(81.9125 116.261075) scale(0.1 -0.1)">
       <use xlink:href="#DejaVuSans-32"/>
       <use xlink:href="#DejaVuSans-35" x="63.623047"/>
       <use xlink:href="#DejaVuSans-30" x="127.246094"/>
      </g>
     </g>
    </g>
    <g id="ytick_7">
     <g id="line2d_14">
      <g>
       <use xlink:href="#mc203205150" x="108" y="61.717952" style="stroke: #000000; stroke-width: 0.8"/>
      </g>
     </g>
     <g id="text_14">
      <!-- 300 -->
      <g transform="translate(81.9125 65.51717) scale(0.1 -0.1)">
       <defs>
        <path id="DejaVuSans-33" d="M 2597 2516 
Q 3050 2419 3304 2112 
Q 3559 1806 3559 1356 
Q 3559 666 3084 287 
Q 2609 -91 1734 -91 
Q 1441 -91 1130 -33 
Q 819 25 488 141 
L 488 750 
Q 750 597 1062 519 
Q 1375 441 1716 441 
Q 2309 441 2620 675 
Q 2931 909 2931 1356 
Q 2931 1769 2642 2001 
Q 2353 2234 1838 2234 
L 1294 2234 
L 1294 2753 
L 1863 2753 
Q 2328 2753 2575 2939 
Q 2822 3125 2822 3475 
Q 2822 3834 2567 4026 
Q 2313 4219 1838 4219 
Q 1578 4219 1281 4162 
Q 984 4106 628 3988 
L 628 4550 
Q 988 4650 1302 4700 
Q 1616 4750 1894 4750 
Q 2613 4750 3031 4423 
Q 3450 4097 3450 3541 
Q 3450 3153 3228 2886 
Q 3006 2619 2597 2516 
z
" transform="scale(0.015625)"/>
       </defs>
       <use xlink:href="#DejaVuSans-33"/>
       <use xlink:href="#DejaVuSans-30" x="63.623047"/>
       <use xlink:href="#DejaVuSans-30" x="127.246094"/>
      </g>
     </g>
    </g>
   </g>
   <g id="line2d_15">
    <path d="M 138.436364 343.164353 
L 138.901751 338.560947 
L 139.367139 246.492829 
L 139.832527 347.767759 
L 140.297915 207.363879 
L 140.763303 262.60475 
L 141.228691 283.320076 
L 141.694078 274.113265 
L 142.159466 345.466056 
L 142.624854 76.166812 
L 143.090242 198.157068 
L 143.55563 234.984315 
L 144.021018 262.60475 
L 144.486405 241.889423 
L 144.951793 248.794532 
L 145.417181 221.174097 
L 145.882569 262.60475 
L 146.347957 260.303047 
L 146.813344 313.242215 
L 147.278732 198.157068 
L 147.74412 333.957541 
L 148.209508 262.60475 
L 149.140284 262.60475 
L 149.605671 239.587721 
L 150.071059 239.587721 
L 150.536447 333.957541 
L 151.001835 209.665582 
L 151.467223 214.268988 
L 151.932611 205.062176 
L 152.397998 85.373624 
L 152.863386 276.414968 
L 153.328774 262.60475 
L 153.794162 195.855365 
L 154.25955 253.397938 
L 154.724937 195.855365 
L 155.190325 239.587721 
L 155.655713 205.062176 
L 156.121101 324.750729 
L 156.586489 221.174097 
L 157.051877 195.855365 
L 157.517264 198.157068 
L 157.982652 258.001344 
L 158.44804 99.183841 
L 158.913428 331.655838 
L 159.378816 343.164353 
L 159.844204 184.34685 
L 160.309591 209.665582 
L 160.774979 313.242215 
L 161.240367 159.028118 
L 161.705755 339.711798 
L 162.171143 343.164353 
L 162.63653 117.597465 
L 163.101918 262.60475 
L 163.567306 239.587721 
L 164.032694 248.794532 
L 164.498082 198.157068 
L 165.428857 313.242215 
L 165.894245 198.157068 
L 166.359633 274.113265 
L 166.825021 262.60475 
L 167.290409 338.560947 
L 167.755796 205.062176 
L 168.221184 184.34685 
L 168.686572 269.509859 
L 169.15196 264.906453 
L 169.617348 278.71667 
L 170.082736 85.373624 
L 170.548123 347.767759 
L 171.013511 253.397938 
L 171.478899 198.157068 
L 172.409675 262.60475 
L 172.875063 262.60475 
L 173.34045 239.587721 
L 173.805838 310.940512 
L 174.271226 239.587721 
L 174.736614 329.354135 
L 175.202002 304.035403 
L 175.667389 188.950256 
L 176.132777 198.157068 
L 177.063553 287.923482 
L 177.528941 258.001344 
L 177.994329 241.889423 
L 178.459716 262.60475 
L 178.925104 347.767759 
L 179.390492 343.164353 
L 179.85588 253.397938 
L 180.321268 307.487957 
L 180.786656 343.164353 
L 181.252043 117.597465 
L 181.717431 333.957541 
L 182.182819 329.354135 
L 182.648207 253.397938 
L 183.113595 258.001344 
L 183.578982 94.580435 
L 184.04437 264.906453 
L 184.975146 232.682612 
L 185.440534 241.889423 
L 185.905922 241.889423 
L 186.371309 301.7337 
L 186.836697 239.587721 
L 187.302085 198.157068 
L 187.767473 262.60475 
L 188.232861 209.665582 
L 188.698249 198.157068 
L 189.163636 306.337106 
L 189.629024 331.655838 
L 190.094412 320.147323 
L 190.5598 214.268988 
L 191.490575 304.035403 
L 191.955963 230.380909 
L 192.421351 218.872394 
L 192.886739 322.449026 
L 193.352127 260.303047 
L 193.817515 159.028118 
L 194.282902 198.157068 
L 194.74829 218.872394 
L 195.213678 354.672868 
L 195.679066 237.286018 
L 196.144454 329.354135 
L 196.609842 223.4758 
L 197.075229 354.672868 
L 197.540617 209.665582 
L 198.006005 188.950256 
L 198.471393 221.174097 
L 199.402168 306.337106 
L 199.867556 221.174097 
L 200.332944 221.174097 
L 200.798332 262.60475 
L 201.26372 239.587721 
L 201.729108 359.276273 
L 202.194495 333.957541 
L 202.659883 343.164353 
L 203.125271 315.543918 
L 203.590659 241.889423 
L 204.056047 89.977029 
L 204.521435 258.001344 
L 204.986822 343.164353 
L 205.917598 352.371165 
L 206.382986 340.86265 
L 206.848374 232.682612 
L 207.313761 234.984315 
L 207.779149 258.001344 
L 208.244537 228.079206 
L 208.709925 283.320076 
L 209.175313 244.191126 
L 209.640701 317.84562 
L 210.106088 239.587721 
L 210.571476 246.492829 
L 211.036864 264.906453 
L 211.502252 343.164353 
L 211.96764 239.587721 
L 212.433028 188.950256 
L 212.898415 239.587721 
L 213.363803 343.164353 
L 213.829191 262.60475 
L 214.294579 239.587721 
L 214.759967 241.889423 
L 215.225354 343.164353 
L 215.690742 198.157068 
L 216.15613 195.855365 
L 217.086906 302.654381 
L 217.552294 306.337106 
L 218.017681 221.174097 
L 218.483069 306.337106 
L 218.948457 306.337106 
L 219.413845 283.320076 
L 219.879233 329.354135 
L 220.344621 359.276273 
L 220.810008 329.354135 
L 221.275396 211.967285 
L 221.740784 306.337106 
L 222.206172 301.7337 
L 222.67156 287.923482 
L 223.136947 260.303047 
L 223.602335 262.60475 
L 224.067723 251.096235 
L 224.533111 281.018373 
L 224.998499 209.665582 
L 225.463887 333.957541 
L 225.929274 239.587721 
L 226.394662 287.923482 
L 226.86005 221.174097 
L 227.325438 85.373624 
L 227.790826 281.018373 
L 228.256214 221.174097 
L 228.721601 350.069462 
L 229.186989 310.940512 
L 229.652377 352.371165 
L 230.117765 343.164353 
L 230.583153 221.174097 
L 231.04854 239.587721 
L 231.513928 251.096235 
L 231.979316 333.957541 
L 232.444704 184.34685 
L 232.910092 338.100606 
L 233.37548 94.580435 
L 233.840867 262.60475 
L 234.306255 221.174097 
L 234.771643 218.872394 
L 235.237031 239.587721 
L 235.702419 287.923482 
L 236.167807 207.363879 
L 236.633194 237.286018 
L 237.098582 313.242215 
L 237.56397 329.354135 
L 238.494746 108.390653 
L 238.960133 351.220313 
L 239.425521 274.113265 
L 239.890909 239.587721 
L 240.356297 255.699641 
L 240.821685 221.174097 
L 241.287073 253.397938 
L 241.75246 66.96 
L 242.217848 308.638809 
L 242.683236 258.001344 
L 243.148624 66.96 
L 243.614012 262.60475 
L 244.079399 333.957541 
L 244.544787 239.587721 
L 245.010175 255.699641 
L 245.475563 327.052432 
L 245.940951 239.587721 
L 246.406339 258.001344 
L 246.871726 354.672868 
L 247.337114 244.191126 
L 247.802502 234.984315 
L 248.26789 248.794532 
L 248.733278 255.699641 
L 249.198666 193.553662 
L 249.664053 255.699641 
L 250.129441 202.760473 
L 250.594829 301.7337 
L 251.060217 262.60475 
L 251.525605 306.337106 
L 251.990992 239.587721 
L 252.45638 216.570691 
L 252.921768 356.97457 
L 253.387156 306.337106 
L 253.852544 354.672868 
L 254.317932 94.580435 
L 254.783319 262.60475 
L 255.248707 327.052432 
L 255.714095 234.984315 
L 256.179483 301.7337 
L 256.644871 343.164353 
L 257.110259 304.035403 
L 257.575646 225.777503 
L 258.041034 338.560947 
L 258.506422 117.597465 
L 258.97181 239.587721 
L 259.437198 239.587721 
L 259.902585 253.397938 
L 260.367973 193.553662 
L 260.833361 301.7337 
L 261.298749 207.363879 
L 261.764137 281.018373 
L 262.229525 253.397938 
L 262.694912 202.760473 
L 263.1603 281.018373 
L 263.625688 253.397938 
L 264.091076 239.587721 
L 265.021852 329.354135 
L 265.487239 310.940512 
L 266.418015 244.191126 
L 266.883403 333.957541 
L 267.348791 239.587721 
L 267.814178 207.363879 
L 268.279566 335.108393 
L 268.744954 343.164353 
L 269.210342 322.449026 
L 270.141118 225.777503 
L 270.606505 317.84562 
L 271.071893 343.164353 
L 271.537281 239.587721 
L 272.002669 276.414968 
L 272.933445 221.174097 
L 273.398832 239.587721 
L 273.86422 207.363879 
L 274.329608 221.174097 
L 274.794996 354.672868 
L 275.260384 253.397938 
L 275.725771 94.580435 
L 276.191159 239.587721 
L 276.656547 159.028118 
L 277.121935 239.587721 
L 277.587323 136.011088 
L 278.052711 329.354135 
L 278.518098 338.560947 
L 278.983486 193.553662 
L 279.448874 198.157068 
L 279.914262 262.60475 
L 280.37965 230.380909 
L 280.845038 244.191126 
L 281.310425 216.570691 
L 281.775813 230.380909 
L 282.241201 94.580435 
L 282.706589 338.560947 
L 283.171977 327.052432 
L 283.637364 347.767759 
L 284.102752 331.655838 
L 284.56814 209.665582 
L 285.033528 264.906453 
L 285.498916 117.597465 
L 285.964304 331.655838 
L 286.429691 255.699641 
L 286.895079 248.794532 
L 287.825855 350.069462 
L 288.291243 136.011088 
L 288.756631 258.001344 
L 289.222018 239.587721 
L 289.687406 255.699641 
L 290.152794 241.889423 
L 290.618182 320.147323 
L 291.08357 251.096235 
L 291.548957 324.750729 
L 292.014345 255.699641 
L 292.479733 76.166812 
L 292.945121 207.363879 
L 293.410509 304.035403 
L 293.875897 262.60475 
L 294.341284 248.794532 
L 294.806672 324.750729 
L 295.737448 191.251959 
L 296.202836 260.303047 
L 296.668224 306.337106 
L 297.133611 232.682612 
L 297.598999 310.940512 
L 298.064387 258.001344 
L 298.529775 239.587721 
L 298.995163 253.397938 
L 299.46055 136.011088 
L 299.925938 234.984315 
L 300.391326 195.855365 
L 300.856714 117.597465 
L 301.322102 244.191126 
L 301.78749 310.940512 
L 302.252877 253.397938 
L 302.718265 255.699641 
L 303.183653 239.587721 
L 303.649041 202.760473 
L 304.114429 306.337106 
L 304.579817 264.906453 
L 305.045204 343.164353 
L 305.510592 350.069462 
L 306.441368 214.268988 
L 306.906756 253.397938 
L 307.372143 239.587721 
L 307.837531 327.052432 
L 308.302919 211.967285 
L 308.768307 264.906453 
L 309.233695 136.011088 
L 309.699083 170.536632 
L 310.16447 343.164353 
L 310.629858 336.259244 
L 311.095246 322.449026 
L 311.560634 99.183841 
L 312.026022 262.60475 
L 312.49141 239.587721 
L 312.956797 262.60475 
L 313.422185 258.001344 
L 313.887573 205.062176 
L 314.352961 347.767759 
L 314.818349 262.60475 
L 315.283736 262.60475 
L 315.749124 239.587721 
L 316.214512 260.303047 
L 316.6799 239.587721 
L 317.145288 193.553662 
L 317.610676 343.164353 
L 318.076063 301.7337 
L 318.541451 337.410095 
L 319.006839 262.60475 
L 319.472227 260.303047 
L 319.937615 232.682612 
L 320.403003 353.522016 
L 320.86839 198.157068 
L 321.799166 327.052432 
L 322.264554 159.028118 
L 322.729942 179.743444 
L 323.195329 234.984315 
L 323.660717 304.035403 
L 324.591493 221.174097 
L 325.056881 253.397938 
L 325.522269 230.380909 
L 325.987656 276.414968 
L 326.453044 343.164353 
L 326.918432 262.60475 
L 327.38382 285.621779 
L 327.849208 211.967285 
L 328.314595 347.767759 
L 328.779983 343.164353 
L 329.245371 246.492829 
L 329.710759 342.013501 
L 330.176147 159.028118 
L 330.641535 232.682612 
L 331.106922 348.91861 
L 331.57231 255.699641 
L 332.037698 193.553662 
L 332.503086 306.337106 
L 332.968474 317.84562 
L 333.433862 333.957541 
L 333.899249 76.166812 
L 334.364637 306.337106 
L 334.830025 184.34685 
L 335.295413 343.164353 
L 335.760801 306.337106 
L 336.226188 324.750729 
L 336.691576 306.337106 
L 337.156964 343.164353 
L 337.622352 351.220313 
L 338.08774 262.60475 
L 338.553128 205.062176 
L 339.018515 191.251959 
L 339.483903 230.380909 
L 339.949291 232.682612 
L 340.414679 191.251959 
L 340.880067 200.458771 
L 341.345455 338.560947 
L 341.810842 198.157068 
L 342.27623 230.380909 
L 342.741618 211.967285 
L 343.207006 258.001344 
L 343.672394 99.183841 
L 344.137781 230.380909 
L 344.603169 313.242215 
L 345.068557 248.794532 
L 345.999333 359.276273 
L 346.464721 287.923482 
L 346.930108 308.638809 
L 347.395496 237.286018 
L 347.860884 333.957541 
L 348.326272 193.553662 
L 348.79166 262.60475 
L 349.257048 278.71667 
L 349.722435 310.940512 
L 350.187823 278.71667 
L 350.653211 356.97457 
L 351.118599 112.994059 
L 351.583987 228.079206 
L 352.049374 262.60475 
L 352.514762 281.018373 
L 352.98015 211.967285 
L 353.445538 343.164353 
L 353.910926 304.035403 
L 354.376314 202.760473 
L 354.841701 262.60475 
L 355.307089 202.760473 
L 355.772477 350.069462 
L 356.237865 269.509859 
L 356.703253 239.587721 
L 357.168641 310.940512 
L 357.634028 239.587721 
L 358.099416 308.638809 
L 358.564804 324.750729 
L 359.030192 310.940512 
L 359.49558 71.563406 
L 359.960967 322.449026 
L 360.426355 308.638809 
L 360.891743 211.967285 
L 361.357131 304.035403 
L 361.822519 345.466056 
L 362.753294 188.950256 
L 363.218682 186.648553 
L 363.68407 211.967285 
L 364.149458 209.665582 
L 364.614846 297.130294 
L 365.080234 246.492829 
L 365.545621 251.096235 
L 366.011009 338.560947 
L 366.476397 335.108393 
L 366.941785 329.354135 
L 367.407173 239.587721 
L 367.87256 221.174097 
L 368.337948 175.140038 
L 368.803336 223.4758 
L 369.268724 202.760473 
L 369.734112 347.767759 
L 370.1995 301.7337 
L 370.664887 350.069462 
L 371.130275 214.268988 
L 372.061051 301.7337 
L 372.526439 324.750729 
L 372.991827 214.268988 
L 373.457214 301.7337 
L 373.922602 329.354135 
L 374.38799 269.509859 
L 374.853378 239.587721 
L 375.318766 248.794532 
L 375.784153 255.699641 
L 376.249541 356.97457 
L 376.714929 239.587721 
L 377.180317 281.018373 
L 377.645705 198.157068 
L 378.111093 342.013501 
L 378.57648 188.950256 
L 379.041868 343.164353 
L 379.507256 244.191126 
L 379.972644 253.397938 
L 380.438032 324.750729 
L 380.90342 198.157068 
L 381.834195 352.371165 
L 382.299583 191.251959 
L 382.764971 281.018373 
L 383.230359 258.001344 
L 383.695746 159.028118 
L 384.161134 306.337106 
L 384.626522 205.062176 
L 385.09191 274.113265 
L 385.557298 324.750729 
L 386.022686 340.86265 
L 386.488073 234.984315 
L 386.953461 228.079206 
L 387.418849 193.553662 
L 387.884237 251.096235 
L 388.349625 262.60475 
L 388.815013 283.320076 
L 389.2804 260.303047 
L 389.745788 262.60475 
L 390.211176 281.018373 
L 390.676564 320.147323 
L 391.141952 343.164353 
L 391.607339 287.923482 
L 392.072727 214.268988 
L 392.538115 244.191126 
L 393.003503 195.855365 
L 393.468891 262.60475 
L 393.934279 209.665582 
L 394.399666 352.371165 
L 394.865054 239.587721 
L 395.330442 338.100606 
L 395.79583 281.018373 
L 396.261218 198.157068 
L 396.726606 209.665582 
L 397.191993 209.665582 
L 397.657381 262.60475 
L 398.122769 253.397938 
L 398.588157 350.069462 
L 399.053545 281.018373 
L 399.518932 343.164353 
L 400.449708 211.967285 
L 400.915096 221.174097 
L 401.380484 308.638809 
L 401.845872 258.001344 
L 402.311259 313.242215 
L 402.776647 198.157068 
L 403.242035 239.587721 
L 403.707423 320.147323 
L 404.172811 198.157068 
L 404.638198 274.113265 
L 405.103586 244.191126 
L 405.568974 301.7337 
L 406.034362 159.028118 
L 406.49975 230.380909 
L 407.430525 336.259244 
L 407.895913 329.354135 
L 408.361301 274.113265 
L 408.826689 306.337106 
L 409.292077 354.672868 
L 409.757465 333.957541 
L 410.222852 331.655838 
L 410.68824 193.553662 
L 411.153628 188.950256 
L 411.619016 313.242215 
L 412.084404 356.97457 
L 412.549791 343.164353 
L 413.015179 299.431997 
L 413.480567 343.164353 
L 413.945955 234.984315 
L 414.411343 239.587721 
L 414.876731 278.71667 
L 415.342118 241.889423 
L 415.807506 269.509859 
L 416.272894 202.760473 
L 416.738282 262.60475 
L 417.20367 234.984315 
L 417.669058 343.164353 
L 418.134445 191.251959 
L 418.599833 267.208156 
L 419.065221 198.157068 
L 419.530609 329.354135 
L 419.995997 198.157068 
L 420.461384 324.750729 
L 420.926772 324.750729 
L 421.39216 333.957541 
L 421.857548 329.354135 
L 422.322936 216.570691 
L 422.788324 207.363879 
L 423.253711 241.889423 
L 423.719099 308.638809 
L 424.184487 320.147323 
L 424.649875 343.164353 
L 425.115263 331.655838 
L 425.580651 258.001344 
L 426.046038 202.760473 
L 426.511426 354.672868 
L 427.442202 251.096235 
L 427.90759 253.397938 
L 428.372977 329.354135 
L 428.838365 239.587721 
L 429.303753 297.130294 
L 429.769141 313.242215 
L 430.234529 262.60475 
L 430.699917 191.251959 
L 431.165304 89.977029 
L 431.630692 244.191126 
L 432.09608 251.096235 
L 432.561468 202.760473 
L 433.026856 302.884551 
L 433.492244 253.397938 
L 433.957631 327.052432 
L 434.423019 274.113265 
L 434.888407 253.397938 
L 435.353795 343.164353 
L 436.28457 159.028118 
L 436.749958 283.320076 
L 437.215346 237.286018 
L 437.680734 207.363879 
L 438.61151 262.60475 
L 439.076897 278.71667 
L 439.542285 230.380909 
L 440.007673 251.096235 
L 440.473061 283.320076 
L 440.938449 239.587721 
L 441.403837 262.60475 
L 441.869224 264.906453 
L 442.334612 301.7337 
L 442.8 255.699641 
L 443.265388 337.410095 
L 443.730776 94.580435 
L 444.196163 239.587721 
L 444.661551 230.380909 
L 445.126939 308.638809 
L 445.592327 193.553662 
L 446.057715 239.587721 
L 446.523103 262.60475 
L 446.98849 225.777503 
L 447.453878 304.035403 
L 447.919266 239.587721 
L 448.384654 251.096235 
L 448.850042 191.251959 
L 449.780817 337.410095 
L 450.246205 117.597465 
L 450.711593 262.60475 
L 451.176981 232.682612 
L 451.642369 327.052432 
L 452.107756 310.940512 
L 452.573144 269.509859 
L 453.038532 202.760473 
L 453.50392 251.096235 
L 453.969308 248.794532 
L 454.434696 274.113265 
L 454.900083 202.760473 
L 455.365471 352.371165 
L 455.830859 211.967285 
L 456.296247 253.397938 
L 456.761635 253.397938 
L 457.227023 209.665582 
L 457.69241 207.363879 
L 458.157798 283.320076 
L 458.623186 306.337106 
L 459.088574 184.34685 
L 459.553962 253.397938 
L 460.019349 262.60475 
L 460.484737 336.259244 
L 460.950125 354.672868 
L 461.415513 343.164353 
L 462.811676 343.164353 
L 463.277064 117.597465 
L 463.742452 301.7337 
L 464.20784 221.174097 
L 464.673228 251.096235 
L 465.138616 351.220313 
L 465.604003 292.526888 
L 466.069391 251.096235 
L 466.534779 262.60475 
L 467.000167 253.397938 
L 468.39633 260.303047 
L 468.861718 301.7337 
L 469.327106 359.276273 
L 469.792494 323.599878 
L 470.257882 347.767759 
L 470.723269 333.957541 
L 471.188657 343.164353 
L 471.654045 195.855365 
L 472.584821 258.001344 
L 473.050209 361.577976 
L 473.515596 258.001344 
L 473.980984 343.164353 
L 474.446372 253.397938 
L 474.91176 239.587721 
L 475.377148 301.7337 
L 475.842535 221.174097 
L 476.307923 347.767759 
L 476.773311 262.60475 
L 477.238699 234.984315 
L 477.704087 239.587721 
L 478.169475 195.855365 
L 478.634862 310.940512 
L 479.10025 241.889423 
L 479.565638 251.096235 
L 480.031026 258.001344 
L 480.496414 333.957541 
L 480.961802 306.337106 
L 481.427189 343.164353 
L 481.892577 331.655838 
L 482.357965 253.397938 
L 482.823353 239.587721 
L 483.288741 253.397938 
L 483.754128 253.397938 
L 484.219516 246.492829 
L 484.684904 117.597465 
L 485.150292 312.091363 
L 485.61568 76.166812 
L 486.081068 262.60475 
L 486.546455 258.001344 
L 487.011843 136.011088 
L 487.477231 211.967285 
L 487.942619 309.78966 
L 488.408007 308.638809 
L 488.873394 253.397938 
L 489.338782 239.587721 
L 489.80417 258.001344 
L 490.269558 258.001344 
L 490.734946 274.113265 
L 491.200334 241.889423 
L 491.665721 188.950256 
L 492.131109 304.035403 
L 492.596497 251.096235 
L 493.061885 343.164353 
L 493.527273 262.60475 
L 493.992661 239.587721 
L 494.458048 239.587721 
L 494.923436 234.984315 
L 495.388824 262.60475 
L 495.854212 324.750729 
L 496.3196 258.001344 
L 496.784987 253.397938 
L 497.250375 313.242215 
L 498.181151 327.052432 
L 498.646539 239.587721 
L 499.111927 207.363879 
L 499.577314 211.967285 
L 500.042702 306.337106 
L 500.50809 281.018373 
L 500.973478 225.777503 
L 501.438866 248.794532 
L 501.904254 258.001344 
L 502.369641 262.60475 
L 502.835029 239.587721 
L 503.300417 333.957541 
L 503.765805 347.767759 
L 504.231193 347.767759 
L 504.69658 260.303047 
L 505.161968 283.320076 
L 505.627356 239.587721 
L 506.092744 347.767759 
L 506.558132 320.147323 
L 507.02352 253.397938 
L 507.488907 329.354135 
L 507.954295 228.079206 
L 508.419683 253.397938 
L 508.885071 343.164353 
L 509.350459 304.035403 
L 509.815847 244.191126 
L 510.281234 221.174097 
L 510.746622 258.001344 
L 511.21201 253.397938 
L 511.677398 221.174097 
L 512.142786 304.035403 
L 512.608173 207.363879 
L 513.538949 343.164353 
L 514.004337 324.750729 
L 514.469725 274.113265 
L 514.935113 239.587721 
L 515.4005 352.371165 
L 515.865888 352.371165 
L 516.331276 258.001344 
L 516.796664 343.164353 
L 517.262052 241.889423 
L 517.72744 343.164353 
L 518.192827 258.001344 
L 518.658215 274.113265 
L 519.123603 262.60475 
L 519.588991 99.183841 
L 520.054379 262.60475 
L 520.519766 343.164353 
L 520.985154 244.191126 
L 521.450542 195.855365 
L 521.91593 221.174097 
L 522.381318 253.397938 
L 522.846706 253.397938 
L 523.312093 237.286018 
L 523.777481 322.449026 
L 524.242869 361.577976 
L 524.708257 188.950256 
L 525.173645 230.380909 
L 525.639033 244.191126 
L 526.10442 193.553662 
L 526.569808 336.259244 
L 527.035196 343.164353 
L 527.500584 317.84562 
L 527.965972 244.191126 
L 528.431359 310.940512 
L 528.896747 264.906453 
L 529.362135 244.191126 
L 529.827523 89.977029 
L 530.292911 329.354135 
L 530.758299 327.052432 
L 531.223686 262.60475 
L 531.689074 329.354135 
L 532.154462 343.164353 
L 532.61985 218.872394 
L 533.085238 301.7337 
L 533.550626 198.157068 
L 534.016013 200.458771 
L 534.481401 258.001344 
L 534.946789 343.164353 
L 535.412177 216.570691 
L 535.877565 232.682612 
L 536.342952 195.855365 
L 536.80834 244.191126 
L 537.273728 310.940512 
L 537.739116 251.096235 
L 538.204504 262.60475 
L 538.669892 244.191126 
L 539.135279 188.950256 
L 539.600667 306.337106 
L 540.066055 333.957541 
L 540.531443 253.397938 
L 540.996831 351.220313 
L 541.462219 281.018373 
L 541.927606 306.337106 
L 542.392994 202.760473 
L 542.858382 285.621779 
L 543.32377 338.560947 
L 543.789158 232.682612 
L 544.254545 241.889423 
L 544.719933 338.560947 
L 545.185321 262.60475 
L 545.650709 239.587721 
L 546.116097 329.354135 
L 546.581485 251.096235 
L 547.046872 336.259244 
L 547.51226 89.977029 
L 547.977648 136.011088 
L 548.443036 324.750729 
L 548.908424 322.449026 
L 549.373812 333.957541 
L 549.839199 322.449026 
L 550.304587 262.60475 
L 550.769975 313.242215 
L 551.235363 246.492829 
L 551.700751 89.977029 
L 552.166138 333.957541 
L 552.631526 255.699641 
L 553.096914 331.655838 
L 553.562302 239.587721 
L 554.02769 255.699641 
L 554.493078 322.449026 
L 554.958465 262.60475 
L 555.423853 329.354135 
L 555.889241 244.191126 
L 556.354629 211.967285 
L 556.820017 221.174097 
L 557.285405 159.028118 
L 557.750792 211.967285 
L 558.21618 193.553662 
L 558.681568 230.380909 
L 559.146956 258.001344 
L 559.612344 221.174097 
L 560.077731 278.71667 
L 560.543119 198.157068 
L 561.008507 262.60475 
L 561.473895 347.767759 
L 561.939283 195.855365 
L 562.404671 112.994059 
L 562.870058 315.543918 
L 563.335446 301.7337 
L 563.800834 258.001344 
L 564.266222 198.157068 
L 564.73161 239.587721 
L 565.196997 99.183841 
L 565.662385 253.397938 
L 566.127773 343.164353 
L 566.593161 244.191126 
L 567.058549 188.950256 
L 567.523937 239.587721 
L 567.989324 313.242215 
L 568.454712 258.001344 
L 569.385488 343.164353 
L 569.850876 302.884551 
L 570.316264 338.560947 
L 570.781651 195.855365 
L 571.247039 198.157068 
L 571.712427 327.052432 
L 572.177815 195.855365 
L 572.643203 333.957541 
L 573.10859 317.84562 
L 573.573978 211.967285 
L 574.039366 262.60475 
L 574.504754 343.164353 
L 574.970142 262.60475 
L 575.900917 191.251959 
L 576.366305 207.363879 
L 576.831693 253.397938 
L 577.297081 317.84562 
L 577.762469 76.166812 
L 578.227857 262.60475 
L 578.693244 255.699641 
L 579.158632 255.699641 
L 579.62402 327.052432 
L 580.089408 333.957541 
L 580.554796 239.587721 
L 581.020183 313.242215 
L 581.485571 339.711798 
L 581.950959 339.711798 
L 582.416347 329.354135 
L 582.881735 331.655838 
L 583.347123 343.164353 
L 583.81251 258.001344 
L 584.277898 221.174097 
L 584.743286 239.587721 
L 585.674062 327.052432 
L 586.13945 198.157068 
L 586.604837 361.577976 
L 587.070225 239.587721 
L 587.535613 241.889423 
L 588.001001 239.587721 
L 588.466389 264.906453 
L 588.931776 228.079206 
L 589.397164 251.096235 
L 589.862552 237.286018 
L 590.32794 329.354135 
L 590.793328 292.526888 
L 591.258716 159.028118 
L 591.724103 313.242215 
L 592.189491 281.018373 
L 592.654879 354.672868 
L 593.120267 179.743444 
L 593.585655 320.147323 
L 594.051043 281.018373 
L 594.51643 262.60475 
L 594.981818 315.543918 
L 595.447206 310.940512 
L 595.912594 283.320076 
L 596.377982 343.164353 
L 597.308757 149.821306 
L 597.774145 301.7337 
L 598.239533 244.191126 
L 598.704921 350.069462 
L 599.170309 281.018373 
L 599.635696 186.648553 
L 600.101084 335.108393 
L 600.566472 149.821306 
L 601.03186 221.174097 
L 601.497248 258.001344 
L 601.962636 281.018373 
L 602.428023 264.906453 
L 602.893411 198.157068 
L 603.358799 276.414968 
L 603.824187 306.337106 
L 604.289575 248.794532 
L 604.754962 337.410095 
L 605.22035 347.767759 
L 605.685738 333.957541 
L 606.151126 239.587721 
L 606.616514 281.018373 
L 607.081902 283.320076 
L 607.547289 262.60475 
L 608.012677 324.750729 
L 608.478065 241.889423 
L 608.943453 241.889423 
L 609.408841 320.147323 
L 610.339616 214.268988 
L 610.805004 198.157068 
L 611.270392 333.957541 
L 611.73578 239.587721 
L 612.201168 255.699641 
L 612.666555 221.174097 
L 613.131943 260.303047 
L 613.597331 278.71667 
L 614.062719 329.354135 
L 614.528107 251.096235 
L 614.993495 253.397938 
L 615.458882 329.354135 
L 615.92427 221.174097 
L 616.389658 258.001344 
L 616.855046 329.354135 
L 617.320434 339.711798 
L 617.785822 241.889423 
L 618.251209 337.410095 
L 618.716597 198.157068 
L 619.181985 198.157068 
L 619.647373 304.035403 
L 620.112761 262.60475 
L 620.578148 209.665582 
L 621.043536 260.303047 
L 621.508924 237.286018 
L 621.974312 281.018373 
L 622.4397 193.553662 
L 622.905088 333.957541 
L 623.370475 248.794532 
L 623.835863 258.001344 
L 624.301251 262.60475 
L 624.766639 85.373624 
L 625.232027 331.655838 
L 625.697415 331.655838 
L 626.162802 262.60475 
L 626.62819 283.320076 
L 627.093578 354.672868 
L 627.558966 343.164353 
L 628.024354 327.052432 
L 628.489741 221.174097 
L 628.955129 281.018373 
L 629.420517 306.337106 
L 629.885905 345.466056 
L 630.351293 230.380909 
L 630.816681 258.001344 
L 631.282068 255.699641 
L 632.212844 198.157068 
L 632.678232 343.164353 
L 633.14362 361.577976 
L 633.609008 179.743444 
L 634.074395 348.91861 
L 634.539783 76.166812 
L 635.005171 234.984315 
L 635.470559 246.492829 
L 635.935947 343.164353 
L 636.401334 262.60475 
L 636.866722 239.587721 
L 637.33211 255.699641 
L 637.797498 354.672868 
L 638.262886 262.60475 
L 638.728274 239.587721 
L 639.193661 172.838335 
L 639.659049 301.7337 
L 640.124437 281.018373 
L 640.589825 94.580435 
L 641.055213 241.889423 
L 641.520601 347.767759 
L 641.985988 258.001344 
L 642.916764 209.665582 
L 643.382152 278.71667 
L 643.84754 320.147323 
L 644.312927 320.147323 
L 644.778315 234.984315 
L 645.243703 329.354135 
L 645.709091 234.984315 
L 646.174479 274.113265 
L 646.639867 184.34685 
L 647.105254 262.60475 
L 647.570642 264.906453 
L 648.03603 258.001344 
L 648.501418 184.34685 
L 648.966806 260.303047 
L 649.432193 188.950256 
L 649.897581 239.587721 
L 650.362969 304.035403 
L 650.828357 211.967285 
L 651.293745 216.570691 
L 651.759133 317.84562 
L 652.22452 234.984315 
L 652.689908 211.967285 
L 653.155296 258.001344 
L 654.086072 230.380909 
L 654.55146 262.60475 
L 655.016847 354.672868 
L 655.482235 306.337106 
L 655.947623 343.164353 
L 656.413011 258.001344 
L 656.878399 260.303047 
L 657.343786 239.587721 
L 657.809174 241.889423 
L 658.274562 239.587721 
L 658.73995 327.052432 
L 659.670726 211.967285 
L 660.601501 251.096235 
L 661.066889 244.191126 
L 661.532277 324.750729 
L 661.997665 241.889423 
L 662.463053 239.587721 
L 662.92844 191.251959 
L 664.324604 324.750729 
L 664.789992 315.543918 
L 665.255379 310.940512 
L 665.720767 258.001344 
L 666.186155 221.174097 
L 666.651543 260.303047 
L 667.116931 239.587721 
L 667.582319 339.711798 
L 668.047706 337.410095 
L 668.513094 262.60475 
L 668.978482 221.174097 
L 669.44387 239.587721 
L 669.909258 253.397938 
L 670.374646 327.052432 
L 670.840033 230.380909 
L 671.305421 338.560947 
L 671.770809 262.60475 
L 672.236197 352.371165 
L 672.701585 258.001344 
L 673.166972 345.466056 
L 673.63236 230.380909 
L 674.097748 179.743444 
L 675.493912 358.125422 
L 675.959299 241.889423 
L 676.424687 211.967285 
L 676.890075 322.449026 
L 677.355463 306.337106 
L 677.820851 297.130294 
L 678.286239 333.957541 
L 678.751626 262.60475 
L 679.217014 244.191126 
L 679.682402 202.760473 
L 680.14779 338.560947 
L 680.613178 241.889423 
L 681.078565 356.97457 
L 682.009341 89.977029 
L 682.474729 301.7337 
L 682.940117 267.208156 
L 683.405505 361.577976 
L 683.870892 329.354135 
L 684.33628 159.028118 
L 684.801668 312.091363 
L 685.267056 253.397938 
L 685.732444 223.4758 
L 686.197832 262.60475 
L 686.663219 200.458771 
L 687.128607 191.251959 
L 687.593995 262.60475 
L 688.059383 230.380909 
L 688.524771 343.164353 
L 688.990158 211.967285 
L 689.455546 211.967285 
L 689.920934 262.60475 
L 690.386322 237.286018 
L 691.317098 241.889423 
L 691.782485 351.220313 
L 692.247873 343.164353 
L 692.713261 253.397938 
L 693.178649 351.220313 
L 693.644037 292.526888 
L 694.109425 262.60475 
L 694.574812 205.062176 
L 695.0402 327.052432 
L 695.505588 354.672868 
L 695.970976 66.96 
L 696.436364 281.018373 
L 696.901751 262.60475 
L 697.367139 230.380909 
L 697.832527 228.079206 
L 698.297915 253.397938 
L 698.763303 193.553662 
L 699.228691 354.672868 
L 699.694078 262.60475 
L 700.159466 258.001344 
L 700.624854 287.923482 
L 701.090242 241.889423 
L 701.55563 267.208156 
L 702.021018 260.303047 
L 702.486405 262.60475 
L 702.951793 315.543918 
L 703.417181 345.466056 
L 703.882569 239.587721 
L 704.347957 331.655838 
L 704.813344 228.079206 
L 705.278732 193.553662 
L 705.74412 345.466056 
L 706.209508 329.354135 
L 706.674896 195.855365 
L 707.140284 281.018373 
L 707.605671 260.303047 
L 708.071059 315.543918 
L 708.536447 230.380909 
L 709.001835 179.743444 
L 709.467223 258.001344 
L 709.932611 239.587721 
L 710.397998 269.509859 
L 710.863386 331.655838 
L 711.328774 347.767759 
L 711.794162 260.303047 
L 712.25955 195.855365 
L 712.724937 301.7337 
L 713.655713 136.011088 
L 714.121101 262.60475 
L 714.586489 343.164353 
L 715.051877 232.682612 
L 715.517264 354.672868 
L 715.982652 320.147323 
L 716.44804 239.587721 
L 716.913428 315.543918 
L 717.378816 239.587721 
L 717.844204 352.371165 
L 718.309591 333.957541 
L 718.774979 301.7337 
L 719.240367 324.750729 
L 719.705755 327.052432 
L 720.171143 260.303047 
L 720.63653 108.390653 
L 721.101918 177.441741 
L 721.567306 338.560947 
L 722.032694 301.7337 
L 722.498082 179.743444 
L 723.428857 333.957541 
L 723.894245 306.337106 
L 724.825021 211.967285 
L 725.290409 343.164353 
L 725.755796 258.001344 
L 726.221184 343.164353 
L 726.686572 198.157068 
L 727.15196 276.414968 
L 727.617348 221.174097 
L 728.082736 205.062176 
L 728.548123 255.699641 
L 729.013511 283.320076 
L 729.478899 354.672868 
L 729.944287 232.682612 
L 730.409675 329.354135 
L 730.875063 338.560947 
L 731.34045 177.441741 
L 731.805838 301.7337 
L 732.271226 327.052432 
L 732.736614 331.655838 
L 733.202002 253.397938 
L 733.667389 262.60475 
L 734.132777 262.60475 
L 734.598165 258.001344 
L 735.063553 302.884551 
L 735.528941 253.397938 
L 735.994329 343.164353 
L 736.459716 345.466056 
L 736.925104 237.286018 
L 737.390492 198.157068 
L 737.85588 343.164353 
L 738.321268 262.60475 
L 738.786656 352.371165 
L 739.252043 329.354135 
L 739.717431 211.967285 
L 740.182819 347.767759 
L 740.648207 283.320076 
L 741.113595 290.225185 
L 741.578982 343.164353 
L 742.04437 306.337106 
L 742.509758 281.018373 
L 742.975146 347.767759 
L 743.440534 320.147323 
L 743.905922 241.889423 
L 744.371309 351.220313 
L 744.836697 350.069462 
L 745.302085 329.354135 
L 745.767473 159.028118 
L 746.232861 322.449026 
L 746.698249 350.069462 
L 747.163636 264.906453 
L 747.163636 264.906453 
" clip-path="url(#p16729a34f0)" style="fill: none; stroke: #1f77b4; stroke-width: 1.5; stroke-linecap: square"/>
   </g>
   <g id="line2d_16">
    <path d="M 138.436364 337.45836 
L 138.901751 342.605842 
L 139.367139 315.999438 
L 139.832527 271.437387 
L 140.297915 298.98172 
L 140.763303 355.83631 
L 141.228691 339.500397 
L 141.694078 335.739848 
L 142.159466 350.134624 
L 142.624854 323.616657 
L 143.090242 356.600554 
L 143.55563 322.226596 
L 144.021018 345.391244 
L 144.486405 317.553667 
L 144.951793 313.836283 
L 145.417181 321.346154 
L 145.882569 310.152646 
L 146.347957 318.53419 
L 146.813344 322.103131 
L 147.278732 316.810499 
L 147.74412 268.917327 
L 148.209508 302.473666 
L 148.674896 311.617716 
L 149.140284 331.02496 
L 149.605671 324.714179 
L 150.071059 283.207223 
L 150.536447 296.498067 
L 151.001835 346.329076 
L 151.467223 328.542345 
L 151.932611 328.129899 
L 152.397998 331.800308 
L 152.863386 308.650244 
L 153.328774 292.604036 
L 153.794162 291.39039 
L 154.25955 317.036585 
L 154.724937 331.061298 
L 155.190325 314.472909 
L 155.655713 284.572282 
L 156.121101 305.497658 
L 156.586489 295.811148 
L 157.051877 283.21413 
L 157.517264 292.221513 
L 157.982652 335.674979 
L 158.44804 331.297781 
L 158.913428 294.980636 
L 159.378816 324.821507 
L 159.844204 281.174029 
L 160.774979 321.422762 
L 161.240367 300.091209 
L 161.705755 319.582812 
L 162.171143 289.884534 
L 162.63653 340.671294 
L 163.101918 319.270719 
L 163.567306 335.949674 
L 164.032694 329.041135 
L 164.498082 312.746759 
L 164.96347 337.453211 
L 165.428857 334.429624 
L 165.894245 307.515091 
L 166.359633 257.481094 
L 166.825021 337.121139 
L 167.290409 294.533886 
L 167.755796 303.943916 
L 168.221184 310.97562 
L 169.617348 285.978858 
L 170.082736 345.230679 
L 170.548123 279.084536 
L 171.013511 308.576973 
L 171.478899 328.460057 
L 171.944287 324.937368 
L 172.409675 329.300019 
L 172.875063 301.161333 
L 173.34045 291.53392 
L 173.805838 298.439802 
L 174.271226 346.748817 
L 174.736614 336.755723 
L 175.202002 350.352143 
L 175.667389 332.012328 
L 176.132777 307.338708 
L 176.598165 293.786122 
L 177.063553 349.051512 
L 177.528941 319.553892 
L 177.994329 352.081718 
L 178.459716 294.321606 
L 178.925104 313.095233 
L 179.390492 319.239786 
L 179.85588 300.955906 
L 180.321268 289.933206 
L 180.786656 333.089532 
L 181.252043 312.030854 
L 181.717431 308.353505 
L 182.182819 318.430811 
L 182.648207 316.502851 
L 183.113595 345.368321 
L 183.578982 328.378675 
L 184.04437 348.569664 
L 184.509758 321.547508 
L 184.975146 343.227069 
L 185.440534 303.565807 
L 185.905922 305.838713 
L 186.836697 345.651063 
L 187.302085 306.392583 
L 187.767473 353.404095 
L 188.698249 276.260265 
L 189.163636 346.751109 
L 189.629024 311.870046 
L 190.094412 327.261358 
L 190.5598 294.872545 
L 191.490575 319.320192 
L 191.955963 295.620757 
L 192.421351 317.028818 
L 192.886739 344.71054 
L 193.352127 348.164197 
L 193.817515 309.727495 
L 194.282902 323.616122 
L 194.74829 315.066987 
L 195.213678 340.777732 
L 195.679066 348.903911 
L 196.144454 322.445229 
L 196.609842 310.606481 
L 197.075229 308.025422 
L 197.540617 285.161277 
L 198.006005 320.020565 
L 198.471393 319.024924 
L 198.936781 329.851426 
L 199.402168 352.510234 
L 200.798332 333.169714 
L 201.26372 290.767179 
L 201.729108 304.125987 
L 202.194495 345.483038 
L 202.659883 325.298048 
L 203.125271 331.058448 
L 203.590659 335.35222 
L 204.056047 320.064428 
L 204.521435 345.693647 
L 204.986822 313.724797 
L 205.45221 308.001044 
L 205.917598 306.832419 
L 206.382986 343.988581 
L 206.848374 340.025877 
L 207.313761 301.53185 
L 207.779149 320.203665 
L 208.244537 295.529716 
L 208.709925 307.272231 
L 209.175313 334.30181 
L 209.640701 289.257963 
L 210.106088 300.465656 
L 210.571476 329.455361 
L 211.036864 317.037219 
L 211.502252 285.24202 
L 211.96764 336.209642 
L 212.433028 324.78803 
L 212.898415 285.843938 
L 213.363803 298.814706 
L 213.829191 323.132005 
L 214.294579 339.435554 
L 214.759967 294.092919 
L 215.225354 280.991126 
L 215.690742 308.066057 
L 216.15613 315.42762 
L 216.621518 300.969231 
L 217.086906 354.870531 
L 217.552294 325.54049 
L 218.017681 338.478538 
L 218.483069 301.24803 
L 218.948457 334.714377 
L 219.413845 309.277473 
L 219.879233 345.710211 
L 220.344621 317.112798 
L 220.810008 324.081483 
L 221.275396 306.412153 
L 221.740784 339.09957 
L 222.206172 353.452386 
L 222.67156 336.88391 
L 223.136947 261.140353 
L 223.602335 352.261864 
L 224.067723 316.500226 
L 224.533111 318.252538 
L 224.998499 298.478973 
L 225.463887 317.764917 
L 225.929274 312.195561 
L 226.394662 323.843721 
L 226.86005 318.964351 
L 227.325438 331.611408 
L 227.790826 299.023981 
L 228.256214 323.012551 
L 228.721601 321.453118 
L 229.186989 326.321342 
L 229.652377 311.762342 
L 230.117765 322.415829 
L 230.583153 321.846412 
L 231.04854 305.459148 
L 231.513928 333.188971 
L 231.979316 299.974144 
L 232.444704 331.194205 
L 232.910092 311.43544 
L 233.37548 325.334056 
L 233.840867 344.647752 
L 234.771643 316.035965 
L 235.237031 309.073424 
L 235.702419 332.572608 
L 236.167807 318.779369 
L 236.633194 321.910794 
L 237.098582 288.817655 
L 237.56397 322.109446 
L 238.029358 339.874818 
L 238.494746 350.472702 
L 238.960133 337.337954 
L 239.425521 303.51353 
L 239.890909 291.963427 
L 240.356297 307.537081 
L 240.821685 312.018334 
L 241.287073 305.171968 
L 241.75246 295.340611 
L 242.217848 323.110913 
L 242.683236 313.940328 
L 243.614012 344.487552 
L 244.079399 296.280956 
L 244.544787 346.073053 
L 245.010175 331.542705 
L 245.475563 335.405493 
L 245.940951 336.549562 
L 246.406339 303.71303 
L 246.871726 312.181674 
L 247.337114 351.387384 
L 247.802502 350.617499 
L 248.26789 339.957021 
L 248.733278 340.11914 
L 249.198666 315.415836 
L 249.664053 307.068751 
L 250.129441 311.480794 
L 250.594829 298.623696 
L 251.060217 346.771461 
L 251.525605 329.690772 
L 251.990992 317.774894 
L 252.45638 312.542579 
L 252.921768 348.97304 
L 253.387156 366.914438 
L 254.317932 306.535134 
L 254.783319 311.762183 
L 255.248707 332.113055 
L 255.714095 317.51613 
L 256.179483 337.879013 
L 256.644871 323.641825 
L 257.110259 296.022691 
L 257.575646 312.493342 
L 258.506422 325.735522 
L 258.97181 290.772731 
L 259.437198 302.94109 
L 259.902585 344.212671 
L 260.367973 311.025945 
L 260.833361 309.101129 
L 261.298749 293.024468 
L 261.764137 353.604924 
L 262.694912 252.270676 
L 263.1603 300.781071 
L 263.625688 330.823737 
L 264.091076 297.821399 
L 264.556464 341.58741 
L 265.021852 272.623136 
L 265.487239 327.634365 
L 265.952627 333.280341 
L 266.418015 289.823961 
L 266.883403 332.711857 
L 267.814178 291.474137 
L 268.279566 294.520072 
L 268.744954 352.412503 
L 269.210342 337.221797 
L 269.67573 333.891109 
L 270.141118 316.24138 
L 270.606505 268.791249 
L 271.071893 287.651999 
L 271.537281 357.33822 
L 272.002669 301.716681 
L 272.468057 327.399112 
L 272.933445 282.421798 
L 273.398832 333.245583 
L 273.86422 316.022334 
L 274.329608 339.691217 
L 274.794996 320.00175 
L 275.260384 342.194351 
L 275.725771 311.867905 
L 276.191159 312.244822 
L 276.656547 279.966507 
L 277.121935 316.767205 
L 277.587323 343.792107 
L 278.052711 338.813111 
L 278.518098 325.928847 
L 279.448874 284.635541 
L 279.914262 323.177088 
L 280.37965 337.114401 
L 280.845038 297.123167 
L 281.310425 287.066829 
L 281.775813 309.546299 
L 282.241201 308.613318 
L 282.706589 330.904446 
L 283.171977 331.347611 
L 283.637364 335.376092 
L 284.102752 333.240441 
L 284.56814 312.062875 
L 285.033528 330.202249 
L 285.498916 323.966771 
L 285.964304 313.535293 
L 286.429691 297.873494 
L 286.895079 347.274214 
L 287.360467 352.614396 
L 287.825855 329.490336 
L 288.291243 335.935358 
L 288.756631 299.081457 
L 289.222018 323.034959 
L 289.687406 305.257717 
L 290.152794 299.110554 
L 291.08357 360.427289 
L 291.548957 328.827241 
L 292.014345 334.949094 
L 292.479733 354.912381 
L 292.945121 326.906969 
L 293.410509 309.817711 
L 293.875897 339.046478 
L 294.341284 307.506988 
L 294.806672 325.938065 
L 295.27206 333.34775 
L 295.737448 310.792605 
L 296.202836 356.01942 
L 296.668224 344.514166 
L 297.133611 366.27394 
L 297.598999 275.336048 
L 298.064387 322.291342 
L 298.529775 299.326984 
L 298.995163 333.457793 
L 299.46055 332.019188 
L 299.925938 288.651469 
L 300.391326 306.115875 
L 300.856714 333.029811 
L 301.322102 348.761159 
L 301.78749 313.120691 
L 302.252877 304.265955 
L 302.718265 346.190071 
L 303.183653 321.975796 
L 303.649041 310.842233 
L 304.114429 290.548132 
L 304.579817 318.223394 
L 305.045204 321.149697 
L 305.510592 315.222701 
L 305.97598 285.332952 
L 306.441368 324.805351 
L 306.906756 337.830955 
L 307.372143 292.642704 
L 307.837531 338.034518 
L 308.302919 283.074161 
L 308.768307 304.61413 
L 309.233695 332.930214 
L 309.699083 300.727916 
L 310.16447 300.852259 
L 310.629858 324.965544 
L 311.095246 316.954498 
L 312.026022 344.486454 
L 312.956797 307.29472 
L 313.422185 317.393939 
L 313.887573 294.918762 
L 314.352961 329.890326 
L 314.818349 338.191799 
L 315.283736 317.671712 
L 315.749124 353.656789 
L 316.214512 341.81809 
L 316.6799 303.802194 
L 317.145288 331.536375 
L 317.610676 300.757354 
L 318.076063 336.731493 
L 318.541451 343.046309 
L 319.006839 293.171537 
L 319.472227 338.79159 
L 319.937615 332.622852 
L 320.403003 334.940437 
L 320.86839 339.54908 
L 321.333778 328.017275 
L 321.799166 339.68444 
L 322.264554 322.417455 
L 322.729942 321.813044 
L 323.195329 301.106497 
L 323.660717 329.813149 
L 324.591493 303.460135 
L 325.056881 365.451735 
L 325.522269 312.353095 
L 325.987656 320.8311 
L 326.453044 304.443755 
L 326.918432 270.916259 
L 327.38382 327.526224 
L 327.849208 302.122293 
L 328.314595 342.593889 
L 328.779983 335.867542 
L 329.245371 298.743773 
L 329.710759 345.726703 
L 330.176147 333.263508 
L 330.641535 330.243798 
L 331.106922 350.250405 
L 331.57231 345.041137 
L 332.037698 307.236107 
L 332.503086 324.480505 
L 332.968474 276.550585 
L 333.433862 318.8093 
L 333.899249 322.516192 
L 334.364637 345.922308 
L 334.830025 319.313514 
L 335.295413 300.346539 
L 335.760801 352.69771 
L 336.226188 331.019045 
L 336.691576 284.085903 
L 337.156964 306.927335 
L 337.622352 317.897011 
L 338.08774 350.046617 
L 338.553128 307.128503 
L 339.018515 324.339519 
L 339.483903 312.020823 
L 339.949291 335.554647 
L 340.414679 311.230226 
L 340.880067 323.575685 
L 341.345455 340.133507 
L 341.810842 344.498771 
L 342.27623 315.624643 
L 342.741618 316.482429 
L 343.207006 319.590303 
L 344.137781 341.650722 
L 344.603169 326.667493 
L 345.068557 303.504851 
L 345.533945 326.546324 
L 345.999333 334.662833 
L 346.464721 293.609452 
L 346.930108 304.545153 
L 347.395496 324.043643 
L 347.860884 322.597195 
L 348.326272 281.830062 
L 348.79166 339.370132 
L 349.257048 291.772154 
L 349.722435 308.073122 
L 350.187823 338.089728 
L 350.653211 322.500277 
L 351.118599 301.975697 
L 351.583987 308.076281 
L 352.049374 311.758238 
L 352.514762 341.951485 
L 352.98015 345.230516 
L 353.445538 297.970427 
L 353.910926 316.736353 
L 354.376314 319.590729 
L 354.841701 331.889084 
L 355.307089 324.535124 
L 355.772477 336.874743 
L 356.237865 304.947954 
L 356.703253 314.278817 
L 357.168641 344.376524 
L 357.634028 307.721354 
L 358.099416 324.865932 
L 358.564804 306.847084 
L 359.030192 342.283592 
L 359.49558 362.554882 
L 359.960967 319.414013 
L 360.891743 294.670641 
L 361.357131 311.970862 
L 361.822519 307.344163 
L 362.287907 349.786934 
L 362.753294 329.640931 
L 363.218682 332.168831 
L 363.68407 305.719411 
L 364.149458 322.765603 
L 364.614846 355.11537 
L 365.080234 341.566635 
L 365.545621 345.111796 
L 366.011009 308.686852 
L 366.476397 331.972808 
L 366.941785 290.329333 
L 367.407173 319.328275 
L 367.87256 250.631712 
L 368.803336 342.312076 
L 369.268724 326.63723 
L 369.734112 289.232504 
L 370.664887 335.637322 
L 371.130275 317.743783 
L 371.595663 337.786563 
L 372.061051 322.287258 
L 372.526439 322.133035 
L 372.991827 279.356467 
L 373.457214 287.085288 
L 373.922602 321.540129 
L 374.38799 336.70895 
L 374.853378 337.931148 
L 375.318766 273.816643 
L 375.784153 345.320938 
L 376.249541 323.98717 
L 376.714929 314.75681 
L 377.180317 344.771709 
L 377.645705 329.981294 
L 378.111093 333.272319 
L 378.57648 330.554524 
L 379.041868 314.951358 
L 379.507256 347.491696 
L 379.972644 341.149438 
L 380.438032 314.282073 
L 380.90342 318.165407 
L 381.368807 317.054722 
L 381.834195 302.853045 
L 382.299583 333.575853 
L 382.764971 298.467746 
L 383.230359 324.551136 
L 383.695746 344.249457 
L 384.161134 313.239537 
L 384.626522 338.14119 
L 385.09191 299.869359 
L 386.022686 333.310507 
L 386.488073 358.927642 
L 387.418849 308.648753 
L 387.884237 308.920231 
L 388.349625 293.575151 
L 388.815013 321.727992 
L 389.2804 327.222253 
L 389.745788 303.021496 
L 390.211176 314.402394 
L 390.676564 292.779421 
L 391.141952 309.399014 
L 391.607339 336.676174 
L 392.072727 338.610479 
L 393.003503 309.650085 
L 393.468891 315.713581 
L 393.934279 316.649776 
L 394.399666 306.313059 
L 394.865054 311.017378 
L 395.330442 308.772523 
L 395.79583 324.918038 
L 396.261218 325.50049 
L 396.726606 309.643012 
L 397.191993 297.962692 
L 397.657381 338.008707 
L 398.122769 285.488074 
L 398.588157 344.988738 
L 399.053545 275.325959 
L 399.518932 304.683592 
L 399.98432 322.757988 
L 400.449708 346.341308 
L 400.915096 328.530796 
L 401.380484 322.989195 
L 401.845872 345.189032 
L 402.311259 334.660099 
L 402.776647 312.755219 
L 403.242035 320.255306 
L 403.707423 322.542224 
L 404.172811 273.682412 
L 404.638198 276.54446 
L 405.103586 328.336774 
L 405.568974 339.272929 
L 406.034362 334.570529 
L 406.49975 317.192709 
L 406.965138 333.844988 
L 407.430525 319.151602 
L 407.895913 292.286755 
L 408.361301 340.838785 
L 408.826689 322.235628 
L 409.292077 319.000495 
L 409.757465 325.343417 
L 410.222852 305.794892 
L 410.68824 321.060216 
L 411.153628 313.290102 
L 411.619016 308.52031 
L 412.084404 316.108899 
L 413.015179 345.898392 
L 413.480567 300.789216 
L 413.945955 325.517323 
L 414.411343 344.24316 
L 414.876731 280.922075 
L 415.342118 333.656104 
L 415.807506 323.278408 
L 416.272894 347.104592 
L 417.20367 354.160352 
L 417.669058 321.99583 
L 418.134445 334.259596 
L 418.599833 333.473019 
L 419.065221 320.861247 
L 419.530609 355.812353 
L 419.995997 295.440634 
L 420.461384 326.049954 
L 420.926772 332.844423 
L 421.39216 331.228757 
L 421.857548 277.055213 
L 422.322936 307.078457 
L 422.788324 317.008536 
L 423.253711 316.907173 
L 423.719099 309.195975 
L 424.184487 305.787297 
L 424.649875 331.333441 
L 425.115263 322.818948 
L 425.580651 303.071194 
L 426.046038 329.982436 
L 426.511426 344.374225 
L 426.976814 338.950974 
L 427.442202 318.604786 
L 427.90759 338.839596 
L 428.372977 329.860884 
L 428.838365 342.707611 
L 429.303753 297.541966 
L 429.769141 330.116632 
L 430.234529 337.566993 
L 430.699917 327.135284 
L 431.165304 327.81925 
L 431.630692 331.611342 
L 432.09608 305.920215 
L 432.561468 317.969632 
L 433.026856 318.302627 
L 433.492244 330.37432 
L 433.957631 270.789314 
L 434.423019 329.656022 
L 434.888407 285.106658 
L 435.353795 303.224217 
L 435.819183 343.12782 
L 436.28457 303.004682 
L 436.749958 327.460177 
L 437.215346 305.531444 
L 437.680734 326.253855 
L 438.146122 298.746111 
L 438.61151 308.612474 
L 439.076897 345.950039 
L 439.542285 330.68205 
L 440.007673 338.376286 
L 440.473061 316.772253 
L 440.938449 270.985294 
L 441.403837 369.36 
L 441.869224 334.053493 
L 442.334612 343.829051 
L 442.8 341.004553 
L 443.265388 351.879378 
L 443.730776 298.109312 
L 444.196163 341.342273 
L 444.661551 303.791001 
L 445.126939 361.499804 
L 446.057715 293.19307 
L 446.523103 352.515584 
L 446.98849 286.319189 
L 447.453878 311.899755 
L 447.919266 315.726636 
L 448.384654 356.113265 
L 448.850042 289.383994 
L 449.31543 304.423364 
L 449.780817 328.048719 
L 450.246205 310.565815 
L 450.711593 343.089601 
L 451.176981 320.290068 
L 451.642369 329.517529 
L 452.107756 356.066779 
L 452.573144 321.038242 
L 453.038532 334.245147 
L 453.50392 320.314567 
L 453.969308 295.600246 
L 454.434696 297.939037 
L 454.900083 298.986954 
L 455.365471 310.368735 
L 455.830859 344.64222 
L 456.296247 329.123864 
L 456.761635 282.272995 
L 457.69241 323.779107 
L 458.157798 313.798099 
L 458.623186 340.573602 
L 459.088574 281.261748 
L 459.553962 296.966544 
L 460.019349 307.41719 
L 460.484737 346.755433 
L 460.950125 348.746322 
L 461.415513 312.485754 
L 461.880901 329.870787 
L 462.346289 305.739124 
L 462.811676 358.500236 
L 463.277064 313.798029 
L 463.742452 291.525209 
L 464.673228 330.945878 
L 465.138616 313.18337 
L 465.604003 325.72481 
L 466.069391 310.804552 
L 466.534779 317.41572 
L 467.000167 305.458347 
L 467.465555 351.174601 
L 467.930942 306.366617 
L 468.39633 296.829177 
L 468.861718 306.379075 
L 469.327106 341.82436 
L 469.792494 334.04396 
L 470.257882 288.624918 
L 470.723269 267.726847 
L 471.188657 332.901879 
L 471.654045 348.519062 
L 472.119433 287.421733 
L 472.584821 325.101157 
L 473.050209 340.285672 
L 473.515596 330.257971 
L 473.980984 293.662352 
L 474.446372 357.203667 
L 474.91176 351.4381 
L 475.377148 333.778517 
L 475.842535 276.127451 
L 476.307923 298.845716 
L 476.773311 304.49115 
L 477.238699 329.907388 
L 477.704087 300.644749 
L 478.169475 310.787305 
L 478.634862 297.793432 
L 479.10025 346.506255 
L 479.565638 287.026674 
L 480.031026 309.545517 
L 480.496414 341.33816 
L 480.961802 338.768318 
L 481.427189 288.900047 
L 481.892577 338.956754 
L 482.357965 337.099237 
L 482.823353 291.911542 
L 483.288741 330.329585 
L 483.754128 329.208285 
L 484.219516 324.960314 
L 484.684904 326.885142 
L 485.150292 309.045217 
L 485.61568 316.346637 
L 486.081068 313.320033 
L 486.546455 344.362994 
L 487.011843 338.203987 
L 487.477231 356.45178 
L 487.942619 307.628718 
L 488.408007 325.795533 
L 488.873394 338.437199 
L 489.338782 297.957636 
L 489.80417 333.389423 
L 490.269558 339.880206 
L 490.734946 332.289198 
L 491.200334 341.776375 
L 491.665721 347.338799 
L 492.131109 320.100173 
L 492.596497 313.834196 
L 493.061885 342.239786 
L 493.527273 285.772099 
L 493.992661 334.303045 
L 494.458048 319.092338 
L 494.923436 323.689014 
L 495.388824 338.106765 
L 495.854212 329.147333 
L 496.3196 348.176096 
L 496.784987 338.511541 
L 497.250375 310.985918 
L 497.715763 336.373666 
L 498.181151 332.910106 
L 498.646539 293.906571 
L 499.111927 295.279016 
L 499.577314 312.459536 
L 500.042702 296.096706 
L 500.50809 346.338228 
L 500.973478 303.403121 
L 501.438866 313.492424 
L 501.904254 345.823813 
L 502.369641 322.952625 
L 502.835029 323.12564 
L 503.300417 288.489015 
L 503.765805 295.236895 
L 504.231193 284.015164 
L 504.69658 355.750449 
L 505.161968 343.314186 
L 505.627356 304.256137 
L 506.092744 315.175999 
L 506.558132 317.379526 
L 507.02352 323.585522 
L 507.488907 351.308326 
L 507.954295 298.665996 
L 508.419683 321.737163 
L 508.885071 294.145571 
L 509.350459 328.400727 
L 509.815847 323.059376 
L 510.281234 294.963663 
L 510.746622 345.809839 
L 511.21201 344.740776 
L 511.677398 343.217216 
L 512.142786 323.604632 
L 512.608173 258.421013 
L 513.073561 313.847832 
L 513.538949 335.219491 
L 514.004337 315.676841 
L 514.469725 305.082572 
L 514.935113 328.624702 
L 515.4005 317.300676 
L 515.865888 278.814665 
L 516.331276 343.65607 
L 516.796664 315.490992 
L 517.262052 353.240064 
L 517.72744 349.192896 
L 518.192827 321.050611 
L 518.658215 338.707922 
L 519.123603 303.961202 
L 519.588991 348.183835 
L 520.054379 333.506542 
L 520.519766 336.610642 
L 520.985154 337.898082 
L 521.450542 311.460698 
L 521.91593 324.521094 
L 522.381318 299.832627 
L 522.846706 333.102316 
L 523.312093 325.231958 
L 523.777481 307.79926 
L 524.242869 338.430068 
L 524.708257 327.760121 
L 525.173645 265.440391 
L 525.639033 338.487495 
L 526.10442 323.019663 
L 526.569808 311.342951 
L 527.035196 322.8834 
L 527.500584 305.400372 
L 527.965972 328.468055 
L 528.431359 328.31415 
L 528.896747 306.080505 
L 529.362135 336.623932 
L 530.292911 295.312528 
L 530.758299 291.519495 
L 531.223686 317.945323 
L 531.689074 251.506893 
L 532.154462 294.581288 
L 532.61985 326.288876 
L 533.085238 324.235113 
L 533.550626 336.690688 
L 534.016013 318.387303 
L 534.481401 335.329611 
L 534.946789 298.590254 
L 535.412177 318.352178 
L 535.877565 313.332522 
L 536.342952 316.501782 
L 536.80834 310.088953 
L 537.273728 349.246376 
L 538.204504 285.953407 
L 538.669892 337.628609 
L 539.135279 315.777751 
L 539.600667 334.018044 
L 540.066055 305.157779 
L 540.531443 326.164804 
L 540.996831 341.504683 
L 541.462219 320.146995 
L 541.927606 332.72464 
L 542.392994 306.555172 
L 542.858382 328.013667 
L 543.32377 320.042191 
L 543.789158 321.846737 
L 544.254545 347.701881 
L 544.719933 341.171629 
L 545.185321 295.565666 
L 545.650709 303.95282 
L 546.116097 321.183514 
L 546.581485 272.361534 
L 547.046872 273.096738 
L 547.51226 355.448276 
L 547.977648 342.60922 
L 548.443036 302.548625 
L 548.908424 335.901605 
L 549.373812 321.492642 
L 549.839199 324.359759 
L 550.304587 314.456184 
L 550.769975 285.501151 
L 551.235363 328.276461 
L 551.700751 347.146049 
L 552.166138 311.512653 
L 552.631526 345.797092 
L 553.096914 313.375994 
L 553.562302 326.344819 
L 554.02769 343.944536 
L 554.493078 342.058885 
L 554.958465 300.588102 
L 555.423853 334.029753 
L 555.889241 334.482038 
L 556.354629 319.635015 
L 556.820017 328.516747 
L 557.285405 261.187786 
L 557.750792 331.34967 
L 558.21618 269.692647 
L 558.681568 337.34803 
L 559.146956 355.517441 
L 559.612344 325.967298 
L 560.077731 347.693055 
L 560.543119 333.852408 
L 561.008507 324.50198 
L 561.473895 292.403874 
L 561.939283 312.245035 
L 562.404671 316.316177 
L 562.870058 327.869358 
L 563.335446 349.989557 
L 563.800834 320.208714 
L 564.266222 336.741181 
L 564.73161 297.524831 
L 565.196997 346.733141 
L 565.662385 317.654999 
L 566.127773 319.520656 
L 566.593161 300.85778 
L 567.058549 296.527088 
L 567.523937 310.617186 
L 567.989324 351.296408 
L 568.454712 335.141671 
L 568.9201 308.098027 
L 569.385488 307.366257 
L 569.850876 269.646252 
L 570.316264 335.17724 
L 570.781651 320.657074 
L 571.247039 321.87568 
L 571.712427 304.262556 
L 572.177815 332.022529 
L 572.643203 319.86132 
L 573.10859 329.029513 
L 573.573978 300.399617 
L 574.039366 346.724723 
L 574.504754 290.005865 
L 574.970142 353.052731 
L 575.43553 336.963449 
L 575.900917 344.724812 
L 576.366305 279.460005 
L 576.831693 350.211293 
L 577.297081 285.256933 
L 578.227857 364.184034 
L 578.693244 321.99679 
L 579.158632 341.002226 
L 579.62402 327.151893 
L 580.089408 319.605181 
L 580.554796 315.539312 
L 581.020183 301.096068 
L 581.485571 328.696781 
L 581.950959 341.470575 
L 582.416347 361.763978 
L 583.347123 297.796738 
L 583.81251 327.15796 
L 584.277898 303.790579 
L 584.743286 310.851122 
L 585.208674 348.204671 
L 585.674062 319.700802 
L 586.13945 333.115243 
L 586.604837 299.280047 
L 587.070225 299.235974 
L 587.535613 311.138484 
L 588.001001 315.466923 
L 588.466389 328.730927 
L 588.931776 291.069656 
L 589.397164 280.621023 
L 589.862552 345.284349 
L 590.32794 313.433656 
L 590.793328 337.427718 
L 591.258716 287.788553 
L 591.724103 333.059966 
L 592.189491 295.734694 
L 592.654879 308.307279 
L 593.120267 290.354846 
L 593.585655 289.59248 
L 594.051043 339.81364 
L 594.51643 324.154452 
L 594.981818 355.688346 
L 595.447206 319.71359 
L 595.912594 299.001914 
L 596.377982 326.458628 
L 596.843369 306.311727 
L 597.308757 345.388268 
L 597.774145 332.421618 
L 598.239533 324.04501 
L 598.704921 328.507765 
L 599.170309 291.03719 
L 599.635696 315.375062 
L 600.101084 287.564504 
L 600.566472 336.911223 
L 601.03186 333.493693 
L 601.497248 302.359698 
L 601.962636 327.827918 
L 602.893411 326.849726 
L 603.358799 324.704306 
L 603.824187 334.779985 
L 604.289575 301.217143 
L 604.754962 320.81801 
L 605.22035 314.755559 
L 605.685738 320.999585 
L 606.151126 325.157506 
L 606.616514 341.086506 
L 607.081902 318.001378 
L 607.547289 354.341687 
L 608.012677 318.569808 
L 608.943453 350.840093 
L 609.408841 338.063968 
L 609.874229 315.214601 
L 610.339616 281.442739 
L 610.805004 309.138612 
L 611.270392 289.523955 
L 611.73578 291.67265 
L 612.201168 341.939133 
L 612.666555 305.285413 
L 613.131943 335.281953 
L 613.597331 297.866819 
L 614.062719 354.322774 
L 614.528107 356.580728 
L 614.993495 310.564263 
L 615.458882 330.020914 
L 615.92427 242.772044 
L 616.389658 305.569744 
L 616.855046 353.030611 
L 617.785822 305.332595 
L 618.251209 314.571329 
L 618.716597 309.739988 
L 619.181985 283.839059 
L 619.647373 344.05791 
L 620.112761 333.548756 
L 620.578148 327.81925 
L 621.043536 360.333544 
L 621.508924 334.258492 
L 621.974312 319.380877 
L 622.4397 341.6506 
L 622.905088 277.914792 
L 623.835863 319.464748 
L 624.301251 313.816039 
L 624.766639 321.554822 
L 625.232027 314.595111 
L 625.697415 340.892317 
L 626.162802 354.860389 
L 626.62819 329.729119 
L 627.558966 297.329431 
L 628.024354 323.185876 
L 628.489741 296.053237 
L 628.955129 309.884622 
L 629.420517 328.23434 
L 629.885905 327.297564 
L 630.351293 337.721077 
L 630.816681 308.890378 
L 631.282068 355.925225 
L 631.747456 309.978264 
L 632.212844 290.073709 
L 632.678232 318.017018 
L 633.14362 310.222712 
L 633.609008 347.497759 
L 634.074395 307.508707 
L 634.539783 335.583458 
L 635.005171 323.117831 
L 635.935947 291.696142 
L 636.401334 301.992251 
L 636.866722 349.382586 
L 637.33211 305.800901 
L 637.797498 319.556335 
L 638.262886 320.490993 
L 638.728274 307.724181 
L 639.193661 301.934845 
L 639.659049 309.227473 
L 640.124437 319.29665 
L 640.589825 317.333591 
L 641.055213 337.761594 
L 641.985988 312.931281 
L 642.451376 336.609418 
L 642.916764 329.048467 
L 643.382152 338.315628 
L 643.84754 342.890134 
L 644.312927 312.00332 
L 644.778315 332.306752 
L 645.243703 307.089971 
L 645.709091 347.360501 
L 646.174479 282.196092 
L 646.639867 338.436574 
L 647.105254 326.557137 
L 647.570642 338.756381 
L 648.03603 357.491558 
L 648.501418 340.297132 
L 648.966806 342.011587 
L 649.432193 316.36836 
L 649.897581 302.856015 
L 650.362969 346.863625 
L 650.828357 314.306986 
L 651.293745 308.276285 
L 651.759133 328.283929 
L 652.22452 326.96714 
L 652.689908 324.226004 
L 653.155296 272.954462 
L 653.620684 303.453612 
L 655.016847 360.223941 
L 655.482235 297.872866 
L 655.947623 311.677851 
L 656.413011 362.011226 
L 657.343786 343.596301 
L 657.809174 328.936819 
L 658.274562 306.758876 
L 658.73995 294.538167 
L 659.205338 312.739349 
L 659.670726 318.914286 
L 660.136113 312.025914 
L 660.601501 341.041597 
L 661.066889 322.989803 
L 661.532277 325.117921 
L 661.997665 353.153642 
L 662.463053 335.672496 
L 662.92844 313.396931 
L 663.393828 353.990693 
L 663.859216 309.359598 
L 664.324604 335.752221 
L 664.789992 327.263983 
L 665.255379 330.14791 
L 665.720767 313.637964 
L 666.651543 320.730585 
L 667.116931 297.403104 
L 668.047706 333.324297 
L 668.513094 319.103607 
L 668.978482 308.560457 
L 669.44387 317.812675 
L 669.909258 317.985269 
L 670.374646 309.967467 
L 670.840033 281.614964 
L 671.305421 296.756262 
L 671.770809 326.064108 
L 672.236197 303.274224 
L 672.701585 335.924613 
L 673.166972 333.79463 
L 673.63236 357.842424 
L 674.097748 310.781358 
L 674.563136 315.714774 
L 675.028524 335.536859 
L 675.493912 317.159801 
L 675.959299 289.32514 
L 676.424687 328.449499 
L 676.890075 323.882304 
L 677.355463 323.078838 
L 677.820851 290.341381 
L 678.286239 288.873388 
L 678.751626 331.508295 
L 679.217014 329.251103 
L 679.682402 343.900301 
L 680.14779 317.633957 
L 680.613178 313.655327 
L 681.078565 330.654052 
L 681.543953 311.466578 
L 682.009341 315.087958 
L 682.474729 312.060405 
L 682.940117 323.382941 
L 683.405505 331.330375 
L 683.870892 299.548385 
L 684.33628 292.557765 
L 684.801668 335.362187 
L 685.267056 312.084776 
L 685.732444 321.671221 
L 686.197832 321.842296 
L 686.663219 274.210431 
L 687.128607 314.35752 
L 687.593995 324.876063 
L 688.059383 316.891626 
L 688.524771 343.862163 
L 688.990158 316.974045 
L 689.455546 297.444645 
L 689.920934 340.77515 
L 690.386322 314.811618 
L 690.85171 332.641644 
L 691.317098 300.648179 
L 691.782485 299.844729 
L 692.247873 315.901037 
L 692.713261 359.224694 
L 693.178649 316.235794 
L 693.644037 327.998487 
L 694.109425 326.070093 
L 694.574812 310.726922 
L 695.970976 342.421251 
L 696.436364 330.692011 
L 696.901751 333.410545 
L 697.367139 302.642283 
L 698.297915 339.431016 
L 698.763303 327.033798 
L 699.228691 330.592027 
L 699.694078 326.521411 
L 700.159466 290.565801 
L 700.624854 294.047856 
L 701.55563 342.750086 
L 702.021018 333.919378 
L 702.486405 269.075034 
L 702.951793 266.806696 
L 703.417181 334.498191 
L 703.882569 358.396983 
L 704.347957 317.586466 
L 704.813344 312.919926 
L 705.278732 312.451894 
L 705.74412 318.909388 
L 706.209508 345.174953 
L 706.674896 280.196533 
L 707.140284 331.523921 
L 707.605671 326.31384 
L 708.071059 336.497322 
L 708.536447 350.561337 
L 709.467223 319.100514 
L 709.932611 295.509407 
L 710.397998 316.916252 
L 710.863386 329.982115 
L 711.328774 325.880535 
L 711.794162 344.789146 
L 712.25955 341.685313 
L 712.724937 295.035494 
L 713.190325 326.847438 
L 713.655713 309.605648 
L 714.121101 319.672544 
L 714.586489 322.496893 
L 715.051877 310.212363 
L 715.517264 315.473168 
L 715.982652 337.994525 
L 716.44804 276.015241 
L 716.913428 277.629753 
L 717.378816 321.052512 
L 717.844204 308.493276 
L 718.309591 307.469052 
L 719.705755 339.422112 
L 720.171143 332.627935 
L 720.63653 323.766656 
L 721.101918 287.481252 
L 721.567306 339.399932 
L 722.032694 320.973697 
L 722.498082 337.558939 
L 722.96347 339.988786 
L 723.428857 335.113828 
L 723.894245 328.889629 
L 724.359633 310.168511 
L 724.825021 284.252438 
L 725.290409 330.456743 
L 725.755796 279.208128 
L 726.221184 333.547316 
L 726.686572 307.257698 
L 727.15196 317.539947 
L 727.617348 300.952143 
L 728.082736 267.94241 
L 728.548123 337.043249 
L 729.013511 295.355679 
L 729.478899 338.090054 
L 729.944287 330.344877 
L 730.409675 325.917279 
L 730.875063 324.554051 
L 731.34045 340.041649 
L 731.805838 314.216258 
L 732.271226 297.849831 
L 732.736614 305.048163 
L 733.202002 320.017692 
L 733.667389 345.25317 
L 734.598165 292.486778 
L 735.063553 306.532733 
L 735.528941 344.232138 
L 735.994329 300.513917 
L 736.459716 335.686956 
L 736.925104 321.565576 
L 737.390492 289.262361 
L 737.85588 342.3366 
L 738.321268 293.715352 
L 738.786656 307.050405 
L 739.252043 305.739806 
L 739.717431 336.0059 
L 740.182819 320.573277 
L 740.648207 278.931203 
L 741.113595 306.219579 
L 741.578982 308.826646 
L 742.04437 329.569054 
L 742.509758 338.664438 
L 742.975146 329.485187 
L 743.440534 295.145273 
L 743.905922 354.902578 
L 744.371309 307.428986 
L 744.836697 331.622724 
L 745.302085 312.776748 
L 745.767473 320.285295 
L 746.232861 309.411123 
L 746.698249 338.442563 
L 747.163636 318.191238 
L 747.163636 318.191238 
" clip-path="url(#p16729a34f0)" style="fill: none; stroke: #ff7f0e; stroke-width: 1.5; stroke-linecap: square"/>
   </g>
   <g id="patch_3">
    <path d="M 108 384.48 
L 108 51.84 
" style="fill: none; stroke: #000000; stroke-width: 0.8; stroke-linejoin: miter; stroke-linecap: square"/>
   </g>
   <g id="patch_4">
    <path d="M 777.6 384.48 
L 777.6 51.84 
" style="fill: none; stroke: #000000; stroke-width: 0.8; stroke-linejoin: miter; stroke-linecap: square"/>
   </g>
   <g id="patch_5">
    <path d="M 108 384.48 
L 777.6 384.48 
" style="fill: none; stroke: #000000; stroke-width: 0.8; stroke-linejoin: miter; stroke-linecap: square"/>
   </g>
   <g id="patch_6">
    <path d="M 108 51.84 
L 777.6 51.84 
" style="fill: none; stroke: #000000; stroke-width: 0.8; stroke-linejoin: miter; stroke-linecap: square"/>
   </g>
   <g id="text_15">
    <!-- Regresso: Real vs Previsto -->
    <g transform="translate(360.520313 45.84) scale(0.12 -0.12)">
     <defs>
      <path id="DejaVuSans-52" d="M 2841 2188 
Q 3044 2119 3236 1894 
Q 3428 1669 3622 1275 
L 4263 0 
L 3584 0 
L 2988 1197 
Q 2756 1666 2539 1819 
Q 2322 1972 1947 1972 
L 1259 1972 
L 1259 0 
L 628 0 
L 628 4666 
L 2053 4666 
Q 2853 4666 3247 4331 
Q 3641 3997 3641 3322 
Q 3641 2881 3436 2590 
Q 3231 2300 2841 2188 
z
M 1259 4147 
L 1259 2491 
L 2053 2491 
Q 2509 2491 2742 2702 
Q 2975 2913 2975 3322 
Q 2975 3731 2742 3939 
Q 2509 4147 2053 4147 
L 1259 4147 
z
" transform="scale(0.015625)"/>
      <path id="DejaVuSans-65" d="M 3597 1894 
L 3597 1613 
L 953 1613 
Q 991 1019 1311 708 
Q 1631 397 2203 397 
Q 2534 397 2845 478 
Q 3156 559 3463 722 
L 3463 178 
Q 3153 47 2828 -22 
Q 2503 -91 2169 -91 
Q 1331 -91 842 396 
Q 353 884 353 1716 
Q 353 2575 817 3079 
Q 1281 3584 2069 3584 
Q 2775 3584 3186 3129 
Q 3597 2675 3597 1894 
z
M 3022 2063 
Q 3016 2534 2758 2815 
Q 2500 3097 2075 3097 
Q 1594 3097 1305 2825 
Q 1016 2553 972 2059 
L 3022 2063 
z
" transform="scale(0.015625)"/>
      <path id="DejaVuSans-67" d="M 2906 1791 
Q 2906 2416 2648 2759 
Q 2391 3103 1925 3103 
Q 1463 3103 1205 2759 
Q 947 2416 947 1791 
Q 947 1169 1205 825 
Q 1463 481 1925 481 
Q 2391 481 2648 825 
Q 2906 1169 2906 1791 
z
M 3481 434 
Q 3481 -459 3084 -895 
Q 2688 -1331 1869 -1331 
Q 1566 -1331 1297 -1286 
Q 1028 -1241 775 -1147 
L 775 -588 
Q 1028 -725 1275 -790 
Q 1522 -856 1778 -856 
Q 2344 -856 2625 -561 
Q 2906 -266 2906 331 
L 2906 616 
Q 2728 306 2450 153 
Q 2172 0 1784 0 
Q 1141 0 747 490 
Q 353 981 353 1791 
Q 353 2603 747 3093 
Q 1141 3584 1784 3584 
Q 2172 3584 2450 3431 
Q 2728 3278 2906 2969 
L 2906 3500 
L 3481 3500 
L 3481 434 
z
" transform="scale(0.015625)"/>
      <path id="DejaVuSans-72" d="M 2631 2963 
Q 2534 3019 2420 3045 
Q 2306 3072 2169 3072 
Q 1681 3072 1420 2755 
Q 1159 2438 1159 1844 
L 1159 0 
L 581 0 
L 581 3500 
L 1159 3500 
L 1159 2956 
Q 1341 3275 1631 3429 
Q 1922 3584 2338 3584 
Q 2397 3584 2469 3576 
Q 2541 3569 2628 3553 
L 2631 2963 
z
" transform="scale(0.015625)"/>
      <path id="DejaVuSans-73" d="M 2834 3397 
L 2834 2853 
Q 2591 2978 2328 3040 
Q 2066 3103 1784 3103 
Q 1356 3103 1142 2972 
Q 928 2841 928 2578 
Q 928 2378 1081 2264 
Q 1234 2150 1697 2047 
L 1894 2003 
Q 2506 1872 2764 1633 
Q 3022 1394 3022 966 
Q 3022 478 2636 193 
Q 2250 -91 1575 -91 
Q 1294 -91 989 -36 
Q 684 19 347 128 
L 347 722 
Q 666 556 975 473 
Q 1284 391 1588 391 
Q 1994 391 2212 530 
Q 2431 669 2431 922 
Q 2431 1156 2273 1281 
Q 2116 1406 1581 1522 
L 1381 1569 
Q 847 1681 609 1914 
Q 372 2147 372 2553 
Q 372 3047 722 3315 
Q 1072 3584 1716 3584 
Q 2034 3584 2315 3537 
Q 2597 3491 2834 3397 
z
" transform="scale(0.015625)"/>
      <path id="DejaVuSans-e3" d="M 2194 1759 
Q 1497 1759 1228 1600 
Q 959 1441 959 1056 
Q 959 750 1161 570 
Q 1363 391 1709 391 
Q 2188 391 2477 730 
Q 2766 1069 2766 1631 
L 2766 1759 
L 2194 1759 
z
M 3341 1997 
L 3341 0 
L 2766 0 
L 2766 531 
Q 2569 213 2275 61 
Q 1981 -91 1556 -91 
Q 1019 -91 701 211 
Q 384 513 384 1019 
Q 384 1609 779 1909 
Q 1175 2209 1959 2209 
L 2766 2209 
L 2766 2266 
Q 2766 2663 2505 2880 
Q 2244 3097 1772 3097 
Q 1472 3097 1187 3025 
Q 903 2953 641 2809 
L 641 3341 
Q 956 3463 1253 3523 
Q 1550 3584 1831 3584 
Q 2591 3584 2966 3190 
Q 3341 2797 3341 1997 
z
M 1844 4281 
L 1665 4453 
Q 1597 4516 1545 4545 
Q 1494 4575 1453 4575 
Q 1334 4575 1278 4461 
Q 1222 4347 1215 4091 
L 825 4091 
Q 831 4513 990 4742 
Q 1150 4972 1434 4972 
Q 1553 4972 1653 4928 
Q 1753 4884 1869 4781 
L 2047 4609 
Q 2115 4547 2167 4517 
Q 2219 4488 2259 4488 
Q 2378 4488 2434 4602 
Q 2490 4716 2497 4972 
L 2887 4972 
Q 2881 4550 2721 4320 
Q 2562 4091 2278 4091 
Q 2159 4091 2059 4134 
Q 1959 4178 1844 4281 
z
" transform="scale(0.015625)"/>
      <path id="DejaVuSans-6f" d="M 1959 3097 
Q 1497 3097 1228 2736 
Q 959 2375 959 1747 
Q 959 1119 1226 758 
Q 1494 397 1959 397 
Q 2419 397 2687 759 
Q 2956 1122 2956 1747 
Q 2956 2369 2687 2733 
Q 2419 3097 1959 3097 
z
M 1959 3584 
Q 2709 3584 3137 3096 
Q 3566 2609 3566 1747 
Q 3566 888 3137 398 
Q 2709 -91 1959 -91 
Q 1206 -91 779 398 
Q 353 888 353 1747 
Q 353 2609 779 3096 
Q 1206 3584 1959 3584 
z
" transform="scale(0.015625)"/>
      <path id="DejaVuSans-3a" d="M 750 794 
L 1409 794 
L 1409 0 
L 750 0 
L 750 794 
z
M 750 3309 
L 1409 3309 
L 1409 2516 
L 750 2516 
L 750 3309 
z
" transform="scale(0.015625)"/>
      <path id="DejaVuSans-20" transform="scale(0.015625)"/>
      <path id="DejaVuSans-61" d="M 2194 1759 
Q 1497 1759 1228 1600 
Q 959 1441 959 1056 
Q 959 750 1161 570 
Q 1363 391 1709 391 
Q 2188 391 2477 730 
Q 2766 1069 2766 1631 
L 2766 1759 
L 2194 1759 
z
M 3341 1997 
L 3341 0 
L 2766 0 
L 2766 531 
Q 2569 213 2275 61 
Q 1981 -91 1556 -91 
Q 1019 -91 701 211 
Q 384 513 384 1019 
Q 384 1609 779 1909 
Q 1175 2209 1959 2209 
L 2766 2209 
L 2766 2266 
Q 2766 2663 2505 2880 
Q 2244 3097 1772 3097 
Q 1472 3097 1187 3025 
Q 903 2953 641 2809 
L 641 3341 
Q 956 3463 1253 3523 
Q 1550 3584 1831 3584 
Q 2591 3584 2966 3190 
Q 3341 2797 3341 1997 
z
" transform="scale(0.015625)"/>
      <path id="DejaVuSans-6c" d="M 603 4863 
L 1178 4863 
L 1178 0 
L 603 0 
L 603 4863 
z
" transform="scale(0.015625)"/>
      <path id="DejaVuSans-76" d="M 191 3500 
L 800 3500 
L 1894 563 
L 2988 3500 
L 3597 3500 
L 2284 0 
L 1503 0 
L 191 3500 
z
" transform="scale(0.015625)"/>
      <path id="DejaVuSans-50" d="M 1259 4147 
L 1259 2394 
L 2053 2394 
Q 2494 2394 2734 2622 
Q 2975 2850 2975 3272 
Q 2975 3691 2734 3919 
Q 2494 4147 2053 4147 
L 1259 4147 
z
M 628 4666 
L 2053 4666 
Q 2838 4666 3239 4311 
Q 3641 3956 3641 3272 
Q 3641 2581 3239 2228 
Q 2838 1875 2053 1875 
L 1259 1875 
L 1259 0 
L 628 0 
L 628 4666 
z
" transform="scale(0.015625)"/>
      <path id="DejaVuSans-69" d="M 603 3500 
L 1178 3500 
L 1178 0 
L 603 0 
L 603 3500 
z
M 603 4863 
L 1178 4863 
L 1178 4134 
L 603 4134 
L 603 4863 
z
" transform="scale(0.015625)"/>
      <path id="DejaVuSans-74" d="M 1172 4494 
L 1172 3500 
L 2356 3500 
L 2356 3053 
L 1172 3053 
L 1172 1153 
Q 1172 725 1289 603 
Q 1406 481 1766 481 
L 2356 481 
L 2356 0 
L 1766 0 
Q 1100 0 847 248 
Q 594 497 594 1153 
L 594 3053 
L 172 3053 
L 172 3500 
L 594 3500 
L 594 4494 
L 1172 4494 
z
" transform="scale(0.015625)"/>
     </defs>
     <use xlink:href="#DejaVuSans-52"/>
     <use xlink:href="#DejaVuSans-65" x="64.982422"/>
     <use xlink:href="#DejaVuSans-67" x="126.505859"/>
     <use xlink:href="#DejaVuSans-72" x="189.982422"/>
     <use xlink:href="#DejaVuSans-65" x="228.845703"/>
     <use xlink:href="#DejaVuSans-73" x="290.369141"/>
     <use xlink:href="#DejaVuSans-73" x="342.46875"/>
     <use xlink:href="#DejaVuSans-e3" x="394.568359"/>
     <use xlink:href="#DejaVuSans-6f" x="455.847656"/>
     <use xlink:href="#DejaVuSans-3a" x="517.029297"/>
     <use xlink:href="#DejaVuSans-20" x="550.720703"/>
     <use xlink:href="#DejaVuSans-52" x="582.507812"/>
     <use xlink:href="#DejaVuSans-65" x="647.490234"/>
     <use xlink:href="#DejaVuSans-61" x="709.013672"/>
     <use xlink:href="#DejaVuSans-6c" x="770.292969"/>
     <use xlink:href="#DejaVuSans-20" x="798.076172"/>
     <use xlink:href="#DejaVuSans-76" x="829.863281"/>
     <use xlink:href="#DejaVuSans-73" x="889.042969"/>
     <use xlink:href="#DejaVuSans-20" x="941.142578"/>
     <use xlink:href="#DejaVuSans-50" x="972.929688"/>
     <use xlink:href="#DejaVuSans-72" x="1031.482422"/>
     <use xlink:href="#DejaVuSans-65" x="1070.345703"/>
     <use xlink:href="#DejaVuSans-76" x="1131.869141"/>
     <use xlink:href="#DejaVuSans-69" x="1191.048828"/>
     <use xlink:href="#DejaVuSans-73" x="1218.832031"/>
     <use xlink:href="#DejaVuSans-74" x="1270.931641"/>
     <use xlink:href="#DejaVuSans-6f" x="1310.140625"/>
    </g>
   </g>
   <g id="legend_1">
    <g id="patch_7">
     <path d="M 672.315625 89.19625 
L 770.6 89.19625 
Q 772.6 89.19625 772.6 87.19625 
L 772.6 58.84 
Q 772.6 56.84 770.6 56.84 
L 672.315625 56.84 
Q 670.315625 56.84 670.315625 58.84 
L 670.315625 87.19625 
Q 670.315625 89.19625 672.315625 89.19625 
z
" style="fill: #ffffff; opacity: 0.8; stroke: #cccccc; stroke-linejoin: miter"/>
    </g>
    <g id="line2d_17">
     <path d="M 674.315625 64.938437 
L 684.315625 64.938437 
L 694.315625 64.938437 
" style="fill: none; stroke: #1f77b4; stroke-width: 1.5; stroke-linecap: square"/>
    </g>
    <g id="text_16">
     <!-- Valores Reais -->
     <g transform="translate(702.315625 68.438437) scale(0.1 -0.1)">
      <defs>
       <path id="DejaVuSans-56" d="M 1831 0 
L 50 4666 
L 709 4666 
L 2188 738 
L 3669 4666 
L 4325 4666 
L 2547 0 
L 1831 0 
z
" transform="scale(0.015625)"/>
      </defs>
      <use xlink:href="#DejaVuSans-56"/>
      <use xlink:href="#DejaVuSans-61" x="60.658203"/>
      <use xlink:href="#DejaVuSans-6c" x="121.9375"/>
      <use xlink:href="#DejaVuSans-6f" x="149.720703"/>
      <use xlink:href="#DejaVuSans-72" x="210.902344"/>
      <use xlink:href="#DejaVuSans-65" x="249.765625"/>
      <use xlink:href="#DejaVuSans-73" x="311.289062"/>
      <use xlink:href="#DejaVuSans-20" x="363.388672"/>
      <use xlink:href="#DejaVuSans-52" x="395.175781"/>
      <use xlink:href="#DejaVuSans-65" x="460.158203"/>
      <use xlink:href="#DejaVuSans-61" x="521.681641"/>
      <use xlink:href="#DejaVuSans-69" x="582.960938"/>
      <use xlink:href="#DejaVuSans-73" x="610.744141"/>
     </g>
    </g>
    <g id="line2d_18">
     <path d="M 674.315625 79.616562 
L 684.315625 79.616562 
L 694.315625 79.616562 
" style="fill: none; stroke: #ff7f0e; stroke-width: 1.5; stroke-linecap: square"/>
    </g>
    <g id="text_17">
     <!-- Previses -->
     <g transform="translate(702.315625 83.116562) scale(0.1 -0.1)">
      <defs>
       <path id="DejaVuSans-f5" d="M 1959 3097 
Q 1497 3097 1228 2736 
Q 959 2375 959 1747 
Q 959 1119 1226 758 
Q 1494 397 1959 397 
Q 2419 397 2687 759 
Q 2956 1122 2956 1747 
Q 2956 2369 2687 2733 
Q 2419 3097 1959 3097 
z
M 1959 3584 
Q 2709 3584 3137 3096 
Q 3566 2609 3566 1747 
Q 3566 888 3137 398 
Q 2709 -91 1959 -91 
Q 1206 -91 779 398 
Q 353 888 353 1747 
Q 353 2609 779 3096 
Q 1206 3584 1959 3584 
z
M 1948 4281 
L 1769 4453 
Q 1701 4516 1649 4545 
Q 1598 4575 1557 4575 
Q 1438 4575 1382 4461 
Q 1326 4347 1319 4091 
L 929 4091 
Q 935 4513 1094 4742 
Q 1254 4972 1538 4972 
Q 1657 4972 1757 4928 
Q 1857 4884 1973 4781 
L 2151 4609 
Q 2219 4547 2271 4517 
Q 2323 4488 2363 4488 
Q 2482 4488 2538 4602 
Q 2594 4716 2601 4972 
L 2991 4972 
Q 2985 4550 2825 4320 
Q 2666 4091 2382 4091 
Q 2263 4091 2163 4134 
Q 2063 4178 1948 4281 
z
" transform="scale(0.015625)"/>
      </defs>
      <use xlink:href="#DejaVuSans-50"/>
      <use xlink:href="#DejaVuSans-72" x="58.552734"/>
      <use xlink:href="#DejaVuSans-65" x="97.416016"/>
      <use xlink:href="#DejaVuSans-76" x="158.939453"/>
      <use xlink:href="#DejaVuSans-69" x="218.119141"/>
      <use xlink:href="#DejaVuSans-73" x="245.902344"/>
      <use xlink:href="#DejaVuSans-f5" x="298.001953"/>
      <use xlink:href="#DejaVuSans-65" x="359.183594"/>
      <use xlink:href="#DejaVuSans-73" x="420.707031"/>
     </g>
    </g>
   </g>
  </g>
 </g>
 <defs>
  <clipPath id="p16729a34f0">
   <rect x="108" y="51.84" width="669.6" height="332.64"/>
  </clipPath>
 </defs>
</svg>
